<?xml version="1.0" encoding="utf-8"?>
<!-- Generator: Adobe Illustrator 16.0.5, SVG Export Plug-In . SVG Version: 6.00 Build 0)  -->
<!DOCTYPE svg PUBLIC "-//W3C//DTD SVG 1.1//EN" "http://www.w3.org/Graphics/SVG/1.1/DTD/svg11.dtd">
<svg version="1.1" id="Layer_1" xmlns="http://www.w3.org/2000/svg" xmlns:xlink="http://www.w3.org/1999/xlink" x="0px" y="0px"
	 width="50px" height="50px" viewBox="0 0 50 50" enable-background="new 0 0 50 50" xml:space="preserve">
<g>
	<g>
		
			<linearGradient id="SVGID_1_" gradientUnits="userSpaceOnUse" x1="77.0537" y1="-132.1953" x2="97.0536" y2="-152.1953" gradientTransform="matrix(1 0 0 -1 -56 -107)">
			<stop  offset="0.4479" style="stop-color:#006B7F"/>
			<stop  offset="1" style="stop-color:#37A8DB"/>
		</linearGradient>
		<path fill="url(#SVGID_1_)" d="M28.75,25c0,3.453,1.4,6.576,3.662,8.839c2.262,2.262,5.387,3.661,8.838,3.661
			c0,0.14,0,0.68,0,1.409c0,0.729,0,1.65,0,2.553c0,0.9,0,1.785,0,2.446c0,0.657,0,1.092,0,1.092c-2.76,0-5.391-0.56-7.785-1.571
			c-2.393-1.012-4.545-2.475-6.357-4.286c-1.812-1.808-3.273-3.966-4.286-6.356C21.81,30.393,21.25,27.761,21.25,25H28.75z"/>
	</g>
	<g>
		
			<linearGradient id="SVGID_2_" gradientUnits="userSpaceOnUse" x1="62.874" y1="-150.1245" x2="99.1243" y2="-113.8742" gradientTransform="matrix(1 0 0 -1 -56 -107)">
			<stop  offset="0.3252" style="stop-color:#37A8DB"/>
			<stop  offset="1" style="stop-color:#0A71B3"/>
		</linearGradient>
		<path fill="url(#SVGID_2_)" d="M28.75,25c0,2.761-0.562,5.393-1.571,7.786c-1.014,2.391-2.476,4.549-4.286,6.356
			c-1.809,1.812-3.965,3.275-6.357,4.286C14.142,44.44,11.513,45,8.75,45v-7.5c3.45,0,6.576-1.399,8.837-3.661
			c2.264-2.26,3.663-5.386,3.663-8.839c0-2.763,0.56-5.393,1.571-7.785c1.013-2.393,2.475-4.549,4.286-6.357
			c1.812-1.809,3.965-3.273,6.357-4.286C35.859,5.559,38.49,5,41.25,5v7.5c-3.451,0-6.576,1.4-8.838,3.662
			C30.15,18.424,28.75,21.549,28.75,25z"/>
	</g>
</g>
</svg>
