<svg xmlns="http://www.w3.org/2000/svg" xmlns:xlink="http://www.w3.org/1999/xlink" width="450" height="300"><path fill="#ce1126" d="M0 0h450v300h-450z"/><path d="M0 150h450v150h-450z"/><path d="M199.324 114.656h19.616l6.059-18.656 6.059 18.656h19.616l-15.867 11.528 6.059 18.656-15.867-11.528-15.867 11.528 6.059-18.656-15.867-11.528zm103.3 27.699c.501 5.085.501 10.206 0 15.291l-14.928-1.47c.404-4.107.404-8.243 0-12.35l14.928-1.47m-2.983 30.288c-1.483 4.889-3.443 9.621-5.851 14.127l-13.229-7.071c1.945-3.639 3.528-7.461 4.726-11.41l14.354 4.354m-14.347 26.84c-3.241 3.949-6.863 7.571-10.812 10.812l-9.516-11.595c3.19-2.618 6.115-5.543 8.733-8.733l11.595 9.516m-23.526 19.307c-4.506 2.408-9.238 4.368-14.127 5.851l-4.354-14.354c3.949-1.198 7.771-2.781 11.41-4.726l7.071 13.229m-29.124 8.835c-5.085.501-10.206.501-15.291 0l1.47-14.928c4.107.404 8.243.404 12.35 0l1.47 14.928m-30.288-2.983c-4.889-1.483-9.621-3.443-14.127-5.851l7.071-13.229c3.639 1.945 7.461 3.528 11.41 4.726l-4.354 14.354m45.284-149.283c4.889 1.483 9.621 3.443 14.127 5.851l-7.071 13.229c-3.639-1.945-7.461-3.528-11.41-4.726l4.354-14.354m26.84 14.347c3.949 3.241 7.571 6.863 10.812 10.812l-11.595 9.516c-2.618-3.19-5.543-6.115-8.733-8.733l9.516-11.595m19.307 23.526c2.408 4.506 4.368 9.238 5.851 14.127l-14.354 4.354c-1.198-3.949-2.781-7.771-4.726-11.41l13.229-7.071zm-13.199 111.633l7.292-8.552c3.838 3.714 9.007 7.376 12.755 10.703 3.749 3.327 6.621 6.092 8.945 9.872 3.407 5.539-.419 11.812-5.724 8.13-2.869-1.991-4.672-7.367-9.067-11.815-3.255-2.771-5.82-5.677-14.002-7.078-.393-.067-.508-.897-.199-1.26z" fill="#f9d616"/><path d="M291.406 222.297c.001.36-.191.693-.503.873-.312.18-.696.18-1.008 0-.312-.18-.504-.513-.503-.873-.001-.36.191-.693.503-.873.312-.18.696-.18 1.008 0 .312.18.504.513.503.873z" id="a"/><path d="M232.5 78.781l-1.425 13.35c29.398 3.083 52.425 27.69 52.425 57.9 0 32.292-26.208 58.5-58.5 58.5-14.079 0-26.802-5.204-36.9-13.5l-8.55 10.425c12.426 10.202 28.129 16.575 45.45 16.575 39.744 0 72-32.256 72-72 0-37.171-28.333-67.441-64.5-71.25z" fill="#f9d616"/><path d="M231.361 197.845l20.247 11.972 4.402 17.078 23.24-1.761 10.212-11.972-37.854-26.234-20.247 10.916z"/><path d="M279.663 223.689c-26.035-17.314-42.591-26.663-67.542-40.85-9.802-5.573-25.023-19.582-13.016-43.02.756 15.387 61.569 57.623 87.265 75.988l-6.707 7.883z" fill="#f9d616"/><path d="M216.086 167.519c20.046 18.891 45.29 34.302 67.812 51.335" stroke="#000" stroke-width="1.5" stroke-linecap="round" fill="none"/><use transform="translate(7.42 6.466)" xlink:href="#a"/><use transform="translate(13.938 13.09)" xlink:href="#a"/></svg>