<svg xmlns="http://www.w3.org/2000/svg" xmlns:xlink="http://www.w3.org/1999/xlink" height="500" width="1000"><defs><linearGradient id="a"><stop offset="0"/><stop offset="1" stop-color="#fff"/></linearGradient><linearGradient xlink:href="#a"/><linearGradient xlink:href="#a"/><linearGradient xlink:href="#a"/><linearGradient xlink:href="#a"/><linearGradient xlink:href="#a"/><linearGradient xlink:href="#a"/><linearGradient xlink:href="#a"/><linearGradient xlink:href="#a"/><linearGradient xlink:href="#a"/><linearGradient xlink:href="#a"/><linearGradient xlink:href="#a"/><linearGradient xlink:href="#a"/><linearGradient xlink:href="#a"/><linearGradient xlink:href="#a"/><linearGradient xlink:href="#a"/><linearGradient xlink:href="#a"/><linearGradient xlink:href="#a"/><linearGradient xlink:href="#a"/><linearGradient xlink:href="#a"/><linearGradient xlink:href="#a"/><linearGradient xlink:href="#a"/><linearGradient xlink:href="#a"/><linearGradient xlink:href="#a"/><linearGradient xlink:href="#a"/><linearGradient xlink:href="#a"/><linearGradient xlink:href="#a"/><linearGradient xlink:href="#a"/><linearGradient xlink:href="#a"/><linearGradient xlink:href="#a"/><linearGradient xlink:href="#a"/><linearGradient xlink:href="#a"/><linearGradient xlink:href="#a"/><linearGradient xlink:href="#a"/><linearGradient xlink:href="#a"/><linearGradient xlink:href="#a"/><linearGradient xlink:href="#a"/><linearGradient xlink:href="#a"/><linearGradient xlink:href="#a"/><linearGradient xlink:href="#a"/><linearGradient xlink:href="#a"/><linearGradient xlink:href="#a"/><linearGradient xlink:href="#a"/><linearGradient xlink:href="#a"/><linearGradient xlink:href="#a"/><linearGradient xlink:href="#a"/><linearGradient xlink:href="#a"/><linearGradient xlink:href="#a"/><linearGradient xlink:href="#a"/><linearGradient xlink:href="#a"/><linearGradient xlink:href="#a"/><linearGradient xlink:href="#a"/><linearGradient xlink:href="#a"/><linearGradient xlink:href="#a"/><linearGradient xlink:href="#a"/><linearGradient xlink:href="#a"/><linearGradient xlink:href="#a"/><linearGradient xlink:href="#a"/><linearGradient xlink:href="#a"/><linearGradient xlink:href="#a"/><linearGradient xlink:href="#a"/><linearGradient xlink:href="#a"/><linearGradient xlink:href="#a"/></defs><path font-size="12" fill="#006" d="M0 0h1000v500h-1000z"/><g font-size="12"><path d="M0 0v27.951l444.098 222.049h55.902v-27.951l-444.098-222.049h-55.902zm500 0v27.95l-444.098 222.05h-55.902v-27.952l444.098-222.048h55.902zm-291.667 0v250h83.333v-250h-83.333zm-208.333 83.333v83.333h500v-83.333h-500z" fill="#fff"/><path d="M0 100v50h500v-50h-500zm225-100v250h50v-250h-50zm-225 250l166.667-83.333h37.267l-166.666 83.333h-37.268zm0-250l166.667 83.333h-37.267l-129.399-64.699v-18.634zm296.066 83.333l166.667-83.333h37.267l-166.667 83.333h-37.267zm203.934 166.667l-166.667-83.333h37.267l129.399 64.699v18.634z" fill="#c00"/></g><path d="M650.486 128.365c0 124.023 9.894 168.062 43.839 202.066 33.944 34.003 46.805 39.359 56.269 44.569 10.918-6.01 23.498-12.612 54.263-43.377 30.429-30.429 45.144-74.291 45.144-205.376-22.132 9.476-33.155 12.598-52.51 12.543-14.335 1.405-36.45-7.782-49.674-13.79-8.642 5.502-21.179 12.064-43.709 12.8-26.021 1.091-34.266-3.113-53.621-9.435z" fill="#cc3"/><path d="M656.479 136.198c0 38.37-2.268 90.662 5.839 120.917 8.142 30.385 10.011 34.836 16.133 45.44l142.671-1.059c8.813-15.265 9.258-24.721 15.794-49.112 6.512-24.304 8.157-78.481 8.347-118.833-14.347 7.27-33.134 12.423-51.37 10.162-14.619-1.063-28.126-4.244-43.856-12.72-13.645 7.794-18.402 11.351-40.932 12.261-17.542.825-31.752 2.179-52.627-7.057z" fill="#fff"/><path d="M678.758 301.714c10.154 20.373 58.027 59.419 72.027 67.502 15.973-9.222 58.206-47.807 69.977-67.502h-142.005z" fill="#9cf"/><path d="M753.595 192.971c4.512 10.115 18.977 21.284 22.953 26.758-5.061 5.474-6.073 4.878-5.409 15.047 8.801-8.777 8.959-9.692 14.62-8.361 12.401 11.795 2.219 37.126-8.029 42.633-10.246 5.875-8.386-.203-23.743 7.16 7.041 5.738 15.199-.842 21.866.917 3.623 4.097-1.722 11.563 1.094 18.595 5.892-.541 5.184-11.878 6.556-15.989 4.304-15.061 30.182-25.565 31.497-39.38 5.456-2.441 10.909-.764 17.544 2.787-3.304-12.943-14.234-12.803-17.164-16.846-6.974-10.158-13.155-21.745-28.05-24.751-11.307-2.282-10.462.686-17.708-4.024-4.512-3.348-18.219-9.68-16.026-4.544z" font-size="12" fill="#f90"/><path transform="matrix(2.924 0 0 2.788 5.274 -135.849)" d="M267.045 122.104a.806.806 0 1 1-1.612 0 .806.806 0 1 1 1.612 0z" fill="#fff" fill-rule="evenodd"/><path d="M717.315 235.808c7.274-8.529 10.876-25.941 14.096-31.851 7.441 1.71 7.361 2.841 16.483-2.469-12.253-3.319-13.175-3.025-14.585-8.419 5.147-15.964 33.398-19.215 43.294-13.148 10.236 5.893 3.729 7.165 17.733 16.671 2.033-8.617-7.881-12.42-9.364-18.862 2.107-4.968 11.53-3.95 16.736-9.609-3.254-4.714-13.439 1.179-17.893 1.943-15.98 3.408-37.812-13.5-51.241-8.156-4.813-3.459-5.805-8.84-5.611-16.092-10.461 8.832-5.226 17.981-7.606 22.339-6.163 10.624-14.024 21.249-9.853 35.21 3.166 10.598 5.524 8.499 4.54 16.808-.998 5.368-.467 19.882 3.272 15.634z" font-size="12" fill="#f90"/><path transform="matrix(-1.366 -2.465 2.585 -1.302 762.019 1020.507)" d="M267.045 122.104a.806.806 0 1 1-1.612 0 .806.806 0 1 1 1.612 0z" fill="#fff" fill-rule="evenodd"/><path d="M776.428 241.813c-11.419-1.525-28.912 4.538-35.882 4.966-2.315-6.956-1.258-7.475-10.744-12.172 3.359 11.713 4.1 12.314-.012 16.253-16.992 4.055-34.525-17.316-34.199-28.527-.006-11.398 4.502-6.747 5.791-23.088-8.786 2.796-7.071 12.852-12.086 17.392-5.55.849-9.51-7.365-17.283-8.688-2.548 5.092 8.01 10.356 11 13.594 11.326 11.277 7.443 37.832 19.187 46.025-.615 5.716-4.932 9.307-11.542 12.898 13.34 3.969 18.844-5.033 23.987-5.344 12.725-.464 26.328.456 36.703-10.165 7.876-8.062 4.771-8.902 12.739-12.394 5.334-1.961 18.088-9.898 12.341-10.753z" font-size="12" fill="#f90"/><path transform="matrix(-1.506 2.389 -2.506 -1.436 1457.633 -200.205)" d="M267.045 122.104a.806.806 0 1 1-1.612 0 .806.806 0 1 1 1.612 0z" fill="#fff" fill-rule="evenodd"/></svg>