<svg xmlns="http://www.w3.org/2000/svg" xmlns:xlink="http://www.w3.org/1999/xlink" width="700" height="500" viewBox="0 0 7.7777778 5.5555556" fill-rule="evenodd"><defs id="defs4"><color-profile name="Coated-FOGRA39--ISO-12647-2:2004-" xlink:href="/usr/share/color/icc/Adobe_ICC_Profiles_(end-user)-2011/CoatedFOGRA39.icc" id="color-profile3752"/><style type="text/css" id="style6"/></defs><path id="_148171424" fill="#e41e20" d="M7.778 5.556v-5.556h-7.778v5.556z"/><path d="M3.334 1.08c-.054-.001-.144.017-.142.059-.15-.026-.166.036-.157.092l.045-.036.063.016.056.048-.136-.003-.066-.027-.049-.051-.055.027.116.076.103.013.114-.001-.067.033-.12-.028.106.066.263.075.126.107.061.125c.011.103-.025.161-.091.178l-.114-.033-.037-.138.01-.111c-.121-.067-.267-.134-.373-.174l-.062.044c-.18-.022-.343-.144-.416-.274-.05-.088-.132 0-.118.084.022.093.093.161.178.208.087.048.197.096.307.093.06.011.059.088-.013.103-.14.001-.251-.003-.357-.104-.08-.073-.125.014-.102.063.039.152.256.194.475.145.085-.014.034.077.01.078-.092.066-.255.13-.4-.001-.066-.051-.111-.008-.086.065.064.19.309.15.477.057.043-.024.083.032.03.075-.209.146-.314.148-.408.092-.118-.047-.128.084-.058.127.078.048.276.012.422-.08.062-.046.065.026.026.055-.173.149-.241.189-.421.164-.089-.007-.088.103-.018.146.096.059.283-.039.428-.159.061-.033.071.021.041.084-.089.112-.172.178-.252.209-.08.031-.158.026-.212.007-.067-.023-.075.046-.038.109.022.038.114.05.214.015.099-.035.206-.118.279-.215.064-.056.056.019.027.072-.147.232-.281.318-.457.303-.078-.013-.096.048-.046.104.088.073.197.07.293-.001l.334-.354c.06-.048.079-.001.062.097-.016.056-.056.115-.166.158-.075.043-.019.102.037.103l.142-.09c.063-.071.067-.119.102-.23.033-.054.092-.029.092.028-.028.111-.052.131-.109.176-.054.051.038.068.069.047.09-.061.123-.139.153-.211.022-.052.085-.027.056.058-.07.201-.185.28-.385.321l-.026.039.081.081-.349.093-.171-.114c-.016-.038-.024-.095-.114-.055l-.123.01.089.037c.025.066.083.072.142.053l.097.09-.193-.006c-.068-.073-.123-.069-.172-.012l-.078.052.083-.003c.073.042.12.033.156 0l.203.013-.087.056c-.105-.03-.16.01-.178.096l-.015.107.057-.081c.094.024.129-.014.134-.07l.158-.082.131.044c.019.057.062.08.131.065l.075.064c.022-.039.021-.077-.03-.111-.018-.05-.059-.073-.113-.044l-.114-.049.345-.09.089.078h.043l.19-.293.104-.084.06.015.023.095-.042.128-.065.095-.146.121-.162.024c-.074.008-.093.044-.033.094l.148.025.106-.077c.033-.038.088.007.051.052-.068.081-.136.134-.22.133-.088.012-.072.062-.013.086.106.044.201-.038.249-.092l.057.021c-.037.115-.088.159-.17.165-.067-.006-.068.046-.019.081.112.077.193-.054.231-.134.027-.072.068-.038.073.022.001.079-.035.144-.131.225l.232.352.232-.352c-.096-.081-.131-.146-.131-.225.004-.059.046-.093.073-.022.038.08.119.211.231.134.049-.035.048-.087-.019-.081-.083-.006-.133-.05-.17-.165l.057-.021c.048.054.144.135.249.092.059-.024.075-.074-.013-.086-.084.001-.152-.052-.22-.133-.038-.045.017-.09.051-.052l.106.077.148-.025c.06-.05.041-.085-.033-.094l-.162-.024-.146-.121-.065-.095-.042-.128.023-.095.06-.015.104.084.19.293h.043l.089-.078.345.09-.114.049c-.054-.029-.095-.006-.113.044-.051.034-.051.072-.03.111l.075-.064c.069.015.112-.008.131-.065l.131-.044.158.082c.005.056.04.094.134.07l.057.081-.015-.107c-.018-.086-.073-.126-.178-.096l-.087-.056.203-.013c.036.033.083.042.156 0l.083.003-.078-.052c-.049-.057-.103-.061-.172.012l-.193.006.097-.09c.059.019.117.012.142-.053l.089-.037-.123-.01c-.09-.04-.097.017-.114.055l-.171.114-.349-.093.081-.081-.026-.039c-.201-.041-.316-.12-.385-.321-.029-.084.034-.109.056-.058.03.071.063.15.153.211.031.021.124.004.069-.047-.057-.045-.081-.065-.109-.176 0-.057.059-.082.092-.028.035.111.039.158.102.23l.142.09c.056-.001.112-.06.037-.103-.11-.043-.15-.102-.166-.158-.018-.098.002-.145.062-.097l.334.354c.096.072.205.074.293.001.05-.056.032-.117-.046-.104-.177.015-.311-.071-.457-.303-.029-.053-.037-.128.027-.072.073.097.18.179.279.215.099.035.191.023.214-.015.037-.063.028-.132-.038-.109-.055.019-.132.024-.212-.007-.08-.031-.164-.097-.252-.209-.03-.063-.02-.117.041-.084.145.121.333.218.428.159.07-.043.072-.153-.018-.146-.18.024-.248-.015-.421-.164-.04-.029-.037-.101.026-.055.146.091.344.127.422.08.07-.043.06-.174-.058-.127-.094.056-.199.054-.408-.092-.053-.043-.013-.099.03-.075.168.094.413.134.477-.057.025-.073-.02-.115-.086-.065-.144.131-.308.066-.4.001-.024-.001-.075-.092.01-.078.219.049.436.007.475-.145.023-.049-.022-.136-.102-.063-.105.102-.217.105-.357.104-.071-.014-.072-.092-.013-.103.111.002.22-.045.307-.093.085-.048.156-.115.178-.208.014-.083-.068-.172-.118-.084-.073.13-.236.252-.416.274l-.062-.044c-.106.04-.253.108-.373.174l.01.111-.037.138-.114.033c-.067-.018-.103-.076-.091-.178l.061-.125.126-.107.263-.075.106-.066-.12.028-.067-.033.114.001.103-.013.116-.076-.055-.027-.049.051-.066.027-.136.003.056-.048.063-.016.045.036c.009-.055-.007-.117-.157-.092.002-.041-.088-.06-.142-.059l-.139.04-.226.043.106.077c-.073.027-.13.082-.156.118l.107.007-.177.088.052.011-.001.018-.122.126-.122-.126-.001-.018.052-.011-.177-.088.107-.007c-.025-.036-.082-.091-.156-.118l.106-.077-.226-.043-.139-.04zm.008.097l.071.033-.071.034-.072-.035.072-.032zm1.093 0l.072.032-.072.035-.071-.034.071-.033z" id="path9" fill-rule="evenodd"/></svg>