<svg xmlns="http://www.w3.org/2000/svg" width="600" height="400"><path fill="#01327a" d="M0 0h600v400h-600z"/><path fill="#fff" d="M80 0h160v160h-160z"/><path fill="#cf142b" fill-rule="evenodd" d="M160 0h80v160h-80z"/><path stroke="#fff" stroke-width="4.206" d="M-10-10h249.917v169.874h-249.917z" fill="none"/><path d="M354.997 182.976l12.875 20.5h36.625v71.5l-27.5-43-37 59h23l3.438-6.5h23.031l26.531 42.5 26.531-42.5h23.031l3.438 6.5h23l-37-59-27.5 43v-39.5h16.5l12.25-19.5h-28.75v-12.5h36.625l12.875-20.5h-122zm22.177 73.701l8.974 13.951-15.973.089 6.999-14.04zm77.291 1.418l7.176 12.533-14.555-.089 7.379-12.445zm6.144 48.688l4.734 14.844 15.58-.084-12.654 9.09 4.895 14.792-12.555-9.226-12.555 9.226 4.895-14.792-12.654-9.09 15.58.084zm-45.114 34.45l4.734 14.844 15.58-.084-12.654 9.09 4.895 14.792-12.555-9.226-12.555 9.226 4.895-14.792-12.654-9.09 15.58.084zm-43.876-34.389l-4.734 14.844-15.58-.084 12.654 9.09-4.895 14.792 12.555-9.226 12.555 9.226-4.895-14.792 12.654-9.09-15.58.084zm126.898-101.156l4.734 14.844 15.58-.084-12.654 9.09 4.895 14.792-12.555-9.226-12.555 9.226 4.895-14.792-12.654-9.09 15.58.084zm-164.318-.294l4.734 14.844 15.58-.084-12.654 9.09 4.895 14.792-12.555-9.226-12.555 9.226 4.895-14.792-12.654-9.09 15.58.084z" fill="#fff" fill-rule="evenodd"/></svg>