<svg xmlns="http://www.w3.org/2000/svg" xmlns:xlink="http://www.w3.org/1999/xlink" width="1000" height="500" viewBox="0 0 200 100"><path fill="#002395" d="M0 0h200v100h-200z"/><path d="M116.916 94.061l5.584-17.186 5.584 17.186-14.619-10.621h18.07l-14.619 10.621z" id="a" fill="#fff"/><path d="M53 0h100v100l-100-100z" fill="#FECB00"/><path d="M31.531 0h6.938l2.115 6.561-5.584-4.061-5.584 4.061 2.115-6.561zm100 100l-5.566-4.061 6.91-.002 2.125-6.563 2.125 6.563 6.91.002-5.566 4.061h-6.938z" fill="#fff"/><use transform="translate(-75 -75)" xlink:href="#a"/><use transform="translate(-62.5 -62.5)" xlink:href="#a"/><use transform="translate(-50 -50)" xlink:href="#a"/><use transform="translate(-37.5 -37.5)" xlink:href="#a"/><use transform="translate(-25 -25)" xlink:href="#a"/><use transform="translate(-12.5 -12.5)" xlink:href="#a"/></svg>