<svg xmlns="http://www.w3.org/2000/svg" xmlns:xlink="http://www.w3.org/1999/xlink" width="750" height="500" version="1"><defs><linearGradient id="a"><stop offset="0" stop-color="#fff" stop-opacity=".314"/><stop offset=".19" stop-color="#fff" stop-opacity=".251"/><stop offset=".6" stop-color="#6b6b6b" stop-opacity=".125"/><stop offset="1" stop-opacity=".125"/></linearGradient><radialGradient r="300" fy="446.195" fx="565.077" cy="446.195" cx="565.077" gradientTransform="matrix(1.353 0 0 1.349 -591.291 -405.034)" gradientUnits="userSpaceOnUse" id="b" xlink:href="#a"/></defs><g transform="translate(309.478 52.466)"><rect width="750" height="500" x="-309.478" y="-52.466" rx="6.3" ry="3.649" fill="#fff"/><path d="M38.611 143.144c-5.791 11.982-6.036 17.359-1.224 26.96 3.752 7.374 8.157 12.059 14.192 15.054 15.742 7.911 35.889 2.074 43.801-12.673 4.894-9.063 4.323-24.194-1.06-30.8l-1.468-1.767-1.387 5.223c-1.958 7.45-3.915 11.214-7.83 15.208-7.341 7.45-17.455 9.14-27.895 4.532-8.075-3.61-11.338-8.602-14.356-22.505l-.734-3.456-2.039 4.224z" fill="#fff"/><path transform="matrix(1.905 1.1 -1.1 1.905 -89.094 -69.136)" d="M62.15 157.744a.421.935 0 1 1 0-.015" fill="#fff"/><path transform="matrix(2.2 0 0 2.2 -281.423 -47.934)" d="M59.72 167.744a.421 1.121 0 1 1 0-.019" fill="#fff"/><path transform="matrix(2.167 -.382 .382 2.167 -345.435 -19.648)" d="M60.467 172.276a.421.981 0 1 1 0-.016" fill="#fff"/><path transform="matrix(.891 -1.543 1.543 .891 -475.454 290.175)" d="M66.262 181.669a.467 1.495 0 1 1 0-.025" fill="#fff"/><path transform="matrix(1.543 -.891 .891 1.543 -398.339 124.292)" d="M63.084 177.603a.467 1.262 0 1 1 0-.021" fill="#fff"/><path transform="matrix(1.675 .609 -.609 1.675 -151.281 1.879)" d="M60.561 162.65a.374 1.355 0 1 1 0-.022" fill="#fff"/><path transform="matrix(2.2 0 0 2.2 -281.423 -47.934)" d="M52.243 164.192a.187.093 0 1 1 0-.002" fill="#fff"/><path d="M257.582 258.334c.368 41.025.735 42.477.735 42.477-18.201 17.608-20.36 24.058-25.739 29.77-6.986-9.984-17.834-5.99-17.834-5.99-2.206-9.439-13.789-17.608-13.789-17.608 16.179-1.271 44.124-9.439 46.331-12.707 7.327-10.852-2.758-43.748-2.758-43.748l13.053 7.806zm-40.387 64.465l17.917-13.614-21.293 12.587" fill="#fcef3c" fill-opacity=".941" fill-rule="evenodd" stroke="#000"/><path d="M1309.197 678.883s-59.561-24.315-120.6 18.516c-5.83 1.706-10.095 1.206-14.731.398-11.803-12.652-38.566-49.847-59.234-45.024-1.523-31.428 2.067-157.077 2.067-157.077 8.956-.344 12.056 17.223 12.056 17.223-5.167 35.825 15.501 253.528 100.24 109.541l59.937 6.2 20.264 50.223z" fill="#fcef3c" fill-opacity=".941" fill-rule="evenodd" stroke="#000" stroke-width="4.189" transform="matrix(.377 0 0 .373 -249.802 -14.094)"/><g stroke="#000"><path d="M256.61 51.226c-19.304 6.898-19.545 10.543-38.665 27.243-15.26 5.99-37.987 20.682-39.274 23.95l1.237 4.771c-2.942 1.815-5.72-4.878-5.72-4.878 2.942-16.519 56.673-66.277 56.673-66.277l23.668 4.922 2.08 10.269z" fill="#fcef3c" fill-rule="evenodd"/><path d="M237.938 43.866l-60.411 54.856-1.285 3.996m48.475-38.508c-6.06 10.536-17.26 14.35-17.26 14.35" fill="none"/></g><path d="M-143.022 258.334c-.368 41.025-.735 42.477-.735 42.477 18.201 17.608 20.36 24.058 25.739 29.77 6.986-9.984 17.834-5.99 17.834-5.99 2.206-9.439 13.789-17.608 13.789-17.608-16.179-1.271-44.124-9.439-46.331-12.707-7.327-10.852 2.758-43.748 2.758-43.748l-13.053 7.806zm39.723 64.465l-17.917-13.614 21.293 12.587" fill="#fcef3c" fill-opacity=".941" fill-rule="evenodd" stroke="#000"/><path d="M318.125 678.883s59.561-24.315 120.6 18.516c5.83 1.706 10.096 1.206 14.731.398 11.803-12.652 38.566-49.847 59.234-45.024 1.523-31.428-2.067-157.077-2.067-157.077-8.956-.344-12.056 17.223-12.056 17.223 5.167 35.825-15.501 253.528-100.24 109.541l-59.937 6.2-20.264 50.223z" fill="#fcef3c" fill-opacity=".941" fill-rule="evenodd" stroke="#000" stroke-width="4.189" transform="matrix(.377 0 0 .373 -249.802 -14.094)"/><g stroke="#000"><path d="M-142.049 51.226c19.304 6.898 19.545 10.543 38.665 27.243 15.26 5.99 37.987 20.682 39.274 23.95l-1.237 4.771c2.942 1.815 5.72-4.878 5.72-4.878-2.942-16.519-56.673-66.277-56.673-66.277l-23.668 4.922-2.08 10.269z" fill="#fcef3c" fill-rule="evenodd"/><path d="M-124.042 43.866l60.411 54.856 1.285 3.996m-48.475-38.508c6.06 10.536 17.26 14.35 17.26 14.35" fill="none"/></g><path d="M56.948 350.621s112.534-41.895 112.534-148.369v-96.44h-225.069v96.44c0 106.473 112.534 148.369 112.534 148.369z" fill="#2b5df2" fill-rule="evenodd"/><path d="M515.161 531.818v48.188c0 30.922 3.503 59.814 9.75 86.75h577.5c6.247-26.936 9.75-55.828 9.75-86.75v-48.188h-597z" fill="#e20909" fill-rule="evenodd" stroke="#000" stroke-width="3" transform="matrix(.377 0 0 .373 -249.802 -14.094)"/><path d="M-56.152 105h226.2v246.18h-226.2z" fill="none"/><g fill="#fcef3c" stroke="#000"><path d="M-17.227 153.59c.101-4.399 1.189-8.487 3.216-12.362 5.305-11.16 21.507-10.894 17.936 2.756-1.316 5.03-5.787 7.986-11.099 8.493.383-1.325 2.492-6.01.79-6.927-2.722.103-6.102 4.807-6.915 7.05-.117.322-.085.694-.216 1.011M-23.975 153.88c-.101-4.399-1.189-8.487-3.216-12.362-5.305-11.16-21.507-10.894-17.936 2.756 1.316 5.03 5.787 7.986 11.099 8.493-.383-1.325-2.492-6.01-.79-6.927 2.722.103 6.102 4.807 6.915 7.05.117.322.085.694.216 1.011" fill-rule="evenodd"/><path d="M-20.915 111.263c-5.589 6.024-9.341 12.99-7.723 21.16.892 4.507 3.056 8.682 4.582 13.024.954 2.724 1.198 5.57 1.085 8.433h4.741c-.227-2.884.27-5.68 1.085-8.433 1.454-4.369 3.665-8.513 4.582-13.024 1.713-8.433-2.308-14.794-7.699-21.134l-.329-.42-.323.394z"/><path d="M-25.337 157.22c-.991 2.778-5.033 7.866-7.18 9.317-.557.376 2.662-.217 4.102-.532 1.89-.414 4.346-2.428 4.289-1.717-.005 3.255.91 8.685 3.295 11.18l.226.241.233-.241c2.384-2.781 3.283-7.671 3.295-11.18-.058-.711 2.399 1.303 4.289 1.717 1.441.316 4.659.909 4.102.532-2.147-1.45-6.186-6.538-7.178-9.317h-9.474z" fill-rule="evenodd"/><path d="M-31.868 153.739h22.57v3.657h-22.57z"/><path d="M60.419 153.59c.101-4.399 1.189-8.487 3.216-12.362 5.305-11.16 21.507-10.894 17.936 2.756-1.316 5.03-5.787 7.986-11.099 8.493.383-1.325 2.492-6.01.79-6.927-2.722.103-6.102 4.807-6.915 7.05-.117.322-.085.694-.216 1.011M53.671 153.88c-.101-4.399-1.189-8.487-3.216-12.362-5.305-11.16-21.507-10.894-17.936 2.756 1.316 5.03 5.787 7.986 11.099 8.493-.383-1.325-2.492-6.01-.79-6.927 2.722.103 6.102 4.807 6.915 7.05.117.322.085.694.216 1.011" fill-rule="evenodd"/><path d="M56.731 111.263c-5.589 6.024-9.341 12.99-7.723 21.16.892 4.507 3.056 8.682 4.582 13.024.954 2.724 1.198 5.57 1.085 8.433h4.741c-.227-2.884.27-5.68 1.085-8.433 1.454-4.369 3.665-8.513 4.582-13.024 1.713-8.433-2.308-14.794-7.699-21.134l-.329-.42-.323.394z"/><path d="M52.309 157.22c-.991 2.778-5.033 7.866-7.18 9.317-.557.376 2.662-.217 4.102-.532 1.89-.414 4.346-2.428 4.289-1.717-.005 3.255.91 8.685 3.295 11.18l.226.241.233-.241c2.384-2.781 3.283-7.671 3.295-11.18-.058-.711 2.399 1.303 4.289 1.717 1.441.316 4.659.909 4.102.532-2.147-1.45-6.186-6.538-7.178-9.317h-9.474z" fill-rule="evenodd"/><path d="M45.778 153.739h22.57v3.657h-22.57z"/><path d="M138.066 153.59c.101-4.399 1.189-8.487 3.216-12.362 5.305-11.16 21.507-10.894 17.936 2.756-1.316 5.03-5.787 7.986-11.099 8.493.383-1.325 2.492-6.01.79-6.927-2.722.103-6.102 4.807-6.915 7.05-.117.322-.085.694-.216 1.011M131.318 153.88c-.101-4.399-1.189-8.487-3.216-12.362-5.305-11.16-21.507-10.894-17.936 2.756 1.316 5.03 5.787 7.986 11.099 8.493-.383-1.325-2.492-6.01-.79-6.927 2.722.103 6.102 4.807 6.915 7.05.117.322.085.694.216 1.011" fill-rule="evenodd"/><path d="M134.378 111.263c-5.589 6.024-9.341 12.99-7.723 21.16.892 4.507 3.056 8.682 4.582 13.024.954 2.724 1.198 5.57 1.085 8.433h4.741c-.227-2.884.27-5.68 1.085-8.433 1.454-4.369 3.665-8.513 4.582-13.024 1.713-8.433-2.308-14.794-7.699-21.134l-.329-.42-.323.394z"/><path d="M129.956 157.22c-.991 2.778-5.033 7.866-7.18 9.317-.557.376 2.662-.217 4.102-.532 1.89-.414 4.346-2.428 4.289-1.717-.005 3.255.91 8.685 3.295 11.18l.226.241.233-.241c2.384-2.781 3.283-7.671 3.295-11.18-.058-.711 2.399 1.303 4.289 1.717 1.441.316 4.659.909 4.102.532-2.147-1.45-6.186-6.538-7.178-9.317h-9.474z" fill-rule="evenodd"/><path d="M123.425 153.739h22.57v3.657h-22.57z"/></g><path d="M757.196 623.487l54.449-22.183-22.183 54.449 24.199-16.133 24.199 16.133-22.183-54.449 54.449 22.183-16.133-24.199 16.133-24.199-54.449 22.183 22.183-54.449-24.199 16.133-24.199-16.133 22.183 54.449-54.449-22.183 16.133 24.199-16.133 24.199z" fill="#999" stroke="#000" stroke-width="3" transform="matrix(.377 0 0 .373 -249.802 -14.094)"/><g fill="#fcef3c" stroke="#000" stroke-width="5.839"><path d="M12.108 255.749c4.666.327 4.945-5.346 4.973-5.373.085-.083-.866 5.705 3.955 6.196 4.601.463 5.11-5.192 5.139-5.219.089-.079-1.101 5.665 3.44 6.304 4.508.832 5.292-4.981 5.322-5.006.092-.076-1.345 5.617 3.345 6.464 4.442.944 5.621-4.616 5.654-4.652l-2.284 8.31c.034.002-15.385-4.346-33.684-4.346-18.094 0-34.333 4.382-34.301 4.398l-2.215-8.376.009-.048c.032.023 1.211 5.583 5.653 4.639 4.69-.847 3.252-6.539 3.345-6.464.031.025.814 5.838 5.322 5.006 4.541-.639 3.351-6.383 3.44-6.304.029.026.539 5.682 5.139 5.219 4.822-.492 3.87-6.279 3.955-6.196.028.027.307 5.7 4.973 5.373 4.897-.055 4.564-5.907 4.641-5.817.025.03-.299 5.701 4.164 5.878" fill-rule="evenodd"/><path d="M-24.864 269.671s15.07-4.169 32.245-4.169c17.369 0 32.344 4.124 32.308 4.127.479-.365.479-.365.37-.998-.007.036-15.163-4.138-32.736-4.138-17.376 0-32.622 4.207-32.608 4.179-.089.642-.094.63.422.998zm-1.237-5.98s15.7-4.352 33.617-4.352c18.12 0 33.763 4.306 33.725 4.309.5-.381.5-.381.386-1.042-.007.038-15.839-4.32-34.171-4.32-18.127 0-34.011 4.392-33.996 4.363-.093.67-.098.657.44 1.041zm33.129-4.351c-17.897 0-33.088 4.341-33.122 4.351l.773 4.932.189.013c.812-.206 15.585-4.141 32.455-4.141 16.681 0 31.109 3.754 32.588 4.105l.152-.026 1.168-4.919-.02-.013c-.295-.091-16.251-4.302-34.182-4.302zM7.514 259.34c-3.149 0-4.367.002-7.305.224-.271.077-1.269.503-1.1 2.632.195 2.46 1.461 2.461 1.461 2.461l.064.026c2.747-.199 3.757-.188 6.688-.188 2.459 0 4.319.083 6.648.223l.246-.118s1.165.006 1.262-2.549c.097-2.554-1.262-2.465-1.262-2.465l-.084-.03c-2.323-.136-4.172-.217-6.618-.217zm-.038.545c-2.818 0-3.909.002-6.539.175-.243.06-1.136.393-.985 2.057.174 1.923 1.308 1.924 1.308 1.924l.057.021c2.459-.156 3.362-.147 5.986-.147 2.201 0 3.866.065 5.951.174l.221-.092s1.043.004 1.13-1.992c.087-1.997-1.13-1.927-1.13-1.927l-.076-.023c-2.079-.106-3.734-.169-5.924-.169zM-19.914 262.227c-3.857.803-6.166 1.46-6.18 1.463l.773 4.932.064.003c2.277-.622 4.035-1.02 6.24-1.483l.199-.174s1.097-.294.493-2.72c-.43-1.727-1.188-2.004-1.59-2.021zm-.649.65l-.182.03h-.078c-1.845.405-3.342.75-5.197 1.25l.614 3.921c2.021-.551 3.587-.915 5.545-1.342l.182-.144s.982-.263.52-2.162c-.347-1.425-1.066-1.57-1.404-1.552zm55.482-.65c-.407.025-1.146.318-1.569 2.018-.604 2.426.493 2.72.493 2.72l.199.174c2.133.448 3.854.836 6.024 1.424l.851-3.593.202-1.283c-.013-.004-2.154-.611-5.731-1.368l-.469-.092zm.601.647c-.359.007-1.012.216-1.337 1.552-.462 1.9.52 2.162.52 2.162l.182.144c1.88.41 3.402.764 5.309 1.28l.719-3.025.132-.833c-1.855-.5-3.352-.845-5.197-1.25h-.078l-.182-.03h-.068z" fill-rule="evenodd"/><path transform="matrix(.108 0 0 .105 -1.571 287.879)" d="M-61.158-234.44a15.29 15.29 0 1 1-30.579 0 15.29 15.29 0 1 1 30.579 0z"/><path transform="matrix(.108 0 0 .105 32.556 287.879)" d="M-61.158-234.44a15.29 15.29 0 1 1-30.579 0 15.29 15.29 0 1 1 30.579 0z"/><path transform="matrix(.247 0 0 .24 -10.054 309.246)" d="M-61.158-234.44a15.29 15.29 0 1 1-30.579 0 15.29 15.29 0 1 1 30.579 0z"/><path transform="matrix(.247 0 0 .24 -1.356 306.99)" d="M-61.158-234.44a15.29 15.29 0 1 1-30.579 0 15.29 15.29 0 1 1 30.579 0z"/><path transform="matrix(.247 0 0 .24 7.633 305.579)" d="M-61.158-234.44a15.29 15.29 0 1 1-30.579 0 15.29 15.29 0 1 1 30.579 0z"/><path transform="matrix(.247 0 0 .24 16.911 304.451)" d="M-61.158-234.44a15.29 15.29 0 1 1-30.579 0 15.29 15.29 0 1 1 30.579 0z"/><path transform="matrix(.247 0 0 .24 26.479 303.947)" d="M-61.158-234.44a15.29 15.29 0 1 1-30.579 0 15.29 15.29 0 1 1 30.579 0z"/><path transform="matrix(.247 0 0 .24 35.757 304.451)" d="M-61.158-234.44a15.29 15.29 0 1 1-30.579 0 15.29 15.29 0 1 1 30.579 0z"/><path transform="matrix(.247 0 0 .24 45.035 305.579)" d="M-61.158-234.44a15.29 15.29 0 1 1-30.579 0 15.29 15.29 0 1 1 30.579 0z"/><path transform="matrix(.247 0 0 .24 54.023 306.99)" d="M-61.158-234.44a15.29 15.29 0 1 1-30.579 0 15.29 15.29 0 1 1 30.579 0z"/><path transform="matrix(.247 0 0 .24 63.011 309.246)" d="M-61.158-234.44a15.29 15.29 0 1 1-30.579 0 15.29 15.29 0 1 1 30.579 0z"/><path d="M110.806 255.749c4.666.327 4.945-5.346 4.973-5.373.085-.083-.866 5.705 3.955 6.196 4.601.463 5.11-5.192 5.139-5.219.089-.079-1.101 5.665 3.44 6.304 4.508.832 5.292-4.981 5.322-5.006.092-.076-1.345 5.617 3.345 6.464 4.442.944 5.621-4.616 5.654-4.652l-2.284 8.31c.034.002-15.385-4.346-33.684-4.346-18.094 0-34.333 4.382-34.301 4.398l-2.215-8.376.009-.048c.032.023 1.211 5.583 5.653 4.639 4.69-.847 3.252-6.539 3.345-6.464.031.025.814 5.838 5.322 5.006 4.541-.639 3.351-6.383 3.44-6.304.029.026.539 5.682 5.139 5.219 4.822-.492 3.87-6.279 3.955-6.196.028.027.307 5.7 4.973 5.373 4.897-.055 4.564-5.907 4.641-5.817.025.03-.299 5.701 4.164 5.878" fill-rule="evenodd"/><path d="M73.834 269.671s15.07-4.169 32.245-4.169c17.369 0 32.344 4.124 32.308 4.127.479-.365.479-.365.37-.998-.007.036-15.163-4.138-32.736-4.138-17.376 0-32.622 4.207-32.608 4.179-.089.642-.094.63.422.998zm-1.237-5.98s15.7-4.352 33.617-4.352c18.12 0 33.763 4.306 33.725 4.309.5-.381.5-.381.386-1.042-.007.038-15.839-4.32-34.171-4.32-18.127 0-34.011 4.392-33.996 4.363-.093.67-.098.657.44 1.041zm33.129-4.351c-17.897 0-33.088 4.341-33.122 4.351l.773 4.932.189.013c.812-.206 15.585-4.141 32.455-4.141 16.681 0 31.109 3.754 32.588 4.105l.152-.026 1.168-4.919-.02-.013c-.295-.091-16.251-4.302-34.182-4.302zM106.212 259.34c-3.149 0-4.367.002-7.305.224-.271.077-1.269.503-1.1 2.632.195 2.46 1.461 2.461 1.461 2.461l.064.026c2.747-.199 3.757-.188 6.688-.188 2.459 0 4.319.083 6.648.223l.246-.118s1.165.006 1.262-2.549c.097-2.554-1.262-2.465-1.262-2.465l-.084-.03c-2.323-.136-4.172-.217-6.618-.217zm-.038.545c-2.818 0-3.909.002-6.539.175-.243.06-1.136.393-.985 2.057.174 1.923 1.308 1.924 1.308 1.924l.057.021c2.459-.156 3.362-.147 5.986-.147 2.201 0 3.866.065 5.951.174l.221-.092s1.043.004 1.13-1.992c.087-1.997-1.13-1.927-1.13-1.927l-.076-.023c-2.079-.106-3.734-.169-5.924-.169zM78.784 262.227c-3.857.803-6.166 1.46-6.18 1.463l.773 4.932.064.003c2.277-.622 4.035-1.02 6.24-1.483l.199-.174s1.097-.294.493-2.72c-.43-1.727-1.188-2.004-1.59-2.021zm-.648.65l-.182.03h-.078c-1.845.405-3.342.75-5.197 1.25l.614 3.921c2.021-.551 3.587-.915 5.545-1.342l.182-.144s.982-.263.52-2.162c-.347-1.425-1.066-1.57-1.404-1.552zm55.481-.65c-.407.025-1.146.318-1.569 2.018-.604 2.426.493 2.72.493 2.72l.199.174c2.133.448 3.854.836 6.024 1.424l.851-3.593.202-1.283c-.013-.004-2.154-.611-5.731-1.368l-.469-.092zm.601.647c-.359.007-1.012.216-1.337 1.552-.462 1.9.52 2.162.52 2.162l.182.144c1.88.41 3.402.764 5.309 1.28l.719-3.025.132-.833c-1.855-.5-3.352-.845-5.197-1.25h-.078l-.182-.03h-.068z" fill-rule="evenodd"/><path d="M-61.158-234.44a15.29 15.29 0 1 1-30.579 0 15.29 15.29 0 1 1 30.579 0z" transform="matrix(.108 0 0 .105 97.127 287.879)"/><path d="M-61.158-234.44a15.29 15.29 0 1 1-30.579 0 15.29 15.29 0 1 1 30.579 0z" transform="matrix(.108 0 0 .105 131.254 287.879)"/><path d="M-61.158-234.44a15.29 15.29 0 1 1-30.579 0 15.29 15.29 0 1 1 30.579 0z" transform="matrix(.247 0 0 .24 88.644 309.246)"/><path d="M-61.158-234.44a15.29 15.29 0 1 1-30.579 0 15.29 15.29 0 1 1 30.579 0z" transform="matrix(.247 0 0 .24 97.342 306.99)"/><path d="M-61.158-234.44a15.29 15.29 0 1 1-30.579 0 15.29 15.29 0 1 1 30.579 0z" transform="matrix(.247 0 0 .24 106.331 305.579)"/><path d="M-61.158-234.44a15.29 15.29 0 1 1-30.579 0 15.29 15.29 0 1 1 30.579 0z" transform="matrix(.247 0 0 .24 115.609 304.451)"/><path d="M-61.158-234.44a15.29 15.29 0 1 1-30.579 0 15.29 15.29 0 1 1 30.579 0z" transform="matrix(.247 0 0 .24 125.177 303.947)"/><path d="M-61.158-234.44a15.29 15.29 0 1 1-30.579 0 15.29 15.29 0 1 1 30.579 0z" transform="matrix(.247 0 0 .24 134.455 304.451)"/><path d="M-61.158-234.44a15.29 15.29 0 1 1-30.579 0 15.29 15.29 0 1 1 30.579 0z" transform="matrix(.247 0 0 .24 143.733 305.579)"/><path d="M-61.158-234.44a15.29 15.29 0 1 1-30.579 0 15.29 15.29 0 1 1 30.579 0z" transform="matrix(.247 0 0 .24 152.721 306.99)"/><path d="M-61.158-234.44a15.29 15.29 0 1 1-30.579 0 15.29 15.29 0 1 1 30.579 0z" transform="matrix(.247 0 0 .24 161.709 309.246)"/><path d="M61.457 306.964c4.666.327 4.945-5.346 4.973-5.373.085-.083-.866 5.705 3.955 6.196 4.601.463 5.11-5.192 5.139-5.219.089-.079-1.101 5.665 3.44 6.304 4.508.832 5.292-4.981 5.322-5.006.092-.076-1.345 5.617 3.345 6.464 4.442.944 5.621-4.616 5.654-4.652l-2.284 8.31c.034.002-15.385-4.346-33.684-4.346-18.094 0-34.333 4.382-34.301 4.398l-2.215-8.376.009-.048c.032.023 1.211 5.583 5.653 4.639 4.69-.847 3.252-6.539 3.345-6.464.031.025.814 5.838 5.322 5.006 4.541-.639 3.351-6.383 3.44-6.304.029.026.539 5.682 5.139 5.219 4.822-.492 3.87-6.279 3.955-6.196.028.027.307 5.7 4.973 5.373 4.897-.055 4.564-5.907 4.641-5.817.025.03-.299 5.701 4.164 5.878" fill-rule="evenodd"/><path d="M24.485 320.886s15.07-4.169 32.245-4.169c17.369 0 32.344 4.124 32.308 4.127.479-.365.479-.365.37-.998-.007.036-15.163-4.138-32.736-4.138-17.376 0-32.622 4.207-32.608 4.179-.089.642-.094.63.422.998zm-1.237-5.98s15.7-4.352 33.617-4.352c18.12 0 33.763 4.306 33.725 4.309.5-.381.5-.381.386-1.042-.007.038-15.839-4.32-34.171-4.32-18.127 0-34.011 4.392-33.996 4.363-.093.67-.098.657.44 1.041zm33.129-4.351c-17.897 0-33.088 4.341-33.122 4.351l.773 4.932.189.013c.812-.206 15.585-4.141 32.455-4.141 16.681 0 31.109 3.754 32.588 4.105l.152-.026 1.168-4.919-.02-.013c-.295-.091-16.251-4.302-34.182-4.302zM56.863 310.555c-3.149 0-4.367.002-7.305.224-.271.077-1.269.503-1.1 2.632.195 2.46 1.461 2.461 1.461 2.461l.064.026c2.747-.199 3.757-.188 6.688-.188 2.459 0 4.319.083 6.648.223l.246-.118s1.165.006 1.262-2.549c.097-2.554-1.262-2.465-1.262-2.465l-.084-.03c-2.323-.136-4.172-.217-6.618-.217zm-.038.545c-2.818 0-3.909.002-6.539.175-.243.06-1.136.393-.985 2.057.174 1.923 1.308 1.924 1.308 1.924l.057.021c2.459-.156 3.362-.147 5.986-.147 2.201 0 3.866.065 5.951.174l.221-.092s1.043.004 1.13-1.992c.087-1.997-1.13-1.927-1.13-1.927l-.076-.023c-2.079-.106-3.734-.169-5.924-.169zM29.434 313.442c-3.857.803-6.166 1.46-6.18 1.463l.773 4.932.064.003c2.277-.622 4.035-1.02 6.24-1.483l.199-.174s1.097-.294.493-2.72c-.43-1.727-1.188-2.004-1.59-2.021zm-.647.65l-.182.03h-.078c-1.845.405-3.342.75-5.197 1.25l.614 3.921c2.021-.551 3.587-.915 5.545-1.342l.182-.144s.982-.263.52-2.162c-.347-1.425-1.066-1.57-1.404-1.552zm55.481-.65c-.407.025-1.146.318-1.569 2.018-.604 2.426.493 2.72.493 2.72l.199.174c2.133.448 3.854.836 6.024 1.424l.851-3.593.202-1.283c-.013-.004-2.154-.611-5.731-1.368l-.469-.092zm.601.647c-.359.007-1.012.216-1.337 1.552-.462 1.9.52 2.162.52 2.162l.182.144c1.88.41 3.402.764 5.309 1.28l.719-3.025.132-.833c-1.855-.5-3.352-.845-5.197-1.25h-.078l-.182-.03h-.068z" fill-rule="evenodd"/><path transform="matrix(.108 0 0 .105 47.778 339.094)" d="M-61.158-234.44a15.29 15.29 0 1 1-30.579 0 15.29 15.29 0 1 1 30.579 0z"/><path transform="matrix(.108 0 0 .105 81.905 339.094)" d="M-61.158-234.44a15.29 15.29 0 1 1-30.579 0 15.29 15.29 0 1 1 30.579 0z"/><path transform="matrix(.247 0 0 .24 39.295 360.461)" d="M-61.158-234.44a15.29 15.29 0 1 1-30.579 0 15.29 15.29 0 1 1 30.579 0z"/><path transform="matrix(.247 0 0 .24 47.993 358.205)" d="M-61.158-234.44a15.29 15.29 0 1 1-30.579 0 15.29 15.29 0 1 1 30.579 0z"/><path transform="matrix(.247 0 0 .24 56.982 356.794)" d="M-61.158-234.44a15.29 15.29 0 1 1-30.579 0 15.29 15.29 0 1 1 30.579 0z"/><path transform="matrix(.247 0 0 .24 66.26 355.666)" d="M-61.158-234.44a15.29 15.29 0 1 1-30.579 0 15.29 15.29 0 1 1 30.579 0z"/><path transform="matrix(.247 0 0 .24 75.828 355.162)" d="M-61.158-234.44a15.29 15.29 0 1 1-30.579 0 15.29 15.29 0 1 1 30.579 0z"/><path transform="matrix(.247 0 0 .24 85.106 355.666)" d="M-61.158-234.44a15.29 15.29 0 1 1-30.579 0 15.29 15.29 0 1 1 30.579 0z"/><path transform="matrix(.247 0 0 .24 94.384 356.794)" d="M-61.158-234.44a15.29 15.29 0 1 1-30.579 0 15.29 15.29 0 1 1 30.579 0z"/><path transform="matrix(.247 0 0 .24 103.372 358.205)" d="M-61.158-234.44a15.29 15.29 0 1 1-30.579 0 15.29 15.29 0 1 1 30.579 0z"/><path transform="matrix(.247 0 0 .24 112.36 360.461)" d="M-61.158-234.44a15.29 15.29 0 1 1-30.579 0 15.29 15.29 0 1 1 30.579 0z"/></g><path d="M-610.771-170.761c.018 3.787-30.443 6.855-68.036 6.857-37.596.002-68.087-3.064-68.107-6.849v-.008c-.018-3.783 30.443-6.853 68.036-6.855 37.596-.002 68.089 3.064 68.107 6.849v.006z" fill="#eabe4e" stroke="#010101" stroke-width=".291" transform="matrix(1.32 0 0 1.306 953.776 311.244)"/><path d="M-677.983-182.865c-41.044 0-74.345 5.411-74.345 12.094s33.3 12.124 74.345 12.124c41.042 0 74.345-5.441 74.345-12.124 0-6.683-33.303-12.094-74.345-12.094zm0 5.252c37.575 0 68.063 3.06 68.063 6.843s-30.487 6.875-68.063 6.875c-37.575 0-68.063-3.092-68.063-6.875 0-3.784 30.487-6.843 68.063-6.843z" fill="#c7af67" stroke="#010101" stroke-width=".291" transform="matrix(1.32 0 0 1.306 953.776 311.244)"/><path d="M11.485 79.075c-2.566.121-4.547.307-6.971.449.088 3.981.164 8.294.329 15.181 3.223.191 5.774.465 9.241.614l-2.599-16.244zm37.906-.897c-3.791 0-7.014.159-10.684.204l-11.302 17.265c7.22.185 14.183.449 21.986.449 13.368 0 25.803-.379 37.207-.9l.495-16.123c-11.546-.537-24.116-.896-37.702-.896zm44.962 1.346l2.229 15.019c3.111-.199 6.279-.379 9.116-.611l-5.899-14.041c-1.803-.124-3.548-.256-5.446-.367z" fill="#faf399"/><path d="M-610.771-170.761c.018 3.787-30.443 6.855-68.036 6.857-37.596.002-68.087-3.064-68.107-6.849v-.008c-.018-3.783 30.443-6.853 68.036-6.855 37.596-.002 68.089 3.064 68.107 6.849v.006z" stroke="#010101" stroke-width=".291" transform="matrix(1.32 0 0 1.306 953.776 311.244)" fill="none"/><path d="M-679.014-204.083c-30.326 0-57.028 4.712-73.688 11.905l4.5 16.782h1.531c11.154-4.39 37.687-7.468 68.689-7.468 30.895 0 57.312 3.072 68.531 7.438l4.469-16.626c-16.627-7.272-43.514-12.031-74.032-12.031z" fill="#e9cb53" stroke="#010101" stroke-width=".291" stroke-linejoin="bevel" transform="matrix(1.32 0 0 1.306 953.776 311.244)"/><path d="M-31.65 56.902l1.157 4.254m1.397 4.648l1.465 5.394m1.597 5.695l.801 2.947m1.413-20.254l1.144 4.215m1.75 6.033l1.432 5.28m5.037-21.744l.833 3.076m1.037 4.821l1.549 5.708m1.345 6.053l.707 2.606m4.739-20.583l.851 4.202m1.363 6.046l1.021 5.713m5.615-22.345l.68 4.368m1.023 4.705l.851 5.88m1.192 6.214l.34 3.362m12.937-26.544l.34 4.365m.339 4.706l.68 6.216m.511 6.217l.34 3.864m-9.701-20.161l.682 4.873m.68 6.385l.68 5.375m23.658-22.68v3.864m-.34 5.04v6.216m.512 6.048v4.705m-6.639-10.418v5.883m0-16.802v4.705m111.652 1.849l-1.157 4.254m-1.397 4.648l-1.465 5.394m-1.598 5.695l-.801 2.947m-1.412-20.254l-1.144 4.215m-1.75 6.033l-1.432 5.28m-5.036-21.744l-.833 3.076m-1.039 4.821l-1.549 5.708m-1.345 6.053l-.707 2.606m-4.738-20.583l-.851 4.202m-1.362 6.046l-1.021 5.713m-5.617-22.345l-.68 4.368m-1.023 4.705l-.851 5.88m-1.191 6.214l-.34 3.362m-12.936-26.544l-.34 4.365m-.339 4.706l-.68 6.216m-.513 6.217l-.34 3.864m9.703-20.161l-.68 4.873m-.683 6.385l-.68 5.375m-23.658-22.68v3.864m.341 5.04v6.216m-.512 6.048v4.705m6.639-10.418v5.883m0-16.802v4.705m-23.998-9.748v4.032m.168 5.043v6.385m0 6.047v4.705m-7.148-10.753v5.878m.172-17.134v5.208m12.933-5.208v4.535m0 6.889v5.711" stroke="#010101" stroke-width=".291" fill="none"/><path d="M-679.014-229.818c-30.326 0-57.028 4.712-73.688 11.905l4.5 16.784h1.531c11.154-4.39 37.687-7.471 68.689-7.471 30.895 0 57.312 3.072 68.531 7.438l4.469-16.626c-16.627-7.269-43.514-12.03-74.032-12.03z" fill="#e9cb53" stroke="#010101" stroke-width=".291" stroke-linejoin="bevel" transform="matrix(1.32 0 0 1.306 953.776 311.244)"/><g stroke="#010101" stroke-width=".291"><path d="M-24.799 14.501l1.229 5.814.282 1.325c.391 1.848 2.296 2.97 4.254 2.547 1.954-.423 3.242-2.238 2.852-4.083l-.282-1.327-1.229-5.809-7.106 1.533z" fill="#e9cb53"/><path d="M-24.818 14.428l2.797-4.347 4.315 2.828-7.112 1.519z" fill="#ae1f23"/><path d="M-19.617 17.953c.356 1.67.324 3.097-.067 3.182-.391.085-.993-1.205-1.347-2.878-.356-1.673-.324-3.097.067-3.182.391-.085.994 1.202 1.347 2.878z" fill="#0b070a"/></g><g stroke="#010101" stroke-width=".291"><path d="M78.416 5.632v7.464c0 1.929 1.598 3.467 3.552 3.467s3.552-1.539 3.552-3.467v-7.464h-7.104z" fill="#e9cb53"/><path d="M78.416 5.553l3.552-3.743 3.555 3.761-7.107-.018z" fill="#ae1f23"/><path d="M82.674 10.202c0 1.75-.316 3.169-.707 3.169-.391 0-.707-1.419-.707-3.169s.316-3.169.707-3.169c.391 0 .707 1.419.707 3.169z" fill="#0b070a"/></g><g stroke="#010101" stroke-width=".291"><path d="M139.428 14.501l-1.229 5.814-.282 1.325c-.391 1.848-2.3 2.97-4.254 2.547-1.957-.423-3.242-2.238-2.852-4.083l.279-1.327 1.232-5.809 7.106 1.533z" fill="#e9cb53"/><path d="M139.443 14.428l-2.795-4.347-4.315 2.828 7.11 1.519z" fill="#ae1f23"/><path d="M134.241 17.953c-.353 1.67-.324 3.097.067 3.182.391.085.995-1.205 1.35-2.878.353-1.673.324-3.097-.067-3.182-.391-.085-.995 1.202-1.35 2.878z" fill="#0b070a"/></g><path d="M-678.921-208.613c-43.646 0-79.093 6.654-79.093 14.844 0 2.082 2.333 4.074 6.468 5.873l-1.156-4.281c16.66-7.193 43.363-11.905 73.688-11.905 30.518 0 57.405 4.759 74.031 12.031l-1.094 4.062c4.002-1.774 6.219-3.734 6.219-5.78 0-8.19-35.417-14.844-79.063-14.844z" fill="#c7af67" stroke="#010101" stroke-width=".291" stroke-linejoin="bevel" transform="matrix(1.32 0 0 1.306 953.776 311.244)"/><path d="M154.518 65.221c-21.977-9.49-57.522-15.7-97.869-15.7-40.087 0-75.391 6.149-97.413 15.536m193.245 4.318c-22.097-9.036-56.654-14.927-95.845-14.927-38.388 0-72.246 5.674-94.399 14.395m188.755 6.036c-22.145-8.703-56.014-14.355-94.356-14.355-37.545 0-70.742 5.427-92.913 13.824m185.784 6.079c-22.167-8.377-55.377-13.785-92.871-13.785-36.709 0-69.264 5.174-91.424 13.254" stroke="#010101" stroke-width=".291" stroke-linejoin="bevel" fill="none"/><g stroke="#010101" stroke-width=".291"><path d="M-24.315 57.612c-4.027 1.039-6.905 4.609-7.375 8.454l1.783 14.393 2.857-.74-1.22-9.955-.19-1.546.008-.003c.227-3.081 2.056-5.849 4.639-6.517 2.583-.668 4.915 1.023 5.86 3.805l.008-.003.188 1.549 1.22 9.952 2.993-.771-1.765-14.398-.034.01c-1.354-3.376-4.944-5.268-8.971-4.231z" fill="#e9cb53"/><path d="M-23.835 61.692c-2.583.668-4.374 3.422-4.599 6.507l-.024.005.188 1.546 1.245 10.153 10.51-2.717-1.245-10.15-.188-1.546c-.943-2.78-3.304-4.466-5.887-3.798z" fill="#191f11"/><path d="M-31.2 68.658l2.883-.745m10.283-2.655l3.134-.809m-15.679 9.286l2.886-.745m10.28-2.656l3.134-.812m-12.617-5.528l-3.267-2.057m9.83.33l2.591-3.586" fill="#e9cb53"/></g><g stroke="#010101" stroke-width=".291"><path d="M56.711 49.93c-4.04 0-7.266 2.817-8.182 6.528l.019 14.804h2.865v-11.829h.008c.59-3.013 2.698-5.301 5.291-5.301 2.592 0 4.659 2.289 5.244 5.301h.008v11.829h3.004v-14.804h-.037c-.912-3.711-4.181-6.528-8.219-6.528z" fill="#e9cb53"/><path d="M56.69 54.121c-2.591 0-4.661 2.289-5.247 5.301h-.026v12.03h10.548v-12.03c-.587-3.015-2.684-5.301-5.275-5.301z" fill="#191f11"/><path d="M48.699 59.168h2.894m10.315 0h3.145m-16.354 5.22h2.894m10.315 0h3.145m-11.612-8.757l-2.931-2.893m9.518 2.857l2.948-2.908" fill="#e9cb53"/></g><path d="M-31.65 23.465l1.157 4.254m1.397 4.65l1.465 5.394m1.597 5.695l.801 2.947m1.413-20.251l1.144 4.213m1.75 6.035l1.432 5.277m5.037-21.744l.833 3.076m1.037 4.821l1.549 5.708m1.345 6.054l.707 2.603m4.739-20.581l.851 4.202m1.363 6.046l1.021 5.713m5.615-22.346l.68 4.37m1.023 4.705l.851 5.878m1.192 6.218l.34 3.359m12.937-26.544l.34 4.365m.339 4.705l.68 6.218m.511 6.216l.34 3.867m-9.702-20.164l.682 4.873m.681 6.384l.68 5.375m23.658-22.679v3.864m-.34 5.04v6.218m.512 6.046v4.705m-6.639-10.418v5.883m0-16.803v4.705m111.652 1.848l-1.157 4.254m-1.397 4.65l-1.465 5.394m-1.598 5.695l-.801 2.947m-1.412-20.251l-1.144 4.213m-1.75 6.035l-1.432 5.277m-5.036-21.744l-.833 3.076m-1.039 4.821l-1.549 5.708m-1.345 6.054l-.707 2.603m-4.738-20.581l-.851 4.202m-1.362 6.046l-1.021 5.713m-5.617-22.346l-.68 4.37m-1.023 4.705l-.851 5.878m-1.191 6.218l-.34 3.359m-12.936-26.544l-.34 4.365m-.339 4.705l-.68 6.218m-.513 6.216l-.34 3.867m9.703-20.164l-.68 4.873m-.683 6.384l-.68 5.375m-23.658-22.679v3.864m.341 5.04v6.218m-.512 6.046v4.705m6.639-10.418v5.883m0-16.803v4.705m-23.998-9.745v4.03m.168 5.042v6.385m0 6.047v4.705m-7.148-10.752v5.88m.172-17.138v5.208m12.933-5.208v4.537m0 6.891v5.711" stroke="#010101" stroke-width=".291" fill="none"/><path d="M154.518 31.619c-21.977-9.49-57.522-15.7-97.869-15.7-40.087 0-75.391 6.149-97.413 15.539m193.245 4.312c-22.097-9.033-56.654-14.927-95.845-14.927-38.388 0-72.246 5.677-94.399 14.398m188.755 6.036c-22.145-8.706-56.014-14.355-94.356-14.355-37.545 0-70.742 5.427-92.913 13.824m185.784 6.076c-22.167-8.372-55.377-13.785-92.871-13.785-36.709 0-69.264 5.18-91.424 13.256" stroke="#010101" stroke-width=".291" stroke-linejoin="bevel" fill="none"/><g stroke="#010101" stroke-width=".291"><path d="M119.095-7.901l2.588 5.542-1.773-.243-3.448 30.93-.042-.005c-.065.378 1.437 11.782 4.419 14.414l-.054.47-5.911-.812-26.221-3.599-5.911-.812.048-.433c3.499-1.725 7.472-12.431 7.493-12.818l-.042-.005 3.442-30.888-1.69-.232 3.748-4.715 2.591 5.545-1.775-.243-.46 4.086 4.983.684.457-4.046-1.732-.238 3.748-4.715 2.588 5.545-1.773-.243-.46 4.086 4.983.681.455-4.046-1.773-.243 3.79-4.707 2.588 5.542-1.732-.238-.46 4.089 4.983.681.457-4.046-1.857-.256 3.751-4.715z" fill="#e9cb53"/><path d="M105.358 6.748c.969.134 1.627 1.274 1.695 2.664h.008l-.081.719-.533 4.71-3.946-.542.533-4.712.081-.716c.371-1.33 1.272-2.254 2.243-2.122zm6.637.911c.969.134 1.627 1.271 1.695 2.661l.008.003-.081.716-.533 4.712-3.946-.542.533-4.712.081-.716c.373-1.331 1.274-2.254 2.243-2.122zm-13.273-1.82c.969.132 1.627 1.271 1.692 2.661l.011.003-.081.716-.533 4.712-3.946-.544.53-4.71.083-.719h-.003c.374-1.328 1.274-2.251 2.246-2.119z" fill="#191f11"/><path d="M118.83 5.942l-26.174-3.591m25.721 8.493l-26.174-3.591m25.59 8.761l-26.174-3.594m25.414 8.546l-25.778-3.537m25.514 8.563l-26.075-3.581m26.171 9.871l-27.762-3.811m28.723 7.786l-30.637-4.207m31.906 8.128l-34.205-4.697" fill="none"/><path d="M104.18 19.573c4.127.566 7.117 3.728 7.65 7.432l-1.631 14.255-2.926-.401 1.111-9.86.174-1.532h-.008c-.273-2.985-2.179-5.483-4.826-5.847-2.651-.364-5.011 1.55-5.94 4.371l-.006.001-.174 1.532-1.114 9.86-3.068-.421 1.61-14.256.038.003c1.338-3.45 4.982-5.701 9.109-5.137z" fill="#e9cb53"/><path d="M103.745 23.616c2.648.361 4.512 2.852 4.786 5.838l.027.005-.174 1.53-1.136 10.055-10.777-1.476 1.136-10.052.172-1.532c.927-2.823 3.318-4.731 5.967-4.367z" fill="#191f11"/><path d="M111.364 29.595l-2.959-.406m-10.544-1.445l-3.213-.437m16.147 7.312l-2.957-.404m-10.544-1.441l-3.212-.442m12.82-6.81l3.312-2.379m-10.042 1.425l-2.695-3.214" fill="#e9cb53"/><path d="M112.473 5.163l-.551 4.889m-11.322 3.974l-.512 4.522m9.93-3.227l-.52 4.612m-14.586-1.908l-.57 5.076m-2.672 5.816l-.426 3.782m22.459-.946l-.449 3.97m2.074 3.937l-.282 2.49m-26.71-6.007l-.282 2.493m16.388-34.576l-.468 4.151m3.845-8.186l-.49 4.339m-9.148-5.473l-.439 3.875m18.603-1.568l-.468 4.149m3.64-3.716l-26.273-3.604" fill="none"/></g><g stroke="#010101" stroke-width=".291"><path d="M45.593-13.947l-3.1 5.301h1.734l-.04 32.096h.04c.021.397-2.666 11.839-5.826 14.11v.489h37.222v-.449c-3.183-2.254-5.845-13.756-5.826-14.149h.042l.04-32.056h1.655l-3.1-5.341-3.097 5.301h1.734v4.241h-4.876v-4.202h1.695l-3.1-5.341-3.097 5.301h1.734v4.241h-4.876v-4.202h1.734l-3.14-5.341-3.097 5.301h1.695v4.241h-4.876v-4.202h1.818l-3.093-5.339z" fill="#e9cb53"/><path d="M57.234 2.954c-.948 0-1.705 1.07-1.922 2.482h-.008v5.634h3.86v-5.634h.003c-.217-1.412-.982-2.482-1.933-2.482zm-6.493 0c-.951 0-1.708 1.07-1.922 2.482h-.011v5.634h3.863v-5.634c-.214-1.412-.982-2.482-1.93-2.482zm12.988 0c-.948 0-1.708 1.07-1.922 2.482h-.008v5.634h3.86v-5.634c-.214-1.412-.982-2.482-1.93-2.482z" fill="#191f11"/><path d="M44.34.237h25.612m-25.708 5.073h25.61m-25.61 5.365h25.61m-25.415 5.169h25.221m-25.513 5.175h25.513m-26.289 6.414h27.162m-28.518 3.927h29.976m-31.626 3.83h33.466" fill="none"/><path d="M56.987 16.225c-4.04 0-7.266 2.815-8.182 6.525l.022 14.801h2.865v-11.824h.005c.59-3.013 2.698-5.301 5.291-5.301 2.592 0 4.659 2.286 5.244 5.301h.008v11.824h3.004v-14.801h-.037c-.915-3.713-4.18-6.525-8.22-6.525z" fill="#e9cb53"/><path d="M56.966 20.416c-2.591 0-4.661 2.286-5.247 5.298h-.024v12.027h10.546v-12.027h.003c-.59-3.015-2.686-5.298-5.277-5.298z" fill="#191f11"/><path d="M48.975 25.461h2.894m10.318 0h3.142m-16.354 5.219h2.894m10.318 0h3.142m-11.614-8.758l-2.931-2.891m9.52 2.86l2.948-2.91" fill="#e9cb53"/><path d="M50.548.332v5.076m10.48 5.651v4.691m-9.219-4.691v4.785m14.262.098v5.267m1.941 6.322v3.924m-21.538-4.117v4.117m-2.422 3.735v2.585m26.386-2.393v2.585m-12.029-37.635v4.31m-2.813-8.906v4.501m9.41-4.308v4.022m-17.755-4.215v4.31m-3.104-4.31h25.706" fill="none"/></g><g stroke="#010101" stroke-width=".291"><path d="M-5.063-7.898l-2.591 5.54 1.775-.243 3.448 30.93.042-.005c.065.381-1.437 11.782-4.419 14.414l.054.47 5.911-.812 26.221-3.597 5.911-.814-.048-.431c-3.499-1.725-7.472-12.434-7.493-12.82l.042-.005-3.442-30.888 1.69-.232-3.748-4.715-2.591 5.545 1.775-.243.46 4.086-4.983.684-.457-4.045 1.732-.238-3.748-4.715-2.591 5.545 1.775-.243.46 4.086-4.983.685-.457-4.048 1.775-.243-3.79-4.707-2.588 5.545 1.729-.238.463 4.086-4.983.681-.457-4.045 1.857-.256-3.751-4.714z" fill="#e9cb53"/><path d="M8.673 6.751c-.969.132-1.627 1.271-1.695 2.661h-.008l.081.719.533 4.71 3.946-.539-.533-4.712-.081-.716c-.371-1.332-1.274-2.256-2.243-2.122zm-6.637.91c-.969.132-1.627 1.268-1.695 2.658l-.008.003.081.716.533 4.712 3.946-.542-.533-4.71-.081-.719c-.371-1.331-1.274-2.254-2.243-2.119zm13.273-1.823c-.969.132-1.627 1.271-1.695 2.661l-.008.003.081.716.533 4.712 3.946-.544-.533-4.71-.081-.719c-.371-1.328-1.272-2.251-2.243-2.119z" fill="#191f11"/><path d="M-4.799 5.941l26.174-3.591m-25.722 8.494l26.174-3.591m-25.589 8.76l26.174-3.594m-25.414 8.55l25.778-3.539m-25.514 8.561l26.075-3.578m-26.171 9.869l27.762-3.811m-28.723 7.786l30.637-4.207m-31.905 8.128l34.205-4.697" fill="none"/><path d="M9.853 19.566c-4.125.564-7.115 3.729-7.647 7.429l1.631 14.255 2.926-.401-1.114-9.86-.172-1.532h.008c.273-2.985 2.179-5.483 4.826-5.848 2.649-.362 5.011 1.553 5.938 4.374l.008-.002.174 1.532 1.114 9.86 3.068-.419-1.612-14.258-.035.005c-1.34-3.448-4.983-5.702-9.113-5.136z" fill="#e9cb53"/><path d="M10.29 23.604c-2.648.364-4.513 2.854-4.786 5.838l-.027.005.174 1.532 1.136 10.055 10.777-1.476-1.136-10.055-.174-1.532h.003c-.927-2.822-3.318-4.731-5.967-4.367z" fill="#191f11"/><path d="M2.671 29.584l2.959-.406m10.541-1.445l3.214-.438m-16.146 7.317l2.957-.404m10.542-1.445l3.215-.44m-12.82-6.812l-3.312-2.379m10.042 1.424l2.695-3.214" fill="#e9cb53"/><path d="M1.556 5.162l.551 4.891m11.323 3.973l.512 4.524m-9.931-3.23l.52 4.614m14.585-1.907l.572 5.074m2.673 5.816l.426 3.782m-22.459-.946l.447 3.97m-2.072 3.937l.282 2.493m26.71-6.007l.282 2.49m-16.388-34.576l.468 4.151m-3.845-8.184l.49 4.337m9.148-5.473l.436 3.877m-18.601-1.57l.468 4.149m-3.64-3.716l26.273-3.604" fill="none"/></g><g stroke="#010101" stroke-width=".291"><path d="M28.117 5.632v7.464c0 1.929 1.598 3.467 3.555 3.467 1.954 0 3.552-1.539 3.552-3.467v-7.464h-7.107z" fill="#e9cb53"/><path d="M28.117 5.553l3.555-3.743 3.552 3.761-7.107-.018z" fill="#ae1f23"/><path d="M32.379 10.633c0 1.75-.316 3.169-.707 3.169-.394 0-.71-1.419-.71-3.169s.316-3.166.71-3.166c.391-.001.707 1.416.707 3.166z" fill="#0b070a"/></g><g stroke="#010101" stroke-width=".291"><path d="M177.78 7.276l.032 5.592-1.416-.5-15.077 28.478-.034-.013c-.204.348-3.398 11.269-1.89 14.187l-.23.436-4.72-1.66-20.946-7.36-4.72-1.657.212-.399c3.659-1.086 11.249-10.524 11.418-10.877l-.034-.013 15.062-28.444-1.35-.472 5.046-3.851.032 5.592-1.416-.497-1.998 3.761 3.978 1.398 1.979-3.726-1.381-.487 5.043-3.848.032 5.592-1.416-.5-1.998 3.761 3.981 1.4 1.979-3.726-1.416-.497 5.079-3.837.032 5.589-1.381-.487-1.998 3.761 3.978 1.4 1.979-3.726-1.483-.523 5.043-3.846z" fill="#e9cb53"/><path d="M155.9 51.298l-1.215 2.294" fill="none"/><path d="M160.317 18.925c.776.273.888 1.441.402 2.754l.005.003-.348.658-2.303 4.339-3.154-1.111 2.303-4.334.35-.66c.842-1.19 1.971-1.92 2.744-1.648zm5.303 1.863c.773.273.888 1.441.399 2.751l.008.005-.35.66-2.303 4.334-3.154-1.104 2.303-4.339.35-.66c.841-1.19 1.971-1.92 2.747-1.647zm-10.603-3.723c.773.27.888 1.438.402 2.751l.005.003-.35.66-2.303 4.337-3.15-1.108 2.303-4.337.35-.66c.837-1.191 1.97-1.921 2.743-1.646z" fill="#191f11"/><path d="M169.812 24.744l-20.909-7.347m18.383 12.105l-20.906-7.347m18.314 11.877l-20.593-7.236m18.396 11.907l-20.828-7.32m18.44 13.232l-22.175-7.791m21.433 11.663l-24.469-8.6m24.011 12.468l-27.32-9.598" fill="none"/><path d="M154.16 30.65c3.295 1.157 4.6 4.576 3.599 8.128l-6.992 13.121-2.337-.824 4.822-9.075.75-1.41-.005-.003c.941-2.837.297-5.473-1.818-6.216-2.118-.742-4.883.692-6.782 3.196l-.005-.003-.75 1.41-4.823 9.077-2.451-.861 6.977-13.126.029.01c2.496-3.026 6.488-4.585 9.785-3.425z" fill="#e9cb53"/><path d="M152.199 34.37c2.118.742 2.729 3.363 1.788 6.202l.019.008-.747 1.408-4.919 9.256-8.608-3.022 4.919-9.256.748-1.411c1.899-2.503 4.686-3.93 6.801-3.186z" fill="#191f11"/><path d="M156.345 41.136l-2.361-.829m-8.42-2.959l-2.57-.901m10.892 9.317l-2.364-.829m-8.421-2.959l-2.568-.9m13.609-4.436l3.757-1.724m-9.119-.194l-1.034-3.426" fill="#e9cb53"/><path d="M167.01 18.518l-2.39 4.504m-11.215 2.005l-2.209 4.163m9.734-1.52l-2.257 4.246m-11.685-4.005l-2.481 4.672m-4.56 5.048l-1.847 3.483m19.518 2.526l-1.938 3.653m-21.411-3.392l-1.215 2.292m27.541-29.926l-2.029 3.821m6.49-7.093l-2.12 3.991m-5.652-6.52l-1.896 3.568m16.479 1.356l-2.029 3.821m4.563-2.934l-20.989-7.373m18.711 11.312l-20.909-7.347" fill="none"/></g><g stroke="#010101" stroke-width=".291"><path d="M-63.749 7.276l-.034 5.592 1.419-.5 15.077 28.478.034-.013c.204.348 3.398 11.269 1.888 14.187l.233.436 4.72-1.66 20.943-7.36 4.722-1.657-.212-.399c-3.659-1.086-11.249-10.524-11.418-10.877l.032-.013-15.059-28.444 1.35-.472-5.046-3.851-.032 5.592 1.416-.497 1.998 3.761-3.978 1.398-1.979-3.726 1.381-.487-5.043-3.848-.034 5.592 1.416-.5 1.998 3.761-3.978 1.4-1.979-3.726 1.416-.497-5.079-3.837-.032 5.589 1.381-.487 1.998 3.761-3.978 1.4-1.979-3.726 1.483-.523-5.043-3.846z" fill="#e9cb53"/><path d="M-46.29 18.925c-.773.273-.888 1.441-.399 2.754l-.008.003.35.658 2.303 4.339 3.154-1.111-2.303-4.334-.35-.66c-.841-1.19-1.97-1.92-2.747-1.648zm-5.299 1.863c-.773.273-.888 1.441-.399 2.751l-.008.005.35.66 2.303 4.334 3.154-1.104-2.303-4.339-.35-.66c-.841-1.19-1.971-1.92-2.747-1.647zm10.603-3.723c-.776.27-.888 1.438-.402 2.751l-.005.003.35.66 2.303 4.337 3.15-1.108-2.303-4.337-.35-.66c-.839-1.191-1.97-1.921-2.743-1.646z" fill="#191f11"/><path d="M-58.092 20.216l20.909-7.347m-18.599 11.876l20.909-7.347m-18.382 12.104l20.906-7.347m-18.314 11.877l20.593-7.236m-18.396 11.907l20.828-7.32m-18.44 13.232l22.175-7.791m-21.436 11.663l24.472-8.6m-24.013 12.469l27.323-9.598" fill="none"/><path d="M-40.127 30.65c-3.294 1.157-4.603 4.576-3.599 8.128l6.992 13.121 2.337-.824-4.822-9.075-.75-1.41.005-.003c-.941-2.837-.297-5.473 1.818-6.216 2.118-.742 4.88.693 6.782 3.196l.005-.003.75 1.41 4.823 9.077 2.451-.861-6.977-13.126-.029.01c-2.496-3.027-6.488-4.585-9.785-3.425z" fill="#e9cb53"/><path d="M-38.169 34.37c-2.115.743-2.726 3.363-1.785 6.203l-.022.008.75 1.408 4.919 9.256 8.608-3.022-4.919-9.256-.75-1.41h.003c-1.899-2.505-4.686-3.931-6.804-3.186z" fill="#191f11"/><path d="M-42.312 41.135l2.361-.829m8.42-2.96l2.568-.9m-10.89 9.317l2.361-.829m8.421-2.958l2.57-.901m-13.61-4.436l-3.755-1.725m9.118-.193l1.034-3.426" fill="#e9cb53"/><path d="M-52.979 18.518l2.39 4.504m11.215 2.005l2.209 4.163m-9.734-1.52l2.257 4.246m11.685-4.005l2.479 4.672m4.562 5.048l1.847 3.483m-19.518 2.526l1.938 3.653m-.222 4.006l1.218 2.294m20.412-9.692l1.218 2.292m-27.542-29.926l2.029 3.821m-6.489-7.093l2.12 3.991m5.652-6.52l1.896 3.568m-16.479 1.356l2.029 3.821m-4.565-2.934l20.989-7.373" fill="none"/></g><g stroke="#010101" stroke-width=".291"><path d="M102.212 51.537c4.037.402 7.022 3.514 7.619 7.283l-1.29 14.675-2.865-.286.878-10.148.136-1.578h-.008c-.327-3.045-2.241-5.525-4.832-5.782-2.591-.258-4.856 1.802-5.702 4.731h-.005l-.136 1.575-.878 10.148-3.004-.299 1.272-14.675.034.003c1.232-3.589 4.741-6.051 8.781-5.647z" fill="#e9cb53"/><path d="M101.872 55.691c2.591.258 4.466 2.733 4.795 5.777l.024.005-.136 1.575-.896 10.349-10.546-1.052.894-10.349.136-1.575v-.003c.843-2.931 3.138-4.986 5.73-4.728z" fill="#191f11"/><path d="M109.433 61.491l-2.894-.288m-10.318-1.03l-3.145-.312m15.907 6.807l-2.894-.291m-10.318-1.029l-3.142-.312m12.364-7.527l3.178-2.573m-9.762 1.886l-2.698-3.179" fill="#e9cb53"/></g><g stroke="#010101" stroke-width=".291"><path d="M139.689 57.612c4.024 1.039 6.905 4.609 7.375 8.454l-1.783 14.393-2.857-.74 1.22-9.955.19-1.546-.008-.003c-.227-3.081-2.056-5.849-4.639-6.517-2.583-.668-4.915 1.023-5.86 3.805l-.008-.003-.19 1.549-1.218 9.952-2.993-.771 1.765-14.398.034.01c1.355-3.376 4.946-5.268 8.971-4.231z" fill="#e9cb53"/><path d="M139.211 61.692c2.583.668 4.372 3.422 4.599 6.507l.024.005-.19 1.546-1.243 10.153-10.51-2.717 1.243-10.15.19-1.546h-.003c.944-2.78 3.306-4.466 5.89-3.798z" fill="#191f11"/><path d="M146.576 68.658l-2.886-.745m-10.284-2.655l-3.132-.809m15.678 9.286l-2.883-.745m-10.283-2.656l-3.134-.812m12.618-5.528l3.267-2.057m-9.831.33l-2.588-3.586" fill="#e9cb53"/></g><g stroke="#010101" stroke-width=".291"><path d="M13.159 51.537c-4.037.402-7.022 3.514-7.619 7.283l1.29 14.675 2.865-.286-.878-10.148-.136-1.578h.008c.329-3.045 2.241-5.525 4.832-5.782 2.591-.258 4.856 1.802 5.702 4.731h.005l.136 1.575.88 10.148 3.001-.299-1.272-14.675-.034.003c-1.231-3.589-4.741-6.051-8.781-5.647z" fill="#e9cb53"/><path d="M13.499 55.691c-2.591.258-4.466 2.733-4.792 5.777l-.026.005.136 1.575.896 10.349 10.546-1.052-.894-10.349-.136-1.575.003-.003c-.846-2.931-3.14-4.986-5.732-4.728z" fill="#191f11"/><path d="M5.943 61.491l2.894-.288m10.314-1.03l3.145-.312m-15.907 6.807l2.894-.291m10.319-1.029l3.145-.312m-12.366-7.527l-3.181-2.573m9.767 1.886l2.696-3.179" fill="#e9cb53"/></g><g stroke="#000" stroke-width="5.388"><path d="M-85.455 412.571c1.25-.004 3.579.294 5.176.663 3.702.854 6.934.857 9.697.01 2.027-.621 8.318-3.815 10.46-5.4.85-.629 1.304-.786.894-1.275-.864-1.03-4.691-2.993-6.363-3.189-1.318-.154-2.477 1.28-4.886 2.097-1.667.565-5.773 1.493-9.125 2.061-7.202 1.221-9.333 2.057-11.95 4.688-.968.973-1.76 1.871-1.76 1.996s1.257-.194 2.793-.708c1.941-.65 3.486-.937 5.065-.942z" fill="#ffef3c"/><path d="M-57.458 405.996c1.919-1.122 5.891-7.824 4.857-8.457-.585-.358-6.379-1.427-11.467-2.1-2.74-.363-5.752-.466-9.059-.341-6.665.251-9.846 2.432-10.891 4.431-1.857 3.552 1.641 4.572 13.219 3.855 5.555-.344 7.623.058 10.047 1.956 1.688 1.321 2.038 1.391 3.294.657z" fill="#e20909"/><path d="M-21.042 401.704c.742-.308 1.688-.874 2.101-1.258.697-.647.716-.768.259-1.642-.271-.519-.493-1.343-.493-1.831 0-1.186-1.858-2.992-3.57-3.469-2.509-.7-6.064-.771-11.705-.232-9.385.895-11.981.665-13.286-1.177-.304-.429-.551-1.311-.549-1.961.003-1.22 1.132-3.952 2.314-5.6.87-1.213 1.615-4.614 2.11-9.637.348-3.53.31-10.361-.061-10.695-.204-.184-10.399-1.151-18.078-1.714-7.844-.576-12.914-.622-16.223-.149-2.742.392-3.32.742-2.929 1.771 1.693 4.454 2.107 16.965.78 23.521-.412 2.036-1.132 4.813-1.598 6.171-.467 1.358-1.536 4.322-1.536 4.45 0 .127 1.716-1.803 2.972-2.151 4.743-1.314 12.405-1.359 20.301-.118 1.821.286 8.414 1.642 14.651 3.013 10.06 2.211 12.907 2.775 16.757 3.32 2.033.288 6.451-.059 7.781-.61z" fill="#fcef3c"/><path d="M-16.668 397.764c1.446-3.861 2.236-11.191 1.651-13.835l-.296-1.338-3.709.097c-9.304.243-19.74 1.062-24.815 2.749-3.516 1.169-3.653 2.294-4.063 3.707-1.001 3.452 1.689 5.441 12.83 4.339 6.264-.62 10.36-.855 13.099.159 2.322.86 2.675 4.655 2.675 6.296 0 1.517 1.991-.476 2.627-2.174z" fill="#e20909"/><path d="M-92.76 393.904c2.04-.797 2.789-.909 6.101-.907l4.66.002 1.349-5.327-3.909.676c-4.46.76-7.348 2.262-9.615 4.999-.668.807-1.146 1.466-1.063 1.466.083 0 1.198-.409 2.477-.909z" fill="#fcef3c"/></g><g stroke="#000" stroke-width="5.388"><path d="M207.882 414.307c0-.147-.8-1.071-1.777-2.054-2.66-2.676-4.75-3.502-11.887-4.699-3.326-.558-7.381-1.468-9.011-2.021-3.241-1.101-5.182-2.377-7.112-1.695-1.372.485-4.719 2.348-4.719 2.815 0 .381 5.727 3.887 8.277 5.16 4.448 2.221 8.048 2.609 13.196 1.421 4.805-1.108 7.892-.798 12.949 1.305.047.019.085-.085.085-.231z" fill="#ffef3c"/><path d="M175.233 405.366c2.558-1.932 4.575-2.326 10.135-1.982 9.323.578 13.419-.005 13.647-1.943.131-1.113-.727-2.802-1.68-3.307-3.117-1.65-11.163-2.424-17.429-1.676-3.553.424-10.677 1.619-11.486 1.926-.676.257-.612.799.374 3.207.892 2.177 1.771 3.378 3.196 4.365 1.156.801 1.476.743 3.242-.591z" fill="#e20909"/><path d="M147.456 402.677c1.49-.263 7.256-1.374 12.695-2.587s11.564-2.506 13.733-2.872c8.311-1.406 16.258-1.424 21.22-.049 2.284.633 3.36 2.099 2.741.955-.599-1.108-2.851-9.786-3.344-13.191-.88-6.075-.415-15.416 1-20.067.369-1.214.376-1.584.035-1.864-.614-.504-4.887-.99-8.811-1.002-6.71-.02-29.2 1.821-29.623 2.46-.372.563-.408 7.429.002 11.137.499 4.516.808 7.295 2.567 10.622 1.652 3.125 2.213 4.336 1.949 5.583-.466 2.201-1.151 1.586-10.536.691-5.659-.54-11.929-.573-14.297.108-1.788.515-3.629 2.574-3.632 3.685-.001.488-.527 2.004-.809 2.538-.467.886.425.835.97 1.431.753.824 2.074 1.504 3.72 1.917 1.597.401 6.84 1.137 10.421.504z" fill="#fcef3c"/><path d="M132.784 398.674c0-1.642 1.236-5.339 3.559-6.199 2.739-1.014 6.246-1.168 12.51-.548 9.22.913 12.293 1.547 12.729-.173.533-2.101-1.008-5.399-5.717-6.937-5.192-1.696-14.448-3.255-22.336-3.487l-3.628.188-.317 2.241c-.413 1.526-.066 6.81.619 9.425 1.085 4.142 2.581 7.873 2.581 5.49z" fill="#e20909"/><path d="M208.874 393.513c-1.752-2.344-4.887-4.181-8.39-4.915-4.38-.919-5.704-1.108-4.757 2.231l.827 2.364 4.668-.195c3.278-.001 4.078.115 5.984.865 1.21.476 2.252.822 2.315.767.063-.055-.228-.557-.646-1.117z" fill="#fcef3c"/></g><path d="M870.736 1074.545c12.1-1.206 32.505-3.584 45.346-5.284 96.98-12.841 125.604-12.354 163.478 1.369 2.611.946 4.94 1.72 5.175 1.72.235 0-.19-1.478-.945-3.284-2.413-5.774-4.109-14.791-5.167-27.466-1.216-14.573.043-35.175 3.033-49.615 2.634-12.722 2.677-12.3-1.457-14.367-39.712-1.773-82.469 7.757-123.711 10.729-86.133 5.705-173.568 5.702-261.749-.009-28.814-1.866-53.162-4.18-90.754-8.626-19.009-2.384-46.516-8.544-59.658.046-.288.908.623 3.941.876 6.939 1.903 22.576 2.807 52.013-2.099 72.953-1.02 4.355-7.842 18.261-6.838 16.897 2.227-3.028 7.432-4.459 8.428-4.993 34.921-8.815 45.556-8.369 81.308-7.461 36.802 1.349 56.144-.313 104.654 5.552 27.807 3.362 64.898 6.832 80.366 7.518 13.814.613 37.892-.443 59.713-2.618z" fill="#fcef3c" stroke="#000" stroke-width="5.388" transform="matrix(.377 0 0 .373 -249.802 -14.094)"/><g font-size="48" font-family="Times New Roman"><path d="M-24.463 357.341c2.342 0 4.371.88 6.088 2.64 1.717 1.76 2.575 3.956 2.575 6.59 0 2.712-.865 4.964-2.595 6.754-1.73 1.791-3.824 2.686-6.281 2.686-2.484 0-4.571-.873-6.261-2.62-1.69-1.747-2.535-4.007-2.535-6.78 0-2.835.976-5.148 2.928-6.938 1.694-1.554 3.722-2.33 6.081-2.33z"/><path d="M-24.716 358.302c-1.615 0-2.91.592-3.886 1.777-1.215 1.475-1.823 3.634-1.823 6.478 0 2.914.63 5.157 1.89 6.728.967 1.194 2.244 1.791 3.832 1.791 1.694 0 3.094-.654 4.198-1.962 1.104-1.308 1.657-3.37 1.657-6.188 0-3.054-.608-5.332-1.823-6.833-.976-1.194-2.324-1.791-4.045-1.791z" fill="#fcef3c"/></g><path d="M1.98 361.34v-.487h6.387v.487h-.679c-.71 0-1.255.294-1.637.882-.186.272-.279.904-.279 1.896v7.241c0 1.791-.18 3.18-.539 4.167-.359.987-1.065 1.834-2.116 2.541-1.051.707-2.482 1.06-4.292 1.06-1.969 0-3.464-.338-4.484-1.014-1.02-.676-1.743-1.584-2.169-2.725-.284-.781-.426-2.247-.426-4.397v-6.978c0-1.097-.153-1.817-.459-2.159-.306-.342-.801-.513-1.484-.513h-.679v-.487h7.798v.487h-.692c-.745 0-1.277.233-1.597.698-.222.316-.333.974-.333 1.975v7.781c0 .693.064 1.488.193 2.383s.362 1.593.699 2.093c.337.5.823.913 1.457 1.238.634.325 1.413.487 2.335.487 1.18 0 2.236-.255 3.167-.764.931-.509 1.568-1.161 1.91-1.955.342-.794.512-2.139.512-4.035v-7.228c0-1.115-.124-1.812-.373-2.093-.346-.386-.861-.579-1.544-.579h-.679z" font-size="48" font-family="Times New Roman"/><g font-size="48" font-family="Times New Roman"><path d="M25.186 373.35h-6.986l-1.224 2.817c-.302.693-.452 1.211-.452 1.554 0 .272.131.511.393.718.262.206.827.34 1.697.402v.487h-5.682v-.487c.754-.132 1.242-.303 1.464-.513.452-.421.954-1.277 1.504-2.567l6.347-14.693h.466l6.281 14.851c.506 1.194.965 1.968 1.377 2.324.412.355.987.555 1.723.599v.487h-7.119v-.487c.719-.035 1.204-.154 1.457-.355.253-.202.379-.448.379-.737 0-.386-.177-.996-.532-1.83l-1.091-2.567z"/><path d="M24.814 372.376l-3.061-7.215-3.14 7.215h6.201z" fill="#fcef3c"/></g><path d="M36.058 363.091h4.897l11.032 13.39v-10.296c0-1.097-.124-1.782-.373-2.054-.328-.369-.847-.553-1.557-.553h-.625v-.487h6.281v.487h-.639c-.763 0-1.304.228-1.623.685-.195.281-.293.922-.293 1.922v15.049h-.479l-11.896-14.377v10.994c0 1.097.12 1.782.359 2.054.337.369.856.553 1.557.553h.639v.487h-6.281v-.487h.625c.772 0 1.317-.228 1.637-.685.195-.281.293-.922.293-1.922v-12.415c-.523-.606-.92-1.005-1.191-1.198-.271-.193-.668-.373-1.191-.54-.257-.079-.648-.119-1.171-.119v-.487z" font-size="48" font-family="Times New Roman"/><g font-size="48" font-family="Times New Roman"><path d="M72.333 374.84h-6.986l-1.224 2.817c-.302.693-.452 1.211-.452 1.554 0 .272.131.511.393.718.262.206.827.34 1.697.402v.487h-5.682v-.487c.754-.132 1.242-.303 1.464-.513.452-.421.954-1.277 1.504-2.567l6.347-14.693h.466l6.281 14.851c.506 1.194.965 1.968 1.377 2.324.412.355.987.555 1.723.599v.487h-7.119v-.487c.719-.035 1.204-.154 1.457-.355.253-.202.379-.448.379-.737 0-.386-.177-.996-.532-1.83l-1.091-2.567z"/><path d="M71.961 373.866l-3.061-7.215-3.14 7.215h6.201z" fill="#fcef3c"/></g><path d="M100.344 374.515l.439.092-1.544 4.845h-13.972v-.487h.679c.763 0 1.309-.246 1.637-.737.186-.281.279-.93.279-1.949v-11.52c0-1.115-.124-1.812-.373-2.093-.346-.386-.861-.579-1.544-.579h-.679v-.487h8.171v.487c-.958-.009-1.63.079-2.016.263-.386.184-.65.417-.792.698-.142.281-.213.952-.213 2.014v11.217c0 .729.071 1.229.213 1.501.106.184.271.32.492.408.222.088.914.132 2.076.132h1.317c1.384 0 2.355-.101 2.914-.303.559-.202 1.069-.56 1.53-1.073.461-.513.923-1.323 1.384-2.429z" font-size="48" font-family="Times New Roman"/><g font-size="48" font-family="Times New Roman"><path d="M119.484 371.114h-6.986l-1.224 2.817c-.302.693-.452 1.211-.452 1.554 0 .272.131.511.393.718.262.206.827.34 1.697.402v.487h-5.682v-.487c.754-.132 1.242-.303 1.464-.513.452-.421.954-1.277 1.504-2.567l6.347-14.693h.466l6.281 14.851c.506 1.194.965 1.968 1.377 2.324.412.355.987.555 1.723.599v.487h-7.119v-.487c.719-.035 1.204-.154 1.457-.355.253-.202.379-.448.379-.737 0-.386-.177-.996-.532-1.83l-1.091-2.567z"/><path d="M119.111 370.14l-3.061-7.215-3.14 7.215h6.201z" fill="#fcef3c"/></g><g font-size="48" font-family="Times New Roman"><path d="M140.557 357.341c2.342 0 4.371.88 6.088 2.64 1.717 1.76 2.575 3.956 2.575 6.59 0 2.712-.865 4.964-2.595 6.754-1.73 1.791-3.824 2.686-6.281 2.686-2.484 0-4.571-.873-6.261-2.62-1.69-1.747-2.535-4.007-2.535-6.78 0-2.835.976-5.148 2.928-6.938 1.694-1.554 3.722-2.33 6.081-2.33z"/><path d="M140.304 358.302c-1.615 0-2.91.592-3.886 1.777-1.215 1.475-1.823 3.634-1.823 6.478 0 2.914.63 5.157 1.89 6.728.967 1.194 2.244 1.791 3.832 1.791 1.694 0 3.094-.654 4.198-1.962 1.104-1.308 1.657-3.37 1.657-6.188 0-3.054-.608-5.332-1.823-6.833-.976-1.194-2.324-1.791-4.045-1.791z" fill="#fcef3c"/></g><g stroke="#000"><path d="M-135.091 29.77c-.26-19.767 23.4-32.86 23.4-34.657-2.34-14.09-36.141 19.51-37.961 23.875-2.09 6.369 2.6 14.119 2.6 14.119m18.461-29.266c-7.02 5.648-12.74 24.131-12.74 24.131M-146.011 29.513c-2.86-18.997 11.7-35.427 10.66-35.94-8.947-4.417-20.54 18.997-23.92 26.698l4.42 26.185m4.16-32.603c-3.64 9.242.26 21.821.26 21.821M-153.551 39.525c-4.68-4.621-.26-37.737-1.56-37.737-9.88 0-15.08 31.833-13 38.507 6.747 21.651 12.22 25.415 12.22 25.415m-6.5-37.48c-.78 9.755 7.02 21.821 7.02 21.821M-155.891 63.913c-12.48-11.552-14.645-42.549-16.38-45.695-13.352 2.567-6.5 35.427-6.5 35.427.26 2.567 17.68 23.104 17.68 23.104m-12.741-37.994c-4.42 8.728 15.6 34.657 15.6 34.657" fill="#999" fill-rule="evenodd"/><path d="M-140.291 137.334s-3.38-44.669 2.34-51.343l-16.9-24.645-21.84 42.872 19.76 35.684 16.64-2.567z" fill="#999" fill-rule="evenodd"/><path d="M-154.591 91.895c-2.08 5.904 3.64 11.809 3.64 11.809m-8.06-8.472c-2.08 5.904 7.54 15.66 7.54 15.66m-9.36-5.648c-2.08 5.904 8.58 10.782 8.58 10.782m-3.9 4.108c.52 4.364 8.32 3.337 8.32 3.337" fill="none"/></g><path d="M248.001 667.598c19.635 25.146 29.229 81.841 29.229 81.841l5.846-18.512c2.756 1.722 4.43 16.076 8.282 16.076 1.722 0 1.42-14.801 5.359-15.589 1.722-.344.58 20.46 4.384 20.46 3.1 0 3.351-14.816 4.384-14.127 2.432 1.621 2.915 19.666 4.872 10.23-2.756-96.795 186.989-176.002 183.168-284.496 4.823-112.296-115.942-154.914-189.988-249.421 0 0-20.807-61.975 17.537-34.588 31.002-4.823 28.255-35.562 28.255-35.562h17.05c7.578-66.138-58.945-50.664-58.945-50.664-61.66 0-67.227 63.817-67.227 63.817-15.845 83.017 91.727 181.884 91.727 181.884 15.845 34.447-.143 93.843-.143 93.843l-149.709 141.049" fill="#999" fill-rule="evenodd" stroke="#000" stroke-width="4.189" transform="matrix(.377 0 0 .373 -249.802 -14.094)"/><g stroke="#000"><path d="M-180.422 199.321c-3.12 3.722-19.151 22.477-23.051 29.023-5.522 6.01 5.213 4.32 5.213 4.32s-15.873 16.567-23.584 21.414c2.367 7.012 17.591-3.143 17.591-3.143s-14.82 8.985-14.04 10.782c4.524 3.406 17.68-6.161 17.68-6.161s-3.143 4.364-.52 5.904c4.42 0 14.56-7.958 14.56-7.958s-2.08 4.621.26 5.391c4.227-2.631 30.681-24.388 30.681-24.388" fill="#999" fill-rule="evenodd"/><path d="M-196.583 232.067c-1.69 2.696 6.11 3.411 8.19.257 0 4.364 6.026 4.531 8.19 2.439.91 2.824 5.12 2.103 7.8-.513.455 1.219 4.27 3.833 5.679 3.331 2.756-.981 13.52-16.021 15.86-17.305m-56.667 32.741s12.364-11.889 20.454-18.242m-16.225 22.599s16.264-14.841 24.354-21.194m-8.727 18.29s10.804-10.99 18.894-17.344" fill="none"/><path d="M-198.43 232.352s12.082-14.218 20.171-20.571" fill="#999" fill-rule="evenodd"/><path d="M-189.002 232.729s10.154-11.504 21.754-19.654m-12.496 21.371s4.785-9.061 19.374-20.164m-11.964 20.035s5.552-9.505 15.591-16.628m-16.223 17.902c-8.273 8.35-14.892 13.977-14.892 13.977" fill="none"/><path d="M-184.917 236.317c-8.273 8.35-16.73 15.067-16.73 15.067" fill-rule="evenodd"/><path d="M-193.006 233.957c-8.273 8.35-10.48 9.076-10.48 9.076m18.603-37.654c-1.69 2.696 2.132 9.224 10.279 5.343-2.574 6.724 1.246 4.894 6.536 2.439-1.48 5.728 5.12 2.103 7.8-.513.455 1.219.593 4.196 3.105 4.42 2.917.261 5.982-8.034 8.322-9.318m-26.031 3.091l14.775-13.371m-22.636 14.075l7.193-10.807m7.309 12.335l8.869-9.612m-1.179 9.408l4.672-5.052m5.7-12.162c-11.766 14.522 5.148 2.904 5.148 2.904m-20.309 4.016s-6.901 1.249 1.005-8.191m-5.884-6.171s-7.906 10.347-2.574 8.713m20.776-9.439l-2.206 3.449m-20.592 23.417c-1.839 1.997-6.067 5.083-6.067 5.083m13.973-3.087c-4.045 3.086-7.538 6.353-7.538 6.353m20.407-3.267c-8.273 8.35-6.435 6.172-6.435 6.172m2.023-9.621c-4.045 3.086-6.435 5.446-6.435 5.446" fill="none"/></g><g stroke="#000"><g fill="#999"><path d="M-171.322 161.353c-6.435 12.344-14.647 32.697-5.699 41.751 2.942.908 10.79-28.998 16.914-31.767.919-3.086 4.964-16.7 4.964-16.7"/><path d="M-161.349 159.92c3.374 0-6.753 6.675-10.4 15.916" fill-rule="evenodd"/></g><path d="M-158.636 162.261c-4.964 23.054-.368 27.955 1.655 28.136 2.942-1.452 8.089-22.509 13.973-23.78" fill="#999" fill-rule="evenodd"/><g fill="#fff" fill-rule="evenodd"><path d="M-183.823 55.524c-20.591-19.06-23.349-40.843-25.555-41.025-9.717-.8 3.309 38.665 3.309 38.665l24.636 19.423" fill="#999"/><path d="M-187.09 60.314s-9.88-7.445-15.08-17.457"/></g><path d="M-183.823 69.32c-30.519-16.7-34.196-43.929-36.77-43.022-9.397 3.664 2.574 28.681 2.574 28.681 1.655 6.898 25.923 28.5 25.923 28.5m2.406-6.222s-13-9.498-23.4-25.158M-193.2 81.482c-36.586-19.968-37.322-42.84-41.367-41.388-8.688 23.252 23.165 45.2 45.595 61.719m-2.278-10.437s-16.64-5.904-27.041-21.564M-189.707 101.268c-31.806-9.984-47.162-39.251-51.111-37.757-9.193 3.449 10.112 27.955 10.112 27.955 15.627 14.341 41.367 24.869 41.367 24.869m.429-10.583s-22.1-4.107-34.061-16.173M-189.523 114.52c-50.927-16.156-52.949-31.949-57.729-30.678-9.069 6.809 20.04 29.407 20.04 29.407 3.677 5.446 40.815 15.43 40.815 15.43m.868-11.631s-25.741.513-36.661-8.215M-187.133 128.497c-48.721-10.165-55.891-24.324-59.752-23.417-6.089 8.174 23.349 25.958 23.349 25.958 18.201 10.347 42.837 11.799 42.837 11.799m-.93-8.589s-17.16.513-28.081-5.391M-188.604 160.083c-13.605 12.344-21.326 35.389-14.34 36.85 3.861.182 14.34-26.866 29.6-30.678l9.744-8.35m-5.549-1.323c3.374 0-17.673 6.418-21.32 15.66M-195.774 148.828c-19.856 14.704-26.21 32.096-23.349 33.038 4.412 1.452 22.068-16.669 28.497-17.79 3.125-.545 21.694-10.347 21.694-10.347m-14.777-3.051c3.374 0-13.773 5.904-17.42 15.146M-181.617 142.475c-21.694 2.541-59.752-20.331-60.487-18.334-9.445 10.925 31.439 29.226 40.447 28.318l31.99 1.997m-3.382-5.832s-26.261.257-38.221-5.134M-113.508 145.03s0-12.066-5.98-12.579c0 0-13.52-1.027-28.601 1.54-34.492-20.332-7.471-46.446-12.22-55.451-1.56-13.863-24.701-34.657-24.701-34.657-2.34 2.054.471 14.994-1.3 14.119-4.68-2.31-1.794 7.862-3.12 10.525-4.42-1.54-4.194 5.066-3.12 10.012-3.64.513-2.34 6.675-1.56 11.039-7.138-3.875 2.161 10.992-.26 10.525-10.92-1.54 1.56 10.269 1.56 10.269-6.24 2.31-3.325 6.893 1.04 8.728-5.46 3.851.131 9.998 2.08 10.269-4.94 2.567.557 6.278 3.38 8.985-4.42 4.107 3.64 5.862 7.54 7.445-3.12 4.878.55 5.932 3.9 7.445-2.08 3.851 3.038 3.564 6.24 3.081-3.9 4.107 2.6 5.904 5.2 5.391 0 0 1.385 5.327 5.98 3.337-1.3 4.107 8.06 3.594 8.06 3.594 0 4.107 13.78 2.567 13.78 2.567" fill="#999" fill-rule="evenodd"/><path d="M-167.277 72.224s.663 4.972 3.125 11.799c-3.861 3.812-4.596 9.621-4.596 9.621m-11.852-18.339s2.86 7.445 6.24 7.445M-185.789 57.747s3.64 12.579 7.02 12.579m-10.141-2.824s1.04 8.215 4.42 8.215m-8.06 2.31s2.86 7.445 6.24 7.445m-8.06 3.337s3.12 6.675 6.5 6.675m-6.24 4.107s5.2 8.215 8.58 8.215m-7.54 2.824s5.46 4.621 8.84 4.621m-7.54 4.107s5.46 4.621 8.84 4.621m-7.54 4.878s8.06 3.851 11.44 3.851m-7.8 5.134s9.1.77 12.48.77m-5.06 6.6s7.629-.319 11.009-.319m-6.597 7.58s6.526-1.771 10.642-.319m-4.575 4.494s6.526-1.771 10.642-.319m-5.861 5.22s6.342-.864 10.826-2.679m-4.392 5.946s2.665.77 7.149-1.045m.573 4.313s2.298-.137 6.781-1.953M-180.599 75.304s2.86 7.445 6.24 7.445m-7.895 1.813s2.86 7.445 6.24 7.445m-9.365.361s3.595 4.903 6.976 4.903m-5.689 4.899s3.595 4.903 6.976 4.903m-4.403 5.444s3.963.91 7.343.91m-4.952 6.351s.838.184 4.218.184m-.174-51.374s-.449 4.177 2.931 4.177m1.01 62.399s4.226-.486 3.483-3.741m-9.734-2.068s7.352-2.119 6.608-5.375m8.835 19.534s1.284-8.473.541-11.728m9.571 18.445s-1.289-11.196-3.871-12.636m15.086 15.358c-2.758-9.439-6.437-13.737-9.019-14.633m19.866 14.089c-2.758-9.439-10.114-13.011-12.696-13.907m25.566 14.27c-2.758-9.439-10.114-13.011-12.696-13.907m3.693 26.482c-9.928 3.631-14.524 12.525-14.524 12.525" fill="none"/></g><path d="M350.133 144.216c-14.127-26.793-28.742-23.87-28.742-23.87-7.307 0-9.743 4.872-18.025 4.872-10.23 0-7.794-10.717-7.794-10.717" stroke="#000" stroke-width="4.189" transform="matrix(.377 0 0 .373 -249.802 -14.094)" fill="none"/><path d="M-126.434 30.977c-1.102 4.724-4.61 5.642-4.61 5.642s.761 4.508 3.692 4.715c5.382.954 7.14-3.836 4.591-7.995-.918-1.09-3.673-2.362-3.673-2.362z" fill-rule="evenodd"/><path d="M-71.703 51.269a3.659 1.439 0 1 1-7.318 0 3.659 1.439 0 1 1 7.318 0z" transform="matrix(.631 -.209 .218 .735 -89.007 -16.215)" fill="#fff"/><path d="M-88.642 54.106c-1.645 0-2.138.987-2.138.987m-3.289 8.716c-.698 1.977 1.5 4.693 1.151 4.111m-1.043-20.052c-1.628 0-1.744 3.14-1.744 3.14m10.582 24.072l2.326 3.023m-1.163 5.814l2.442 2.791m7.791 6.629l2.907 3.14" stroke="#000" transform="matrix(1.579 0 0 1.562 .606 -38.805)" fill="none"/><path d="M-92.188 124.305s2.181 5.963 3.739 6.477c0 0 1.769.589 2.938-.182 1.064-.702 0-2.18 0-2.18-1.428-2.055-6.677-4.115-6.677-4.115zm-9.293 2.991s-.359 6.331.871 7.409c0 0 1.394 1.228 2.774.973 1.257-.233.864-2.005.864-2.005-.499-2.445-4.51-6.377-4.51-6.377zm6.362 22.349s-.359 6.331.871 7.409c0 0 1.394 1.228 2.774.973 1.257-.233.864-2.005.864-2.005-.499-2.445-4.51-6.377-4.51-6.377z" fill-rule="evenodd"/><path d="M-52.215 117.915s2.327 2.062 2.467 3.042c.082.576-1.233 3.618-1.233 3.618-.576 0-.082-3.947-.082-3.947s-1.809-2.302-1.151-2.714z" fill-rule="evenodd" stroke="#000" transform="matrix(1.579 0 0 1.562 .606 -38.805)"/><path d="M-114.122 174.559c-1.169 0-2.199 3.49-1.431 4.926 0 0 .868 1.635 2.251 1.877 1.259.22 1.522-1.576 1.522-1.576.403-2.462-.001-5.227-2.342-5.227zm11.426 12.715s-2.588 5.801-1.821 7.238c0 0 .868 1.635 2.251 1.877 1.259.22 1.522-1.576 1.522-1.576.403-2.462-1.952-7.539-1.952-7.539zm-7.54 14.986c-3.846 1.254-4.653 5.763-4.369 7.363 0 0 .318 1.82 1.559 2.47 1.13.592 1.938-1.037 1.938-1.037 1.148-2.22 3.598-6.74.871-8.795z" fill-rule="evenodd"/><path d="M-77.462 165.187s.562 3.058.068 3.916c-.29.504-1.721 1.349-1.721 1.349-.453-.355.887-2.419.887-2.419s-.006-2.928.766-2.846zm-10.854 2.138s.973 3.963.479 4.821c-.29.504-1.227.116-1.227.116-.453-.355-.017-2.09-.017-2.09s-.006-2.928.766-2.846zm9.21-14.555s.397 2.647-.097 3.505c-.29.504-1.227.116-1.227.116-.453-.355-.017-2.09-.017-2.09s.57-1.612 1.341-1.531z" fill-rule="evenodd" stroke="#000" transform="matrix(1.579 0 0 1.562 .606 -38.805)"/><path d="M-131.007 179.854c-2.593 1.732-2.602 3.24-2.619 4.864 0 0-.024 1.847 1.076 2.711 1.001.787 4.434-.668 4.434-.668 1.539-1.975-2.762-2.026-2.891-6.907zm27.785-24.789c-2.593 1.732-2.602 1.442-2.619 4.864 0 0 .885 2.746 1.984 3.61 1.001.787 2.097-1.696 2.097-1.696 1.539-1.975.744-6.136-1.463-6.778zm19.093 13.714c-1.169 0-2.199 3.49-1.431 4.926 0 0 .868 1.635 2.251 1.877 1.259.22 1.522-1.576 1.522-1.576.403-2.462-.001-5.227-2.342-5.227zm-8.05 9.89c-1.67 5.338-3.627 6.957-2.86 8.394 0 0 1.906.479 3.289.721 1.259.22 1.522-1.576 1.522-1.576.403-2.462-1.563-1.759-1.952-7.539zm-45.446 62.189c-1.169 0-2.199 3.49-1.431 4.926 0 0 .868 1.635 2.251 1.877 1.259.22 1.522-1.576 1.522-1.576.403-2.462-.001-5.227-2.342-5.227z" fill-rule="evenodd"/><g stroke="#000"><path d="M249.652 29.77c.26-19.767-23.4-32.86-23.4-34.657 2.34-14.09 36.141 19.51 37.961 23.875 2.09 6.369-2.6 14.119-2.6 14.119m-18.461-29.266c7.02 5.648 12.74 24.131 12.74 24.131M260.572 29.513c2.86-18.997-11.7-35.427-10.66-35.94 8.947-4.417 20.54 18.997 23.92 26.698l-4.42 26.185m-4.16-32.603c3.64 9.242-.26 21.821-.26 21.821M268.112 39.525c4.68-4.621.26-37.737 1.56-37.737 9.88 0 15.08 31.833 13 38.507-6.747 21.651-12.22 25.415-12.22 25.415m6.5-37.48c.78 9.755-7.02 21.821-7.02 21.821M270.452 63.913c12.48-11.552 14.645-42.549 16.38-45.695 13.352 2.567 6.5 35.427 6.5 35.427-.26 2.567-17.68 23.104-17.68 23.104m12.741-37.994c4.42 8.728-15.6 34.657-15.6 34.657" fill="#999" fill-rule="evenodd"/><path d="M254.852 137.334s3.38-44.669-2.34-51.343l16.9-24.645 21.84 42.872-19.76 35.684-16.64-2.567z" fill="#999" fill-rule="evenodd"/><path d="M269.152 91.895c2.08 5.904-3.64 11.809-3.64 11.809m8.06-8.472c2.08 5.904-7.54 15.66-7.54 15.66m9.36-5.648c2.08 5.904-8.58 10.782-8.58 10.782m3.9 4.108c-.52 4.364-8.32 3.337-8.32 3.337" fill="none"/></g><path d="M1379.322 667.598c-19.635 25.146-29.229 81.841-29.229 81.841l-5.846-18.512c-2.756 1.722-4.43 16.076-8.282 16.076-1.722 0-1.42-14.801-5.359-15.589-1.722-.344-.58 20.46-4.384 20.46-3.1 0-3.351-14.816-4.384-14.127-2.432 1.621-2.915 19.666-4.871 10.23 2.756-96.795-186.989-176.002-183.168-284.496-4.822-112.296 115.942-154.914 189.989-249.421 0 0 20.807-61.975-17.537-34.588-31.002-4.823-28.255-35.562-28.255-35.562h-17.05c-7.578-66.138 58.945-50.664 58.945-50.664 61.66 0 67.227 63.817 67.227 63.817 15.846 83.017-91.727 181.884-91.727 181.884-15.846 34.447.143 93.843.143 93.843l149.709 141.049" fill="#999" fill-rule="evenodd" stroke="#000" stroke-width="4.189" transform="matrix(.377 0 0 .373 -249.802 -14.094)"/><g stroke="#000"><path d="M294.982 199.321c3.12 3.722 19.151 22.477 23.051 29.023 5.522 6.01-5.213 4.32-5.213 4.32s15.873 16.567 23.584 21.414c-2.367 7.012-17.591-3.143-17.591-3.143s14.82 8.985 14.04 10.782c-4.524 3.406-17.68-6.161-17.68-6.161s3.143 4.364.52 5.904c-4.42 0-14.56-7.958-14.56-7.958s2.08 4.621-.26 5.391c-4.227-2.631-30.681-24.388-30.681-24.388" fill="#999" fill-rule="evenodd"/><path d="M311.143 232.067c1.69 2.696-6.11 3.411-8.19.257 0 4.364-6.026 4.531-8.19 2.439-.91 2.824-5.12 2.103-7.8-.513-.455 1.219-4.27 3.833-5.679 3.331-2.756-.981-13.52-16.021-15.86-17.305m56.667 32.741s-12.364-11.889-20.454-18.242m16.225 22.599s-16.264-14.841-24.354-21.194m8.727 18.29s-10.804-10.99-18.894-17.344m29.649-4.774s-12.082-14.218-20.171-20.571m10.743 20.948s-10.154-11.504-21.754-19.654m12.496 21.371s-4.785-9.061-19.374-20.164m11.964 20.035s-5.552-9.505-15.591-16.628m16.223 17.902c8.273 8.35 14.892 13.977 14.892 13.977m-2.941-13.251c8.273 8.35 16.73 15.067 16.73 15.067m-8.641-17.427c8.273 8.35 10.48 9.076 10.48 9.076m-18.603-37.654c1.69 2.696-2.132 9.224-10.279 5.343 2.574 6.724-1.246 4.894-6.536 2.439 1.48 5.728-5.12 2.103-7.8-.513-.455 1.219-.593 4.196-3.105 4.42-2.917.261-5.982-8.034-8.322-9.318m26.031 3.091l-14.775-13.371m22.636 14.075l-7.193-10.807m-7.309 12.335l-8.869-9.612m1.179 9.408l-4.672-5.052m-5.7-12.162c11.766 14.522-5.148 2.904-5.148 2.904m20.309 4.016s6.901 1.249-1.005-8.191m5.884-6.171s7.906 10.347 2.574 8.713m-20.776-9.439l2.206 3.449m20.592 23.417c1.839 1.997 6.067 5.083 6.067 5.083m-13.973-3.087c4.045 3.086 7.538 6.353 7.538 6.353m-20.407-3.267c8.273 8.35 6.435 6.172 6.435 6.172m-2.023-9.621c4.045 3.086 6.435 5.446 6.435 5.446" fill="none"/></g><g stroke="#000"><g fill="#fff" fill-rule="evenodd"><path d="M285.882 161.353c6.435 12.344 14.647 32.697 5.699 41.751-2.942.908-10.79-28.998-16.914-31.767-.919-3.086-4.964-16.7-4.964-16.7" fill="#999"/><path d="M275.909 159.92c-3.374 0 6.753 6.675 10.4 15.916"/></g><path d="M273.196 162.261c4.964 23.054.368 27.955-1.655 28.136-2.942-1.452-8.089-22.509-13.973-23.78M298.383 55.524c20.591-19.06 23.349-40.843 25.555-41.025 9.717-.8-3.309 38.665-3.309 38.665l-24.636 19.423m5.657-12.273s9.88-7.445 15.08-17.457M298.383 69.32c30.519-16.7 34.196-43.929 36.77-43.022 9.397 3.664-2.574 28.681-2.574 28.681-1.655 6.898-25.923 28.5-25.923 28.5m-2.406-6.222s13-9.498 23.4-25.158M307.76 81.482c36.586-19.968 37.322-42.84 41.367-41.388 8.688 23.252-23.165 45.2-45.595 61.719m2.278-10.437s16.64-5.904 27.041-21.564M304.267 101.268c31.806-9.984 47.162-39.251 51.111-37.757 9.193 3.449-10.112 27.955-10.112 27.955-15.627 14.341-41.367 24.869-41.367 24.869m-.429-10.583s22.1-4.107 34.061-16.173M304.083 114.52c50.927-16.156 52.949-31.949 57.729-30.678 9.069 6.809-20.04 29.407-20.04 29.407-3.677 5.446-40.815 15.43-40.815 15.43m-.868-11.631s25.741.513 36.661-8.215M301.693 128.497c48.721-10.165 55.891-24.324 59.752-23.417 6.089 8.174-23.349 25.958-23.349 25.958-18.201 10.347-42.837 11.799-42.837 11.799m.93-8.589s17.16.513 28.081-5.391M303.164 160.083c13.605 12.344 21.326 35.389 14.34 36.85-3.861.182-14.34-26.866-29.6-30.678l-9.744-8.35m5.549-1.323c-3.374 0 17.673 6.418 21.32 15.66M310.334 148.828c19.856 14.704 26.21 32.096 23.349 33.038-4.412 1.452-22.068-16.669-28.497-17.79-3.125-.545-21.694-10.347-21.694-10.347m14.777-3.051c-3.374 0 13.773 5.904 17.42 15.146M296.177 142.475c21.694 2.541 59.752-20.331 60.487-18.334 9.445 10.925-31.439 29.226-40.447 28.318l-31.99 1.997m3.382-5.832s26.261.257 38.221-5.134M228.068 145.03s0-12.066 5.98-12.579c0 0 13.52-1.027 28.601 1.54 34.492-20.332 7.471-46.446 12.22-55.451 1.56-13.863 24.701-34.657 24.701-34.657 2.34 2.054-.471 14.994 1.3 14.119 4.68-2.31 1.794 7.862 3.12 10.525 4.42-1.54 4.194 5.066 3.12 10.012 3.64.513 2.34 6.675 1.56 11.039 7.138-3.875-2.161 10.992.26 10.525 10.92-1.54-1.56 10.269-1.56 10.269 6.24 2.31 3.325 6.893-1.04 8.728 5.46 3.851-.131 9.998-2.08 10.269 4.94 2.567-.557 6.278-3.38 8.985 4.42 4.107-3.64 5.862-7.54 7.445 3.12 4.878-.55 5.932-3.9 7.445 2.08 3.851-3.038 3.564-6.24 3.081 3.9 4.107-2.6 5.904-5.2 5.391 0 0-1.385 5.327-5.98 3.337 1.3 4.107-8.06 3.594-8.06 3.594 0 4.107-13.78 2.567-13.78 2.567" fill="#999" fill-rule="evenodd"/><path d="M281.837 72.224s-.663 4.972-3.125 11.799c3.861 3.812 4.596 9.621 4.596 9.621m11.852-18.339s-2.86 7.445-6.24 7.445M300.349 57.747s-3.64 12.579-7.02 12.579m10.141-2.824s-1.04 8.215-4.42 8.215m8.06 2.31s-2.86 7.445-6.24 7.445m8.06 3.337s-3.12 6.675-6.5 6.675m6.24 4.107s-5.2 8.215-8.58 8.215m7.54 2.824s-5.46 4.621-8.84 4.621m7.54 4.107s-5.46 4.621-8.84 4.621m7.54 4.878s-8.06 3.851-11.44 3.851m7.8 5.134s-9.1.77-12.48.77m5.06 6.6s-7.629-.319-11.009-.319m6.597 7.58s-6.526-1.771-10.642-.319m4.575 4.494s-6.526-1.771-10.642-.319m5.861 5.22s-6.342-.864-10.826-2.679m4.392 5.946s-2.665.77-7.149-1.045m-.573 4.313s-2.298-.137-6.781-1.953M295.159 75.304s-2.86 7.445-6.24 7.445m7.895 1.813s-2.86 7.445-6.24 7.445m9.365.361s-3.595 4.903-6.976 4.903m5.689 4.899s-3.595 4.903-6.976 4.903m4.403 5.444s-3.963.91-7.343.91m4.952 6.351s-.838.184-4.218.184m.174-51.374s.449 4.177-2.931 4.177m-1.01 62.399s-4.226-.486-3.483-3.741m9.734-2.068s-7.352-2.119-6.608-5.375m-8.835 19.534s-1.284-8.473-.541-11.728m-9.571 18.445s1.289-11.196 3.871-12.636m-15.086 15.358c2.758-9.439 6.437-13.737 9.019-14.633m-19.866 14.089c2.758-9.439 10.114-13.011 12.696-13.907m-25.566 14.27c2.758-9.439 10.114-13.011 12.696-13.907m-3.693 26.482c9.928 3.631 14.524 12.525 14.524 12.525" fill="none"/></g><path d="M1277.19 144.216c14.127-26.793 28.742-23.87 28.742-23.87 7.307 0 9.743 4.872 18.025 4.872 10.23 0 7.794-10.717 7.794-10.717" stroke="#000" stroke-width="4.189" transform="matrix(.377 0 0 .373 -249.802 -14.094)" fill="none"/><path d="M240.33 30.977c1.102 4.724 4.61 5.642 4.61 5.642s-.761 4.508-3.692 4.715c-5.382.954-7.14-3.836-4.591-7.995.918-1.09 3.673-2.362 3.673-2.362z" fill-rule="evenodd"/><path transform="matrix(-.631 -.209 -.218 .735 202.904 -16.215)" d="M-71.703 51.269a3.659 1.439 0 1 1-7.318 0 3.659 1.439 0 1 1 7.318 0z" fill="#fff"/><path d="M-88.642 54.106c-1.645 0-2.138.987-2.138.987m-3.289 8.716c-.698 1.977 1.5 4.693 1.151 4.111m-1.043-20.052c-1.628 0-1.744 3.14-1.744 3.14m10.582 24.072l2.326 3.023m-1.163 5.814l2.442 2.791m7.791 6.629l2.907 3.14" stroke="#000" transform="matrix(-1.579 0 0 1.562 113.29 -38.805)" fill="none"/><path d="M206.084 124.305s-2.181 5.963-3.739 6.477c0 0-1.769.589-2.938-.182-1.064-.702 0-2.18 0-2.18 1.428-2.055 6.677-4.115 6.677-4.115zm9.293 2.991s.359 6.331-.871 7.409c0 0-1.394 1.228-2.774.973-1.257-.233-.864-2.005-.864-2.005.499-2.445 4.51-6.377 4.51-6.377zm-6.362 22.349s.359 6.331-.871 7.409c0 0-1.394 1.228-2.774.973-1.257-.233-.864-2.005-.864-2.005.499-2.445 4.51-6.377 4.51-6.377z" fill-rule="evenodd"/><path d="M-52.215 117.915s2.327 2.062 2.467 3.042c.082.576-1.233 3.618-1.233 3.618-.576 0-.082-3.947-.082-3.947s-1.809-2.302-1.151-2.714z" fill-rule="evenodd" stroke="#000" transform="matrix(-1.579 0 0 1.562 113.29 -38.805)"/><path d="M228.018 174.559c1.169 0 2.199 3.49 1.431 4.926 0 0-.868 1.635-2.251 1.877-1.259.22-1.522-1.576-1.522-1.576-.403-2.462.001-5.227 2.342-5.227zm-11.426 12.715s2.588 5.801 1.821 7.238c0 0-.868 1.635-2.251 1.877-1.259.22-1.522-1.576-1.522-1.576-.403-2.462 1.952-7.539 1.952-7.539zm7.54 14.986c3.846 1.254 4.653 5.763 4.369 7.363 0 0-.318 1.82-1.559 2.47-1.13.592-1.938-1.037-1.938-1.037-1.148-2.22-3.598-6.74-.871-8.795z" fill-rule="evenodd"/><path d="M-77.462 165.187s.562 3.058.068 3.916c-.29.504-1.721 1.349-1.721 1.349-.453-.355.887-2.419.887-2.419s-.006-2.928.766-2.846zm-10.854 2.138s.973 3.963.479 4.821c-.29.504-1.227.116-1.227.116-.453-.355-.017-2.09-.017-2.09s-.006-2.928.766-2.846zm9.21-14.555s.397 2.647-.097 3.505c-.29.504-1.227.116-1.227.116-.453-.355-.017-2.09-.017-2.09s.57-1.612 1.341-1.531z" fill-rule="evenodd" stroke="#000" transform="matrix(-1.579 0 0 1.562 113.29 -38.805)"/><path d="M244.903 179.854c2.593 1.732 2.602 3.24 2.619 4.864 0 0 .024 1.847-1.076 2.711-1.001.787-4.434-.668-4.434-.668-1.539-1.975 2.762-2.026 2.891-6.907zm-27.785-24.789c2.593 1.732 2.602 1.442 2.619 4.864 0 0-.885 2.746-1.984 3.61-1.001.787-2.097-1.696-2.097-1.696-1.539-1.975-.744-6.136 1.463-6.778zm-19.093 13.714c1.169 0 2.199 3.49 1.431 4.926 0 0-.868 1.635-2.251 1.877-1.259.22-1.522-1.576-1.522-1.576-.403-2.462.001-5.227 2.342-5.227zm8.05 9.89c1.67 5.338 3.627 6.957 2.86 8.394 0 0-1.906.479-3.289.721-1.259.22-1.522-1.576-1.522-1.576-.403-2.462 1.563-1.759 1.952-7.539zm45.446 62.189c1.169 0 2.199 3.49 1.431 4.926 0 0-.868 1.635-2.251 1.877-1.259.22-1.522-1.576-1.522-1.576-.403-2.462.001-5.227 2.342-5.227z" fill-rule="evenodd"/><path d="M57.158 350.498s112.534-41.895 112.534-148.369v-96.44h-225.069v96.44c0 106.473 112.535 148.369 112.535 148.369z" fill="url(#b)" fill-rule="evenodd"/><path d="M300 658.5s-298.5-112.32-298.5-397.772v-258.552h597v258.552c0 285.452-298.5 397.772-298.5 397.772z" stroke="#000" stroke-width="3" transform="matrix(.377 0 0 .373 -56.152 105)" fill="none"/></g></svg>