<svg xmlns="http://www.w3.org/2000/svg" xmlns:xlink="http://www.w3.org/1999/xlink" version="1" width="1440" height="720" fill-rule="evenodd"><defs id="defs4"><style type="text/css" id="style6"/></defs><path id="rect2533" fill="#f7e017" d="M0 0h1440v720h-1440z"/><path id="path2535" fill="#fff" d="M1440 350v170l-1440-300v-170z"/><path id="path3422" d="M1440 520v150l-1440-300v-150z"/><path d="M695.744 569.718c-19.368-2.566-37.115-8.729-49.447-17.172-2.389-1.635-4.633-2.974-4.987-2.974-.356 0-.645 1.816-.646 4.064-.004 6.379-2.567 9.581-9.008 11.251-6.16 1.598-15.558-1.625-23.177-7.949-7.889-6.548-17.001-11.545-24.71-13.551-6.353-1.653-14.777-1.389-20.869.655-2.828.949-6.054 2.288-7.169 2.977-1.115.688-2.359 1.252-2.764 1.252-1.081 0-.924-6.854.206-9.039 1.486-2.873 5.161-5.701 9.433-7.259 2.162-.788 3.931-1.803 3.931-2.255 0-.452-.728-2.095-1.618-3.652-2.902-5.077-1.713-9.999 3.35-13.865 5.183-3.958 13.949-4.642 21.703-1.695 1.953.742 3.77 1.35 4.038 1.35 1.017.001.396-1.421-2.409-5.518-3.246-4.741-3.886-7.081-3.479-12.715.517-7.148 6.339-12.984 13.467-13.5 5.82-.421 9.445 1.533 18.029 9.717 25.655 24.463 53.544 37.939 86.074 41.59 8.21.921 24.726.426 34.417-1.033 29.27-4.406 58.761-19.124 81.794-40.819 6.379-6.008 9.446-7.601 14.68-7.62 4.548-.017 7.735 1.448 10.994 5.056 2.976 3.294 3.979 6.426 3.661 11.431-.205 3.217-.731 4.791-2.639 7.901-2.82 4.596-2.341 5.018 3.237 2.85 7.542-2.932 16.83-1.579 21.843 3.182 4.409 4.188 4.828 8.378 1.405 14.063-1.252 2.079-2.276 4.031-2.276 4.339 0 .571.95.842 5.527 1.576 5.99.961 9.429 5.417 9.429 12.218 0 2.033-.252 3.696-.561 3.696-.308 0-2.576-.831-5.04-1.847-6.988-2.882-10.959-3.624-19.109-3.575-6.215.038-8.357.332-12.68 1.742-6.639 2.165-13.727 6.344-19.508 11.502-6.366 5.679-10.373 7.471-16.582 7.414-5.757-.053-9.695-1.732-11.775-5.021-1.112-1.758-1.269-2.83-1-6.801.176-2.593.143-4.714-.073-4.714-.216 0-2.461 1.424-4.989 3.165-6.635 4.569-10.873 6.825-18.468 9.831-23.183 9.178-56.628 13.143-82.236 9.75z" id="path3152" fill="#cf1126" fill-rule="evenodd"/><path d="M802.722 539.746c4.125-2.105 9.53-7.608 11.744-11.958 1.765-3.467 2.012-4.662 2.224-10.729.195-5.593.029-7.239-.92-9.104-1.063-2.088-1.398-2.276-4.059-2.276-2.572 0-3.069.25-4.389 2.209-1.905 2.826-2.097 8.925-.35 11.083 1.09 1.346 1.244 1.363 3.556.397 3.216-1.344 3.76-1.278 3.752.453-.019 4.417-6.347 12.919-12.986 17.45-1.787 1.219-3.389 2.584-3.561 3.032-.482 1.257 1.97.983 4.989-.558z" id="path3138" fill="#fc0" fill-rule="evenodd"/><path d="M711.045 563.818c3.992-1.32 6.263-3.734 7.895-8.394.814-2.325 1.364-4.739 1.221-5.365-.339-1.488-2.058-1.413-3.962.174-1.303 1.086-1.459 1.64-1.085 3.853.947 5.608-1.043 6.997-11.649 8.134-1.046.112-4.09-.068-6.765-.4-5.04-.626-6.84-.127-5.013 1.389.554.46 1.956 1.079 3.116 1.377 2.824.725 13.212.235 16.241-.766z" id="path3150" fill="#ffd42a" fill-rule="evenodd"/><path d="M733.018 562.888c.601-.544 2.662-1.495 4.581-2.113 2.557-.824 3.88-1.708 4.957-3.31 3.115-4.634 2.535-8.62-2.039-14.008-2.478-2.919-3.581-2.84-5.558.403-1.71 2.804-1.671 2.979.792 3.617 1.289.334 2.526 1.282 3.206 2.457 2.682 4.634 1.892 7.505-2.074 7.538-3.605.03-4.592.539-5.566 2.871-.504 1.206-.916 2.494-.916 2.863 0 .984 1.361.818 2.616-.318z" id="path3148" fill="#ffd42a" fill-rule="evenodd"/><path d="M725.814 557.65c.678-1.842.912-5.149.841-11.898-.054-5.141-.258-9.506-.453-9.701-.598-.598-3.56 1.304-3.951 2.537-.203.64.124 2.118.727 3.285.922 1.782 1.043 3.453.758 10.466-.359 8.862.222 10.349 2.078 5.311z" id="path3146" fill="#ffd42a" fill-rule="evenodd"/><path d="M708.892 553.429c.355-1.654.818-5.027 1.03-7.496.212-2.469.713-5.596 1.114-6.948 1.024-3.453-.006-4.368-2.732-2.427l-2.039 1.452.427 4.968c.385 4.478-.32 12.835-1.356 16.075-.273.853.125.636 1.256-.685.91-1.063 1.945-3.286 2.3-4.939z" id="path3144" fill="#ffd42a" fill-rule="evenodd"/><path d="M693.884 555.841c2.381-2.178 2.869-3.537 3.771-10.497.463-3.576 1.031-7.454 1.262-8.616.517-2.604-.511-2.782-3.277-.568-1.811 1.449-1.881 1.676-1.2 3.893.902 2.939.095 10.21-1.383 12.466-1.124 1.715-3.426 2.102-5.596.94-.952-.51-1.15-1.109-.853-2.591.554-2.771-1.036-3.096-5.425-1.111-4.107 1.858-5.689 1.696-5.132-.526.224-.891-.014-1.779-.607-2.272-.9-.747-1.784-.731-7.792.145-1.004.146-1.301-.181-1.301-1.436 0-.894-.202-1.935-.449-2.314-.256-.393-3.156-.733-6.757-.793-6.936-.116-11.85-1.262-15.261-3.561-3.478-2.344-3.787-4.191-1.458-8.707 1.08-2.094 2.303-4.856 2.718-6.139.415-1.282 1.625-3.166 2.69-4.186s1.936-2.131 1.936-2.468c0-.862-4.377-.057-6.207 1.142-1.244.815-1.454 1.388-1.164 3.174.393 2.422-1.143 6.022-4.035 9.46-3.178 3.777-7.856 2.226-14.071-4.667-2.343-2.599-3.222-3.199-3.82-2.611-1.119 1.1-.238 4.93 1.509 6.564 1.963 1.836 9.517 5.348 11.532 5.361 2.029.013 2.674.482 3.902 2.836 1.554 2.98 11.464 5.999 21.13 6.436 3.059.138 3.267.261 3.581 2.098.33 1.935.371 1.952 5.043 2.142 4.695.19 5.37.515 3.973 1.911-.405.405-.556 1.208-.335 1.784.333.868 1.099.982 4.468.667 2.237-.209 4.655-.519 5.374-.689.989-.233 1.546.209 2.283 1.815.749 1.631 1.503 2.218 3.251 2.531 3.211.576 5.928.005 7.7-1.616z" id="path3142" fill="#ffd42a" fill-rule="evenodd"/><path d="M780.703 552.267c5.848-2.879 9.298-6.118 11.515-10.811 1.05-2.222 1.909-4.331 1.909-4.686 0-.807-2.88-2.155-4.603-2.155-1.726 0-2.079-1.182-1.339-4.476.721-3.208-.142-7.228-1.552-7.228-.511 0-1.418.745-2.014 1.655-.924 1.411-.967 2.011-.292 4.064 1.001 3.042.216 5.313-2.51 7.254-1.291.919-1.996 1.98-1.996 3.003 0 .87.109 1.581.243 1.581s1.555-.733 3.159-1.629l2.916-1.63 1.718 1.352c.945.743 1.718 1.954 1.718 2.691 0 3.554-10.145 9.541-17.115 10.101-3.706.298-4.343.171-5.63-1.115-1.046-1.046-1.35-1.93-1.09-3.171.198-.946.558-2.671.799-3.834.644-3.099-.695-2.678-2.989.94-1.893 2.984-2.455 6.176-1.386 7.862.866 1.365 6.646 2.672 10.735 2.428 2.57-.153 5.107-.867 7.803-2.194z" id="path3140" fill="#fc0" fill-rule="evenodd"/><path d="M809.352 514.787c-1.547-2.361-.619-5.206 1.698-5.206 1.374 0 1.638.338 1.804 2.309.138 1.646-.174 2.642-1.087 3.469-1.239 1.121-1.319 1.102-2.415-.571z" id="path3136" fill="#cf1126" fill-rule="evenodd"/><path d="M819.743 530.493c3.673-3.673 5.234-8.144 5.256-15.05l.016-5.192 3.035-1.441c3.951-1.876 7.694-5.624 7.694-7.704 0-2.134-.95-2.025-2.673.305-1.25 1.69-2.923 2.712-9.032 5.517-1.544.709-1.644 1.088-1.994 7.552-.404 7.452-1.419 10.243-5.577 15.326-2.543 3.109-2.642 3.509-.865 3.509.725 0 2.588-1.27 4.14-2.822z" id="path3134" fill="#fc0" fill-rule="evenodd"/><path d="M634.121 525.566c1.11-1.401 2.768-4.254 3.685-6.34.917-2.086 2.283-4.455 3.036-5.265 1.763-1.897.775-3.067-2.063-2.444-1.501.33-2.104.886-2.364 2.179-.85 4.244-2.385 8.579-3.752 10.599-2.48 3.666-2.54 3.817-1.519 3.817.528 0 1.867-1.146 2.976-2.547z" id="path3132" fill="#ffd42a" fill-rule="evenodd"/><path d="M779.659 526.325c.356-1.068-1.682-1.83-2.556-.956-.374.374-.473 1.014-.221 1.423.575.93 2.415.62 2.777-.467z" id="path3130" fill="#fc0" fill-rule="evenodd"/><path d="M620.528 519.324c3.316-1.68 6.483-5.604 6.483-8.031 0-1.588-2.665-3.339-5.082-3.339-1.072 0-3.086.877-4.699 2.045-5.043 3.653-10.436 2.908-13.386-1.851-2.428-3.916-4.963-6.046-7.199-6.046-2.795 0-2.908 1.754-.174 2.707 1.323.461 2.421 1.577 3.327 3.38 2.659 5.291 4.212 6.233 11.28 6.848l4.552.396.2 2.764c.11 1.52.485 2.764.834 2.764s2.087-.736 3.862-1.636z" id="path3128" fill="#ffd42a" fill-rule="evenodd"/><path d="M619.443 514.783c-.581-1.513.238-2.926 1.695-2.926 1.333 0 1.651.985.926 2.873-.5 1.303-2.129 1.336-2.621.053z" id="path3126" fill="#cf1126" fill-rule="evenodd"/><path d="M834.931 512.019c.356-1.068-1.682-1.83-2.556-.956-.374.374-.473 1.014-.221 1.423.575.93 2.415.62 2.777-.467z" id="path3124" fill="#fc0" fill-rule="evenodd"/><path d="M706.342 525.168c-.536-.106-3.609-.538-6.828-.959-16.574-2.17-36.293-9.022-50.747-17.631-32.615-19.428-56.468-53.14-63.972-90.412-8.576-42.601-2.468-79.249 17.661-105.955 3.665-4.863 7.531-8.883 6.817-7.087-.214.536-1.742 4.261-3.396 8.276-9.3 22.572-10.457 46.435-3.538 73.006 2.739 10.521 5.314 17.282 10.156 26.675 16.957 32.892 48.726 57.156 83.768 63.977 2.861.557 8.275 1.603 12.03 2.324 9.867 1.896 15.239 1.705 28.581-1.015 12.469-2.542 22.516-5.56 31.556-9.481 27.439-11.9 50.243-34.609 61.933-61.673 8.003-18.529 11.763-45.723 9.217-66.652-1.538-12.644-5.521-26.488-10.429-36.252-1.034-2.056-1.596-3.739-1.25-3.739 1.079 0 8.515 9.092 12.864 15.73 9.584 14.628 16.066 32.788 18.383 51.503 1.905 15.388.258 40.034-3.63 54.329-7.985 29.362-25.458 57.246-46.596 74.357-22.397 18.131-46.181 27.522-76.894 30.36-6.443.595-23.233.803-25.685.318z" id="path3122" fill="#cf1126" fill-rule="evenodd"/><path d="M763.065 512.655c.619-.537 1.314-1.984 1.545-3.215.231-1.231.749-2.328 1.151-2.438l3.477-.944c1.846-.501 3.307-1.48 4.454-2.985 2.607-3.418 2.359-7.831-1.024-18.246-1.502-4.625-2.946-9.141-3.208-10.035-.623-2.124-1.174-2.051-3.072.41l-1.57 2.036 1.631 1.939c2.163 2.57 5.652 13.126 5.752 17.401.053 2.281-.303 3.985-1.082 5.175-1.257 1.918-.611 1.88-9.993.597-2.083-.285-3.41-.041-5.385.988-3.472 1.81-5.041 1.737-5.958-.276-1.138-2.499-2.15-1.547-2.15 2.022v3.197h7.116l.415 2.506c.228 1.378.796 2.742 1.263 3.031 1.183.731 5.283.013 6.637-1.162z" id="path3120" fill="#fc0" fill-rule="evenodd"/><path d="M757.981 509.586c-1.352-2.064-.779-3.581 1.353-3.581 1.173 0 1.843.477 2.278 1.62 1.31 3.445-1.621 5.028-3.631 1.961z" id="path3118" fill="#d40000" fill-rule="evenodd"/><path d="M675.684 506.634c2.05-.882 4.487-2.736 6.533-4.97l3.264-3.563 3.766.456c4.664.565 4.741.612 4.741 2.839 0 1.77.116 1.829 4.389 2.233 2.414.228 5.597.417 7.074.419 1.895.003 2.947.37 3.576 1.248.84 1.171 1.327 1.204 8.366.569 6.581-.593 7.876-.537 10.845.472 2.108.717 4.426 1.027 6.185.829 5.04-.568 12.01-4.714 13.02-7.744.122-.365 1.947-1.009 4.057-1.43 5.091-1.018 5.323-2.11.575-2.703-2.059-.257-5.155-1.024-6.88-1.704-1.725-.68-4.085-1.236-5.244-1.236-2.556 0-4.998 1.583-4.998 3.241 0 1.078.388 1.177 3.414.87 2.853-.289 3.709-.113 5.208 1.074.987.781 1.625 1.696 1.417 2.031-.671 1.085-6.607 3.793-9.237 4.213-1.756.281-3.189.082-4.573-.634-2.306-1.193-5.7-1.377-6.338-.344-.276.447-.995.17-1.994-.768l-1.562-1.467-3.549 1.471c-3.591 1.488-4.895 1.408-4.895-.302 0-.784-1.054-.872-6.34-.531-5.835.377-6.434.304-7.522-.91-1.006-1.123-1.057-1.52-.341-2.666.666-1.066.674-1.513.041-2.147-.63-.63-1.425-.633-3.732-.016-5.793 1.55-7.465.691-7.465-3.836 0-3.962-3.235-5.658-6.47-3.392-5.314 3.722-6.694 8.128-3.083 9.85 2.655 1.267 1.979 2.763-2.191 4.85-5.968 2.987-11.224 2.606-21.231-1.537-2.463-1.02-3.095-.61-2.531 1.639.554 2.206 2.563 3.413 7.586 4.561 5.394 1.232 11.919.841 16.12-.966z" id="path3116" fill="#fc0" fill-rule="evenodd"/><path d="M680.531 493.88c-.252-.656.059-1.413.804-1.957 1.03-.753 1.355-.747 2.145.044.512.512.754 1.393.538 1.957-.518 1.35-2.964 1.32-3.487-.044z" id="path3114" fill="#cf1126" fill-rule="evenodd"/><path d="M672.096 495.602c3.535-2.242 3.452-2.068 3.959-8.293.357-4.388.295-4.714-.898-4.714-1.725 0-2.628 1.895-2.628 5.514 0 2.317-.363 3.361-1.596 4.595-2.938 2.938-10.244 1.596-11.159-2.049-.316-1.258.083-2.384 1.616-4.559 3.19-4.526 2.466-5.631-1.441-2.2-2.685 2.357-3.17 2.43-2.66.396.469-1.87-.505-2.616-2.698-2.066-1.124.282-1.725.989-1.997 2.346-.266 1.331-.875 2.064-1.936 2.33-1.772.445-4.789-1.233-4.789-2.662 0-1.061 4.518-6.575 10.326-12.603 2.189-2.272 3.98-4.393 3.98-4.714 0-.321-1.17-.584-2.601-.584-2.095 0-2.601.234-2.601 1.199 0 .66-2.926 4.495-6.503 8.522-7.458 8.398-8.077 10.146-4.389 12.394 2.974 1.813 6.778 1.675 9.766-.356l2.427-1.649v2.992c0 3.82.761 5.191 3.759 6.774 3.768 1.99 8.324 1.758 12.065-.614z" id="path3112" fill="#fc0" fill-rule="evenodd"/><path d="M779.505 491.968c.008-4.129.114-4.478 1.301-4.266 7.446 1.332 10.889.336 14.106-4.08 1.758-2.414 1.91-3.027 1.678-6.777l-.255-4.123 3.611.432c6.548.784 6.621.825 6.166 3.499-1.242 7.299-3.523 11.319-9.15 16.127-3.934 3.361-3.924 5.006.02 3.134 3.339-1.584 7.215-5.568 9.301-9.559 1.532-2.93 1.801-4.236 1.828-8.872.029-4.877.187-5.562 1.537-6.655 1.132-.916 2.391-1.181 5.078-1.066 3.228.137 3.73-.03 5.197-1.735 1.278-1.485 1.54-2.332 1.232-3.977-.568-3.028.072-4.086 3.532-5.839 4.685-2.374 6.506-4.902 6.506-9.031 0-3.799-1.174-6.039-2.832-5.403-1.259.483-1.446 3.768-.317 5.576.414.663.57 1.682.347 2.263-.606 1.578-4.116 3.483-7.297 3.96-4.015.602-6.793 2.747-8.888 6.863-3.331 6.546-2.851 6.244-5.759 3.617-4.464-4.033-8.409-2.967-10.088 2.725l-.717 2.432-1.203-2.438c-1.222-2.478-2.674-3.067-4.083-1.658-1.261 1.261-.888 3.253 1.182 6.308 1.066 1.574 1.939 3.563 1.939 4.422 0 4.002-3.785 7.241-7.401 6.334-1.937-.486-3.654-3.203-3.654-5.781 0-2.332-1.747-2.113-2.274.285-.885 4.03-2.695 2.391-3.489-3.16-.538-3.759-1.899-3.963-3.573-.537-1.07 2.191-1.099 2.598-.248 3.576 1.774 2.039 4.552 10.171 4.885 14.295.454 5.637 1.77 4.978 1.781-.892z" id="path3110" fill="#fc0" fill-rule="evenodd"/><path d="M800.974 470.009c-1.587-1.161-.859-3.02 1.182-3.02 1.857 0 3.325 1.534 2.794 2.918-.469 1.221-2.378 1.271-3.976.102z" id="path3108" fill="#cf1126" fill-rule="evenodd"/><path d="M815.251 465.657c-.508-1.601.681-3.22 2.365-3.22 1.248 0 1.601 1.504.826 3.523-.565 1.472-2.692 1.27-3.192-.303z" id="path3106" fill="#cf1126" fill-rule="evenodd"/><path d="M645.103 491.482c.122-.627-.205-1.084-.774-1.084-1.208 0-1.937 1.06-1.365 1.985.588.952 1.887.405 2.14-.901z" id="path3104" fill="#fc0" fill-rule="evenodd"/><path d="M695.938 485.798c0-.931-.35-1.281-1.13-1.13-1.695.326-1.884 2.479-.218 2.479.931 0 1.348-.418 1.348-1.348z" id="path3102" fill="#fc0" fill-rule="evenodd"/><path d="M625.404 480.237l1.799-2.358 6.746.452c8.215.55 9.196.091 15.288-7.152 2.239-2.662 4.445-4.84 4.903-4.84.458 0 .833-.732.833-1.626 0-2.358-2.829-2.252-4.34.163-2.176 3.477-8.244 10.036-9.85 10.646-.895.34-2.937.422-4.537.182-2.426-.364-2.712-.547-1.723-1.1 1.716-.96 5.493-4.851 5.493-5.659 0-1.05-3.126-2.008-5.085-1.557-.959.221-3.243 1.227-5.077 2.237-3.47 1.911-6.095 1.959-6.095.111 0-.552 1.536-2.662 3.414-4.69 1.878-2.028 4.243-4.615 5.257-5.749 1.014-1.134 2.111-2.062 2.438-2.062.327 0 .595-.439.595-.975 0-.694-.705-.975-2.44-.975-2.231 0-2.574.253-4.004 2.949-.86 1.622-2.588 3.847-3.839 4.946-1.845 1.62-2.675 1.932-4.397 1.653-3.373-.547-5.479-2.254-5.479-4.44 0-1.043-.416-2.056-.925-2.251-1.373-.527-3.627.913-3.627 2.316 0 2.387.857 3.367 4.592 5.252 3.319 1.675 3.803 2.165 3.982 4.032.181 1.881.413 2.111 2.023 1.999 2.571-.179 3.578 2.112 2.146 4.881-1.113 2.152-1.411 5.975-.466 5.975.315 0 1.383-1.061 2.372-2.358z" id="path3100" fill="#fc0" fill-rule="evenodd"/><path d="M628.311 475.117c0-1.059.595-1.205 2.277-.56.864.332.908.527.216.965-1.348.854-2.493.668-2.493-.406z" id="path3098" fill="#f0f" fill-rule="evenodd"/><path d="M630.912 472.295c0-.567 2.847-2.055 3.932-2.055 1.265 0 .567 1.813-.843 2.191-2.046.548-3.089.502-3.089-.136z" id="path3096" fill="#cf1126" fill-rule="evenodd"/><path d="M674.154 476.742c0-1.41-2.537-1.216-2.813.215-.178.923.112 1.142 1.292.975.837-.118 1.521-.654 1.521-1.191z" id="path3094" fill="#fc0" fill-rule="evenodd"/><path d="M786.202 466.817c.259-1.344-1.618-2.249-2.609-1.259-.991.991-.085 2.868 1.259 2.609.623-.12 1.231-.728 1.351-1.351z" id="path3092" fill="#fc0" fill-rule="evenodd"/><path d="M611.824 453.091c1.756-1.51 1.777-1.612 1.012-4.927-1.074-4.652-1.005-5.155.766-5.599 2.242-.563 7.926 2.487 9.189 4.929.975 1.885.948 2.017-.712 3.556-1.785 1.654-1.779 3.583.011 3.583 1.478 0 5.57-3.87 5.57-5.268 0-1.925-4.543-6.485-8.128-8.158-2.219-1.035-4.445-1.519-7.011-1.524-4.599-.008-5.222.984-3.978 6.337 1.457 6.268-.521 7.116-5.575 2.388-3.75-3.508-5.224-7.16-5.21-12.912.015-6.172 2.374-9.221 7.687-9.934 3.532-.474 3.448-1.302-.187-1.847-5.297-.794-9.779 2.743-11.48 9.062-1.888 7.01 2.437 15.555 10.097 19.949 4.013 2.302 5.61 2.375 7.948.364z" id="path3090" fill="#fc0" fill-rule="evenodd"/><path d="M820.658 445.4c.429-.429.78-1.396.78-2.15 0-.753.732-2.361 1.626-3.573.894-1.212 1.626-2.448 1.626-2.748 0-1.232-2.025-1.19-3.634.076-1.638 1.289-2.869 1.318-2.869.068 0-.317.783-.958 1.74-1.425 2.385-1.163 2.587-2.308.568-3.228-2.58-1.175-5.168.969-5.432 4.501-.176 2.363.017 2.767 1.835 3.837 1.666.98 1.971 1.503 1.692 2.907-.482 2.425.529 3.273 2.068 1.735z" id="path3088" fill="#fc0" fill-rule="evenodd"/><path d="M840.294 443.178c1.432-1.293 2.603-2.755 2.603-3.247 0-.493 1.244-1.789 2.764-2.881 4.312-3.098 5.257-6.232 3.332-11.044-.754-1.885-3.117-4.5-8.238-9.117-3.949-3.56-7.57-6.473-8.046-6.473-1.4 0-1.15 5.152.272 5.607 2.564.819 4.108 1.863 8.135 5.497 4.688 4.231 6.845 8.184 5.667 10.385-1.135 2.121-2.635 1.464-6.765-2.964-2.172-2.329-4.314-4.231-4.762-4.227-.474.004-.813.849-.813 2.025 0 1.476.786 2.892 2.926 5.272 3.486 3.877 3.829 6.211 1.213 8.269-.942.741-1.909 1.348-2.148 1.348-.239 0-1.004-1.155-1.701-2.566-1.464-2.967-10.391-12.39-11.737-12.39-.603 0-.908.759-.908 2.259 0 1.81.358 2.444 1.797 3.189 1.778.919 6.15 5.332 10.558 10.655 1.252 1.512 2.495 2.75 2.762 2.752.267.002 1.657-1.055 3.089-2.348z" id="path3086" fill="#fc0" fill-rule="evenodd"/><path d="M849.047 418.106c-.581-1.864-12.557-14.192-13.788-14.192-.644 0-.836.753-.691 2.72.175 2.376.436 2.783 2.068 3.216 1.028.273 4.181 2.747 7.008 5.498 2.827 2.751 5.305 4.837 5.506 4.636.202-.202.155-1.047-.104-1.878z" id="path3084" fill="#fc0" fill-rule="evenodd"/><use transform="matrix(-1 0 0 1 1440 0)" id="use3950" width="17926044" height="16293461" xlink:href="#g3939" fill-rule="evenodd"/><g id="g3939" fill-rule="evenodd" fill="#cf1126"><path d="M512.024 469.901c-2.62-.276-5.256 1.908-4.363 4.697.221.505 1.102 1.481 2.573 2.48 1.496 1.015 3.591 2.095 6.169 3.07 5.157 1.95 12.254 3.456 20.527 3.235h-1.175c8.396.111 12.901-.667 18.771-2.606 4.962-1.623 9.243-2.855 9.542-7.242 0-.755-.228-1.198-.609-1.559-.381-.36-.97-.641-1.715-.803-1.491-.324-3.213.537-4.711 1.029-3.192 1.048-9.951 3.907-21.277 3.979-5.971.152-10.373-1.269-14.93-2.787-5.455-1.817-6.218-3.122-8.803-3.494z" id="path3169"/><path d="M481.526 302.701l-.213.047c-.272.083-.562.283-.85.827v.024c-.099.17-.351 1.071-.425 2.314-.074 1.243-.037 2.866.071 4.77.216 3.81.769 8.707 1.582 13.933 1.625 10.447 4.257 22.237 7.037 29.283 2.724 6.521 8.691 12.369 14.5 17.641 5.808 5.27 11.47 9.867 13.508 14.618.38.849.561 2.037.756 3.731.196 1.7.343 3.858.472 6.376.259 5.037.415 11.5.472 18.444.091 11.033-.021 23.159-.213 32.778l.85.378c1.404.643 3.053 1.475 4.888 2.314 3.67 1.678 8.105 3.305 12.705 3.164h.024c9.279-.067 13.413-2.782 16.554-3.991h.024c.602-.232 1.263-.407 1.936-.52-.118-8.823-.933-69.984-.921-80.6v-.024c.102-2.906-2.653-6.61-6.235-9.919-3.581-3.308-7.824-6.245-10.296-8.1l-.024-.024-.047-.024c-1.469-1.307-4.468-4.468-7.297-7.604-1.414-1.568-2.78-3.135-3.849-4.416-1.069-1.281-1.806-2.171-2.173-2.905-.104-.209-.686-.972-1.488-1.748-.802-.775-1.837-1.618-2.952-2.338s-2.316-1.312-3.377-1.559c-1.061-.247-1.933-.179-2.645.26-.637.392-.883 1.017-.85 2.173.032 1.155.45 2.714 1.11 4.345 1.319 3.263 3.565 6.892 5.195 9.116.995 1.358 1.914 3.625 2.81 6.258.896 2.633 1.722 5.589 2.314 8.124.592 2.535.98 4.478.897 5.715-.021.309.09.671-.496 1.134-.293.231-.807.271-1.086.165-.279-.106-.422-.251-.543-.378-.485-.508-.809-1.17-1.346-2.362v-.024l-.024-.024c-.813-2.075-3.98-4.389-8.006-6.73-4.025-2.341-8.819-4.793-12.682-7.77-.93-.754-1.165-1.869-1.441-3.188-.275-1.319-.544-2.965-1.11-4.983-1.132-4.036-3.466-9.591-9.47-16.649l-.307-.354.094-.472c1.315-6.725-.46-13.194-2.881-17.192-1.21-1.999-2.62-3.359-3.637-3.826-.381-.175-.683-.232-.921-.213z" id="path3165"/><path d="M491.445 304.189c-.454.01-.852.184-1.228.472-.74.568-1.319 1.715-1.275 3.235 1.965 4.24 3.137 9.94 2.078 15.94 5.951 7.092 8.364 12.833 9.541 17.027.598 2.132.874 3.859 1.134 5.101.256 1.228.558 1.886.756 2.055 3.646 2.807 8.333 5.226 12.422 7.604 3.341 1.943 6.335 3.789 7.982 6.093-.093-.457-.192-.926-.307-1.417-.33-1.415-.752-2.979-1.204-4.534-.665-1.673-2.58-3.813-4.794-5.55-2.214-1.737-4.738-3.098-6.423-3.495l-.732-.165-.047-.732c-.127-1.907-1.682-6.302-3.849-10.414-2.167-4.113-5.022-8.083-7.274-9.541l-.472-.307.024-.567c.363-13.066-2.538-18.803-4.794-20.286-.564-.371-1.081-.53-1.535-.52z" id="path3163"/><path d="M499.734 306.621c-.344.021-.596.13-.897.496-.284.345-.584.968-.779 1.889 1.192 3.513 1.877 8.535 1.724 15.515 2.751 2.011 5.359 5.906 7.486 9.942 2.056 3.901 3.606 7.831 3.991 10.509 2.047.636 4.378 2.005 6.518 3.684.57.447 1.127.91 1.653 1.393-.608-1.524-1.216-2.773-1.677-3.401-1.719-2.345-4.011-6.05-5.432-9.564-.483-1.194-.876-2.354-1.086-3.471-2.325-2.429-4.538-6.83-3.991-11.17.486-5.567-1.826-11.034-4.322-13.839-1.249-1.404-2.5-2.025-3.188-1.984z" id="path3161"/><path d="M509.156 307.967c-.262.018-.554.129-.921.401-.478.354-1.055 1.01-1.653 2.007 1.837 3.303 3.049 7.681 2.645 12.256v.048c-.33 2.578.704 5.515 2.031 7.675.256-.905.767-1.703 1.606-2.22.895-.551 1.901-.714 2.905-.661-.463-6.865-1.889-13.213-3.708-16.696-.951-1.821-1.967-2.72-2.645-2.81h-.26z" id="path3159"/><path d="M523.397 365.377c-.103.139-.006.158 0 .071v-.071z" id="path3157"/><path d="M555.23 450.865c-.444.09-.871.208-1.252.354-1.643.633-4.077 1.95-7.864 2.928l9.163-.094-.047-3.188z" id="path697-1"/><path d="M518.283 449.568c-1.943-.276-3.897 1.908-3.235 4.697.164.505.817 1.481 1.908 2.48 1.109 1.015 2.662 2.095 4.574 3.07 3.823 1.95 9.086 3.456 15.219 3.235h-.871c6.225.111 9.565-.667 13.918-2.606 3.679-1.623 6.853-2.855 7.075-7.242 0-.755-.169-1.198-.451-1.559-.282-.36-.719-.641-1.272-.803-1.106-.324-2.382.537-3.493 1.029-2.366 1.048-7.378 3.907-15.776 3.979-4.427.152-7.691-1.269-11.07-2.787-4.044-1.817-4.61-3.122-6.527-3.494z" id="path3151"/><path d="M514.828 459.522c-2.276-.276-4.566 1.908-3.791 4.697.192.505.958 1.481 2.235 2.48 1.3 1.015 3.12 2.095 5.36 3.07 4.48 1.95 10.647 3.456 17.834 3.235h-1.021c7.294.111 11.208-.667 16.309-2.606 4.311-1.623 8.03-2.855 8.291-7.242 0-.755-.198-1.198-.529-1.559-.331-.36-.842-.641-1.49-.803-1.296-.324-2.792.537-4.093 1.029-2.773 1.048-8.646 3.907-18.486 3.979-5.188.152-9.013-1.269-12.972-2.787-4.739-1.817-5.402-3.122-7.648-3.494z" id="path3167"/></g><path d="M715.667 475.981c-12.481-1.317-23.35-9.227-28.612-20.821-1.761-3.879-1.714-4.885.163-3.532 3.175 2.287 7.699 4.307 9.649 4.307 1.603 0 2.933.824 6.072 3.761 6.083 5.69 12.901 7.164 9.937 2.148-2.079-3.519-1.499-5.893 2.952-12.085 2.235-3.11 4.357-5.675 4.714-5.701.358-.026 2.166 2.066 4.019 4.65 3.981 5.552 5.214 9.73 3.745 12.693-1.288 2.598-1.194 4.289.237 4.289 1.567 0 6.983-3.438 10.206-6.479 1.749-1.651 3.665-2.708 5.852-3.231 1.788-.427 4.817-1.655 6.731-2.729 1.914-1.074 3.614-1.818 3.779-1.653.782.782-4.411 9.605-7.774 13.208-6.527 6.992-12.809 10.119-22.282 11.092-2.84.292-7.066.33-9.39.084z" id="path3082" fill="#cf1126" fill-rule="evenodd"/><path d="M731.531 460.22c-.205-.535-.206-1.243-.002-1.573.784-1.269-1.694-7.287-4.765-11.569l-4.257-5.936c-.577-.805-1.414-1.463-1.861-1.463-.95 0-7.109 8.366-9.694 13.168-.984 1.827-1.788 4.293-1.788 5.481 0 1.188-.312 2.159-.694 2.159-1.79 0-5.317-3.739-7.268-7.703-1.974-4.013-2.115-4.745-2.083-10.818.042-7.688 1.173-12.553 5.37-23.096 2.695-6.768 2.98-8.002 3.01-13.005.035-6.026-1.102-9.181-4.43-12.287-1.982-1.85-1.689-2.669.956-2.669 2.464 0 6.327 1.968 8.264 4.211 1.847 2.139 3.034 1.442 3.602-2.114.214-1.336 1.252-3.452 2.307-4.702 1.59-1.883 2.122-2.154 3.107-1.581 1.777 1.034 4.114 6.076 4.114 8.875 0 3.21 1.008 3.164 4.257-.191 2.871-2.965 4.818-4.122 7.935-4.714 2.815-.535 2.767.628-.141 3.447-3.38 3.276-5.069 7.37-5.106 12.376-.036 4.818.617 7.165 4.178 15.017 3.357 7.402 5.134 14.579 5.134 20.733 0 6.629-1.333 10.833-4.615 14.563-3.271 3.715-5 4.776-5.531 3.393z" id="path3080" fill="#cf1126" fill-rule="evenodd"/><path d="M726.731 389.626c-1.638-3.211-5.061-7.171-6.199-7.171-1.027 0-6.165 5.701-6.165 6.84 0 .442-.403 1.139-.896 1.548-.695.577-1.494.352-3.559-1-3.358-2.198-4.872-6.286-4.829-13.032.038-5.884.982-9.903 4.234-18.023 2.362-5.898 2.558-6.848 2.34-11.38-.287-5.99-1.91-9.668-6.464-14.65-1.75-1.915-3.182-3.66-3.182-3.878 0-.218 1.355-.397 3.012-.397 3.353 0 6.109 1.402 8.889 4.522.971 1.089 2.017 1.981 2.326 1.981.309 0 .763-1.536 1.009-3.414.493-3.756 1.835-6.34 3.294-6.34 1.379 0 2.928 3.433 2.928 6.491 0 3.717 1.33 3.954 4.224.751 1.3-1.439 3.37-2.949 4.599-3.355 2.309-.762 5.824-.36 6.506.744.214.346-.833 1.955-2.327 3.575-6.548 7.103-7.866 15.103-4.019 24.396 3.138 7.581 4.189 12.961 3.86 19.744-.356 7.333-1.676 10.701-5.076 12.951-1.396.924-2.685 1.68-2.864 1.68-.179 0-.919-1.162-1.644-2.583z" id="path3078" fill="#cf1126" fill-rule="evenodd"/><path d="M711.611 326.895c-3.359-2.465-4.471-4.819-4.471-9.465 0-2.384.442-3.667 2.008-5.828 2.315-3.196 1.889-4.207-1.379-3.27-5.254 1.507-7.767.131-7.946-4.35-.087-2.189.379-3.124 3.326-6.666 2.362-2.838 3.219-4.328 2.755-4.792-.464-.464-3.258 1.957-8.985 7.783-4.572 4.651-9.711 9.402-11.421 10.558-9.834 6.648-19.234 7.674-23.53 2.568-2.197-2.611-2.075-4.087.466-5.663 1.162-.721 3.138-2.38 4.389-3.687 2.947-3.077 11.732-9.419 16.094-11.617 3.538-1.783 4.384-2.999 2.087-2.999-2.985 0-12.548 6.227-19.791 12.887-2.137 1.965-5.205 4.156-6.817 4.87-3.617 1.6-10.724 2.185-13.883 1.142-2.238-.739-6.302-4.573-6.302-5.946 0-.362.926-1.156 2.058-1.766 1.132-.609 3.157-2.071 4.499-3.249 5.799-5.087 16.787-10.321 25.514-12.152 2.769-.581 1.745-1.983-1.348-1.846-5.982.265-17.871 5.83-24.979 11.692-8.321 6.863-20.87 6.214-24.91-1.288-.693-1.288-1.104-2.498-.911-2.69.192-.192 2.667-.935 5.499-1.651 3.057-.773 9.113-3.278 14.903-6.165 9.117-4.546 11.808-5.516 18.086-6.52 2.819-.451 2.962-1.83.224-2.154-3.532-.418-8.94 1.352-18.495 6.053-12.278 6.041-15.723 7.08-22.193 6.693-5.902-.353-9.225-1.87-14.015-6.4-3.131-2.962-7.577-10.505-6.705-11.377.207-.206 1.649-.002 3.205.455 1.721.505 6.651.841 12.583.856 8.314.021 10.522-.198 14.956-1.481 7.403-2.142 17.262-7.148 23.993-12.181 12.89-9.638 23.402-13.512 36.806-13.566 12.371-.049 20.237 2.806 27.21 9.876 2.356 2.389 4.37 3.939 4.694 3.614.313-.313.651-4.493.751-9.289 0 0 3.647-.35 4.409.67 0 7.786.089 8.4 1.222 8.4.743 0 1.537-.761 2.027-1.944 1.055-2.548 4.978-6.043 9.161-8.163 9.058-4.59 24.719-4.73 37.293-.334 5.301 1.853 11.182 5.18 16.785 9.492 5.612 4.32 17.103 10.106 23.899 12.033 6.868 1.948 18.974 2.441 25.192 1.027 2.558-.582 4.96-1.058 5.336-1.058 2.292 0-1.614 7.635-6.191 12.104-8.37 8.172-19.258 8.133-34.585-.121-9.547-5.142-20.965-7.949-20.965-5.155 0 .583.599.975 1.489.975 3.316 0 9.731 2.224 18.669 6.472 9.675 4.598 15.103 6.533 18.325 6.533 2.336 0 2.408 1.452.231 4.656-2.315 3.407-6.237 5.101-11.771 5.083-5.297-.017-8.236-1.175-12.962-5.106-7.907-6.578-27.617-13.919-26.863-10.005.152.787 1.105 1.266 3.136 1.575 6.859 1.044 14.911 4.892 23.148 11.063 2.542 1.905 5.175 3.787 5.85 4.182 1.129.662 1.149.864.254 2.537-1.474 2.754-5.203 4.899-9.242 5.316-5.233.54-9.785-1.016-14.49-4.955-9.944-8.323-19.311-14.347-22.31-14.347-2.454 0-1.354 1.35 2.969 3.642 5.679 3.011 11.517 7.084 15.814 11.034 2.038 1.874 4.324 3.738 5.08 4.142 1.804.965 1.735 2.369-.245 4.964-2.017 2.644-5.362 3.797-9.692 3.34-8.639-.912-15.381-5.082-25.972-16.067-4.138-4.292-7.831-7.804-8.205-7.804-1.413 0-.586 1.916 2.143 4.969 3.383 3.784 4.038 5.917 2.757 8.983-1.135 2.716-3.013 3.346-6.877 2.306-3.948-1.063-4.563-.092-1.978 3.125 3.866 4.811 3.291 10.695-1.442 14.746-1.469 1.257-3.008 2.286-3.421 2.286-.412 0-1.457-1.074-2.321-2.386-3.043-4.618-5.718-4.592-8.674.086-1.026 1.623-1.895 2.943-1.933 2.934-.038-.009-1.421-1.009-3.075-2.223z" id="path3059" fill="#cf1126" fill-rule="evenodd"/><path d="M726.669 233.026l-5.125 4.062-4.605-3.471v27.748l9.73.118z" id="path689-7" fill="#cf1126" fill-rule="evenodd"/><path d="M716.954 197.565c-4.459.077-9.166.138-13.39.968-2.935.577-5.596 1.523-7.817 3.094.367 8.532 41 12.09 51.907.165-2.297-1.675-5.089-2.661-8.171-3.259-4.069-.789-8.572-.875-12.847-.945.008 2.346.024 4.692.024 7.037l-9.706-.024v-7.037z" id="path3139" fill="#cf1126" fill-rule="evenodd"/><path d="M724.892 155.237l-2.416 23.639 24.326 11.879-12.313-16.459 16.813-5.442z" id="path625-4" fill="#cf1126" fill-rule="evenodd"/><path d="M722.182 149.081c-3.694 0-6.423 1.38-6.423 3.017 0 1.638 2.729 3.029 6.423 3.029 3.691 0 6.4-1.391 6.4-3.029 0-1.637-2.708-3.017-6.4-3.017z" id="path690-0" fill="#cf1126" fill-rule="evenodd"/><path d="M724.902 153.97l-6.314.047v49.385l6.438.024z" id="path4149" fill="#cf1126" fill-rule="evenodd"/><path d="M694.887 204.247c-1.022 13.117-4.347 22.266-8.976 32.357l11.097-10.293 7.72 9.167 8.363-9.328 8.524 7.881 8.202-8.202 8.524 9.971 7.398-8.202 12.545 9.006c-4.554-10.094-10.715-18.648-9.941-32.84-12.152 9.022-41.028 10.652-53.456.482z" id="path3969" fill="#cf1126" fill-rule="evenodd"/><g id="g3072" fill="#fc0"><path d="M1134.541 545.321a2.356 2.16 0 1 1-4.712 0 2.356 2.16 0 1 1 4.712 0z" transform="matrix(0 0 0 0 -70.97 143.851)" id="path3068"/><path d="M1134.541 545.321a2.356 2.16 0 1 1-4.712 0 2.356 2.16 0 1 1 4.712 0z" transform="matrix(0 0 0 0 -70.97 143.851)" id="path3070"/></g></svg>