<svg xmlns="http://www.w3.org/2000/svg" width="900" height="600"><path fill="#efb22d" d="M0 0h900v600h-900z"/><path d="M0 600h900v-600z" fill="#e23d28"/><g stroke="#000" stroke-width=".5" fill="none"><g fill="#fff"><path d="M481.741 187.59c-4.988-1.771-8.208.805-8.046 7.244.158 6.439 3.542 10.142 8.529 7.727l-.483-14.971zm4.384-12.058c-4.154-3.28-8.029-1.874-9.946 4.276-1.917 6.149.096 10.742 5.596 10.058l4.35-14.333zm6.912-11.673c-3.579-3.905-7.629-3.138-10.508 2.625-2.875 5.763-1.625 10.618 3.917 10.825l6.592-13.45zm-4.533 56.731c-6.117 2.254-6.763 10.625-2.896 15.776 3.863 5.151 10.946 6.117 14.808 0l-11.913-15.776zm-7.084-17.707c-5.796-1.932-11.017 5.853-11.913 12.878-1.125 8.854-13.683 11.751-6.758 25.113 1.446-8.532 7.083-13.2 11.588-13.522 4.508-.322 11.271-1.288 14.167-6.761l-7.083-17.708zm18.355 34.449c-6.762 1.61-7.729 10.625-2.9 17.064 4.133 5.513 17.063 4.185 16.742-1.288l-13.842-15.776zm19.154 54.25c.321-5.795-9.013-8.049-13.521-6.922-4.508 1.127-13.121-.161-15.133-4.99-1.608 3.864.725 8.049 7.246 10.142 4.933 1.585 4.829 5.151 3.379 6.761 3.704.644 14.65.644 18.029-4.99zm-5.313-37.025c-6.6-2.898-10.513 1.516-13.038 5.795-3.704 6.278-15.133-1.77-18.996 6.6 5.233-2.254 10.558 2.553 13.038 4.185 7.083 4.668 20.767 3.22 22.7-7.727l-3.704-8.854zm3.863 7.727c-6.6 4.99-9.175 10.946-9.013 14.971.163 4.025 5.796 12.878 11.913 13.361 3.542-7.244 5.313-22.537-2.9-28.332zm-27.363 31.069c0-2.415 3.542-3.38 5.954-2.576 2.417.805 6.117 3.22 4.829 5.795l-10.783-3.22zm-36.383-13.201c-.642-2.898 4.025-7.888 10.304-5.151 6.275 2.737 7.083 8.049 4.504 10.142l-14.808-4.99zm15.292 5.313c-.483-1.61 4.038-4.825 11.754-2.898 7.725 1.932 9.621 6.907 9.338 10.786l-21.092-7.888zm-16.096-5.313c4.025-3.058 2.5-8.855-1.129-10.625-6.6-3.22-4.183-11.59-8.371-13.2-4.183-1.61-8.208-4.508-8.371-7.405-2.092 4.024-.804 7.727 2.096 10.303 2.896 2.576-2.254 13.039 1.446 15.776l14.329 5.151zm-86.285-2.254c-3.38-5.312-11.43-4.346-14.81-.644-3.38 3.702-2.898 9.176.322 11.59l14.488-10.947zm19.317-7.887c-1.288-7.083-9.82-7.888-14.488-6.117-4.668 1.771-7.888 8.854-4.829 14.005l19.318-7.888zm12.879-.966c3.058-5.956-2.897-14.81-9.659-16.098-5.645-1.074-12.315-1.046-14.488-6.6-1.368 4.83 2.254 7.888 6.44 10.625 4.185 2.737-.805 9.82 5.956 13.844l11.752-1.771zm-.645.205c-1.409-4.267 1.449-9.943 7.233-9.545 5.784.398 9.08 4.601 6.53 9.856l-13.763-.31zm12.879.321c-.796-4.422 2.83-9.64 8.501-8.435 5.671 1.205 8.342 5.83 5.083 10.675l-13.584-2.24zm12.784 2.033c-.575-4.458 3.308-9.488 8.913-8.001 5.604 1.487 8.042 6.24 4.542 10.915l-13.454-2.914zm-97.137 73.745c-10.786 0-13.42 2.568-14.971 13.683-1.932 13.844 16.903 15.454 14.971-13.683zm4.829-14.488c-16.581-6.278-25.595 19.961-42.015 15.293 5.875 9.337 20.118.017 25.434.966 9.015 1.61 28.493-1.771 16.581-16.259zm-10.785 35.898c-8.21-3.702-17.064 8.854-15.454 14.327 2.044 6.952 20.766 1.288 15.454-14.327zm-38.313 54.091c4.508 1.283 9.98 3.863 9.015 12.554-.966 8.692-17.385 26.4-32.195 27.367-14.81.967-20.123 18.833-32.84 13.842 11.912-2.25 11.912-15.775 21.249-19.958-6.761-2.417-10.303 12.879-18.995 12.879-8.693 0-12.878 13.842-23.503 12.875-10.625-.963-11.743 16.854-33 17.067-16.259.158-36.381 19.154-43.625 10.946 15.776-2.254 22.142-10.996 31.552-20.608 15.132-15.45 32.196-8.529 37.991-22.213-6.923 4.667-14.971 6.921-22.859 6.763-9.902-.204-20.766 15.775-31.874 8.692 6.439-.804 10.625-3.542 17.386-10.625 6.924-7.254 17.083-2.567 25.113-9.979 12.556-11.592 23.342-1.933 35.415-16.421-3.381-1.608-10.625-.483-17.386 3.058-6.761 3.542-15.454-2.417-23.181 1.771.966-9.496 18.995-4.063 30.264-10.625 12.718-7.404 23.262-5.233 33.323-4.346-14.005-.079-19.478-13.363-38.795-9.5-8.425 1.688-15.132-11.588-23.503-4.829.241-4.988 9.015-9.013 18.03-4.183 9.015 4.829 12.648-4.226 30.586 7.083 7.405 4.667 20.122-2.9 28.171 2.092-1.046-3.058-5.635-4.992-11.027-4.588 3.381-6.921 25.193-6.038 34.691.887zm14.327-10.466c-7.083-5.473-16.903 1.128-23.664-1.449 0 4.506 2.254 11.269 9.659 13.844 2.254-1.608 12.395-10.463 14.005-12.395zm11.108-15.615c-11.108-5.634-13.039 8.371-21.732 5.473.322 4.025 3.542 9.015 10.625 10.142l11.108-15.615zm6.6-12.717c-16.42-6.439-18.513 9.337-28.171 6.278 2.254 5.473 16.098 8.371 23.181 6.439l4.99-12.717zm22.537-69.06c-4.347-6.117-13.522-1.127-14.971 6.117-1.449 7.244 2.093 17.386 8.21 15.132l6.761-21.249zm11.107-19.318c-7.566-1.77-16.259-.966-15.293 6.439-2.898 1.288-3.702 10.786 4.185 12.878l11.108-19.318zm4.991-4.99c-7.405-8.693-15.663-8.491-20.283-4.83-8.532 6.761-16.823 2.898-17.064 9.659 5.152-3.944 9.659.805 13.844-.644 4.185-1.449 7.244 6.6 18.835 3.22l4.668-7.405zm-17.869 129.912c1.127 2.092 8.049 3.058 11.43-.483 4.48-4.696-.483-17.709-7.566-18.675-7.083-.966-7.727 14.65-3.863 19.158zm-8.049.321c10.141 3.7 14.488-4.671 9.015-9.981-1.449 1.771-6.761 8.21-9.015 9.981zm-37.991 13.841c-1.932 5.796-11.913 6.763-23.181 24.792-11.269 18.029-22.054 10.463-24.791 22.858 13.522-10.946 24.142-3.675 32.195-14.488 12.235-16.421 22.309-14.063 27.045-25.113 6.761-15.775 36.381-15.454 37.991-40.244-9.981-1.932-41.533 24.79-49.259 32.194zm254.024-243.398c12.879 4.185 13.2 20.927 28.008 26.4 14.813 5.473 16.263 18.673 28.333 15.454-11.267-3.059-10.463-16.098-22.213-19.318-13.783-3.776-18.996-24.791-29.946-28.01m54.897 92.886c2.254 5.151 1.933 14.327-6.117 16.742 4.346 2.737 10.783.161 14.325-5.795-5.313 11.751-1.771 22.376 6.6 24.469-4.025-8.21 4.992-12.074 2.096-17.386 5.313 2.254 9.979 9.498 9.817 14.005 6.925-7.727-5.15-18.03-2.896-25.273l-23.825-6.761zm-83.387 82.743c-7.888-6.922-11.254 1.81-15.133-1.207-3.621-2.817-8.45-3.22-10.3-.403 6.763.242 3.458 5.473 16.579 6.761-13.121.885-10.704 15.535-19.479 14.81 9.338 8.854 14.167-7.888 21.733-5.151-2.254.644 3.542 5.956-.483 13.039 6.521-.161 9.175-9.176 9.983-13.844l-2.9-14.005zm-173.695 75.177c-2.898-2.413-11.269-3.542-14.488-1.608-3.219 1.929-2.092 2.413 1.771 2.738 3.864.321 8.853 6.571.483 6.921-3.863.158-2.575 9.496-10.625 10.142 3.3 4.025 12.718 1.367 16.098-3.058-.644 3.621 4.185 6.921 2.254 11.267 5.956.646 2.495-12.071 11.913-11.429-3.864.483-2.254 9.175 4.507 6.921-4.024 1.933-1.932 6.6 2.576 5.475-2.898.967-3.864 4.667.161 6.763 3.864-5.313-.483-24.308-14.649-34.129zm350.612-177.624c12.321 0 22.308-9.99 22.308-22.312 0-12.32-9.988-22.31-22.308-22.31-12.325 0-22.313 9.99-22.313 22.31 0 12.322 9.988 22.312 22.313 22.312zm-116.55 26.948c6.763-6.439 17.067-9.659 24.146-4.83 7.083 4.83 30.588 10.625 42.179 2.576 11.588-8.049 17.063-12.235 22.213-11.269 3.867 5.795 8.533 8.532 14.329 9.015 1.771 1.932 8.05 3.542 11.592 3.058 5.15 1.288 11.429-.322 16.417-5.795 7.729 1.127 14.971-4.668 17.708-13.361 8.208-.966 8.692-10.142 3.542-16.259-4.829-.966-1.125-17.225-18.675-14.005 7.408 4.507 1.771 13.522 7.892 17.708-4.188 0-9.579 1.771-10.867 8.049 1.608-4.346-.242-7.244-1.371-8.21.163-3.703-8.046-12.798-15.775-9.498 5.554 1.207 2.417 10.142 6.442 13.522-2.9.161-5.958 1.61-7.729 4.185-2.092-3.703-9.496-7.566-14.004-7.888 0-1.288-.242-3.863-.804-5.151-2.013-3.863-3.704-8.451-2.9-14.327-3.863 4.185-7.083 9.981-9.013 14.166-6.117-4.185-21.25 1.932-28.333 3.541-7.083 1.61-30.908-2.253-36.383-8.049-5.471-5.795-16.096-9.337-26.075-12.234-13.725-3.983-13.846-18.995-28.979-29.298-.321 18.674 28.013 77.914 34.45 84.353zm-157.759 142.305c11.913 0 21.571-9.658 21.571-21.571 0-11.913-9.658-21.57-21.571-21.57-11.913 0-21.571 9.658-21.571 21.57 0 11.913 9.658 21.571 21.571 21.571zm-51.512-16.581c4.346 5.635 11.751 5.314 14.81 4.83 2.576 6.758 10.785 6.6 14.327 10.3 3.542 3.704 15.613 3.383 19.155 1.287-3.217-.321-7.403-2.25-11.428-5.633-4.858-4.079-2.576-12.234-6.439-15.131 2.898-3.22 3.38-8.532 2.737-10.625 3.059-1.771 5.312-4.668 5.634-6.117 5.313-.322 9.98-3.059 11.913-5.151 2.738 2.575 9.658-.805 13.363 3.541.804-10.625-9.338-16.259-16.1-12.717-2.738-1.449-9.98-.483-11.268 1.449-2.254-.966-8.532 2.254-11.43 4.346 3.22-1.77 3.702-7.083 2.415-9.015 2.737-1.127 5.795-4.829 6.117-7.566 3.864.644 9.658-1.932 12.233-1.288-4.183-5.473-11.105-7.405-18.189-6.922-7.325.403-10.463 5.554-11.429 11.108-4.347 2.575-5.795 11.268-4.185 14.327-2.496-.08-4.83 2.335-5.795 3.702-3.38-1.449-8.21-2.495-11.671-2.495"/><path d="M366.322 373.198c-1.449-4.185.47-7.953 1.449-11.268 2.495-8.451.966-10.625-6.6-9.498-.644 4.024 3.22 17.225 5.151 20.766zm-5.555-20.283c1.932 1.932 8.774 2.818 9.498-3.3.832-7.023-2.012-9.74-8.129-7.003-.483 1.61-1.047 8.21-1.369 10.303zm1.449-10.544c2.576 1.046 8.13 3.139 11.188-2.817 2.566-4.995-.805-8.854-6.117-8.532-1.288 1.449-3.864 6.6-5.072 11.35zm4.75-11.832c.644 1.932 7.244 8.371 12.073 3.703 4.83-4.668 4.83-11.59-2.415-14.166-1.932.322-7.727 7.083-9.659 10.463zm9.659-10.464c1.449 4.024 5.956 10.946 14.327 7.727 8.371-3.22 4.83-13.683.966-15.776-2.254.161-11.43 4.347-15.293 8.049zm15.292-8.049c-.644 3.542 0 13.2 11.429 13.039 11.428-.161 8.211-13.522 5.313-15.454-4.668 0-12.556.161-16.742 2.415zm17.225-1.932c-1.288 2.737-4.19 20.75 18.191 15.776 2.896-.644 10.463-17.225-18.191-15.776zm12.233 1.61c-2.25 2.253 3.542 20.444 18.675 17.385 15.133-3.059 2.417-20.283-18.675-17.385zm12.879 2.737c-2.412 4.99 1.213 19.8 19.883 19.8 16.921 0-.887-19.478-19.883-19.8zm14.65 4.346c-1.212 2.766-2.696 18.468 19.317 19.8 15.938.966 12.075-21.571-19.317-19.8zm23.662 6.6c-2.733 4.83-5.633 16.903 18.513 17.869 15.471.619 5.958-17.547-18.513-17.869zm20.125 3.703c-3.542 4.83-.933 14.303 8.046 16.098 11.271 2.254 12.879-8.371 5.154-13.522-7.729-5.151-13.2-2.576-13.2-2.576zm10.946 2.254c-2.575 4.508-.979 15.454 16.096 15.454 3.542 0 17.067-13.844-16.096-15.454zm-132.157 209.931c13.83 0 25.042-11.213 25.042-25.042 0-13.833-11.212-25.046-25.042-25.046-13.831 0-25.043 11.213-25.043 25.046 0 13.829 11.212 25.042 25.043 25.042zm183.67-364.149c-1.933 1.932-5.954 7.727-6.763 9.98-8.371 25.113 13.975 43.871 27.046 70.831 10.304 21.249 9.017 54.733-7.083 75.982-5.508 7.268-3.863 9.337-10.946 16.742-2.717 2.841-5.796 6.439-4.829 16.742 4.508-1.61 10.946 2.576 12.233 6.117 3.221-1.61 7.729-.966 9.338.966 5.471-2.575 9.979-1.288 14.808 3.864 4.188-.644 8.696 0 12.879 4.507 2.254-4.507 6.763-6.117 9.979-5.151-.321-5.795 5.475-9.98 10.625-7.727-1.608-7.727 5.475-13.523 12.238-11.269 5.792-4.507 17.383-4.829 23.179 1.932-10.304-2.897-9.979 8.049-18.675 7.083 2.254 6.439-3.542 10.142-9.333 12.234 3.7-1.771 7.725-3.863 9.013-1.61 3.221-2.817 9.658-1.771 11.271-.322 4.263-1.368 8.371-.322 10.3 4.829 5.796 3.542 9.658 12.556 5.475 19.318-1.288-7.083-6.117-6.761-8.05-9.659-4.508 1.61-9.017 1.61-10.304-1.288-2.575 2.576-11.267 4.83-15.129.966-1.45 5.795-6.442 10.625-12.238 10.625 1.613 4.507-2.896 12.236-6.438 16.098 5.475 2.896 3.863 9.338 2.575 13.2 8.371 1.287 1.288 8.692 15.775 13.521-7.079 2.254-20.925 0-22.858-8.692-7.083-.321-11.913-7.404-11.588-14.813-5.475-5.15-6.279-12.554 1.287-17.705-6.442 1.932-9.983-8.371-19.321-4.185-4.642 2.083-16.9-1.449-16.738-5.795-1.933 3.22-13.683 1.932-15.296-3.541-3.863 2.092-12.879-1.449-12.717-6.761-4.992 2.254-11.75-1.771-11.429-6.922-4.667-.644-5.15-4.829-4.829-8.371-4.188-1.932-3.058-5.956-1.45-10.785-2.896-3.22-1.608-7.727.646-11.913-3.221-3.22-2.575-7.083-1.612-11.59-15.454-1.288-34.813-5.015-79.2-18.673-66.967-20.605-84.997 27.688-70.187 57.952 17.087 34.919-1.932 42.5 3.864 68.579 6.117 1.288 9.337 6.438 9.015 11.913 3.621.158 6.197 3.538 4.909 9.979 3.059-.563 7.003.321 9.579 2.896 2.254-4.183 9.659-5.15 13.523-.321 8.369-.646 12.556 6.117 12.235 14.488 4.504 8.05 2.896 17.871-1.933 24.146.483-3.379 0-8.208-.158-11.104-.3-5.329-7.729-6.442-6.924-10.788-3.863.321-7.566-1.771-8.854-4.667-2.254 1.929-5.473 2.575-8.21 1.608 4.346 1.933 7.727 9.658 6.439 14.808 2.254 3.867 1.771 10.95-.966 14.008-1.288 6.275-6.117 8.529-12.395 5.792 3.542-2.25 4.829-6.275 4.668-9.658-2.254-1.929-3.38-5.633-3.542-7.888-6.278.967-14.971-4.346-16.574-6.446-13.831 0-25.043 11.213-25.043 25.046-.644-5.154-7.159-10.229-6.354-14.575-3.863-11.913 1.61-23.021 17.386-25.271-1.932-4.508 4.829-9.179 2.254-14.329-3.29-6.579-9.337-15.133-18.351-25.113 5.473-9.337 3.863-21.892.644-29.62-4.623-11.096-9.015-8.371-25.435 9.658-26.76 29.383-62.46 21.25-94.012 40.567-8.384 5.133-16.741 7.083-7.727-1.929 9.015-9.017 32.84-18.029 48.293-25.758 28.94-14.471 53.445-38.635 63.104-85.641 22.697-110.465 106.245-74.05 159.045-53.445 49.571 19.346 40.567-24.469 15.454-50.869-30.183-31.732-24.146-56.664-9.979-76.626 25.433-3.541 74.213 5.313 64.392 13.845zm89.671 271.357c15.217 0 27.554-12.333 27.554-27.55 0-15.218-12.338-27.554-27.554-27.554-15.217 0-27.554 12.336-27.554 27.554 0 15.217 12.338 27.55 27.554 27.55z"/></g><path d="M539.696 178.414c-6.117 27.045-.967 39.279 8.05 51.191 18.629 24.621 33.483 80.811 12.233 117.514m11.912-31.713c2.575-.966 7.404-4.024 8.533-9.337m-6.599-2.414c.804-4.668 8.046-6.68 8.208-11.67m-8.05-6.52c-.483-4.83 7.246-9.176 6.117-14.005m-10.3-3.381c-.646-2.737 6.438-7.888 4.508-12.234m-9.821-4.669c-1.45-3.059 3.379-6.6 1.288-9.82m-9.017-3.702c-.483-2.093 2.496-6.68.887-9.416m-8.612-6.521c.642-.805 3.221-2.737 2.171-5.151m-7.483-6.519c1.046-.564 4.183-1.53 3.783-3.863m-164.924 307.387c-6.439-2.254-14.488.967-16.098 6.442m4.83 4.987c.805-5.471 9.176-7.888 11.751-5.313-5.312-2.896-7.888 7.404-3.22 7.729m43.302-129.75c-3.863 1.932-4.988 9.015 0 14.329m5.796-12.719c-2.733 2.254-2.575 9.015 1.45 10.625-3.379-2.415 0-6.6 2.417-6.761 2.413-.161 4.021 2.737 1.125 5.634m221.183 6.438c-9.013-2.413-16.258 8.05-8.05 17.388-.158-9.017 6.279-14.971 14.167-13.363m-3.621 6.238c-2.217 0-3.462 1.733-3.462 3.421 0 1.771 1.529 3.463 4.025 3.463 1.613 0 2.9-1.85 2.9-3.3m28.329-201.225c1.45 5.473 9.017 7.727 14.971 6.439m0-3.541c-4.667.161-8.529-4.185-8.208-7.888 0 2.737 6.279 4.025 8.208 2.254m-319.541 189.473c-1.288-3.221 3.864-6.44 4.025-9.499.161-3.058 5.795-5.473 11.59.322m-2.737-34.289c-1.127.483-2.093 1.127-3.059 1.449m14.167 16.098c-1.369.081-4.185-.08-5.715-1.127m.081 7.244c-1.127.564-3.623 1.53-5.072 1.852m-50.144 95.379c-.161 2.9 2.737 7.083 4.346 8.371m8.211-15.292c-1.61 2.412-2.575 6.6-1.61 9.496m25.595.162c-2.898-1.933-.966-6.925-1.288-10.142-.322-3.221 3.381-8.371 10.625-4.025m-36.381-4.183c2.898-.483 5.956-.325 7.888.479m28.815-9.658c-1.287 1.771-1.61 3.704-1.77 4.992m15.292-5.313c-2.254 0-4.185 1.608-5.151 3.221m-26.079-85.642c2.576.886 9.256 4.99 9.498 9.257m17.869-30.184c-7.887-.161-10.946-8.21-4.99-8.21m19.155 18.996c-3.058 1.288-1.608 6.6 2.738 9.176m-21.572 41.37c-1.53-1.929.483-7.563 5.473-5.875m6.279 64.633c.32-4.908 6.52-7.808 9.016-2.254m-31.875 16.258c-.403-5.392 2.334-7.163 4.748-7.483 2.415-.321 5.877 1.688 7.486 5.229m-60.206 6.279c.322-3.221 3.059-6.6 5.956-6.117m288.637-136.831c-2.096 1.53-3.463 8.371 4.504 9.015m-16.742 2.254c0 .805 1.046 1.932 1.692 2.415m36.3 10.462c-2.092-1.61-7.488 4.91-2.575 9.659m-48.617 44.431c-1.208-4.587 3.058-5.796 7.083-4.829m-17.383-27.689c2.413-1.61 4.829-3.38 7.888-4.185m-9.175 21.89c0-3.863 1.929-7.079 3.7-8.046m10.462-36.382c-.321 4.668 1.612 9.176 3.063 11.59m35.254-11.268c-2.337.725-4.429 1.61-5.313 3.542m2.734 9.658c1.129-.966 2.417-2.093 2.979-2.898m57.871-137.636c0 4.507-5.633 6.922-9.333 4.024m21.57-3.863c2.492 1.932 11.104.081 9.092-4.909m-19.558 30.827c-1.771-.322-4.829-2.254-6.117-3.863m23.825-9.498c-2.896.644-4.829 0-6.279-.644m-39.438 16.741c1.608 0 5.471-.644 8.129-2.012m-12.958-26.481c-2.092-.241-3.625.161-4.829.966m37.267 6.922c-.563 2.013-2.013 5.151-3.783 6.52m-34.13.563c4.025-1.771 9.017 11.912 18.675 7.083m.804-14.166c-1.288 1.771-2.092 4.507-2.254 6.922m-190.275-27.849c1.288-.161 3.542-.644 4.025-2.254m-169.673 152.125c4.83 2.737 8.21 7.405 6.118 14.327m215.226-179.008c1.45.966 6.925.966 9.983-.161m3.863 3.38c-.163 2.254.483 10.785-3.863 12.556m1.609-1.126c4.025 1.288 12.075.805 14.65-6.6m-5.634 6.278c2.092 3.22 2.733 9.498-3.542 12.878m5.151-7.566c4.667 1.61 15.454 1.77 14.325-7.405m-3.7 7.405c3.221 4.507 17.388 9.82 15.133.483m-28.171 12.557c5.471 1.288 13.2-2.415 9.979-12.073m15.454 4.829c.804 3.702 18.833 7.566 16.421-.805m-3.383 4.829c3.383 7.727 21.25 7.083 15.617-3.22m-2.9 8.049c3.542 4.347 19.321 1.771 13.042-8.693m-.163 8.532c9.821 7.405 21.25-3.22 8.854-10.947m5.633 8.533c8.696 6.922 19.321-5.635 11.754-9.176m-80.491 6.278c2.738.805 8.533.483 9.821-4.507m-2.175 3.38c-.321 7.325 11.996 10.142 15.133 1.691m-4.104 4.588c2.254 4.829 13.038 6.761 14.808-.161m-1.771 3.219c1.771 4.83 11.108 4.347 13.683-.644m-3.379 3.22c2.896 6.278 14.808 6.278 17.546-2.898m-2.091 4.024c4.667 2.898 14.65 1.771 13.842-7.244m-1.93 6.439c6.921 5.635 16.742.161 11.913-9.337m-.484 16.742c3.704-.644 5.633-8.049 1.771-9.98m-87.571 11.268c7.725-4.185 9.175-11.268 3.862-18.19m2.738 11.107c4.829 2.898 14.004-.161 15.613-7.244m-9.013 8.049c2.733 3.541 3.217 7.888-.325 11.912m2.579-7.404c8.529-5.312 19.154 4.508 11.267 10.464m-1.45-10.947c1.933-.483 5.313-4.024 5.633-8.049m-1.77 11.751c3.542-3.703 27.692 3.864 12.396 11.59m-1.126-21.732c4.667 1.771 7.083 8.371 0 10.625m6.117 5.473c5.15-5.312 21.25-1.932 15.454 4.83m-3.862-6.922c2.896-9.82 20.121-3.702 14.488.322m-18.03-10.142c.483 1.932.642 6.761-2.575 9.337m17.063-11.269c.642 1.61.483 4.668-.967 6.6m11.912-6.439c.967 1.77 2.575 5.151-.967 7.888m-136.828-81.938c.158 9.175 3.379 15.293 15.775 9.498m-11.913 1.449c-6.117 8.21.804 17.064 12.879 8.21m-31.712-4.186c8.371 9.015 23.342 2.415 13.683-11.269m10.142 18.996c-1.613 8.854 5.633 10.625 11.588 6.6m-42.822-12.878c1.525 8.901 10.625 15.937 19.479 10.464m-8.529 1.77c0 12.718 17.546 14.166 21.571.966m-6.279 8.049c5.633 11.59 17.867 6.922 21.892-.161m-34.288-18.351c2.254 5.634 6.763 11.913 17.225 7.244m-49.421-9.981c1.45 4.668 9.821 10.303 19.479 3.863m-13.52 2.093c-5.154 7.566 5.15 14.649 17.546 3.38m-11.43 5.957c2.092 10.625 6.275 19.157 21.408 5.473m-7.566 5.474c5.475 6.761 13.846 10.946 21.733-.483m5.796 2.414c-.483 8.049 1.125 12.073 7.404 11.751 4.95-.253 9.658-4.185 12.396-8.371m-13.521 8.372c-.163 9.176 7.079 16.42 20.604 7.083m-14.97 3.702c-2.575 6.922 5.15 18.19 20.283 12.395m-52.321-30.746c-.962 8.854 7.246 14.81 20.446 3.38m-14.004 6.439c.483 7.244 8.692 15.937 20.767 3.38m-14.971 5.796c-.967 12.395 10.463 15.937 20.121 6.439m-37.346-15.615c2.575.161 4.667-2.093 5.954-3.703m-.484 12.718c2.254.483 6.121-1.61 7.408-4.185m-1.77 18.834c2.575 2.737 11.267.805 12.392-2.898m-2.734 2.737c4.829 11.268 17.704 10.785 23.017-1.932m-2.412 4.508c2.413 6.6 8.533 10.785 18.513 8.532m-13.684-1.771c-5.633 9.176 1.771 19.961 14.325 9.337m-11.267 4.346c-.642 5.795 4.671 12.395 11.913 13.2m-35.738-30.103c-1.933 13.039 7.404 19.318 19.158 12.395m-32.841-6.116c3.058 2.415 8.533 2.737 13.683.805m6.279 7.565c-2.9 10.947 8.371 18.835 18.029 6.6m-33.646-13.2c.163 5.634 5.638 11.751 15.133 9.98m26.563 11.27c-6.442 4.346-7.729 12.073 1.287 17.063m-17.066-19.317c.325 6.6 3.383 10.303 10.625 10.946m-20.121-14.327c-9.658 8.854-.163 19.157 11.267 10.464m-4.504 2.737c-3.221 10.142 8.854 16.259 15.292 5.956m-35.255-27.528c-3.542 9.981.967 16.581 9.175 15.937m-21.891-17.868c.483 5.956 5.633 8.049 11.429 6.761m-7.729-.483c-4.346 8.371 2.254 12.878 10.95 9.659m26.4 18.673c-1.45 5.312-.646 9.176 7.242 10.947m-6.759-3.381c-9.5 4.347-10.304 13.523-2.9 19.478m-4.75-29.699c-4.988 4.507-4.025 12.314 1.45 15.373m-43.704-44.753c-5.475 5.393-.242 20.283 11.829 12.155m19.563 6.68c-7.408 6.118-4.025 17.225 8.208 14.166m-20.446-18.835c-3.863 10.947-.158 14.81 8.533 14.971m-35.737-29.62c-6.6 4.99-4.829 12.073-1.929 15.293 2.896 3.22 8.367 1.771 10.138-2.415m-22.055-17.224c-7.404 9.498 0 20.766 10.467 17.386m29.137 10.785c-7.567 2.737-13.338 9.607-8.696 15.615 2.737 3.542 14.65 4.025 18.029-9.659m-23.016-14.81c-4.346 6.278-2.9 12.235 5.15 15.293m-5.634-3.541c-4.671 2.576-7.729 5.635-6.6 11.269m-3.862-21.089c-1.771 7.566.321 12.235 4.988 14.488m-5.151-5.473c-7.246-.483-10.946 2.575-8.533 9.659m.646-7.888c-7.083-2.576-8.213-8.693-5.154-15.132m-.963 9.497c-7.729.322-11.108 4.185-11.108 9.498m.642-39.601c-5.633 2.415-7.404 9.981-5.313 14.166 2.096 4.185 8.696 4.508 12.721 1.771m-23.183-21.893c-5.15 5.795.804 17.064 9.983 14.327m-23.183-18.834c-4.829 6.761.483 18.03 12.879 14.81m.641 31.391c-1.287-8.049 7.083-13.361 17.388-2.898m-4.992-16.259c-3.058 2.737-4.504 7.083-4.025 10.625m-35.091-41.533c-5.313 9.015 1.129 17.225 12.558 14.005m17.225 8.371c-7.567 7.566-4.992 15.132.642 19.478m-5.475-10.624c-11.429.161-12.071 13.361-2.733 17.547m-5.959-30.747c-4.667 3.22-6.117 12.073 1.933 15.615m-2.254 4.185c-4.829-2.254-10.625.483-10.142 6.117m2.896-5.956c-4.346-10.303-17.063-8.532-15.933 2.093m19.475-14.81c-2.733.483-8.208 2.092-10.3 6.278m.804-17.868c-5.15 5.795-1.129 12.717 3.058 14.166m-18.35-30.425c-.967 6.922 1.771 10.303 10.463 9.659m-7.404-.805c-3.383 8.371 1.125 12.073 9.817 11.59m-7.888-1.288c-5.15 6.117-1.608 12.718 3.379 15.454m-5.792-7.727c-9.175-1.127-10.625 9.498-7.567 14.488m.159-42.176c-5.632 2.415-8.852 9.498-5.793 13.844 3.06 4.346 9.177 2.897 12.556.644m-10.625 1.288c-4.667 7.083-.483 12.395 4.508 14.488m-22.537-31.069c-3.702 3.863-1.449 11.752 7.566 11.913 7.258.13 10.946-6.761 8.693-11.59m-9.981 11.589c-2.897 6.439-1.127 13.361 9.82 12.234m4.668 10.142c-6.761-3.058-15.776 0-11.912 8.049m-.966-19.478c-2.737 3.863-1.771 9.337 1.288 12.717m-1.771-2.415c-4.508.805-8.854 3.22-6.118 10.303m-.643-5.795c-5.795-1.771-13.2 2.415-8.693 8.371m-.966-5.634c-4.99-.805-10.946 4.507-6.117 9.82m-1.932-4.347c-4.508 1.127-9.82 6.278-5.152 10.303m27.85-35.577c-6.439 2.898-7.083 10.142-4.025 15.454m-2.736-28.815c-9.659 3.703-9.498 16.581 1.127 20.605m-4.507-2.898c-5.795 3.38-6.922 9.82-3.058 14.005m-7.084-36.542c-3.864 1.288-3.542 13.2 6.761 12.878m-17.386-8.853c-7.727 5.151 1.61 18.19 14.166 8.854m-6.922 3.219c-1.127 5.313.322 11.108 8.854 11.752m-8.37-4.668c-6.118 2.253-7.244 14.81 3.863 15.776m-23.342-27.206c-7.888 7.244 6.439 13.522 11.752 3.059m-22.699 9.014c-3.864 4.668 9.658 16.903 15.615-3.542m1.449-.321c.322 4.829 3.22 7.727 9.175 8.049m-.16 4.668c-9.498 1.449-12.556 13.361-1.932 15.937m-15.615-17.546c-.322 4.507 4.346 8.21 9.659 7.405m4.829 9.819c-8.693 1.932-9.82 13.2-2.092 12.556m-4.025 10.464c-7.245-2.173-7.405-10.786-.966-14.005m-4.99 6.439c-6.117 3.703-3.702 12.556-.483 13.844 3.22 1.288 5.795-.322 6.118-3.058m-.484 12.395c.644 4.185-14.891 2.576-6.922-10.463m-.081 11.188c-5.231 8.21 3.301 14.89 8.693 7.888m-7.968 2.011c-2.093 6.6 5.875 11.35 11.026 6.198m-28.411-68.013c-2.898 5.956 11.59 8.21 12.556-4.025m-16.581 12.879c-2.898 11.59 18.995 9.176 13.361-5.795m.483 7.726c3.058 1.771 12.235 1.932 14.488-7.888m-6.6 8.21c.644 3.058 3.38 6.761 5.956 7.888m-16.42-4.829c-.966 6.278 5.312 11.43 12.556 10.947m-11.429-4.83c-3.541 4.83-4.668 14.166 6.44 14.81m-23.342-13.2c-1.771 4.99 8.693 10.142 14.81 1.932m-18.03 10.785c-.886 3.784 8.532 8.854 13.844-7.244m-4.185 8.21c2.254 4.024 9.82 7.244 14.488-.644m-7.566 4.83c-1.932 5.634 3.381 10.946 9.82 9.337m-21.894-10.625c-1.288 8.049 8.049 12.717 13.844 8.532m-19.961-4.991c-2.736 10.303 10.464 14.166 15.454 6.439m-3.381 3.059c.483 5.795 9.498 10.785 16.581 5.956m-32.678-1.127c-.644 2.575 10.142 5.151 11.751-3.864m-5.473 6.118c2.575 6.6 11.268 8.21 16.259.161m-2.898 3.22c1.127 6.117 9.015 9.498 15.937 5.312m2.898 2.414c-1.77 8.21 6.761 14.81 12.073 10.303m-25.757-11.751c-2.575 9.015 8.693 14.166 14.971 9.176m-28.493-13.684c-.644 8.371 5.956 13.361 13.522 9.658m-27.849-8.853c-2.254 5.473 9.659 9.981 15.293 5.313m-22.698 9.658c3.059 3.541 13.683 0 14.649-7.888m-2.897 5.795c3.863 4.507 13.039 6.922 16.742-2.737m-3.22 4.991c-.161 6.922 12.235 11.913 16.259-.805m14.568 2.496c-1.127 3.381 1.53 8.773 7.083 9.417m-17.305-11.51c-.805 3.863 4.83 9.255 10.786 7.083m1.126 1.61c-1.61 4.185-.242 10.221 5.392 10.141m-4.829-2.334c-4.185 3.541-2.415 9.82 3.623 10.062m-5.795-4.106c-5.956 4.023-3.863 12.877 4.024 12.398m-22.054-29.461c0 8.693 10.785 9.98 12.878 1.932m-4.185 5.15c-1.61 5.151 2.575 10.142 9.175 8.693m-7.887 53.444c1.449 2.096 7.405-1.446 5.795-4.988-1.61-3.542-7.919-1.617-7.244 2.092m5.795-3.541c.805-7.083-7.566-8.208-9.659-2.092m3.059-3.542c2.093-3.542-4.99-8.371-7.888-3.221m2.576-2.091c1.932-5.154-6.117-7.404-6.761-2.738m-1.771-6.762c.966-2.575 9.981-.967 6.118 4.346m6.921 6.441c3.542-3.221-2.414-9.821-6.117-7.404m29.942 17.225c-2.818.321-5.716 2.171-3.623 8.129 1.451 4.133 7.647 4.346 8.532 1.85m-9.015-7.004c-2.737-1.771-8.693 1.208-5.956 7.004 2.06 4.362 7.244 2.575 8.049.321m-17.466.967c1.368 2.413 8.209 1.371 9.417-1.287m-4.748-6.68c1.449-.967 4.104.237 4.668 1.446m-5.151-41.129c-4.668 3.058-1.771 12.396 5.473 9.979m-6.922-2.412c-3.702 2.896-.322 11.913 6.6 8.533m-5.473 0c-2.575 2.575-.081 9.738 6.6 8.371m-7.566-4.829c-1.449-.646-5.233-.163-6.843 2.25m2.658-34.85c-3.541 3.38-1.852 10.304 4.748 10.866m-6.036-3.783c-5.072 2.496-5.072 12.554 5.07 12.958m-5.473-1.608c-2.817 2.254-1.449 10.946 5.795 9.817m-3.46-.321c-1.047 1.046-1.208 3.704-.322 4.829m-2.898-8.129c-2.575.079-5.956 1.933-6.843 4.587m-4.668-9.337c.966-2.575 8.935-2.413 9.498 5.154m.805-9.017c-1.127.242-3.3 1.287-3.863 3.462m.403-27.044c-3.462 3.139-5.151 13.04 5.392 14.97m-12.396 5.475c0-2.658 7.164-4.912 9.659-.967m-14.246-13.442c1.046 2.013 6.036 4.75 9.095 2.496m-35.013-18.272c-.16 4.668 3.703 8.854 9.015 8.21 5.312-.644 6.439-5.313 4.829-8.371m-4.024 8.532c-3.542 4.346.805 10.464 4.829 8.693m-.804-11.752c2.093-.805 9.015-1.771 11.108 1.449m-33.484-.161c-1.61 2.415 8.371 4.83 11.751.161m-3.38 2.415c-.322 3.22 1.288 8.693 9.498 6.439m1.287 4.99c1.287-2.737-4.83-7.244-9.498-2.254-4.668 4.99.644 10.625 3.542 8.692m-15.454-17.223c-2.415 4.185 6.922 11.833 12.235 4.75m-18.433 2.494c-3.38 3.462.805 9.821 5.876 7.888 5.07-1.931 4.587-7.244 3.381-8.611m-15.776 7.162c-2.737 2.494-.081 8.369 3.703 8.369 3.782 0 6.117-2.975 5.392-6.758m6.278-2.094c-.483 3.702 4.99 6.277 8.532 2.819m.16-6.762c.483-.805.081-2.174-.723-2.818m-29.219 12.234c-3.138 2.496 3.623 9.417 7.888 3.058m16.34-4.425c-2.013 1.929 1.207 7 4.426 5.471m-15.453-1.929c.483 3.458 7.244 6.033 11.51.725m-7.808 2.733c-1.046 2.175 1.047 5.637 3.623 5.154m60.446 14.73c-2.494 4.908 5.473 10.625 11.269 4.667m-5.473 2.658c-1.207 2.654.242 6.358 2.415 7.725m-9.981-2.171c.564-2.417 4.024-4.671 7.164-3.542m-11.349-2.821c.483-2.171 3.38-4.346 5.554-3.779m183.998-96.67c-11.429.161-6.6 18.513 3.221 14.81m-6.921-1.287c-2.254 3.702 2.092 9.579 6.921 6.117m-1.288.725c-3.383 5.634 8.692 14.246 13.521 5.392m-3.862 3.38c.158 5.313 15.613 8.693 13.363-1.932m-1.451 5.796c3.7 6.278 17.546 6.922 16.096-2.415m-3.058 6.44c2.9 4.185 16.421 6.761 15.938-1.932m-70.83-51.031c1.929 4.99 8.529 6.761 15.775 3.863m-19.963-.321c4.508 2.897-2.092 16.098-9.013 10.785m9.013-2.575c4.992 2.415 11.108.644 12.879-6.439m-3.058 5.473c.483 3.703 5.796 6.6 12.717 5.151m-25.113-1.287c6.442 5.473-2.896 16.742-7.083 11.59m9.5-7.405c3.058 2.254 10.946.966 11.75-4.99m-3.542 4.99c.646 3.863 3.704 5.312 8.05 5.473m-18.029-.161c3.217 4.508 11.267 5.795 14.808-.161m-3.541 3.381c-.321 4.347 4.508 7.888 9.5 6.922m-27.046 2.736c4.183 2.092 8.692-5.795 5.15-11.268m-.321 19.639c4.992.322 5.633-7.244.967-11.43m10.462 18.352c4.188-.966 2.896-10.142-7.246-10.947m19.963 17.709c4.025-1.127.804-11.269-10.3-10.625m25.596 14.166c2.733-4.185-6.279-11.268-13.683-7.566m21.245 13.361c4.992 1.449 8.371-11.751-7.404-9.659m16.579 9.659c4.35-1.127 7.408-9.015-5.308-6.439m14.971 7.083c3.863 1.932 5.633-9.337-6.121-6.278m-58.754-28.815c4.829 2.737 12.396-.483 11.75-6.6m-1.933 5.312c1.613 2.898.967 8.532-2.092 9.98m2.575-3.219c3.221 1.288 7.567.161 10.142-4.99m-4.505 4.99c.962 2.254 1.288 6.761-.808 9.015m1.613-5.151c3.542 1.932 7.725-.644 9.496-4.347m-2.255 3.22c2.575 1.61 4.829 9.176.483 12.235m2.417-3.542c3.058.161 7.567.161 10.463-3.703m-2.092 2.093c2.737.805 5.954 5.313 4.829 9.337m.159-1.449c3.063-.322 8.371-2.415 9.821-6.118m-1.451 2.415c2.579 1.449 4.35 4.507 4.025 8.049m0-2.576c3.058-.161 5.796-1.77 6.6-5.151m-.804 2.254c2.254.805 4.992 3.38 5.154 6.439m-.325-1.932c2.254-.322 3.863-1.771 5.313-4.025m6.117-.321c2.9 2.898-.963 12.557-6.921 10.786m-54.892-205.892c-5.958 3.541-22.863 2.415-14.492-11.59m16.1 2.092c-11.75 4.668-26.242-4.346-11.108-14.166m-4.025-3.22c-9.821 0-16.421 15.776-3.217 21.249m-34.933-14.648c-2.575 4.99 6.6 10.463 12.879 5.473 4.863-3.866 4.504-14.327 1.608-18.352m-19.479 24.791c-3.221 10.624 20.446 11.268 16.742-5.635m-18.029 21.411c.804 8.049 22.7 5.473 15.613-10.786m2.578-4.507c1.771 2.415 6.6 6.6 14.808 5.795m-10.945-17.224c.725 2.898 5.633 5.151 11.913 2.979m-231.569 241.948c-5.553 3.946 2.979 10.142 6.117 3.3m-10.464-.237c-5.553 3.942 2.979 10.138 6.118 3.296m-10.705-.321c-5.555 3.946 2.978 10.142 6.117 3.3m-10.946-.563c-5.313 2.817.885 9.738 6.278 3.621m-11.511-.962c-5.313 2.813.886 9.738 6.278 3.621m20.687-11.913c-.081 4.104 7.727 5.796 10.543-.325m-5.634 4.108c-2.415 3.058 2.013 6.842 4.428 5.471m-14.81-6.037c-.242 3.463 6.519 5.475 9.82 1.692m-6.118 1.933c-2.174 2.817 2.093 6.6 4.829 5.471m-13.039-5.955c.241 2.738 4.104 5.875 8.29 4.104m-5.795-.404c-1.61 1.45-.805 4.833 1.449 5.879m-9.82-6.12c-.644 2.496 3.623 6.925 7.969 4.025m-7.083-1.125c-2.575 2.012-2.254 5.071 1.046 5.471m-7.245-5.792c-.322 1.688 1.852 4.425 4.589 4.104m-18.351-4.267c-2.575 1.367 4.025 8.371 8.129 1.85m-14.489 1.046c-3.22 1.533 4.749 9.258 8.291 1.371m12.556-1.692c-2.496.563-4.105 4.188-2.013 5.633m-6.117-4.345c-.322 1.45 2.737 3.863 5.233 2.979m-7.325-2.333c-2.415 1.529-1.127 5.792 1.691 5.15m-10.303-2.334c-2.254 1.688-.725 5.071 2.415 4.267m1.689-4.508c.081.883 2.093 2.254 3.784 1.692m-15.696-3.142c-2.816 1.208-2.655 8.292 6.843 4.429m-13.201-1.613c-3.945 1.933-2.657 7.246 5.956 2.175m.724.405c-1.046.804-2.172 4.346 1.771 2.975m-9.015-1.288c-1.61 1.45-.563 4.429 2.979 3.3m-11.269-2.817c-2.898 1.692 3.46 3.946 7.727-.563m-5.795 2.655c-1.288 1.287-1.288 5.071 2.093 3.704m-10.303-2.175c-1.932 1.45 1.368 3.383 7.405.725m-4.99 1.371c-2.254 1.85-2.013 4.183 1.287 3.458m-7.968-2.412c-2.495 2.254 1.127 3.783 5.473 1.929m-5.392.567c-4.267 1.929-2.415 5.471.241 4.104m142.224 8.208c-.989 2.129 2.254 3.863 5.313 3.379 2.938-.463 5.748-2.883 3.541-6.275m.162 4.184c2.897 2.254 8.049-.321 8.049-3.704"/><path d="M545.975 128.832c-12.879-6.439-39.6-18.352-47.167-8.693 6.921-2.897 27.204.161 43.946 15.615l3.221-6.922zm7.808-.682c-14.892-17.347-23.663-13.464-34.371-19.439-10.058-5.614-26.079-6.761-29.183 2.167 14.696-7.158 28.188 3.849 36.475 5.18 11.383 1.828 17.808 10.628 21.138 14.675l5.942-2.583zm56.1-2.215c-7.729-17.708-24.254-13.083-31.554-20.605-10.621-10.946-37.504-21.088-48.613-13.522 24.467-1.288 34.888 16.865 47.971 23.181 9.338 4.507 19.317 14.166 32.196 10.947zm-28.975-1.932c-13.2-16.42-33.488-30.908-42.821-25.435 12.233.644 16.096 9.176 24.792 14.649 8.692 5.473 4.829 13.361 18.029 10.786zm-62.783 28.976c-13.846-5.151-40.888-7.727-53.446 8.049 20.929 3.541 52.479 1.61 53.446-8.049zm-2.575 6.118c-13.846-6.439-24.658 2.555-37.671 1.288-24.788-2.415-42.496-.966-44.75 10.947 14.167-12.717 37.992-2.254 47.65-4.829 9.658-2.576 45.396-.322 56.663 4.507-5.796-7.083-14.808-9.015-21.892-11.912zm43.462-36.865c-3.217-10.625-3.058-21.893 12.879-21.088-4.025-4.99-18.833-7.566-21.25 11.108-17.546-12.878-36.704-15.132-40.242-4.024 9.013-7.727 23.017-2.093 39.758 16.903 1.45-.805 5.313-2.415 8.854-2.897zm-24.146 14.649c-9.979-6.439-23.504-16.903.163-21.088-10.142-5.473-24.954-3.059-23.342 15.615-27.046-10.947-46.467-7.252-50.55 3.541-4.508 11.913 12.238 18.513 15.133 10.947-3.058 1.288-13.521-2.254-8.05-9.015 5.475-6.761 33.525-1.685 60.208 12.235 7.404 3.863 32.838 3.22 6.438-12.235zm-7.083 17.708c-7.7-15.722-32.679-1.449-37.713-16.678-6.879 22.312 35.521 9.966 37.713 16.678zm158.888 17.064c5.238 2.602 9.767-1.489 1.754-4.698 5.242 2.601 9.813-1.392 1.8-4.603 5.242 2.601 9.813-1.392 1.8-4.603-2.138 2.152-5.196 10.04-5.354 13.903zm2.733-30.264c11.592-12.234-.962-16.42 13.2-28.976 11.592-10.273 2.212-17.12 13.204-25.113 3.542-2.575 11.267-7.727 11.913-12.878 4.667 11.59-14.492 13.2-13.204 31.874.821 11.89-7.217 10.851-10.3 30.908-.646 4.185-3.542 13.522-14.813 4.185zm5.154 5.473c6.438-13.844 13.829-13.578 17.383-18.995 6.763-10.303 21.088 1.771 33.163-7.405-2.092 13.039-18.35 8.371-25.433 16.742-7.083 8.371-12.879 12.235-25.113 9.659zm1.609 4.508c11.271-9.015 19.575-3.001 27.367-7.727 19.638-11.913 27.529 2.415 45.075-3.22-4.671 11.268-30.588 1.61-41.854 9.981-11.271 8.371-50.871 16.42-30.588.966zm-32.838 64.23c-.163-5.151-4.992-11.752-11.754-12.556-6.758-.805-9.658-7.888-14.808-8.21-5.15-.322-8.533-10.625-15.617-10.464-7.083.161-9.979 9.337 6.6 17.708 16.583 8.371 34.933 18.03 35.579 13.523zm-20.929 4.346c-7.083.322-8.05 10.625-14.808 10.947 9.333 4.99 16.096-2.254 20.925-8.693l-6.117-2.254zm5.796 1.288c-6.117 5.151-7.888 15.937.967 18.995-5.313-7.325 9.338-10.625 4.829-17.386l-5.796-1.61zm6.116.322c-4.829 9.337 7.567 10.463 4.346 17.547 7.083-1.61 8.213-14.971 1.771-18.513l-6.117.966zm-47.329-19.961c11.592-.644 22.192 5.627 29.3 15.776 4.508 6.439 19.638 9.015 24.792 3.863 5.15-5.151 2.254-16.098-10.625-12.556-3.221-5.473-12.558-3.542-17.063-8.049-4.508-4.507-21.896-17.385-26.404.966zm43.467 7.083c-3.058.644-4.025 5.956-2.096 8.693m8.696-5.473c.967 1.61.321 3.863-.163 4.99m-31.55-14.81c5.954.322 7.083 4.669 13.521 6.278m-17.454-20.927c20.571 5.151 36.892 9.659 47.013 15.454 10.121 5.795 25.792 7.405 39.504 3.542 13.713-3.863 40.154-7.405 38.85 9.659 7.188-8.532-1.958-17.708-20.242-19.318.329-8.371-8.629-15.937-15.071-10.947 5.958-.805 11.1 10.303-.65 14.81 2.283-8.371-6.042-15.937-14.692-12.234 5.55 1.61 11.163 10.917-1.254 14.488-7.838 2.254-19.263-.644-27.75-5.795-8.488-5.152-56.154-23.825-45.708-9.659zm51.904-8.371c-6.438 2.898-2.254 9.659-12.233 13.522-9.983 3.863-16.904 12.717-14.65 20.283 6.763-14.81 18.675-14.166 22.858-19.961 4.188-5.795 10.304-14.327 4.025-13.844zm1.771.966c-.321 11.751-9.571 7.47-5.958 23.986 1.129 5.151 3.221 13.522-.321 21.893 10.383-7.566 3.704-23.46 8.371-29.459 2.254-2.897 5.15-7.405 6.279-11.268-2.417 6.761-2.254 19.318 4.346 22.537-5.313-12.557 14.329-22.859.804-37.347-1.929 3.542-8.05 9.82-13.521 9.659zm-32.842-11.752c1.612 2.415 3.221 8.532 1.771 11.913 3.221-1.932 7.892-6.922 9.338-10.303 6.6.966 9.175 9.176 2.9 12.717 3.863 0 10.463 0 14.163-4.346-4.504-4.99-18.508-12.718-28.171-9.981zm-100.129-23.096c-1.042-.949-2.8-1.852-5.954-2.5-9.746-1.999-4.713-10.784 3.583-10.706 17.704-19.317 27.646-4.426 49.217-10.543 7.55-2.14 12.733-1.508 16.846.272 9.658-6.439 20.988-4.64 29.2 2.926.913-1.452 2.138-2.559 3.858-3.037 7.563-2.1 13.679 4.348 15.771 12.719 5.896-1.092 12.629 1.826 17.058 5.85 6.133-3.15 10.358-3.29 11.913-.051 5.475-2.576 12.567-4.191 16.108 4.502 3.542 8.693-8.371 6.117-10.304 24.469-1.192 11.321-13.842 15.776-23.825 9.015-15.967-10.817-31.55-12.557-39.279 3.863-7.725 16.42-13.779 25.96-32.517 20.605-6.758-1.932-15.454.644-20.925 8.049-5.475 7.405-13.846.483-23.825 1.288 12.554-1.932 7.746-5.09 18.675-5.795 9.979-.644 7.404-9.98 13.842-11.268-25.113 6.439-24.146-2.898-44.75 3.541 9.013-11.59 23.179-5.151 30.263-11.912-18.675-.322-27.025-12.522-35.417-7.405-13.2 8.049-7.408 30.965-41.854 28.976-16.742-.966-27.367 1.288-37.346 11.269 17.388-36.059 41.038-16.249 52.479-27.688 6.763-6.761 11.913-11.913 15.454-18.352 1.246-2.267 2.933-3.562 5.042-4.063-28.654-9.015-11.325-23.058 16.688-24.023zm141.483-5.066c.438.905.663 2.08.663 3.532 0 7.083-10.625 7.405-11.267 17.869-.337 5.473-.967 8.532-4.671 7.888-3.7-.644-6.921-6.439-3.379-13.2m-117.516-21.571c-2.667-1.874-5.333-2.635-7.725-2.657m66.045-10.323c8.525 3.691 12.683 12.546 25.067 12.98 11.921.418 19.321 17.708 39.279 6.439.542-.305 1.071-.59 1.583-.854m-36.67-15.588c-1.779 2.829-2.183 6.778-1.696 10.244m-37.267 26.159c-15.129 0-18.996 7.727-18.996 15.132 0 7.405 7.083 17.064 19.642 17.064 12.554 0 19.317-7.727 19.317-16.098 0-8.371-7.729-16.098-19.963-16.098zm2.738 31.874c-.321-4.185-7.888-3.542-7.567-6.761.321-3.22 4.188-4.507 4.188-9.015 0-4.508 6.758-4.83 9.013-1.288 2.254 3.541 9.017 10.463 10.467 6.922m-10.468-6.922c-3.542 3.541-5.15 10.785-.483 16.42m5.312-10.946c-1.125 2.415-1.446 6.117-.158 8.371" fill="#fff"/><path d="M669.362 169.48c11.833.966 13.846-12.074 4.992-12.878m-19.558-22.296c-4.104-5.231-13.521-7.002-13.683 4.105"/><path d="M639.987 151.047c-4.025-9.981-14.329-11.43-19.804-6.439-4.554 4.153-4.667 14.971 5.154 17.225 3.379-4.024 9.979-9.337 14.65-10.785zm-4.429-6.277c-5.796-5.152-14.329 4.588-6.6 13.522" fill="#fff"/><path d="M654.796 134.306c-3.542-3.783-11.267-.805-9.096 6.842 1.692-3.541 5.313-6.52 9.096-6.842zm-21.884 20.623c2.438-1.77 4.954-3.223 7.075-3.882-1.158-2.864-2.829-5.026-4.758-6.535-1.842-1.272-7.133 5.844-2.317 10.416z" fill="#000" stroke="none"/><path d="M623.404 141.872c-5.796-3.863-11.108-3.541-12.879-.322-4.183-.161-7.646 2.898-7.808 9.015m8.937 2.575c-6.921-4.748-16.421-2.977-15.775 7.647m-4.188 6.036c3.379-2.737 8.208-4.668 11.913.161m39.762-10.624c-1.287 1.77-2.254 4.507-.162 8.693-2.575-3.381-9.013-3.381-15.938 5.634m31.392-14.81c-8.371.966-8.208 6.439-1.45 8.854m-58.112-29.299c-7.083-1.449-12.233 2.737-2.413 6.278m15.938-11.107c-9.983-2.415-14.008.161-9.5 2.415m-19.317 37.669c-.321 3.542 1.608 8.21 7.404 2.898m-5.471 7.727c0 .966-.162 2.093-.808 2.898m-22.375-50.065c-6.117-1.771-7.242-7.405-.158-6.922m-1.934 19.961c-6.763-2.254-6.763-8.854-1.129-8.21m13.683 4.83c-7.888-1.932-8.208-7.405-2.25-6.6m3.217-10.142c-4.183-.322-10.625 4.347.163 7.083m11.591 2.253c-9.821-1.449-9.658 2.576-3.867 5.152m11.271-14.488c-7.567-1.449-10.142 3.059-4.992 4.99m-18.833 22.859c-1.854-1.529-3.379-8.854 5.471-6.68m12.879 4.426c-5.954-1.61-11.588 4.185-6.117 7.566m14.005-14.488c-6.275-1.127-11.588.644-8.208 2.898"/><path d="M525.312 169.161c3.879-.921 9.55.977 18.246 5.068 5.475 2.576 21.896 8.049 32.196 2.576-10.625 3.863-18.671-12.235-26.721-10.303-8.05 1.932-22.779 4.91-28.975-.966 15.129.966 23.267-11.021 40.563-.644 4.833 2.898 10.95 4.83 16.421 4.508-14.163-17.064-32.838-6.118-34.771-19.961 8.533 9.176 29.379-2.093 40.004 15.132m72.187-30.263c-3.538.655-6.708 2.734-8.763 6.84m-100.366 10.858c-1.992-2.479-1.092-4.95-3.229-6.905" fill="#fff"/></g></svg>