<svg xmlns="http://www.w3.org/2000/svg" width="600" height="300" version="1"><g fill-rule="evenodd"><path fill="#008000" d="M0 0h600v300h-600z"/><path d="M119.531 62.039a46.123 46.123 0 1 1-92.247 0 46.123 46.123 0 1 1 92.247 0z" transform="matrix(1.415 0 0 1.415 -1.115 -.303)" fill="#ffe000"/><path d="M98.458 136.872h16.349s.738-1.499-.165-2.248c-.903-.749-4.418-.914-3.469-3.565 1.953-5.45 2.225-3.769 3.451-16.712l1.817-33.243h-2.362s.454 6.313-.908 14.533c-1.362 8.22-1.771 8.947-3.27 15.259-1.499 6.313-1.726 6.858-3.088 10.536-1.362 3.679-1.499 3.86-3.633 7.266s-1.362 2.134-2.543 4.178c-.59 1.022-1.317.749-1.714 1.493-.397.744-.465 2.503-.465 2.503z" fill="#802000" stroke="#7b3100" stroke-width="1.389"/><path d="M450 228.571l4.132 12.848 12.621-4.78-7.469 11.241 11.606 6.888-13.445 1.17 1.852 13.368-9.297-9.782-9.297 9.782 1.852-13.368-13.445-1.17 11.606-6.888-7.469-11.241 12.621 4.78 4.132-12.848zm0-200l4.132 12.848 12.621-4.78-7.469 11.241 11.606 6.888-13.445 1.17 1.852 13.369-9.297-9.783-9.297 9.783 1.852-13.369-13.445-1.17 11.606-6.888-7.469-11.241 12.621 4.78 4.132-12.848zm-75 81.25l4.132 12.848 12.621-4.78-7.469 11.242 11.606 6.888-13.445 1.169 1.852 13.369-9.297-9.782-9.297 9.782 1.852-13.369-13.445-1.169 11.606-6.888-7.469-11.242 12.621 4.78 4.132-12.848zm141.665-20l4.135 12.848 12.62-4.78-7.47 11.242 11.61 6.888-13.445 1.169 1.85 13.369-9.3-9.782-9.295 9.782 1.85-13.369-13.444-1.169 11.604-6.888-7.467-11.242 12.622 4.78 4.13-12.848zm-36.665 60.179l3.265 8.005 8.623.632-6.604 5.58 2.064 8.395-7.347-4.557-7.347 4.557 2.064-8.395-6.604-5.58 8.623-.632 3.265-8.005z" font-size="12" fill="#ffe000"/><path d="M300 87.5c-34.5 0-62.5 28-62.5 62.5s28 62.5 62.5 62.5c16.175 0 30.782-6.313 41.884-16.406-.818.399-1.546.946-2.387 1.302-3.076 1.302-6.289 2.309-9.635 2.995-3.347.685-6.825 1.042-10.373 1.042-3.549 0-7.026-.356-10.373-1.042-3.347-.685-6.559-1.693-9.635-2.995-3.076-1.302-5.988-2.925-8.724-4.774-2.736-1.849-5.312-3.923-7.639-6.25s-4.444-4.903-6.293-7.639c-1.849-2.736-3.429-5.648-4.731-8.724-1.302-3.076-2.309-6.289-2.995-9.635-.685-3.347-1.042-6.825-1.042-10.373 0-3.549.356-7.026 1.042-10.373.685-3.347 1.693-6.559 2.995-9.635 1.302-3.076 2.882-5.988 4.731-8.724 1.849-2.736 3.966-5.312 6.293-7.639s4.903-4.401 7.639-6.25c2.736-1.849 5.648-3.473 8.724-4.774 3.076-1.302 6.289-2.309 9.635-2.995 3.347-.685 6.825-1.042 10.373-1.042 3.549 0 7.026.356 10.373 1.042 3.347.685 6.559 1.693 9.635 2.995.841.356 1.57.903 2.387 1.302-11.102-10.094-25.709-16.406-41.884-16.406z" fill="#ffe000"/><path d="M110.938 39.8c.136 2.539-.119 5.901-1.172 8.637-1.067 3.049-2.228 6.087-2.17 9.245-1.697.577-3.445-3.671-5.078-1.172 1.228 3.453 4.062 6.188 6.004 9.299.328.965 3.121 3.483 1.505 4.069-4.08-1.396-5.069-6.566-7.6-9.706-2.939-5.283-8.419-9.017-14.524-9.275-2.293.06-9.749-.568-7.809 3.358 2.857 1.942 6.377 3.209 9.198 5.389 2.102.197 5.911 3.705 5.689 5.031-3.697-1.497-5.427-3.292-9.409-4.867-5.396-2.084-12.86-.831-15.848 4.525-.557 1.395-1.379 5.46.372 5.847 2.047-3.196 4.974-6.768 9.312-5.81 3.407.266-3.802 6.348-1.044 5.124.874-.388 2.892-1.712 4.292-1.851 1.4-.138 2.182.91 3.244 1.055 2.124.29 2.709 1.181 2.512 1.699-.232.611-.907.089-3.067.774-1.08.342-1.644 1.291-2.903 1.726-1.259.434-3.879.465-4.858.08-3.425-1.488-9.041-1.229-10.109 3.064-.001 1.888-1.681-.209-2.457.607-.582 2.06-.733 4.175-3.788 3.987-1.854 1.945-3.754 3.96-6.108 5.344 1.382 3.172 6.857-3.185 6.601-.505-2.393 3.264 1.231 3.951 2.818 1.438 2.684-2.836 6.008-6.287 10.013-3.43 1.907 1.796 3.016-.949 4.396-.802.87 2.231 1.964.11 2.951-.521 1.616-.201 1.161 2.018 3.082.651 3.827-2.533 8.535-.405 12.274-2.869 3.979-1.813.559 1.46-.54 2.74-1.748 3.391-.232 7.843-4.025 9.949-1.523 4.041 1.8 9.369-1.59 12.359-.493 1.875 4.359 1.66 5.721 2.43 2.386.094-.103-5.462 2.265-6.207 3.175 1.965 3.027-3.515 2.371-5.205.308-3.842.525-8.044 2.434-11.524 2.03-4.266 3.909 1.737 1.636 3.426-1.291 3.922-3.17 8.831-.235 12.479.846.189 1.54 2.24 2.636 2.87 1.095.63 2.591-.16 2.864-2.025 1.405-5.617.697-11.658 2.703-17.121 1.416-1.692 3.369-.273 4.247 1.283 2.811 3.264 4.787 7.344 8.191 10.033 3.099 1.45 5.84 3.644 7.268 6.834-.019 2.462 6.991 2.839 4.896.103-2.01-2.664-.684-5.328 1.352-7.099 1.09.269.768-1.684-.087-.911-1.369-.323-1.456-2.828.446-1.637 3.204 1.034-.25-2.319-1.408-2.422-2.71-1.679-5.823-3.612-7.154-6.531 3.527.036 7.188 1.938 10.793.758 2.889-1.484 5.82.124 6.829 2.67 2.233-.356 1.281-2.596 0-3.342 1.634-.674 2.763-2.072.783-3.304-1.046-1.365 1.403-3.694-1.607-3.597.098-2.299-.807-4.403-3.313-5.198-2.511-2.126-9.878 3.132-9.664-1.66-.742-2.608 2.993-.348 4.036-1.649 1.078-2.75-5.139-2.481-3.088-4.613 1.34-.863 7.628-2.102 2.697-3.025-2.461.676-4.573.176-6.51-1.042-1.765 2.953-6.806-1.603-5.908 3.646-.69 1.978-5.195 7.117-6.414 3.18 1.037-3.086 6.375-4.095 4.72-8.256-.254-2.597-2.408.452-3.422.258-.514-1.617 1.554-3.522 2.995-3.906 2.859 2.199 2.946-2.775 5.665-2.37 1.985-.441-.641-1.293-1.195-1.666.544-1.453 3.592-2.196.603-3.458-2.637-1.957-4.592 1.948-6.767 2.156-2.088-2.357 1.895-3.49 2.995-4.731.059-.925-2.322-.279-1.606-1.085.622-1.112 4.839-1.195 2.865-2.865-2.974-1.021-6.812-.766-9.665.556-1.798.582-2.327 4.647-3.876 4.478-.729-1.809.237-5.379-2.257-5.903zm14.063 39.714c2.266-.384.048 3.442-1.042 3.385.096-1.375-3.278-1.242-1.184-2.44.679-.438 1.435-.773 2.226-.946z" fill="#008000"/></g></svg>