<svg xmlns="http://www.w3.org/2000/svg" version="1" width="500" height="300"><path fill="#002b7f" d="M0 0h500v300h-500z"/><path fill="#fff" d="M0 50h500v200h-500z"/><path fill="#ce1126" d="M0 100h500v100h-500z"/><path d="M187.5 150c0 24.162-16.789 43.75-37.5 43.75s-37.5-19.588-37.5-43.75 16.789-43.75 37.5-43.75 37.5 19.588 37.5 43.75z" fill="#fff"/><path d="M150.007 122.634c1.618 2.033 4.824 6.457 10.079 5.507 1.782.384 3.073.859 4.216 1.497.801-.118 1.603.239 1.885 1.011.223.623-.475 1.246-1.173 1.098.624 1.68 6.294.935 8.565 4.245-.683-.22-1.351-.475-2.019-.445l.431 1.307c1.098.312 1.855.49 2.33 1.706.46 1.205 1.143 3.044 1.618 3.948.312.403.386.847.386 1.083 0 .521-.356 1.246-1.232 1.246-.861 0-1.307-.547-1.307-1.098l-.534-.859c-.683.072-1.484.327-2.138.802-1.247.904-1.559 2.687-.831 4.169.698 1.44 2.509 2.273 5.225 1.205 2.197-.863 4.409.266 5.136 2.227 3.31 8.934-2.464 16.193-9.026 20.441-6.829 4.408-8.031 5.609-9.872 7.764-1.826 2.151-3.622 4.613-6.294 4.613-.401 0-.817-.103-1.173-.312-1.722 0-1.782.669-4.275.669-2.479 0-2.539-.669-4.275-.669-.356.194-.757.312-1.173.312-2.672 0-4.453-2.463-6.294-4.613-1.826-2.155-3.043-3.356-9.872-7.764-6.561-4.233-12.351-11.492-9.04-20.441.727-1.961 2.939-3.09 5.136-2.227 2.702 1.053 4.512.22 5.225-1.205.727-1.467.415-3.249-.831-4.169-.638-.475-1.44-.73-2.138-.802l-.534.859c0 .551-.431 1.098-1.307 1.098-.861 0-1.232-.726-1.232-1.246 0-.22.074-.665.386-1.083.475-.904 1.158-2.744 1.633-3.948.46-1.201 1.232-1.379 2.33-1.706l.431-1.307c-.653-.015-1.336.209-2.019.445 2.256-3.295 7.927-2.565 8.565-4.245-.698.148-1.395-.475-1.173-1.098.267-.771 1.083-1.144 1.885-1.011 1.143-.623 2.434-1.113 4.216-1.497 5.255.935 8.462-3.458 10.08-5.507" fill="#ffea4f"/><path d="M150.007 122.634c1.618 2.033 4.824 6.457 10.079 5.507 1.782.384 3.073.859 4.216 1.497.801-.118 1.603.239 1.885 1.011.223.623-.475 1.246-1.173 1.098.624 1.68 6.294.935 8.565 4.245-.683-.22-1.351-.475-2.019-.445l.431 1.307c1.098.312 1.855.49 2.33 1.706.46 1.205 1.143 3.044 1.618 3.948.312.403.386.847.386 1.083 0 .521-.356 1.246-1.232 1.246-.861 0-1.307-.547-1.307-1.098l-.534-.859c-.683.072-1.484.327-2.138.802-1.247.904-1.559 2.687-.831 4.169.698 1.44 2.509 2.273 5.225 1.205 2.197-.863 4.409.266 5.136 2.227 3.31 8.934-2.464 16.193-9.026 20.441-6.829 4.408-8.031 5.609-9.872 7.764-1.826 2.151-3.622 4.613-6.294 4.613-.401 0-.817-.103-1.173-.312-1.722 0-1.782.669-4.275.669-2.479 0-2.539-.669-4.275-.669-.356.194-.757.312-1.173.312-2.672 0-4.453-2.463-6.294-4.613-1.826-2.155-3.043-3.356-9.872-7.764-6.561-4.233-12.351-11.492-9.04-20.441.727-1.961 2.939-3.09 5.136-2.227 2.702 1.053 4.512.22 5.225-1.205.727-1.467.415-3.249-.831-4.169-.638-.475-1.44-.73-2.138-.802l-.534.859c0 .551-.431 1.098-1.307 1.098-.861 0-1.232-.726-1.232-1.246 0-.22.074-.665.386-1.083.475-.904 1.158-2.744 1.633-3.948.46-1.201 1.232-1.379 2.33-1.706l.431-1.307c-.653-.015-1.336.209-2.019.445 2.256-3.295 7.927-2.565 8.565-4.245-.698.148-1.395-.475-1.173-1.098.267-.771 1.083-1.144 1.885-1.011 1.143-.623 2.434-1.113 4.216-1.497 5.255.935 8.462-3.458 10.08-5.507z" stroke="#000" stroke-width=".475" fill="none"/><path d="M148.73 178.33c-1.811-2.584-5.582-1.307-12.485-5.343-7.051-4.142-9.352-13.597-6.19-19.966 2.167-4.382 3.459-7.201 1.024-13.954-.282-.935-2.88-1.068-1.173 1.231 2.464 3.295 3.117 8.805-.415 10.971-1.366.832-2.835 1.246-4.35 1.159-1.618-.106-2.984.251-3.251 2.36-1.143 9.352 6.606 18.123 14.073 19.651 2.434.479 8.907 2.064 10.629 4.233.534-.148 1.648-.327 2.167-.357"/><path d="M148.73 178.33c-1.811-2.584-5.582-1.307-12.485-5.343-7.051-4.142-9.352-13.597-6.19-19.966 2.167-4.382 3.459-7.201 1.024-13.954-.282-.935-2.88-1.068-1.173 1.231 2.464 3.295 3.117 8.805-.415 10.971-1.366.832-2.835 1.246-4.35 1.159-1.618-.106-2.984.251-3.251 2.36-1.143 9.352 6.606 18.123 14.073 19.651 2.434.479 8.907 2.064 10.629 4.233.534-.148 1.648-.327 2.167-.357l-.03.015z" stroke="#000" stroke-width=".475" fill="none"/><path d="M151.283 178.33c1.811-2.584 5.582-1.307 12.485-5.343 7.051-4.142 9.352-13.597 6.19-19.966-2.167-4.382-3.459-7.201-1.024-13.954.282-.935 2.88-1.068 1.173 1.231-2.464 3.295-3.103 8.805.415 10.971 1.351.832 2.835 1.246 4.35 1.159 1.618-.106 2.998.251 3.251 2.36 1.143 9.352-6.606 18.123-14.073 19.651-2.42.479-8.907 2.064-10.614 4.233-.534-.148-1.648-.327-2.167-.357"/><path d="M151.283 178.33c1.811-2.584 5.582-1.307 12.485-5.343 7.051-4.142 9.352-13.597 6.19-19.966-2.167-4.382-3.459-7.201-1.024-13.954.282-.935 2.88-1.068 1.173 1.231-2.464 3.295-3.103 8.805.415 10.971 1.351.832 2.835 1.246 4.35 1.159 1.618-.106 2.998.251 3.251 2.36 1.143 9.352-6.606 18.123-14.073 19.651-2.42.479-8.907 2.064-10.614 4.233-.534-.148-1.648-.327-2.167-.357l.015.015zm-15.601-48.677c.905.133 1.663 1.246.89 2.569-1.41 2.39-6.146.802-8.402 2.227m6.814-2.687c.549-.133 1.128-1.068.445-1.486m-.505 43.912c4.721 3.356 5.404 7.718 10.288 7.927m.059.684c-2.88.623-4.765-.95-7.037-4.366-1.158-1.722-4.201-4.142-9.396-7.407-8.165-5.123-10.584-14.057-7.927-18.956.653-1.205 2.331-1.68 3.296-1.41 2.509.68 6.725 0 6.74-4.085.015-2.299-1.856-4.986-4.275-4.986-1.47 0-2.257.49-2.642 1.011m.756.487c.49-.471 1.381.046 1.381.699m-.55-.787c.267-.072.653-.087 1.084-.046m18.214 38.11c0-.224.193-.46.475-.46s.534.251.534.562c0 .684-.386 1.053-1.202.889-.668-.133-.965-.859-.683-1.588.282-.741 1.232-1.201 2.256-.741 1.025.475.906 2.048.55 2.941-.208.517-.624.95-1.128 1.231m18.615-54.244c-.92.133-1.663 1.246-.89 2.569 1.41 2.39 6.145.802 8.402 2.227m-6.815-2.687c-.549-.133-1.128-1.068-.445-1.486m.505 43.912c-4.72 3.356-5.403 7.718-10.302 7.927m-.045.684c2.88.623 4.765-.95 7.036-4.366 1.143-1.722 4.201-4.142 9.397-7.407 8.164-5.123 10.584-14.057 7.927-18.956-.653-1.205-2.33-1.68-3.295-1.41-2.509.68-6.725 0-6.74-4.085-.015-2.299 1.856-4.986 4.275-4.986 1.47 0 2.257.49 2.642 1.011m-.756.487c-.49-.471-1.381.046-1.381.699m-17.769 37.17c0-2.033-3.429-2.672-6.056-2.672-2.613 0-6.056.638-6.056 2.672m30.431-37.957c-.268-.072-.668-.087-1.084-.046m-18.215 38.11c0-.224-.193-.46-.475-.46s-.534.251-.534.562c0 .684.386 1.053 1.202.889.668-.133.965-.859.683-1.588-.282-.741-1.232-1.201-2.256-.741-1.025.475-.906 2.048-.55 2.941.208.517.624.95 1.128 1.231m-.949-.892c-1.381 0-1.336 1.562-3.34 1.562-1.989 0-1.945-1.562-3.325-1.562" stroke="#000" stroke-width=".475" fill="none"/><path d="M150.007 180.793c-.98 0-.98 1.455 0 1.455s.995-1.455 0-1.455" fill="#ffea4f"/><path d="M150.007 180.793c-.98 0-.98 1.455 0 1.455s.995-1.455 0-1.455z" stroke="#000" stroke-width=".238" fill="none"/><path d="M151.773 181.063c-.608 0-.608.904 0 .904.609 0 .624-.904 0-.904" fill="#ffea4f"/><path d="M151.773 181.063c-.608 0-.608.904 0 .904.609 0 .624-.904 0-.904z" stroke="#000" stroke-width=".238" fill="none"/><path d="M150.467 183.305c0-.612-.906-.612-.906 0 0 .608.906.608.906 0" fill="#ffea4f"/><path d="M150.467 183.305c0-.612-.906-.612-.906 0 0 .608.906.608.906 0z" stroke="#000" stroke-width=".238" fill="none"/><path d="M148.24 181.998c.608 0 .608-.908 0-.908-.609 0-.624.908 0 .908" fill="#ffea4f"/><path d="M148.24 181.998c.608 0 .608-.908 0-.908-.609 0-.624.908 0 .908z" stroke="#000" stroke-width=".238" fill="none"/><path d="M149.546 179.755c0 .608.906.608.906 0s-.906-.608-.906 0" fill="#ffea4f"/><path d="M149.546 179.755c0 .608.906.608.906 0s-.906-.608-.906 0z" stroke="#000" stroke-width=".238" fill="none"/><path d="M147.825 131.926c1.247-.802 2.791-2.151 3.355-3.044.772-1.246.876-.638 1.47-.741-1.395 1.528-3.132 3.162-4.364 4.024l-.46-.239" fill="#66ff35"/><path d="M147.825 131.926c1.247-.802 2.791-2.151 3.355-3.044.772-1.246.876-.638 1.47-.741-1.395 1.528-3.132 3.162-4.364 4.024l-.46-.239" stroke="#000" stroke-width=".19" fill="none"/><path d="M137.389 134.924c-3.117-1.767-4.305.076-5.032.163.861.209 1.588 1.588 5.032-.163" fill="#66ff35"/><path d="M137.389 134.924c-3.117-1.767-4.305.076-5.032.163.861.209 1.588 1.588 5.032-.163z" stroke="#000" stroke-width=".19" fill="none"/><path d="M138.784 133.902c-2.969-2.007-4.29-.255-5.033-.209.846.266 1.47 1.706 5.033.209" fill="#66ff35"/><path d="M138.784 133.902c-2.969-2.007-4.29-.255-5.033-.209.846.266 1.47 1.706 5.033.209z" stroke="#000" stroke-width=".19" fill="none"/><path d="M140.907 132.712c-2.925-2.064-4.29-.342-5.033-.312.846.296 1.425 1.722 5.033.312" fill="#66ff35"/><path d="M140.907 132.712c-2.925-2.064-4.29-.342-5.033-.312.846.296 1.425 1.722 5.033.312z" stroke="#000" stroke-width=".19" fill="none"/><path d="M142.658 131.66c-2.687-2.375-4.231-.802-4.958-.863.801.388 1.232 1.87 4.958.863" fill="#66ff35"/><path d="M142.658 131.66c-2.687-2.375-4.231-.802-4.958-.863.801.388 1.232 1.87 4.958.863z" stroke="#000" stroke-width=".19" fill="none"/><path d="M144.9 130.888c-2.568-2.512-4.186-1.011-4.913-1.113.787.414 1.143 1.942 4.913 1.113" fill="#66ff35"/><path d="M144.9 130.888c-2.568-2.512-4.186-1.011-4.913-1.113.787.414 1.143 1.942 4.913 1.113z" stroke="#000" stroke-width=".19" fill="none"/><path d="M147.245 130.634c-2.123-2.881-3.963-1.676-4.676-1.885.698.551.801 2.094 4.676 1.885" fill="#66ff35"/><path d="M147.245 130.634c-2.123-2.881-3.963-1.676-4.676-1.885.698.551.801 2.094 4.676 1.885z" stroke="#000" stroke-width=".19" fill="none"/><path d="M147.631 130.751c-.104-.65-1.321-1.482-1.425-1.794.312-.03.356-.403.223-.536-.104-.103-.356-.046-.49.091-.134.163-.267.547.163.874.445.327 1.01.92 1.188 1.364" fill="#66ff35"/><path d="M147.631 130.751c-.104-.65-1.321-1.482-1.425-1.794.312-.03.356-.403.223-.536-.104-.103-.356-.046-.49.091-.134.163-.267.547.163.874.445.327 1.01.92 1.188 1.364" stroke="#000" stroke-width=".19" fill="none"/><path d="M152.189 131.926c-1.247-.802-2.791-2.151-3.355-3.044-.787-1.246-.876-.638-1.484-.741 1.395 1.528 3.132 3.162 4.364 4.024l.475-.239" fill="#66ff35"/><path d="M152.189 131.926c-1.247-.802-2.791-2.151-3.355-3.044-.787-1.246-.876-.638-1.484-.741 1.395 1.528 3.132 3.162 4.364 4.024l.475-.239" stroke="#000" stroke-width=".19" fill="none"/><path d="M162.625 134.924c3.117-1.767 4.305.076 5.032.163-.861.209-1.588 1.588-5.032-.163" fill="#66ff35"/><path d="M162.625 134.924c3.117-1.767 4.305.076 5.032.163-.861.209-1.588 1.588-5.032-.163z" stroke="#000" stroke-width=".19" fill="none"/><path d="M161.229 133.902c2.969-2.007 4.29-.255 5.032-.209-.846.266-1.47 1.706-5.032.209" fill="#66ff35"/><path d="M161.229 133.902c2.969-2.007 4.29-.255 5.032-.209-.846.266-1.47 1.706-5.032.209z" stroke="#000" stroke-width=".19" fill="none"/><path d="M159.106 132.712c2.925-2.064 4.29-.342 5.017-.312-.846.296-1.425 1.722-5.017.312" fill="#66ff35"/><path d="M159.106 132.712c2.925-2.064 4.29-.342 5.017-.312-.846.296-1.425 1.722-5.017.312z" stroke="#000" stroke-width=".19" fill="none"/><path d="M157.355 131.66c2.687-2.375 4.231-.802 4.958-.863-.802.388-1.232 1.87-4.958.863" fill="#66ff35"/><path d="M157.355 131.66c2.687-2.375 4.231-.802 4.958-.863-.802.388-1.232 1.87-4.958.863z" stroke="#000" stroke-width=".19" fill="none"/><path d="M155.128 130.888c2.553-2.512 4.186-1.011 4.914-1.113-.772.414-1.128 1.942-4.914 1.113" fill="#66ff35"/><path d="M155.128 130.888c2.553-2.512 4.186-1.011 4.914-1.113-.772.414-1.128 1.942-4.914 1.113z" stroke="#000" stroke-width=".19" fill="none"/><path d="M152.768 130.634c2.123-2.881 3.963-1.676 4.676-1.885-.698.551-.801 2.094-4.676 1.885" fill="#66ff35"/><path d="M152.768 130.634c2.123-2.881 3.963-1.676 4.676-1.885-.698.551-.801 2.094-4.676 1.885z" stroke="#000" stroke-width=".19" fill="none"/><path d="M152.382 130.751c.104-.65 1.321-1.482 1.425-1.794-.326-.03-.356-.403-.223-.536.104-.103.356-.046.49.091.149.163.267.547-.163.874-.43.327-1.009.92-1.188 1.364" fill="#66ff35"/><path d="M152.382 130.751c.104-.65 1.321-1.482 1.425-1.794-.326-.03-.356-.403-.223-.536.104-.103.356-.046.49.091.149.163.267.547-.163.874-.43.327-1.009.92-1.188 1.364m-18.17 4.383c.846-.255 1.915-.133 2.657-.209m-1.276-1.037c.876-.194 1.915 0 2.672 0m-.549-1.251c.876-.16 1.915.046 2.672.046m-.891-1.41c.891-.072 1.9.255 2.642.342m-.385-1.262c.89-.03 1.885.342 2.627.475m-.149-1.159c.891.091 1.811.654 2.509.878m18.378 4.587c-.861-.255-1.915-.133-2.657-.209m1.276-1.037c-.876-.194-1.915 0-2.672 0m.549-1.251c-.876-.16-1.915.046-2.672.046m.891-1.41c-.891-.072-1.9.255-2.642.342m.386-1.262c-.891-.03-1.885.342-2.627.475m.148-1.159c-.891.091-1.811.654-2.509.878" stroke="#000" stroke-width=".19" fill="none"/><path d="M132.059 150.585c.861-2.865 1.292-6.548.074-11.34 5.359-3.458 9.129-6.62 17.858-6.62 8.714 0 12.826 2.402 17.858 6.62-1.202 4.792-.772 8.459.074 11.34h-35.894" fill="#58ffd0"/><path d="M133.054 150.585c.787-3.382 5.27-3.295 6.012 0h-6.012" fill="#ffea4f"/><path d="M133.054 150.585c.787-3.382 5.27-3.295 6.012 0h-6.012" stroke="#ffea4f" stroke-width=".475" fill="none"/><path d="M136.067 147.586v-5.241" fill="#ffea4f"/><path d="M136.067 147.586v-5.241" stroke="#ffea4f" stroke-width=".475" fill="none"/><path d="M136.988 147.704l1.559-5.833" fill="#ffea4f"/><path d="M136.988 147.704l1.559-5.833" stroke="#ffea4f" stroke-width=".475" fill="none"/><path d="M137.849 148.061l3.013-5.225" fill="#ffea4f"/><path d="M137.849 148.061l3.013-5.225" stroke="#ffea4f" stroke-width=".475" fill="none"/><path d="M138.591 148.628l3.296-3.314" fill="#ffea4f"/><path d="M138.591 148.628l3.296-3.314" stroke="#ffea4f" stroke-width=".475" fill="none"/><path d="M139.155 149.369l1.722-.996" fill="#ffea4f"/><path d="M139.155 149.369l1.722-.996" stroke="#ffea4f" stroke-width=".475" fill="none"/><path d="M135.177 147.704l-1.558-5.833" fill="#ffea4f"/><path d="M135.177 147.704l-1.558-5.833" stroke="#ffea4f" stroke-width=".475" fill="none"/><path d="M134.316 148.061l-1.425-2.478" fill="#ffea4f"/><path d="M134.316 148.061l-1.425-2.478" stroke="#ffea4f" stroke-width=".475" fill="none"/><path d="M133.574 148.628l-.861-.863" fill="#ffea4f"/><path d="M133.574 148.628l-.861-.863" stroke="#ffea4f" stroke-width=".475" fill="none"/><path d="M133.009 149.369l-.519-.296" fill="#ffea4f"/><path d="M133.009 149.369l-.519-.296" stroke="#ffea4f" stroke-width=".475" fill="none"/><path d="M132.059 150.585c-.475 1.588-1.069 2.941-1.588 4.097-1.351 3.044-1.633 10.124 3.355 15.129 7.407 7.407 13.048 4.423 15.884 8.459h.579c2.835-4.036 8.476-1.053 15.884-8.459 4.988-5.005 4.721-12.085 3.355-15.129-.505-1.144-1.113-2.508-1.588-4.097h-35.894" fill="#00a0a0"/><path d="M148.3 150.912l.059-4.572c0-.224.044-.251.044 0l.015 4.632" fill="#865800"/><path d="M148.3 150.912l.059-4.572c0-.224.044-.251.044 0l.015 4.632" stroke="#000" stroke-width=".095" fill="none"/><path d="M148.418 146.325c.149-.133.49.163.713.03-.133.445-.653.087-.713.251v-.296" fill="#fff"/><path d="M148.418 146.325c.149-.133.49.163.713.03-.133.445-.653.087-.713.251v-.296.015z" stroke="#000" stroke-width=".095" fill="none"/><path d="M149.784 150.927l.059-4.572c0-.209.03-.255.044 0l.015 4.632" fill="#865800"/><path d="M149.784 150.927l.059-4.572c0-.209.03-.255.044 0l.015 4.632" stroke="#000" stroke-width=".095" fill="none"/><path d="M149.903 146.325c.134-.133.49.163.713.03-.134.445-.653.087-.713.251v-.296" fill="#fff"/><path d="M149.903 146.325c.134-.133.49.163.713.03-.134.445-.653.087-.713.251v-.296.015z" stroke="#000" stroke-width=".095" fill="none"/><path d="M151.194 151.178l.059-4.572c0-.22.044-.251.044 0l.015 4.632" fill="#865800"/><path d="M151.194 151.178l.059-4.572c0-.22.044-.251.044 0l.015 4.632" stroke="#000" stroke-width=".095" fill="none"/><path d="M151.313 146.591c.149-.133.49.163.713.03-.133.445-.653.091-.713.255v-.3" fill="#fff"/><path d="M151.313 146.591c.149-.133.49.163.713.03-.133.445-.653.091-.713.255v-.3.015z" stroke="#000" stroke-width=".095" fill="none"/><path d="M151.699 151.698c-.149 0-.341-.061-.386-.194-.104.106-.579.163-.757.015-.119.106-.505.179-.698.061-.163.133-.623.118-.861-.015-.089.087-.371.194-.535.194-.207-.327-.801-.832-1.172-1.026-.416-.205-1.232-.608-1.678-.817-.252-.118-.49-.312-.015-.087l1.915.832c.817.369 4.038.312 4.572.266.267-.015.638-.239.906-.399.193-.122.207-.046.015.057-.208.118-.431.194-.609.445-.223.327-.534.46-.653.669" fill="#865800"/><path d="M151.699 151.698c-.149 0-.341-.061-.386-.194-.104.106-.579.163-.757.015-.119.106-.505.179-.698.061-.163.133-.623.118-.861-.015-.089.087-.371.194-.535.194-.207-.327-.801-.832-1.172-1.026-.416-.205-1.232-.608-1.678-.817-.252-.118-.49-.312-.015-.087l1.915.832c.817.369 4.038.312 4.572.266.267-.015.638-.239.906-.399.193-.122.207-.046.015.057-.208.118-.431.194-.609.445-.223.327-.534.46-.653.669h-.044z" stroke="#000" stroke-width=".095" fill="none"/><path d="M151.996 147.366l-1.039-.122c-.178.327-.208.73-.104.996.327-.327.935-.148 1.232.015-.089-.281-.252-.669-.074-.889" fill="#fff"/><path d="M151.996 147.366l-1.039-.122c-.178.327-.208.73-.104.996.327-.327.935-.148 1.232.015-.089-.281-.252-.669-.074-.889h-.015z" stroke="#000" stroke-width=".095" fill="none"/><path d="M152.085 148.27l-1.277-.015c-.252.342-.104.847-.059 1.037.267-.445 1.143-.205 1.484.122-.163-.342-.297-.627-.133-1.144" fill="#fff"/><path d="M152.085 148.27l-1.277-.015c-.252.342-.104.847-.059 1.037.267-.445 1.143-.205 1.484.122-.163-.342-.297-.627-.133-1.144h-.015z" stroke="#000" stroke-width=".095" fill="none"/><path d="M152.233 149.414c-.297-.061-1.276-.122-1.47-.179-.163.342-.282.787-.356 1.201.475-.536 1.558-.133 1.796.388-.223-.46-.46-1.129.03-1.41" fill="#fff"/><path d="M152.233 149.414c-.297-.061-1.276-.122-1.47-.179-.163.342-.282.787-.356 1.201.475-.536 1.558-.133 1.796.388-.223-.46-.46-1.129.03-1.41z" stroke="#000" stroke-width=".095" fill="none"/><path d="M150.927 147.039l-1.381-.194c-.193.236-.341.654-.326 1.155.282-.281 1.351-.163 1.618.239-.089-.429-.207-.996.089-1.201" fill="#fff"/><path d="M150.927 147.039l-1.381-.194c-.193.236-.341.654-.326 1.155.282-.281 1.351-.163 1.618.239-.089-.429-.207-.996.089-1.201z" stroke="#000" stroke-width=".095" fill="none"/><path d="M150.823 148.286l-1.529-.209c-.238.327-.223.771-.163 1.262.342-.296 1.485-.133 1.752.266-.149-.593-.297-.95-.03-1.319" fill="#fff"/><path d="M150.823 148.286l-1.529-.209c-.238.327-.223.771-.163 1.262.342-.296 1.485-.133 1.752.266-.149-.593-.297-.95-.03-1.319h-.03z" stroke="#000" stroke-width=".095" fill="none"/><path d="M150.868 149.62l-1.544-.163c-.238.312-.401.638-.356 1.113.238-.414 1.276-.118 1.707.342-.252-.357-.282-.874.193-1.292" fill="#fff"/><path d="M150.868 149.62l-1.544-.163c-.238.312-.401.638-.356 1.113.238-.414 1.276-.118 1.707.342-.252-.357-.282-.874.193-1.292z" stroke="#000" stroke-width=".095" fill="none"/><path d="M148.329 147.039c-.163.133-.431.608-.475.726.282-.118.891-.148 1.276.133-.104-.22-.133-.623-.044-.787-.149-.072-.549-.103-.742-.072" fill="#fff"/><path d="M148.329 147.039c-.163.133-.431.608-.475.726.282-.118.891-.148 1.276.133-.104-.22-.133-.623-.044-.787-.149-.072-.549-.103-.742-.072h-.015z" stroke="#000" stroke-width=".095" fill="none"/><path d="M147.691 148.001c.386 0 1.217.091 1.574.194-.208.327-.178.893-.089 1.231-.534-.562-1.44-.532-1.974-.384.089-.239.342-.771.49-1.053" fill="#fff"/><path d="M147.691 148.001c.386 0 1.217.091 1.574.194-.208.327-.178.893-.089 1.231-.534-.562-1.44-.532-1.974-.384.089-.239.342-.771.49-1.053v.011z" stroke="#000" stroke-width=".095" fill="none"/><path d="M149.279 149.563c-.386 0-1.381-.163-1.841-.388-.148.445-.223 1.174-.238 1.44.431-.608 1.514-.266 1.856.357-.03-.342-.149-1.159.223-1.41" fill="#fff"/><path d="M149.279 149.563c-.386 0-1.381-.163-1.841-.388-.148.445-.223 1.174-.238 1.44.431-.608 1.514-.266 1.856.357-.03-.342-.149-1.159.223-1.41z" stroke="#000" stroke-width=".095" fill="none"/><path d="M148.329 147.039c-1.084.68-1.915 2.064-2.227 3.025.297-.011.683.091.831.388.312-1.379.772-2.641 1.395-3.413" fill="#fff"/><path d="M148.329 147.039c-1.084.68-1.915 2.064-2.227 3.025.297-.011.683.091.831.388.312-1.379.772-2.641 1.395-3.413zm.045-.669c-.891.935-2.152 2.611-2.627 3.519m6.249-2.523c.238 1.231.297 2.892.208 3.5" stroke="#000" stroke-width=".095" fill="none"/><path d="M160.754 153.598c.223-1.159 1.173-2.227 1.277-3.131.089-.817.252-1.159.727-2.018.475-.863.668-1.262.772-1.858.148-.771.727-.935.995-.148.252.787.757 2.763 1.024 3.223.252.46.52 1.098.475 1.41-.044.312.342.429.564.654.223.209.252.935.906 1.558.653.623 1.38 1.068 1.989 1.379.549 1.235.92 3.105.831 5.241h-40.778c-.015-.562 0-1.113.03-1.646 3.622-.935 4.973-3.325 6.502-3.162.831-1.159 1.841-2.406 2.539-3.044.831-.756 2.464-3.77 2.88-5.613.416-1.824 1.024-2.805 1.484-2.702.46.106.653.194 1.202 1.843.757 2.269 1.277 2.539 1.856 4.169.505 1.414 1.559 3.948 3.177 5.271 1.009-.756 2.167-1.604 2.538-2.197.312-.521.787-1.322 1.351-1.706.252-.756.579-2.109.846-2.436.252-.296.356-.593.386-1.113.015-.521.416-1.619.965-2.539.55-.904 1.277-1.201 1.603 0 .312 1.205 1.039 3.728 1.722 5.301.282.654.802 1.942 1.945 3.295" fill="#eac800"/><path d="M156.286 157.919c-.757-.73-1.959-.566-2.568-1.144-.594-.562-1.544-.179-3.593-1.216-.252-.133-.505-.296-.757-.49-1.618-1.322-2.672-3.861-3.177-5.271-.564-1.619-1.099-1.885-1.856-4.173-.401-1.216-.624-1.588-.891-1.722.698.76.327 1.946.891 3.223.223.505-.149.505-.267.342-.104-.163-.445-.239-.609-.224.297.255.342.893.638 1.558.282.669-.223.597.386 1.547.163.266.223.665-.015.828-.252.148-.431-.46-.802-.251.104.239.534.669.817.92.282.255.015.388-.208.27-.238-.122-.55-.239-.713-.372 0 .194.238.414.564.711.342.285.119.49-.668.49.119.179.074.623-.282.684.49.03.861.935 1.47.996.594.042.653.46.074.562-.579.103-1.752-.832-2.331-1.44-.149.209-.46.296-.683.179-.015.281.074.965.341 1.41-.282-.118-.653-.49-1.024-.95-.356-.429-.594.209-.282.593.312.388.519.699.015.996-.49.281-.801.179-1.173-.342-.519.433-.727.46-1.128.388 0 .251-.431.847-.623 1.292-.431.859 19.09 2.641 18.541.562m13.971.075c-5.136-.448-7.972-2.436-9.575-4.336-1.143-1.338-1.663-2.641-1.945-3.295-.683-1.573-1.41-4.097-1.722-5.301-.104-.399-.252-.638-.431-.726-.267-.133-.134.327.059.562.208.224.193.433-.074.27-.267-.148-.401.148-.149.517.238.357.609.775.683 1.174.074.388.104.726.297.92.178.194-.49.239-.772-.22-.015.296.074.726.267.68.178-.03.238.133-.015.581-.252.429-.223.578-.133.771.133.296.475-.878.683-.209.104.312.282.699.445.95.163.239.149.388-.089.388s-.445-.597-.475-.091c-.015.49.371.654.772.623.386-.015.445.133.386.342-.044.209.119.414.341.372.208-.061.535.133.713.638.178.505-.119.726-.549.369-.431-.369-1.054-.695-1.113-.965-.044-.236-.223.106-.03.433.178.327.282.475.519.608.238.118-.015.608-.415.296-.386-.296-.564-.224-.683.118-.193.551-.772.418-.594.714.178.296.104.771-.163.889-.282.118-.609-.057-.579-.578-.074.103-.356.148-.579.087-.03.73-.238.98-.683.787-.015.163-.03.445-.252.654.49-.072.594.266.638.475.03.209.104.179.386.209.267.015.609.369.104.281-.505-.072-1.292.103-1.752-.236.475.429 1.826.445 2.39.992 4.112 1.695 11.356 2.288 14.221 1.501.015-.342-.03-1.129-.059-1.379m-6.189-11.889c.119.057.238.22.341.475.252.787.757 2.759 1.025 3.219.252.46.519 1.098.475 1.41-.045.312.341.433.564.654.223.209.252.935.906 1.558.653.623 1.381 1.072 1.989 1.383.371.828.653 1.942.772 3.249-1.752-.133-3.948-.654-5.047-1.144.044-.163.044-.369-.015-.68-.074-.312-.015-.551.312-.847.327-.296.223-.802.045-1.083-.178-.266-.163-.429-.015-.593.134-.148.134-.418-.178-.714-.327-.296-.104-.608.074-.874.178-.27.445-.73.252-1.322-.193-.578-.49.133-.727-.087-.149-.152-.238-.433-.074-.669.163-.224.059-.654-.134-.98.431-.118-.297-1.379-.416-1.915s.134-.802-.148-1.011" fill="#865800"/><path d="M145.479 150.794c0 .281-.074.684-.149.817.178.281.416.859.386 1.037.238-.22.698-.046.801.566.104.623.208 1.201.149 1.543.208.179.653.49.727.832.074.327.297.281.519.251.698-.103.638.741 1.366.623 1.024-.148.386.669 1.41.638.594-.03 1.41.087 1.826.669.46-.623.861-.388 1.276-.224.416.148.935.106.475-.22-.475-.342-1.41-.388-1.826-.285-.416.106-1.039.03-1.47-.353-.416-.388-1.143-.714-1.588-.73-.445-.015-.549-.042-.89-.547-.327-.49-.861-.433-1.128-.46-.252-.015-.445-.342-.149-.654.431-.46-.178-.521.044-.802.223-.281.104-.654-.49-.699-.594-.046-.371-.236-.282-.654.208-.992-1.128-.828-1.024-1.303m23.323 5.298c.059-.608-.401-.859-.505-1.322-.089-.46-.817-.475-1.009-.338.074.133 0 .369-.089.502-.089.122-.089.194.089.255.193.046.356.087.371.251.015.148.104.015.178-.179.059-.19.579.239.638.623.044.388.252.654.312.194m-2.39-.64c.089.224.416.536.594.536s.445.133.49.342c.03.179.178.429.371.46.193.03.089.179-.149.163-.252-.015-.638-.163-.668-.342.089.372-.03.536-.268.266-.223-.251-.341-.608-.638-.654.223-.042.252-.103.148-.327-.089-.22-.015-.813.119-.445" fill="#eac800"/><path d="M129.61 159.211c.49-.239 1.054-.148 1.336.103.148-.281.386-.49.831-.414.356-.388.653-.581.861-.388.208-.384.906-.475 1.143-.236.252-.388.757-.566 1.098-.357.445-.581 1.232-.787 1.707-.49.416-.312.891-.251 1.099-.046.208.194.653-.205.831.163.312-.072.905-.087 1.024.239.074-.179.341-.285.49-.148 0-.684.49-1.205 1.173-1.041.326-.49.891-.695 1.158-.521.282-.281.861-.087 1.113.255.55-.015.817.236 1.099.726.282.49 1.099.787 1.618.566.519-.194.995-.255 1.173-.015.312-.281.653-.209.861-.015.356.312.698-.239.906-.03.327.342.624-.312 1.202.03.564.342 1.677.859 2.539.859.861 0 1.544-1.053 2.093-.312.549-.369 1.381-.547 1.959-.236.342-.312 1.128-.414 1.44-.118.312-.475.906-.76 1.41-.597.282-.486 1.41-.562 1.752.122.282 0 .727.251.727.562.282 0 .728.179.728.505.312-.076.697.118.757.49.623-.046 1.128.209 1.41.726.208-.179.089-.638.564-.726.475-.076.624.072.757.236.519-.384 1.247-.338 1.856.209.445-.179.861-.103.995.118.193-.179.505-.22.817-.22.015 1.007-.074 2.105-.297 3.234h-40.199c-.208-1.098-.297-2.197-.282-3.207" fill="#92d900"/><path d="M150.868 122.797c.104.502.238 1.855-.475 2.048 1.306 1.676 3.191 1.915 6.502 1.915 2.078 0 3.756-.015 4.988 0 0 .429-.134.889-.134 1.425 0 .517.52.756 1.277.578.757-.179 2.375-.684 3.251.118 1.47 1.368 4.172 1.604 4.899 2.466-.223-1.041-1.173-2.094-2.227-2.972.995-.148 2.286-.042 2.731.312-1.128-1.273-3.177-1.303-4.216-1.927-1.039-.623-2.034-1.174-2.805-1.383 0-.353-.045-.638-.342-.844-.653-.475-1.93-.638-2.969-.699.148-.163.178-.357.178-.654v-1.676c0-.581.06-.73-.579-1.144-2.464-1.573-5.463-2.702-10.926-2.702-5.448 0-8.447 1.113-10.926 2.702-.653.414-.579.562-.579 1.144v1.676c0 .296.015.49.178.654-1.039.046-2.301.209-2.969.699-.282.205-.342.475-.342.844-.757.194-1.752.745-2.805 1.383-1.039.623-3.088.654-4.216 1.927.431-.353 1.722-.475 2.716-.312-1.039.863-1.989 1.915-2.227 2.972.727-.863 3.429-1.098 4.914-2.466.861-.802 2.479-.312 3.251-.118.757.179 1.277-.046 1.277-.578 0-.536-.134-.996-.134-1.425 1.217-.03 2.895 0 4.988 0 3.296 0 5.181-.239 6.502-1.915-.727-.194-.594-1.531-.475-2.048-1.544-.357-2.315-.965-3.563-.965-1.232 0-1.455.68-1.455.935v.209c-.98 0-2.36-.255-2.702-.923 1.9-.802 4.721-1.528 8.595-1.528 3.874 0 6.695.726 8.595 1.528-.341.669-1.722.923-2.702.923v-.209c0-.239-.208-.935-1.455-.935s-2.019.593-3.563.965" fill="#fff"/><path d="M150.868 122.797c.104.502.238 1.855-.475 2.048 1.306 1.676 3.191 1.915 6.502 1.915 2.078 0 3.756-.015 4.988 0 0 .429-.134.889-.134 1.425 0 .517.52.756 1.277.578.757-.179 2.375-.684 3.251.118 1.47 1.368 4.172 1.604 4.899 2.466-.223-1.041-1.173-2.094-2.227-2.972.995-.148 2.286-.042 2.731.312-1.128-1.273-3.177-1.303-4.216-1.927-1.039-.623-2.034-1.174-2.805-1.383 0-.353-.045-.638-.342-.844-.653-.475-1.93-.638-2.969-.699.148-.163.178-.357.178-.654v-1.676c0-.581.06-.73-.579-1.144-2.464-1.573-5.463-2.702-10.926-2.702-5.448 0-8.447 1.113-10.926 2.702-.653.414-.579.562-.579 1.144v1.676c0 .296.015.49.178.654-1.039.046-2.301.209-2.969.699-.282.205-.342.475-.342.844-.757.194-1.752.745-2.805 1.383-1.039.623-3.088.654-4.216 1.927.431-.353 1.722-.475 2.716-.312-1.039.863-1.989 1.915-2.227 2.972.727-.863 3.429-1.098 4.914-2.466.861-.802 2.479-.312 3.251-.118.757.179 1.277-.046 1.277-.578 0-.536-.134-.996-.134-1.425 1.217-.03 2.895 0 4.988 0 3.296 0 5.181-.239 6.502-1.915-.727-.194-.594-1.531-.475-2.048-1.544-.357-2.315-.965-3.563-.965-1.232 0-1.455.68-1.455.935v.209c-.98 0-2.36-.255-2.702-.923 1.9-.802 4.721-1.528 8.595-1.528 3.874 0 6.695.726 8.595 1.528-.341.669-1.722.923-2.702.923v-.209c0-.239-.208-.935-1.455-.935s-2.019.593-3.563.965h-.059z" fill="#8cd2ff" stroke="#000" stroke-width=".38"/><path d="M150.007 124.918c.906 0 .935-.711.935-1.364 0-.638-.03-1.353-.935-1.353-.906 0-.935.714-.935 1.353 0 .638.03 1.364.935 1.364" fill="#fff"/><path d="M150.007 124.918c.906 0 .935-.711.935-1.364 0-.638-.03-1.353-.935-1.353-.906 0-.935.714-.935 1.353 0 .638.03 1.364.935 1.364zm-8.61-2.865c-.386.163-.742.327-1.054.49-1.856.965-1.989 1.189-1.336 1.558m-.876 2.687c-.965.015-1.648.076-2.019.194-.594.194-.653.521-.267.699m8.268-4.694v.775c0 .502.519 1.155 1.321 1.155 1.974 0 2.36-.353 3.83-.312m-.014-.04c-1.366-.239-2.45-.996-3.652-.996-1.188 0-1.44.562-1.232.832m-9.026 1.022v1.528c0 .418.282.996 1.351.775.935-.179 1.544.042 1.544.46m.43-4.321c.223.236.713.445 1.796.847 1.989.756 6.561 1.273 9.53-.076m8.625-2.583c.386.163.742.327 1.054.49 1.855.965 1.989 1.189 1.336 1.558m.891 2.687c.965.015 1.648.076 2.019.194.594.194.653.521.267.699m-8.283-4.694v.775c0 .502-.519 1.155-1.321 1.155-1.974 0-2.36-.353-3.83-.312m.015-.04c1.366-.239 2.449-.996 3.652-.996 1.187 0 1.44.562 1.217.832m9.04 1.022v1.528c0 .418-.282.996-1.351.775-.935-.179-1.544.042-1.544.46m-.43-4.321c-.223.236-.713.445-1.796.847-1.989.756-6.561 1.273-9.53-.076" stroke="#000" stroke-width=".38" fill="none"/><path d="M150.007 136.512l-.401 1.292h-1.365l1.113.802-.416 1.292 1.084-.802 1.099.802-.416-1.292 1.098-.771h-1.351l-.416-1.292m-5.21.399l-.193 1.338-1.336.209 1.217.608-.208 1.334.95-.965 1.202.612-.624-1.205.965-.95-1.336.209-.624-1.205m-5.06 1.277l.015 1.353-1.292.429 1.307.403v1.349l.772-1.113 1.292.403-.817-1.087.787-1.098-1.292.433-.816-1.087m-4.721 2.078l.238 1.338-1.202.638 1.351.179.223 1.334.579-1.216 1.336.179-.98-.95.594-1.205-1.202.638-.98-.935m20.216-3.325l.193 1.338 1.336.209-1.217.608.208 1.334-.95-.965-1.202.612.623-1.205-.95-.95 1.336.209.624-1.205m5.047 1.277l-.015 1.353 1.291.429-1.306.403v1.349l-.772-1.113-1.292.403.817-1.087-.787-1.098 1.277.433.816-1.087m4.736 2.078l-.238 1.338 1.202.638-1.351.179-.222 1.334-.579-1.216-1.336.179.98-.95-.594-1.205 1.202.638.98-.935" fill="#fff"/><path d="M167.88 139.245c-1.885 7.452.223 12.172 1.677 15.437 1.366 3.044 1.633 10.124-3.355 15.129-7.407 7.407-13.048 4.423-15.884 8.459m-.608.015c-2.835-4.036-8.476-1.053-15.884-8.459-4.988-5.005-4.721-12.085-3.355-15.129 1.455-3.249 3.563-7.969 1.677-15.437" stroke="#000" stroke-width=".475" fill="none"/><path d="M147.543 168.932l.148-9.93c0-.475.089-.551.104-.03l.03 10.067" fill="#865800"/><path d="M147.543 168.932l.148-9.93c0-.475.089-.551.104-.03l.03 10.067" stroke="#000" stroke-width=".095" fill="none"/><path d="M147.81 158.987c.341-.296 1.128.372 1.618.091-.297.961-1.484.205-1.618.562v-.654" fill="#fff"/><path d="M147.81 158.987c.341-.296 1.128.372 1.618.091-.297.961-1.484.205-1.618.562v-.654" stroke="#000" stroke-width=".095" fill="none"/><path d="M150.897 168.948l.148-9.915c0-.475.089-.566.104-.015l.03 10.048" fill="#865800"/><path d="M150.897 168.948l.148-9.915c0-.475.089-.566.104-.015l.03 10.048" stroke="#000" stroke-width=".095" fill="none"/><path d="M151.179 159.017c.341-.296 1.128.372 1.618.087-.312.965-1.485.209-1.618.566v-.654" fill="#fff"/><path d="M151.179 159.017c.341-.296 1.128.372 1.618.087-.312.965-1.485.209-1.618.566v-.654" stroke="#000" stroke-width=".095" fill="none"/><path d="M154.074 169.499l.149-9.934c0-.475.089-.547.104-.011l.03 10.048" fill="#865800"/><path d="M154.074 169.499l.149-9.934c0-.475.089-.547.104-.011l.03 10.048" stroke="#000" stroke-width=".095" fill="none"/><path d="M154.341 159.565c.342-.296 1.128.372 1.618.076-.312.965-1.484.209-1.618.562v-.65" fill="#fff"/><path d="M154.341 159.565c.342-.296 1.128.372 1.618.076-.312.965-1.484.209-1.618.562v-.65.011z" stroke="#000" stroke-width=".095" fill="none"/><path d="M155.217 170.639c-.342 0-.772-.16-.891-.429-.252.239-1.306.372-1.722.015-.282.239-1.158.403-1.603.118-.356.312-1.41.285-1.959-.042-.223.236-.861.414-1.202.445-.49-.699-1.811-1.813-2.642-2.227-.935-.46-2.806-1.353-3.8-1.782-.579-.251-1.113-.684-.015-.209 1.173.505 3.058 1.262 4.335 1.828 1.826.802 9.114.684 10.317.578.624-.042 1.455-.517 2.034-.874.445-.27.46-.106.03.118-.475.251-.995.445-1.366.965-.505.699-1.202 1.011-1.47 1.471" fill="#865800"/><path d="M155.217 170.639c-.342 0-.772-.16-.891-.429-.252.239-1.306.372-1.722.015-.282.239-1.158.403-1.603.118-.356.312-1.41.285-1.959-.042-.223.236-.861.414-1.202.445-.49-.699-1.811-1.813-2.642-2.227-.935-.46-2.806-1.353-3.8-1.782-.579-.251-1.113-.684-.015-.209 1.173.505 3.058 1.262 4.335 1.828 1.826.802 9.114.684 10.317.578.624-.042 1.455-.517 2.034-.874.445-.27.46-.106.03.118-.475.251-.995.445-1.366.965-.505.699-1.202 1.011-1.47 1.471l-.044.027z" stroke="#000" stroke-width=".095" fill="none"/><path d="M155.9 161.26l-2.36-.255c-.416.699-.475 1.573-.252 2.185.757-.714 2.123-.342 2.806.027-.223-.623-.564-1.467-.178-1.942" fill="#fff"/><path d="M155.9 161.26l-2.36-.255c-.416.699-.475 1.573-.252 2.185.757-.714 2.123-.342 2.806.027-.223-.623-.564-1.467-.178-1.942l-.015-.015z" stroke="#000" stroke-width=".095" fill="none"/><path d="M156.078 163.202c-.697.015-2.36-.027-2.88-.027-.564.726-.252 1.824-.119 2.242.623-.996 2.598-.464 3.355.251-.386-.73-.683-1.353-.341-2.478" fill="#fff"/><path d="M156.078 163.202c-.697.015-2.36-.027-2.88-.027-.564.726-.252 1.824-.119 2.242.623-.996 2.598-.464 3.355.251-.386-.73-.683-1.353-.341-2.478l-.015.011z" stroke="#000" stroke-width=".095" fill="none"/><path d="M156.42 165.698c-.683-.122-2.88-.27-3.325-.388-.356.741-.653 1.706-.801 2.63 1.069-1.174 3.548-.312 4.067.828-.519-.98-1.039-2.463.074-3.071" fill="#fff"/><path d="M156.42 165.698c-.683-.122-2.88-.27-3.325-.388-.356.741-.653 1.706-.801 2.63 1.069-1.174 3.548-.312 4.067.828-.519-.98-1.039-2.463.074-3.071h-.015z" stroke="#000" stroke-width=".095" fill="none"/><path d="M153.48 160.545l-3.118-.414c-.445.521-.772 1.44-.727 2.508.653-.623 3.043-.372 3.652.521-.208-.965-.475-2.181.208-2.63" fill="#fff"/><path d="M153.48 160.545l-3.118-.414c-.445.521-.772 1.44-.727 2.508.653-.623 3.043-.372 3.652.521-.208-.965-.475-2.181.208-2.63l-.015.015z" stroke="#000" stroke-width=".095" fill="none"/><path d="M153.243 163.247l-3.459-.46c-.549.699-.519 1.691-.386 2.748.787-.654 3.355-.296 3.964.578-.371-1.277-.683-2.033-.104-2.865" fill="#fff"/><path d="M153.243 163.247l-3.459-.46c-.549.699-.519 1.691-.386 2.748.787-.654 3.355-.296 3.964.578-.371-1.277-.683-2.033-.104-2.865h-.015z" stroke="#000" stroke-width=".095" fill="none"/><path d="M153.347 166.113l-3.518-.357c-.549.684-.92 1.383-.801 2.406.549-.904 2.88-.251 3.874.756-.594-.787-.653-1.915.445-2.805" fill="#fff"/><path d="M153.347 166.113l-3.518-.357c-.549.684-.92 1.383-.801 2.406.549-.904 2.88-.251 3.874.756-.594-.787-.653-1.915.445-2.805z" stroke="#000" stroke-width=".095" fill="none"/><path d="M147.617 160.545c-.386.296-.98 1.322-1.069 1.604.653-.266 2.034-.342 2.895.296-.252-.49-.342-1.349-.119-1.706-.341-.148-1.247-.224-1.692-.179" fill="#fff"/><path d="M147.617 160.545c-.386.296-.98 1.322-1.069 1.604.653-.266 2.034-.342 2.895.296-.252-.49-.342-1.349-.119-1.706-.341-.148-1.247-.224-1.692-.179l-.015-.015z" stroke="#000" stroke-width=".095" fill="none"/><path d="M146.177 162.624c.906-.015 2.761.209 3.563.429-.475.714-.416 1.931-.223 2.687-1.232-1.216-3.266-1.186-4.468-.828.223-.551.772-1.695 1.113-2.303" fill="#fff"/><path d="M146.177 162.624c.906-.015 2.761.209 3.563.429-.475.714-.416 1.931-.223 2.687-1.232-1.216-3.266-1.186-4.468-.828.223-.551.772-1.695 1.113-2.303l.015.015z" stroke="#000" stroke-width=".095" fill="none"/><path d="M149.769 166.01c-.876.03-3.117-.357-4.142-.863-.356.965-.519 2.569-.549 3.147.995-1.334 3.429-.593 4.201.771-.074-.726-.342-2.508.49-3.071" fill="#fff"/><path d="M149.769 166.01c-.876.03-3.117-.357-4.142-.863-.356.965-.519 2.569-.549 3.147.995-1.334 3.429-.593 4.201.771-.074-.726-.342-2.508.49-3.071v.015z" stroke="#000" stroke-width=".095" fill="none"/><path d="M147.617 160.545c-2.464 1.486-4.335 4.484-5.032 6.563.698-.015 1.573.209 1.885.832.727-2.987 1.752-5.746 3.147-7.41" fill="#fff"/><path d="M147.617 160.545c-2.464 1.486-4.335 4.484-5.032 6.563.698-.015 1.573.209 1.885.832.727-2.987 1.752-5.746 3.147-7.41v.015zm.074-1.44c-2.019 2.033-4.884 5.659-5.923 7.631m14.132-5.476c.549 2.672.683 6.263.46 7.585" stroke="#000" stroke-width=".095" fill="none"/><path d="M158.587 166.884c-.564.281-1.633-.505-2.138-.148v-.312c.49-.342 1.559.445 2.138.148v.327" fill="#00009e"/><path d="M158.587 166.884c-.564.281-1.633-.505-2.138-.148v-.312c.49-.342 1.559.445 2.138.148v.327-.015z" stroke="#000" stroke-width=".095" fill="none"/><path d="M158.587 167.211c-.564.281-1.633-.505-2.138-.163v-.327c.49-.342 1.559.445 2.138.148v.327" fill="#fff"/><path d="M158.587 167.211c-.564.281-1.633-.505-2.138-.163v-.327c.49-.342 1.559.445 2.138.148v.342z" stroke="#000" stroke-width=".095" fill="none"/><path d="M158.587 167.538c-.564.296-1.633-.49-2.138-.148v-.327c.49-.342 1.559.445 2.138.163v.312" fill="#ff0016"/><path d="M158.587 167.538c-.564.296-1.633-.49-2.138-.148v-.327c.49-.342 1.559.445 2.138.163v.312" stroke="#000" stroke-width=".095" fill="none"/><path d="M158.587 167.864c-.564.296-1.633-.49-2.138-.148v-.327c.49-.327 1.559.445 2.138.148v.327" fill="#fff"/><path d="M158.587 167.864c-.564.296-1.633-.49-2.138-.148v-.327c.49-.327 1.559.445 2.138.148v.327" stroke="#000" stroke-width=".095" fill="none"/><path d="M158.587 168.176c-.564.296-1.633-.49-2.138-.148v-.327c.49-.342 1.559.445 2.138.148v.312" fill="#00009e"/><path d="M158.587 168.176c-.564.296-1.633-.49-2.138-.148v-.327c.49-.342 1.559.445 2.138.148v.327z" stroke="#000" stroke-width=".095" fill="none"/><path d="M123.895 152.857c-1.173 0-1.173 1.752 0 1.752s1.188-1.752 0-1.752m2.182 0c-1.173 0-1.173 1.752 0 1.752s1.188-1.752 0-1.752m2.182 0c-1.173 0-1.173 1.752 0 1.752s1.188-1.752 0-1.752m-5.18 1.946c-1.173 0-1.173 1.748 0 1.748 1.172 0 1.188-1.748 0-1.748m2.182 0c-1.173 0-1.173 1.748 0 1.748s1.188-1.748 0-1.748m2.167 0c-1.173 0-1.173 1.748 0 1.748s1.188-1.748 0-1.748m-4.557 1.957c-1.173 0-1.173 1.752 0 1.752s1.188-1.752 0-1.752m2.167 0c-1.173 0-1.173 1.752 0 1.752s1.188-1.752 0-1.752m2.182 0c-1.173 0-1.173 1.752 0 1.752s1.188-1.752 0-1.752m-3.919 2.155c-1.113 0-1.113 1.646 0 1.646s1.128-1.646 0-1.646m2.049 0c-1.099 0-1.099 1.646 0 1.646 1.113 0 1.128-1.646 0-1.646m2.063 0c-1.113 0-1.113 1.646 0 1.646 1.098 0 1.128-1.646 0-1.646m-3.771 2.033c-1.054.042-.98 1.619.074 1.573 1.054-.046.995-1.634-.074-1.573m1.96-.106c-1.054.046-.98 1.619.074 1.573 1.054-.042.995-1.615-.074-1.573m1.974-.088c-1.054.046-.98 1.619.074 1.573 1.054-.046.995-1.634-.074-1.573m-3.087 2.151c-1.01.076-.906 1.573.089 1.501 1.009-.061.92-1.573-.089-1.501m1.707-.235c-.965.057-.861 1.497.089 1.44.965-.061.876-1.501-.089-1.44m1.811-.092c-.772.046-.698 1.22.074 1.159.772-.046.713-1.201-.074-1.159m-2.746 1.992c-.965.057-.861 1.497.089 1.44.965-.061.876-1.501-.089-1.44m1.647-.388c-.802.061-.713 1.262.074 1.205.801-.061.727-1.262-.074-1.205m1.529-.205c-.668.027-.594 1.037.059.992.668-.03.609-1.037-.059-.992m-2.493 2.09c-.876.194-.579 1.516.297 1.307.876-.194.594-1.497-.297-1.307m1.469-.578c-.727.163-.49 1.262.238 1.083.727-.163.49-1.262-.238-1.083m1.366-.414c-.609.133-.401 1.053.207.904.609-.133.401-1.053-.207-.904m-1.871 2.345c-.772.266-.356 1.44.415 1.159.772-.27.371-1.44-.415-1.159m1.262-.699c-.653.224-.297 1.205.341.965.653-.22.297-1.201-.341-.965m1.217-.517c-.534.175-.252.992.282.798.535-.19.252-1.007-.282-.798m-1.662 2.36c-.683.312-.208 1.334.475 1.007.683-.296.208-1.319-.475-1.007m1.084-.745c-.564.255-.178 1.113.386.847.564-.251.178-1.113-.386-.847m1.053-.578c-.475.224-.133.92.327.711.475-.22.148-.935-.327-.711m-1.128 2.273c-.564.281-.119 1.14.431.844.564-.281.119-1.14-.431-.844m.906-.669c-.475.236-.104.95.356.695.475-.236.104-.95-.356-.695m.876-.536c-.386.209-.074.787.297.581.386-.194.089-.802-.297-.581m-.921 2.033c-.49.312 0 1.056.475.73.49-.312.015-1.056-.475-.73m.757-.68c-.401.266 0 .874.401.608s.015-.893-.401-.608m.757-.581c-.341.224 0 .73.327.505.341-.22 0-.726-.327-.505m-.786 1.96c-.49.327 0 1.053.475.726.49-.312.015-1.053-.475-.726m.757-.684c-.401.27 0 .878.401.608.401-.266.015-.874-.401-.608m.742-.577c-.341.224 0 .726.327.505.341-.224 0-.745-.327-.505m.668.71c-.312.194 0 .669.312.475.297-.205 0-.68-.312-.475m-.549.612c-.342.22 0 .726.326.502.342-.22 0-.726-.326-.502m-.594.623c-.356.251 0 .802.356.547.371-.236 0-.802-.356-.547m1.841-.505c-.282.194 0 .608.267.429.282-.194 0-.623-.267-.429m-.505.547c-.297.209 0 .669.297.46.297-.205 0-.665-.297-.46m-.534.597c-.327.205 0 .711.326.49.326-.224 0-.714-.326-.49m1.677-.612c-.252.163 0 .566.252.388.252-.163 0-.562-.252-.388m-.46.506c-.282.194 0 .623.282.433.282-.194 0-.623-.282-.433m-.49.551c-.297.194 0 .669.297.445.297-.194 0-.669-.297-.445m1.544-.669c-.238.179.03.536.267.357.238-.179-.015-.536-.267-.357m-.401.52c-.252.194.03.578.282.384.252-.19-.03-.578-.282-.384m-.445.517c-.267.209.03.638.312.418.267-.209-.03-.638-.312-.418m1.335-.638c-.178.163.074.464.252.285.178-.179-.059-.46-.252-.285m-.311.479c-.208.175.074.502.282.296.208-.179-.074-.505-.282-.296m-.327.486c-.223.209.074.536.297.327.223-.19-.074-.532-.297-.327m1.232-.695c-.178.163.074.429.252.266.178-.179-.074-.445-.252-.266m-.282.459c-.193.194.074.475.267.281.193-.179-.074-.475-.267-.281m-.297.491c-.207.209.089.521.297.312.208-.194-.089-.521-.297-.312m1.143-.567c-.133.148.089.357.223.209s-.089-.372-.223-.209m-.208.403c-.148.163.089.384.252.22.149-.163-.089-.384-.252-.22m-.237.43c-.163.179.104.414.268.239.163-.179-.089-.433-.268-.239m-6.027-22.49c-.772 0-.772 1.159 0 1.159s.787-1.159 0-1.159m46.538 1.322c1.173 0 1.173 1.752 0 1.752s-1.188-1.752 0-1.752m-2.197 0c1.173 0 1.173 1.752 0 1.752s-1.188-1.752 0-1.752m-2.167 0c1.173 0 1.173 1.752 0 1.752s-1.188-1.752 0-1.752m5.166 1.946c1.173 0 1.173 1.748 0 1.748s-1.188-1.748 0-1.748m-2.168 0c1.173 0 1.173 1.748 0 1.748s-1.188-1.748 0-1.748m-2.182 0c1.173 0 1.173 1.748 0 1.748s-1.188-1.748 0-1.748m4.572 1.957c1.173 0 1.173 1.752 0 1.752s-1.188-1.752 0-1.752m-2.182 0c1.173 0 1.173 1.752 0 1.752s-1.188-1.752 0-1.752m-2.182 0c1.173 0 1.173 1.752 0 1.752s-1.188-1.752 0-1.752m3.919 2.155c1.099 0 1.099 1.646 0 1.646-1.113 0-1.128-1.646 0-1.646m-2.048 0c1.098 0 1.098 1.646 0 1.646-1.113 0-1.113-1.646 0-1.646m-2.064 0c1.099 0 1.099 1.646 0 1.646-1.113 0-1.128-1.646 0-1.646m3.771 2.033c1.054.042.98 1.619-.074 1.573-1.054-.046-.995-1.634.074-1.573m-1.96-.106c1.054.046.98 1.619-.074 1.573-1.054-.042-.995-1.615.074-1.573m-1.974-.088c1.054.046.98 1.619-.074 1.573-1.054-.046-.995-1.634.074-1.573m3.087 2.151c1.01.076.906 1.573-.104 1.501-1.009-.061-.92-1.573.104-1.501m-1.707-.235c.965.057.861 1.497-.089 1.44-.965-.061-.876-1.501.089-1.44m-1.81-.092c.772.046.697 1.22-.074 1.159-.772-.046-.713-1.201.074-1.159m2.746 1.992c.965.057.861 1.497-.089 1.44-.965-.061-.876-1.501.089-1.44m-1.648-.388c.802.061.713 1.262-.074 1.205-.802-.061-.727-1.262.074-1.205m-1.529-.205c.668.027.594 1.037-.059.992-.668-.03-.609-1.037.059-.992m2.494 2.09c.876.194.579 1.516-.297 1.307-.876-.194-.579-1.497.297-1.307m-1.455-.578c.727.163.475 1.262-.238 1.083-.727-.163-.49-1.262.238-1.083m-1.381-.414c.609.133.401 1.053-.208.904-.608-.133-.401-1.053.208-.904m1.886 2.345c.772.266.356 1.44-.416 1.159-.772-.27-.371-1.44.416-1.159m-1.277-.699c.653.224.297 1.205-.342.965-.653-.22-.312-1.201.342-.965m-1.217-.517c.534.175.252.992-.282.798-.535-.19-.252-1.007.282-.798m1.677 2.36c.683.312.208 1.334-.475 1.007-.683-.296-.208-1.319.475-1.007m-1.098-.745c.564.255.163 1.113-.386.847-.564-.251-.178-1.113.386-.847m-1.054-.578c.475.224.133.92-.327.711-.475-.22-.148-.935.327-.711m1.128 2.273c.564.281.119 1.14-.43.844-.564-.281-.134-1.14.43-.844m-.905-.669c.475.236.104.95-.356.695-.475-.236-.104-.95.356-.695m-.876-.536c.386.209.074.787-.297.581-.386-.194-.089-.802.297-.581m.92 2.033c.49.312 0 1.056-.475.73-.49-.312-.015-1.056.475-.73m-.757-.68c.401.266 0 .874-.401.608s0-.893.401-.608m-.757-.581c.342.224 0 .73-.326.505-.341-.22 0-.726.326-.505m.787 1.96c.49.327 0 1.053-.475.726-.49-.312-.015-1.053.475-.726m-.757-.684c.401.27 0 .878-.401.608-.401-.266 0-.874.401-.608m-.742-.577c.341.224 0 .726-.327.505-.341-.224 0-.745.327-.505m-.669.71c.312.194 0 .669-.297.475-.312-.205 0-.68.297-.475m.55.612c.341.22 0 .726-.326.502-.342-.22 0-.726.326-.502m.594.623c.371.251 0 .802-.356.547-.371-.236 0-.802.356-.547m-1.841-.505c.282.194 0 .608-.282.429-.282-.194 0-.623.282-.429m.504.547c.312.209 0 .669-.297.46-.312-.205 0-.665.297-.46m.535.597c.327.205 0 .711-.326.49-.327-.224 0-.714.326-.49m-1.678-.612c.252.163 0 .566-.252.388-.252-.163 0-.562.252-.388m.46.506c.282.194 0 .623-.282.433-.282-.194 0-.623.282-.433m.505.551c.297.194 0 .669-.297.445-.297-.194 0-.669.297-.445m-1.558-.669c.238.179-.03.536-.268.357-.223-.179.03-.536.268-.357m.4.52c.252.194-.03.578-.282.384-.252-.19.03-.578.282-.384m.431.517c.267.209-.03.638-.312.418-.267-.209.03-.638.312-.418m-1.322-.638c.193.163-.059.464-.252.285-.193-.179.06-.46.252-.285m.312.479c.193.175-.074.502-.282.296-.208-.179.074-.505.282-.296m.342.486c.223.209-.074.536-.297.327-.223-.19.074-.532.297-.327m-1.247-.695c.178.163-.074.429-.252.266-.178-.179.074-.445.252-.266m.282.459c.193.194-.074.475-.267.281-.193-.179.074-.475.267-.281m.297.491c.208.209-.089.521-.297.312-.208-.194.074-.521.297-.312m-1.143-.567c.133.148-.089.357-.223.209s.074-.372.223-.209m.207.403c.149.163-.089.384-.252.22-.133-.163.089-.384.252-.22m.238.43c.163.179-.104.414-.268.239-.163-.179.104-.433.268-.239m6.027-22.49c.772 0 .772 1.159 0 1.159s-.787-1.159 0-1.159" fill="#ffea4f"/><path d="M150.007 131.88c.698 0 1.291 0 1.722-.057v-.996c0-.327 1.158-.714 2.909-.372 6.858 1.338 7.794 4.439 13.004 6.221.059.015.252.076.475.118l.445-1.007c.089-.285.846-.27 1.514.042.772.372 1.113.802.98 1.026-.134.327-.268.593-.386.859 1.217.433 3.429 1.087 2.702 4.009-.564-.547-1.93-1.144-2.776-1.144-.965 0-2.004-.369-1.677-1.425-.178-.087-.49-.251-.653-.281l-.119.266c-.223.551-1.188.745-2.152.418-5.433-1.855-7.111-5.955-13.524-6.012v.179c0 .517-.668.992-2.464.992-1.782 0-2.464-.475-2.464-.992v-.179c-6.398.042-8.091 4.142-13.524 6.012-.95.327-1.915.118-2.152-.418l-.119-.266c-.163.03-.475.194-.653.281.312 1.041-.698 1.425-1.677 1.425-.846 0-2.197.597-2.776 1.144-.727-2.907 1.455-3.561 2.702-4.009l-.386-.859c-.119-.224.208-.654.98-1.026.668-.327 1.41-.342 1.514-.042l.445 1.007.475-.118c5.196-1.782 6.146-4.883 13.004-6.221 1.737-.342 2.91.046 2.91.372v.996c.431.042 1.024.057 1.722.057" fill="#fff"/><path d="M150.007 131.88c.698 0 1.291 0 1.722-.057v-.996c0-.327 1.158-.714 2.909-.372 6.858 1.338 7.794 4.439 13.004 6.221.059.015.252.076.475.118l.445-1.007c.089-.285.846-.27 1.514.042.772.372 1.113.802.98 1.026-.134.327-.268.593-.386.859 1.217.433 3.429 1.087 2.702 4.009-.564-.547-1.93-1.144-2.776-1.144-.965 0-2.004-.369-1.677-1.425-.178-.087-.49-.251-.653-.281l-.119.266c-.223.551-1.188.745-2.152.418-5.433-1.855-7.111-5.955-13.524-6.012v.179c0 .517-.668.992-2.464.992-1.782 0-2.464-.475-2.464-.992v-.179c-6.398.042-8.091 4.142-13.524 6.012-.95.327-1.915.118-2.152-.418l-.119-.266c-.163.03-.475.194-.653.281.312 1.041-.698 1.425-1.677 1.425-.846 0-2.197.597-2.776 1.144-.727-2.907 1.455-3.561 2.702-4.009l-.386-.859c-.119-.224.208-.654.98-1.026.668-.327 1.41-.342 1.514-.042l.445 1.007.475-.118c5.196-1.782 6.146-4.883 13.004-6.221 1.737-.342 2.91.046 2.91.372v.996c.431.042 1.024.057 1.722.057zm-1.737-.057c-.46-.046-.727-.148-.727-.327 0-.445.727-.296.727-.669m-17.472 5.879c.267.638.609 1.455.92 2.151m-1.574-1.824c.267.623.772 1.691.92 2.136m-2.152-2.299c.178.312 1.113-.148 1.232.148.104.312-.178.475-.831.711m2.108-1.942l-.609.92c.119.236.638.163 1.054.072m15.661-5.298v2.064m4.216-1.722c.445-.046.727-.148.727-.327 0-.445-.727-.296-.727-.669m17.473 5.879c-.267.638-.609 1.455-.92 2.151m1.573-1.824c-.268.623-.772 1.691-.92 2.136m2.152-2.299c-.178.312-1.113-.148-1.232.148-.104.312.178.475.831.711m-2.108-1.942l.609.92c-.119.236-.638.163-1.054.072m-15.661-5.298v2.064" stroke="#000" stroke-width=".38" fill="none"/><path d="M140.016 121.49l-.326.163-.134-.684.475.505.193.209.238.251.238-.118-1.202-1.262-.282.148.341 1.706.238-.118-.059-.342.475-.236-.193-.209m1.527-.058l-.727-1.083.475 1.189-.252.087-.623-1.543.401-.163.713 1.083-.223-1.292.401-.163.624 1.558-.252.106-.475-1.189.222 1.292-.267.103m1.898-2.106l-.713.205.104.357.638-.179.074.281-.638.179.119.418.713-.209.074.251-1.009.285-.475-1.604 1.009-.296.074.266m.906.282l-.089-.429.371-.076c.104-.015.208.03.238.163.015.133-.03.239-.119.255l-.401.072.059.281.282-.057c.134-.03.238 0 .282.194l.074.384.282-.061-.089-.445c-.03-.19-.163-.296-.267-.266.074-.015.208-.194.163-.429-.044-.224-.207-.433-.415-.403-.208.03-.817.163-.817.163l.342 1.634.282-.061-.119-.638-.059-.281m1.41.714l-.238-1.665.297-.046.238 1.649-.297.046m1.574-1.291c0-.091-.089-.266-.327-.255-.223.015-.312.239-.282.581.03.312.193.532.386.505.193-.015.282-.194.267-.327l.252-.015c.03.342-.178.608-.534.638-.342.03-.624-.27-.668-.771-.044-.505.148-.847.519-.893.371-.03.594.255.624.521l-.252.015m4.112-.102c0-.091-.059-.285-.297-.285-.223 0-.356.209-.356.536 0 .327.119.547.327.562.193 0 .312-.163.312-.296h.252c0 .342-.252.581-.609.566-.341-.015-.579-.357-.564-.863.015-.505.267-.832.638-.817.371 0 .564.327.549.581h-.252m1.751-.147l-.742-.061-.03.372.668.042-.015.296-.668-.042-.03.429.742.061-.015.266-1.054-.091.134-1.661 1.054.072-.015.27m.833-.147l.386 1.083.148-.996.297.03-.252 1.661-.282-.042-.416-1.144-.163 1.053-.297-.042.238-1.649.327.046m1.453 1.957l.312-1.349-.431-.091.06-.266 1.128.255-.059.266-.431-.091-.312 1.353-.267-.061m5.107.06l-.638 1.201.594.312-.133.27-.861-.448.787-1.482.268.133m-11.729-1.175s-.386 0-.386.015l.163-.68.208.665.089.27.104.327.282-.015-.549-1.649-.327.015-.415 1.691h.282l.074-.338.534-.015-.089-.27m10.183 1.603l-.342-.148.445-.536-.089.699-.03.281-.044.342.252.106.208-1.725-.297-.118-1.098 1.353.252.103.223-.266.49.205.03-.281m-1.885-1.068l.134-.418.356.106c.104.03.163.133.119.266-.03.118-.134.194-.223.163l-.386-.118-.089.281.282.087c.133.046.193.122.133.315l-.119.369.282.076.134-.445c.059-.194 0-.342-.089-.372.074.015.282-.076.356-.296.059-.224.015-.49-.163-.551l-.787-.251-.505 1.588.282.087.193-.608.089-.281m-24.018 18.068l-.104-.49.431-.091c.119-.015.238.03.267.194.03.148-.03.27-.133.296l-.445.091.074.327.327-.076c.163-.03.267 0 .326.224l.089.429.327-.061-.104-.517c-.044-.224-.193-.342-.326-.312.089-.015.238-.239.178-.505-.045-.266-.252-.505-.49-.445-.223.042-.935.205-.935.205l.401 1.874.342-.076-.163-.726-.074-.327m2.224-1.367l-.772.372.178.384.698-.323.148.312-.698.327.208.445.772-.372.119.281-1.099.521-.816-1.752 1.098-.521.134.285m.951.235l-.297-.521.282-.163c.119-.057.267-.042.371.091.089.148.074.342-.059.414l-.282.163.149.255.341-.209c.267-.148.267-.536.104-.802-.163-.281-.49-.403-.743-.251l-.623.369.98 1.649.267-.163-.341-.593-.149-.255m2.033-.444c.193-.118.148-.312.059-.445-.089-.118-.713-1.041-.713-1.041l.267-.19s.564.828.713 1.037c.163.251.238.623-.149.904-.401.27-.727.061-.89-.179-.134-.205-.713-1.037-.713-1.037l.267-.179.713 1.041c.089.133.238.236.431.103m1.544-1.469c-.089-.118-.193-.163-.297-.087l-.371.266.282.399.371-.266c.089-.057.089-.179 0-.312l.267-.163c.134.179.238.521-.104.771l-.624.448-1.128-1.562.535-.384c.267-.194.594-.224.787.03l-.223.22c-.044-.057-.178-.133-.282-.057l-.342.236.238.342.342-.239c.119-.087.059-.236.03-.281l.223-.22c.074.103.119.281.089.429.149.015.282.057.416.251l-.267.163m.34-1.767l.802 1.353.668-.388.178.296-.965.566-.98-1.665.297-.175m1.945 1.127l-.846-1.722.312-.148.846 1.722-.312.148m1.247-1.915c-.03-.103-.193-.266-.445-.175-.252.087-.282.369-.149.726.119.342.371.536.594.445.208-.072.252-.312.208-.445l.282-.103c.133.369-.015.726-.401.874-.371.133-.772-.118-.98-.654-.193-.532-.074-.992.326-1.144.401-.148.742.106.846.388l-.282.087m1.367.164l.045-.802.371.714-.431.087-.015.327.609-.118.178.357.312-.061-.935-1.767-.371.076-.133 2.003.312-.057.015-.403.015-.327m9.706-.8c.015-.103-.044-.327-.312-.353-.267-.015-.416.19-.46.578-.03.372.089.654.326.669.223.015.371-.163.386-.296l.297.027c-.044.388-.356.638-.757.597-.401-.046-.638-.448-.564-1.026.059-.578.386-.92.801-.874.416.042.608.429.579.726l-.297-.03m1.263 1.201c.238.057.49-.122.579-.505.089-.372 0-.669-.252-.745-.252-.057-.49.137-.579.505-.089.388.015.669.238.73l-.074.296c-.445-.118-.624-.566-.475-1.129.149-.551.534-.847.98-.726.445.118.624.562.475 1.125-.148.551-.534.847-.98.73l.074-.296m2.419-.209c.059-.163 0-.296-.208-.388-.208-.087-.282.015-.327.106-.03.072-.015.194.252.369.267.179.445.372.297.714-.134.327-.416.475-.846.281-.401-.179-.401-.578-.312-.802l.282.122c-.074.175.015.323.208.414.178.072.312.015.371-.103.045-.122-.015-.255-.193-.388-.46-.296-.431-.536-.342-.726.074-.194.326-.464.757-.285.416.179.46.505.327.787l-.267-.118m.55 1.8l.816-1.379-.431-.255.163-.266 1.143.669-.163.266-.43-.255-.817 1.383-.267-.148m4.751 3.131l.92-1.676.297.16-.92 1.695-.297-.163m2.287-.27c.044-.103.044-.323-.178-.429-.238-.103-.46.061-.609.403-.148.342-.104.638.089.741.207.087.401-.03.46-.163l.267.118c-.163.357-.535.505-.891.327-.356-.163-.46-.623-.223-1.155.238-.521.638-.76 1.039-.581.386.179.445.593.327.878l-.267-.122m-16.804-4.217l-.074.638.267.03c.104.015.415 0 .49-.593.059-.551-.208-.638-.327-.654l-.282-.03-.074.623-.312-.046c.059-.46.104-.92.104-.92l.638.076c.208.011.668.133.564.977-.059.521-.341.98-.742.935l-.713-.072.119-.98.312.046m2.702-.74l-.846.175.074.418.757-.148.074.342-.757.163.089.486.846-.163.059.3-1.188.236-.386-1.885 1.188-.236.059.312m11.209 3.488l.267-.433.371.224c.104.057.133.194.044.327-.074.133-.208.163-.297.103l-.401-.251-.178.281.282.179c.133.087.193.194.074.384l-.238.372.282.179.282-.445c.119-.194.089-.388 0-.448.074.046.342 0 .49-.236.134-.224.163-.536-.03-.669l-.801-.505-1.025 1.634.282.179.401-.623.178-.281m-2.224-1.099l.638-.49-.282.756-.356-.251-.252.205.505.357-.134.372.252.19.683-1.885-.297-.22-1.588 1.231.267.194.312-.239.252-.205m6.264 3.473l.252-.76.178.787-.431-.015-.104.315.623.027.074.388.326.015-.445-1.946-.386-.015-.653 1.9.326.015.119-.384.104-.315"/></svg>