<svg xmlns="http://www.w3.org/2000/svg" version="1" width="1000" height="500"><g fill-rule="evenodd"><path font-size="12" fill="#0021ad" d="M0 0h1000v500h-1000z"/><path d="M0 0l1000 500-.573-499.629-999.427-.37z" font-size="12" fill="#1c8a42"/><path d="M227.5 97.284a34.922 34.922 0 1 1-69.844 0 34.922 34.922 0 1 1 69.844 0z" transform="matrix(2.587 0 0 2.587 2.909 -1.89)" fill="#ffc639"/><path d="M444.844 209.424c6.179 8.485 15.537 22.691 23.071 18.985 5.871.019 8.908.435 9.704 4.34 13.861 2.363 37.159-3.486 51.645-22.359 0 0 1.225.158.798-7.017.081-3.13 4.275-2.498 4.375-1.489.587 1.554.481 2.72 1.267 2.759 1.792-.6 4.229-4.598 6.272-7.136.559-1.12.255-2.304.385-3.708 1.076-2.655 3.766-2.075 4.335-.688l1.026 2.481c2.729 1.818 7.661.121 8.046.121.484-2.224 1.915-2.015 1.915-2.015 1.818-.402 1.109-.24 2.299.383-1.053 12.005 2.362 12.534 2.079 18.697.122 6.869-2.079 8.822-2.079 11.453.698 3.196 10.837 3.307 7.268 6.018-3.136 1.676.017 4.813-4.708 6.027-13.721 6.969-16.352 12.946-16.352 12.946s-3.447 6.513-3.83 6.513c-2.304 4.345-5.217 1.971-6.833 4.091-.809 2.662-1.719 8.555-.101 11.62.807 4.211-.101 6.508-1.113 10.722-.909 8.787-4.392 10.119-4.794 13.209-1.618 3.294.34 18.771-1.191 18.771-10.221.202-18.055-1.955-22.097-2.762 3.941-16.976 2.415-31.901 2.415-33.432-1.012-12.144-18.198-9.187-20.823-10.803-2.183-.464-3.554-2.24-4.322-3.007-2.427-.255-3.336-.814-5.763-1.067-1.214.605-.482 1.234-3.186 2.064-6.85.827-9.881-5.972-9.881-5.972.335-2.292-15.404.467-23.961-1.519-3.509 1.955-5.04 7.738-7.916 8.427-.082 1.792-4.723-1.473-5.66-3.236-.201-5.131 4.472-7.405 4.472-7.405 3.704-2.605 5.908-3.033 7.693-4.83.895-4.469.442-7.773 2.347-11.133 1.612-2.563 3.988-1.361 5.6-2.512 1.738-1.148 2.467-8.664.872-10.724 0 0-6.937-6.258-7.319-6.64-2.259-6.474 2.637-10.643 4.042-10.174z" fill="#1c8a42"/><path d="M877.931 97.555c-4.093-16.194-40.721-51.071-68.246-73.265-6.576-4.477-10.858-1.81-10.003 4.573 3.43 5.716 5.998 12.001 9.43 17.717l3.714 10.286s.284 6.572.86 7.143c8.57 9.433 9.713 17.432 9.713 17.432 4.953 9.526 9.333 16.478 18.004 24.289 9.715 6.096 2.568 25.052 2.855 35.151 0 6.382-4.57 5.62-8.571 4.856-31.528-28.957-62.772-29.051-90.303-37.433-10.761-1.144-10.952 4-7.427 6.856 19.24 20.576 37.341 34.578 61.155 46.295l12 7.432c4.573 3.809 9.143 7.619 13.716 11.429 10.573 6.859 11.432 13.147 11.432 13.715.283 12.86-6.575 22.861-8.576 26.863-3.61 13.638-10.856 16.003-10.856 16.003-58.866 39.722-89.732 50.008-185.175 37.72-1.428-.762-10.574.762 0 4.573 24.292 8.096 83.96 21.076 141.687-6.261 13.86-9.718 23.133-6.529 33.173-12.346 16.484-10.166 40.033-22.827 44.319-24.255 12.859-6.859 48.864-14.575 57.152-21.434 9.525-.763 19.393-2.012 20.06-10.203 3.133-2.02 7.702-.546 11.103-7.214 7.542-1.313 6.272-4.017 6.272-4.017-1.904-5.332-8.955-7.524-14-11.428-7.432-2.479-12.573-3.24-18.005-.574-1.714.764-3.429 1.525-5.143 2.287 0 0-8.001-1.142-8.001-1.713-17.781-.976-16.05-59.9-22.339-84.476z" fill="#ffc639"/><path d="M354.375 73.886a2.07 1.367 0 1 1-4.141 0 2.07 1.367 0 1 1 4.141 0z" transform="matrix(2.023 .635 -.679 1.892 252.879 -170.958)" fill="#1c8a42"/><path d="M188.168 190.995l-12.754-11.939-12.906 11.774 1.382-17.415-17.252-2.749 14.477-9.777-8.607-15.202 16.671 5.223 6.519-16.208 6.31 16.29 16.736-5.008-8.802 15.09 14.351 9.962-17.286 2.527 1.159 17.431zm45.286 144.606l-13.758-9.176-13.395 9.671 4.711-15.576-13.586-9.416 16.669-.45 4.999-15.49 5.591 15.297 16.675-.158-13.214 9.904 5.307 15.393zm63.142-59.579l-12.754-11.939-12.906 11.774 1.382-17.415-17.252-2.749 14.477-9.777-8.607-15.202 16.671 5.223 6.519-16.208 6.31 16.29 16.736-5.008-8.802 15.09 14.351 9.962-17.286 2.527 1.159 17.431zm-220.493 38.196l-12.754-11.939-12.906 11.774 1.382-17.415-17.252-2.749 14.477-9.777-8.607-15.202 16.671 5.223 6.519-16.208 6.31 16.29 16.736-5.008-8.802 15.09 14.351 9.962-17.286 2.527 1.159 17.431zm114.587 145.838l-12.754-11.939-12.906 11.774 1.382-17.415-17.252-2.749 14.477-9.777-8.607-15.202 16.671 5.223 6.519-16.208 6.31 16.29 16.736-5.008-8.802 15.09 14.351 9.962-17.286 2.527 1.159 17.431z" font-size="12" fill="#fff"/></g></svg>