<svg xmlns="http://www.w3.org/2000/svg" width="1062.021" height="637.212" viewBox="0 0 1031.0881 618.65282"><path fill="#fff" d="M0 0h1031.088v618.653h-1031.088z"/><path d="M440.951 191.359c0 7.919.99 8.909 1.485 10.393.495 1.485 1.114 28.704-2.97 36.129-4.083 7.425-12.126 11.631-15.343 12.373-3.217.742-13.363-6.434-22.767-9.404-9.404-2.97-8.909-2.475-12.867-2.475s-12.868 3.34-15.343 5.444c-1.609-.247-1.98-.99-2.97 0-.989.99-4.949 4.949-5.939 7.424-.99 2.475-3.463 11.879-6.434 12.868-2.97.99-11.012 9.031-16.332 9.405-5.319.371-3.836-.247-7.424-.495-3.587-.247-3.959-3.959-7.424-5.939-3.463-1.98-4.454-3.464-4.454-3.464s-.99-3.959-2.475-3.959c-1.484 0-2.969 6.93-2.969 8.91 0 1.98 3.958 9.404 5.939 10.887 1.98 1.485 1.98 10.394.99 12.868-.99 2.475 1.98 4.95 2.474 7.424.495 2.475-2.969 4.453-1.484 4.949 1.484.494 3.464 3.463 3.464 6.434 0 2.97 7.424 3.959 8.909 6.929 1.485 2.97 1.98 7.919 2.475 10.889.495 2.97 2.227 1.608 2.474 8.909 2.351 1.114 5.939 3.463 8.909 4.949 2.97 1.485 2.476 4.949 6.434 6.434 3.959 1.484 3.959 0 5.939.494 1.98.495-.99.991 2.475 1.98 3.465.99 4.949-.494 7.92.99 2.97 1.485 4.454 4.95 6.434 5.94 1.98.99 10.393 3.463 10.888 3.959.495.494 5.939 2.475 6.929 2.475.99 0 3.959-1.981 3.959-1.981s3.464.99 6.434 0c2.97-.989 4.949-3.959 6.929-3.959l4.454.99c1.98 0 4.948-.99 4.948-.99s4.454-.99 7.919.99c3.464 1.981 11.383 11.384 11.383 15.344 0 3.958-.494 5.939-.494 5.939s3.958-.496 5.443.494c1.485.991 1.361-.865 12.373.991-.742-2.723-11.383-10.393-1.485-21.283 9.898-10.889 10.517-6.434 12.868-8.413 2.351-1.981 11.383-7.797 26.726-2.476 14.848-2.474 3.959-4.453 12.373-4.948 1.485-.62 4.332.123 7.425.99.99-1.857 3.093-3.588 6.434-2.971.619-1.732 4.701-4.083 8.908-4.453.62-3.342 11.261-7.547 17.323-7.92 2.474-2.227 5.32-12.126 18.807-7.424.494-3.216 2.722-8.414 6.434-9.404.742-6.68-1.734-20.169 4.949-24.746 6.68-6.063 12.992-4.703 24.251-4.453 7.671 1.608 11.383 7.423 13.857 7.919 2.475.495 3.464.495 6.434-1.484 2.97-1.981-.494-5.94 1.98-5.94 2.475 0 1.484.495 5.444 0 3.959-.494 3.464-1.856 5.939-2.474 3.96 1.981 8.414.494 10.393 1.98 1.981 1.484 2.227 1.36 6.434 1.98 1.484 2.474 5.443 2.474 5.443 2.474s-2.969-.99-1.979-2.474c.99-1.485 0-5.94-1.981-7.92-1.979-1.98-2.969-2.475-4.453-4.453-1.484-1.98.494-1.981-1.981-4.454-2.474-2.475-7.918-4.949-9.402-7.919-1.484-2.97-.99-4.949-3.464-7.424-2.474-2.475-12.373-10.888-12.867-19.797-.494-8.909.494-17.445 6.433-20.292-.247-5.197.991-5.939 6.434-8.909 5.443-2.97 5.941-.99 9.404-.99s5.445.495 8.909-1.979c3.464-2.475.495-7.919 9.404-15.838 8.91-7.919 12.373-11.878 15.344-12.373 2.97-.495 13.733-8.042 18.312-7.424 3.217-3.835 6.434-8.414 10.393-11.383 3.959-2.97 8.415-2.97 10.393-5.444 1.98-2.475 1.484-6.93 7.424-10.889 5.939-3.958 10.889-6.433 13.363-8.414 2.474-1.98 7.919-.495 9.898-2.475 1.98-1.98 1.98-9.404 3.958-10.888l-10.887 5.444c-4.454 1.98-10.888 5.444-16.332 4.949-5.444-.495-2.476 2.969-5.444 3.959-2.97.99-7.919.495-9.899 2.475-1.98 1.98-5.443 6.929-8.413 8.909-2.971 1.979-4.454 1.485-7.424 2.97-2.971 1.485-5.444 2.97-7.919 3.959-2.475.99-9.899.495-9.899.495s-6.434 8.414-9.404 11.383c-2.97 2.97-6.434 2.475-9.404 3.959-2.97 1.484-28.211 17.817-45.532 20.292-17.323 2.474-9.405-1.485-14.848 0-5.443 1.485-13.364 11.877-19.797 12.373-6.434.495-8.414 0-9.898 0-1.485 0-9.404 4.949-14.353 3.959-7.3 2.227-12.743 1.732-14.848 1.484-2.103-.246-5.939 2.475-11.383 0-4.207-1.36-4.207 1.608-12.372-.989-8.167-2.598-13.859.99-17.818-.99-3.959-1.98-3.464-3.464-6.434-3.464s-2.97 1.98-6.434 1.98-3.959-1.98-6.929-1.98-6.434 1.98-10.888 1.485c-4.454-.495-5.939-2.475-8.909-2.475-2.971-.003-19.303-6.932-19.303-6.932z" fill="#ed8000"/><path d="M491.587 493.686c8.593-6.187 16.153-8.249 27.839-10.311 11.686-2.062 24.059-5.498 30.588-7.218 6.529-1.72-21.995 8.249-29.213 10.311-7.218 2.062-29.215 7.218-29.215 7.218zm47.086-18.217c-2.404-14.778 3.436-30.244 16.84-36.43 3.093 10.653-6.529 28.87-16.84 36.43zm22.634-7.691c-7.167-12.242 4.964-28.033 13.85-35.776 4.074 7.378-3.144 29.376-13.85 35.776zm21.017-9.493c-7.663-10.499 1.373-28.87 10.998-36.088 3.78 10.311 0 28.87-10.998 36.088zm21.021-13.129c-6.932-9.901-2.119-25.367 7.848-35.333 7.219 8.25 1.032 26.123-7.848 35.333zm16.784-13.335c-5.842-9.28 1.375-31.621 10.655-37.808 4.124 8.249 1.031 31.621-10.655 37.808zm13.405-3.438c-1.718-13.404 21.655-28.184 31.277-27.839-1.031 10.998-11 23.028-31.277 27.839zm-13.06 15.122c10.998-11.342 32.306-11.342 39.868-8.935-2.062 6.531-27.151 20.964-39.868 8.935zm-15.124 11.342c15.466-4.124 25.435-7.562 34.715 2.062-6.531 8.249-31.621 5.842-34.715-2.062zm-21.995 9.969c14.778-7.906 32.65 3.78 35.399 10.653-16.497 6.875-35.742-8.933-35.399-10.653zm-20.28 11.342c13.404-5.155 28.87 1.72 35.057 9.28-7.218 3.436-26.122 7.218-35.057-9.28zm-18.557 5.842c15.466-1.718 30.307 9.987 33.54 16.679-19.794 1.881-27.354-3.961-33.54-16.679zm-4.983 11.686c-8.593-6.187-16.153-8.249-27.839-10.311-11.686-2.062-24.059-5.498-30.589-7.218-6.53-1.72 21.996 8.249 29.214 10.311 7.218 2.062 29.215 7.218 29.215 7.218zm-47.087-18.217c2.406-14.778-3.436-30.244-16.841-36.43-3.093 10.653 6.53 28.87 16.841 36.43zm-22.634-7.691c7.167-12.242-4.964-28.033-13.85-35.776-4.074 7.378 3.144 29.376 13.85 35.776zm-21.016-9.493c7.663-10.499-1.373-28.87-10.998-36.088-3.78 10.311 0 28.87 10.998 36.088zm-21.023-13.129c6.932-9.901 2.119-25.367-7.848-35.333-7.218 8.25-1.031 26.123 7.848 35.333zm-16.783-13.335c5.842-9.28-1.375-31.621-10.655-37.808-4.124 8.249-1.031 31.621 10.655 37.808zm-13.404-3.438c1.718-13.404-21.655-28.184-31.277-27.839 1.031 10.998 11 23.028 31.277 27.839zm13.059 15.122c-10.998-11.342-32.306-11.342-39.868-8.935 2.062 6.531 27.151 20.964 39.868 8.935zm15.124 11.342c-15.466-4.124-25.435-7.562-34.715 2.062 6.531 8.249 31.621 5.842 34.715-2.062zm21.996 9.969c-14.778-7.906-32.65 3.78-35.399 10.653 16.497 6.875 35.742-8.933 35.399-10.653zm20.279 11.342c-13.404-5.155-28.87 1.72-35.057 9.28 7.218 3.436 26.122 7.218 35.057-9.28zm18.559 5.842c-15.466-1.718-30.308 9.987-33.541 16.679 19.794 1.881 27.355-3.961 33.541-16.679z" fill="#006651"/></svg>