<svg xmlns="http://www.w3.org/2000/svg" width="600" height="300" viewBox="0 0 1200 600"><title>Flag of Dominica</title><path fill="#006b3f" d="M0 0h1200v600h-1200z"/><path fill="#FFF" d="M0 325h1200v50h-1200z"/><path d="M0 275h1200v50h-1200z"/><path fill="#fcd116" d="M0 225h1200v50h-1200zm525-225h50v600h-50z"/><path d="M575 0h50v600h-50z"/><path fill="#FFF" d="M625 0h50v600h-50z"/><path d="M750.88 300.25a150.38 150.38 0 1 1-300.75 0 150.38 150.38 0 1 1 300.75 0z" transform="matrix(.997 0 0 .997 1.007 .503)" fill="#d41c30"/><path d="M595.19 181.59c0-.22 4.81-13.72 4.81-13.72l4.37 13.5s14.65.44 14.65.22l-11.59 8.85s5.47 15.49 5.25 15.05l-12.68-9.29s-12.68 8.85-12.46 8.85l4.81-14.61-11.37-8.63 14.21-.22zm9.62 237.16c0 .22-4.81 13.72-4.81 13.72l-4.37-13.5s-14.65-.44-14.65-.22l11.59-8.85s-5.47-15.49-5.25-15.05l12.68 9.3s12.68-8.86 12.46-8.86l-4.81 14.61 11.37 8.63-14.21.22zm64.91-203.29c0 .22-4.81 13.72-4.81 13.72l-4.38-13.5s-14.64-.44-14.64-.22l11.58-8.85s-5.46-15.49-5.24-15.05c.21.44 12.68 9.29 12.68 9.29s12.68-8.85 12.46-8.85l-4.81 14.61 11.37 8.63-14.21.22zm42.09 123.05c0 .22-4.81 13.72-4.81 13.72l-4.37-13.5s-14.65-.44-14.65-.22l11.59-8.85s-5.47-15.49-5.25-15.05l12.68 9.29s12.68-8.85 12.46-8.85c-.21 0-4.81 14.61-4.81 14.61l11.37 8.63-14.21.22zm-214.02 3.52c0 .22-4.81 13.71-4.81 13.71l-4.37-13.49s-14.65-.45-14.65-.22c0 .22 11.59-8.86 11.59-8.86s-5.47-15.49-5.25-15.04c.22.44 12.68 9.29 12.68 9.29s12.68-8.85 12.46-8.85l-4.81 14.6 11.37 8.63-14.21.23zm38.86-125.13c0 .22-4.81 13.72-4.81 13.72l-4.38-13.5s-14.64-.44-14.64-.22l11.58-8.85s-5.46-15.49-5.24-15.05c.21.44 12.68 9.29 12.68 9.29s12.68-8.85 12.46-8.85l-4.81 14.61 11.37 8.63-14.21.22zm-49.33 44.96c0-.22 4.81-13.72 4.81-13.72l4.37 13.5s14.65.44 14.65.22l-11.59 8.85s5.47 15.49 5.25 15.05l-12.68-9.29s-12.68 8.85-12.46 8.85c.21 0 4.81-14.61 4.81-14.61l-11.37-8.63 14.21-.22zm41.82 122.83c0-.23 4.81-13.72 4.81-13.72l4.37 13.49s14.65.45 14.65.23c0-.23-11.58 8.85-11.58 8.85s5.46 15.49 5.24 15.04c-.22-.44-12.68-9.29-12.68-9.29s-12.68 8.85-12.46 8.85l4.81-14.6-11.37-8.63 14.21-.22zm172.29-126.1c0-.23 4.81-13.72 4.81-13.72l4.37 13.49s14.65.45 14.65.23c0-.23-11.59 8.85-11.59 8.85s5.47 15.49 5.25 15.04c-.22-.44-12.68-9.29-12.68-9.29s-12.68 8.85-12.46 8.85l4.81-14.6-11.37-8.63 14.21-.22zm-38.98 124.94c0-.22 4.81-13.72 4.81-13.72l4.37 13.5s14.65.44 14.65.22l-11.59 8.85s5.47 15.49 5.25 15.05c-.22-.45-12.68-9.3-12.68-9.3s-12.68 8.85-12.46 8.85l4.81-14.6-11.37-8.63 14.21-.22z" stroke="#000" fill="#006b3f"/><g font-size="12" transform="matrix(1.261 0 0 1.261 -21.814 423.758)"><g transform="matrix(.164 -.016 .012 .184 429.835 -215.628)" stroke="#000" stroke-width="2.5" fill="#006b3f"><ellipse rx="30.805" ry="189.82" transform="matrix(1.405 -.006 .008 1 -534.287 263.723)" cy="586.13" cx="680.21"/><ellipse rx="30.805" ry="189.82" transform="matrix(1.486 -.006 .009 1 -547.218 267.054)" cy="586.13" cx="680.21"/><ellipse rx="30.805" ry="189.82" transform="matrix(1.189 -.006 .007 1.105 -364.929 214.098)" cy="586.13" cx="680.21"/></g><g stroke="#000" transform="translate(72.865 -9.797)"><path d="M385.288-38.663c6.074-.253 3.436-3.503 6.504-5.232 3.065-1.727 7.429-.584 8.738 1.575s.259 4.281 1.944 4.31c1.686.029 47.535-1.894 49.186-.083 1.654 1.808 1.926 5.375.214 6.761-1.713 1.404-59.676 2.053-61.672.585-1.996-1.446-4.919-7.559-4.913-7.916z" fill="#9c4a00"/><path d="M417.68-34.197c-.11 4.581 6.666 3.284 6.759 7.11-.204 4.056-11.362.248-11.469-7.172.464-7.412 11.385-11.075 11.521-6.841.1 3.518-6.7 2.322-6.81 6.903zm3.998.052c-.11 4.581 6.666 3.284 6.759 7.11-.204 4.056-11.362.248-11.469-7.172.464-7.412 11.385-11.075 11.521-6.841.1 3.518-6.7 2.322-6.81 6.903zm4.289-.161c-.11 4.581 6.666 3.284 6.759 7.11-.204 4.056-11.362.248-11.469-7.172.464-7.412 11.385-11.075 11.521-6.841.1 3.518-6.7 2.322-6.81 6.903zm3.998.053c-.11 4.581 6.666 3.284 6.759 7.11-.204 4.056-11.362.248-11.469-7.172.464-7.412 11.385-11.075 11.521-6.841.1 3.518-6.7 2.322-6.81 6.903z" fill="#fcd116"/><ellipse rx="3.534" ry="3.403" transform="matrix(1.095 .016 -.024 1.154 -75.571 4.678)" cy="-41.086" cx="478.38" fill="#9c4a00"/></g><g stroke="#000" stroke-width="2.5" transform="matrix(.995 -.101 .101 .995 66.684 66.338)"><ellipse rx="20.814" ry="24.144" transform="matrix(.166 -.008 .002 .315 369.8 -361.654)" cy="905" cx="427.11" fill="#006b3f"/><ellipse rx="20.814" ry="24.144" transform="matrix(.166 -.008 .002 .315 364.041 -362.701)" cy="905" cx="427.11" fill="#006b3f"/><ellipse rx="20.814" ry="24.144" transform="matrix(.166 -.008 .002 .315 360.638 -370.554)" cy="905" cx="427.11" fill="#006b3f"/><ellipse rx="20.814" ry="24.144" transform="matrix(.16 -.009 .002 .348 369.299 -399.352)" cy="905" cx="427.11" fill="#006b3f"/><ellipse rx="20.814" ry="24.144" transform="matrix(.16 -.008 .002 .326 377.41 -379.072)" cy="905" cx="427.11" fill="#009543"/><ellipse rx="20.814" ry="24.144" transform="matrix(.16 -.008 .002 .326 373.222 -382.214)" cy="905" cx="427.11" fill="#009543"/><ellipse rx="20.814" ry="24.144" transform="matrix(.16 -.008 .002 .326 367.987 -386.664)" cy="905" cx="427.11" fill="#009543"/><ellipse rx="20.814" ry="24.144" transform="matrix(.16 -.008 .002 .326 363.013 -389.543)" cy="905" cx="427.11" fill="#006b3f"/></g><path d="M173.17 346.35s-54.19 64.89-21.25 208.81c33.96 144.59 178.97 189.78 178.97 189.78s26.49-47.42 1.72-164.04c-39.96-169.84-116.14-234.55-116.14-234.55h-43.3z" transform="matrix(.177 .032 -.031 .182 461.788 -208.612)" stroke="#000" stroke-width="2.5" fill="#9461c9"/><g transform="matrix(.997 .078 -.078 .997 60.532 -11.76)" stroke="#000" stroke-width="2.5" fill="#006b3f"><ellipse rx="20.814" ry="24.144" transform="matrix(.166 -.008 .002 .315 369.8 -361.654)" cy="905" cx="427.11"/><ellipse rx="20.814" ry="24.144" transform="matrix(.166 -.008 .002 .315 364.041 -362.701)" cy="905" cx="427.11"/><ellipse rx="20.814" ry="24.144" transform="matrix(.166 -.008 .002 .315 360.638 -370.554)" cy="905" cx="427.11"/><ellipse rx="20.814" ry="24.144" transform="matrix(.16 -.009 .002 .348 369.299 -399.352)" cy="905" cx="427.11"/><ellipse rx="20.814" ry="24.144" transform="matrix(.16 -.008 .002 .326 377.41 -379.072)" cy="905" cx="427.11"/><ellipse rx="20.814" ry="24.144" transform="matrix(.16 -.008 .002 .326 373.222 -382.214)" cy="905" cx="427.11"/><ellipse rx="20.814" ry="24.144" transform="matrix(.16 -.008 .002 .326 367.987 -386.664)" cy="905" cx="427.11"/><ellipse rx="20.814" ry="24.144" transform="matrix(.16 -.008 .002 .326 363.013 -389.543)" cy="905" cx="427.11"/></g><ellipse rx="58.28" ry="186.49" stroke="#000" transform="matrix(.157 -.061 .064 .148 369.613 -145.055)" cy="606.11" cx="624.42" stroke-width="1pt" fill="#d41c30"/><g stroke="#000" transform="matrix(1 .018 -.018 1 -34.814 -4.628)"><ellipse rx="10.823" ry="12.905" transform="matrix(.395 0 0 .293 445.072 -230.526)" cy="356.75" cx="218.13" fill="#009543"/><ellipse rx="10.823" ry="12.905" transform="matrix(.354 0 0 .293 457.174 -235.922)" cy="356.75" cx="218.13" fill="#009543"/><ellipse rx="10.823" ry="12.905" transform="matrix(.354 0 0 .293 452.004 -235.922)" cy="356.75" cx="218.13" fill="#009543"/><ellipse rx="10.823" ry="12.905" transform="matrix(.371 0 0 .275 449.481 -233.461)" cy="356.75" cx="218.13" fill="#006b3f"/><ellipse rx="10.823" ry="12.905" transform="matrix(.371 0 0 .275 448.946 -237.932)" cy="356.75" cx="218.13" fill="#006b3f"/><ellipse rx="10.823" ry="12.905" transform="matrix(.354 0 0 .293 447.013 -238.852)" cy="356.75" cx="218.13" fill="#006b3f"/><ellipse rx="10.823" ry="12.905" transform="matrix(.354 0 0 .287 448.082 -241.577)" cy="356.75" cx="218.13" fill="#006b3f"/><ellipse rx="10.823" ry="12.905" transform="matrix(.395 0 0 .293 432.772 -243.477)" cy="356.75" cx="218.13" fill="#006b3f"/><ellipse rx="10.823" ry="12.905" transform="matrix(.371 0 0 .275 445.916 -243.482)" cy="356.75" cx="218.13" fill="#006b3f"/><ellipse rx="10.823" ry="12.905" transform="matrix(.354 0 0 .287 444.161 -246.973)" cy="356.75" cx="218.13" fill="#006b3f"/><ellipse rx="10.823" ry="12.905" transform="matrix(.354 0 0 .293 436.139 -243.169)" cy="356.75" cx="218.13" fill="#006b3f"/><ellipse rx="10.823" ry="12.905" transform="matrix(.354 0 0 .287 437.42 -243.878)" cy="356.75" cx="218.13" fill="#006b3f"/><ellipse rx="10.823" ry="12.905" transform="matrix(.354 0 0 .287 438.991 -247.02)" cy="356.75" cx="218.13" fill="#006b3f"/></g><g stroke="#000" fill="#006b3f" transform="matrix(.18 -.005 .004 .185 420.986 -216.802)"><ellipse rx="67.438" ry="205.64" transform="matrix(.976 -.308 .363 .874 -245.806 324.397)" cy="564.48" cx="528.68"/><ellipse rx="13.321" ry="40.796" transform="matrix(.918 -.397 .397 .918 -210.483 304.488)" cy="646.07" cx="528.68"/><path d="M525.09 687.52c54.984 68.177 46.854 110.419 40.121 146.161-16.799-41.815-25.89-68.101-80.884-136.289s-25.671-114.376-21.211-138.984c8.004 21.589 6.981 60.923 61.974 129.112zm3.831 54.077c54.984 68.177 46.854 110.419 40.121 146.161-16.799-41.815-25.89-68.101-80.884-136.289s-25.671-114.376-21.211-138.984c8.004 21.589 6.981 60.923 61.974 129.112zm.687 43.496c56.377 67.029 49.119 109.43 43.124 145.303-17.657-41.459-27.288-67.553-83.675-134.593s-28.023-113.822-24.071-138.517c8.448 21.42 8.235 60.766 64.622 127.807z"/><ellipse rx="13.321" ry="40.796" transform="matrix(1.81 -.401 .699 1.635 -915.63 -221.014)" cy="646.07" cx="528.68"/><ellipse rx="13.321" ry="40.796" transform="matrix(1.626 -.231 .542 1.353 -739.489 -91.775)" cy="646.07" cx="528.68"/><ellipse rx="13.321" ry="40.796" transform="matrix(1.63 -.197 .513 1.364 -750.621 -91.826)" cy="646.07" cx="528.68"/><ellipse rx="13.321" ry="40.796" transform="matrix(1.314 -.201 .469 1.01 -531.056 47.568)" cy="646.07" cx="528.68"/><ellipse rx="13.321" ry="40.796" transform="matrix(1.326 -.13 .403 1.033 -517.869 12.211)" cy="646.07" cx="528.68"/><path d="M426.622 584.139c15.794 40.041 21.73 75.842 13.239 79.922-8.48 4.075-28.178-25.113-43.971-65.154"/><ellipse rx="13.321" ry="40.796" transform="matrix(1.326 -.13 .403 1.033 -519.534 -34.412)" cy="646.07" cx="528.68"/><ellipse rx="13.321" ry="40.796" transform="matrix(1.329 -.105 .38 1.04 -533.975 -40.121)" cy="646.07" cx="528.68"/><path d="M398.775 529.599c15.608 27.177 23.765 52.399 18.199 56.305-5.559 3.902-22.736-14.987-38.345-42.165m31.802-31.624c15.608 27.177 23.765 52.399 18.199 56.305-5.559 3.902-22.736-14.987-38.345-42.165m70.555-9.146c21.766 37.134 33.14 71.595 25.379 76.933-7.752 5.331-31.706-20.478-53.472-57.612m-4.832-39.301c15.608 29.965 23.765 57.774 18.199 62.081-5.559 4.302-22.736-16.525-38.345-46.49"/></g><path d="M499.682-134.631c-1.952 1.977-.037 5.659 1.752 6.987 2.007 1.817 13.277 13.697 21.216 3.654-6.367-.099-18.258-15.048-22.969-10.641zm-1.393-5.869c-1.952 1.977-.037 5.659 1.752 6.987 2.007 1.817 13.277 13.697 21.216 3.654-6.367-.099-18.258-15.048-22.969-10.641zm-1.781-5.624c-1.952 1.977-.037 5.659 1.752 6.987 2.007 1.817 13.277 13.697 21.216 3.654-6.367-.099-18.258-15.048-22.969-10.641zm-3.872-6.434c-1.952 1.977-.037 5.659 1.752 6.987 2.007 1.817 13.277 13.697 21.216 3.654-6.367-.099-18.258-15.048-22.969-10.641z" stroke="#000" stroke-width="2.5" fill="#9461c9"/><g transform="matrix(1 .018 -.018 1 12.04 10.605)"><path d="M211.17 247.3c21.77-12.06 56.61-9.75 79.73 11.17 19.36 16.94 45.31 75.19 70.32 92.83-20.22.02-31.3-5.77-42.24-15.18-28.76 15.44-38.12 16.72-63.89 15.63-35.88-1.33-62.46-17.65-68.18-40.6-6.16-21.81 4.93-52.5 24.26-63.85z" transform="matrix(.209 -.041 .047 .181 407.805 -213.636)" stroke="#000" stroke-width="2.5" fill="#9461c9"/><ellipse rx="14.154" ry="14.986" stroke="#000" transform="matrix(.245 0 0 .134 401.821 -215.18)" cy="323.04" cx="287.23" stroke-width="2.5" fill="#d41c30"/><ellipse rx="23.254" ry="15.895" stroke="#000" transform="matrix(.194 -.076 .068 .173 398.662 -208.062)" cy="348.26" cx="204.58" stroke-width="2.5" fill="#fcd116"/><ellipse rx="5.828" ry="5.828" transform="matrix(.214 0 0 .185 411.287 -233.741)" cy="333.86" cx="283.9"/><path d="M516.8 260.29c4.42 18.11-6.68 43.09-33.14 52.61-26.77 13.18-46.08 41.83-55.64 88.02-47.24-103.27-23.1-148.28 20.6-160.35 37.38-14.36 60.42-13.37 68.18 19.72z" transform="matrix(.092 .001 -.003 .085 417.852 -191.493)" stroke="#000" stroke-width="6.56" fill="#fcd116"/><ellipse rx="4.71" ry="4.71" transform="matrix(.187 -.013 .014 .191 418.686 -234.977)" cy="362.39" cx="198.98"/></g></g></svg>