<svg xmlns="http://www.w3.org/2000/svg" height="600" width="900" xmlns:xlink="http://www.w3.org/1999/xlink"><defs><clipPath id="j"><path d="M8633500 5714200c-24600 1540-49320 2310-74220 2310-543320 0-1805300-278760-2291700-696690-509520 386070-1792300 696690-2326800 696690-25070 0-49840-3070-74390-7570-1240 121770 5090 247990 12650 362790 28280 429090 103540 859700 217800 1274000 359680 1304100 1095900 2412400 2151400 3253100 1056400-841400 1793400-1950700 2153900-3255800 114440-414300 189940-844870 218490-1273900 7470-112460 13760-235680 12910-354990z"/></clipPath></defs><path fill-rule="evenodd" d="M0 300h900v300h-900z"/><path fill-rule="evenodd" fill="#ce1126" d="M0 0h900v300h-900z"/><path fill-rule="evenodd" fill="#fff" d="M0 200h900v200h-900z"/><path stroke-linejoin="round" d="M450 393.81c19.943 0 39.024-1.578 50.213-4.734 4.735-.859 4.735-3.298 4.735-6.455 4.735-1.578 2.295-7.17 5.594-7.17-3.299.862-4.016-5.594-8.033-4.732 0-5.596-5.596-6.313-10.33-4.738-9.47 3.158-26.255 3.875-42.18 3.875-15.924-.718-32.567-.718-42.179-3.875-4.734-1.575-10.327-.859-10.327 4.738-4.018-.862-4.735 5.594-8.034 4.732 3.299 0 .86 5.593 5.594 7.17 0 3.158 0 5.596 4.878 6.455 11.045 3.156 30.128 4.734 50.068 4.734z" fill-rule="evenodd" stroke="#c09300" stroke-linecap="round" stroke-width="2.378" fill="#fff"/><path stroke-linejoin="round" d="M450.81 302.4l68.488 63.579-4.876-115.47c-.716-17.5-15.924-13.485-26.971-7.172-11.191 7.172-23.958 7.172-37.446 2.437-13.485 4.735-26.253 4.735-37.444-2.437-11.046-6.312-26.252-10.328-26.97 7.172l-4.879 115.47 70.098-63.579z" fill-rule="evenodd" stroke="#c09300" stroke-linecap="round" stroke-width="1.27" fill="#fff"/><use fill-rule="evenodd" xlink:href="#a" transform="matrix(-1 0 0 1 900 0)" height="600" width="900"/><path d="M453.16 315.06l9.613 43.755-3.158 3.155-3.299-2.439-5.452-39.018 2.296 39.018-3.157 4.016-3.156-4.016 2.296-39.018-5.451 39.018-3.302 2.439-3.155-3.155 9.611-43.755h6.314z" fill-rule="evenodd" stroke="#c09300" stroke-linecap="square" stroke-width="1.074" fill="#c09300"/><path id="b" d="M393.47 246.49l-4.734 112.32-8.035 7.168 4.878-115.47c2.295-1.578 6.313-4.017 7.891-4.017z" fill-rule="evenodd" fill="#c09300"/><path id="c" d="M403.09 254.53l-4.017 93.955-8.032 8.22 4.877-108.49c1.579 1.577 6.314 5.45 7.172 6.31z" fill-rule="evenodd" fill="#c09300"/><path id="d" d="M411.84 261.7l-3.155 78.362-6.456 6.309 4.018-89.405c1.575 1.578 4.731 3.873 5.592 4.733z" fill-rule="evenodd" fill="#c09300"/><path id="e" d="M421.31 265.72l-3.156 66.787-6.313 5.119 3.156-74.344c1.579.716 4.735 2.438 6.313 2.438z" fill-rule="evenodd" fill="#c09300"/><path id="a" d="M430.06 265.72l-2.297 55.657-6.454 6.313 2.439-61.252c1.576-.001 5.594-.001 6.313-.718z" fill-rule="evenodd" fill="#c09300"/><use fill-rule="evenodd" xlink:href="#b" transform="matrix(-1 0 0 1 900 0)" height="600" width="900"/><use fill-rule="evenodd" xlink:href="#c" transform="matrix(-1 0 0 1 900 0)" height="600" width="900"/><use fill-rule="evenodd" xlink:href="#d" transform="matrix(-1 0 0 1 900 0)" height="600" width="900"/><use fill-rule="evenodd" xlink:href="#e" transform="matrix(-1 0 0 1 900 0)" height="600" width="900"/><path stroke-linejoin="round" d="M428.48 295.84l-19.08 67.705 26.255 4.018 11.188-50.924-18.363-20.799zm43.04 0l19.079 67.705-26.252 4.018-11.191-50.924 18.364-20.799z" fill-rule="evenodd" stroke="#c09300" stroke-linecap="round" stroke-width="1.189" fill="#fff"/><use fill-rule="evenodd" xlink:href="#f" transform="matrix(-1 0 0 1 900 0)" height="300" width="218"/><use fill-rule="evenodd" xlink:href="#g" transform="matrix(-1 0 0 1 899.79 0)" height="300" width="218"/><path id="f" stroke-linejoin="round" d="M422.17 318.94l2.296 5.593 12.405-11.848" stroke="#c09300" stroke-linecap="round" stroke-width="1.27" fill="none"/><path id="i" stroke-linejoin="round" d="M430.76 304.92l2.596 24.346 7.891-10.328" stroke="#c09300" stroke-linecap="round" stroke-width="1.27" fill="none"/><path id="k" stroke-linejoin="round" d="M438.09 322.95l4.31 14.875" stroke="#c09300" stroke-linecap="round" stroke-width="1.27" fill="none"/><path id="g" stroke-linejoin="round" d="M444.09 332.36l-8.718 13.241m2.719 13.216l-2.79-13.198-2.436-13.423-5.841 7.909-2.561-9.119-8.175 8.385 4.157 15.251 5.737-9.435 3.156 9.612 5.89-9.162" stroke="#c09300" stroke-linecap="round" stroke-width="1.271" fill="none"/><path id="h" stroke-linejoin="round" d="M414.99 361.97l5.3-7.444 3.453 11.457 4.734-8.032 3.158 9.614" stroke="#c09300" stroke-linecap="round" stroke-width="1.27" fill="none"/><use fill-rule="evenodd" xlink:href="#h" transform="matrix(-1 0 0 1 900.21 0)" height="300" width="218"/><path stroke-linejoin="round" d="M422.89 363.54c6.454.861 13.628 1.578 19.225.861 3.153 0 5.449 5.45-.863 6.313-5.593.715-14.345 0-19.08-.862-4.017-.718-12.768-2.295-18.364-3.875-5.595-2.436-1.576-7.168 1.577-6.452 4.879 1.577 11.192 3.156 17.505 4.016zm54.23 0c-6.457.861-13.628 1.578-19.081.861-3.301 0-5.596 5.45.717 6.313 5.596.715 14.347 0 19.078-.862 4.019-.718 12.769-2.295 18.364-3.875 5.597-2.436 1.58-7.168-1.577-6.452-4.878 1.577-11.19 3.156-17.501 4.016zm-74.03-3.15c-4.877-.861-7.172 4.732-5.593 7.887.716-1.578 4.016-1.578 4.735-3.155.858-2.437-.718-2.437.858-4.732zm19.08 14.67c0-3.153 3.155-2.765 3.155-5.921 0-1.577-.859-4.017-2.437-4.017-1.579 0-3.158 1.578-3.158 3.155-.718 3.157 2.44 3.631 2.44 6.783zm22.71-9.08c4.731 0 4.262 6.314 1.966 9.47 0-2.295-4.016-3.156-4.016-4.732 0-2.442 3.626-2.442 2.051-4.738zm52.03-5.59c4.878-.861 7.174 4.732 5.595 7.887l-4.734-3.155c-.861-2.437.718-2.437-.861-4.732zm-19.08 14.67c0-3.153-3.153-2.765-3.153-5.921 0-1.577.86-4.017 2.438-4.017 1.577 0 3.156 1.578 3.156 3.155.718 3.157-2.441 3.631-2.441 6.783zm-22.71-9.08c-4.732 0-4.263 6.314-1.967 9.47 0-2.295 4.016-3.156 4.016-4.732.001-2.442-3.626-2.442-2.048-4.738z" fill-rule="evenodd" stroke="#c09300" stroke-linecap="round" stroke-width="1.27" fill="#fff"/><path stroke-linejoin="round" d="M404.67 361.97c1.58 0 4.018.718 4.735 1.577l-4.735-1.577zm7.88 2.44c.862 0 4.018.716 5.596 1.575l-5.596-1.575zm28.7 3.15c-1.578 0-4.734 0-5.593.715l5.593-.715zm-8.75 0c-.859-.862-4.016-.862-5.593 0h5.593z" stroke="#c09300" stroke-linecap="round" stroke-width=".892" fill="none"/><path stroke-linejoin="round" d="M495.34 361.97c-1.578 0-3.875.718-4.735 1.577l4.735-1.577zm-7.89 2.44c-.86 0-4.017.716-5.595 1.575l5.595-1.575zm-28.7 3.15c1.579 0 4.735 0 5.595.715l-5.595-.715zm8.75 0c.86-.862 4.018-.862 5.595 0h-5.595z" fill-rule="evenodd" stroke="#c09300" stroke-linecap="round" stroke-width=".892" fill="#fff"/><use fill-rule="evenodd" xlink:href="#i" transform="matrix(-1 0 0 1 900.15 0)" height="300" width="218"/><path d="M449.98 327.23c32.642-25.106 29.843-61.883 29.843-61.883-.861.172-1.679.258-2.541.258-6.847 0-23.178-3.917-26.988-8.893-4.081 4.503-20.77 8.893-27.574 8.893-.861 0-1.722-.086-2.541-.258 0 0-2.842 36.776 29.8 61.883z" fill-rule="evenodd" stroke="#c09300" stroke-width="1.15" fill="#fff"/><path fill-rule="evenodd" fill="#fff" d="M477.22 268.04c-.281.018-.563.026-.848.026-6.205 0-20.619-3.184-26.175-7.957-5.819 4.41-20.471 7.957-26.576 7.957-.286 0-.569-.035-.85-.086-.014 1.391.058 2.832.144 4.144.323 4.901 1.183 9.819 2.488 14.552 4.108 14.895 12.516 27.553 24.572 37.155 12.066-9.61 20.484-22.28 24.601-37.186 1.307-4.732 2.169-9.65 2.495-14.55.085-1.284.157-2.692.147-4.054z"/><path d="M378.62 202.77zm0 0z" fill="#c09300" fill-rule="evenodd" clip-path="url(#j)"/><use fill-rule="evenodd" xlink:href="#k" transform="matrix(-1 0 0 1 899.69 0)" height="300" width="218"/><path d="M403.34 374.58c-.534-.102-.815-.525-.68-1.025.164-.609.652-.957 1.113-.794.293.104.83.645.832.839.003.223-.281.753-.403.754-.053.001-.134.046-.181.102-.1.118-.413.175-.68.124zm54.926 3.923c-.199-.074-.515-.518-.515-.724.002-.387.574-1.018.929-1.021.175-.001.655.248.834.435.325.338.254.893-.154 1.208-.201.155-.8.211-1.094.103zm.363 2.48c-.42-.142-.574-.348-.608-.814-.035-.485.012-.561.525-.841l.366-.199.346.154c.48.214.693.445.71.767.018.348-.24.703-.64.883-.352.158-.373.159-.699.049zm-54.26-3.066c.257-.222.262-.448.012-.555-.158-.067-.25-.051-.561.097-.313.149-.369.206-.352.357.019.172.154.23.621.27.041.003.167-.073.279-.17zm8.431 4.402c-.226-.076-.785-.211-1.241-.298-1.051-.202-2.682-.57-3.122-.704-.186-.057-.525-.145-.752-.195-.418-.093-.632-.156-1.317-.386-.207-.07-.715-.21-1.128-.311-.414-.102-.897-.245-1.074-.318-.177-.073-.387-.133-.466-.132-.079.001-.256-.059-.393-.132-.137-.073-.466-.153-.732-.178-.554-.051-.967-.246-1.202-.567-.199-.273-.204-.487-.02-.863.078-.159.142-.346.143-.416.001-.07.068-.183.15-.251.082-.069.148-.156.148-.195-.001-.085.348-.591.554-.803.27-.279.829-.548 1.146-.552.186-.003.349-.051.43-.13.089-.088.293-.14.653-.169l.523-.041.204-.362c.112-.199.206-.459.207-.578.002-.119.055-.313.118-.433.063-.119.16-.412.215-.65.209-.903.36-1.404.45-1.492.131-.128.118-.183-.108-.461-.122-.15-.264-.245-.366-.244-.25.003-.66.151-.789.286-.257.269-.597.448-.856.45-.356.003-.814-.251-.985-.548-.134-.233-.134-.246.022-.563.102-.206.235-.353.365-.403.311-.119 1.105-.059 1.288.097.13.11.226.122.642.075.269-.031.505-.082.526-.114.02-.032.186-.081.368-.11s.349-.097.37-.152c.022-.056.158-.124.302-.151.145-.028.302-.096.349-.151.047-.056.182-.102.3-.103.165-.001.243.051.341.228.112.203.117.286.037.702-.05.259-.152.592-.227.74-.075.148-.136.394-.134.548.002.176-.052.342-.145.447-.082.092-.147.241-.146.331.001.09-.05.214-.113.276-.063.062-.15.316-.192.565-.043.249-.119.518-.169.598-.051.08-.112.296-.137.481-.025.185-.094.376-.153.424-.059.048-.107.19-.105.316.001.125-.059.347-.134.493-.075.146-.159.437-.185.647-.026.21-.091.448-.143.527-.052.08-.118.307-.146.505-.028.198-.099.435-.159.526-.098.149-.093.185.044.366.222.293.874.504 1.537.497.516-.003.544-.014.729-.242.112-.137.213-.38.242-.579.027-.188.097-.432.155-.541.058-.109.103-.383.101-.607-.004-.381-.022-.423-.272-.617-.248-.192-.262-.222-.18-.399.084-.182.425-.338.746-.342.067-.001.201-.063.298-.137.098-.075.25-.159.34-.186.089-.028.29-.165.446-.305.328-.294.53-.301.696-.024.103.173.102.227-.011.54-.069.191-.124.491-.122.666.002.175-.043.37-.099.433-.057.063-.136.261-.177.439-.041.179-.124.455-.186.614-.061.159-.112.42-.112.58 0 .16-.066.419-.147.575-.212.411-.186.661.084.781l.302.153c.104.056.324.102.489.102.165.001.446.062.625.137.179.076.538.156.799.179.465.041.479.037.686-.191.13-.143.247-.391.304-.642l.135-.571c.072-.275-.048-.636-.282-.851-.412-.38-.241-.89.3-.896.233-.003.866-.255 1.033-.413.452-.426.733-.538 1.009-.4.218.109.288.408.153.647-.057.1-.148.376-.204.614-.056.238-.168.663-.25.944-.082.281-.2.768-.264 1.083-.063.314-.178.764-.255.999-.077.235-.139.489-.138.564.001.075-.069.299-.155.497-.251.578-.624.691-1.407.426zm-9.677.037c-.496-.466-.416-.806.317-1.353.314-.234.504-.207.863.12.552.504.574.823.087 1.255-.241.213-.346.257-.627.26-.293.003-.377-.033-.64-.282zm3.048.926c-.485-.12-.764-.608-.623-1.088.129-.435.203-.477.84-.484.715-.007.854.112.86.742.004.354-.024.437-.2.6-.207.193-.605.296-.878.229zm89.107.078c-.227-.189-.273-.274-.275-.515-.003-.411.233-.712.746-.944.682-.309.96-.266 1.217.186.342.601.325.847-.084 1.252-.226.224-.268.237-.785.242-.508.003-.566-.011-.819-.221zm-85.058 1.149c-.364-.097-.552-.37-.557-.807-.004-.334.02-.387.254-.57.151-.118.39-.22.579-.245.267-.036.364-.013.579.138.551.387.667.77.349 1.141-.34.396-.661.488-1.203.343zm21.918.983l-.28-.241.038-.602c.021-.331.088-.732.148-.891.06-.159.109-.523.108-.809-.002-.286.045-.659.103-.829.058-.17.153-.805.212-1.411s.139-1.184.177-1.284c.038-.101.068-.367.066-.592-.003-.225.056-.622.131-.882.086-.301.135-.719.134-1.153-.001-.375.033-.795.075-.933s.075-.328.074-.422c-.002-.177.256-.59.37-.591.036 0 .188.173.338.384.15.212.451.55.668.751.961.888.918.81.606 1.103-.115.108-.242.196-.284.196-.042 0-.165.092-.275.205-.165.169-.199.271-.198.596.001.216-.051.522-.114.681-.104.262-.211 1.235-.249 2.271-.008.218-.046.445-.085.505-.038.06-.084.58-.102 1.156-.018.576-.063 1.095-.101 1.153-.038.058-.071.235-.074.394-.011.586-.14 1.116-.315 1.3-.138.144-.247.182-.531.185-.302.003-.401-.034-.638-.238zm29.052-.664l.391-.116-.027-.374-.026-.374-.312-.019c-.261-.016-.344.015-.507.185-.288.302-.321.521-.101.679l.186.132.396-.114zm-2.278 1.554c-.157-.217-.164-.267-.092-.665.043-.237.082-.641.088-.898.004-.257.049-.539.097-.626.048-.087.086-.267.084-.4-.003-.188.064-.306.294-.526.163-.156.296-.319.296-.362-.001-.094.585-.547.709-.548.048 0 .148-.066.221-.146.074-.08.225-.146.336-.147.111-.001.29-.077.399-.168.185-.156.197-.204.191-.791-.003-.377-.055-.756-.128-.955-.067-.182-.114-.401-.105-.487.008-.086-.014-.497-.05-.913-.059-.673-.088-.777-.262-.951-.108-.108-.238-.196-.289-.195-.094.001-.448-.412-.398-.464.517-.552 1.437-1.42 1.54-1.452.211-.067.529.076.61.275.04.098.096.527.124.954.029.427.086.971.129 1.208.042.237.117.982.165 1.654.048.673.121 1.336.162 1.474.041.138.102.753.135 1.367.033.613.095 1.24.137 1.393.144.526.747.841 1.176.614.071-.037.392-.11.713-.162.747-.12.76-.143.694-1.207-.046-.738-.07-.841-.25-1.063-.11-.135-.283-.265-.386-.289-.206-.047-.335-.222-.337-.456-.001-.166.386-.554.629-.629.083-.025.306-.174.496-.329.424-.347.704-.373.967-.09.169.181.187.275.244 1.24.043.745.096 1.105.184 1.258.089.156.125.413.131.944.003.497.047.814.128.997.106.236.107.295.014.495l-.154.386c-.061.202-.174.235-.864.253-.309.009-.697.052-.861.098-.165.046-.603.09-.974.1-1.584.039-3.747.222-3.865.327-.088.078-.342.106-1.011.112l-.894.009-.17-.234zm-33.776-5.944c.198-.136.214-.322.032-.368-.231-.058-.419-.378-.435-.742-.029-.654-.335-.692-.905-.11-.164.167-.414.393-.556.501l-.258.197.187.189c.314.316.664.441 1.242.444.367.002.577-.032.693-.111zm2.326 7.132c-.114-.038-.207-.094-.208-.123-.001-.068-.711-.503-.821-.502-.045 0-.102-.088-.126-.197-.024-.109-.114-.41-.201-.67-.151-.455-.149-.805.006-.899.112-.068.071-.291-.077-.417-.09-.077-.326-.132-.658-.153-.705-.046-.786-.067-1.034-.275-.177-.148-.228-.264-.282-.65-.039-.275-.121-.527-.198-.607-.137-.143-.371-.181-.44-.071-.022.035-.142.084-.267.109-.153.031-.251.108-.299.233-.04.103-.159.299-.265.436-.185.238-.215.249-.675.254-.265.003-.593-.039-.731-.092-.295-.115-.621-.165-1.436-.221-1.169-.08-1.71.008-1.8.291-.125.393-1.07 1.201-1.482 1.268-.165.027-.446.096-.623.155-.178.058-.356.087-.396.064-.04-.023-.435-.087-.877-.141-.836-.103-1.144-.243-1.147-.523-.002-.17.511-.428.709-.356.213.077.563.073.562-.007 0-.037.182-.105.405-.152.223-.047.446-.132.495-.19.049-.058.187-.106.306-.107.177-.001.258-.065.437-.343.121-.187.219-.386.219-.441-.001-.055.066-.184.147-.285.088-.11.147-.294.145-.454-.002-.148.048-.411.109-.585.106-.298.102-.345-.06-.818-.095-.276-.214-.526-.266-.556-.052-.03-.135-.167-.184-.306-.131-.367.01-.695.541-1.263.056-.06.124-.215.152-.344.052-.244.22-.38.475-.382.187-.003.541.386.543.596.001.087.057.232.123.322.074.099.15.424.193.824.073.684.194 1.387.284 1.656.077.229.486.546.706.546.106.001.396.045.644.1.248.055.646.098.884.097.432-.003.434-.003.876-.447.244-.244.442-.481.44-.526-.011-.288-.977-.807-1.754-.943-.272-.048-.463-.38-.404-.702.05-.274.413-.749.766-1.004.135-.098.583-.272.996-.387l.75-.209.207-.405c.395-.771 1.226-1.381 1.891-1.388.332-.003.402.035.668.365l.307.381c.294.363.461.792.416 1.075-.042.264.071.684.183.683.103-.001 1.197 1.063 1.249 1.215.026.077.078.139.114.139.093-.001.228.48.232.828.006.515-.109.592-.909.606-.383.007-.848.058-1.033.113l-.336.1-.018.399c-.024.541.112.691.7.776.245.035.48.097.523.137.043.04.166.072.273.071.108-.001.262.044.342.099.132.091.148.194.157 1.024l.01.923.245.073c.135.04.285.112.335.159.178.167.412.096.507-.153l.152-.38c.035-.08.094-.566.132-1.081.038-.515.115-1.067.172-1.226.057-.159.136-.676.177-1.15.041-.473.112-.905.158-.96.047-.055.098-.507.117-1.024.027-.739.06-.953.163-1.065.109-.118.128-.283.119-1.035l-.01-.894-.301-.249c-.201-.166-.302-.309-.303-.429-.002-.26.068-.335.444-.473l.634-.232c.164-.06.333-.148.374-.196.13-.15.547-.416.655-.417.057-.001.16.058.229.129.161.168.176.852.025 1.138-.065.123-.108.402-.105.684.003.262-.046.619-.109.793-.065.181-.148.838-.193 1.541-.043.674-.119 1.296-.168 1.383-.049.087-.087.379-.085.649.002.27-.045.767-.105 1.104-.06.337-.14.904-.178 1.259-.038.355-.116.757-.173.894s-.124.479-.148.761c-.024.282-.104.626-.179.765s-.135.309-.134.379c.002.181-.386.849-.494.851-.05.001-.124.063-.165.137-.04.074-.176.156-.301.181-.125.025-.32.109-.432.187-.24.166-.939.252-1.235.153zm63.101-5.674c.464-.2.596-.446.414-.775-.156-.283-.385-.395-.757-.371-.432.028-.786.312-.782.628.003.205.054.277.324.455.177.116.346.214.377.217.03.003.222-.066.426-.154zm-5.986.054c.32-.148.359-.191.359-.403.001-.326-.296-.711-.735-.953-.465-.257-.632-.252-.839.023-.162.215-.163.233-.046.553.067.182.122.38.123.439.001.143.455.503.636.505.079.001.304-.073.501-.164zm-2.667.253c.026-.123.023-.403-.008-.622-.044-.315-.104-.439-.284-.593-.271-.233-.411-.211-.732.114-.207.209-.237.292-.245.669-.012.592.069.668.709.662.509-.003.51-.003.558-.229zm-5.957 1.114c.258-.132.32-.275.254-.593-.099-.48-.702-.621-.994-.234-.089.118-.161.244-.161.281 0 .036-.049.106-.109.156-.087.071-.092.122-.024.243.048.085.124.177.169.206.141.088.642.054.864-.059zm9.48.856c.21-.162.228-.39.043-.553-.218-.191-.616-.188-1.025.007-.244.116-.312.189-.31.329.001.12.059.202.171.244.253.095.986.077 1.121-.027zm-11.628 3.471c-.086-.081-.06-.434.038-.511.051-.04.177-.098.28-.128.103-.03.237-.098.298-.149.061-.052.28-.119.486-.149.74-.109 1.385-.696 1.387-1.262.003-.156-.022-.319-.051-.362-.085-.128-1.38-.051-2.082.125-.166.042-.248.008-.452-.183l-.249-.234-.036-1.059-.035-1.059.324-.358c.178-.197.404-.486.501-.643.098-.157.199-.295.226-.307.027-.012.179-.137.338-.278.314-.279.831-.562 1.18-.647.121-.029.255-.101.299-.159.043-.058.177-.114.296-.124.184-.015.249.031.428.304.116.177.216.419.223.538.005.119.062.345.124.503.062.158.136.473.165.701.029.228.09.458.136.512.114.133 1.021.196 1.179.082.088-.064.127-.257.151-.744.018-.377.081-.754.146-.883.063-.124.136-.331.162-.46.073-.354.665-1.172 1.018-1.408.172-.115.355-.247.406-.295.051-.048.169-.11.261-.138.223-.069.276-.162.274-.481-.002-.275-.23-.591-.703-.972-.114-.092-.209-.225-.209-.294-.003-.204.217-.591.563-.994.177-.206.323-.402.324-.435.001-.033.119-.134.262-.223.204-.128.299-.148.447-.096.201.071.257.17.442.787.245.815.302 1.053.362 1.514.034.26.085.508.113.551.028.043.36.144.737.225.377.081.758.19.846.242.088.052.244.118.347.146.256.071.605.322.606.437l.063.094c.081-.001.459.549.807 1.173.391.703.368.687.992.681.502-.003.56-.021.701-.197.084-.105.152-.28.151-.388-.003-.225.19-.49.66-.906l.49-.437c.291-.264.622-.474.749-.476.069-.001.44.127.825.285.568.233.739.339.909.571.371.503 1.163.71 1.556.407.104-.08.226-.146.271-.147.045 0 .081-.05.081-.111-.001-.152-.307-.983-.401-1.089-.042-.048-.111-.338-.154-.645s-.148-.704-.233-.882c-.104-.217-.17-.547-.201-1.005-.026-.375-.114-.922-.196-1.216-.082-.294-.15-.625-.151-.736-.007-.531-.457-1.231-.915-1.421l-.377-.18c-.271-.147-.628-.126-.787.046-.074.08-.205.146-.291.147-.159.001-.64.389-.639.514 0 .037-.11.069-.246.071-.201.003-.292-.053-.491-.296-.134-.164-.245-.333-.246-.376-.001-.042-.137-.189-.303-.326-.246-.203-.302-.297-.305-.507-.003-.206.034-.275.183-.342.103-.046.186-.116.186-.154 0-.039.126-.092.28-.12.154-.027.55-.119.879-.204.829-.214 2.319-.227 2.682-.022.134.076.331.156.436.179.246.053.896.653 1.029.95.056.125.134.246.172.269.039.022.095.178.125.346.03.168.101.402.158.52.084.177.197.917.312 2.049.021.203.172.896.291 1.329.043.158.128.525.188.815.06.29.163.584.229.651.065.068.119.181.12.251.003.281.779.753 1.23.749.393-.003.981-.269 1.35-.608.209-.193.461-.371.56-.396.202-.051.531.104.649.306.143.246.379.463.693.638.339.188.461.437.333.674-.043.079-.136.144-.206.145-.071.001-.308.085-.528.185-.22.101-.462.184-.538.185-.077.001-.502.118-.946.262-.444.143-1.228.347-1.742.454-.91.188-2.13.527-2.281.632-.041.029-.209.076-.374.105-.51.089-.554.116-.602.378-.06.323-.746 1.041-1.254 1.311-.352.187-.425.198-1.301.198-.511-.003-.989-.019-1.064-.041-.074-.022-.158-.135-.186-.251-.028-.117-.152-.279-.278-.363-.239-.16-.512-.155-1.124.019l-.272.078-.045.711c-.025.391-.09.788-.145.882l-.171.316c-.04.08-.244.292-.454.473-.21.18-.516.451-.68.601-.338.31-.629.357-.832.134-.075-.082-.223-.142-.348-.141-.252.003-.835-.237-1.202-.493-.225-.157-.697-.927-.699-1.141 0-.041-.069-.139-.152-.217-.12-.113-.249-.141-.62-.135-.258.004-.62.042-.805.083-.185.041-.636.11-1.002.154-.366.043-.774.124-.906.179-.132.054-.383.124-.558.154-.46.08-.6.248-.595.718.003.249-.034.418-.102.474-.059.048-.127.178-.151.29-.063.29-.677.886-1.114 1.081-.205.092-.497.231-.649.311-.227.119-.426.146-1.13.153-.47.003-.877-.013-.904-.039zm-5.95.647l-.171-.116.15-.207c.083-.114.276-.248.429-.298.523-.171.875-.384 1.303-.79.235-.223.426-.46.425-.528-.001-.068.09-.23.202-.36.195-.228.203-.269.188-.997-.015-.744-.054-.9-.332-1.33-.132-.205-.58-.529-1.036-.751-.303-.147-.411-.447-.254-.702.065-.107.273-.504.461-.882l.432-.868c.135-.272.471-.287.698-.031.214.242.561.854.562.993.001.054.066.157.145.227.171.151.541.786.542.931.001.056.09.245.199.419.135.216.2.425.205.659.005.188.058.463.12.611.181.429.123 1.867-.092 2.269-.09.169-.188.309-.219.31-.03.001-.154.135-.276.297-.233.309-1.027.867-1.237.869-.068.001-.172.075-.233.164-.103.153-.171.165-1.076.195-.8.027-.995.013-1.137-.084zm-6.846.447c-.243-.25-.295-.355-.298-.6-.003-.247.045-.346.282-.586.438-.443.652-.453 1.409-.07.723.366.968.399 1.032.14.063-.25.479-.479.874-.481.25-.002.392.048.592.204.251.196.263.226.27.679.004.463-.002.481-.29.736-.277.244-.322.259-.665.225-.437-.044-.7-.244-.771-.588-.052-.25-.139-.31-.205-.14-.021.055-.129.122-.239.15-.204.051-.549.269-.794.5-.093.087-.255.129-.519.131-.356.003-.405-.018-.678-.299zm-6.309-3.895c.166-.063.201-.112.165-.23l-.13-.492c-.072-.294-.109-.341-.268-.339-.171.001-.489.181-.779.44-.143.128-.232.44-.154.544.171.23.672.264 1.166.077zm-5.791 2.176c.166-.126.17-.161.164-1.482l-.007-1.354-.202-.176c-.194-.169-.263-.179-1.645-.233-.793-.031-1.573-.097-1.732-.147-.209-.065-.395-.071-.669-.02-.247.046-.541.045-.843-.003-1.122-.176-1.868-.036-2.139.401-.128.206-.128.229-.006.423.071.113.214.219.318.237.104.018.346.079.537.136.213.063.667.102 1.164.101.448 0 1.203.022 1.678.052s1.135.061 1.467.069c.432.011.664.052.817.146l.213.131-.044.696c-.042.667-.036.702.131.845.202.172.443.306.552.305.041 0 .152-.058.245-.129zm-.634 2.305c0-.035-.188-.149-.416-.254-.442-.202-.821-.508-1.052-.851-.161-.239-.351-.844-.355-1.135-.001-.144-.048-.207-.172-.234-.51-.112-1.805-.254-2.76-.302-.598-.03-1.719-.117-2.491-.194-1.675-.166-2.315-.142-2.539.093-.085.089-.19.267-.235.395-.044.128-.208.403-.364.611-.156.208-.283.412-.282.453l-.074.076c-.041 0-.136.058-.21.128-.191.18-.576.445-.775.534l-.355.181c-.269.153-2.145.17-2.447.023-.119-.058-.319-.105-.445-.104-.126.001-.295-.043-.374-.098-.12-.083-.133-.134-.072-.304.087-.245.337-.307 1.306-.323.538-.009.696-.041 1.01-.203.376-.195 1.019-.665 1.069-.783l.166-.181c.077-.064.16-.232.184-.372.025-.14.11-.382.19-.538.167-.327.147-.525-.137-1.337-.292-.836-.395-1.021-.728-1.302-.419-.353-.409-.521.06-.998.205-.209.493-.556.639-.773.238-.352.291-.392.5-.374.2.017.265.077.448.413.282.518.668 1.415.67 1.554.001.06.05.211.11.335.06.124.148.344.197.489.12.357.186.394.807.446.652.055.66.046.717-.829.022-.334.074-.641.115-.682.042-.041.075-.138.074-.216-.002-.174-.376-1.203-.471-1.297-.127-.125-.075-.491.114-.808.103-.173.215-.315.249-.315s.189-.086.346-.19c.391-.26.976-.324 1.227-.133.163.124.188.211.225.774.038.573.061.65.24.798.109.09.28.164.38.164.1.001.243.052.318.116.113.097.377.118 1.582.127 1.666.013 2.597.057 2.715.129.046.028.336.049.645.047.309-.003.984.021 1.5.051.903.052.946.062 1.165.268l.228.214.017.959c.02 1.106.084 1.248.567 1.243.424-.003.544-.134.578-.625.016-.234.072-.459.125-.501.053-.042.146-.194.207-.338.126-.299.649-.826.891-.899.089-.027.229-.107.311-.178.082-.071.25-.148.373-.171.54-.102 1.134-.301 1.274-.428.097-.088.278-.143.502-.154.287-.013.377.014.502.156.179.203.212.358.283 1.346.029.408.09.829.136.935.046.106.103.613.128 1.128l.045.936-.234.308-.234.307-2.426.021c-1.334.011-2.543.043-2.685.07-.282.054-.349.202-.343.755.003.172-.048.313-.139.394-.078.069-.161.203-.185.298-.045.18-.542.557-.861.653-.103.031-.237.096-.298.145-.176.14-.739.407-.86.408-.06.001-.11-.027-.111-.063z" fill-rule="evenodd" fill="#c09300"/><g fill-rule="evenodd"><path d="M462.311 253.095c.667.039-.902-3.568-.902-3.568 1.764 1.804 8.43 2.235 8.43 2.235-3.999-1.766-7.998-15.096-7.528-25.721.432-10.664-1.528-14.859-3.097-16.428-1.999-1.999-8.43-3.764-12.664-3.999-2.392-.118-1.999 1.804-1.999 1.804-4.431-1.137-8.861-1.568-10.861-.235-1.882 1.255-2.274 7.528-.902 6.43 3.333-2.666 6.234-.235 8.234 2.666 1.764 2.549 1.647 9.763-.902 18.192-2.666 8.861-9.959 17.722-9.959 17.722 3.96 0 9.528-3.529 9.528-3.529l-1.333 5.528c4.195-2 7.528-5.097 7.528-5.097l3.999 4.195c1.333-1.764 3.999-4.195 3.999-4.195s3.333 3.529 8.43 3.999z" fill="#fff"/><path d="M446.119 227.57s-2.235 16.428-6.43 21.094m9.959-21.525s-.863 16.623-3.764 21.956m6.9-21.29s0 18.192 1.098 21.289m2.863-20.387s.902 15.291 4.666 20.819" fill="none"/><path d="M442.081 219.612c-.196-1.451-.549-2.588-1.059-3.333-2-2.901-4.901-5.332-8.234-2.666 0 0 1.137-3.529 3.568-3.646 1.882-.118 6.156 1.411 9.92 7.841 0 0-2.784-.627-3.45-.039-1.255 1.098-.745 1.843-.745 1.843zm-9.645-10.352c.274-.902.706-1.725 1.255-2.078 2-1.333 6.43-.902 10.86.235 0 0-.392-1.921 2-1.804 4.234.235 10.665 2 12.664 3.999.47.51 1.019 1.255 1.49 2.392h-.078c-.98-1.372-3.764-1.294-4.431-1.215-1.059.118-1.725.078-3.137.431-.667.157-1.686.353-2.235.784-.431.353-.784 1.647-1.451 1.647-1.059 0-.98-.274-1.255-.588-.353-.431-.549-1.059-.902-1.019-1.098.196-2.862-.666-5.097-2.431-2.234-1.764-3.097-2.196-5.998-2-2.862.235-3.764 1.843-3.764 1.843l.078-.196z" fill="#c09300"/><path fill="#fff" d="M448.824 211.848c.666 0 1.176-.51 1.176-1.176 0-.667-.51-1.176-1.176-1.176-.627 0-1.176.51-1.176 1.176 0 .667.549 1.176 1.176 1.176z"/></g><path d="M477.22 268.04c-.281.018-.563.026-.848.026-6.205 0-20.619-3.184-26.175-7.957-5.819 4.41-20.471 7.957-26.576 7.957-.286 0-.569-.035-.85-.086-.014 1.391.058 2.832.144 4.144.323 4.901 1.183 9.819 2.488 14.552 4.108 14.895 12.516 27.553 24.572 37.155 12.066-9.61 20.484-22.28 24.601-37.186 1.307-4.732 2.169-9.65 2.495-14.55.085-1.284.157-2.692.147-4.054z" stroke="#c09300" stroke-width=".916" fill="none"/></svg>