<svg xmlns="http://www.w3.org/2000/svg" width="1200" height="600"><path fill="#da121a" d="M0 0h1200v600h-1200z"/><path fill="#fcdd09" d="M0 0h1200v400h-1200z"/><path fill="#078930" d="M0 0h1200v200h-1200z"/><circle fill="#0f47af" cx="600" cy="300" r="200"/><path d="M447.831 249.935h116.247l26.284-80.893 7.01 21.574-38.196 117.555-11.342-8.24 11.912-36.661h-93.563l-18.352-13.333m58.123 178.885l35.922-110.557-68.812-49.995h22.684l99.998 72.653-11.342 8.24-31.186-22.658-28.913 88.983-18.352 13.333m188.091 0l-94.046-68.328-68.812 49.995 7.01-21.574 99.998-72.653 4.332 13.333-31.186 22.658 75.694 54.995 7.01 21.574m58.123-178.885l-94.046 68.328 26.284 80.893-18.352-13.333-38.196-117.555h14.019l11.912 36.661 75.694-54.995h22.684m-152.169-110.557l35.922 110.557h85.056l-18.352 13.333h-123.604l4.332-13.333h38.548l-28.913-88.983 7.01-21.574z" fill="#fcdd09"/><path d="M600 373.333v86.667m-69.744-137.339l-82.425 26.781m556.896 240.672l58.123-178.885m137.15 70.115l50.941-70.115m-24.302 152.104l82.425 26.781-82.425-26.781z" stroke="#fcdd09" stroke-width="6.667"/></svg>