<svg xmlns="http://www.w3.org/2000/svg" xmlns:xlink="http://www.w3.org/1999/xlink" width="1000" height="500" version="1"><defs><linearGradient id="a"><stop offset="0" stop-color="#a43907" stop-opacity=".996"/><stop offset="1" stop-color="#fff"/></linearGradient><linearGradient xlink:href="#a" x1="261.076" y1="1065.744" x2="181.361" y2="1059.067" gradientUnits="userSpaceOnUse" gradientTransform="scale(1.746 .573)"/><linearGradient xlink:href="#a" x1="378.89" y1="558.253" x2="336.015" y2="554.885" gradientUnits="userSpaceOnUse" gradientTransform="scale(.935 1.07)"/><linearGradient xlink:href="#a" x1="517.971" y1="553.743" x2="456.44" y2="558.125" gradientUnits="userSpaceOnUse" gradientTransform="scale(.936 1.068)"/><linearGradient xlink:href="#a" x1="472.379" y1="578.678" x2="445.284" y2="580.196" gradientUnits="userSpaceOnUse" gradientTransform="scale(1.003 .997)"/><linearGradient xlink:href="#a" x1="359.578" y1="570.026" x2="333.527" y2="569.539" gradientUnits="userSpaceOnUse" gradientTransform="scale(.976 1.024)"/><linearGradient xlink:href="#a" x1="579.837" y1="504.937" x2="556.805" y2="505.856" gradientUnits="userSpaceOnUse" gradientTransform="scale(.835 1.197)"/><linearGradient xlink:href="#a" x1="422.587" y1="473.524" x2="399.477" y2="473.322" gradientUnits="userSpaceOnUse" gradientTransform="scale(.777 1.286)"/><linearGradient xlink:href="#a" x1="388.53" y1="507.235" x2="677.396" y2="508.748" gradientUnits="userSpaceOnUse" gradientTransform="scale(.823 1.215)"/><linearGradient xlink:href="#a" x1="394.985" y1="534.956" x2="693.729" y2="536.521" gradientUnits="userSpaceOnUse" gradientTransform="scale(.865 1.156)"/><linearGradient xlink:href="#a" gradientUnits="userSpaceOnUse" gradientTransform="scale(.976 1.024)" x1="359.578" y1="570.026" x2="333.527" y2="569.539"/><linearGradient xlink:href="#a" gradientUnits="userSpaceOnUse" gradientTransform="scale(1.003 .997)" x1="472.379" y1="578.678" x2="445.284" y2="580.196"/><linearGradient xlink:href="#a" gradientUnits="userSpaceOnUse" gradientTransform="scale(.936 1.068)" x1="517.971" y1="553.743" x2="456.44" y2="558.125"/><linearGradient xlink:href="#a" gradientUnits="userSpaceOnUse" gradientTransform="scale(.935 1.07)" x1="378.89" y1="558.253" x2="336.015" y2="554.885"/><linearGradient xlink:href="#a" gradientUnits="userSpaceOnUse" gradientTransform="scale(1.746 .573)" x1="261.076" y1="1065.744" x2="181.361" y2="1059.067"/><linearGradient xlink:href="#a" gradientUnits="userSpaceOnUse" gradientTransform="scale(.865 1.156)" x1="394.985" y1="534.956" x2="693.729" y2="536.521"/><linearGradient xlink:href="#a" gradientUnits="userSpaceOnUse" gradientTransform="scale(.823 1.215)" x1="388.53" y1="507.235" x2="677.396" y2="508.748"/><linearGradient xlink:href="#a" gradientUnits="userSpaceOnUse" gradientTransform="scale(.777 1.286)" x1="422.587" y1="473.524" x2="399.477" y2="473.322"/><linearGradient xlink:href="#a" gradientUnits="userSpaceOnUse" gradientTransform="scale(.835 1.197)" x1="579.837" y1="504.937" x2="556.805" y2="505.856"/><linearGradient xlink:href="#a" gradientUnits="userSpaceOnUse" gradientTransform="scale(.976 1.024)" x1="359.578" y1="570.026" x2="333.527" y2="569.539"/><linearGradient xlink:href="#a" gradientUnits="userSpaceOnUse" gradientTransform="scale(1.003 .997)" x1="472.379" y1="578.678" x2="445.284" y2="580.196"/><linearGradient xlink:href="#a" gradientUnits="userSpaceOnUse" gradientTransform="scale(.936 1.068)" x1="517.971" y1="553.743" x2="456.44" y2="558.125"/><linearGradient xlink:href="#a" gradientUnits="userSpaceOnUse" gradientTransform="scale(.935 1.07)" x1="378.89" y1="558.253" x2="336.015" y2="554.885"/><linearGradient xlink:href="#a" gradientUnits="userSpaceOnUse" gradientTransform="scale(1.746 .573)" x1="261.076" y1="1065.744" x2="181.361" y2="1059.067"/><linearGradient xlink:href="#a" gradientUnits="userSpaceOnUse" gradientTransform="scale(.865 1.156)" x1="394.985" y1="534.956" x2="693.729" y2="536.521"/><linearGradient xlink:href="#a" gradientUnits="userSpaceOnUse" gradientTransform="scale(.823 1.215)" x1="388.53" y1="507.235" x2="677.396" y2="508.748"/><linearGradient xlink:href="#a" gradientUnits="userSpaceOnUse" gradientTransform="scale(.777 1.286)" x1="422.587" y1="473.524" x2="399.477" y2="473.322"/><linearGradient xlink:href="#a" gradientUnits="userSpaceOnUse" gradientTransform="scale(.835 1.197)" x1="579.837" y1="504.937" x2="556.805" y2="505.856"/><linearGradient xlink:href="#a" gradientUnits="userSpaceOnUse" gradientTransform="scale(1.003 .997)" x1="472.379" y1="578.678" x2="445.284" y2="580.196"/><linearGradient xlink:href="#a" gradientUnits="userSpaceOnUse" gradientTransform="scale(.936 1.068)" x1="517.971" y1="553.743" x2="456.44" y2="558.125"/><linearGradient xlink:href="#a" gradientUnits="userSpaceOnUse" gradientTransform="scale(.823 1.215)" x1="388.53" y1="507.235" x2="677.396" y2="508.748"/><linearGradient xlink:href="#a" gradientUnits="userSpaceOnUse" gradientTransform="scale(.835 1.197)" x1="579.837" y1="504.937" x2="556.805" y2="505.856"/><linearGradient xlink:href="#a" gradientUnits="userSpaceOnUse" gradientTransform="scale(1.003 .997)" x1="444.401" y1="592.197" x2="470.902" y2="577.143"/><linearGradient xlink:href="#a" gradientUnits="userSpaceOnUse" gradientTransform="scale(.823 1.215)" x1="581.435" y1="512.013" x2="558.88" y2="514.329"/><linearGradient xlink:href="#a" x1="851.781" y1="369.938" x2="646.188" y2="369.938" gradientUnits="userSpaceOnUse"/><linearGradient xlink:href="#a" gradientUnits="userSpaceOnUse" gradientTransform="scale(.936 1.068)" x1="458.237" y1="562.505" x2="520.545" y2="552.831"/><linearGradient xlink:href="#a" gradientUnits="userSpaceOnUse" gradientTransform="scale(.835 1.197)" x1="558.347" y1="508.985" x2="585.121" y2="500.772"/><linearGradient xlink:href="#a" gradientUnits="userSpaceOnUse" gradientTransform="scale(.835 1.197)" x1="579.837" y1="504.937" x2="556.805" y2="505.856"/><linearGradient xlink:href="#a" gradientUnits="userSpaceOnUse" gradientTransform="scale(.835 1.197)" x1="551.998" y1="517.884" x2="589.772" y2="503.902"/><linearGradient xlink:href="#a" id="b" gradientUnits="userSpaceOnUse" gradientTransform="scale(1.003 .997)" x1="444.401" y1="592.197" x2="470.902" y2="577.143"/><linearGradient xlink:href="#a" id="c" gradientUnits="userSpaceOnUse" gradientTransform="scale(.936 1.068)" x1="458.237" y1="562.505" x2="520.545" y2="552.831"/><linearGradient xlink:href="#a" id="d" gradientUnits="userSpaceOnUse" gradientTransform="scale(1.003 .997)" x1="472.379" y1="578.678" x2="445.284" y2="580.196"/><linearGradient xlink:href="#a" id="e" gradientUnits="userSpaceOnUse" gradientTransform="scale(.936 1.068)" x1="517.971" y1="553.743" x2="456.44" y2="558.125"/><linearGradient xlink:href="#a" id="f" gradientUnits="userSpaceOnUse" x1="851.781" y1="369.938" x2="646.188" y2="369.938"/><linearGradient xlink:href="#a" id="g" gradientUnits="userSpaceOnUse" gradientTransform="scale(.823 1.215)" x1="388.53" y1="507.235" x2="677.396" y2="508.748"/><linearGradient xlink:href="#a" id="h" gradientUnits="userSpaceOnUse" gradientTransform="scale(.835 1.197)" x1="579.837" y1="504.937" x2="556.805" y2="505.856"/><linearGradient xlink:href="#a" id="i" gradientUnits="userSpaceOnUse" gradientTransform="scale(.823 1.215)" x1="581.435" y1="512.013" x2="558.88" y2="514.329"/><linearGradient xlink:href="#a" id="j" gradientUnits="userSpaceOnUse" gradientTransform="scale(.835 1.197)" x1="551.998" y1="517.884" x2="589.772" y2="503.902"/><linearGradient xlink:href="#a" gradientUnits="userSpaceOnUse" gradientTransform="scale(1.003 .997)" x1="444.401" y1="592.197" x2="470.902" y2="577.143"/><linearGradient xlink:href="#a" gradientUnits="userSpaceOnUse" gradientTransform="scale(.936 1.068)" x1="458.237" y1="562.505" x2="520.545" y2="552.831"/><linearGradient xlink:href="#a" gradientUnits="userSpaceOnUse" gradientTransform="scale(1.003 .997)" x1="472.379" y1="578.678" x2="445.284" y2="580.196"/><linearGradient xlink:href="#a" gradientUnits="userSpaceOnUse" gradientTransform="scale(.936 1.068)" x1="517.971" y1="553.743" x2="456.44" y2="558.125"/><linearGradient xlink:href="#a" gradientUnits="userSpaceOnUse" x1="851.781" y1="369.938" x2="646.188" y2="369.938"/><linearGradient xlink:href="#a" gradientUnits="userSpaceOnUse" gradientTransform="scale(.823 1.215)" x1="388.53" y1="507.235" x2="677.396" y2="508.748"/><linearGradient xlink:href="#a" gradientUnits="userSpaceOnUse" gradientTransform="scale(.835 1.197)" x1="579.837" y1="504.937" x2="556.805" y2="505.856"/><linearGradient xlink:href="#a" gradientUnits="userSpaceOnUse" gradientTransform="scale(.823 1.215)" x1="581.435" y1="512.013" x2="558.88" y2="514.329"/><linearGradient xlink:href="#a" gradientUnits="userSpaceOnUse" gradientTransform="scale(.835 1.197)" x1="551.998" y1="517.884" x2="589.772" y2="503.902"/></defs><path font-size="12" fill="#006" d="M0 0h1000.001v500h-1000.001z"/><path fill="#006" fill-rule="evenodd" d="M0 0h500v250h-500z"/><g font-size="12"><path d="M0 .001v27.951l444.099 222.049h55.902v-27.951l-444.099-222.049h-55.902zm500 0v27.95l-444.099 222.05h-55.902v-27.952l444.099-222.048h55.902zm-291.667 0v250h83.333v-250h-83.333zm-208.333 83.333v83.333h500v-83.333h-500z" fill="#fff"/><path d="M0 100.001v50h500v-50h-500zm225-100v250h50v-250h-50zm-225 250l166.667-83.333h37.268l-166.666 83.333h-37.268zm0-250l166.667 83.333h-37.268l-129.399-64.699v-18.634zm296.066 83.333l166.667-83.333h37.268l-166.667 83.333h-37.268zm203.934 166.667l-166.667-83.333h37.268l129.399 64.699v18.634z" fill="#c00"/></g><path d="M670.969 321.563c-.734.012-1.438.084-2.031.188-3.388.59-8.733 11.631-11.688 18.094-4.622 5.644-7.089 10.031-9.031 13.281-.755 1.263-1.919 2.728-1.563 4.406-6.996 1.719-7.344 7.725-7.344 10.063 0 2.479.781 3.719.781 3.719l4.188 7.844.031.094c4.457 9.216 11.057 21.626 14.75 22.656 5.242 1.462 18.821-3.55 29-12.156 16.689 6.875 38.072 12.563 61.969 12.563 23.896 0 45.248-5.688 61.938-12.563 10.179 8.606 23.758 13.618 29 12.156 3.704-1.033 10.324-13.525 14.781-22.75l4.188-7.844s.781-1.239.781-3.719c0-2.338-.377-8.344-7.375-10.063.351-1.678-.776-3.143-1.531-4.406-1.957-3.274-4.42-7.701-9.094-13.406-2.966-6.479-8.289-17.382-11.656-17.969-4.742-.826-14.969 1.58-14.969 2.406l-.063.5-20.531 19.406c0 .557 1.089 14.594 4.938 27-13.749 5.005-30.626 8.531-50.406 8.531-19.793 0-36.715-3.521-50.469-8.531 3.848-12.406 4.969-26.443 4.969-27l-20.531-19.406-.063-.5c0-.723-7.832-2.675-12.969-2.594zm5.25 24.094c2.582-.032 5.332 2.095 7.594 4.469-.078.467-.156.945-.25 1.375-.624 2.872-1.696 6.664-3.188 10.625-5.87-3.429-10.66-6.996-14.313-10.313 2.228-2.369 5.806-5.597 9.594-6.125.185-.026.375-.029.563-.031zm147.563 0c.187.002.377.005.563.031 3.788.528 7.397 3.756 9.625 6.125-3.66 3.323-8.457 6.908-14.344 10.344-1.497-3.971-2.562-7.778-3.188-10.656-.094-.432-.172-.907-.25-1.375 2.265-2.38 5.006-4.501 7.594-4.469zm-166 27.375c2.73 2.092 6.296 4.476 10.594 7-1.191.756-2.456 1.317-3.781 1.625-1.765.41-3.621.331-5.5-.063-.586-1.451-1.082-3.275-1.219-5.719-.057-1.018-.08-1.966-.094-2.844zm184.469 0c-.014.878-.068 1.826-.125 2.844-.137 2.443-.601 4.267-1.188 5.719-1.879.394-3.766.473-5.531.063-1.325-.308-2.559-.869-3.75-1.625 4.299-2.524 7.863-4.907 10.594-7z" fill="url(#b)" fill-rule="evenodd" stroke="#fff" stroke-width="10"/><path transform="matrix(-1.265 0 0 1.322 1252.245 -430.973)" d="M445.628 595.484s5.625-8.75 10.313-8.125c4.687.625 9.062 6.25 9.375 6.562.312.313 7.187-7.187 6.875-7.5-.313-.312-7.188-16.562-10.938-17.187-3.75-.625-11.847 1.196-11.847 1.821l-3.778 24.429z" fill="url(#b)" fill-rule="evenodd" stroke="#000" stroke-width="1.16"/><path transform="matrix(-1.265 0 0 1.322 1252.245 -430.973)" d="M433.128 586.109c0 .625 1.875 23.75 10 31.875s21.25 13.125 25.938 11.875c4.687-1.25 15.312-24.687 15.312-24.687s-11.25 11.25-19.687 9.375c-8.438-1.875-13.438-15.938-15-22.813-1.563-6.875-.313-20.313-.313-20.313l-16.25 14.688z" fill="url(#c)" fill-rule="evenodd" stroke="#000" stroke-width="1.16"/><path d="M445.628 595.484s5.625-8.75 10.313-8.125c4.687.625 9.062 6.25 9.375 6.562.312.313 7.187-7.187 6.875-7.5-.313-.312-7.188-16.562-10.938-17.187-3.75-.625-11.847 1.196-11.847 1.821l-3.778 24.429z" transform="matrix(1.265 0 0 1.322 247.778 -430.973)" fill="url(#d)" fill-rule="evenodd" stroke="#000" stroke-width="1.16"/><path d="M433.128 586.109c0 .625 1.875 23.75 10 31.875s21.25 13.125 25.938 11.875c4.687-1.25 15.312-24.687 15.312-24.687s-11.25 11.25-19.687 9.375c-8.438-1.875-13.438-15.938-15-22.813-1.563-6.875-.313-20.313-.313-20.313l-16.25 14.688z" transform="matrix(1.265 0 0 1.322 247.778 -430.973)" fill="url(#e)" fill-rule="evenodd" stroke="#000" stroke-width="1.16"/><path d="M657.455 339.567c-4.742 5.785-7.274 10.257-9.25 13.563-1.976 3.306-.814 7.906 3.75 14.469 4.921 7.073 45.374 34.719 98.063 34.719s93.142-27.646 98.063-34.719c4.564-6.563 5.695-11.163 3.719-14.469-1.976-3.306-4.477-7.777-9.219-13.563 0 8.677-33.512 40.031-92.563 40.031s-92.563-31.354-92.563-40.031z" fill="url(#f)" fill-rule="evenodd" stroke="#000" stroke-width="1.5"/><path d="M467.816 625.484c.625-.937 7.187-11.875 7.187-11.875l-3.598-2.538c-1.105 3.094-5.152 4.101-5.777 7.851s2.813 7.5 2.188 6.562z" transform="matrix(1.265 0 0 1.322 248.616 -429.805)" fill="url(#g)" fill-rule="evenodd" stroke="#000" stroke-width="1.16"/><path d="M475.003 622.984s1.25-5.312-2.812-5.937c-4.063-.625-6.214 2.973-5.625 1.562.654-1.567 3.125-3.125 3.437-8.437.313-5.313-.312-8.125-.312-8.125s1.562-6.876 8.125-5.938c6.562.938 6.875 5.938 6.875 7.813l-.625 2.812-9.063 16.25z" transform="matrix(1.265 0 0 1.322 247.778 -430.973)" fill="url(#h)" fill-rule="evenodd" stroke="#000" stroke-width="1.16"/><path d="M819.496 366.73l1.689 2.956 1.141-.712-.756-1.952.141-.382 1.985-1.239 5.189 9.083-.128.442-1.028.754.467.818 4.946-3.088-.467-.818-1.122.588-.434-.091-5.189-9.083 1.986-1.24.372.062 1.301 1.612 1.142-.713-1.689-2.956-9.545 5.958zm-11.972 7.335l.411.85 1.04-.439.409.132 4.457 9.218-.141.423-.956.612.411.85 4.869-2.568-.411-.85-1.075.459-.409-.132-2.115-4.374 4.972-2.622 2.115 4.374-.123.413-.992.631.411.85 4.852-2.558-.411-.85-1.04.44-.409-.132-4.457-9.218.141-.423.956-.614-.411-.85-4.852 2.558.411.85 1.076-.457.392.142 1.838 3.802-4.972 2.622-1.838-3.802.141-.423.991-.632-.411-.85-4.869 2.568zm-2.827 7.242l.262.912 1.393-.333.37.169 1.091 3.798c-.47.187-.815.316-1 .373-2.842.889-5.139-.524-6.102-3.876-.936-3.259.206-5.726 2.957-6.586.535-.167 1.06-.231 1.618-.181l.373.248.918 1.864 1.347-.421-.909-3.165c-1.484.017-2.852.222-4.072.604-4.097 1.281-6.004 4.657-4.907 8.475 1.113 3.873 4.504 5.736 8.38 4.524 1.347-.421 2.639-1.11 3.916-2.057l-1.246-4.338.22-.353 1.044-.429-.262-.912-5.391 1.686zm-11.137 10.712l5.504-1.733-.274-.911-1.261.296-.384-.205-2.985-9.91.216-.353 1.205-.482-.274-.911-5.504 1.733.274.911 1.243-.289.373.168 2.985 9.91-.205.39-1.187.475.274.911zm-30.262 4.892l9.688-.886-.295-3.464-1.227.112-.133 2.08-.208.331-4.185.383-.428-5.034 2.345-.214.276.248.299 1.377 1.064-.097-.382-4.491-1.064.097-.062 1.411-.23.293-2.345.214-.392-4.607 3.591-.328.256.23.415 1.679 1.263-.115-.258-3.04-9.092.831.081.948 1.109-.003.312.245.877 10.317-.262.336-1.092.197.081.948zm-14.452-12.73l.017.952 1.052.079.295.306.18 10.318-.284.316-1.049.115.017.952 5.123-.09-.017-.952-1.088-.077-.295-.306-.085-4.897 5.231-.092.085 4.897-.266.315-1.084.116.017.952 5.106-.089-.017-.952-1.052-.078-.295-.306-.18-10.318.284-.316 1.049-.116-.017-.952-5.106.089.017.952 1.088.079.277.306.074 4.256-5.231.092-.074-4.256.284-.316 1.084-.117-.017-.952-5.123.09zm-10.699-.426l-.031 3.44 1.249.015.309-2.076.292-.249 2.173.026-.096 10.571-.311.307-1.178.082-.009.952 5.414.064.009-.952-1.176-.111-.305-.314.096-10.571 2.173.026.269.256.289 2.083 1.249.015.031-3.44-10.446-.124zm-16.871 11.341l9.47.47.153-3.474-1.2-.06-.391 2.043-.243.299-4.091-.203.222-5.049 2.292.114.235.284.115 1.406 1.04.052.198-4.505-1.04-.052-.238 1.39-.259.259-2.292-.114.203-4.621 3.51.174.218.264.189 1.722 1.234.061.134-3.049-8.888-.441-.042.951 1.072.151.27.286-.454 10.349-.296.296-1.08.043-.042.951zm-21.323-5.973l5.026 1.695.278-.906-1.098-.472-.178-.386 3.024-9.855.348-.168 1.155.287.278-.906-5.026-1.695-.278.906 1.08.467.189.35-3.024 9.855-.36.205-1.137-.282-.278.906zm-8.937-3.463c.918.758 1.982 1.342 3.058 1.705 2.757.93 4.943-.087 5.618-2.288.335-1.091.103-2.271-.662-3.284-.776-1.036-1.582-1.615-1.995-2.142-.709-.892-1.01-1.606-.75-2.456.312-1.018 1.295-1.501 2.522-1.087.538.181.897.404 1.148.672l.156.339-.304 2.02 1.21.408.919-2.995c-.934-.765-1.924-1.343-2.967-1.695-2.404-.811-4.455.252-5.085 2.304-.278.907-.153 1.949.399 2.931.529.934 1.224 1.515 1.782 2.112.99 1.068 1.391 1.938 1.085 2.936-.312 1.018-1.346 1.485-2.708 1.026-.521-.176-.98-.433-1.399-.758l-.134-.351.412-2.31-1.279-.431-1.027 3.346zm-11.702-4.427l8.557 4.279 1.431-3.138-1.083-.541-1.119 1.723-.335.177-3.696-1.848 2.079-4.56 2.071 1.036.112.358-.417 1.341.941.47 1.855-4.068-.941-.47-.734 1.184-.335.133-2.071-1.036 1.903-4.173 3.17 1.585.103.331-.464 1.664 1.115.558 1.256-2.753-8.032-4.016-.392.859.932.574.143.373-4.262 9.346-.383.153-1.012-.399-.392.859zm-1.617-15.649l-4.308-2.967-.5.795.849.702.073.422-5.424 8.617-.399.097-.951-.539-.5.795 4.308 2.967c1.476 1.016 2.735 1.535 4.14 1.387 1.829-.183 3.389-1.249 4.594-3.163 2.145-3.408 1.544-6.753-1.88-9.112zm-1.797.065l.856.59c2.346 1.616 2.552 3.875.632 6.926-1.92 3.05-3.996 3.76-6.342 2.145l-.856-.59 5.71-9.07zm34.682 13.707l-.192.932.999.321.221.328-2.084 10.137-.339.243-1.038-.131-.192.932 4.866 1.077.192-.932-1.033-.327-.214-.365.88-4.279.294.065c1.742.386 2.023 1.303 2.186 3.227.089.973.067 1.864.809 2.824.341.453.932.822 1.674.986.534.118 1.132.191 1.756.23l.188-.914-.224-.05c-1.156-.256-1.614-.655-1.762-1.782-.133-1.022-.059-2.08-.422-3.036-.271-.696-.784-1.187-1.569-1.58 2.032.032 3.278-.845 3.637-2.595.434-2.112-.712-3.559-3.387-4.151l-5.246-1.161zm3.314 1.867l.794.176c1.673.37 2.373 1.44 2.052 2.999-.36 1.751-1.404 2.354-3.249 1.946-.19-.042-.397-.088-.618-.157l1.02-4.964zm63.33.765l.148.94 1.138-.095.347.217 1.614 10.223-.256.359-1.108.287.148.94 5.363-.916-.148-.94-1.175.103-.353-.255-.681-4.316.324-.055c1.92-.328 2.545.412 3.422 2.134.45.868.758 1.703 1.867 2.301.515.286 1.254.396 2.072.256.589-.101 1.226-.268 1.877-.477l-.145-.921-.247.042c-1.274.218-1.889.028-2.456-.96-.512-.896-.827-1.906-1.55-2.65-.535-.539-1.24-.792-2.184-.848 2.084-.77 3.032-2.074 2.753-3.838-.336-2.13-2.039-3.021-4.988-2.517l-5.782.987zm4.072.428l.875-.15c1.844-.315 2.953.402 3.201 1.974.279 1.766-.564 2.736-2.598 3.084-.21.036-.438.075-.688.097l-.79-5.006z" font-size="12" font-weight="bold" font-family="Bitstream Charter"/><path transform="matrix(-1.265 0 0 1.322 1251.406 -429.805)" d="M467.816 625.484c.625-.937 7.187-11.875 7.187-11.875l-3.598-2.538c-1.105 3.094-5.152 4.101-5.777 7.851s2.813 7.5 2.188 6.562z" fill="url(#i)" fill-rule="evenodd" stroke="#000" stroke-width="1.16"/><path transform="matrix(-1.265 0 0 1.322 1252.245 -430.973)" d="M475.003 622.984s1.25-5.312-2.812-5.937c-4.063-.625-6.214 2.973-5.625 1.562.654-1.567 3.125-3.125 3.437-8.437.313-5.313-.312-8.125-.312-8.125s1.562-6.876 8.125-5.938c6.562.938 6.875 5.938 6.875 7.813l-.625 2.812-9.063 16.25z" fill="url(#j)" fill-rule="evenodd" stroke="#000" stroke-width="1.16"/><path d="M396.85 605.906s-75.43-21.26-74.99-102.142l.581-106.914h148.819l.583 106.3c.44 80.882-74.993 102.756-74.993 102.756z" transform="matrix(1.265 0 0 1.322 248.158 -427.579)" font-size="12" fill="#0072c4" fill-opacity=".996" fill-rule="evenodd" stroke="#fff" stroke-width="3.867"/><g fill-rule="evenodd"><path d="M669.145 129.067c.157 0 1.313-1.097 2.372-2.065 1.479-.74 2.846-1.781 4.349-2.479 1.12-.648 3.332-1.15 4.348-1.653 1.332-.697 2.419-1.499 3.558-2.893.137-1.848.396-3.175.396-5.37 1.572-.756 2.968-1.49 4.348-2.066 1.978-.557 2.407-1.347 4.349-1.653 1.25-.436 3.316-.414 5.138-.414 1.967 0 3.208 1.397 4.975 1.728 2.095.845 3.073 1.429 4.744 2.893.944 1.194 1.531 2.164 3.14 3.063 1.274.653 2.467 1.642 3.953 2.065 1.632.945 3.08 1.493 4.348 2.893 1.161.825 1.641 2.05 2.768 2.891 1.305 1.083 2.544 2.057 3.953 2.893 1.694 1.134 3.372 1.996 6.116 1.749 1.452-.086 3.016-.253 4.744.07 1.934 0 3.822-.034 5.534.414 2.016 0 3.648.272 5.534.412 1.767.331 3.569.414 5.534.414 1.714.447 3.6.412 5.534.412h11.068c2.014 0 4.053.082 5.534.414 1.995 0 3.71-.186 5.534-.414 2.147 0 3.784-.393 5.93-.412h6.721c1.725.472 3.93.796 5.138 1.653 1.583.451 2.371 1.2 3.953 1.653 1.212.621 3.052 1.605 3.953 2.891 1.116 1.166 2.262 2.836 3.162 4.545 1.101 1.586 1.519 3.4 2.372 5.37.452 1.888.767 3.683.791 5.784.429 1.791.396 3.762.396 5.784-.452 1.884-.55 3.981-1.187 5.784-.068 2.016-.472 3.84-.791 5.371-.352 1.691-.765 2.779-.791 4.958v5.784c-.139 1.897-.554 3.29-.791 5.37-.956 1.805-1.872 3.914-2.767 6.198-1.316.916-2.457 2.22-3.162 3.305-.844.521-1.332 1.311-1.187 1.653 1.58.55 1.187 1.649 1.187 3.717.205 1.593.359 3.568.791 5.371.144 1.972.567 3.178 1.185 4.544.624.814.745.414-.791.414-1.142.895-2.299.427-2.767-1.24-.922-1.112-1.226-2.458-1.581-4.544-.219-1.913-.525-3.777-1.187-4.958-.202-2.328-.822-2.304-3.162-2.479-1.113-.986-2.583-1.24-4.744-1.24-2.152 0-2.333-.219-2.372 2.066v5.784c-.372 1.676-1.188 3.035-1.581 4.544-1.179.863-1.793 2.312-3.162 3.305-.653 1.876-1.601 2.202-3.558 2.479-.684-.854-1.8-1.968-2.372-2.891 1.107-1.856 2.073-2.136 2.768-4.131.84-1.645 1.333-2.711 1.976-4.131-.844-1.298-1.601-1.884-2.372-3.719-.65-.999-1.551-3.15-1.976-4.544-1.298-.452-3.342-.525-4.349-1.24-1.918-.446-2.454 1.653-4.742 1.653h-5.534c-2.448 0-3.059 1.366-5.14 1.24-.611.198-2.094-.087-4.349 0-1.652.575-3.642.412-5.534.412-2.005-.025-3.646-.486-5.138-.826-1.817-.497-3.623-1.001-5.534-1.239-2.321 0-3.185.185-4.744 1.239-1.233.731-3.021 2.402-4.349 3.305-.562 1.371-.854 3.691-1.581 5.371-.42 1.612-1.103 2.633-1.581 4.131-.535 1.397-1.041 2.836-1.185 4.958-.134 2.784-.743 2.443-2.372 1.653-.679-1.153-1.762-2.421-2.372-3.719.359-2.102.764-3.148.791-5.37-.385-1.604-1.283-1.552-2.372-.414 0 2.163.1 3.831-.791 4.958-.445 1.707-1.161 2.444-2.372 3.305-.592 1.534-1.906 2.236-3.162 2.893-.201-.07 0-.554 0-1.653-.947-1.889-.068-3.457-.068-5.784.024-2.086-.095-3.469.511-5.371 0-2.003-.93-3.908-1.233-5.37-.735-1.535-1.159-2.294-3.162-2.893-1.408-.559-3.437-1.315-4.349-2.479-1.147-1.487-1.88-2.099-3.557-2.891-1.819-.658-2.702-1.261-3.953-2.066-1.222-1.347-2.215-1.931-2.768-3.717-.825-1.27-.966-3.63-1.581-5.371-.134-1.814-.654-3.499-1.185-4.958-.235-1.814-.521-3.141-1.187-4.958-.22-1.699-.711-3.476-1.185-5.37 0-2.021.033-3.994-.396-5.784v-5.784c-.285-1.67-.39-4.114-.791-5.371 0-2.247-.239-3.517-.791-4.958-.904-1.459-.978-2.114-2.372-2.479-1.007 1.284-2.667 1.807-4.744 2.066-1.451-.331-3.499-.546-5.14-1.24-1.585-.39-2.669-1.017-3.953-1.653-.702-1.08-1.541-2.303-2.372-3.305-.245-2.158-.716-3.268-.791-5.37 0-1.577.038-.74 1.581-2.893z" font-size="12" fill="#bcbcbc"/><path d="M692.556 143.951l.28-.292c-.635.664-.402.344 1.118-.292.85-.535 2.467-1.478 3.075-2.045.73-.334 1.892-.771 2.515-1.459.779-.83 1.557-1.519 2.516-2.337 1.107-.939 2.139-1.247 3.355-2.045 1.581-.118 2.154-.795 3.633-.292 1.388.315 1.963.324 3.075-.876 1.122-.718 2.357-1.416 2.796-2.629v-1.752c-.022 1.909-.366 2.528-1.677 3.212-.915 1.047-2.054 2.232-2.516 3.214-.888 1.285-1.077 2.004-1.957 2.629-.722.92-1.962 1.407-2.235 2.92.398.695.034 1.076.837 1.169.81.695 1.652.399 2.796 0 1.137-1.315 1.648-2.165 2.237-3.505.939-1.281 1.464-1.89 1.957-2.922.972-.705 1.589-1.253 1.957-2.337 1.125-.657 2.049-1.35 2.794-2.045.836-.537 1.279-.973 2.516-1.169-.018 1.569-.25 2.311-.839 3.214-.278 1.627-.223 2.398.28 3.506.803.496.66.928 1.118 2.045.455-.966.687-2.922.839-4.09v-.292c0 1.277.116 2.972-.28 3.798.019 1.703.397 2.463.839 3.797.471.644.803 1.062 1.398 1.461.056-1.686.477-2.796.559-4.381.39 1.223.259 2.84.559 4.089.101 1.375.6 2.44 1.118 3.506.636.393.853 1.552 1.117.584.662-2.056.678-4.304 1.118-6.428.08-1.077.166-2.681.559-3.505l-.559 3.505c.08-1.077.166-2.681.559-3.505v-.292c.261 1.539.507 3.025.559 4.673 0 1.315-.085 2.655.28 3.798.93-.43 1.469-1.438 1.957-2.629.745-1.412 1.255-2.039 2.237-3.212l-2.237 3.212c.745-1.412 1.255-2.039 2.237-3.212v-.292c-.154 1.347-.28 2.616-.28 4.089 0 1.347-.015 2.874.28 3.798.329 1.549.779 1.836.839 3.505 0 .813-.106 1.643.28 2.045 1.204.315 1.208-.386 1.398-2.045.015-1.884.497-3.169.558-4.965 0-2.217.314.27.559 1.169.564 1.301.74 2.458.839 3.797 0 .813-.105 1.643.28 2.045 1.08-.447 1.508-1.708 2.237-2.337.557-1.384 1.132-1.995 1.677-2.92 1.448-.303 1.378-.898 1.398-2.629 0-1.397-.11-2.869.28-4.09.448-1.269.87-2.682 1.118-3.797.522-.312 1.087.46 1.397 1.169.612.941.559 2.315.559 3.797.269 1.293.807 2.303 1.398 3.506.701 1.35 1.27 2.168 1.957 2.922.295.924.28 2.451.28 3.797 1.089-1.236 1.298-3.079 1.398-4.965-.147-1.284-.173-2.882-.559-4.09-.044-1.286-.275-2.615-.559-3.505-.944-.453-1.093-.855-.28-2.045.899-.777 1.871-.477 3.355-.292.75.784 1.059 1.203 1.118 2.92 0 1.556.066 2.752.559 3.798.546.841 1.089 1.419 1.397 2.922.429.366.76.958 1.398.292.35-.855.557-2.62.839-3.506.273-1.109.765-1.654 1.398-2.045 0 1.626-.019 2.623.559 3.798.548 1.305.927 1.795 1.398 3.214.596.415.672 1.31 1.398 1.752.171-1.372.28-2.943.28-4.673v-4.09c.102-1.392.44-2.175.839-3.212.901 1.121.839 1.585.839 3.212.92-.342 1.074-1.002 1.397-2.044.657-.578.836-.847 1.118.583.196 1.528.569 2.904.839 4.382.576.674 1.24 2.307 1.957 2.922.492.836 1.045 1.643 1.677 2.337.435.961.546 1.463 1.677 1.752 0-1.976.066-3.959-.28-5.842 0-1.679-.367-2.278-.559-3.798-.466-1.007-.74-2.492-.559-2.92 1.309 1.298 1.901 2.052 2.516 3.505.655 1.404 1.208 2.348 1.676 3.798.646.554 1.791 2.217 2.237 2.922.998.891 1.484 1.819 2.516 2.628.534.502 1.662.783 1.957.584-.052-1.713-.312-3.183-.839-4.673-.019-1.635-.393-2.524-.839-3.506-1.099-.948-1.933-1.594-2.516-2.922-.433-.37-.517-.646-.559-1.459 1.607 1.329 2.729 2.513 3.914 4.089.801 1.038 1.208 1.508 2.237 2.045.557.624 2.18 1.401 3.354 1.753.705.933 1.646 1.47 2.796 1.753l-2.796-1.753c.705.933 1.646 1.47 2.796 1.753v.292c-.14-1.827-.812-3.162-1.677-4.675-.729-1.598-1.395-2.191-2.516-3.214-.731-1.157-1.55-1.839-2.794-2.628-.772-.907-1.927-2.413-2.516-2.922 1.192-.748 2.592.506 3.914 1.169 1.09 1.182 2.11 2.722 2.794 3.505.745 1.502 1.316 2.43 2.516 3.798 1.204.714 2.04 1.42 3.075 2.337 1.601.443.963-.143.559-1.461-.553-1.649-.061-1.675 1.118-.584.778.554 1.645 1.477 2.794 2.045.497.644 1.247 1.001 1.957.584.296-.412.28-.366.28-.876-.588-1.812-1.135-3.224-2.516-3.798-.632-.806-1.662-1.766-2.515-2.629-.557-.855-1.206-1.348-1.677-2.336l1.677 2.336c-.557-.855-1.206-1.348-1.677-2.336h-.28c1.688.062 2.288.49 3.633 1.169.958.349 1.992 1.263 2.516 2.044.545.723 1.418 1.5 1.957 2.337.859.661 1.808 1.413 2.796 2.045.93 1.219 1.097 2.012 1.118 3.798.536.826.632 2.516.837 3.505-.205 1.606-.755.345-.837-.584-.237-1.29-.729-1.223-1.677-.876 0 1.765.195 2.247.839 3.506-.175 1.206-.576 2.087-1.118 2.922-.653.389-.793-.859-1.398-1.461-.065-1.807-.573-2.005-1.677-2.922v1.169c.624 1.247 1.281 2.384 1.398 4.09.431 1.302.559 2.124.559 3.797 0 1.43.023 2.824-.28 4.09 0 1.585-.262 2.265-.28 3.798v8.179c-.215 1.034-.28 2.381-.28 3.797l.28-3.797c-.215 1.034-.28 2.381-.28 3.797v.292c-.531-1.467-1.109-2.796-1.398-4.381-.906-.896-1.481-1.82-1.957-2.922-.214-1.253-.348-2.784-.559-3.798-.393-1.029-.811-2.127-1.677-1.459-.343 2.177.09 3.474.839 5.55.439 1.376.391 2.458.839 3.798.648 1.544 1.169 1.766 0 3.505-.577.927-.885 1.22-1.118 2.337-1.034.541-1.293.781-1.397 2.045-.348-1.137-1.193-2.468-1.677-3.798-.501-1.399-1.12-2.836-1.398-4.089-.678-.978-1.474-2.561-2.237-3.214-.702-.944-1.71-2.517-2.237-3.506-1.07-1.247-1.307-1.968-2.235-2.628-.239-.583-.524-1.311-1.118-.876 0 1.397-.11 2.867.28 4.089.282 1.723.778 2.678.839 4.382v3.214c-.672-1.646-1.389-3.115-1.957-4.675-.611-.873-1.208-2.571-1.957-3.214-.476-1.133-.846-2.073-1.398-2.92-.143-.849-.519-.839-.839-1.461.019 1.656.522 2.237.839 3.505.545 1.113.72 2.978.559 3.506-.705-2.048-1.342-4.286-2.237-6.134-.848-1.2-1.675-2.743-2.237-3.798-.831-1.003-1.686-1.036-2.515-1.753-.755-.374-1.478-.792-1.957-1.461.22 1.54.794 2.503 1.118 3.798.183 1.469.83 2.645 1.118 3.798-.311 1.999-.763-.554-1.118-1.461-.295-1.645-.84-2.558-1.398-3.506-.749-.533-1.431-1.478-2.237-2.045-.784-.315-.559.057-.559 1.169 0 1.807.066 3.001.559 4.09.558.857.559 1.974.559 3.505-.049 1.438-.28 2.592-.28 4.09v2.337c-.641-1.243-1.251-1.947-1.677-3.506-.97-1.326-1.257-2.3-1.957-3.797-.62-.26-1.629-.476-2.235 0 .109 1.478.763 2.128.839 3.797-1.114 1.141-.913 1.466-1.677-.292-.638-1.331-1.38-1.269-2.237-2.045-1.403-.182-.958-1.08-1.398-2.336 0-1.125.111-2.261-.28-3.214-1.532 0-2.411-.056-3.354.876-.444.925-.287 2.596 0 3.797v4.09c-.319 1.023-.95 1.079-1.118 2.337-.54 1.247-.719 2.623-1.118 3.506-.996.898-.563 1.011-1.118-.584v-9.349c0-1.588.229-2.361.28-3.797-.579-1.211-.737-1.438-2.516-1.461-.433.755-.268 2.156 0 2.922 0 1.416.065 2.764.28 3.797 0 1.552.183 2.492.28 3.798-.053 1.548-.342 2.783-1.118 3.506l-1.118 1.169c-1.011-.506-2.199-1.195-3.074-2.045-1.087-.346-2.111-.584-3.634-.584-1.853-.024-1.885-.249-2.516-1.753-.567-1.609-.834-3.009-1.118-4.675-.615-1.367-.759-2.299-1.118-3.797-.469-.892-.97-1.567-1.676-2.045-.405 1.477-.786 2.713-.839 4.382-.328.683-.396 2.425-.559 3.212-.562-.865-.782-2.565-1.118-3.797-.53-1.771-.983-2.922-2.796-2.337-1.881.024-1.934.078-1.957 2.045.81 1.268 1.675 2.499 2.237 3.505v4.09c0 1.688.099 2.177-1.118 2.629-.463-1.753-1.446-3.427-2.516-4.967-.147-1.191-.514-.876-1.676-.876-.778 0-1.572-.11-1.957.292 0 1.018.083 2.431 0 2.629-.674.124-.946-.007-1.398-.584-.488.85-.12 2.048 0 3.214-.355 1.3-.779 2.487-1.398 3.212v-.292c-1.919-.736-3.419-1.191-5.031-1.752-.97.126-1.675 1.018-2.237 1.752-1.421.477-2.049.857-3.634.876-1.521 0-2.261.239-3.634.292-.988.225-2.278.292-3.633.292-.751-.223-2.064-.23-2.516-.584.577-.861 1.219-1.296 1.677-2.628.765-.545 1.483-1.243 2.237-2.045.737-.525 1.601-1.612 2.235-2.337.436-1.407 1.036-1.65 1.957-2.337 1.662.065 1.986.592 3.634.876 1.609.609 2.5.789 3.355-.292 1.335-.564 2.468-1.446 3.913-1.753 1.12-.559 1.837-1.103 2.796-1.753 1.189-.715 1.756-1.45 2.796-2.336.297-1.191 1.14-2.111.839-3.506-1.513-.395-2.473-.237-3.355.584-1.223 1.007-1.455 1.426-2.796 2.337-1.157.329-1.652.838-3.075 1.169-1.168.407-2.576.292-3.913.292-1.222 0-2.844-.122-3.634.292 1.243-.837 2.737-1.707 3.914-2.045 1.128-.758 1.555-1.141 3.075-1.169.706-.923 1.433-.945 1.676-2.337.473-1.728-1.031-1.181-2.235-.584-1.136.209-2.39 1.013-3.355 1.461-.932.325-2.295.567-3.634.584-.353-.526.276-.947.559-1.753 1.305-.463 1.515-.633 1.677-2.045-1.48.205-2.046.691-3.355.876-1.427.373-2.907.538-4.472.584h-3.914c-1.374-.053-2.114-.292-3.633-.292-1.113-.582-1.118-.858-1.118-2.629.877-1.007 1.729-.875 3.354-.875 1.251-.615 2.224-.941 3.075-1.461 1.012-.218 1.703-.65 1.398-1.169h-3.914c-1.507-.637-.068-.929.839-1.461 1.36 0 2.763.081 3.634.584 1.681-.065 2.267-.596 3.633-1.753 1.071-.882 1.596-1.445 2.796-2.045.861-.951 1.675-1.474 2.237-2.337 1.15-1.093 1.911-1.7 2.516-2.628.74-.407 1.192-.933.839-1.461-1.752.213-2.46.85-3.634 1.753-.682.678-1.343 1.286-2.237 1.753-1.259.747-2.043 1.05-3.633 1.167-1.435 0-2.538-.241-3.914-.292-1.518-.159-.12-.512.28-1.167.587-.41 1.045-1.319.559-2.045-1.169-.407-2.576-.292-3.914-.292h-3.913c-1.478-.057-2.102-.395-3.075-.876-.301-.82.054-.584 1.118-.584 1.347-.053 2.302-.237 3.634-.584 1.314-.374 1.479-.812 1.676-2.337-1.289 0-2.749.016-3.633-.292h-2.516zm-24.202-6.621c-.245-2.158-.716-3.268-.791-5.37 0-1.577.038-.74 1.581-2.893.157 0 1.313-1.097 2.372-2.065 1.479-.74 2.846-1.781 4.349-2.479 1.12-.648 3.332-1.15 4.348-1.653 1.332-.697 2.419-1.499 3.558-2.893.137-1.848.396-3.175.396-5.37 1.572-.756 2.968-1.49 4.348-2.066 1.978-.557 2.407-1.347 4.349-1.653 1.25-.436 3.316-.414 5.138-.414 1.967 0 3.208 1.397 4.975 1.728 2.095.845 3.073 1.429 4.744 2.893.944 1.194 1.531 2.164 3.14 3.063 1.274.653 2.467 1.642 3.953 2.065.013 1.491.33 1.233-.735 1.233-.113 1.528-.478 1.433-1.957 1.461-1.133-.616-1.942-1.445-2.516-2.337.559-1.518.188 1.228 0 1.753-.719.591-1.146 1.22-1.957.584-.454-1.425-.837-2.41-.837-4.089-.213-1.826-.724-.501-1.118.292-.378 1.473-.206 2.005.28 3.212-1.426 0-2.519-.135-3.634-.292-1.037-.258-2.202.059-3.355.584-1.464.919-1.008.925-.28 2.045 1.292.381 2.22 1.096 3.355 1.753 1.29-.256 2.638-.543 3.914-.876 1.332-.464 2.552-.169 3.913 0 .676.353 1.564.424 1.957.876 0 .903.072 1.847-.28 2.337-.582.386-1.133 1.456-1.957 1.752-1.232.706-2.525 1.15-3.913 1.461-1.713.065-2.339.44-3.634 1.169-.213 1.477-.644 1.893-1.957 2.337-1.307.57-2.345.876-3.913.876-.778 0-1.572.11-1.957-.292 1.245-1.42 1.619-2.089 2.237-3.506.242-.591.748-.97.28-1.461-1.656.065-2.089.054-2.237 1.753-.187 1.539-.779 1.797-1.957 2.337.318-1.425.371-2.52.839-3.798-.989.225-2.278.292-3.634.292-.846.537-1.199.746-.839 1.753-1.123.391-2.491.151-3.913 0-1.188-.065-.533-.603-1.398-1.169-.567-1.112-1.218-1.383-2.516-1.461-.644.805-1.837 1.138-2.516 1.753-1.225.427-2.004.073-3.074-.584-1.397.044-1.209.493-.839 1.461.533.371-.033.776.839.876.803.728 1.49.876 3.074.876 1.212-.316 2.546-.292 3.914-.292 1.38.042 1.118.369 1.118 1.753-.902.639-2.216.584-3.634.584-1.348-.168-2.383-.517-3.354-.876-1.309-.098-2.357-.348-3.355 0-.45.498-1.806.717-.28.876.601.566 3.835.292 4.066 1.255.763.847.593 1.959-.711 1.959-.792-.414-1.403-.312-1.957 0-.931.243-2.037.066-3.661.188 2.121.175-1.541-2.303-2.372-3.305z" font-size="12" fill="#fefefe"/><path d="M677.182 127.592c-.092 0-.927.58-1.677 1.169-1.228.657-2.54 1.775-3.355 2.337-.641.513-.638.736-1.397.876 1.332-.189 1.925-.527 3.074-1.169 1.452-.175 2.859-.483 3.634-1.169.727-.254-.054-1.419-.28-2.045zm12.859-13.731c.161 0 .488.914 1.117 1.461.402 1.121.773 1.913.839 3.214.343-1.428.929-2.575 1.118-4.09-.435-.769-.464-1.13-1.677-1.169 0 .789.092.274-1.397.584z" font-size="12" fill="#bcbcbc"/><path d="M349.357 417.729c-.494 0 .871-.492 1.326-.663.364-.767.653-1.31 1.326-1.767 1.107.085 1.65.404 2.21 1.104.93.254 1.265.697 2.431.884.433.366 1.019.408 0 .663-.693.366-1.564.442-2.652.442-1.14.082-1.954.333-2.652.663-1.479 0-1.242.049-1.989-1.326z" transform="matrix(1.265 0 0 1.322 239.438 -426.399)" font-size="12" fill="#c4c4c2" stroke="#000" stroke-width=".875"/><path d="M695.072 114.154v.292c0-.788-.018-.386.28 1.169.462.98.559 2.031.559 3.506.734-.547 1.346-1.639 1.677-2.629 0-2.307-.312-2.171-2.516-2.337zm10.343 33.594h.28c-.822 0-.359.05 1.118-.876.956-.666 1.739-1.651 3.075-2.045 1.294-1.062 2.29-1.559 3.633-2.044.655-.315 1.233-.861 1.957-.292-.207 1.441-.447 1.986-1.677 2.628-.636.833-1.638 1.319-2.515 1.753-.91.418-1.91.439-2.237 1.461-1.521.699-1.708.582-3.634-.584zm5.311 8.472c.498-.394 2.249-2.218 3.074-2.92.934-1.286 1.877-2.27 2.796-2.922.815-1.253 1.858-2.093 2.516-3.214.777-.982 1.348-1.814 2.237-2.92 0 1.277-.116 2.971.278 3.797 0 1.765-.195 2.247-.837 3.506-.635 1.034-1.108 1.719-2.516 2.337-1.27.703-2.032.951-3.075 1.752-.796.512-1.624 1.021-2.516 1.461-.799.358-.433.202-1.956-.876zm-8.666 6.719h.28c-.822 0-.361.05 1.118-.876 1.193-1.247 2.143-1.68 3.634-2.337 1.135-.091 2.507-.386 3.355-.876.676-.124 1.146-.554 1.676 0 .878 1.24 1.12 1.59-.28 2.337-.669.594-1.849 1.191-2.794 1.461-.698.602-2.08.639-3.355.876-1.142 0-1.777.135-2.237-.584l2.237.584c-1.142 0-1.777.135-3.634-.584zm12.02 0v-.292c0 .816-.034.383.559-1.169 1.047-1.634 1.442-2.536 2.796-2.922.634-.801 1.732-1.009 3.075-1.461.503.878.116 1.901 0 2.922-.366 1.091-1.362 1.86-1.957 2.629-.872.619-1.227 1.214-2.516 1.461-1.066 0-.501-.028-1.957-1.169z" font-size="12" fill="#bcbcbc"/><path d="M139.213 302.603a1.105 1.105 0 1 1-2.21 0 1.105 1.105 0 1 1 2.21 0z" transform="matrix(1.265 0 0 1.322 510.494 -275.042)"/></g><path d="M690.055 206.441h1.118c-3.505 0-1.41-.245 4.472 4.673 2.464-2.146 2.435-2.435 4.473 1.169 1.176 2.052 1.522-.209 3.354-2.336.883 4.245 1.448 8.696 4.473 4.673 3.455 0 7.071-.3 8.945 1.169 2.264 4.396 1.523-.746 3.355 1.169 4.923.617 4.83-4.413 10.192-5.714 3.333 4.353 4.793 1.003 8.946-1.167 3.084.902 5.991 5.792 6.578 1.038 2.525-4.304 2.745-3.938 4.473 0 2.455 2.311 3.49-1.155 5.59-2.336 3.743 2.288 7.918 2.606 13.418 1.169.931 3.892 3.279 2.204 5.59 1.167 4.946 2.172 6.672 2.837 12.3 0 2.788-3.442 1.209.097 3.354 2.337 4.169-1.352 3.018-1.639 7.828-1.169 4.834 0 5.224-.122 6.708-3.505 2.429 2.538 3.307 4.368 6.708 1.169 5.212.16 3.6.687 6.71-1.169 2.3 5.322 2.84 1.477 5.59 3.505-1.811 4.8-4.594 7.052-7.827 9.348-2.15 3.723-3.495 7.743-7.827 9.349-3.16 3.368-6.527 5.321-10.063 8.179-4.847 1.266-10.183 1.169-15.654 1.169h-46.96c-3.34 1.744-8.802 2.575-13.418 3.505-5.155 0-10.998.063-14.535-1.169-2.397-2.504-6.602-5.303-8.945-8.179-2.371-1.998-2.439-5.896-4.473-8.179-1.871-3.343-2.449-8.574-4.472-11.685v-8.179zm108.457 10.517v1.169c0-3.267.138-1.531-2.237 4.673-.481 1.507-1.533 1.861-3.355 2.337m-4.471-3.506h1.118c-4.14 4.086-6.927 5.969-7.828 10.517l7.828-10.517c-4.14 4.086-6.927 5.969-7.828 10.517m-8.945-16.359c0 .104-.157 4.168-1.118 5.842m-3.353 2.338v1.169-1.169zm-8.945-7.011h1.118-1.118zm-62.615 0c.534 0 2.734 3.71 5.59 5.842-.711 3.419-1.804 7.374 0 10.517m3.355-9.348c.534 0 2.734 3.711 5.591 5.843l-5.591-5.843c.534 0 2.734 3.711 5.591 5.843v1.169c0-3.61-.287-7.391 1.117-9.349 1.243 2.198 2.813 5.734 3.355 2.337 6.297-.235 9.337-2.083 13.418-3.505 0 1.719-.264.892 1.118 2.336m76.031-4.673h1.118c-2.109 1.836-3.727 5.581-5.591 8.179m-41.369-11.685h8.945" fill="#005120" fill-opacity=".996" fill-rule="evenodd" stroke="#002b0d" stroke-width="1pt" stroke-opacity=".996"/><path d="M687.31 223.704c-13.443 0-17.899 14.049-31.343 14.049-.259 0-.504-.021-.756-.032v.851c-.051 9.738.715 18.81 2.111 27.279 12.401-.906 17.008-14.049 29.988-14.049l31.374 14.081 31.374-14.081 31.374 14.081 31.374-14.081c12.946 0 17.565 13.051 29.893 14.018 1.477-8.696 2.257-18.039 2.205-28.067v-.032c-.252.01-.497.032-.756.032-13.443 0-17.899-14.049-31.343-14.049l-31.374 14.049-31.374-14.049-31.374 14.049-31.374-14.049zm0 54.842c-10.458 0-15.488 8.477-23.53 12.254 2.81 7.746 6.205 14.797 9.986 21.262 3.819-2.888 7.879-5.386 13.545-5.386l31.374 14.049 31.374-14.049 31.374 14.049 31.374-14.049c5.541 0 9.547 2.391 13.293 5.197 3.779-6.436 7.189-13.475 10.017-21.168-7.915-3.826-12.947-12.159-23.31-12.159l-31.374 14.049-31.374-14.049-31.374 14.049-31.374-14.049zm62.748 54.841l-31.374 14.081c-12.714 0-17.419-12.587-29.264-13.954 15.83 17.634 33.78 28.31 46.022 34.178 4.14-3.213 8.428 3.906 14.616 3.906 6.144 0 10.409-7.156 14.521-3.969 12.106-5.894 29.837-16.587 45.581-34.051-11.456 1.675-16.206 13.892-28.728 13.892l-31.374-14.081z" font-size="12" fill="#fff" fill-rule="evenodd"/><g transform="matrix(1.008 0 0 1.008 -15.14 3.204)"><path d="M332.536 541.35c1.744-.581 10.173-3.197 10.464-2.907.291.291 16.278 15.697 16.278 15.697l-13.371 2.616-13.371-15.406z" transform="matrix(1.255 0 0 1.312 259.351 -429.999)" stroke="#512007" stroke-width=".475" stroke-opacity=".996" fill="none"/><path transform="matrix(1.063 0 0 1.029 276.804 -177.96)" d="M413.635 471.006c.291-4.651 8.72-31.103 8.72-31.103m-5.813 31.418c0-.291 6.686-31.127 6.686-31.127m-4.396 31.175c.29-1.744 5.558-31.175 5.558-31.175m-10.464 27.033c1.453-.872 5.813-2.035 5.813-2.035m-3.778-2.616c1.453 0 4.36-1.163 4.36-1.163m-3.488-2.325c0-.291 4.36-1.163 4.36-1.163m-3.779-3.197l4.651-.872m-2.616-2.907c0 .291 3.197.291 3.197.291m-2.325-3.779c.581 0 3.197.581 3.197.581" font-size="12" stroke="#512007" stroke-width=".594" stroke-opacity=".996" fill="none"/><path transform="matrix(-1.255 0 0 1.762 1290.391 -502.057)" d="M413.635 471.006c.291-4.651 8.72-31.103 8.72-31.103m-5.813 30.231c0-.291 6.686-29.94 6.686-29.94m-3.779 27.614c.29-1.744 4.941-27.614 4.941-27.614m-10.464 27.033c1.453-.872 5.813-2.035 5.813-2.035m-3.778-2.616c1.453 0 4.36-1.163 4.36-1.163m-3.488-2.325c0-.291 4.36-1.163 4.36-1.163m-3.779-3.197l4.651-.872m-2.616-2.907c0 .291 3.197.291 3.197.291m-2.325-3.779c.581 0 3.197.581 3.197.581" stroke="#512007" stroke-width=".41" stroke-opacity=".996" fill="none"/><path transform="matrix(-1.255 0 0 1.312 1321.337 -301.916)" d="M413.635 471.006c.291-4.651 8.72-31.103 8.72-31.103m-5.813 30.231c0-.291 6.686-29.94 6.686-29.94m-3.779 27.614c.29-1.744 4.941-27.614 4.941-27.614m-10.464 27.033c1.453-.872 5.813-2.035 5.813-2.035m-3.778-2.616c1.453 0 4.36-1.163 4.36-1.163m-3.488-2.325c0-.291 4.36-1.163 4.36-1.163m-3.779-3.197l4.651-.872m-2.616-2.907c0 .291 3.197.291 3.197.291m-2.325-3.779c.581 0 3.197.581 3.197.581" stroke="#512007" stroke-width=".475" stroke-opacity=".996" fill="none"/><path d="M395.322 572.162c0-.291.872-72.96.872-72.96s2.616-.291 2.616 0-.29 72.669-.581 72.96c-.291.291-3.198.581-2.907 0zm28.487-69.763c0 .582-.582 61.333-.582 61.333l-2.035 2.326.582-63.659h2.035zm-60.752 57.845s2.907 29.94 36.335 29.068c33.428-.872 42.729-30.23 42.729-30.23s-14.243-.582-14.534-.582c-.29 0-11.627 13.953-26.161 13.662-14.534-.291-19.184-3.779-22.382-6.685-3.197-2.907-6.104-7.267-6.104-7.267l-16.859-6.686.872 6.395 6.104 2.325zm90.245-3.11c-.291-.872-1.007-3.866-1.007-3.866v-3.488l1.609-3.532s-25.289 3.623-25.289 3.914c0-.335-.156 6.885-.156 6.885l24.843.087z" transform="matrix(1.255 0 0 1.312 259.351 -429.999)" fill="#dd8b59" fill-rule="evenodd" stroke="#512007" stroke-width=".475" stroke-opacity=".996"/><path d="M448.516 549.78l-.581 6.104h4.069l-.29-6.104h-3.198zm-4.36.291l-.291 6.394 2.616-.29.291-6.104h-2.616zm-4.36 6.394v-4.941l2.616-.872.291 4.941-2.907.872zm-4.942-.29l.582-4.36 2.906.29.291 4.651-3.779-.581zm-5.523 0l.291-3.779 2.907-.291v4.36l-3.198-.29zm-67.437 3.779c.872 0 7.558 1.453 7.558 1.453l6.976 9.302m-9.592-9.593c.29.291 6.104 19.766 34.009 19.766l34.591-22.091m4.36.581s-13.371 29.068-38.951 27.033c-25.58-2.034-29.649-11.627-31.684-16.568-2.035-4.942-3.197-9.011-3.197-9.011" transform="matrix(1.255 0 0 1.312 259.351 -429.999)" stroke="#512007" stroke-width=".475" stroke-opacity=".996" fill="none"/><path d="M373.231 558.21c.29-1.745.29-54.357.29-54.357l-1.744-.291-.29 53.776 1.744.872zm-41.567-17.15l22.091 10.755-.581 1.453s-21.22-9.883-21.22-10.174c0-.29.291-1.453-.29-2.034zm10.173-3.198c0 .872 3.198 18.603 3.198 18.603s2.035.291 2.035 0c0-.29-3.489-18.312-3.489-18.312l-1.744-.291zm20.348.581c1.163 0 20.929-3.197 20.929-3.197l-.291 3.197-19.475 2.035-1.163-2.035z" transform="matrix(1.255 0 0 1.312 259.351 -429.999)" fill="#dd8b59" fill-rule="evenodd" stroke="#512007" stroke-width=".475" stroke-opacity=".996"/><path d="M365.092 514.317c.581 0 6.976 3.198 9.592 2.326 2.616-.872.872-2.907 1.453-2.907.582 0 2.616 1.453 3.779.29 1.163-1.162 2.035-4.65 1.454-4.36-.582.291-15.988 5.814-16.278 4.651z" transform="matrix(1.255 0 0 1.312 259.351 -429.999)" fill="#fecf3e" fill-rule="evenodd" stroke="#512007" stroke-width=".475" stroke-opacity=".996"/><path d="M362.475 521.584c1.163.291 23.836-6.104 23.836-6.104s0 2.035-.291 2.035c-.29 0-23.545 6.104-23.545 6.104v-2.035z" transform="matrix(1.255 0 0 1.312 259.351 -429.999)" fill="#dd8b59" fill-rule="evenodd" stroke="#512007" stroke-width=".475" stroke-opacity=".996"/><path d="M415.088 512.573s1.454 3.488 2.907 2.907l2.907-1.744s1.163 2.907 3.197 2.325c2.035-.581 3.198-3.779 3.198-3.779s2.034.582 2.906.291c.873-.291 2.035-4.941 2.035-4.941l-17.15 4.941zm-1.744 28.196c-.291.581 1.454 2.035 2.907 2.035s2.035-2.035 2.325-1.454c.291.582.291 3.198 4.07 2.326 3.779-.872 3.779-3.488 3.779-3.488s-1.163.872 1.453 1.162c2.616.291 5.232-3.779 4.942-3.779-.291 0-18.894 3.489-19.476 3.198z" transform="matrix(1.255 0 0 1.312 259.351 -429.999)" fill="#fecf3e" fill-rule="evenodd" stroke="#512007" stroke-width=".475" stroke-opacity=".996"/><path d="M363.348 513.154c-.291 1.163.29 2.617.29 2.617l18.894-6.395s.872-1.454 0-1.454-19.475 5.814-19.184 5.232zm24.998-4.069c.581 0 19.475-6.104 19.475-6.104s.291 2.616 0 2.616c-.29 0-17.731 5.232-17.731 5.232l-1.744-1.744z" transform="matrix(1.255 0 0 1.312 259.351 -429.999)" fill="#dd8b59" fill-rule="evenodd" stroke="#512007" stroke-width=".475" stroke-opacity=".996"/><path d="M413.344 521.875s-2.907 3.197-2.035 7.557c.872 4.361 2.035 8.139 2.326 8.139.291 0 3.488-5.813 6.976-6.104 3.488-.291 9.883 3.198 9.883 3.198s-.872-6.977-.581-10.174c.29-3.198 5.232-8.72 5.232-8.72l-21.801 6.104z" transform="matrix(1.255 0 0 1.312 259.351 -429.999)" fill="#fecf3e" fill-rule="evenodd" stroke="#512007" stroke-width=".475" stroke-opacity=".996"/><path d="M386.892 516.643s-.581 2.616-.29 2.616c.29 0 24.707-6.395 24.707-6.395v-1.744l-24.417 5.523z" transform="matrix(1.255 0 0 1.312 259.351 -429.999)" fill="#dd8b59" fill-rule="evenodd" stroke="#512007" stroke-width=".475" stroke-opacity=".996"/><path d="M355.499 551.815s-5.813-.872-5.523.581c.291 1.453 2.907 2.907 3.198 3.779.29.872-.872 4.069.872 3.779 1.744-.291 3.488-1.454 3.488-2.326 0-.872-.291-4.941-.291-4.941l-1.744-.872z" transform="matrix(1.255 0 0 1.312 259.351 -429.999)" fill="#b6b6b4" fill-opacity=".996" fill-rule="evenodd" stroke="#512007" stroke-width=".475" stroke-opacity=".996"/><path d="M387.764 537.281v2.034l20.929-2.906-.581-1.454-20.348 2.326z" transform="matrix(1.255 0 0 1.312 259.351 -429.999)" fill="#dd8b59" fill-rule="evenodd" stroke="#512007" stroke-width=".475" stroke-opacity=".996"/><path d="M363.057 540.769c.291 0 0 2.616 2.325 2.035 2.326-.582 2.907-2.035 2.907-2.035s.581 3.197 3.779 2.907c3.197-.291 4.941-3.779 4.941-3.779s.291 2.616 2.326 1.744c2.035-.872 2.616-2.907 2.616-2.907l-18.313 2.616-.581-.581zm0-17.15s-2.616.872-1.744 6.104c.872 5.232 2.907 8.139 3.197 8.139.291 0 2.616-4.941 6.104-5.813 3.489-.873 9.593 2.616 9.593 2.616s-.582-4.651.291-9.011c.872-4.361 3.778-7.558 3.778-7.558s-20.347 5.523-21.219 5.523z" transform="matrix(1.255 0 0 1.312 259.351 -429.999)" fill="#fecf3e" fill-rule="evenodd" stroke="#512007" stroke-width=".475" stroke-opacity=".996"/><path d="M411.891 538.734l.29 1.744s20.929-2.616 20.929-2.907c0-.29 0-2.034-.29-2.034-.291 0-20.639 3.488-20.929 3.197zm-.291-18.603l.291 2.034 24.707-6.685s.582-1.744.291-1.744-24.708 7.267-25.289 6.395z" transform="matrix(1.255 0 0 1.312 259.351 -429.999)" fill="#dd8b59" fill-rule="evenodd" stroke="#512007" stroke-width=".475" stroke-opacity=".996"/><path d="M414.216 510.829s-.29 1.744 0 1.744c.291 0 18.313-4.36 18.313-4.651 0-.29 1.744-2.035.291-1.744-1.454.291-18.022 5.523-18.604 4.651zm38.66 33.719l-18.022-28.487m-2.325 19.766c.291-.872 1.163-18.312 1.163-18.312" transform="matrix(1.255 0 0 1.312 259.351 -429.999)" stroke="#512007" stroke-width=".475" stroke-opacity=".996" fill="none"/><path d="M388.927 509.957c1.163.291 3.198 3.197 4.36 2.616 1.163-.581 2.907-2.325 2.907-2.325s-.291 3.488 2.035 2.906c2.325-.581 2.616-2.906 2.616-2.906s1.744.872 3.197 0c1.454-.872 2.907-5.233 2.326-5.233s-16.859 5.233-17.441 4.942zm-.581 8.43c0 .581-2.907 5.232-2.035 9.592.872 4.36 2.616 8.43 2.907 8.43.291 0 4.651-4.651 8.43-5.523 3.778-.872 9.301 2.907 9.011 2.907-.291 0-1.454-4.361-1.454-7.558 0-3.198 4.36-13.081 4.36-13.081l-21.219 5.233zm0 20.928c0 .291.872 2.326 2.907 2.326 2.034 0 2.325-2.035 2.325-2.035s-.291 3.488 2.907 3.198c3.197-.291 4.36-3.489 4.36-3.489s.291 1.745 2.907.873c2.616-.873 6.104-3.779 5.813-3.779-.29 0-20.928 3.779-21.219 2.906z" transform="matrix(1.255 0 0 1.312 259.351 -429.999)" fill="#fecf3e" fill-rule="evenodd" stroke="#512007" stroke-width=".475" stroke-opacity=".996"/><use height="496.063" width="992.126" transform="translate(-6.564 7.275)" xlink:href="#k"/><use xlink:href="#k" transform="translate(6.565 3.758)" width="992.126" height="496.063"/><use height="496.063" width="992.126" transform="translate(0 11.033)" xlink:href="#k"/><path id="k" d="M408.984 476.965a1.889 1.889 0 1 1-3.779 0 1.889 1.889 0 1 1 3.779 0z" transform="matrix(.041 -1.072 1.024 .043 251.599 667.915)" fill="#be0f17" fill-opacity=".996" fill-rule="evenodd" stroke="#512007" stroke-width=".581" stroke-opacity=".996"/><path d="M398.229 500.074c0-.291 9.011 3.779 9.011 4.069 0 .291 31.974 42.73 32.265 42.73m-15.987-42.73l8.139 3.489 2.616 6.394m-61.333-10.464c-.291 0 9.011 6.976 9.011 6.976l1.163 5.814m-41.858 29.649c4.069-1.744 32.265-26.452 32.265-26.452m-39.823 21.801c3.489-2.907 31.684-26.742 31.684-26.742m21.22 4.069l29.94 49.706m-3.532-29.151s3.532 11.711 7.02 13.455c3.488 1.744 7.557 4.651 7.557 4.651m-14.98-17.863s2.481 13.793 5.969 16.409c3.488 2.616 6.977 5.523 6.977 5.523" transform="matrix(1.255 0 0 1.312 259.351 -429.999)" stroke="#512007" stroke-width=".475" stroke-opacity=".996" fill="none"/><path d="M390.962 439.031s3.488 19.185 10.465 23.545c6.976 4.36 12.789 8.139 12.789 8.139m-23.544-31.975s7.557 15.116 13.952 19.767c6.395 4.65 15.115 9.011 15.115 9.011m-53.484-27.615c2.034 3.488 1.744 10.174 4.069 12.499 2.325 2.326 5.814 7.558 5.814 7.558m-9.302-19.766c1.163 1.744 4.406 10.428 6.395 13.08 1.454 2.326 16.278 17.15 16.278 17.15" transform="matrix(1.255 0 0 1.312 256.257 -299.489)" stroke="#512007" stroke-width=".475" stroke-opacity=".996" fill="none"/><path d="M384.567 471.151a2.18 2.18 0 1 1-4.36 0 2.18 2.18 0 1 1 4.36 0zm10.755 4.651a1.889 1.889 0 1 1-3.779 0 1.889 1.889 0 1 1 3.779 0zm13.662 1.163a1.889 1.889 0 1 1-3.779 0 1.889 1.889 0 1 1 3.779 0zm11.918-4.506a1.599 1.744 0 1 1-3.197 0 1.599 1.744 0 1 1 3.197 0zm9.592-5.668a1.889 1.599 0 1 1-3.779 0 1.889 1.599 0 1 1 3.779 0z" transform="matrix(1.255 0 0 1.312 256.257 -299.489)" fill-rule="evenodd" stroke="#512007" stroke-width=".475" stroke-opacity=".996"/><path d="M374.103 404.44c-.872.582-15.406 4.07-13.371 3.779 2.034-.29 13.662 2.907 13.371 2.035-.291-.872 0-5.232 0-5.814zm24.708-4.36c-.582 0-9.012 3.198-8.721 3.198.291 0 9.593 2.616 9.302 2.034-.291-.581-.291-4.36-.581-5.232zm25.289 2.907c-.582.291-10.465 2.616-8.721 2.907 1.744.291 8.43 2.616 8.43 2.035 0-.582 0-4.651.291-4.942z" transform="matrix(1.255 0 0 1.312 256.257 -299.489)" fill="#f00" fill-opacity=".996" fill-rule="evenodd" stroke="#512007" stroke-width=".475" stroke-opacity=".996"/><path transform="matrix(1.255 0 0 1.312 256.257 -299.489)" d="M413.635 471.006c.291-4.651 8.72-31.103 8.72-31.103m-5.813 30.231c0-.291 6.686-29.94 6.686-29.94m-3.779 27.614c.29-1.744 4.941-27.614 4.941-27.614m-10.464 27.033c1.453-.872 5.813-2.035 5.813-2.035m-3.778-2.616c1.453 0 4.36-1.163 4.36-1.163m-3.488-2.325c0-.291 4.36-1.163 4.36-1.163m-3.779-3.197l4.651-.872m-2.616-2.907c0 .291 3.197.291 3.197.291m-2.325-3.779c.581 0 3.197.581 3.197.581" stroke="#512007" stroke-width=".475" stroke-opacity=".996" fill="none"/><path transform="matrix(1.255 0 0 1.363 225.311 -323.364)" d="M413.635 471.006c.291-4.651 8.72-31.103 8.72-31.103m-5.813 31.418c0-.291 6.686-31.127 6.686-31.127m-4.396 31.175c.29-1.744 5.558-31.175 5.558-31.175m-10.464 27.033c1.453-.872 5.813-2.035 5.813-2.035m-3.778-2.616c1.453 0 4.36-1.163 4.36-1.163m-3.488-2.325c0-.291 4.36-1.163 4.36-1.163m-3.779-3.197l4.651-.872m-2.616-2.907c0 .291 3.197.291 3.197.291m-2.325-3.779c.581 0 3.197.581 3.197.581" font-size="12" stroke="#512007" stroke-width=".475" stroke-opacity=".996" fill="none"/><path transform="matrix(-1.255 0 0 1.32 1259.188 -307.285)" d="M413.635 471.006c.291-4.651 8.72-31.103 8.72-31.103m-5.813 30.231c0-.291 6.686-29.94 6.686-29.94m-3.779 27.614c.29-1.744 4.941-27.614 4.941-27.614m-10.464 27.033c1.453-.872 5.813-2.035 5.813-2.035m-3.778-2.616c1.453 0 4.36-1.163 4.36-1.163m-3.488-2.325c0-.291 4.36-1.163 4.36-1.163m-3.779-3.197l4.651-.872m-2.616-2.907c0 .291 3.197.291 3.197.291m-2.325-3.779c.581 0 3.197.581 3.197.581" stroke="#512007" stroke-width=".474" stroke-opacity=".996" fill="none"/><path d="M426.425 558.5l27.614.582.291-2.035-28.487-.291.582 1.744zm1.162-7.267c3.198 0 27.324-4.651 27.324-4.651s.872-2.906 0-2.906l-27.324 5.523v2.034z" transform="matrix(1.255 0 0 1.312 259.351 -429.999)" fill="#dd8b59" fill-rule="evenodd" stroke="#512007" stroke-width=".475" stroke-opacity=".996"/><use height="496.063" width="992.126" transform="translate(0 5.516)" xlink:href="#k"/></g></svg>