<svg version="1" xmlns="http://www.w3.org/2000/svg" width="1000" height="500" viewBox="0,0 512,256"><path fill="#fff" d="M0 0h512v256h-512z"/><path fill="#da000c" d="M0 171.5h512v84.5h-512z"/><path d="M235.781 227.563v8.031h5.031v-4.031h6.844v4.031h5.406v-8.031zm0 11.063v8.063h17.281v-8.063h-5.406v4.031h-6.844v-4.031z" fill="#f8d80e" stroke="#000"/><path d="M196.571 116.303h118.858v43.993h-118.858z"/><path d="M229.819 153.865h-39.069l-8.66 5.7v6.04h47.729m52.362-11.74h39.069l8.66 5.7v6.04h-47.729" fill="#da000c" stroke="#000" stroke-linecap="square"/><path d="M182.09 159.564h147.82" stroke="#000" stroke-linecap="square"/><path d="M228.563 156.813l-9.781 4.719v7.031h74.438v-7.031l-9.781-4.719h-27.438z" fill="#da000c" fill-rule="evenodd" stroke="#000"/><g stroke="#000" stroke-linecap="round"><path d="M273.297 150.031c-1.342.395-3.04 1.253-5.125 2.406-2.085 1.153-4.47 2.604-6.719 4.094-1.667 1.104-3.06 2.207-4.438 3.281-.481.375-1.143.766-1.563 1.125-.49.419-.826.82-1.219 1.219-.257.261-.599.524-.813.781-.54.65-1.063 1.215-1.063 2.406 0 .216.006.433.031.656.775-.929 1.887-1.575 3.125-1.719h.875c.188.015.354.059.531.094l.188-.188c.227-.211.35-.358.625-.594.55-.47 1.456-1.066 2.156-1.594 1.133-.854 2.159-1.674 3.5-2.563 2.169-1.437 4.48-2.838 6.469-3.938 1.988-1.1 3.753-1.892 4.438-2.094z" fill="#f8d80e" fill-rule="evenodd"/><path d="M260.4 157.391v3.912m2.417-5.618v3.883m2.416-5.388v3.858m2.417-5.344v3.981"/></g><path d="M218.771 161.519h74.458" stroke="#000"/><path d="M213.469 128.594c5.625 0 10.219 4.689 10.219 10.469v14.781h7.344v-56h-40.281v56h12.5v-14.781c0-5.554 4.515-10.469 10.219-10.469z" fill="#da000c" stroke="#000" stroke-linecap="square"/><path d="M204.528 59.962h18.523v33.959h-18.523z"/><path d="M223 88.656h-16.209v-5.75h-11.885v5.75h-8.063v-5.75h-4.813v10.438h40.969m-36.156-.038h34.97v4.538h-34.97zm13.876-45.681v35.281h6.072v-9.688c0-3.629 2.562-6.599 6.146-6.781h.344c3.746 0 6.781 3.035 6.781 6.781v9.688h5.781v-35.281z" fill="#da000c" fill-rule="evenodd" stroke="#000"/><path d="M240.803 38.351h29.329v53.255h-29.329z"/><path d="M238.75 38.375v44.563h9.313v-13.219c0-3.049 1.953-7.281 7.938-7.281 5.985 0 7.938 4.232 7.938 7.281v13.219h9.313v-44.563h-17.25zm15.813 5h2.876v15.25h-2.876zm-8.25 3h2.906v11.156h-2.906zm16.469 0h2.906v11.156h-2.906z" fill="#da000c" fill-rule="evenodd" stroke="#000"/><path d="M235.594 31.969v6.344h40.812v-6.344h-20.406zm-3.844-7.375v7.375h48.5v-7.375h-6.094v4.063h-6.875v-4.063h-7.844v4.063h-6.876v-4.063h-7.844v4.063h-6.875v-4.063zm-33.219 18.25v4.781h29.25v-4.781zm-3.75-9.156v9.156h35.094v-9.156h-5.406v4.656h-6.531v-4.656h-9.969v4.656h-6.531v-4.656z" fill="#da000c" stroke="#000" stroke-linecap="square"/><path fill="#f8d80e" stroke="#000" d="M253.052 193.651h4.99v58.115h-4.99z"/><path d="M255.547 179.406l10.625 6.188-10.625 6.156-10.625-6.156zm-14.219 3.969h-2.781v4.438h2.781l14.219 8.25 14.219-8.25h2.781v-4.438h-2.781l-14.219-8.25z" fill="#f8d80e" stroke="#000" stroke-width="1.024"/><path d="M238.891 150.156l-1.188 3.313c3.841 1.388 9.29 4.086 13.656 6.719 2.183 1.316 4.094 2.61 5.406 3.688.656.539 1.16 1.038 1.438 1.375l.094.125v.031l.063.125c-.025.224-.065.465-.125.625l-.031.063v.031l-.031.031-.063.094-.031.031-.031.031-.063.031-.094.063c-.143.058-.376.094-.75.094-.222 0-.401-.033-.531-.063l-.156-.031-.063-.031-.094-.063-.031-.031-.031-.031-.031-.063h-.437c-1.147.116-2.12.934-2.438 2.063v.031l.031.031.063.063c.803.969 2.18 1.625 3.719 1.625 1.618 0 3.03-.678 3.813-1.688.783-1.01.969-2.158.969-3.094 0-1.091-.49-1.725-1-2.344-.51-.619-1.172-1.216-1.938-1.844-1.53-1.256-3.535-2.596-5.813-3.969-4.555-2.746-10.081-5.513-14.281-7.031z" fill="#f8d80e" fill-rule="evenodd" stroke="#000" stroke-width=".768"/><path d="M254.05 158.035l-.312 3.339m3.094-1.635l-.862 3.27m3.834-.997l-1.809 2.537m2.72 3.632l-2.61-1.4m3.423-1.352l-2.995.28m-.868 4.056l-.205-2.632m-.892-.377l-2.473 1.822m-9.418-15.641v3.115m6.286.192v3.534m-3.143-5.185v3.319" stroke="#000" stroke-linecap="round"/><path d="M255.344 164.281c-2.32.356-4.094 2.467-4.094 4.938v11.031c0 2.717 2.158 4.969 4.813 4.969h.376c1.887 0 3.524-1.147 4.313-2.781l-1.719-1.031c-.428 1.06-1.431 1.781-2.594 1.781h-.376c-1.551 0-2.813-1.278-2.813-2.938v-11.031c0-1.659 1.262-2.906 2.813-2.906h.376c.436 0 .85.103 1.219.281h.031l.219-.063.094-.063.031-.031h.031l.031-.031.031-.031.063-.094v-.031l.031-.031.031-.063c.06-.16.1-.401.125-.625l-.063-.125v-.031l-.094-.125c-.203-.247-.552-.565-.969-.938h-.031l-.125-.031h-1.753zm5.781 3.906l-.156.25c-.416.536-1.011.984-1.719 1.281v7.563l2 1.156v-9.219c0-.35-.026-.7-.094-1.031h-.031z" fill="#f8d80e" stroke="#000" stroke-width="1.024"/><path d="M298.531 128.594c-5.625 0-10.219 4.689-10.219 10.469v14.781h-7.344v-56h40.281v56h-12.5v-14.781c0-5.554-4.515-10.469-10.219-10.469z" fill="#da000c" stroke="#000" stroke-linecap="square"/><path d="M222.75 97.844v4.594h66.5v-4.594h-33.25z" fill="#da000c" stroke="#000" stroke-linecap="round"/><path d="M307.472 59.962h-18.523v33.959h18.523z"/><path d="M289 88.656h16.209v-5.75h11.885v5.75h8.063v-5.75h4.813v10.438h-40.969m36.156-.038h-34.97v4.538h34.97zm-13.876-45.681v35.281h-6.072v-9.688c0-3.629-2.562-6.599-6.146-6.781h-.344c-3.746 0-6.781 3.035-6.781 6.781v9.688h-5.781v-35.281zm-91.25 35.281v14.938h71.938v-14.938h-6.813v5.75h-9.063v-5.75h-12.156v5.75h-15.876v-5.75h-12.156v5.75h-9.063v-5.75z" fill="#da000c" fill-rule="evenodd" stroke="#000"/><path d="M313.469 42.844v4.781h-29.25v-4.781zm3.75-9.156v9.156h-35.094v-9.156h5.406v4.656h6.531v-4.656h9.969v4.656h6.531v-4.656z" fill="#da000c" stroke="#000" stroke-linecap="square"/><path fill="#f8d80e" stroke="#000" d="M253.052 198.679h4.99v50.06h-4.99z"/><path d="M228.688 102.438v54.344h12.844v-20.344c0-9.583 6.396-14.094 14.469-14.094 7.759 0 14.469 4.511 14.469 14.094v20.344h12.844v-54.344h-27.313z" fill="#da000c" fill-rule="evenodd" stroke="#000" stroke-linejoin="round"/></svg>