<svg xmlns="http://www.w3.org/2000/svg" xmlns:xlink="http://www.w3.org/1999/xlink" width="500" height="300" viewBox="0 0 500 300"><title>Flag of Haiti</title><path fill="#00209f" fill-rule="evenodd" d="M0 0h500v300h-500z"/><path fill="#d21034" fill-rule="evenodd" d="M0 150h500v150h-500z"/><path fill="#fff" fill-rule="evenodd" overflow="visible" enable-background="accumulate" d="M202.679 112.284h94.642v75.341h-94.642z"/><path d="M356.938 303.719l-103.875 3.125-103.406 1.219s-53.126 20.367-74.844 24.938c-21.654 4.557-18.838 11.931-35.594 15.813-13.421 3.109-14.969 4.089-22.844 4.625-4.765.324-10.635 4.125-16.375 8.313v58.25h509v-55.406c-5.517-3.116-10.775-5.26-16.156-7.156-7.477-2.635-12.516-5.516-25.938-8.625-16.756-3.881-13.94-11.255-35.594-15.813-21.717-4.571-74.375-29.281-74.375-29.281zm-109.125-229.469l-2.5 50.563h15.594l-2.281-50.125 16.255-2.366-1.8-19.97-40.393 1.616.226 18.135 14.901 2.148z" fill="#016a16" fill-rule="evenodd" stroke="#016a16" transform="matrix(.186 0 0 .179 202.679 112.284)"/><g transform="matrix(.186 0 0 .179 202.679 112.284)"><g id="a"><g fill-rule="evenodd" stroke="#000"><path d="M210.969 213.298l-13.56-30.236 5.864-1.283 24.738 50.209-17.042-18.691z" fill="#f1b517"/><path d="M179.634 147.696l15.026 42.513h7.696l-22.723-42.513z" fill="#fff"/><path d="M225.079 174.084l7.513-.183 13.743 59.921-2.932 18.874-18.325-78.613zm6.413 61.754l-23.089-64.319 8.613-.55 26.937 78.613-12.461-13.743z" fill="#f1b517"/><path d="M197.592 134.869l9.529 44.712h7.696l-17.225-44.712zm19.607-.733l5.131 46.178 5.497-.366-10.628-45.812z" fill="#fff"/></g><g fill-rule="evenodd"><path d="M212.812 217.859l-61.503-69.594c-19.209 15.766-15.64 44.715-15.64 44.715l69.685 56.672 7.458-31.793z" fill="#0a328c" stroke="#000"/><path d="M248.373 256.159l-45.625-47.906c-19.289.694-3.983 30.544-3.012 34.29l48.637 43.116v-29.5z" fill="#d20014" stroke="#000"/><path d="M244.49 247.924l-94.33-104.695-3.681 2.696 99.826 114.958-1.814-12.959zm-99.781-111.409l-2.071-2.485.207-4.97-19.465-12.839 8.697 20.293 6.626 1.242 2.071 2.485 3.934-3.727zm-9.939 7.455c3.313-4.141 7.248-8.283 14.288-12.217l5.384 8.076-11.596 10.147-8.076-6.005z" fill="#f1b517" stroke="#000"/><path d="M185.941 236.301l-77.268-63.614c-13.229 13.954-2.23 57.038-2.23 57.038l75.522 42.407 3.977-35.831z" fill="#0a328c" stroke="#000"/><path d="M250.015 287.838l-63.561-52.775c-21.707 3.157-4.643 36.27-3.348 39.917l67.125 37.732-.216-24.874z" fill="#d20014" stroke="#000"/><path d="M247.739 276.951l-137.501-106.914-3.157 3.296 144.408 116.8-3.749-13.181zm-144.038-112.579l-2.472-2.087-.661-4.931-21.407-9.259 12.098 18.476 6.743.071 2.472 2.087 3.227-4.356zm-8.493 9.072c2.543-4.656 5.698-9.42 11.948-14.52l6.708 7.018-9.657 12.012-9-4.51z" fill="#f1b517" stroke="#000"/><path d="M180.41 275.203c-1.025-.256-99.589-58.212-99.589-58.212-7.176 12.558-.686 30.776 2.46 33.609.182 8.361-3.24 12.858 3.8 30.321 2.077 11.354 7.145 21.814 14.522 28.027 8.988 35.771 44.221 38.174 57.793 9.053l21.015-42.799z" fill="#0a328c" stroke="#000"/><path d="M245.638 313.45l-67.486-41c-21.707 3.157.46 44.905 1.754 48.553l65.163 23.994.569-31.547z" fill="#d20014" stroke="#000"/><path d="M234.789 298.382l-152.581-84.127-2.604 3.75 160.951 92.813-5.766-12.437zm-159.926-88.701l-2.769-1.676-1.424-4.769-22.599-5.8 14.843 16.362 6.674-.985 2.769 1.676 2.507-4.809zm-6.973 10.292c1.784-4.998 4.156-10.198 9.534-16.216l7.726 5.885-7.662 13.379-9.597-3.048z" fill="#f1b517" stroke="#000"/><path d="M124.407 161.635l3.162 5.721c1.957-.753 21.681-19.272 21.681-19.272l14.153-.452 4.065-4.667c-10.389-11.593-20.175 1.656-20.175 1.656l-22.885 17.014z" fill="#0a328c" stroke="#0a328c"/><path d="M135.7 171.271c.753-5.119 10.088-17.917 11.443-18.369 7.009 2.181 13.528 6.362 20.627-10.238-6.173 8.13-18.67-.151-18.67-.151l-5.42 4.667.151 2.258-16.411 15.809 8.281 6.023z" fill="#d20014" stroke="#d20014"/><path d="M87.504 191.862l.853 5.911c1.816-1.049 19.167-20.766 19.167-20.766l13.913-2.654 2.836-4.643c-9.662-11.79-19.976 3.88-19.976 3.88l-16.793 18.273z" fill="#0a328c" stroke="#0a328c"/><path d="M98.506 202.482c-.657-5.477 6.57-21.535 7.839-22.193 8.318 2.568 15.562 6.434 18.631-11.526-4.831 8.996-18.619 2.011-18.619 2.011l-4.627 5.457.651 2.961-14.05 18.782 10.175 4.508z" fill="#d20014" stroke="#d20014"/><path d="M61.167 239.33l3.188 6.503c1.651-1.291 16.153-25.507 16.153-25.507l13.398-4.564 2.523-5.649c-10.758-10.307-18.804 7.475-18.804 7.475l-16.459 21.744z" fill="#0a328c" stroke="#0a328c"/><path d="M75.527 248.556c-1.076-5.565 2.607-23.386 3.77-24.213 8.39 2.597 15.392 3.336 17.332-14.607-4.882 8.521-17.892 5.308-17.892 5.308l-3.819 6.045.803 2.115-11.074 22.013 10.879 3.34z" fill="#d20014" stroke="#d20014"/></g><path d="M233.175 337.278l-37.971-12.205-16.544-29.292-58.583-2.983 2.035 21.968 49.904 9.902 4.746 8.815 57.363 16.545-.95-12.75z" fill="#f1b517" fill-rule="evenodd" stroke="#000"/><g fill-rule="evenodd" stroke="#000"><path d="M193.52 345.461l-59.959-91.414-2.943 2.294 59.485 91.796 3.416-2.677z" fill="#503200"/><path d="M139.141 257.639l-6.401-11.104c-1.198-2.052-3.018-2.733-5.692-1.273-2.604 1.422-2.351 4.233-1.29 6.26l5.918 10.325 7.465-4.208z" fill="#fff"/></g><g stroke="#000"><path d="M200.643 289.01l-120.99-12.746-2.941 18.237 120.401 12.55 3.53-18.041zm-123.147-17.453l-3.137 25.296h5.098l3.53-23.139-5.491-2.157zm20.198 4.118l-1.373 22.747 3.137.392 2.549-20.198-4.314-2.941zm81.967 9.805l-2.941 21.374 5.883-.196 2.353-21.178h-5.295zm18.027.583l-4.188 24.719 6.656 1 1.906-13c.535 2.612 2.856 4.594 5.625 4.594 3.165 0 5.75-2.585 5.75-5.75s-2.585-5.719-5.75-5.719c-2.201 0-4.197 1.338-5.063 3.83l1.25-9.267-6.188-.406z" fill="#f1b517" fill-rule="evenodd"/><g fill="#f1b517" fill-rule="evenodd"><path d="M154.021 290.077l-16.639 19.412 1.941 2.357 21.353-15.114-6.656-6.656zm-38.686 48.392l16.639-19.412-1.941-2.357-21.353 15.114 6.656 6.656zm43.539-4.853l-20.244-16.223-2.08 1.525 15.946 20.937 6.378-6.24zm-49.917-37.438l20.522 15.668 2.496-1.941-16.084-20.937-6.933 7.21zm22.33-12.929l1.961 25.492 2.762-.122 6.492-24.816-11.215-.555zm6.725 61.851l-1.961-25.492-3.039-.294-3.719 25.786h8.719zm27.216-34.357l-25.786 2.843-.392 2.549 26.08 3.53.098-8.922zm-61.354 8.824l25.174-4.125.531-2.028-26.04-3.016.335 9.169z"/><path d="M141.256 313.605c0 3.772-3.058 6.83-6.83 6.83-3.772 0-6.83-3.058-6.83-6.83 0-3.772 3.058-6.83 6.83-6.83 3.772 0 6.83 3.058 6.83 6.83zm29.55.05c0 20.024-16.252 36.276-36.276 36.276-20.024 0-36.276-16.251-36.276-36.276 0-20.024 16.251-36.276 36.276-36.276 20.024 0 36.276 16.251 36.276 36.276zm-7.247 0c0 16.024-13.005 29.029-29.029 29.029s-29.029-13.005-29.029-29.029 13.005-29.029 29.029-29.029 29.029 13.005 29.029 29.029z" overflow="visible" enable-background="accumulate"/></g><path d="M111.869 295.346l-5.685-4.437m46.312.138l4.853-5.13m5.546 50.888l-5.962-4.853m-45.064 10.399l5.13-5.685" fill="none"/></g><g fill-rule="evenodd" stroke="#000"><path d="M234.04 277.831l6.212 32.814-5.067 2.766-5.451-35.111 4.306-.469z" fill="#f1b517"/><path d="M230.791 273.605c-2.88-1.248-6.624.864-12.768-7.2-10.102 9.6-.576 11.04.96 20.543 2.857 1.217 4.616-7.374 12.384-8.256.96-.096 12.358-1.132 12.358-1.132l-2.861-4.042s-7.927.216-10.073.087zm4.128 6.432l-1.152-9.792c-1.248-3.456-5.376-.48-5.376 1.536l1.056 9.024 5.472-.768z" fill="#fff"/></g><path d="M164.595 361.107c.002 1.423-.756 2.739-1.988 3.451-1.232.712-2.75.712-3.982 0-1.232-.712-1.99-2.028-1.988-3.451-.002-1.423.756-2.739 1.988-3.451 1.232-.712 2.75-.712 3.982 0 1.232.712 1.99 2.028 1.988 3.451zm-10.182-7.467c.002 1.423-.756 2.739-1.988 3.451-1.232.712-2.75.712-3.982 0-1.232-.712-1.99-2.028-1.988-3.451-.002-1.423.756-2.739 1.988-3.451 1.232-.712 2.75-.712 3.982 0 1.232.712 1.99 2.028 1.988 3.451zm-13.712 4.888c.002 1.423-.756 2.739-1.988 3.451-1.232.712-2.75.712-3.982 0-1.232-.712-1.99-2.028-1.988-3.451-.002-1.423.756-2.739 1.988-3.451 1.232-.712 2.75-.712 3.982 0 1.232.712 1.99 2.028 1.988 3.451zm-21.179 4.751c.002 1.423-.756 2.739-1.988 3.451-1.232.712-2.75.712-3.982 0-1.232-.712-1.99-2.028-1.988-3.451-.002-1.423.756-2.739 1.988-3.451 1.232-.712 2.75-.712 3.982 0 1.232.712 1.99 2.028 1.988 3.451zm-8.96 1.086c.002 1.423-.756 2.739-1.988 3.451-1.232.712-2.75.712-3.982 0-1.232-.712-1.99-2.028-1.988-3.451-.002-1.423.756-2.739 1.988-3.451 1.232-.712 2.75-.712 3.982 0 1.232.712 1.99 2.028 1.988 3.451zm-8.824 0c.002 1.423-.756 2.739-1.988 3.451-1.232.712-2.75.712-3.982 0-1.232-.712-1.99-2.028-1.988-3.451-.002-1.423.756-2.739 1.988-3.451 1.232-.712 2.75-.712 3.982 0 1.232.712 1.99 2.028 1.988 3.451zm-8.96-.271c.002 1.423-.756 2.739-1.988 3.451-1.232.712-2.75.712-3.982 0-1.232-.712-1.99-2.028-1.988-3.451-.002-1.423.756-2.739 1.988-3.451 1.232-.712 2.75-.712 3.982 0 1.232.712 1.99 2.028 1.988 3.451zm4.344-7.06c.002 1.423-.756 2.739-1.988 3.451-1.232.712-2.75.712-3.982 0-1.232-.712-1.99-2.028-1.988-3.451-.002-1.423.756-2.739 1.988-3.451 1.232-.712 2.75-.712 3.982 0 1.232.712 1.99 2.028 1.988 3.451zm8.689.407c.002 1.423-.756 2.739-1.988 3.451-1.232.712-2.75.712-3.982 0-1.232-.712-1.99-2.028-1.988-3.451-.002-1.423.756-2.739 1.988-3.451 1.232-.712 2.75-.712 3.982 0 1.232.712 1.99 2.028 1.988 3.451zm8.281-1.086c.002 1.423-.756 2.739-1.988 3.451-1.232.712-2.75.712-3.982 0-1.232-.712-1.99-2.028-1.988-3.451-.002-1.423.756-2.739 1.988-3.451 1.232-.712 2.75-.712 3.982 0 1.232.712 1.99 2.028 1.988 3.451zm-4.209-6.923c.002 1.423-.756 2.739-1.988 3.451-1.232.712-2.75.712-3.982 0-1.232-.712-1.99-2.028-1.988-3.451-.002-1.423.756-2.739 1.988-3.451 1.232-.712 2.75-.712 3.982 0 1.232.712 1.99 2.028 1.988 3.451zm-8.145-.136c.002 1.423-.756 2.739-1.988 3.451-1.232.712-2.75.712-3.982 0-1.232-.712-1.99-2.028-1.988-3.451-.002-1.423.756-2.739 1.988-3.451 1.232-.712 2.75-.712 3.982 0 1.232.712 1.99 2.028 1.988 3.451z" overflow="visible" enable-background="accumulate" fill="#f1b517" fill-rule="evenodd" stroke="#000" stroke-width="1.092" stroke-linecap="round"/><g stroke="#000"><path d="M169.928 334.727c-3.423-1.434-3.39 6.533-3.39 6.533l5.393.058c2.359 1.11 4.257 4.697 2.752 6.458-1.244 1.456-11.71-2.459-12.412-.207 1.85 10.824 15.687 14.988 20.694 10.253 4.897-4.631 6.137-16.99-9.775-20.228l-3.262-2.867z" fill="#fff" fill-rule="evenodd"/><path d="M173.128 337.666l-1.573 3.562" fill="none"/></g><path d="M65.956 338.777l-5.181-22.572m11.472 21.276l-7.956-17.577m21.647 12.952l-17.947-9.991m25.718 7.956l-33.303-14.987" stroke="#000" fill="none"/><path d="M40.531 299.518s-12.121-.198-14.283.68c-.872.354 3.049 4.597 2.235 6.218-3.028 6.033-23.633 5.206-25.262 3.887-2.787-2.258 19.191-4.196 19.335-5.733.166-1.764-3.25-6.393-2.721-9.23.687-3.682 9.619-5.052 9.619-5.052l11.077 9.23z" fill="#d20014" fill-rule="evenodd" stroke="#d20014"/><path d="M56.763 310.878l-27.441-23.537s-1.209-1.328-2.22-.185c-.99 1.119.37 2.405.37 2.405l28.308 24.238.983-2.921z" fill="#503200" fill-rule="evenodd" stroke="#000"/><path d="M83.186 334.108c-.486-.486-22.347-20.113-22.347-20.113l-1.457-5.733s-3.376 2.371-4.615 3.595c-1.239 1.224-3.158 4.567-3.158 4.567l6.121.291 19.335 18.364 6.121-.972zm121.647-27.011l.101 9.125c-2.881 1.022-2.442 3.261-2.349 6.514l.101 26.597c-1.022 1.766-4.182 1.848-5.67 3.232-1.487 1.383-1.301 4.068 5.484 5.834l5.247.194c7.993-1.812 9.643-4.556 5.635-6.103-2.132-.823-4.938-1.805-6.006-3.106l.177-6.337 5.188.194c1.394 0 4.047-3.633 4.14-6.607l.025-13.772c-.186-7.807-5.838-8.685-7.418-8.593l.11-7.19-4.765.017zm8.77 15.219c.093-2.231-2.988-4.22-4.229-4.275-1.241-.056-3.95 2.602-4.043 4.833v5.577c.186 2.045 1.762 8.971 4.926 9.48 1.499.241 3.439-2.231 3.439-4.275l-.093-11.339z" fill="#f1b517" fill-rule="evenodd" stroke="#000"/><g stroke="#000"><path d="M253.518 53.597c-41.755-43.321-74.638-22.183-82.467-16.18 5.175 1.048 9.82-2.294 12.224-2.678-1.507 1.971-4.656 6.854-4.656 6.854s12.911-6.318 14.353-5.741c-1.861 1.539-3.915 5.219-3.915 5.219.962.385 8.222-5.893 9.656-6.002-2.212 2.596-2.898 8.516-2.898 8.516l6.291-3.035c1.635 1.202-.454 3.513.967 3.392 10.456-.89 25.158 9.908 27.177 13.225m12.929 4.362c-4.352-10.335-83.834-27.902-99.817 1.36 6.256 1.632 12.239-5.44 12.239-5.44l-.544 6.528 10.607-8.431-3.808 8.703 8.431-7.072-.272 7.072 10.335-11.695-1.36 6.8 9.247-4.08-1.088 5.712m52.495 2.175c-20.399-14.143-51.948-4.624-51.948-4.624-20.127 11.695-30.855 9.585-33.454 31.278 1.904-.816 7.343-7.615 7.343-7.615l4.08 8.431 1.36-11.967 3.264 9.247 4.896-15.231 1.088 10.335 7.615-10.335 3.536 2.992 3.264-7.887 2.992 5.168s5.168-3.264 8.159-1.36l5.712-6.8 1.36 4.896 4.896-5.984 1.904 4.352 4.896-4.624-.272 3.264 16.863.272m-2.169-1.357c-14.216-.275-55 15.673-65.547 32.366 4.2-2.431 6.79-3.539 6.79-3.539l2.081 6.708 2.543-6.708.544 5.168c1.559-4.036 3.321-4.491 6.256-.272l1.088-6.256 1.632 5.984 2.72-6.528s1.711 7.075 2.72 6.8c0 0 4.51-12.233 6.528-12.783l.544 7.615 2.72-7.615 2.448 5.712.544-8.159 2.72 6.256s1.426-6.151 3.536-7.343l4.08 3.808 18.164-13.528m.621-4.205c-18.937 7.523-35.874 34.444-34.577 45.858 8.415-10.824 6.602-9.333 10.364 3.118 0 0 1.423-10.895 2.85-12.192l2.47 8.065.917-10.547 2.526.121-.649-6.615 3.761 2.983c-.879-3.782-1.816-5.059 2.075-8.301 0 0-4.929.649-1.038-8.561l3.632 3.632s-.649-4.021.649-5.577l13.36-4.799m-4.506-5.167l-7.154 14.124 3.669 1.101-8.254 6.42 6.97-.734s-10.639 4.036-11.923 14.858l10.823-4.953s-9.172 9.722-10.456 15.592l6.237-5.686s-6.053 6.787-5.136 17.059l4.586-5.32c-1.101 12.473-.734 13.574 4.769 23.113 0 0-1.467-14.675.183-16.509l12.107 13.024-6.787-18.527s7.521 11.74 12.107 10.639l-9.538-15.041 9.355 7.888-10.639-16.509 9.905 3.118s-7.154-9.355-6.604-15.225l6.787 7.704s-2.568-8.805-1.834-11.373l3.485.734-6.787-8.071 4.586-.917-.55-5.32 3.302-1.101-.183-5.87" fill="#016a16" fill-rule="evenodd"/><path d="M246.749 75.33c-11.74 16.509-5.686 42.006-12.657 55.03" fill="none"/></g><path d="M181.735 366.293c0-1.764-4.134-1.005-4.134-3.07 0-2.294 6.304-.608 7.175 1.411 3.548-3.323 5.077-.894 7.25.11 3.095-4.768 6.922-4.59 10.656-1.099 2.159-2.469 7.581-1.653 9.448 1.099 3.575-3.674 6.749-2.769 9.228-.11.997-1.932 2.46-1.509 3.515-.11 1.905-3.502 6.68-2.451 8.69-.139 1.787-2.036 3.618-.446 5.99 1.058 1.602-1.554 4.186-1.261 4.186.284 0 1.61-3.376 1.044-3.376 2.642 0 1.426 2.463.705 2.463 2.509 0 1.42-3.656 1.952-4.221-.311-1.238 2.451-5.711 1.51-6.152-.769-1.488 1.862-4.824 2.429-6.701-.33-1.541 1.3-3.386 1.486-4.232.174-2.781 3.099-7.469 2.462-9.083-.954l-1.578.07c-2.732 3.845-7.001 2.069-8.175-.058-4.586 3.429-7.326 2.349-9.887.11-2.943 3.716-7.426 3.457-8.459 0-1.98 1.496-6.112 1.848-6.112.098 0-1.676 3.51-1.067 3.51-2.613zm8.899.835c0 .798-1.048 1.446-2.34 1.446-1.292 0-2.34-.648-2.34-1.446 0-.798 1.048-1.446 2.34-1.446 1.292 0 2.34.648 2.34 1.446zm9.79-1.215c0 .961-1.262 1.741-2.817 1.741-1.555 0-2.817-.78-2.817-1.741 0-.961 1.262-1.741 2.817-1.741 1.555 0 2.817.78 2.817 1.741zm19.227 1.099c0 .973-1.142 1.762-2.549 1.762s-2.549-.789-2.549-1.762 1.142-1.762 2.549-1.762 2.549.789 2.549 1.762zm-10.237-.463c0 1.229-1.117 2.227-2.493 2.227s-2.493-.998-2.493-2.227c0-1.229 1.117-2.227 2.493-2.227s2.493.998 2.493 2.227zm21.833.058c0 1.099-.998 1.991-2.229 1.991-1.23 0-2.229-.892-2.229-1.991 0-1.099.998-1.991 2.229-1.991 1.23 0 2.229.892 2.229 1.991zm-6.689.463c0 .71-.645 1.287-1.44 1.287-.795 0-1.44-.576-1.44-1.287 0-.71.645-1.287 1.44-1.287.795 0 1.44.576 1.44 1.287zm13.025.521c0 1.02-.727 1.848-1.623 1.848s-1.623-.828-1.623-1.848.727-1.848 1.623-1.848 1.623.828 1.623 1.848z" fill="#f1b517" fill-rule="evenodd" stroke="#000"/></g><use transform="matrix(-1 0 0 1 508.238 0)" width="509" height="420" xlink:href="#a"/></g><g stroke="#000"><path d="M250.962 166.419s1.189-9.923 1.186-14.195c-.002-3.361-.814-10.812-.814-10.812h-3.418s-.52 7.413-.442 10.766c.099 4.273 1.186 14.241 1.186 14.241h2.302zm-3.273-24.529h3.961l-.465-2.66h-2.871l-.625 2.66zm.253-2.133h3.54l-.667-2.66h-2.18l-.692 2.66zm.228-2.156h2.95l-.499-2.66h-1.877l-.574 2.66zm2.555-2.976h-2.063l-.209.962h2.441l-.169-.962z" fill="#f1b517" fill-rule="evenodd"/><path d="M251.148 164.256h-2.621m2.765-1.943h-2.941m3.329-1.972h-3.728m3.921-2.148h-3.902m3.929-2.148h-4.103m4.263-1.963h-4.451m4.46-1.787h-4.652m4.625-2.157h-4.652m4.496-2.13h-4.496m4.29-2.166h-4.067m3.871-1.954h-3.673" fill="none"/></g><path d="M773.625 297.875c-13.508 0-24.469 5.262-24.469 11.719 0 1.107.304 2.172.906 3.188 2.921 3.507 12.406 6.063 23.656 6.063 10.524 0 19.492-2.245 23-5.406.884-1.208 1.375-2.492 1.375-3.844 0-6.456-10.961-11.719-24.469-11.719z" fill="#0a328c" fill-rule="evenodd" stroke="#0a328c" stroke-width="1.265" stroke-linecap="round" overflow="visible" enable-background="accumulate" transform="matrix(.186 0 0 .179 105.959 112.284)"/><path d="M798.311 310.491v39.346c0 4.613-11.017 8.358-24.591 8.358-13.574 0-24.591-3.744-24.591-8.358v-39.346c0 4.613 11.017 8.358 24.591 8.358 13.574 0 24.591-3.744 24.591-8.358z" fill="#f1b517" fill-rule="evenodd" stroke="#000" stroke-width="1.023" stroke-linecap="round" overflow="visible" enable-background="accumulate" transform="matrix(.186 0 0 .179 105.959 112.284)"/><path d="M749.125 310.5v6.031l11.938 38.156 9.531-29.344 10.469 30.469 7.66-28.759 9.59 19.333v-10.7l-8.906-18.75c-.999.282-2.064.524-3.188.75l-5.531 21.25-7.781-20.094c-1.303-.015-2.599-.044-3.844-.125l-7.813 20.219-8.938-24.344c-2.02-1.213-3.188-2.601-3.188-4.094z" fill="#d20014" fill-rule="evenodd" stroke="#d20014" transform="matrix(.186 0 0 .179 105.959 112.284)"/><g fill-rule="evenodd"><path d="M798.311 342.491v7.346c0 4.613-11.017 8.358-24.591 8.358-13.574 0-24.591-3.744-24.591-8.358v-7.346c0 4.613 11.017 8.358 24.591 8.358 13.574 0 24.591-3.744 24.591-8.358z" fill="#0a328c" stroke="#0a328c" overflow="visible" enable-background="accumulate" transform="matrix(.186 0 0 .179 105.959 112.284)"/><path d="M263.844 350.094c-1.999.308-4.134.539-6.375.656l.063 7.344c2.242-.119 4.376-.346 6.375-.656l-.063-7.344zm-26.188-1.281l-.063 7.313c1.898.563 4.032 1.03 6.375 1.375v-7.344c-2.315-.341-4.431-.79-6.313-1.344zm-8.531-6.313v7.344c0 1.37.997 2.64 2.719 3.781l.125-7.25c-1.807-1.163-2.844-2.469-2.844-3.875zm49.188.781l-.125.031c-.431 1.491-2.037 2.874-4.469 4.031l.031 7.313c2.852-1.365 4.563-3.012 4.563-4.813v-6.563z" transform="matrix(.186 0 0 .179 202.679 112.284)" fill="#f1b517" stroke="#000" overflow="visible" enable-background="accumulate"/></g><path d="M798.311 310.748v39.089c0 4.613-11.017 8.358-24.591 8.358-13.574 0-24.591-3.744-24.591-8.358v-39.089" stroke="#000" stroke-width="1.023" stroke-linecap="round" overflow="visible" enable-background="accumulate" transform="matrix(.186 0 0 .179 105.959 112.284)" fill="none"/><path d="M792.063 307.556c0 5.268-10.101 9.539-22.562 9.539s-22.562-4.271-22.562-9.539 10.101-9.539 22.562-9.539 22.562 4.271 22.562 9.539z" transform="matrix(.157 0 0 .095 129.184 138.209)" fill="#fff" fill-rule="evenodd" stroke="#fff" stroke-width="1.569" stroke-linecap="round" overflow="visible" enable-background="accumulate"/><path d="M247.5 311.656l.844 6.969c1.651.125 3.367.213 5.125.219l1.25-7.188h-7.219zm22.063-1.687l-4.906 1.375.313 6.563c1.668-.293 3.238-.653 4.656-1.063l-.063-6.875zm-29.063-10.639c-1.392.426-2.694.921-3.875 1.469l.688 5.263 3.125-1.031.063-5.701zm13.125-2.076c-.654 0-1.296.038-1.938.063l1.063 6.592 3.25-.063 1.281-6.436c-1.195-.086-2.411-.156-3.656-.156zm14.375 2.327l-.656 5.763 3.719 1.362.406-5.656c-1.056-.54-2.218-1.032-3.469-1.469z" transform="matrix(.186 0 0 .179 202.679 112.284)" fill="#f1b517" fill-rule="evenodd" stroke="#000" stroke-width="1.265" stroke-linecap="round" overflow="visible" enable-background="accumulate"/><path d="M232.951 315.058l.991-7.178-5.028-2.823.15 8.169 3.888 1.832zm45.19-1.548l.224-7.178-4.71 1.458 4.486 5.72z" transform="matrix(.186 0 0 .179 202.679 112.284)" fill="#f1b517" fill-rule="evenodd" stroke="#000"/><g transform="matrix(.186 0 0 .179 202.679 112.284)"><use transform="matrix(1 0 0 -1 -.012 534.063)" width="509" height="420" xlink:href="#b" fill="#016a16"/><path d="M188.076 269.236c0 2.512-4.077 4.55-9.1 4.55s-9.1-2.038-9.1-4.55v-2.469h18.201v2.469z" transform="matrix(1.075 0 0 2.882 -10.215 -500.305)" fill="#016a16" fill-rule="evenodd" stroke="#fff" stroke-width=".564" stroke-linecap="round" overflow="visible" enable-background="accumulate"/><path d="M191.818 266.354c.005 2.765-4.345 5.008-9.712 5.008s-9.717-2.243-9.712-5.008c-.005-2.765 4.345-5.008 9.712-5.008s9.717 2.243 9.712 5.008z" fill="#fff" fill-rule="evenodd" overflow="visible" enable-background="accumulate"/><path d="M179.885 271.994l-1.668-18.381h7.432l-1.213 18.381h-4.55z" fill="#016a16" fill-rule="evenodd" stroke="#f1b517"/><path d="M192.856 266.656c-1.425 2.749-5.704 4.75-10.75 4.75s-9.294-2.001-10.719-4.75c-.329.634-.531 1.301-.531 2 0 3.729 5.04 6.75 11.25 6.75s11.25-3.021 11.25-6.75c0-.699-.171-1.366-.5-2z" id="b" fill="#016a16" fill-rule="evenodd" stroke="#fff" stroke-width="1.299" stroke-linecap="round" overflow="visible" enable-background="accumulate"/></g><g fill="#f1b517" fill-rule="evenodd" stroke="#000"><path d="M235.175 166.823l3.656.369.57-3.239-4.29-.436"/><path d="M236.129 163.385l-.547 3.826 1.094-.035.438-3.791h-.985z"/></g><path d="M328.107 266.16c4.468-.638 11.092 5.711 11.49 13.565.316 6.232-9.096 5.905-9.096 5.905-.479 2.553-5.669 4.916-9.894 5.107-4.099.185 1.117-7.979 1.117-7.979-2.553-7.022.798-15.32.798-15.32l5.585-1.277z" fill="#f1b517" fill-rule="evenodd" stroke="#000" transform="matrix(.186 0 0 .179 202.679 112.284)"/><path d="M321.724 282.438l4.309-.16s.33 2.303 1.117 2.394c.847.098 1.755-2.234 1.755-2.234l6.543-.16" stroke="#000" transform="matrix(.186 0 0 .179 202.679 112.284)" fill="none"/><path d="M330.501 270.788c3.656-2.74.452-8.252-2.075-8.298l-5.905.16c-2.783.06-7.487 3.192-6.862 5.905.545 2.365 2.076 3.444 4.468 3.032 1.086-.187 3.367-3.14 4.468-3.192 1.477-.069 4.721 3.281 5.905 2.394z" fill="#d20014" fill-rule="evenodd" stroke="#f1b517" transform="matrix(.186 0 0 .179 202.679 112.284)"/><g fill-rule="evenodd"><path d="M254.011 37.685c-3.702-1.806-12.076-7.317-9.592-10.607l3.837-6.771c5.435-12.691-.099-7.774-.677-11.736-.555-3.804 20.784-.833 21.102 7.786.088 2.374-1.583.981-1.354 14.557l-4.062 8.125c-3.038.294-6.636-.078-9.253-1.354z" fill="#0a328c" stroke="#0a328c" transform="matrix(.186 0 0 .179 202.679 112.284)"/><path d="M256.607 70.523l-5.304-4.627 1.467-39.608 5.191 1.58-1.354 42.655z" fill="#f1b517" stroke="#000" transform="matrix(.186 0 0 .179 202.679 112.284)"/><path d="M263.49 38.814c3.33-2.02 5.51-8.044 3.498-11.623-5.465-7.177-9.001-4.216-18.168-7.448-1.828 2.018-5.677 5.902-4.852 8.802 12.059 5.885 7.377.873 11.367 1.606 2.151.395 3.541 3.039 8.155 8.663z" fill="#d20014" stroke="#d20014" transform="matrix(.186 0 0 .179 202.679 112.284)"/></g><path d="M62.188 348.813c-3.317.435-3.931 4.395-2.688 8.031-14.448 4.21-27.355 9.697-40.094 13.406-.513-2.64 6.313-10.281 6.313-10.281 1.806.903 3.156 5.188 3.156 5.188.451-8.802 8.812-14.656 8.813-14.656-4.965-.677-20.069 5.392-21.875 7.875 0 0 5.847-.677 6.75 0 0 0-11.514 12.887-12.031 16.719 1.791 4.187 21.656 7.312 21.656 7.313-.314 1.084-5.844 5.188-5.844 5.188 7.901 1.799 19.817-4.002 23.375-7.531 0 0-9.294-.794-16.531-6.875 0 0 1.492 3.786.594 5.594 0 0-11.291-3.374-12.469-5.313.03-.168 26.708-7.329 39.625-11.156.478 2.392 3.043 6.911 6.125 5.844 2.01-.696 1.373-4.826.625-7.75.727.647 1.67 1.031 2.719 1.031 2.271 0 4.125-1.823 4.125-4.094 0-2.271-1.854-4.125-4.125-4.125-1.816 0-3.33 1.179-3.875 2.813-.514-2.524-1.856-7.545-4.344-7.219zm10.158 8.517c0 1.062-.862 1.925-1.925 1.925-1.062 0-1.925-.862-1.925-1.925 0-1.062.862-1.925 1.925-1.925 1.062 0 1.925.862 1.925 1.925z" fill="#f1b517" fill-rule="evenodd" stroke="#000" transform="matrix(.186 0 0 .179 202.679 112.284)"/><path d="M293.099 177.744c.183-.366-.162-2.207-.162-2.207-.373.041-.882.68-.882.68.481-1.508-.865-4.029-.865-4.029.911.19 3.947 3.122 4.104 3.65 0 0-1.329-.473-1.53-.415.217 1.502 1.258 2.201 1.65 2.982 0 0-1.726.378-1.553 1.818l-1.128.021c-.39-.48.152-1.273.152-1.273l-7.741-3.235c-.499-.209-1.621-.717-1.453-1.315.17-.603 2.017.25 2.472.396l6.937 2.926zm-7.436-1.34l.911-1.669c.325-.438-.347-.918-.824-.355l-1.019 1.523c-.455.835.499 1.064.932.501z" fill="#f1b517" fill-rule="evenodd" stroke="#000"/><path d="M231.377 180.221l-.063-1.821-2.208.121-.126 1.983 2.397-.283zm-16.136 2.553l-2.952-1.652c12.173 1.113 14.659-3.122 17.6-3.349 1.808-.141 2.091 1.998-1.413.98l.906 2.237s-8.641 4.849-17.135 2.846l2.994-1.062zm52.998-2.553l.063-1.821 2.7.062.126 1.983-2.889-.224zm16.696 2.106l2.778-1.512c-13.944.414-10.769-2.284-17.745-3.042-1.803-.195-3.158 2.116 1.413.98l-.906 2.237 2.193.002c4.75 3.12 11.16 3.398 15.407 2.397l-3.139-1.062zm-56.508-3.561v3.147s7.731 2.861 21.526 2.861c13.855 0 21.526-2.861 21.526-2.861v-3.147s-5.851 2.69-21.526 2.69c-15.616 0-21.526-2.69-21.526-2.69z" fill="#fff" fill-rule="evenodd" stroke="#000"/><path d="M229.582 181.93l.682-2.304.317.087-.602 2.032 1.179.323-.081.272-1.496-.41zm2.237-1.013l.038-.453.102-.388.338.082-.102.388-.193.415-.183-.044zm3.326-.156l.323.063-.287 1.357c-.05.236-.117.418-.202.546-.085.128-.209.221-.372.28-.163.059-.362.065-.598.019-.229-.045-.407-.119-.537-.224-.129-.104-.21-.234-.242-.39s-.021-.358.031-.607l.287-1.357.323.063-.287 1.355c-.043.204-.055.358-.036.462.019.104.071.192.156.263.085.071.197.12.335.147.237.047.418.028.54-.056.123-.084.215-.273.278-.568l.287-1.355zm.363 2.505l.402-2.365.334.053.975 2.06.316-1.857.312.049-.402 2.365-.334-.053-.975-2.061-.316 1.858-.312-.049zm2.542.383l.342-2.373.326.044-.342 2.373-.326-.044zm.938-1.047c.047-.395.194-.692.441-.892.247-.199.545-.28.894-.241.228.025.428.1.599.225.171.125.293.287.367.485.074.198.097.417.068.655-.029.241-.105.452-.229.631-.124.179-.284.308-.482.385-.197.078-.403.105-.618.081-.233-.026-.435-.103-.605-.231-.171-.128-.292-.291-.364-.489-.072-.198-.096-.401-.071-.61zm.337.042c-.034.287.019.522.16.704.141.183.332.287.574.314.246.027.459-.034.638-.183s.287-.377.323-.683c.023-.194.009-.367-.042-.519-.051-.152-.137-.275-.259-.369-.122-.094-.264-.15-.427-.168-.232-.025-.44.029-.625.164s-.299.381-.342.74zm2.309 1.413l.203-2.388.337.027 1.144 1.978.159-1.875.315.025-.203 2.388-.337-.027-1.144-1.979-.159 1.877-.315-.025zm3.49.242l.109-2.394 1.678.071-.013.282-1.349-.057-.034.741 1.167.049-.013.282-1.167-.049-.049 1.087-.329-.014zm1.834.078l1.004-2.378.355.007.971 2.415-.375-.007-.276-.731-1.041-.019-.288.72-.35-.007zm.738-.97l.844.016-.246-.668-.167-.5c-.035.153-.083.305-.143.455l-.288.698zm1.914 1.009l.005-2.396.329.001-.005 2.396-.329-.001zm1.543-.007l-.031-2.113-.82.011-.004-.283 1.973-.027.004.283-.824.011.031 2.113-.329.005zm2.443-.058l-.116-2.393.329-.015.103 2.111 1.225-.055.014.282-1.554.07zm1.675-.073l.777-2.455.354-.024 1.193 2.32-.374.026-.343-.704-1.038.071-.219.743-.349.024zm.644-1.031l.842-.058-.308-.644c-.094-.196-.165-.357-.213-.484-.02.155-.054.311-.1.466l-.221.72zm2.923.756l-.273-2.382 1.67-.177.032.281-1.342.143.085.738 1.161-.123.032.281-1.161.123.124 1.082-.327.035zm1.826-1.367c-.058-.394.006-.717.192-.97.187-.253.454-.403.801-.451.228-.031.44-.007.639.072.198.08.359.206.483.38.124.174.203.38.238.617.036.241.017.463-.056.666-.073.204-.194.367-.365.49-.17.123-.363.199-.577.229-.232.032-.447.006-.646-.076-.199-.083-.359-.211-.481-.385-.122-.174-.198-.365-.229-.573zm.337-.041c.042.286.156.5.34.643.184.143.397.197.638.164.245-.034.435-.145.569-.332.134-.188.178-.434.133-.74-.029-.193-.088-.357-.177-.492s-.205-.233-.347-.294c-.142-.061-.295-.081-.457-.059-.231.032-.418.135-.562.311-.144.175-.189.442-.136.799zm2.615.804l-.445-2.358 1.086-.19c.218-.038.388-.046.51-.023s.227.081.315.177c.088.095.144.208.169.338.032.167.002.318-.089.452s-.251.238-.48.31l.218.083c.11.067.22.156.328.267l.547.567-.408.071-.417-.434-.295-.284-.194-.129-.16-.037-.183.02-.376.066.197 1.047-.324.057zm.076-1.374l.697-.122c.148-.026.261-.061.339-.105.078-.044.133-.102.164-.175.031-.072.04-.147.025-.223-.021-.111-.08-.196-.178-.253-.098-.057-.237-.07-.419-.038l-.775.135.147.78zm3.932-.261l.34.008c-.008.269-.084.489-.228.66-.144.171-.342.284-.595.339-.262.057-.487.052-.675-.015-.188-.067-.348-.189-.479-.365s-.223-.376-.275-.599c-.057-.243-.058-.466-.004-.668.054-.202.16-.37.316-.502.156-.133.342-.222.556-.269.243-.053.461-.037.655.046.194.083.348.226.464.427l-.3.14c-.096-.158-.207-.264-.332-.318-.125-.054-.269-.064-.432-.029-.187.04-.333.117-.438.231-.105.113-.166.248-.183.404-.017.156-.007.311.029.465.046.199.117.366.212.501.095.135.214.226.359.272.144.046.29.053.438.021.18-.039.321-.122.422-.249.101-.127.151-.294.149-.5zm.915.651l-.67-2.308 1.734-.466.079.272-1.417.381.205.707 1.327-.356.079.271-1.327.356.228.786 1.472-.396.079.272-1.79.481z" style="text-align:start;line-height:100%;-inkscape-font-specification:Arial" font-size="18.7" font-family="Arial"/><path d="M228.427 181.555s7.731 2.861 21.526 2.861c13.855 0 21.526-2.861 21.526-2.861" fill="none"/></svg>