<svg version="1" xmlns="http://www.w3.org/2000/svg" width="2000" height="1000"><path fill="#e8112d" d="M0 0h2000v1000h-2000z"/><path d="M-279.961-58.902c.291-.879.877-9.944.584-9.944-.293 0-13.744-15.791-13.451-15.791.293 0 17.254 3.802 17.254 3.216 0-.584 6.726-16.667 6.726-16.961 0-.291 8.188 19.593 8.188 19.593l16.667 7.312-11.698 9.649s2.633 18.716 2.633 19.009c0 .291-11.698-11.114-11.698-11.114l-12.868 1.463s-1.753-5.849-2.337-6.433z" fill="#f9dd16" stroke="#000" stroke-width="NaN"/><path d="M-370.567-304.646c-11.112 5.722-53.757 54.468-59.606 62.07-4.9 11.037-14.484 25-24.356 33.988-10.538 7.972-16.394 18.863-14.943 29.175-.118 12.831 7.076 21.568 12.807 30.597 3.392 4.124 7.955 6.79 12.807 7.115 9.954 1.314 10.838 4.379 15.82 6.276 19.624 26.72 48.9 46.423 69.985 62.032 13.439 7.083 22.785 14.167 25.987 18.034 6.173 11.787 5.037 23.28 4.191 28.927-5.217 19.687-10.437 39.374-15.654 59.06-2.633 16.084 11.345 12.466 12.096 9.25 6.308-8.188 15.721-2.438 29.172-49.81l18.5-24.904s7.117-2.846 7.117-3.557c10.821-12.992 2.582-20.429-3.56-22.769l-13.518-4.982s-15.654-15.654-16.365-15.654c-7.439-21.64-43.952-67.837-52.433-74.27-5.87-6.118-8.664-8.724-14.237-12.128-8.568-4.098-11.333-5.431-16.581-7.525-4.369-1.753-1.259-6.55 1.52-8.743 28.92-15.743 51.845-33.239 79.595-51.028l4.268-2.846c-3.32-18.973-6.642-37.949-9.961-56.923-15.416-5.455-30.834-10.912-46.251-16.367-2.426 1.66-4.268 3.322-6.404 4.982z" fill="#fff" stroke="#000" stroke-width="3.829"/><path d="M-331.869-4.949c.147-.584 28.949-5.849 28.949-5.849s-3.363 10.674-3.509 10.674l-28.656 8.626z" fill="#f9dd16"/><path d="M-406.926-113.399c5.556-14.767 20.979-26.46 31.339-29.686m42.683 138.396c1.859-.524 10.115-2.933 12.519-3.308 2.565-.601 5.119-1.273 7.586-2.068 2.846-.581 4.629-1.117 7.586-1.655 2.316-.884 4.605-1.489 7.081-2.068m-39.986 26.907c.24-.322 2.203-2.056 3.613-2.894 1.66-.524 7.336-2.933 9.483-3.308 2.292-.601 4.571-1.273 6.774-2.068 2.544-.581 4.134-1.117 6.776-1.655 2.068-.884 4.112-1.489 6.322-2.068m-21.273-110.345h-.413c1.295 0 .5-.108-1.242 2.068-.62 1.672-5.928 5.376-9.925 5.376-1.929.207-4.893.413-6.824.413l-1.862-.413m19.852 77.75h2.066c2.145 0 4.297.382 6.204.413l6.204.586c2.087.295 4.602.199 6.762.507 2.421.082 4.364.56 6.884.56 2.032.077 3.127.416 5.378.416l-5.378-.416c2.032.077 3.127.416 5.378.416m-47.559 47.969c.221-.322 2.018-2.056 3.308-2.894 1.52-.524 6.718-2.933 8.686-3.308 2.097-.601 4.184-1.273 6.202-2.068 2.33-.581 3.786-1.117 6.204-1.655 1.895-.884 3.766-1.489 5.789-2.068m8.539-59.889c-1.17 3.396.346 4.249.973 5.714 1.091 1.42 3.874 3.584 8.272 4.963 1.696.456 3 .903 4.963 1.655 1.299.12 1.938.444 2.894.826m-180.724-137.714h.413c-1.297 0-.519.084 1.655-1.655 1.343-1.501 2.464-2.181 3.721-3.721m20.988 34.837c.276 0 24.058-11.986 26.597-14.547 1.799-1.304 3.161-2.681 5.349-4.163 1.403-.733 2.409-1.672 3.723-2.481 1.093-1.583 2.52-2.539 3.308-3.987 1.46-1.266.833-2.637 2.018-4.163.56-1.561 1.607-4.191 1.948-5.621m30.289 17.788c.13.855-.38 3.49-.343 5.496-.082 2.325-3.072 9.507-6.687 11.652m-35.696-17.415c.139 0 3.759 1.177 9.81 3.039 7.283 2.618 22.43 12.164 23.934 13.478 1.535 1.208 4.28 2.287 5.332 3.721 1.645 1.422 2.851 3.063 4.136 4.549 1.511 1.842 2.798 3.401 3.721 4.963 4.6 3.73 16.973 29.559 17.369 31.017.694 1.364 1.554 3.264 2.068 4.549.918 1.057 1.54 2.551 2.481 4.136.865 2.056 1.833 2.993 2.897 4.549 1.369.951 3.214 2.757 4.963 3.721 1.864 1.595 3.613 2.243 4.963 3.31 1.95.829 23.746 14.607 24.757 15.296 1.991 1.6 8.071 7.9 3.802 12.483-1.811 1.549-3.442 3.601-4.989 4.477-1.576 1.578-3.769 2.284-5.58 3.101-9.819 2.902-14.82 1.862-16.752 1.862h-2.068m-128.983-166.976c2.791 1.093 1.665.286 4.177 1.429 1.689.74 2.801.759 4.461 1.364 1.761.564 6.68 1.451 9.044 3.824 1.734 1.566 3.058 2.89 4.963 4.033 2.253 1.554 3.879 2.246 6.673 3.411 2.356.882 4.991 1.859 7.374 1.943 2.476.144 3.07.022 5.445.022h11.582-5.791" stroke="#000" stroke-width="NaN" fill="none"/><path d="M-457.313-179.11c6.202-.413 16.54 1.448 16.747 1.448l13.648-.207c7.17-.692 8.753-3.447 9.925-5.378 2.688-4.134 4.549-5.582 6.618-8.683 3.308-2.481 7.859 3.308 8.066 3.308 11.578 10.96 2.272 24.4 1.653 24.813-5.789 5.308-7.031 5.652-10.545 2.275-3.517-4.136-4.549-5.995-7.444-7.444-5.582-2.688-17.162-.62-17.371-.62-.207 0-5.995 2.275-5.995 2.275-2.827 1.033-4.619 3.517-9.512 4.34-4.963.346-6.618-.137-9.099-4.134-3.308-5.169-1.655-11.373 3.31-11.993z" fill="#ffe606" stroke="#000" stroke-width="NaN"/><path d="M-133.326-429.775c-.909.177-9.099 4.108-8.955 4.364.144.255-7.031 19.719-7.175 19.464-.144-.255-5.14-16.904-5.651-16.617-.509.286-17.826 2.304-18.081 2.448-.253.142 13.068-16.739 13.068-16.739l-1.793-18.113 14.144 5.47s15.026-11.466 15.282-11.61c.253-.142-3.957 15.644-3.957 15.644l7.58 10.501s-4.24 4.395-4.463 5.189z" fill="#f9dd16" stroke="#000" stroke-width="NaN"/><path d="M-303.162-230.371c10.433 6.883 73.825 20.174 83.318 21.548 12.023-1.137 28.892.377 41.565 4.579 12.113 5.28 24.477 5.049 32.756-1.269 11.244-6.185 15.335-16.737 20.398-26.158 1.933-4.978 2.022-10.263-.073-14.651-3.732-9.321-1.493-11.594-2.28-16.867 13.678-30.201 16.509-65.378 19.784-91.407-.41-15.187 1.185-26.806 2.988-31.492 7.25-11.157 17.827-15.799 23.164-17.829 19.719-5.099 39.439-10.195 59.158-15.293 15.311-5.586 5.309-15.999 2.137-15.078-10.229-1.486-9.829-12.511-57.718-1.024l-30.776-3.925s-5.969-4.81-6.589-4.461c-16.629-3.067-19.075 7.759-18.105 14.26l2.281 14.226s-5.976 21.317-5.628 21.937c-15.22 17.089-37.879 71.966-39.331 82.512-.688 9.91-4.43 8.12-3.428 17.752.037 7.527-.838 2.827 1.673 18.335.612 4.668-5.094 4.307-8.367 2.959-27.895-17.498-54.381-28.91-83.487-44.385l-4.573-2.326-44.743 36.576 8.395 48.34c2.636 1.302 4.988 2.093 7.481 3.142z" fill="#fff" stroke="#000" stroke-width="3.829"/><path d="M-60.856-410.962c-.581.158-19.284-22.371-19.284-22.371s10.954-2.299 11.025-2.171l21.561 20.755z" fill="#f9dd16"/><path d="M-118.621-292.387c-15.596 2.393-33.347-5.323-41.236-12.774m99.735-105.025c-1.367-1.364-7.513-7.381-9.018-9.293-1.781-1.942-3.618-3.839-5.52-5.599-1.901-2.197-3.242-3.488-5.16-5.802-1.905-1.585-3.555-3.284-5.273-5.16m43.051 21.674c-.398-.052-2.872-.913-4.293-1.731-1.27-1.19-6.151-4.958-7.53-6.646-1.646-1.703-3.35-3.361-5.122-4.892-1.753-1.933-2.999-3.056-4.763-5.096-1.784-1.37-3.313-2.855-4.901-4.498m-85.774 72.614l.202.36c-.634-1.129-.339-.383 2.411.069 1.761-.279 7.591 2.534 9.55 6.018 1.125 1.58 2.758 4.063 3.704 5.747l.552 1.825m58.054-55.405l-.202-.36-.81-1.441c-1.051-1.87-1.773-3.933-2.68-5.611l-2.529-5.696c-.765-1.964-2.081-4.11-2.871-6.143-1.115-2.151-1.651-4.079-2.885-6.276-.929-1.809-1.17-2.93-2.273-4.892l2.273 4.892c-.929-1.809-1.17-2.93-2.273-4.892m65.122 17.956c-.389-.035-2.781-.751-4.144-1.465-1.202-1.069-5.849-4.42-7.139-5.951-1.551-1.534-3.16-3.024-4.842-4.393-1.648-1.746-2.829-2.753-4.483-4.598-1.699-1.219-3.144-2.554-4.64-4.033m-56.393 21.901c3.534-.644 3.535-2.384 4.505-3.648.703-1.646 1.226-5.134.273-9.643-.433-1.702-.683-3.058-.989-5.137-.532-1.192-.562-1.908-.698-2.928m-31.5 225.031l-.202-.36c.636 1.131.328.411-2.254-.632-1.967-.435-3.109-1.08-5.067-1.42m20.085-35.368c-.135-.241-22.238-15.1-25.714-16.059-2.019-.929-3.886-1.442-6.25-2.624-1.326-.864-2.638-1.281-3.987-2.03-1.915-.177-3.448-.953-5.097-.93-1.819-.653-2.708.566-4.618.281-1.635.277-4.441.653-5.855 1.056m.664-35.121c.682-.532 3.229-1.379 4.959-2.394 2.067-1.068 9.793-1.98 13.435.12m2.311 39.653c-.068-.121-.816-3.854-2.158-10.041-1.286-7.632-.387-25.514.022-27.469.301-1.93-.104-4.852.631-6.472.433-2.131 1.273-3.986 1.939-5.835.866-2.22 1.594-4.106 2.503-5.675.998-5.838 17.452-29.28 18.529-30.34.849-1.274 2.084-2.954 2.953-4.032.472-1.318 1.469-2.592 2.39-4.19 1.369-1.761 1.711-3.064 2.547-4.755.158-1.66.829-4.153.812-6.149.477-2.406.186-4.249.454-5.948-.233-2.106 1.098-27.859 1.203-29.078.419-2.52 2.932-10.907 9.019-9.432 2.238.82 4.826 1.236 6.348 2.155 2.148.6 3.838 2.166 5.438 3.345 7.341 7.138 8.885 12.008 9.831 13.691l1.013 1.803m-82.473 193.43l-.202-.36c.547.974.244.488-.451-1.645-.182-1.835-.748-4.316-1.034-6.06-.371-1.811-1.219-3.875-.989-5.137-.648-1.84-.24-3.359-.066-5.182.515-2.279.749-3.929.812-6.149.251-2.726.05-4.657.206-7.233-.718-2.121-.864-3.896-1.959-6.014-.974-2.026-1.718-3.9-2.882-5.971l-2.838-5.049 2.838 5.049-2.838-5.049" stroke="#000" stroke-width="NaN" fill="none"/><path d="M-151.217-216.262c-3.399-5.204-6.842-15.129-6.943-15.309l-6.868-11.797c-4.116-5.912-7.294-5.942-9.552-6.017-4.921-.318-7.096-1.231-10.812-1.514-3.784-1.668-.968-8.472-1.069-8.652 3.882-15.464 20.157-13.937 20.821-13.599 7.464 2.445 8.372 3.36 7.15 8.078-1.883 5.092-2.997 6.904-2.842 10.137.392 6.184 7.869 15.265 7.972 15.447.101.18 4.921 4.112 4.921 4.112 2.286 1.959 5.329 2.304 8.445 6.165 2.733 4.157 3.123 5.836.855 9.958-2.886 5.416-9.104 7.016-12.077 2.991zm-384.063-143.904c.646.663 8.422 5.361 8.557 5.101.135-.26 20.35-4.922 20.215-4.662-.135.26-11.327 13.562-10.806 13.832.518.269 11.694 13.651 11.954 13.786.258.134-21.164-1.762-21.164-1.762l-14.171 11.424-3.173-14.83s-17.826-6.289-18.086-6.424c-.258-.134 15.256-5.261 15.256-5.261l4.632-12.095s6 1.139 6.787.89z" fill="#f9dd16" stroke="#000" stroke-width="NaN"/><path d="M-275.402-327.332c.043-12.5-23.571-72.816-27.623-81.512-7.538-9.436-15.515-24.378-18.943-37.283-2.22-13.027-9.187-23.244-19.009-26.709-11.335-6.018-22.404-3.659-33.06-2.733-5.224 1.11-9.694 3.932-12.218 8.089-5.754 8.229-8.881 7.602-12.862 11.149-32.761 5.104-63.741 22.008-87.312 33.53-12.481 8.664-23.076 13.695-27.984 14.755-13.307.047-22.985-6.258-27.607-9.611l-45.207-41.113c-13.063-9.749-16.293 4.324-13.785 6.474 4.361 9.372-5.081 15.078 30.767 48.849 4.527 9.299 9.052 18.599 13.578 27.898 0 0-.754 7.629-.123 7.957 6.545 15.592 16.943 11.707 21.85 7.334l10.652-9.703s21.109-6.68 21.436-7.311c22.636 3.37 80.962-7.74 90.58-12.303 8.668-4.854 9.22-.742 16.73-6.859 6.277-4.155 2.825-.848 14.423-11.445 3.57-3.07 6.394 1.902 7.06 5.379.645 32.925 5.609 61.336 8.61 94.165l.559 5.1c18.371 5.798 36.744 11.595 55.115 17.392l35.843-33.509c-.355-2.918-.981-5.32-1.471-7.98z" fill="#fff" stroke="#000" stroke-width="3.829"/><path d="M-559.246-431.104c.451.399-8.15 28.39-8.15 28.39s-7.925-7.904-7.857-8.034l5.55-29.41z" fill="#f9dd16"/><path d="M-428.395-447.744c10.547 11.737 13.818 30.816 11.906 41.498m-142.511-25.897c-.392 1.891-2.058 10.329-2.834 12.636-.649 2.554-1.229 5.13-1.66 7.686-.796 2.794-1.142 4.623-2.027 7.496-.283 2.463-.8 4.773-1.428 7.238m-5.454-47.892c.175.362.81 2.903.904 4.54-.3 1.715-.778 7.863-1.435 9.941-.523 2.311-.977 4.644-1.286 6.965-.656 2.526-.914 4.184-1.654 6.777-.169 2.243-.573 4.336-1.078 6.565m107.746 31.975l.19-.367c-.597 1.149-.134.493-1.263-2.055-1.198-1.321-2.039-7.739-.197-11.287.706-1.807 1.888-4.533 2.778-6.247l1.225-1.462m-78.16-18.212l-.19.367-.762 1.467c-.989 1.904-2.319 3.638-3.226 5.317l-3.38 5.237c-1.224 1.717-2.298 3.993-3.566 5.768-1.188 2.111-2.508 3.616-3.669 5.852-1.005 1.768-1.81 2.584-2.847 4.582l2.847-4.582c-1.005 1.768-1.81 2.584-2.847 4.582m-20.66-64.322c.184.344.895 2.738 1.045 4.27-.236 1.591-.493 7.315-1.067 9.234-.433 2.138-.798 4.301-1.023 6.458-.558 2.336-.753 3.875-1.39 6.27-.089 2.09-.414 4.029-.832 6.091m49.221 35.179c-2.476-2.604-3.931-1.651-5.52-1.77-1.763.314-4.967 1.787-8.217 5.056-1.187 1.295-2.184 2.247-3.756 3.642-.705 1.098-1.288 1.516-2.067 2.188m205.522-96.942l-.19.367c.598-1.151.164-.499.706 2.232.714 1.884.8 3.193 1.588 5.017m-40.594 2.574c-.127.245-.449 26.878.654 30.312.329 2.198.922 4.041 1.229 6.666.004 1.583.374 2.909.487 4.448.901 1.7 1.092 3.407 2.015 4.773.451 1.88 1.957 1.955 2.765 3.709 1.128 1.216 2.98 3.358 4.091 4.319m-29.747 18.689c-.819-.279-2.923-1.945-4.72-2.838-2.026-1.144-7.023-7.108-7.26-11.306m31.908-23.657c-.064.124-2.777 2.794-7.218 7.307-5.68 5.258-21.134 14.303-22.993 15.032-1.78.806-4.002 2.745-5.76 3.018-2.02.805-4.032 1.119-5.944 1.575-2.332.492-4.309.916-6.119 1.015-5.431 2.364-34.058 1.442-35.535 1.122-1.531-.013-3.614-.125-4.991-.261-1.361.327-2.974.191-4.815.296-2.224-.18-3.501.247-5.373.475-1.475.777-3.929 1.582-5.59 2.69-2.275.919-3.656 2.173-5.225 2.879-1.634 1.349-23.908 14.345-24.986 14.925-2.338 1.03-10.732 3.523-12.832-2.378-.54-2.322-1.61-4.715-1.675-6.492-.675-2.126-.291-4.398-.181-6.382 1.95-10.053 5.178-14.012 6.068-15.726l.953-1.836m207.012-36.982l-.19.367c.515-.991.275-.472-1.129 1.279-1.435 1.158-3.201 2.991-4.504 4.185-1.312 1.303-2.574 3.143-3.756 3.642-1.184 1.551-2.679 2.041-4.299 2.894-2.189.818-3.697 1.526-5.59 2.69-2.418 1.284-3.924 2.51-6.164 3.791-1.381 1.763-2.786 2.857-3.958 4.934-1.162 1.925-2.322 3.575-3.416 5.683l-2.669 5.14 2.669-5.14-2.669 5.14m17.06 106.259l.382-.736c-.705 1.358-.458 1.002.205-1.291.007-2.749.659-6.076.686-8.5.413-2.568.833-5.341.859-7.942-.156-3.042-.15-5.768-.605-8.703-.035-2.701-.351-5.501-.431-8.147-.049-2.621-.245-4.867-.813-7.411-.053-1.906-.171-4.52-.633-6.855.248-1.839-.275-3.532-.666-5.004-.712-2.836-.988-4.489-1.736-7.427-.45-1.573-.894-3.585-1.573-5.943-.245-2.233-1.441-5.133-1.927-7.058-.664-1.417-1.333-3.334-1.59-5.018-.695-1.555-1.686-3.452-1.955-5.211-.733-1.341-1.512-3.427-2.322-5.401-.698-1.621-1.212-3.62-1.954-5.208-.749-2.008-1.664-3.723-2.132-5.768-.717-.694-.879-1.455-1.264-2.053" stroke="#000" stroke-width="NaN" fill="none"/><path d="M-346.848-462.183c-2.492 5.695-8.908 14.013-9.004 14.197l-6.107 12.209c-2.69 6.683-.974 9.358.199 11.288 2.43 4.291 2.858 6.611 4.657 9.875.678 4.079-6.558 5.452-6.653 5.635-15.064 5.225-22.704-9.228-22.785-9.968-2.044-7.585-1.776-8.845 2.841-10.408 5.292-1.215 7.418-1.275 10.038-3.176 4.958-3.716 8.46-14.948 8.556-15.133.095-.183.744-6.37.744-6.37.386-2.985-.992-5.72.531-10.443 1.98-4.564 3.171-5.811 7.862-6.171 6.112-.554 10.858 3.773 9.12 8.465z" fill="#f9dd16" stroke="#000" stroke-width="NaN"/><path d="M-366.653-315.116c-2.276-2.067 42.811 16.337 49.014 16.546 8.481-3.102 43.433-32.676 43.433-32.676.345 2.895 1.584 10.409 4.961 11.996-13.51 10.962-25.782 21.508-39.293 32.468.966 17.373-2.205 35.78 6.618 55.221 0 0-10.546.205-10.546 0-9.307-9.307-12.618-54.185-12.618-54.185l-44.465-19.648c2.138-1.38 3.861-5.652 2.896-9.722z" fill="#f9dd16" stroke="#000" stroke-width="2.402pt"/><path d="M-323.756-269.111c.721-.523-8.133 4.113-10.407 5.277-40.961 21.85-62.04 53.634-63.354 54.835-.708 1.354-2.011 3.16-3.204 4.929-.96 1.483-2.338 3.018-3.246 4.518-1.255 1.738-3.893 5.17-5.334 6.694-.18.982.683-.336.401.317m113.132-102.538c-.795-.402 7.378 5.351 9.453 6.84 38.166 26.431 76.072 30.638 77.741 31.257 1.528.01 3.73.343 5.848.595 1.759.175 3.753.698 5.503.82 2.119.32 6.378 1.096 8.393 1.681.954-.29-.611-.453.098-.502" stroke="#000" stroke-width="2.402pt" fill="none"/><path d="M1028.039 711.099c.291-.879.877-9.944.584-9.944-.293 0-13.744-15.791-13.451-15.791.293 0 17.254 3.802 17.254 3.216 0-.584 6.726-16.667 6.726-16.961 0-.291 8.188 19.593 8.188 19.593l16.667 7.312-11.698 9.649s2.633 18.716 2.633 19.009c0 .291-11.698-11.114-11.698-11.114l-12.868 1.463s-1.753-5.849-2.337-6.433z" fill="#f9dd16" stroke="#000" stroke-width="NaN"/><path d="M937.433 465.355c-11.112 5.722-53.757 54.468-59.606 62.07-4.9 11.037-14.484 25-24.356 33.988-10.538 7.972-16.394 18.863-14.943 29.175-.118 12.831 7.076 21.568 12.807 30.597 3.392 4.124 7.955 6.79 12.807 7.115 9.954 1.314 10.838 4.379 15.82 6.276 19.624 26.72 48.9 46.423 69.985 62.032 13.439 7.083 22.785 14.167 25.987 18.034 6.173 11.787 5.037 23.28 4.191 28.927-5.217 19.687-10.437 39.374-15.654 59.06-2.633 16.084 11.345 12.466 12.096 9.25 6.308-8.188 15.721-2.438 29.172-49.81l18.5-24.904s7.117-2.846 7.117-3.557c10.821-12.992 2.582-20.429-3.56-22.769l-13.518-4.982s-15.654-15.654-16.365-15.654c-7.439-21.64-43.952-67.837-52.433-74.27-5.87-6.118-8.664-8.724-14.237-12.128-8.568-4.098-11.333-5.431-16.581-7.525-4.369-1.753-1.259-6.55 1.52-8.743 28.92-15.743 51.845-33.239 79.595-51.028l4.268-2.846c-3.32-18.973-6.642-37.949-9.961-56.923-15.416-5.455-30.834-10.912-46.251-16.367-2.426 1.66-4.268 3.322-6.404 4.982z" fill="#fff" stroke="#000" stroke-width="3.829"/><path d="M976.131 765.052c.147-.584 28.949-5.849 28.949-5.849s-3.363 10.674-3.509 10.674l-28.656 8.626z" fill="#f9dd16"/><path d="M901.074 656.602c5.556-14.767 20.979-26.46 31.339-29.686m42.683 138.396c1.859-.524 10.115-2.933 12.519-3.308 2.565-.601 5.119-1.273 7.586-2.068 2.846-.581 4.629-1.117 7.586-1.655 2.316-.884 4.605-1.489 7.081-2.068m-39.986 26.907c.24-.322 2.203-2.056 3.613-2.894 1.66-.524 7.336-2.933 9.483-3.308 2.292-.601 4.571-1.273 6.774-2.068 2.544-.581 4.134-1.117 6.776-1.655 2.068-.884 4.112-1.489 6.322-2.068m-21.273-110.345h-.413c1.295 0 .5-.108-1.242 2.068-.62 1.672-5.928 5.376-9.925 5.376-1.929.207-4.893.413-6.824.413l-1.862-.413m19.852 77.75h2.066c2.145 0 4.297.382 6.204.413l6.204.586c2.087.295 4.602.199 6.762.507 2.421.082 4.364.56 6.884.56 2.032.077 3.127.416 5.378.416l-5.378-.416c2.032.077 3.127.416 5.378.416m-47.559 47.969c.221-.322 2.018-2.056 3.308-2.894 1.52-.524 6.718-2.933 8.686-3.308 2.097-.601 4.184-1.273 6.202-2.068 2.33-.581 3.786-1.117 6.204-1.655 1.895-.884 3.766-1.489 5.789-2.068m8.539-59.889c-1.17 3.396.346 4.249.973 5.714 1.091 1.42 3.874 3.584 8.272 4.963 1.696.456 3 .903 4.963 1.655 1.299.12 1.938.444 2.894.826m-180.724-137.714h.413c-1.297 0-.519.084 1.655-1.655 1.343-1.501 2.464-2.181 3.721-3.721m20.988 34.837c.276 0 24.058-11.986 26.597-14.547 1.799-1.304 3.161-2.681 5.349-4.163 1.403-.733 2.409-1.672 3.723-2.481 1.093-1.583 2.52-2.539 3.308-3.987 1.46-1.266.833-2.637 2.018-4.163.56-1.561 1.607-4.191 1.948-5.621m30.289 17.788c.13.855-.38 3.49-.343 5.496-.082 2.325-3.072 9.507-6.687 11.652m-35.696-17.415c.139 0 3.759 1.177 9.81 3.039 7.283 2.618 22.43 12.164 23.934 13.478 1.535 1.208 4.28 2.287 5.332 3.721 1.645 1.422 2.851 3.063 4.136 4.549 1.511 1.842 2.798 3.401 3.721 4.963 4.6 3.73 16.973 29.559 17.369 31.017.694 1.364 1.554 3.264 2.068 4.549.918 1.057 1.54 2.551 2.481 4.136.865 2.056 1.833 2.993 2.897 4.549 1.369.951 3.214 2.757 4.963 3.721 1.864 1.595 3.613 2.243 4.963 3.31 1.95.829 23.746 14.607 24.757 15.296 1.991 1.6 8.071 7.9 3.802 12.483-1.811 1.549-3.442 3.601-4.989 4.477-1.576 1.578-3.769 2.284-5.58 3.101-9.819 2.902-14.82 1.862-16.752 1.862h-2.068m-128.983-166.976c2.791 1.093 1.665.286 4.177 1.429 1.689.74 2.801.759 4.461 1.364 1.761.564 6.68 1.451 9.044 3.824 1.734 1.566 3.058 2.89 4.963 4.033 2.253 1.554 3.879 2.246 6.673 3.411 2.356.882 4.991 1.859 7.374 1.943 2.476.144 3.07.022 5.445.022h11.582-5.791" stroke="#000" stroke-width="NaN" fill="none"/><path d="M850.687 590.891c6.202-.413 16.54 1.448 16.747 1.448l13.648-.207c7.17-.692 8.753-3.447 9.925-5.378 2.688-4.134 4.549-5.582 6.618-8.683 3.308-2.481 7.859 3.308 8.066 3.308 11.578 10.96 2.272 24.4 1.653 24.813-5.789 5.308-7.031 5.652-10.545 2.275-3.517-4.136-4.549-5.995-7.444-7.444-5.582-2.688-17.162-.62-17.371-.62-.207 0-5.995 2.275-5.995 2.275-2.827 1.033-4.619 3.517-9.512 4.34-4.963.346-6.618-.137-9.099-4.134-3.308-5.169-1.655-11.373 3.31-11.993z" fill="#ffe606" stroke="#000" stroke-width="NaN"/><path d="M1174.674 340.225c-.909.177-9.099 4.108-8.955 4.364.144.255-7.031 19.719-7.175 19.464-.144-.255-5.14-16.904-5.651-16.617-.509.286-17.826 2.304-18.081 2.448-.253.142 13.068-16.739 13.068-16.739l-1.793-18.113 14.144 5.47s15.026-11.466 15.282-11.61c.253-.142-3.957 15.644-3.957 15.644l7.58 10.501s-4.24 4.395-4.463 5.189z" fill="#f9dd16" stroke="#000" stroke-width="NaN"/><path d="M1004.838 539.629c10.433 6.883 73.825 20.174 83.318 21.548 12.023-1.137 28.892.377 41.565 4.579 12.113 5.28 24.477 5.049 32.756-1.269 11.244-6.185 15.335-16.737 20.398-26.158 1.933-4.978 2.022-10.263-.073-14.651-3.732-9.321-1.493-11.594-2.28-16.867 13.678-30.201 16.509-65.378 19.784-91.407-.41-15.187 1.185-26.806 2.988-31.492 7.25-11.157 17.827-15.799 23.164-17.829 19.719-5.099 39.439-10.195 59.158-15.293 15.311-5.586 5.309-15.999 2.137-15.078-10.229-1.486-9.829-12.511-57.718-1.024l-30.776-3.925s-5.969-4.81-6.589-4.461c-16.629-3.067-19.075 7.759-18.105 14.26l2.281 14.226s-5.976 21.317-5.628 21.937c-15.22 17.089-37.879 71.966-39.331 82.512-.688 9.91-4.43 8.12-3.428 17.752.037 7.527-.838 2.827 1.673 18.335.612 4.668-5.094 4.307-8.367 2.959-27.895-17.498-54.381-28.91-83.487-44.385l-4.573-2.326-44.743 36.576 8.395 48.34c2.636 1.302 4.988 2.093 7.481 3.142z" fill="#fff" stroke="#000" stroke-width="3.829"/><path d="M1247.144 359.038c-.581.158-19.284-22.371-19.284-22.371s10.954-2.299 11.025-2.171l21.561 20.755z" fill="#f9dd16"/><path d="M1189.379 477.613c-15.596 2.393-33.347-5.323-41.236-12.774m99.735-105.025c-1.367-1.364-7.513-7.381-9.018-9.293-1.781-1.942-3.618-3.839-5.52-5.599-1.901-2.197-3.242-3.488-5.16-5.802-1.905-1.585-3.555-3.284-5.273-5.16m43.051 21.674c-.398-.052-2.872-.913-4.293-1.731-1.27-1.19-6.151-4.958-7.53-6.646-1.646-1.703-3.35-3.361-5.122-4.892-1.753-1.933-2.999-3.056-4.763-5.096-1.784-1.37-3.313-2.855-4.901-4.498m-85.774 72.614l.202.36c-.634-1.129-.339-.383 2.411.069 1.761-.279 7.591 2.534 9.55 6.018 1.125 1.58 2.758 4.063 3.704 5.747l.552 1.825m58.054-55.405l-.202-.36-.81-1.441c-1.051-1.87-1.773-3.933-2.68-5.611l-2.529-5.696c-.765-1.964-2.081-4.11-2.871-6.143-1.115-2.151-1.651-4.079-2.885-6.276-.929-1.809-1.17-2.93-2.273-4.892l2.273 4.892c-.929-1.809-1.17-2.93-2.273-4.892m65.122 17.956c-.389-.035-2.781-.751-4.144-1.465-1.202-1.069-5.849-4.42-7.139-5.951-1.551-1.534-3.16-3.024-4.842-4.393-1.648-1.746-2.829-2.753-4.483-4.598-1.699-1.219-3.144-2.554-4.64-4.033m-56.393 21.901c3.534-.644 3.535-2.384 4.505-3.648.703-1.646 1.226-5.134.273-9.643-.433-1.702-.683-3.058-.989-5.137-.532-1.192-.562-1.908-.698-2.928m-31.5 225.031l-.202-.36c.636 1.131.328.411-2.254-.632-1.967-.435-3.109-1.08-5.067-1.42m20.085-35.368c-.135-.241-22.238-15.1-25.714-16.059-2.019-.929-3.886-1.442-6.25-2.624-1.326-.864-2.638-1.281-3.987-2.03-1.915-.177-3.448-.953-5.097-.93-1.819-.653-2.708.566-4.618.281-1.635.277-4.441.653-5.855 1.056m.664-35.121c.682-.532 3.229-1.379 4.959-2.394 2.067-1.068 9.793-1.98 13.435.12m2.311 39.653c-.068-.121-.816-3.854-2.158-10.041-1.286-7.632-.387-25.514.022-27.469.301-1.93-.104-4.852.631-6.472.433-2.131 1.273-3.986 1.939-5.835.866-2.22 1.594-4.106 2.503-5.675.998-5.838 17.452-29.28 18.529-30.34.849-1.274 2.084-2.954 2.953-4.032.472-1.318 1.469-2.592 2.39-4.19 1.369-1.761 1.711-3.064 2.547-4.755.158-1.66.829-4.153.812-6.149.477-2.406.186-4.249.454-5.948-.233-2.106 1.098-27.859 1.203-29.078.419-2.52 2.932-10.907 9.019-9.432 2.238.82 4.826 1.236 6.348 2.155 2.148.6 3.838 2.166 5.438 3.345 7.341 7.138 8.885 12.008 9.831 13.691l1.013 1.803m-82.473 193.43l-.202-.36c.547.974.244.488-.451-1.645-.182-1.835-.748-4.316-1.034-6.06-.371-1.811-1.219-3.875-.989-5.137-.648-1.84-.24-3.359-.066-5.182.515-2.279.749-3.929.812-6.149.251-2.726.05-4.657.206-7.233-.718-2.121-.864-3.896-1.959-6.014-.974-2.026-1.718-3.9-2.882-5.971l-2.838-5.049 2.838 5.049-2.838-5.049" stroke="#000" stroke-width="NaN" fill="none"/><path d="M1156.783 553.738c-3.399-5.204-6.842-15.129-6.943-15.309l-6.868-11.797c-4.116-5.912-7.294-5.942-9.552-6.017-4.921-.318-7.096-1.231-10.812-1.514-3.784-1.668-.968-8.472-1.069-8.652 3.882-15.464 20.157-13.937 20.821-13.599 7.464 2.445 8.372 3.36 7.15 8.078-1.883 5.092-2.997 6.904-2.842 10.137.392 6.184 7.869 15.265 7.972 15.447.101.18 4.921 4.112 4.921 4.112 2.286 1.959 5.329 2.304 8.445 6.165 2.733 4.157 3.123 5.836.855 9.958-2.886 5.416-9.104 7.016-12.077 2.991zm-384.063-143.904c.646.663 8.422 5.361 8.557 5.101.135-.26 20.35-4.922 20.215-4.662-.135.26-11.327 13.562-10.806 13.832.518.269 11.694 13.651 11.954 13.786.258.134-21.164-1.762-21.164-1.762l-14.171 11.424-3.173-14.83s-17.826-6.289-18.086-6.424c-.258-.134 15.256-5.261 15.256-5.261l4.632-12.095s6 1.139 6.787.89z" fill="#f9dd16" stroke="#000" stroke-width="NaN"/><path d="M1032.598 442.668c.043-12.5-23.571-72.816-27.623-81.512-7.538-9.436-15.515-24.378-18.943-37.283-2.22-13.027-9.187-23.244-19.009-26.709-11.335-6.018-22.404-3.659-33.06-2.733-5.224 1.11-9.694 3.932-12.218 8.089-5.754 8.229-8.881 7.602-12.862 11.149-32.761 5.104-63.741 22.008-87.312 33.53-12.481 8.664-23.076 13.695-27.984 14.755-13.307.047-22.985-6.258-27.607-9.611l-45.207-41.113c-13.063-9.749-16.293 4.324-13.785 6.474 4.361 9.372-5.081 15.078 30.767 48.849 4.527 9.299 9.052 18.599 13.578 27.898 0 0-.754 7.629-.123 7.957 6.545 15.592 16.943 11.707 21.85 7.334l10.652-9.703s21.109-6.68 21.436-7.311c22.636 3.37 80.962-7.74 90.58-12.303 8.668-4.854 9.22-.742 16.73-6.859 6.277-4.155 2.825-.848 14.423-11.445 3.57-3.07 6.394 1.902 7.06 5.379.645 32.925 5.609 61.336 8.61 94.165l.559 5.1c18.371 5.798 36.744 11.595 55.115 17.392l35.843-33.509c-.355-2.918-.981-5.32-1.471-7.98z" fill="#fff" stroke="#000" stroke-width="3.829"/><path d="M748.754 338.896c.451.399-8.15 28.39-8.15 28.39s-7.925-7.904-7.857-8.034l5.55-29.41z" fill="#f9dd16"/><path d="M879.605 322.256c10.547 11.737 13.818 30.816 11.906 41.498m-142.511-25.897c-.392 1.891-2.058 10.329-2.834 12.636-.649 2.554-1.229 5.13-1.66 7.686-.796 2.794-1.142 4.623-2.027 7.496-.283 2.463-.8 4.773-1.428 7.238m-5.454-47.892c.175.362.81 2.903.904 4.54-.3 1.715-.778 7.863-1.435 9.941-.523 2.311-.977 4.644-1.286 6.965-.656 2.526-.914 4.184-1.654 6.777-.169 2.243-.573 4.336-1.078 6.565m107.746 31.975l.19-.367c-.597 1.149-.134.493-1.263-2.055-1.198-1.321-2.039-7.739-.197-11.287.706-1.807 1.888-4.533 2.778-6.247l1.225-1.462m-78.16-18.212l-.19.367-.762 1.467c-.989 1.904-2.319 3.638-3.226 5.317l-3.38 5.237c-1.224 1.717-2.298 3.993-3.566 5.768-1.188 2.111-2.508 3.616-3.669 5.852-1.005 1.768-1.81 2.584-2.847 4.582l2.847-4.582c-1.005 1.768-1.81 2.584-2.847 4.582m-20.66-64.322c.184.344.895 2.738 1.045 4.27-.236 1.591-.493 7.315-1.067 9.234-.433 2.138-.798 4.301-1.023 6.458-.558 2.336-.753 3.875-1.39 6.27-.089 2.09-.414 4.029-.832 6.091m49.221 35.179c-2.476-2.604-3.931-1.651-5.52-1.77-1.763.314-4.967 1.787-8.217 5.056-1.187 1.295-2.184 2.247-3.756 3.642-.705 1.098-1.288 1.516-2.067 2.188m205.522-96.942l-.19.367c.598-1.151.164-.499.706 2.232.714 1.884.8 3.193 1.588 5.017m-40.594 2.574c-.127.245-.449 26.878.654 30.312.329 2.198.922 4.041 1.229 6.666.004 1.583.374 2.909.487 4.448.901 1.7 1.092 3.407 2.015 4.773.451 1.88 1.957 1.955 2.765 3.709 1.128 1.216 2.98 3.358 4.091 4.319m-29.747 18.689c-.819-.279-2.923-1.945-4.72-2.838-2.026-1.144-7.023-7.108-7.26-11.306m31.908-23.657c-.064.124-2.777 2.794-7.218 7.307-5.68 5.258-21.134 14.303-22.993 15.032-1.78.806-4.002 2.745-5.76 3.018-2.02.805-4.032 1.119-5.944 1.575-2.332.492-4.309.916-6.119 1.015-5.431 2.364-34.058 1.442-35.535 1.122-1.531-.013-3.614-.125-4.991-.261-1.361.327-2.974.191-4.815.296-2.224-.18-3.501.247-5.373.475-1.475.777-3.929 1.582-5.59 2.69-2.275.919-3.656 2.173-5.225 2.879-1.634 1.349-23.908 14.345-24.986 14.925-2.338 1.03-10.732 3.523-12.832-2.378-.54-2.322-1.61-4.715-1.675-6.492-.675-2.126-.291-4.398-.181-6.382 1.95-10.053 5.178-14.012 6.068-15.726l.953-1.836m207.012-36.982l-.19.367c.515-.991.275-.472-1.129 1.279-1.435 1.158-3.201 2.991-4.504 4.185-1.312 1.303-2.574 3.143-3.756 3.642-1.184 1.551-2.679 2.041-4.299 2.894-2.189.818-3.697 1.526-5.59 2.69-2.418 1.284-3.924 2.51-6.164 3.791-1.381 1.763-2.786 2.857-3.958 4.934-1.162 1.925-2.322 3.575-3.416 5.683l-2.669 5.14 2.669-5.14-2.669 5.14m17.06 106.259l.382-.736c-.705 1.358-.458 1.002.205-1.291.007-2.749.659-6.076.686-8.5.413-2.568.833-5.341.859-7.942-.156-3.042-.15-5.768-.605-8.703-.035-2.701-.351-5.501-.431-8.147-.049-2.621-.245-4.867-.813-7.411-.053-1.906-.171-4.52-.633-6.855.248-1.839-.275-3.532-.666-5.004-.712-2.836-.988-4.489-1.736-7.427-.45-1.573-.894-3.585-1.573-5.943-.245-2.233-1.441-5.133-1.927-7.058-.664-1.417-1.333-3.334-1.59-5.018-.695-1.555-1.686-3.452-1.955-5.211-.733-1.341-1.512-3.427-2.322-5.401-.698-1.621-1.212-3.62-1.954-5.208-.749-2.008-1.664-3.723-2.132-5.768-.717-.694-.879-1.455-1.264-2.053" stroke="#000" stroke-width="NaN" fill="none"/><path d="M961.152 307.817c-2.492 5.695-8.908 14.013-9.004 14.197l-6.107 12.209c-2.69 6.683-.974 9.358.199 11.288 2.43 4.291 2.858 6.611 4.657 9.875.678 4.079-6.558 5.452-6.653 5.635-15.064 5.225-22.704-9.228-22.785-9.968-2.044-7.585-1.776-8.845 2.841-10.408 5.292-1.215 7.418-1.275 10.038-3.176 4.958-3.716 8.46-14.948 8.556-15.133.095-.183.744-6.37.744-6.37.386-2.985-.992-5.72.531-10.443 1.98-4.564 3.171-5.811 7.862-6.171 6.112-.554 10.858 3.773 9.12 8.465z" fill="#f9dd16" stroke="#000" stroke-width="NaN"/><path d="M941.347 454.884c-2.276-2.067 42.811 16.337 49.014 16.546 8.481-3.102 43.433-32.676 43.433-32.676.345 2.895 1.584 10.409 4.961 11.996-13.51 10.962-25.782 21.508-39.293 32.468.966 17.373-2.205 35.78 6.618 55.221 0 0-10.546.205-10.546 0-9.307-9.307-12.618-54.185-12.618-54.185l-44.465-19.648c2.138-1.38 3.861-5.652 2.896-9.722z" fill="#f9dd16" stroke="#000" stroke-width="2.402pt"/><path d="M984.244 500.889c.721-.523-8.133 4.113-10.407 5.277-40.961 21.85-62.04 53.634-63.354 54.835-.708 1.354-2.011 3.16-3.204 4.929-.96 1.483-2.338 3.018-3.246 4.518-1.255 1.738-3.893 5.17-5.334 6.694-.18.982.683-.336.401.317m113.132-102.538c-.795-.402 7.378 5.351 9.453 6.84 38.166 26.431 76.072 30.638 77.741 31.257 1.528.01 3.73.343 5.848.595 1.759.175 3.753.698 5.503.82 2.119.32 6.378 1.096 8.393 1.681.954-.29-.611-.453.098-.502" stroke="#000" stroke-width="2.402pt" fill="none"/></svg>