<svg xmlns="http://www.w3.org/2000/svg" height="600" width="900" version="1" viewBox="0 0 900 600"><path fill="#CE1126" d="M0 0h900v200h-900z"/><path fill="#fff" d="M0 200h900v200h-900z"/><path d="M0 400h900v200h-900z"/><path d="M273.62 374.264l-5.172-5.676 5.219-5.625 5.219-5.625 5.172 5.676 5.172 5.676-5.219 5.625-5.219 5.625-5.166-5.686zm-35.506-2.86c-1.86-.739-4.878-3.173-6.857-5.526-3.729-4.437-4.578-6.507-2.073-5.05 3.735 2.176 11.134 3.589 13.767 2.635 9.712-3.528 11.92-17.628 4.164-26.573-1.522-1.754-2.768-3.793-2.768-4.532s1.619-2.121 3.594-3.071c2.768-1.331 4.12-2.782 5.893-6.32 1.797-3.592 2.536-4.375 3.4-3.596 1.234 1.113 5.401 11.928 5.401 14.018 0 1.103 1.506 1.345 8.322 1.345h8.322l-1.299-3.391c-.714-1.863-1.891-4.372-2.614-5.574-1.171-1.948-1.177-2.292-.053-3.163.692-.538 2.996-2.302 5.122-3.919 2.123-1.617 4.108-3.65 4.405-4.518.736-2.152 5.338-8.359 6.193-8.359.379 0 .692 6.507.692 14.461v14.461h103.89v-41.432l-2.89-1.944-2.89-1.944-2.927 2.428-2.927 2.428v29.613h-43.634c-24.002 0-43.637-.163-43.637-.361 0-.317 21.713-32.208 24.369-35.793.551-.746 1.916-2.778 3.031-4.518s2.251-3.368 2.52-3.616c.276-.249 1.4-1.876 2.508-3.616 1.105-1.74 2.395-3.64 2.868-4.219.473-.582 8.338-12.047 17.48-25.48s16.895-24.448 17.233-24.479c.335-.031.811 1.066 1.058 2.431 1.371 7.566 2.423 11.802 3.51 14.131 1.39 2.979.576 4.093-3.097 4.215-1.738.058-5.742 5.404-24.519 32.739-12.342 17.968-22.565 32.991-22.719 33.386s10.974.718 24.726.718h25.004l.013-9.718c.006-5.342.288-10.137.623-10.651 1.569-2.404 18.1-14.965 19.253-14.631.717.208 5.138 3.551 9.825 7.43l8.519 7.055v60.289h-144.37l-1.45 5.829c-1.741 6.987-4.587 12.026-8.41 14.873-3.632 2.656-11.804 3.405-16.594 1.498zm179.939-69.156c0-32.814.272-47.149.902-47.575.495-.334 2.646 1.382 4.778 3.814s5.933 6.337 8.451 8.676c3.97 3.698 4.383 4.379 3.159 5.189-4.092 2.704-3.989 1.852-3.989 33.046v29.31h7.956c7.064 0 8.369-.262 11.635-2.346 4.055-2.584 4.324-2.244 2.317 2.915-.751 1.924-1.591 5.737-1.872 8.472l-.507 4.971-16.416.245-16.413.245v-46.989zm85.946 34.765c.435-13.215 1.691-17.699 6.149-21.955 3.432-3.276 8.341-4.828 14.024-4.43l4.255.3.257-5.407c.322-6.851-.247-9.296-2.342-10.021-2.514-.868-2.001-3.708 1.046-5.775 1.49-1.011 5.141-4.515 8.109-7.787s5.692-5.949 6.049-5.949.651 13.065.651 29.034v29.038h11.679v-29.879c0-25.953-.172-30.066-1.312-31.306-.72-.783-1.659-1.427-2.085-1.427-1.872 0-.548-3.633 1.935-5.319 1.493-1.011 5.122-4.495 8.072-7.743 2.946-3.248 5.67-5.697 6.049-5.441s.689 18.608.689 40.788v40.325h11.679v-82.581l-2.085-1.971c-1.146-1.083-2.085-2.465-2.085-3.068s2.596-3.374 5.767-6.163 6.575-6.303 7.564-7.814c4.258-6.507 4.189-7.477 4.189 56.683v59.431h-88.639l.532-11.577zm24.829-8.853v-5.897h-3.272c-4.393 0-8.407 4.147-8.407 8.69v3.105h11.679v-5.891zm72.608-26.695c0-32.94.272-47.333.905-47.759.498-.334 2.658 1.389 4.797 3.831 2.142 2.441 5.955 6.361 8.479 8.71 3.986 3.711 4.402 4.396 3.172 5.21-4.108 2.714-4.005 1.863-4.005 33.175v29.426h8.15c7.392 0 8.444-.218 11.328-2.349 1.75-1.29 3.385-2.125 3.635-1.852s-.2 2.247-1.005 4.389-1.697 6.139-1.982 8.884l-.52 4.992-16.478.245-16.478.245v-47.159zm-65.688-49.372c-1.472-.586-3.162-1.624-3.754-2.305-.908-1.042-.457-1.144 2.843-.63 5.93.919 9.565-.174 12.872-3.882l2.909-3.255 4.042 1.559c2.223.858 4.546 1.348 5.166 1.09 1.603-.671 4.509-5.68 4.217-7.273-.354-1.944 1.287-1.648 2.301.412 1.991 4.045.329 9.176-3.475 10.739-1.863.766-3.663.787-6.682.085-3.707-.865-4.315-.773-5.94.882-3.632 3.711-9.174 4.699-14.497 2.588zm10.113-14.982c-2.01-1.491-6.253-9.136-6.412-11.567-.141-2.084.2-2.721 1.562-2.935 2.386-.371 3.488 1.355 5.323 8.339 1.503 5.72 1.346 7.525-.47 6.163z" fill="#007a3d"/></svg>