<svg xmlns="http://www.w3.org/2000/svg" xmlns:xlink="http://www.w3.org/1999/xlink" width="600" height="300" viewBox="0 0 2000 1000"><title>Flag of Kazakhstan</title><defs><path id="b" d="M0-76.45c4-.05 5.5-2.55 5.5-5.55 0-4-5.5-23.05-5.5-23.05s-5.5 19.05-5.5 23.05c0 3 1.5 5.55 5.5 5.55z"/><path id="d" d="M-1 15c0-10 9-15.14 16.072-15.14 9.528 0 14.601 5.683 14.601 13.122 0 4.217-.775 6.863-2.724 10.899 0 0-15.717 32.606-21.836 45.217-.763 1.573-1.009 3.363-1.009 5.989 0 4.054 3.942 7.367 8.074 7.469 3.768.094 7.872-3.504 7.872-7.603 0-4.98-2.589-7.2-5.248-7.2-3.272 0-4.575 1.342-4.575 3.634 0 1.597.773 2.288 1.884 2.288 2.806 0 2.019-3.768 2.019-3.768 1.394.304 2.539 1.725 1.884 3.499 1.02.226 1.975.76 2.725 1.615-.752.728-1.615 1.289-2.725 1.48.657 2.164-.221 3.222-2.119 3.667.383-.833.396-1.599.269-2.321-2.989.848-7.57-.501-7.57-5.652 0-5.114 3.558-9.42 10.228-8.344-1.587-.757-2.394-2.305-2.557-4.037 1.211.471 2.557.538 2.557.538-.78-1.372-1.863-2.554-1.817-5.248 1.237.561 2.385 1.599 3.97.942-2.487-4.883.569-11.599 8.344-13.188-2.845 3.327-4.239 6.92-4.239 10.497 0 11.592 3.23 13.54 3.23 21.599 0 3.372-1.738 7.013-5.181 9.487v-.135c2.276.608 3.734 1.726 4.572 3.245-5.2 1.471-12.759 1.444-16.818-.149-4.666-.539-7.922-4.11-8.882-5.922-.96-1.811-2.824-8.364 0-14.264 3.09-6.457 17.661-37.277 22.204-46.966.964-2.055 1.548-4.234 1.548-6.594 0-5.935-5.45-8.007-8.545-8.007-3.701 0-7.469 2.813-7.469 6.325 0 2.226 1.211 3.566 2.961 3.566 4.183 0 3.929-3.55 3.095-5.787 2.603 1.168 4.117 3.252 3.701 5.45 1.474.201 2.877.899 4.172 2.355-1.019 1.283-2.261 2.253-4.172 2.288.834 3.41-1.454 4.852-3.701 5.652.711-2.503 1.177-5.383-3.095-5.383-3.115 0-5.568-.538-6.998-2.557-.084 2.691-.336 13.323-.336 13.323-.179 3.995 5.361 3.881 8.882 2.691-1.329 4.602-4.054 7.09-10.362 6.46 1.531.639 3.163 2.076 3.163 4.845-.001 3.746-3.047 7.896-5.048 9.123l-1-39z"/><path id="e" d="M0-35.599s4.753-3.984 6.367-1.986c2.596 3.214-7.982 19.225-7.982 24.863 0 9.255 6.19 11.772 13.834 13.093 5.129.887 13.481-.371 13.481-.371-1.573-2.108-2.595-2.729-5.245-2.897 2.95-1.528 5.954-4.844 5.954-10.007 0-7.962-3.285-11.243-3.285-20.219 0-4.979 4.093-11.318 4.093-11.318-7.234.722-10.82 7.405-8.78 12.745-1.152.165-2.197-.093-3.095-.942-.529 1.48.306 3.199 1.426 4.679-.902.481-1.564.192-3-.103.136 1.525 1.052 3.146 3.294 4.671-6.504-1.685-10.506 2.838-10.506 7.572 0 3.576 2.512 6.139 4.967 6.139.793 0 1.959-.326 2.617-.816.464.984.225 2.301-.253 3.285 1.8-.475 2.942-1.541 2.129-3.76 1.382-.127 2.482-.593 3.23-1.48-.758-.968-1.907-1.526-3.23-1.48 1.006-2.072-.115-3.232-1.749-4.172 0 0 1.039 4.172-1.615 4.172-1.194 0-2.281-.388-2.281-2.142 0-1.528 1.339-3.644 4.434-3.51 3.095.135 5.604 2.129 5.604 7.058 0 4.547-3.676 6.808-8.521 6.954-4.369.135-7.666-2.226-7.666-6.722 0-5.984 8.659-19.622 8.659-24.954 0-4.001-3.606-6.234-7.135-6.234-4.575 0-8.436 4.52-8.436 4.52l2.688 3.362z"/></defs><path fill="#00afca" d="M0 0h2000v1000h-2000z"/><use xlink:href="#a" transform="matrix(-1 0 0 1 240 0)" height="1000" width="2000"/><use xlink:href="#b" transform="matrix(1.961 .39 -.39 1.961 1080.472 420)" height="500" width="1000" fill="#fec50c"/><use xlink:href="#b" transform="matrix(1.847 .765 -.765 1.847 1080.472 420)" height="500" width="1000" fill="#fec50c"/><use xlink:href="#b" transform="matrix(1.662 1.111 -1.111 1.662 1080.472 420)" height="500" width="1000" fill="#fec50c"/><use xlink:href="#b" transform="matrix(1.414 1.414 -1.414 1.414 1080.472 420)" height="500" width="1000" fill="#fec50c"/><use xlink:href="#b" transform="matrix(1.111 1.662 -1.662 1.111 1080.472 420)" height="500" width="1000" fill="#fec50c"/><use xlink:href="#b" transform="matrix(.765 1.847 -1.847 .765 1080.472 420)" height="500" width="1000" fill="#fec50c"/><use xlink:href="#b" transform="matrix(.39 1.961 -1.961 .39 1080.472 420)" height="500" width="1000" fill="#fec50c"/><use xlink:href="#b" transform="matrix(0 1.999 -1.999 0 1080.472 420)" height="500" width="1000" fill="#fec50c"/><use xlink:href="#b" transform="matrix(-.39 1.961 -1.961 -.39 1080.472 420)" height="500" width="1000" fill="#fec50c"/><use xlink:href="#b" transform="matrix(-.765 1.847 -1.847 -.765 1080.472 420)" height="500" width="1000" fill="#fec50c"/><use xlink:href="#b" transform="matrix(-1.111 1.662 -1.662 -1.111 1080.472 420)" height="500" width="1000" fill="#fec50c"/><use xlink:href="#b" transform="matrix(-1.414 1.414 -1.414 -1.414 1080.472 420)" height="500" width="1000" fill="#fec50c"/><use xlink:href="#b" transform="matrix(-1.662 1.111 -1.111 -1.662 1080.472 420)" height="500" width="1000" fill="#fec50c"/><use xlink:href="#b" transform="matrix(-1.847 .765 -.765 -1.847 1080.472 420)" height="500" width="1000" fill="#fec50c"/><use xlink:href="#b" transform="matrix(-1.662 -1.111 1.111 -1.662 1080.472 420)" height="500" width="1000" fill="#fec50c"/><use xlink:href="#b" transform="matrix(-1.414 -1.414 1.414 -1.414 1080.472 420)" height="500" width="1000" fill="#fec50c"/><use xlink:href="#b" transform="matrix(-1.111 -1.662 1.662 -1.111 1080.472 420)" height="500" width="1000" fill="#fec50c"/><use xlink:href="#b" transform="matrix(-.765 -1.847 1.847 -.765 1080.472 420)" height="500" width="1000" fill="#fec50c"/><use xlink:href="#b" transform="matrix(-.39 -1.961 1.961 -.39 1080.472 420)" height="500" width="1000" fill="#fec50c"/><use xlink:href="#b" transform="matrix(0 -1.999 1.999 0 1080.472 420)" height="500" width="1000" fill="#fec50c"/><use xlink:href="#b" transform="matrix(.39 -1.961 1.961 .39 1080.472 420)" height="500" width="1000" fill="#fec50c"/><use xlink:href="#b" transform="matrix(.765 -1.847 1.847 .765 1080.472 420)" height="500" width="1000" fill="#fec50c"/><use xlink:href="#b" transform="matrix(1.111 -1.662 1.662 1.111 1080.472 420)" height="500" width="1000" fill="#fec50c"/><use xlink:href="#b" transform="matrix(1.414 -1.414 1.414 1.414 1080.472 420)" height="500" width="1000" fill="#fec50c"/><circle transform="matrix(1.959 0 0 1.959 1080.301 420.171)" r="68.7" fill="#fec50c"/><use xlink:href="#b" transform="matrix(1.999 0 0 1.999 1080.472 420)" height="500" width="1000" fill="#fec50c"/><use xlink:href="#b" transform="matrix(-1.961 .39 -.39 -1.961 1080.472 420)" height="500" width="1000" fill="#fec50c"/><use xlink:href="#b" transform="matrix(-1.999 0 0 -1.999 1080.472 420)" height="500" width="1000" fill="#fec50c"/><use xlink:href="#b" transform="matrix(-1.961 -.39 .39 -1.961 1080.472 420)" height="500" width="1000" fill="#fec50c"/><use xlink:href="#b" transform="matrix(-1.847 -.765 .765 -1.847 1080.472 420)" height="500" width="1000" fill="#fec50c"/><use xlink:href="#b" transform="matrix(1.662 -1.111 1.111 1.662 1080.472 420)" height="500" width="1000" fill="#fec50c"/><use xlink:href="#b" transform="matrix(1.847 -.765 .765 1.847 1080.472 420)" height="500" width="1000" fill="#fec50c"/><use xlink:href="#b" transform="matrix(1.961 -.39 .39 1.961 1080.472 420)" height="500" width="1000" fill="#fec50c"/><path fill-rule="evenodd" fill="#fec50c" d="M1075.8 654.95l-2.322 4.643-2.58 5.933-1.548 2.837-1.29 2.58-1.032 2.064-1.29 1.29-3.095-2.58-3.353-2.322-3.611-1.806-3.869-1.548-4.127-1.032-4.127-1.032-4.127-.774-4.385-.516-9.028-.774-9.028-.258-8.771-.516-8.255-1.032-4.643-.774-4.385-1.032-2.322-.774-2.322-.774-2.064-1.032-1.806-1.032-2.837-1.806-2.837-2.064-3.095-2.322-2.837-2.58-5.933-5.675-5.933-5.675-5.933-5.417-5.417-4.901-2.58-1.806-2.58-1.806-2.322-1.032-2.322-.774-4.385-1.032-3.869-1.29-3.869-1.29-3.869-1.806-3.353-1.548-3.353-2.064-3.095-2.064-2.837-2.064-3.095-2.322-2.58-2.322-2.58-2.58-2.58-2.58-4.901-5.417-4.643-5.675-9.287-12.124-9.802-12.382-5.675-5.933-5.933-5.933-3.353-3.095-3.353-2.837-3.611-2.58-3.869-2.837-.774.258-.774.774-.774 1.032-.516 1.29-.774 2.322-.258 1.032-1.806-.774-1.548-.774-1.806-.774-1.548-.516h-3.353l-1.806.516-1.806.774 1.806 2.322 2.322 3.095 2.322 3.611 2.064 3.869 2.064 4.127 1.548 3.869.516 2.064.516 1.548.258 1.806v1.548h-13.929l2.064 3.095 2.322 3.095 2.58 3.095 2.837 2.837 2.837 2.837 2.837 2.837 2.837 2.322 2.58 1.806-2.837.258-3.869.258-3.869.516-2.837.258 2.322 2.064 2.837 2.064 3.095 2.322 3.353 2.322 3.353 2.064 3.353 1.806 3.095 1.032 2.837.774 1.29.258 1.032.258.774.258.516.516.258.258v1.032l-.258.516-.516 1.548-.258 1.548-.258 1.032v.774l.258 1.29.258 1.032.516.516.774.516 1.032.516 1.29.258 1.29.516 1.29.516 1.29.516 1.032.774.258.258v.516l-.258.258-1.032.774-1.032.774-1.032 1.032-1.032 1.29v1.032l-.258 1.032.258 1.29.258 1.548 4.385 1.548 4.643 1.548 2.064.516 2.064.774 1.548.774 1.29.774-8.513 6.707 2.322 2.064 2.837 1.548 3.611 1.806 3.611 1.29 4.127 1.29 3.869.774 3.353.774h3.095l-2.837 2.064-3.611 2.322-3.869 2.064-2.837 2.064 2.58 1.806 3.611 1.806 4.127 2.064 4.901 2.322 11.35 4.901 12.382 4.901 12.898 4.643 12.64 4.127 5.675 1.806 5.159 1.29 4.643 1.29 4.127.774-8.255-.774-7.739-1.032-7.739-1.29-7.223-1.548-7.223-2.064-6.965-2.064-6.707-2.322-6.449-2.58-12.64-5.159-11.866-5.159-5.675-2.322-5.675-2.322-5.417-2.064-5.417-2.064 1.29-.774 1.548-.516 2.064-.774 2.322-.516 4.901-1.548 4.385-1.548-7.739-1.29-10.576-2.064-5.159-1.548-4.385-1.29-1.806-.774-1.548-.774-1.29-.774-.774-.774v-.258l.258-.258.774-.258.774-.516 2.064-.774 2.837-.774 6.191-1.806 5.159-1.806-12.64-2.322-9.802-1.548-3.611-.774-2.837-1.032-1.032-.516-1.032-.774-.774-.516-.516-.774.774-.516 2.322-.516 3.353-.516 3.869-.774 4.127-.516 3.611-1.032 1.806-.516 1.548-.516 1.032-.774 1.032-.774-2.064-.774-2.064-.774-2.58-.516-2.58-.516-5.933-.774-5.933-.774-3.095-.774-2.837-.516-2.837-1.032-2.837-1.032-2.58-1.29-2.322-1.806-2.064-1.806-1.548-2.322.516-.258 1.032-.258h1.29l2.064.258 4.643.258 5.159.258 5.675.516h7.223l2.064-.258 1.548-.516 1.032-.516-6.191-2.58-8.255-3.611-4.643-2.322-4.901-2.322-4.901-2.58-4.901-2.58-4.643-2.837-4.385-3.095-4.127-3.095-3.611-3.095-1.548-1.806-1.548-1.548-1.032-1.548-1.032-1.806-1.032-1.548-.516-1.806-.258-1.548-.258-1.806h1.806l2.064.258 2.064.774 2.064.774 4.127 2.58 4.643 2.58 2.064 1.29 2.322 1.29 2.322 1.032 2.064.774 2.322.516 2.064.258h2.322l2.064-.774-6.191-4.643-6.965-5.933-7.997-6.965-7.997-7.739-7.997-8.255-7.481-8.255-3.353-4.385-3.353-4.127-2.837-4.127-2.58-3.869-.516-1.032v-1.806l.258-.774.258-.774.774-.516.774-.774.774-.516 1.032-.258 1.032-.258h2.064l1.29.258 1.032.258 1.032.774.774.774 4.643 4.643 5.417 5.417 5.675 5.933 6.191 5.933 6.191 5.417 6.191 5.159 3.095 2.064 2.837 1.806 3.095 1.548 2.837 1.032-2.064-1.29-2.322-2.322-3.095-3.095-3.353-3.869-7.481-9.028-8.255-10.576-4.127-5.675-3.869-5.675-3.611-5.675-3.611-5.417-3.095-5.159-2.58-4.643-1.806-4.385-1.548-3.611-.258-1.29v-2.064l.258-.774.516-.774.516-.774.516-.516.774-.516 1.806-.516 1.548-.516h3.611l1.032.258.774.258 1.032.516.774.774 2.064 1.806 2.064 2.58 4.643 5.933 4.901 7.481 5.675 7.997 5.933 8.255 3.095 3.869 3.095 3.869 3.353 3.353 3.611 3.095-4.385-8.513-4.901-9.802-2.58-5.417-2.322-5.417-2.322-5.675-2.064-5.675-1.806-5.933-1.806-5.675-1.29-5.675-1.032-5.675-.516-5.417-.258-5.159.258-2.58.258-2.322.258-2.322.516-2.322.516-.774.258-.774.774-.774.516-.516 1.806-.774 1.806-.516h1.806l1.548.258.774.258.516.258.258.516.258.774 2.58 8.255 2.322 8.771 2.322 9.028 2.322 8.771 2.322 8.771 3.095 8.255 1.548 3.869 1.806 3.869 2.064 3.611 2.322 3.611-1.548-7.481-1.032-6.707-1.032-6.191-.516-5.675-.516-4.901-.258-4.385.258-3.611.258-3.095.516-2.58.774-2.064.516-.774.516-.774.516-.516.774-.516.774-.258h2.322l2.064.774 2.064 1.032 1.806 8.255 1.806 7.997 2.064 7.481 2.322 7.223 2.58 7.223 2.837 7.223 3.095 7.481 3.611 7.481 2.58 4.901 2.58 4.901 2.837 4.901 2.837 4.901 3.095 4.643 3.095 4.643 3.353 4.643 3.353 4.643 6.191 7.739 6.449 7.223 6.707 7.223 6.965 6.707 7.223 6.707 7.481 6.191 7.739 5.933 7.997 5.675 5.417 3.611 5.675 3.353 5.933 3.353 5.675 3.095 9.028 4.385 8.771 4.127 9.287 3.611 9.286 3.353 8.771 2.837 9.028 2.322 9.287 2.064 9.028 1.806 9.544 1.29 9.287 1.032 9.544.774 9.544.516m23.49 78.43l4.385.516 2.064.774.516.258v.258h-.516l-.516.258-4.127.774h-3.353l-10.834-.774-13.156-.258-14.188-.258-14.704.258-6.965.258-6.965.516-6.191.516-5.933.516-4.901.774-4.385 1.032-1.548.516-1.548.516-1.29.516-1.032.774.516-2.58 1.032-2.58-1.806.516-1.806.516-1.548.774-1.548.774-1.29.774-1.032 1.032-.774 1.29-.258 1.29-.774-1.806-.516-1.548-.258-1.806-.258-1.548.258-1.29.258-1.548.258-1.29.774-1.29.516-1.032 1.032-1.29 1.032-1.032 1.032-1.032 2.837-1.806 3.095-1.806c1.671 1.014 3.551 1.749 5.417 2.322 1.618.215 3.544-.048 5.417-.516 3.148 2.772 7.358 2.431 10.06-.516.493-.538 1.089-1.362 1.29-2.064.427-1.488.344-3.437 0-5.159l3.095-.258 3.611-.516 3.869-1.032 4.127-1.032 4.127-.774 3.869-1.032 3.611-.516 3.095-.258-1.29 1.032-3.095 2.322-3.611 2.837-2.58 1.806 3.353.774 2.837.516-2.064 2.322-2.064 2.322-2.064 2.322-1.548 2.064 2.064.774 2.064.516 2.322.516h4.643l2.322-.516 2.322-.516 1.806-1.032 2.064 1.032 2.064.774 2.064.516 2.064.516 4.643.516 4.901.516h19.605m-79.195-14.7l.774.258.774.258.258.774.258.774-.258.774-.258.774-.774.516h-1.806l-.516-.516-.516-.774-.258-.774.258-.774.516-.774.516-.258 1.032-.258m-.3 1.03l.516.258.258.516-.258.516-.516.258-.516-.258-.258-.516.258-.516.516-.258"/><path fill="#fec50c" d="M1020 723.25c-1.307.001-2.366-1.058-2.366-2.365s1.06-2.365 2.366-2.365c1.306-.001 2.366 1.058 2.366 2.365s-1.06 2.365-2.366 2.365z"/><path fill-rule="evenodd" fill="#fec50c" d="M1212.2 746.01l-1.806.774-1.806.258-1.548.258-1.29-.258-1.29-.258-1.29-.516-1.032-.516-1.29-.774-2.064-1.548-2.064-1.548-1.032-.774-1.29-.516-1.032-.258h-1.29l-2.322 4.901-3.095 6.191-1.032 1.548-1.032 1.29-1.032.774-1.032.774-1.29.516h-1.29l-1.29-.516-1.548-.774-.516-.774-.516-.774-.516-1.032-.516-1.29-.516-2.322-.258-1.548-1.548 1.29-1.548 1.806-1.29 2.064-1.548 2.322-1.806 2.322-1.806 1.806-1.032 1.032-1.29.774-1.29.516-1.548.516h-.774l-1.29.258-1.29-.258-1.032-.516-3.095-3.611-3.353-3.611-2.322 3.611-2.58 3.095-1.29 1.29-1.29 1.29-1.29 1.032-1.29.774-1.032.516-1.29.258h-1.29l-1.032-.258-1.032-.516-.774-.774-1.032-1.29-.516-1.548-.516-1.548-1.032-2.58-.258-1.29-.516-1.032-.516-.516h-.516l-6.965 11.35-1.032 1.032-1.806.774-2.064.516-2.064.516h-2.322l-1.806-.516-.516-.258-.774-.774-.258-.516v-1.032l1.032-11.35-.774.258-1.032.516-1.032.516-1.032 1.032-2.064 2.322-2.322 2.58-2.322 2.837-2.838 2.322-1.29 1.032-1.29 1.032-1.548.774-1.29.258-1.806.258-1.29-.258-.516-.258-.516-.516-.258-.774v-.774l.258-3.353.516-3.353.258-1.806-.258-1.548-.258-1.548-1.032-1.806-1.548 2.322-2.58 3.353-3.095 3.353-3.353 3.353-1.806 1.29-1.806 1.29-1.548.516-1.29.516-.516-.258h-.774l-.516-.516-.258-.258-.516-.774-.258-.774v-1.032l-.258-1.29.258-9.802-6.449 4.385-7.739 4.901-1.806.774-2.064 1.032-1.806.516-2.064.516-1.806.516h-1.806l-1.806-.258-1.548-.516.774-2.064.774-1.806.774-1.806 1.032-1.548 1.032-1.548 1.032-1.548 1.29-1.29 1.29-1.29 2.837-2.064 3.353-2.064 3.353-1.548 3.869-1.29 3.869-1.032 4.385-.774 4.385-.774 4.385-.516 9.544-.516 9.802-.258h19.605l4.901-.258 4.643-.258 4.643-.258 4.385-.516 4.385-.774 3.869-.774 3.869-1.032 3.611-1.548 3.353-1.548 2.837-2.064 2.838-2.064 2.322-2.837-2.58-5.159 2.064-.258 2.064-.516 2.064-1.032 1.806-1.29.774-.516.774-.774.516-1.032.516-.774.258-1.032v-1.806l-.516-1.032 4.385-.774 4.643-.516 4.901-.258h5.159l10.576.516 10.834.774 11.092 1.29 10.834 1.032 10.576 1.032 9.802.516v3.611l-.258 1.548-.516 1.548-.516 1.548-.516 1.29-.774 1.032-1.032 1.29-1.806 1.806-2.322 1.548-2.322 1.032-2.58.516-2.837.516-2.837-.258-2.58-.258-2.837-.774-2.58-1.29-2.58-1.29-2.064-1.806-2.064-2.064v4.385l-.774 5.675-.516 2.837-.774 2.58-.516 1.032-.774.774-.516.774-.774.516m-207.4-24.248l5.933 2.58 1.548-1.29 2.064-1.548 2.322-1.29 2.064-1.29 7.739-3.095 6.707-3.095 3.353-1.29 2.837-1.548 2.837-1.548 2.322-1.548 5.933-3.869 5.933-3.869 5.675-3.611 5.159-3.611 3.869-3.095 3.095-2.837 3.353-3.095 3.611-3.353 1.29-1.29 1.548-1.032 1.806-1.032 2.064-1.032 4.385-2.064 4.385-1.548 5.933-1.548 6.449-1.548 6.707-1.29 7.481-1.29 9.028-1.032 9.028-1.29 9.287-1.032 9.028-1.548 3.095-.516 2.838-.774 3.095-.774 3.095-.774 3.095-3.869 4.901-5.417 3.353-3.353 3.869-3.095 4.385-3.353 5.159-3.353 7.739-4.643 8.255-4.127 8.513-4.385 8.255-3.869 7.739-3.869 7.223-3.611 5.933-3.095 4.643-3.095 1.29-3.869 1.806-3.869 2.322-3.869 2.837-3.869 3.095-4.127 3.869-4.127 4.127-4.643 5.159-4.901 4.643-4.127 4.901-4.127 2.58-1.806 2.58-1.806 2.837-1.548 2.837-1.548 2.838-1.29 2.837-1.032 3.095-.774 2.837-.774 3.095-.258 2.838-.258 3.095.258 2.837.516-.258 3.095-.774 3.095-1.032 3.095-1.29 3.353-1.806 3.353-2.322 3.353-2.837 3.611-3.353 3.611 2.58-.258 2.322-.516 1.806-.516 1.806-.774 1.548-.516 1.806-.516 2.322-.258 2.58-.258.258 1.806v1.806l-.258 1.806-.516 1.548-.774 1.548-1.032 1.548-1.032 1.29-1.29 1.29-5.417 5.159-5.417 4.901 3.095.258 3.353 1.032 3.353 1.032 2.58.516-3.095 2.322-3.611 2.322-3.611 2.322-4.127 2.322-4.127 2.322-4.127 2.58-4.127 2.837-3.869 3.095 1.806.258 2.322 1.032 1.032.258 1.032.516.774.258.774-.258-5.159 2.837-6.449 3.095-3.095 1.548-2.58 1.548-1.29.774-.774.774-.516.774-.516.774.258 1.032.516.774 1.032.774.774.774-.258 1.032-.516.774-1.032.774-1.032.774-2.322 1.29-3.095 1.29-3.095 1.032-2.837 1.032-2.064 1.032-1.548.774 5.159 5.159-1.806 1.806-1.806 1.29-1.548.774-1.806.774-3.611.516h-4.901l.516 2.322.774 2.322.516 2.58.516 2.58-4.385 3.353-5.417 3.869-5.933 3.869-6.707 3.869-3.869 2.064-3.869 1.806-4.127 1.548-4.385 1.548-4.643 1.548-4.901 1.032-5.159 1.032-5.417.774 9.544.258h8.255l7.739-.774 6.965-.774 6.449-1.29 5.675-1.548 5.675-2.064 5.417-2.064 7.223-3.353 6.965-3.869 6.707-4.127 6.965-4.127-4.127-2.064-4.127-1.29-2.064-.774-2.064-1.032-2.322-1.032-2.322-1.29 2.064-1.548 2.322-1.032 2.837-1.032 3.095-.774 6.191-1.29 6.449-.774 5.675-.774 5.159-.516 2.064-.516 1.806-.516 1.032-.516.774-.774-.258-.258-.516-.516-.774-.258-1.032-.516-2.837-.516-3.611-.516-3.611-.258-3.611-.516-3.095-.774-2.064-.774 6.965-1.548 6.965-1.548 6.191-1.29 5.159-1.29 4.385-1.29 3.869-1.548 1.806-.774 1.29-.774 1.29-.774 1.032-1.032-.258-.258-.516-.516-1.032-.258-1.29-.258-3.353-.258h-3.869l-4.127-.258-3.869-.258-3.353-.516-2.064-.516 1.806-.774 1.806-.774 6.191-1.806 5.417-1.548 4.901-1.29 4.643-1.548 4.901-1.548 4.901-2.064 2.322-1.29 2.064-1.29.774-.774.774-1.032.774-.774.258-.774-.258-.774-.774-.516-.774-.258h-7.223l-3.353.258h-4.643l-1.29-.258-1.032-.516-1.032-.516 10.318-6.707 9.544-6.191 8.513-5.417 7.481-5.159 3.095-2.58 2.837-2.58 2.322-2.58 2.064-2.58 1.548-2.837 1.29-2.837.774-3.095v-3.353h-1.806l-1.806.258-2.064.774-2.064.774-4.127 2.58-4.385 2.58-2.322 1.29-2.064 1.29-2.322 1.032-2.322.774-2.064.516-2.064.258h-2.322l-2.064-.774 6.191-4.643 6.965-5.933 7.997-6.965 7.997-7.739 7.997-8.255 7.481-8.255 3.353-4.385 3.353-4.127 2.838-4.127 2.579-3.869.516-1.032.258-.774-.258-1.032-.258-.774-.258-.774-.774-.516-.774-.774-.774-.258-1.032-.516-1.032-.258h-2.064l-1.032.258-1.29.258-.774.774-1.032.774-4.643 4.643-5.417 5.417-5.675 5.933-6.191 5.933-6.191 5.417-6.191 5.159-3.095 2.064-2.838 1.806-3.095 1.548-2.579 1.29 1.806-1.548 2.322-2.322 3.095-3.095 3.353-3.869 7.481-9.028 8.255-10.576 4.127-5.675 3.869-5.675 3.869-5.417 3.353-5.675 3.095-5.159 2.579-4.643 2.064-4.385 1.29-3.611.258-1.29v-2.064l-.258-.774-.516-.774-.516-.774-.516-.516-.774-.258-1.548-.774-1.806-.516h-3.611l-1.032.258-.774.258-1.032.516-.774.774-2.064 1.806-2.064 2.58-4.643 5.933-4.901 7.481-5.417 7.997-5.933 8.255-3.353 3.869-3.095 3.869-3.353 3.353-3.611 3.095 4.643-8.513 4.643-9.802 2.58-5.417 2.322-5.417 2.322-5.675 2.064-5.675 1.806-5.933 1.806-5.675 1.29-5.675 1.032-5.675.516-5.417.258-5.159-.258-2.58-.258-2.322-.258-2.322-.516-2.322-.258-.774-.516-.774-.774-.774-.516-.516-1.806-.774-1.806-.516h-1.806l-1.548.258-.516.258-.774.258-.258.516-.258.774-2.579 8.513-2.322 8.513-2.322 9.028-2.322 8.771-2.322 8.771-3.095 8.255-1.548 4.127-1.806 3.611-2.064 3.869-2.322 3.353 1.548-7.481 1.032-6.707 1.032-6.191.516-5.675.516-4.901.258-4.385-.258-3.611-.258-3.095-.516-2.58-.774-2.064-.516-.774-.516-.774-.516-.516-.774-.258-.774-.258-.774-.258h-.774l-.774.258-2.064.516-2.064 1.032-1.806 8.255-1.806 7.997-2.064 7.481-2.322 7.223-2.58 7.223-2.837 7.223-3.095 7.481-3.611 7.481-2.58 4.901-2.58 4.901-2.837 4.901-2.837 4.901-3.095 4.643-3.095 4.643-3.353 4.643-3.353 4.643-6.191 7.739-6.449 7.223-6.707 7.223-6.965 6.707-7.223 6.707-7.481 6.191-7.739 5.933-7.997 5.675-5.417 3.611-5.675 3.611-5.675 3.353-5.675 3.353-9.028 4.127-9.028 4.127-9.287 3.353-9.287 3.353-7.739 2.322-7.739 2.322-7.997 1.806-7.997 1.806-7.997 1.29-8.255 1.032-7.997 1.032-8.255.516-.774.258-.774.258-1.548.774-1.806 1.29-2.58 2.322-3.353 3.095-4.127 4.127-4.901 5.417-4.643 5.417-5.417 5.933-2.838 2.837-2.837 2.837-3.353 2.58-3.353 2.58-2.58 1.806-2.58 1.548-2.837 1.29-2.837 1.29-6.191 2.58-6.191 2.322-6.191 2.322-5.417 2.064-2.322 1.032-2.322 1.29-2.064 1.032-1.548 1.032-1.548 1.548-1.29 1.29-.774 1.29-.516 1.29-.258 1.806v1.032"/><path d="M1019.8 721.47c-.533 0-.965-.432-.965-.965s.432-.965.965-.965c.533 0 .965.432.965.965s-.432.965-.965.965z" stroke="#00afca" stroke-width=".381" fill="#fec50c"/><use xlink:href="#c" transform="matrix(1 0 0 -1 0 1000)" height="1000" width="2000"/><use xlink:href="#a" transform="matrix(-1 0 0 -1 240 1000)" height="1000" width="2000"/><use xlink:href="#a" transform="matrix(1 0 0 -1 0 1000)" height="1000" width="2000"/><use xlink:href="#c" transform="matrix(-1 0 0 -1 240 1000)" height="1000" width="2000"/><use xlink:href="#a" transform="matrix(-1 0 0 -1 240 645.08)" height="1000" width="2000"/><use xlink:href="#a" transform="matrix(1 0 0 -1 0 645.08)" height="1000" width="2000"/><use id="a" xlink:href="#d" transform="matrix(-2.022 0 0 -2.027 120 322.54)" height="500" width="1000" fill="#fec50c"/><use xlink:href="#a" transform="translate(0 354.92)" height="1000" width="2000"/><use xlink:href="#a" transform="matrix(-1 0 0 1 240 354.92)" height="1000" width="2000"/><use xlink:href="#c" transform="matrix(-1 0 0 1 240 0)" height="1000" width="2000"/><use id="c" xlink:href="#e" transform="matrix(-2.022 0 0 2.027 120 145.08)" height="500" width="1000" fill="#fec50c"/></svg>