<svg xmlns="http://www.w3.org/2000/svg" width="1000" height="600" version="1"><defs><clipPath id="a"><circle r="46" cy="-39"/></clipPath><clipPath><circle r="46" cy="-39"/></clipPath></defs><g transform="matrix(2 0 0 2 1395.781 164.852)"><path fill="#e8112d" d="M-697.89-82.426h500v300h-500z"/><path d="M-443.351 13.877c-4.2-11 4.8-28-4.2-36 3 12-7 25-4.2 36s12.6 11 8.4 0zm8.396 1.322c-2.428-11.522 9.121-26.904 1.483-36.214 1.086 12.322-10.825 23.597-9.78 34.9 1.045 11.303 10.724 12.836 8.297 1.314zm8.086 2.619c-.595-11.759 13.218-25.146 7.13-35.536-.855 12.34-14.383 21.613-15.119 32.94-.736 11.327 8.584 14.355 7.989 2.596zm7.576 3.851c1.252-11.708 16.989-22.769 12.601-33.983-2.775 12.054-17.587 19.097-20.086 30.169-2.499 11.072 6.233 15.521 7.484 3.814zm6.881 4.989c3.068-11.368 20.341-19.831 17.762-31.593-4.626 11.472-20.358 16.111-24.558 26.656-4.2 10.545 3.728 16.305 6.796 4.937zm6.015 6.005c4.808-10.748 23.193-16.405 22.486-28.426-6.364 10.607-22.627 12.728-28.426 22.486-5.798 9.758 1.131 16.688 5.94 5.94zm5.002 6.871c6.43-9.864 25.474-12.575 26.656-24.558-7.945 9.48-24.34 9.032-31.593 17.762-7.253 8.731-1.493 16.659 4.937 6.796zm3.866 7.569c7.894-8.736 27.127-8.435 30.169-20.086-9.33 8.121-25.453 5.113-33.983 12.601-8.53 7.489-4.081 16.221 3.814 7.484zm2.633 8.081c9.164-7.394 28.113-4.087 32.94-15.119-10.486 6.561-25.94 1.068-35.536 7.13-9.596 6.062-6.568 15.382 2.596 7.989zm1.338 8.394c10.208-5.869 28.406.361 34.9-9.78-11.383 4.84-25.787-3.003-36.214 1.483-10.427 4.486-8.893 14.166 1.314 8.297zm.007 8.499c11-4.2 28 4.8 36-4.2-12 3-25-7-36-4.2s-11 12.6 0 8.4zm-1.321 8.395c11.522-2.428 26.904 9.121 36.214 1.483-12.322 1.086-23.597-10.825-34.9-9.78-11.303 1.045-12.836 10.724-1.314 8.297zm-2.619 8.086c11.759-.595 25.146 13.218 35.536 7.13-12.34-.855-21.613-14.383-32.94-15.119-11.327-.736-14.355 8.584-2.596 7.989zm-3.852 7.576c11.708 1.252 22.769 16.989 33.983 12.601-12.054-2.775-19.097-17.587-30.169-20.086-11.072-2.499-15.521 6.233-3.814 7.484zm-4.989 6.881c11.368 3.068 19.831 20.341 31.593 17.762-11.472-4.626-16.111-20.358-26.656-24.558-10.545-4.2-16.305 3.728-4.937 6.796zm-6.005 6.015c10.748 4.808 16.405 23.193 28.426 22.486-10.607-6.364-12.728-22.627-22.486-28.426-9.758-5.798-16.688 1.131-5.94 5.94zm-6.871 5.002c9.864 6.43 12.575 25.474 24.558 26.656-9.48-7.945-9.032-24.34-17.762-31.593-8.731-7.253-16.659-1.493-6.796 4.937zm-7.569 3.866c8.736 7.894 8.435 27.127 20.086 30.169-8.121-9.33-5.113-25.453-12.601-33.983-7.489-8.53-16.221-4.081-7.484 3.814zm-8.081 2.634c7.394 9.164 4.087 28.113 15.119 32.94-6.561-10.486-1.068-25.94-7.13-35.536-6.062-9.596-15.382-6.568-7.989 2.596zm-8.393 1.337c5.869 10.208-.361 28.406 9.78 34.9-4.84-11.383 3.003-25.787-1.483-36.214-4.486-10.427-14.166-8.893-8.297 1.314zm-8.5.008c4.2 11-4.8 28 4.2 36-3-12 7-25 4.2-36s-12.6-11-8.4 0zm-8.395-1.322c2.428 11.522-9.121 26.904-1.483 36.214-1.086-12.322 10.825-23.597 9.78-34.9-1.045-11.303-10.724-12.836-8.297-1.314zm-8.086-2.619c.595 11.759-13.218 25.146-7.13 35.536.855-12.34 14.383-21.613 15.119-32.94.736-11.327-8.584-14.355-7.989-2.596zm-7.576-3.852c-1.252 11.708-16.989 22.769-12.601 33.983 2.775-12.054 17.587-19.097 20.086-30.169 2.499-11.072-6.233-15.521-7.484-3.814zm-6.881-4.989c-3.068 11.368-20.341 19.831-17.762 31.593 4.626-11.472 20.358-16.111 24.558-26.656 4.2-10.545-3.728-16.305-6.796-4.937zm-6.015-6.004c-4.808 10.748-23.193 16.405-22.486 28.426 6.364-10.607 22.627-12.728 28.426-22.486 5.798-9.758-1.131-16.688-5.94-5.94zm-5.002-6.872c-6.43 9.864-25.474 12.575-26.656 24.558 7.945-9.48 24.34-9.032 31.593-17.762 7.253-8.731 1.493-16.659-4.937-6.796zm-3.866-7.569c-7.894 8.736-27.127 8.435-30.169 20.086 9.33-8.121 25.453-5.113 33.983-12.601 8.53-7.489 4.081-16.221-3.814-7.484zm-2.633-8.081c-9.164 7.394-28.113 4.087-32.94 15.119 10.486-6.561 25.94-1.068 35.536-7.13 9.596-6.062 6.568-15.382-2.596-7.989zm-1.338-8.393c-10.208 5.869-28.406-.361-34.9 9.78 11.383-4.84 25.787 3.003 36.214-1.483 10.427-4.486 8.893-14.166-1.314-8.297zm-.008-8.499c-11 4.2-28-4.8-36 4.2 12-3 25 7 36 4.2s11-12.6 0-8.4zm1.322-8.396c-11.522 2.428-26.904-9.121-36.214-1.483 12.322-1.086 23.597 10.825 34.9 9.78 11.303-1.045 12.836-10.724 1.314-8.297zm2.619-8.086c-11.759.595-25.146-13.218-35.536-7.13 12.34.855 21.613 14.383 32.94 15.119 11.327.736 14.355-8.584 2.596-7.989zm3.852-7.576c-11.708-1.252-22.769-16.989-33.983-12.601 12.054 2.775 19.097 17.587 30.169 20.086 11.072 2.499 15.521-6.233 3.814-7.484zm4.989-6.881c-11.368-3.068-19.831-20.341-31.593-17.762 11.472 4.626 16.111 20.358 26.656 24.558 10.545 4.2 16.305-3.728 4.937-6.796zm6.005-6.015c-10.748-4.808-16.405-23.193-28.426-22.486 10.607 6.364 12.728 22.627 22.486 28.426 9.758 5.798 16.688-1.131 5.94-5.94zm6.871-5.002c-9.864-6.43-12.575-25.474-24.558-26.656 9.48 7.945 9.032 24.34 17.762 31.593 8.731 7.253 16.659 1.493 6.796-4.937zm7.569-3.865c-8.736-7.894-8.435-27.127-20.086-30.169 8.121 9.33 5.113 25.453 12.601 33.983 7.489 8.53 16.221 4.081 7.484-3.814zm8.081-2.634c-7.394-9.164-4.087-28.113-15.119-32.94 6.561 10.486 1.068 25.94 7.13 35.536 6.062 9.596 15.382 6.568 7.989-2.596zm8.393-1.338c-5.869-10.208.361-28.406-9.78-34.9 4.84 11.383-3.003 25.787 1.483 36.214 4.486 10.427 14.166 8.893 8.297-1.314z" fill="#ffef00"/><circle transform="translate(-447.551 67.877)" r="54" fill="#e8112d"/><path transform="matrix(1.368 0 0 1.368 -176.987 -86.201)" d="M-158.958 112.063a38.825 38.825 0 1 1-77.65 0 38.825 38.825 0 1 1 77.65 0z" stroke="#ffef00" stroke-width="8" stroke-linecap="round" stroke-linejoin="round" fill="none"/><circle transform="matrix(.89 0 0 .9 -447.551 67.626)" r="45" cy="-3" fill="#ffef00"/><path d="M-407.503 42.758c-31.279 0-56.636 25.636-56.636 57.259s25.357 57.259 56.636 57.259l-3.204 2.218c-32.491 0-58.83-26.629-58.83-59.477s26.339-59.477 58.83-59.477l3.204 2.218zm-5.339-3.788c-33.348 0-60.383 27.331-60.383 61.046s27.034 61.046 60.383 61.046l-3.204 2.477c-34.702 0-62.833-28.44-62.833-63.523s28.131-63.523 62.833-63.523l3.204 2.477zm-5.34-4.203c-35.645 0-64.54 29.213-64.54 65.249 0 36.036 28.896 65.249 64.54 65.249l-3.204 2.69c-37.114 0-67.201-30.417-67.201-67.939 0-37.522 30.087-67.939 67.201-67.939l3.204 2.69zm-69.419 7.973c31.281 0 56.639 25.643 56.639 57.276 0 31.632-25.358 57.276-56.639 57.276l3.204 2.219c32.493 0 58.833-26.636 58.833-59.494 0-32.858-26.341-59.494-58.833-59.494l-3.204 2.219zm5.34-3.788c33.35 0 60.386 27.339 60.386 61.064s-27.036 61.064-60.386 61.064l3.204 2.478c34.703 0 62.836-28.449 62.836-63.542s-28.133-63.542-62.836-63.542l-3.204 2.478zm5.34-4.205c35.646 0 64.544 29.222 64.544 65.269 0 36.047-28.897 65.269-64.544 65.269l3.204 2.691c37.116 0 67.204-30.426 67.204-67.959s-30.088-67.959-67.204-67.959l-3.204 2.691z" clip-path="url(#a)" fill="#e8112d"/></g></svg>