<svg version="1" xmlns="http://www.w3.org/2000/svg" width="1800" height="1200"><path fill="#009" d="M0 0h1800v1200h-1800z"/><path fill="#c00" d="M0 300h1800v600h-1800z"/><g fill="#fff" fill-rule="evenodd" stroke="#c00" stroke-width="3"><path d="M550.114 631.417h699.773v113.152h-699.773zm-.491 113.151l-11.303 26.624h723.361l-11.302-26.624zm558.643-.017l-13.364 26.66h160.365l-13.364-26.66zm33.808.018l-6.906 26.624h82.873l-6.906-26.624zm12.264 0l-4.463 26.624h53.561l-4.463-26.624zm-338.412 0l-14.415 26.624h194.978l-14.415-26.624zm-269.743-114.873h707.636v26.624h-707.636zm561.899 1.961h134.018v112.708h-134.018zm95.869 52.819h13.402v59.882h-13.402zm-58.968 0h13.402v59.882h-13.402zm-286.175 60.181l-8.143 26.447h97.719l-8.143-26.447zm13.323-.224l-4.61 20.184h63.317l-4.61-20.184zm-55.547-115.412h165.42v115.413h-165.42zm132.536 55.444h13.483v59.883h-13.483zm-110.841-.005h13.493v59.883h-13.493zm21.701-80.352h80.002v140.355h-80.002zm59.035 80.354h13.483v59.883h-13.483zm-52.613.002h13.493v59.883h-13.493zm-5.803-57.462l38.256 56.824 40.508-56.824zm295.802 4.415h39.313v139.776h-39.313zm6.526 0h26.183v139.776h-26.183zm-603.856 113.171l-13.715 26.625h164.58l-13.715-26.625h-137.15zm32.77 0l-6.445 26.625h77.34l-6.445-26.625zm11.652 0l-4.115 26.625h49.38l-4.115-26.625zm-45.517-113.171h137.596v113.152h-137.596zm26.821 53.063h13.869v59.882h-13.869zm63.796.002h13.869v59.882h-13.869zm-43.441-53.065h39.314v139.775h-39.314zm6.526 0h26.182v139.775h-26.182zm-73.358-26.635h723.361v26.624h-723.361zm732.532 14.107l1.182-82.388s-3.548 23.154-14.196 23.154h-715.123c-10.648 0-14.197-23.154-14.197-23.154l1.182 82.388zm-7.552-15.986l1.158-64.418s-3.476 23.164-13.907 23.164h-700.549c-10.431 0-13.908-23.164-13.908-23.164l1.158 64.418zm-745.06 161.626h760.617v34.231h-760.617zm-11.613 7.335h783.842v34.231h-783.842zm-20.321 19.561h827.389v34.231h-827.389zm-29.032 24.45h885.452v34.231h-885.452zm-28.841 34.423h943.134v33.85h-943.134zm176.719-85.769h39.313v119.808h-39.313zm6.552 0h26.209v119.808h-26.209zm543.832 0h39.313v119.808h-39.313zm6.552 0h26.209v119.808h-26.209z"/><rect x="805.649" y="600.181" width="188.703" height="28.62" ry="14.31"/><path d="M997.073 617.008l1.213-94.351s-3.639 23.143-14.56 23.143h-167.444c-10.921 0-14.561-23.143-14.561-23.143l1.213 94.351zm-15.156-24.461l1.015-75.607s-3.045 18.545-12.182 18.545h-140.097c-9.137 0-12.183-18.545-12.183-18.545l1.015 75.607zm-127.979-.58l44.746 38.598 47.38-38.598zm73.242-201.829l.168-20.358c-21.033 0-15.812-22.15-15.812-30.542 6.199-8.445 7.933-20.226-9.369-28.797-16.935 9.565-15.599 20.191-9.369 28.087.093 9.326 6.916 31.252-16.137 31.252l.168 20.358zm15.623 26.067l.247-26.85s6.125-4.93 4.149-11.966l-10.989 8.871h-68.5s-10.365-15.907-12.341-8.871c-1.976 7.036 5.502 11.966 5.502 11.966l.247 26.85zm-71.551-61.987h61.505v14.885h-61.505zm-4.608 16.399h69.234v14.745h-69.234zm8.351 15.537l-.269-15.32c4.368-3.972 6.061 7.871 6.061 7.871s1.8-16.583 20.517-23.96c18.716 7.377 20.517 24.966 20.517 24.966s1.694-12.849 6.062-8.877l-.27 15.32zm4.361-46.524h45.297v14.204h-45.297zm-8.56 78.621l-.31-17.595c5.016-4.561 6.961 9.039 6.961 9.039s2.068-19.045 23.563-27.517c21.495 8.472 23.562 28.673 23.562 28.673s1.946-14.756 6.962-10.195l-.31 17.595zm81.833 34.79l.307-33.303s7.598-6.115 5.147-14.842c-2.451-8.727-13.63 11.004-13.63 11.004h-84.965s-12.856-19.73-15.307-11.004c-2.451 8.727 6.824 14.842 6.824 14.842l.306 33.303zm-85.612.247l-.355-20.154c5.745-5.225 7.973 10.354 7.973 10.354s2.369-21.815 26.99-31.519c24.621 9.704 26.989 32.843 26.989 32.843s2.229-16.902 7.974-11.678l-.355 20.154zm93.751 43.288l.355-39.346s8.789-7.224 5.954-17.535c-2.836-10.31-15.768 13-15.768 13h-98.293s-14.873-23.31-17.708-13c-2.835 10.31 7.894 17.535 7.894 17.535l.354 39.346zm-99.221-.353l-.41-23.315c6.647-6.044 9.224 11.978 9.224 11.978s2.74-25.237 31.224-36.463c28.483 11.226 31.223 37.995 31.223 37.995s2.578-19.554 9.225-13.51l-.411 23.315zm104.15 46.551l.391-43.217s9.684-7.935 6.56-19.26c-3.125-11.324-17.373 14.279-17.373 14.279h-108.295s-16.387-25.603-19.51-14.279c-3.124 11.325 8.698 19.26 8.698 19.26l.39 43.217zm4.363 17.231l.419-34.355s10.377-6.308 7.03-15.31c-3.348-9.002-18.617 11.351-18.617 11.351h-116.048s-17.56-20.353-20.907-11.351c-3.347 9.002 9.32 15.31 9.32 15.31l.418 34.355zm-116.017-19.755l-.477-27.109c7.728-7.028 10.725 13.927 10.725 13.927s3.186-29.344 36.305-42.396c33.118 13.053 36.304 44.177 36.304 44.177s2.998-22.736 10.726-15.708l-.478 27.109zm-2.171 51.942l-.027-28.567c8.023-5.18 12.618 22.59 12.618 22.59s1.153-41.83 35.538-51.451c34.383 9.621 35.536 51.451 35.536 51.451s4.595-27.77 12.619-22.59l-.029 28.567zm5.774 38.764l-.434-31.443c7.031-8.152 9.757 16.153 9.757 16.153s2.899-34.034 33.031-49.174c30.131 15.139 33.03 51.24 33.03 51.24s2.727-26.37 9.759-18.219l-.435 31.443zm130.878 53.511h13.868v59.883h-13.868zm94.307-.003h13.868v59.883h-13.868zm-47.153-.002h13.868v59.883h-13.868zm-22.191-.001h13.868v59.883h-13.868zm44.381 0h13.868v59.883h-13.868zm-354.266.01h13.868v59.883h-13.868zm45.154-.006h13.868v59.883h-13.868zm-22.19-.001h13.868v59.883h-13.868zm67.344.004h13.868v59.883h-13.868zm-22.964-.004h13.868v59.883h-13.868z"/><rect x="548.165" y="603.308" width="157.933" height="28.864" ry="14.432"/><path d="M705.71 620.257l1.213-94.351s-3.639 23.143-14.56 23.143h-133.444c-10.921 0-14.561-23.143-14.561-23.143l1.213 94.351zm-12.641-21.142l1.015-75.607s-9.045 18.545-18.182 18.545h-100.097c-9.137 0-18.183-18.545-18.183-18.545l1.015 75.607zm-101.274-15.629l33.766 29.127 35.754-29.127zm55.27-136.305l.127-15.363c-15.872 0-11.932-16.715-11.932-23.048 4.678-6.373 5.986-15.263-7.07-21.731-12.779 7.218-11.771 15.237-7.07 21.195.07 7.037 5.219 23.584-12.177 23.584l.127 15.363zm11.79 19.67l.187-20.261s4.622-3.72 3.131-9.03c-1.491-5.309-8.292 6.694-8.292 6.694h-51.692s-7.822-12.004-9.313-6.694c-1.491 5.309 4.152 9.03 4.152 9.03l.186 20.261zm-53.994-46.777h46.414v11.233h-46.414zm-3.478 12.375h52.246v11.127h-52.246zm6.302 11.725l-.203-11.561c3.296-2.997 4.574 5.939 4.574 5.939s1.359-12.514 15.483-18.081c14.124 5.567 15.482 18.84 15.482 18.84s1.278-9.696 4.574-6.699l-.204 11.561zm3.291-35.108h34.182v10.719h-34.182zm-6.459 57.329l-.234-13.277c3.785-3.442 5.253 6.821 5.253 6.821s1.56-14.372 17.781-20.765c16.22 6.393 17.781 21.637 17.781 21.637s1.468-11.136 5.253-7.693l-.234 13.277zm61.753 26.254l.231-25.132s5.733-4.615 3.884-11.2c-1.85-6.585-10.286 8.304-10.286 8.304h-64.117s-9.702-14.889-11.551-8.304c-1.849 6.585 5.149 11.2 5.149 11.2l.231 25.132zm-64.605.186l-.268-15.208c4.336-3.943 6.017 7.813 6.017 7.813s1.787-16.462 20.367-23.785c18.579 7.323 20.367 24.784 20.367 24.784s1.682-12.755 6.017-8.812l-.268 15.208zm70.747 30.666l.268-29.691s6.633-5.452 4.493-13.232c-2.14-7.78-11.899 9.81-11.899 9.81h-74.175s-11.224-17.59-13.363-9.81c-2.139 7.78 5.957 13.232 5.957 13.232l.267 29.691zm-74.875-6.266l-.31-17.594c5.016-4.561 6.96 9.039 6.96 9.039s2.068-19.044 23.563-27.516c21.494 8.472 23.562 28.672 23.562 28.672s1.946-14.756 6.961-10.195l-.31 17.594zm78.594 37.129l.295-32.613s7.308-5.988 4.95-14.534c-2.358-8.546-13.11 10.775-13.11 10.775h-81.723s-12.366-19.321-14.723-10.775c-2.357 8.546 6.564 14.534 6.564 14.534l.294 32.613zm3.292 11.003l.316-25.925s7.831-4.76 5.305-11.554c-2.527-6.793-14.049 8.566-14.049 8.566h-87.573s-13.251-15.359-15.777-8.566c-2.526 6.793 7.033 11.554 7.033 11.554l.315 25.925zm-87.549-14.908l-.36-20.457c5.832-5.304 8.093 10.51 8.093 10.51s2.404-22.143 27.397-31.993c24.992 9.85 27.396 33.338 27.396 33.338s2.262-17.157 8.094-11.854l-.361 20.457zm-1.638 33.197l-.021-21.557c6.055-3.909 9.522 17.047 9.522 17.047s.87-31.566 26.818-38.826c25.946 7.26 26.817 38.826 26.817 38.826s3.468-20.956 9.523-17.047l-.022 21.557zm-1.608 48.198l-.385-27.924c6.244-7.239 8.666 14.346 8.666 14.346s2.574-30.226 29.335-43.671c26.759 13.445 29.334 45.506 29.334 45.506s2.422-23.42 8.667-16.18l-.386 27.924z"/><rect x="1097.037" y="603.588" width="157.933" height="28.864" ry="14.432"/><path d="M1254.583 620.537l1.213-94.351s-3.639 23.143-14.56 23.143h-133.444c-10.921 0-14.561-23.143-14.561-23.143l1.213 94.351zm-12.641-21.143l1.015-75.607s-9.045 18.545-18.182 18.545h-100.097c-9.137 0-18.183-18.545-18.183-18.545l1.015 75.607zm-101.274-15.628l33.766 29.127 35.754-29.127zm55.27-136.306l.127-15.363c-15.872 0-11.932-16.715-11.932-23.048 4.678-6.373 5.986-15.263-7.07-21.731-12.779 7.218-11.771 15.237-7.07 21.195.07 7.037 5.219 23.584-12.177 23.584l.127 15.363zm11.79 19.67l.187-20.261s4.622-3.72 3.131-9.03c-1.491-5.309-8.292 6.694-8.292 6.694h-51.692s-7.822-12.004-9.313-6.694c-1.491 5.309 4.152 9.03 4.152 9.03l.186 20.261zm-53.995-46.777h46.414v11.233h-46.414zm-3.477 12.375h52.246v11.127h-52.246zm6.302 11.725l-.203-11.561c3.296-2.997 4.574 5.939 4.574 5.939s1.359-12.514 15.483-18.081c14.124 5.567 15.482 18.84 15.482 18.84s1.278-9.696 4.574-6.699l-.204 11.561zm3.291-35.108h34.182v10.719h-34.182zm-6.46 57.33l-.234-13.277c3.785-3.442 5.253 6.821 5.253 6.821s1.56-14.372 17.781-20.765c16.22 6.393 17.781 21.637 17.781 21.637s1.468-11.136 5.253-7.693l-.234 13.277zm61.754 26.253l.231-25.132s5.733-4.615 3.884-11.2c-1.85-6.585-10.286 8.304-10.286 8.304h-64.117s-9.702-14.889-11.551-8.304c-1.849 6.585 5.149 11.2 5.149 11.2l.231 25.132zm-64.606.186l-.267-15.208c4.336-3.943 6.017 7.813 6.017 7.813s1.787-16.462 20.368-23.785c18.579 7.323 20.367 24.784 20.367 24.784s1.682-12.755 6.017-8.812l-.268 15.208zm70.748 30.667l.268-29.691s6.633-5.452 4.493-13.232c-2.14-7.78-11.899 9.81-11.899 9.81h-74.175s-11.224-17.59-13.363-9.81c-2.139 7.78 5.957 13.232 5.957 13.232l.267 29.691zm-74.876-6.267l-.31-17.594c5.016-4.561 6.961 9.039 6.961 9.039s2.068-19.044 23.563-27.516c21.494 8.472 23.562 28.672 23.562 28.672s1.946-14.756 6.961-10.195l-.31 17.594zm78.595 37.129l.295-32.613s7.308-5.988 4.95-14.534c-2.358-8.546-13.11 10.775-13.11 10.775h-81.723s-12.366-19.321-14.723-10.775c-2.357 8.546 6.563 14.534 6.563 14.534l.294 32.613zm3.292 11.003l.316-25.925s7.831-4.76 5.305-11.554c-2.527-6.793-14.049 8.566-14.049 8.566h-87.573s-13.251-15.359-15.777-8.566c-2.526 6.793 7.033 11.554 7.033 11.554l.315 25.925zm-87.549-14.908l-.36-20.457c5.832-5.304 8.093 10.51 8.093 10.51s2.404-22.143 27.397-31.993c24.991 9.85 27.396 33.338 27.396 33.338s2.262-17.157 8.094-11.854l-.361 20.457zm-1.638 33.197l-.021-21.557c6.055-3.909 9.522 17.047 9.522 17.047s.87-31.566 26.818-38.826c25.946 7.26 26.817 38.826 26.817 38.826s3.468-20.956 9.523-17.047l-.022 21.557zm-1.609 48.198l-.385-27.924c6.245-7.239 8.666 14.346 8.666 14.346s2.574-30.226 29.335-43.671c26.76 13.445 29.334 45.506 29.334 45.506s2.422-23.42 8.667-16.18l-.386 27.924zm-257.627-.919h39.313v139.776h-39.313zm6.526 0h26.183v139.776h-26.183zm-7.077 133.112h39.313v119.808h-39.313zm6.239 0h26.209v119.808h-26.209z"/></g></svg>