<svg xmlns="http://www.w3.org/2000/svg" xmlns:xlink="http://www.w3.org/1999/xlink" version="1" width="600" height="300"><path fill="#ce1126" d="M0 0h600v300h-600z"/><path d="M349.39 141.291c8.758 2.347 22.013 1.763 27.963 8.709-8.758-2.347-19.551 11.81-27.963 8.709 7.427 5.201-108.043 0-98.781 0-8.758-2.347-22.013-1.763-27.963-8.709 8.758 2.347 19.551-11.81 27.963-8.709-7.427-5.201-20.313-9.227-23.298-17.748 7.427 5.201 22.536-4.448 29.255 1.38-5.201-7.427-16.07-15.579-15.823-24.646 5.201 7.427 22.705 3.451 27.019 11.303-2.347-8.758-9.415-20.051-6.439-28.571 2.347 8.758 19.976 10.933 21.524 19.862.79-9.033-2.398-22.105 3.721-29.051-.79 9.033 15.132 17.097 13.432 26.026 3.832-8.218 5.95-21.493 13.432-26.026-3.832 8.218 8.669 21.198 3.721 29.051 6.411-6.411 12.598-18.288 21.524-19.862-6.411 6.411.425 22.743-6.439 28.571 8.218-3.832 17.915-12.878 27.019-11.303-8.218 3.832-7.404 21.545-15.823 24.646 9.033-.79 21.17-5.914 29.255-1.38-9.033.79-14.036 17.748-23.298 17.748zm-91.031 8.711l-31.587-12.912 34.098-1.33-25.266-22.936 32.496 10.413-15.897-30.194 26.975 20.899-4.612-33.811 18.2 28.865 7.231-33.349 7.231 33.349 18.2-28.865-4.612 33.811 26.975-20.899-15.897 30.194 32.496-10.413-25.266 22.936 34.098 1.33-31.587 12.912 31.587 12.912h-146.451l31.587-12.912z" fill="#fcd116" fill-rule="evenodd" stroke="#bd9c08" stroke-width="1.875"/><path d="M341.357 150c0 22.841-18.516 41.358-41.358 41.358-22.841 0-41.358-18.516-41.358-41.358 0-22.841 18.516-41.358 41.358-41.358 22.841 0 41.358 18.516 41.358 41.358z" fill="#fcd116" stroke="#bd9c08" stroke-width="1.874" stroke-linecap="round"/><path fill="#003f87" d="M0 165h600v135h-600z"/><path d="M0 257.143l60 12.857 60-12.857 60 12.857 60-12.857 60 12.857 60-12.857 60 12.857 60-12.857 60 12.857 60-12.857v-21.429l-60 12.857-60-12.857-60 12.857-60-12.857-60 12.857-60-12.857-60 12.857-60-12.857-60 12.857-60-12.857v21.429z" id="a" fill="#fff" fill-rule="evenodd"/><path d="M313.6 49.862l22.178.147c.142-.938-1.903-2.805-3.644-3.078-5.615-.882-9.826.936-16.64 1.006l-1.894 1.926zm-44.169-5.219c5.208 6.58 15.305 11.153 24.952 11.212 13 .081 27.413-10.44 44.851-13.662l-56.918-1.172c-7.364-5.045-12.952-4.405-16.763-1.277l-10.882.329c-1.541.839 1.272 4.343 3.551 4.471l11.209.098zm25.729-3.775c-2.07-9.518-9.706-13.62-18.891-14.837-10.606-1.405-35.022-2.847-51.239-7.505 7.016 6.901 21.71 10.346 31.917 11.904 10.81 1.65 21.335 4.054 29.674 10.351l8.54.086z" fill="#fcd116" fill-rule="evenodd" stroke="#bd9c08" stroke-width="1.875"/><path d="M288.267 47.221c3.394 4.354 8.656 4.107 14.313.309 5.639-3.786 11.765-14.448 14.725-14.622 20.693-1.202 45.724-9.936 57.665-16.682-15.137 2.143-30.143 4.573-45.411 4.634-26.05.104-29.133 11.967-39.748 20.286" fill="#fcd116" fill-rule="evenodd" stroke="#bd9c08" stroke-width="1.875" stroke-linecap="round"/><path d="M292.309 42.103c5.553-3.537 10.065-8.151 15.263-12.006 8.607-6.383 18.55-6.569 29.223-6.701 9.46-.117 26.046-4.069 35.042-6.179" stroke="#bd9c08" stroke-width="1.875" stroke-linecap="round" fill="none"/><path d="M286.534 40.436c-1.639-8.511-9.604-11.065-19.668-12.594-10.95-1.663-22.117-2.589-33.038-5.607-2.708-.749-5.233-2.07-7.85-3.105" stroke="#bd9c08" stroke-width="1.875" fill="none"/><path d="M290.023 52.983c10.273.753 17.908-2.336 26.674-6.706m-62.066-4.446h12.96" stroke="#bd9c08" stroke-width="1.875" stroke-linecap="round" fill="none"/><path d="M273.37 40.437c.001.895-.725 1.621-1.62 1.621-.895 0-1.621-.726-1.62-1.621-.001-.895.725-1.621 1.62-1.621.895 0 1.621.726 1.62 1.621z" fill="#bd9c08" stroke="#bd9c08" stroke-width=".814" stroke-linecap="round" stroke-linejoin="round"/><use transform="translate(0 -85.714)" id="b" width="600" height="300" xlink:href="#a"/><use transform="translate(0 42.857)" width="600" height="300" xlink:href="#b"/></svg>