<svg xmlns="http://www.w3.org/2000/svg" width="750" height="500"><path fill="#ed1c24" d="M0 0h750v500h-750z"/><path fill="#fff" d="M0 125h750v250h-750z"/><path fill="#00a651" d="M371.589 125l-4.1 6.83c-2.255 3.757-7.718 9.396-12.124 12.521-4.405 3.125-9.715 7.778-11.829 10.342l-3.864 4.651 4.1-1.073c2.246-.593 5.172-1.544 6.519-2.114 1.347-.57 2.448-.253 2.448.716v.098l-.029.195c-.594 2.409-7.631 7.93-13.215 10.245-5.344 2.215-13.268 7.999-14.306 10.31l-.059.195-.029.098v.23l.029.098.03.065.029.033.029.033.029.033.088.065c.626.437 2.348.503 4.336.065 3.487-.769 4.925-.292 6.077 2.081 1.762 3.63.752 5.269-3.304 5.269-4.905 0-11.887 4.926-12.831 9.074-.633 2.781-3.309 5.049-9.056 7.675-9.382 4.287-21.49 12.473-22.33 14.993l-.029.228c0 3.571 7.902 3.322 19.35-.618 2.567-.883 3.698.016 5.634 4.423 2.396 5.455 2.358 5.589-3.215 12.781-3.892 5.023-7.315 7.613-11.032 8.391-7.407 1.55-9.709 3.054-19.321 12.651-4.6 4.593-9.217 8.394-10.265 8.423-.411.012-.684.074-.826.195l-.029.033-.03.032-.029.033v.033l-.03.033v.197l.03.098.029.065.03.065c.773 1.422 5.847 4.228 8.702 4.228 2.089 0 7.18-2.388 11.298-5.301 7.225-5.112 7.583-5.189 10.501-2.277 1.663 1.659 3.038 4.876 3.038 7.122 0 3.424-1.84 4.989-11.327 9.822-7.019 3.576-15.263 9.722-21.71 16.164-8.665 8.658-11.124 10.255-14.808 9.659-2.326-.376-3.627-.533-4.041-.293l-.059.033-.029.032-.029.033-.03.13c-.003.443.78 1.348 2.183 2.894 1.328 1.465 4.411 2.667 6.843 2.667 6.635 0 27.608-7.817 34.07-12.684 5.999-4.518 11.831-5.39 16.666-2.537 7.48 4.414-5.028 13.301-28.583 20.327-8.665 2.584-16.174 5.1-17.138 5.724l-.059.033-.03.033-.029.033v.032c-.337.558.161 2.028 1.18 3.382 2.459 3.267 14.836 3.425 25.397.293 4.227-1.254 14.753-5.512 23.392-9.432 15.669-7.109 15.727-7.096 21.209-4.228 12.738 6.665 11.561 18.326-3.746 37.498-6.666 8.349-12.581 12.073-23.333 14.7-3.978.972-12.153 8.675-12.153 11.448 0 .274.053.49.118.683h2.743c.603-.44 1.218-1.074 1.829-1.886 3.389-4.503 10.225-7.506 17.138-7.545 7.512-.042 16.715-4.167 23.628-10.602 6.073-5.653 12.174-7.339 16.784-4.618 2.554 1.507 4.878 1.658 7.964.488 5.488-2.08 8.2-1.075 8.2 3.025 0 1.843 1.932 4.316 4.572 5.822 2.525 1.439 7.03 4.963 10 7.838 2.262 2.19 3.91 3.19 4.779 3.187h.207l.059-.032.059-.033.118-.065.03-.033.029-.033.029-.033.03-.033.029-.065.029-.065.029-.065.029-.098v-.13c.088-.963-.658-2.901-2.389-5.626-1.018-1.602-1.536-3.199-1.386-4l.029-.13.03-.065v-.033l.029-.033.059-.098.029-.033.059-.033.029-.033.059-.033c.958-.371 6.037-.182 11.593.455 9.773 1.12 10.958 1.708 16.725 8.391 2.848 3.3 5.185 5.374 7.079 6.244h3.923c.836-.377 1.426-.922 1.563-1.464l.029-.065v-.294c-.336-1.122-6.123-6.628-13.067-12.424-15.783-13.172-18.203-17.985-18.259-36.23-.033-10.911.484-13.706 3.038-16.521 3.978-4.386 6.164-4.28 15.929.813 7.374 3.846 9.665 4.168 26.43 3.805 18.004-.389 18.531-.277 27.58 5.041 5.072 2.981 11.269 6.972 13.805 8.879 5.599 4.209 11.283 4.505 12.625.65 1.584-4.552-9.059-13.381-29.055-24.034-19.885-10.594-21.968-13.556-12.802-18.375 5.213-2.741 5.574-2.689 13.834 1.919 6.621 3.694 9.65 4.488 13.893 3.61l5.428-1.138-11.947-9.789c-6.569-5.383-12.923-11.093-14.129-12.716-3.489-4.694-10.236-7.805-16.873-7.805-3.11 0-6.015-.596-6.814-1.333l-.089-.098-.029-.032-.029-.065c-1.867-3.33 3.755-4.911 19.439-5.529 21.13-.832 24.037-3.294 9.469-8-5.817-1.879-14.534-4.258-19.38-5.301-5.909-1.272-9.184-2.66-10-4.26-.089-.182-.15-.396-.177-.585-.017-.14-.017-.312 0-.455.072-.544.395-1.119.944-1.724.992-1.094 5.733-.972 13.805.39 9.048 1.527 14.001 1.869 14.896.813.932-1.214-3.238-4.238-12.448-9.334-8.391-4.643-18.981-12.156-23.805-16.912-4.78-4.713-11.879-10.073-15.752-11.903-5.111-2.416-6.766-4.055-6.106-5.952 1.152-3.309 9.194-3.343 14.395-.065 2.113 1.332 7.651 2.407 12.301 2.374l8.466-.065-5.605-2.277c-5.598-2.27-20.825-13.101-22.005-15.546l-.059-.163v-.131l.029-.033.029-.033.03-.032c.623-.46 4.134-.657 8.348-.423l8.466.488-12.183-9.399c-8.938-6.887-14.446-9.852-20.737-11.188-4.714-1.001-10.119-2.192-12.006-2.634-5.052-1.186-13.537-10.029-16.991-17.725l-3.009-6.732zm-27.757 47.418h.59c1.571 0 2.712.383 3.186.976l.059.065.03.065c.051.088.095.197.118.293l.03.098v.228l-.03.163-.029.098c-.328 1.085-2.097 3.065-3.953 4.423-1.419 1.039-2.265 1.604-2.743 1.529l-.118-.032-.059-.033-.088-.098c-.323-.393-.383-1.449-.383-3.317 0-3.42.628-4.355 3.392-4.456zm41.09 4.228h.088c2.397 0 4.009 1.121 4.336 2.992.405 2.317-.557 2.96-4.336 2.96-2.126 0-3.356-.221-3.953-.813-.442-.46-.528-1.151-.354-2.147.322-1.842 1.883-2.958 4.218-2.992zm-12.035 1.008c2.083-.162 2.92 1.07 2.92 3.708 0 3.174-1.214 4.164-6.932 5.626-3.607.923-6.914 1.347-7.61 1.008l-.059-.033-.029-.033c-1.979-2.182-.244-4.983 4.69-7.578 3.174-1.669 5.451-2.577 7.02-2.699zm27.698.033c3.053-.101 3.438 1.341 1.947 5.626-.513 1.474-2.638 2.667-4.72 2.667-3.046 0-3.699-.737-3.304-3.805.352-2.73 1.693-3.974 4.72-4.358.502-.064.952-.117 1.357-.13zm-46.724 8.293h.324c3.702 0 1.393 6.982-3.363 10.18-4.235 2.847-8.737 4.069-10 2.96l-.029-.033c-.081-.082-.158-.188-.206-.293l-.03-.065-.029-.098-.03-.065v-.098l-.029-.163v-.033c.103-3.814 9.017-11.917 13.392-12.293zm34.778 16.164c1.764-.213 2.882 1.721 2.271 5.269-.34 1.975-2.103 3.338-4.749 3.675-2.022.257-3.269.167-3.746-.39l-.029-.033-.059-.098-.03-.065-.029-.033-.029-.13c-.236-.947.735-2.707 2.891-5.561 1.247-1.652 2.487-2.511 3.51-2.634zm-13.834.781h.236c3.543 0 4.116 3.12.914 5.008-1.477.872-2.913 1.523-3.392 1.594l-.059.033-.059-.033c-.267-.093-2.223-.723-4.336-1.431l-3.835-1.301 4.336-1.951c2.231-.996 4.909-1.819 6.194-1.919zm29.822 3.903c1.674-.089 3.486.236 5.251.976 3.202 1.342 3.824 2.506 3.215 6.017-.827 4.768-3.43 5.303-12.33 2.472-4.372-1.391-4.822-2.059-3.422-4.943 1.336-2.752 4.09-4.351 7.286-4.521zm-66.016 1.171h.295c6.476 0 7.37 1.126 4.218 5.269-1.057 1.389-3.063 3.504-4.484 4.683-2.171 1.803-2.836 1.611-4.218-1.236-1.645-3.389-2.158-5.618-1.357-6.96.74-1.198 2.56-1.725 5.546-1.756zm-17.05 2.862c2.762-.075 4.464 1.23 6.666 5.008l3.097 5.334-4.631 1.789c-4.227 1.625-4.938 1.318-8.436-3.61-2.205-3.106-3.048-5.166-2.448-6.472.055-.115.128-.254.206-.358l.088-.098.088-.098c.791-.791 2.383-1.221 4.808-1.431l.56-.065zm102.003 15.969c3.069-.248 6.202 1.914 5.752 5.399-.571 4.427-5.406 5.708-9.38 2.504-2.373-1.913-2.461-2.622-.619-5.399 1.055-1.59 2.64-2.374 4.248-2.504zm-57.904 8.293h.354c.259 0 .5.055.708.13.131.05.274.115.383.195l.118.098.059.065.059.065.059.065c.468.603.632 1.637.442 3.057-.609 4.563-3.63 5.902-4.926 2.179-1.157-3.324-.034-5.676 2.743-5.854zm-19.35 3.512c1.3-.176 3.436.688 5.575 2.472 1.454 1.212 2.056 2.389 2.035 3.252l-.03.26-.029.163-.059.13-.088.163-.029.065-.059.065-.177.195-.059.065c-.889.688-2.772.525-4.926-1.138-1.78-1.375-3.258-3.172-3.392-4.098v-.13c0-.882.459-1.358 1.239-1.464zm30.766.65c.6-.052 1.224.536 2.271 1.691 1.315 1.45 2.86 4.227 3.422 6.179 1.35 4.691-.783 6.651-4.956 4.521-4.48-2.287-5.569-5.908-2.979-9.984.989-1.556 1.603-2.351 2.242-2.407zm10.737 6.374c1.139-.156 2.684 1.549 3.068 4.423.224 1.676-.009 3.105-.531 3.545l-.029.033-.059.033-.088.033-.029.033h-.147c-2.195 0-3.451-1.979-3.451-5.496 0-1.682.562-2.505 1.268-2.602zm-67.432 6.765c2.259-.002 4.241.12 5.546.39 2.154.446 3.587 1.061 4.277 1.789.146.159.277.349.354.52l.088.293c.035.179.034.395 0 .585-.257 1.32-2.151 2.93-5.664 4.781-2.913 1.535-7.841 3.306-10.973 3.903-5.201.99-5.914.623-8.082-4-1.285-2.741-2.327-5.349-2.36-5.854v-.098l.029-.033.029-.065.029-.033c1.087-1.125 10.095-2.172 16.725-2.179zm104.599 15.221c6.057-.268 9.325 3.829 2.743 8.911-4.234 3.27-10.451 3.401-14.306.293-2.774-2.236-2.633-2.556 2.419-5.952 3.194-2.147 6.441-3.133 9.144-3.252zm22.064 4.781h.325c.895-.003 2.961 1.051 4.602 2.374 2.923 2.356 2.913 2.513-.737 6.797-1.889 2.217-3.815 3.956-4.484 4.098h-.117c-.487-.149-3.152-.567-5.9-.943-3.056-.418-4.985-1.65-4.985-3.155l.029-.228c.486-2.533 8.05-8.549 11.268-8.944zm-110.941 6.765c.281-.016.616 0 .973 0 4.164 0 6.46 3.428 6.46 9.659 0 8.373-5.105 7.701-7.463-.976-2.053-7.554-2.258-8.555.03-8.684zm31.71 2.374c2.511-.08 8.587 1.321 9.38 2.277l.029.033.029.032v.033l.03.033v.099c-.079.647-1.705 3.286-3.658 5.919l-3.599 4.846-1.888-6.244c-.932-3.114-1.506-5.919-1.386-6.635v-.033l.029-.033v-.032l.03-.033.029-.033.03-.033h.029l.029-.033.059-.033c.187-.073.476-.119.826-.13zm-15.427 2.764c.455-.045 1.167.073 2.153.228 1.977.31 3.797 1.953 4.1 3.708.368 2.13.164 3.616-.354 4.391l-.147.195-.177.163-.088.065c-.103.066-.238.131-.354.163l-.177.033h-.295c-1.026-.13-2.353-1.403-3.51-3.87-1.334-2.844-1.946-4.192-1.711-4.748l.088-.13c.103-.1.257-.174.472-.195z"/></svg>