<svg xmlns="http://www.w3.org/2000/svg" width="900" height="600"><path fill="#c1272d" d="M0 0h900v600h-900z"/><path d="M449.969 200l-22.438 69.281-72.781.063 58.844 42.813-22.438 69.344c15.165-11.122 42.625-31.055 58.844-42.813l58.906 42.781-22.5-69.281 58.844-42.875h-72.719l-22.563-69.313zm0 47.438l7.156 21.844-14.25.031 7.094-21.875zm-27.219 36.5l-4.375 13.594-18.594-13.531 22.969-.063zm15.375 0h23.75l7.344 22.625-19.219 14-19.219-14 7.344-22.625zm39.125 0h22.938l-18.531 13.594-4.406-13.594zm-51.219 37.313l11.563 8.344-18.594 13.531 7.031-21.875zm48 0l7.031 21.875-18.563-13.5v-.031l11.531-8.344z" fill="#006233"/></svg>