<svg xmlns="http://www.w3.org/2000/svg" width="684" height="360" viewBox="0 0 570 300"><title>Flag of the Marshall Islands</title><path fill="#003893" d="M0-.005h570v300h-570z"/><path d="M109.536 202.531l-3.84-63.864-13.392 35.184 5.976-37.152-22.056 30.504 15.408-34.344-29.184 23.76 23.76-29.184-34.344 15.384 30.504-22.032-37.176 5.976 35.184-13.392-63.84-3.84 63.84-3.84-35.184-13.392 37.176 5.976-30.504-22.056 34.344 15.408-23.76-29.184 29.184 23.76-15.408-34.344 22.056 30.504-5.976-37.152 13.392 35.16 3.84-63.84 3.84 63.84 13.392-35.16-5.976 37.152 22.032-30.504-15.408 34.344 29.208-23.76-23.76 29.184 34.344-15.408-30.504 22.056 37.152-5.976-35.184 13.392 63.864 3.84-63.864 3.84 35.184 13.392-37.152-5.976 30.504 22.032-34.344-15.384 23.76 29.184-29.208-23.76 15.408 34.344-22.032-30.504 5.976 37.152-13.392-35.184-3.84 63.864zm-109.536 92.664l570-172.8v-117.6l-570 280.8v9.6z" fill-rule="evenodd" fill="#FFF"/><path d="M0 290.395l570-226.8v-58.8l-570 280.8v4.8z" fill-rule="evenodd" fill="#dd7500"/></svg>