<svg xmlns="http://www.w3.org/2000/svg" width="2400" height="1200"><path fill="#c4272f" d="M0 0h2400v1200h-2400z"/><path fill="#015197" d="M800 0h800v1200h-800z"/><g fill="#f9cf02"><circle cx="400" cy="410" r="110"/><circle cx="400" cy="360" r="120" fill="#c4272f"/><circle cx="400" cy="380" r="80"/><path d="M350 230c0 27.608 22.391 50 50 50s50-22.39 50-50c0-20-12.5-22.5-12.5-30s7.5-17.5-7.5-30c7.5 12.5-5 15-5 27.5s5 12.5 5 22.5c0 5.522-4.478 10-10 10-5.523 0-10-4.48-10-10 0-10 10-20 10-35s-2.5-20-10-32.5-20-22.5-10-32.5c-15 5-7.5 25-7.5 37.5s-10 20-10 35 7.5 17.5 7.5 27.5c0 5.522-4.478 10-10 10-5.523 0-10-4.48-10-10 0-10 5-10 5-22.5s-12.5-15-5-27.5c-15 12.5-7.5 22.5-7.5 30s-12.5 10-12.5 30zm-170 310h100v480h-100zm340 0h100v480h-100zm-220 80h200v40h-200zm0 280h200v40h-200zm0-360l100 60 100-60zm0 420l100 60 100-60z"/><g stroke="#c4272f" stroke-width="12"><circle cx="400" cy="780" r="106"/><path d="M400 674a53 53 0 0 1 0 106 53 53 0 0 0 0 106" fill="none"/></g><circle cx="400" cy="727" r="20" fill="#c4272f"/><circle cx="400" cy="833" r="20" fill="#c4272f"/></g></svg>