<svg xmlns="http://www.w3.org/2000/svg" height="500" width="1000" version="1"><path font-size="12" fill="#006" d="M0 0h1000.001v500h-1000.001z"/><g fill-rule="evenodd"><path d="M641.207 122.932h214.004l-.255 152.278c1.781 61.215-36.374 99.201-106.578 116.328-49.855-12.38-107.34-37.986-107.425-114.591l.254-154.016z" fill="#fff"/><path d="M645.944 127.523h204.518l-.243 145.92c1.701 58.658-34.763 95.058-101.855 111.469-47.645-11.861-102.583-36.399-102.664-109.806l.243-147.584z" fill="#00a2bd" stroke="#000" stroke-width="NaN"/><path d="M848.879 290.727c-7.44 55.992-50.562 80.456-100.516 93.441-44.218-11.861-91.788-30.798-101.01-93.16l201.526-.281z" fill="#a53d08"/></g><path d="M700.376 154.578l39.929.143-.285-18.396 14.546.143.143 18.253h39.786l.143 14.26-39.929.143-.319 168.179-14.188.089-.181-168.411-39.652.143.008-14.546z" fill-rule="evenodd"/><path d="M708.095 297.723l36.419 37.782c12.593-13.842 3.858-65.58-12.706-75.109-1.985 6.126-5.361 13.472-8.95 15.84-7.895 5.381-27.243 11.671-20.776 15.7 1.475-2.042 5.332-3.971 7.148.568 2.156 7.147-8.055 7.602-8.055 7.602s-6.467-.795-7.602-7.376c-1.135-6.579 9.633-12.587 10.552-13.047.908-.341 14.976-4.084 17.359-16.565 2.95-12.254 6.013-10.438 6.581-10.665 18.379 1.815 30.406 34.718 31.087 57.863.68 23.145-9.417 38.462-11.233 39.483-1.815 1.021-43.794-49.807-43.794-49.807l3.971-2.269z" fill="#ff9a08" fill-rule="evenodd" stroke="#000" stroke-width=".806"/><path d="M734.645 262.551l.226 68.187m-4.31-66.94c0 .114.226 61.949.226 61.949m-4.651-52.985l.226 49.24m-3.858-45.724l.227 40.732m-4.084-38.916v34.378m-4.199-31.654v27.229m-3.63-25.074v20.875" stroke="#000" stroke-width=".806" fill="none"/><path d="M707.528 302.034l37.554 43" stroke="#ffdf00" stroke-width=".806" stroke-linecap="round" fill="none"/><path d="M746.897 274.917s17.02 37.215 1.248 67.848m-45.042-48.56s1.248-3.29 2.836-1.929m-5.786-7.601s-6.807 6.013-3.063 9.871" stroke="#ffdf00" stroke-width="1.511" stroke-linecap="round" fill="none"/><g font-size="12"><path d="M0 0v27.95l444.081 222.04h55.899v-27.95l-444.081-222.04h-55.899zm499.98 0v27.949l-444.081 222.041h-55.899v-27.951l444.081-222.039h55.899zm-291.655 0v249.99h83.33v-249.99h-83.33zm-208.325 83.33v83.33h499.98v-83.33h-499.98z" fill="#fff"/><path d="M0 99.996v49.998h499.98v-49.998h-499.98zm224.991-99.996v249.99h49.998v-249.99h-49.998zm-224.991 249.99l166.66-83.33h37.266l-166.66 83.33h-37.266zm0-249.99l166.66 83.33h-37.266l-129.394-64.697v-18.633zm296.054 83.33l166.66-83.33h37.266l-166.66 83.33h-37.266zm203.926 166.66l-166.66-83.33h37.266l129.394 64.697v18.633z" fill="#c00"/></g><path d="M754.735 190.013c2.521-2.162 3.829-3.484 5.39-3.244 1.561.24 3.687.12 5.248-.361 1.566-.481 9.314-1.442 12.499-.361 1.081.12 2.521.721 4.741 2.584 2.226 1.862 5.469 5.106 4.388 14.117-1.081 9.011-.728 12.865-1.202 17.902-.839 8.891-2.811 16.212-6.366 15.619 4.805 8.41 5.285 15.619 8.407 21.386 3.127 5.767 5.047 17.541 3.845 30.277-1.197 12.736-4.562 41.33 5.527 60.553-1.682 1.201-5.764 0-9.372-3.845-3.602-3.845-5.184-3.719-8.169-1.442-9.129 6.969-17.678 15.367-30.273 6.969-2.885-1.922-3.797-4.228-1.682-10.092 5.285-14.658 7.853-34.768 7.02-44.214v-105.849z" fill="#008021" stroke="#000" stroke-width=".332"/><path d="M763.395 181.003c.659 2.043 1.018 4.685-.063 7.088-1.081 2.403-1.319 5.287.48 8.771 2.885-4.085 6.972-3.244 9.372-5.646 2.405-2.403 2.885-4.686 4.689-5.167-1.804-1.562-4.567-3.244-3.966-7.809.601-4.566 6.967-8.29 1.202-15.259-3.723-4.498-9.135-3.244-11.476-1.502-1.102.819-2.041 1.982-2.4 2.763-.364.781.09 2.558-.786 3.605-.596.72-1.324 1.437-2.162 2.042-.538.391-.875.96-.301 1.622.232.265.654.321 1.118.482-.269.541-.575 1.08-.875 1.47-.285.367-.163.716.179 1.015-.454 1.441.422 1.598-.179 2.68-.522.935-1.229 2.042.723 3.124.538.3 3.096.893 4.446.721zm-23.369 23.908c-3.365.841-8.771-.6-12.858-.12-1.804.213-3.244-.72-3.001-2.523.237-1.803.48-4.566.116-7.089-.559-3.932 1.324-9.371 3.966-15.379 2.642-6.007 3.966-9.371 3.966-12.195 0-1.862.179-3.965 1.862-5.046 1.245-.799 1.482-1.575 1.925-2.222 1.018-1.502 1.978-1.862 2.099-.961.074.536-.121 1.021-.601 1.742 1.081-.901 2.917-1.953 3.333-2.253.422-.3 2.558-1.802 2.674-.39.844-.42 1.413-.391 1.624.06.227.487.09.691-.332 1.052.601-.12 1.292.931.09 1.862.633-.21 1.26.841.153 1.802-1.15.992-2.463 1.682-2.885 2.463-.422.781-3.275 2.974-4.414 3.454-1.144.48-1.202 1.14-1.202 2.823 0 18.502-2.22 16.999-2.22 21.446 0 1.201-.243 2.283.96 1.922 1.202-.36 2.943-.901 4.747-.901v10.453zm.717 39.889c5.432-2.715 11.656-3.724 14.899-4.565 3.244-.841 8.412-3.364 10.933-4.685 2.526-1.322 4.567-3.124 6.007-3.605 1.445-.48 3.059-1.475 3.966-3.244 4.683-9.131 7.21-16.459 7.21-22.828 0-4.205-1.081-8.891-5.169-5.527-3.839 3.162-8.022 9.258-9.129 13.697-1.682 6.728-3.122 8.17-3.486 9.491-.359 1.322-1.719 1.321-3.365 1.682-7.088 1.562-8.771 2.643-14.055 6.608-5.285 3.965-11.054 7.45-14.899 9.612-3.845 2.163-4.562 2.403-5.406 4.145-.839 1.742-1.619 3.064-2.342 3.845-.723.781-.928 1.693-.781 2.643.121.781-.243 4.385-.301 5.587-.063 1.201.237 1.502.723 1.562.48.061 1.139-.18 1.382-1.622-.243 1.442 1.74.961 1.862-.12-.063 1.562 2.041.661 2.162-.781 0 1.021 1.593.315 1.74-.18.359-1.201.659-2.523 1.139-3.484.701-1.395 1.45-3.202 2.827-4.205 1.561-1.141.839-2.403 4.082-4.025zm38.927 98.399c.364 1.322 1.023 2.824 1.26 3.725.243.901-.179 1.182-.417 1.682-1.26 2.643-2.616 6.857-2.827 9.131-.116 1.322-1.018 2.583-1.44 3.364-.464.861-.285 1.526.781 2.343.512.39 2.162-.12 2.342-.961.601.6 1.682.36 2.162-.541.543.541 1.445.18 2.046-.72.538.36 1.319-.361 1.619-.842.844.421 1.746-.09 1.772-1.741.005-.332.211-.901.454-1.292.237-.391.327-1.141.301-1.803-.032-.661.39-1.982.96-2.913.57-.931 1.561-2.583 1.139-4.145-.39-1.455-1.018-1.322-1.561-3.424-1.319-1.382-3.122-3.305-4.984-3.425-1.862-.12-2.943 1.142-3.607 1.562zm-34.18 10.333c1.682 1.682 5.469 1.742 8.111-1.082-.96-.42-3.064-1.382-4.024-2.162-1.324 1.322-2.827 2.823-4.087 3.244z" fill="#ffe1cf" stroke="#000" stroke-width=".332"/><path d="M762.493 162.5c.659-4.265 3.681-4.164 5.585-3.724.781.18 2.706.36 4.504-.12 3.565-.95 6.25.301 5.891 3.725.96.72 1.978 2.402 1.798 3.845-.179 1.441.121 2.042 1.445 2.222 1.319.181 4.145 1.803 2.278 4.085 1.804 1.082 3.185 3.845 2.226 5.707-.96 1.862-3.845 2.163-5.047.48-1.319.601-3.486.721-4.805-.66-.902 1.081-3.185.961-3.607 0-.417-.961-1.129-1.476-1.978-1.743-.965-.3-1.023-2.943.417-3.244-.179-.781-.116-1.682.243-2.102.359-.42.058-1.201-.781-1.863-.844-.661-1.561-3.184-.723-4.565-1.44.48-4.625-.901-5.285-1.862-.665-.961-1.561-1.021-2.162-.18z" fill="#870f00" stroke="#000" stroke-width=".332"/><path d="M763.395 181.003c2.342-.301 3.122-1.742 4.863-1.622m-9.852-4.903c.153.135.348.245.57.367.475.256.992.286 1.471.345m-1.345-3.197c.327.113.675.277.986.599m4.446-10.092c-1.382-1.322 2.342-4.025 6.25-.18.728.718 2.579.721 3.122.541m-3.966 1.681c1.804-.421 4.504-.421 5.285 1.622.786 2.043 2.347.721 3.607 3.124 1.26 2.403 3.244 5.106 5.163 3.244m-7.626 5.527c-.543-.721-.781-2.283-.422-3.365-.723-.841-.422-2.583 0-3.424m-4.747 1.803c.063.721 1.023 2.043 2.526 2.283m7.447 3.363c-.839-1.081-.723-2.042-.538-3.364m-8.232-8.59c-.058 1.081.601 2.523 1.74 3.004.243.6 1.445 2.283 3.845 2.043m.485-9.432c-1.319-1.023-3.106-2.284-5.469-2.595m-9.193 37.077c-2.041 2.764-3.365 6.608-2.4 12.015.96 5.407 2.521 13.336-1.445 16.941m19.467 10.451c-2.764-.6-6.73-.6-8.892.961-2.162 1.562-5.77 1.682-8.169.48m11.233-1.62c-2.405.42-3.544 2.102-3.544 6.548 0 4.445-.96 10.933-.121 17.301m-.723-21.987c-1.561.42-3.18.48-2.88 4.685m-5.226.12c.058-2.583.96-4.986 2.642-4.566m14.657 5.047c.121-5.707-1.139-7.329-2.822-7.269 2.284.06 3.839.339 4.805 9.671.723 6.969 2.178 9.435 3.845 14.899 4.325 14.177 2.162 36.044 4.325 43.733m-13.455-59.352c4.562 13.217 6.967 27.874-.48 51.423 5.042 13.937 10.089 24.029 11.049 29.797m-24.988-49.982c.839-3.003-2.162-3.364.48-13.937 1.144-4.58 1.324-7.329.601-8.771m0 6.248c-1.081 4.686 3.486 13.457 1.202 19.824m-5.648 1.201c0 4.085.96 9.371.723 13.457-.243 4.085 1.424 5.978 3.365 9.852 6.967 13.937 11.708 23.881 11.049 37.005-.116 2.403.723 7.449-1.798 8.89m-13.159 3.545c.723.06 1.503-.3 2.405-2.463.902-2.163 3.787-15.138 2.584-24.029m1.44 10.092c.359 2.763.359 8.41-1.44 12.855m6.007-21.145c1.081 5.887.96 11.174.121 14.898m-2.526 0c.121 2.403 1.202 8.41-.601 8.891m9.614-36.765c4.441 6.969 7.927 24.15 11.65 27.753m-7.805-2.763c-.121-1.922-.243-4.565-1.324-5.767m-46.675-78.334c.058-1.322-.179-2.584 1.26-4.626m-3.422 5.407c.179-4.626.116-5.047 1.44-6.308m-3.302 6.427c.058-3.304-.364-4.445.96-6.548m15.617-92.572c-.512.33-3.512 2.613-4.773 3.574m6.065-2.463c-.57.09-2.22 1.442-5.163 3.724m5.252-1.861c-.928.42-2.7 2.133-4.325 3.274m-3.064-3.604c-.448.33-1.319 1.292-1.74 1.622m43.611 199.742c-.269-.301-.269-1.352.211-2.523m1.951 1.982c-.327-.33 0-1.772.332-2.703m1.714 1.983c-.39-.18-.512-1.022.058-2.163m1.562 1.321c-.269-.09-.39-.541.09-1.862" stroke="#000" stroke-width=".332" fill="none"/><path d="M761.559 166.284c.87 1.141 1.772 1.021 1.93 1.756.158.737.274.789.443 1.007.169.218-.411.174-.696.056-.28-.118-.986-.105-1.419-.099-.427.006-.939-.499-.617-.559.316-.059.274-.159.227-.383-.047-.224.179-.578.311-.642.137-.065.042-.053-.079-.353-.127-.301-.285-1.03-.1-.784zm.528-1.045c.976.114 2.658.641 3.57 1.651.717.794.132.584-.232.613-.364.031-1.076-.227-1.435-.679-.353-.451-1.413-1.023-1.978-1.171-.343-.089-.665-.502.074-.415z"/></svg>