<svg xmlns="http://www.w3.org/2000/svg" version="1" width="900" height="450" viewBox="-3010 0 6020 3021"><defs id="defs4"><style type="text/css" id="style6"/></defs><path d="M-3021 3021v-1007h6041.999v1007h-6041.999z" id="21376952" fill="#009543"/><path d="M3020.999 1007.001h-6041.999v1007h6041.999v-1007z" id="21375544" fill="#ed4135"/><path d="M-3021 1007.001v-1007h6042v1007h-6042z" id="21377216" fill="#0035ad"/><g id="g2275"><path id="21377304" d="M-1006.995 520.424c544.743 0 990.077 444.345 990.077 990.082 0 544.742-445.334 990.076-990.077 990.076-545.737 0-990.084-445.334-990.084-990.076 0-545.736 444.347-990.082 990.084-990.082z" fill="#fae600" stroke="#000" stroke-width="33.857"/><path id="21377480" d="M-1005.357 522.04c550.309 0 1000.197 447.253 1000.197 996.564 0 548.31-449.888 996.564-1000.197 996.564-551.313 0-1000.197-448.253-1000.197-996.564 0-549.311 448.884-996.564 1000.197-996.564z" fill="none"/><path d="M-1192.303 1657.621l354.827-3.412" id="path9008" fill="#1f1a17" fill-rule="evenodd" stroke="#000" stroke-width="41.11"/><path d="M-1195.715 1411.97h361.65" id="path9010" fill="#1f1a17" fill-rule="evenodd" stroke="#000" stroke-width="41.11"/><path d="M-1011.478 524.049l3.412 1682.029-3.412-3.412" id="path9012" fill="#1f1a17" fill-rule="evenodd" stroke="#000" stroke-width="41.11"/><path d="M-1405.649 2419.622c404.084 165.015 782.826 10.138 782.826 10.138s-142.97-154.73-216.263-215.138c-71.512-58.941-281.891-56.606-353.68 0-59.915 47.244-231.75 221.333-212.884 205.001z" id="path2438" fill-rule="evenodd" stroke="#000" stroke-width="2.592" stroke-linejoin="round"/><path id="path3166" d="M-900.998 1964.001c.054 88.088-49.147 159.538-109.859 159.538-60.711 0-109.912-71.45-109.859-159.538-.054-88.087 49.147-159.538 109.859-159.538 60.711 0 109.912 71.45 109.859 159.538z" stroke="#000" stroke-width="4.943" stroke-linecap="round" stroke-linejoin="round"/><path id="path3900" d="M-878.319 1534.852c0 46.958-60.081 85.025-134.195 85.025-74.114 0-134.195-38.067-134.195-85.025 0-46.958 60.081-85.025 134.195-85.025 74.114 0 134.195 38.067 134.195 85.025z" stroke="#000" stroke-width=".04" stroke-linecap="round" stroke-linejoin="round"/><path id="path3902" d="M-880.136 1143.998c.032 71.239-59.871 129.006-133.776 129.006s-133.808-57.767-133.776-129.006c-.032-71.239 59.871-129.006 133.776-129.006s133.808 57.767 133.776 129.006z" stroke="#000" stroke-width=".109" stroke-linecap="round" stroke-linejoin="round"/><path id="path6096" d="M-845.929 641.036s11.67 19.364-12.804 63.438c-116.989 210.682-234.382 215.239-256.66 233.382-24.554 19.997-34.92 18.624-34.92 18.624l1.746-18.042s1.627-73.789 2.91-80.898c17.765-98.436 166.463-97.085 282.849-197.88 18.181-15.746 16.878-18.624 16.878-18.624z" fill-rule="evenodd" stroke="#000" stroke-width="3.454" stroke-linejoin="round"/><path id="path9014" d="M-1009.433 1304.298c45.296-4.845 97.876-23.389 114.608-50.088 98.397-157.018 109.493-158.233 109.493-158.233s-15.028 40.134-25.199 90.131c-10.171 49.996-8.572 90.436-20.422 109.855-15.131 24.796-39.226 50.508-70.515 60.63-40.798 13.198-109.181 15.603-109.181 15.603s-2.737-67.474 1.216-67.897z" fill-rule="evenodd" stroke="#000" stroke-width="2.561" stroke-linejoin="round"/><path id="path11196" d="M-1019.231 1304.189c-44.215-4.848-95.54-23.403-111.872-50.118-96.049-157.111-106.88-158.327-106.88-158.327s14.669 40.158 24.598 90.184c9.929 50.026 8.368 90.489 19.935 109.92 14.769 24.811 38.29 50.538 68.832 60.666 39.824 13.206 106.575 15.612 106.575 15.612s2.671-67.514-1.187-67.937z" fill-rule="evenodd" stroke="#000" stroke-width="2.561" stroke-linejoin="round"/><g id="g11202" stroke="#000" fill-rule="evenodd"><path id="path11198" d="M-1006.846 1789.316c47.235 6.579 102.066 31.76 119.514 68.016 102.609 213.215 114.18 214.864 114.18 214.864s-15.671-54.499-26.278-122.389c-10.607-67.89-8.939-122.803-21.296-149.172-15.779-33.67-40.905-68.585-73.533-82.329-42.544-17.922-113.854-21.187-113.854-21.187s-2.854 91.623 1.268 92.197z"/><path id="path11200" d="M-1017.063 1789.464c-46.107 6.583-99.63 31.779-116.661 68.056-100.16 213.341-111.455 214.992-111.455 214.992s15.297-54.531 25.651-122.461 8.726-122.876 20.788-149.26c15.402-33.69 39.929-68.626 71.778-82.378 41.529-17.932 111.137-21.199 111.137-21.199s2.786 91.677-1.238 92.252z"/></g></g></svg>