<svg xmlns="http://www.w3.org/2000/svg" xmlns:xlink="http://www.w3.org/1999/xlink" width="1000" height="600" viewBox="0 0 1000 600"><defs><linearGradient xlink:href="#a" id="d" gradientUnits="userSpaceOnUse" x1="856.906" y1="567.625" x2="1034.938" y2="567.625"/><linearGradient id="a"><stop offset="0" stop-color="#025"/><stop offset=".5" stop-color="#04a"/><stop offset="1" stop-color="#025"/></linearGradient><linearGradient xlink:href="#a" id="e" gradientUnits="userSpaceOnUse" x1="845.906" y1="584.423" x2="1045.938" y2="584.423"/><linearGradient><stop offset="0" stop-color="#025"/><stop offset=".5" stop-color="#04a"/><stop offset="1" stop-color="#025"/></linearGradient><linearGradient xlink:href="#b" gradientUnits="userSpaceOnUse" gradientTransform="matrix(1.685 0 0 1.685 -335.142 -500.785)" x1="889.494" y1="576.772" x2="889.494" y2="587.75"/><linearGradient id="b"><stop offset="0" stop-color="#f5f549"/><stop offset="1" stop-color="#97c924"/></linearGradient><linearGradient xlink:href="#b" gradientUnits="userSpaceOnUse" gradientTransform="matrix(1.685 0 0 1.685 -382.908 -500.785)" x1="889.494" y1="576.772" x2="889.494" y2="587.75"/><linearGradient><stop offset="0" stop-color="#f5f549"/><stop offset="1" stop-color="#97c924"/></linearGradient><linearGradient xlink:href="#b" gradientUnits="userSpaceOnUse" gradientTransform="matrix(1.685 0 0 1.685 -430.676 -500.785)" x1="889.494" y1="576.772" x2="889.494" y2="587.75"/><linearGradient><stop offset="0" stop-color="#f5f549"/><stop offset="1" stop-color="#97c924"/></linearGradient><linearGradient xlink:href="#b" gradientUnits="userSpaceOnUse" gradientTransform="matrix(1.685 0 0 1.685 -478.127 -500.785)" x1="889.494" y1="576.772" x2="889.494" y2="587.75"/><linearGradient><stop offset="0" stop-color="#f5f549"/><stop offset="1" stop-color="#97c924"/></linearGradient><linearGradient xlink:href="#c" gradientUnits="userSpaceOnUse" gradientTransform="matrix(1.685 0 0 1.685 -526.21 -500.785)" x1="889.494" y1="576.772" x2="889.494" y2="587.75"/><linearGradient id="c"><stop offset="0" stop-color="#f5f549"/><stop offset="1" stop-color="#97c924"/></linearGradient><linearGradient xlink:href="#a" gradientUnits="userSpaceOnUse" gradientTransform="matrix(1.685 0 0 1.685 -526.21 -500.785)" x1="830.156" y1="611.062" x2="1061.656" y2="611.062"/><linearGradient><stop offset="0" stop-color="#025"/><stop offset=".5" stop-color="#04a"/><stop offset="1" stop-color="#025"/></linearGradient><linearGradient xlink:href="#a" id="k" gradientUnits="userSpaceOnUse" gradientTransform="matrix(.506 0 0 .506 21.805 19.962)" x1="830.156" y1="611.062" x2="1061.656" y2="611.062"/><linearGradient xlink:href="#c" id="j" gradientUnits="userSpaceOnUse" gradientTransform="matrix(.506 0 0 .506 21.805 19.962)" x1="889.494" y1="576.772" x2="889.494" y2="587.75"/><linearGradient xlink:href="#b" id="i" gradientUnits="userSpaceOnUse" gradientTransform="matrix(.506 0 0 .506 36.23 19.962)" x1="889.494" y1="576.772" x2="889.494" y2="587.75"/><linearGradient xlink:href="#b" id="h" gradientUnits="userSpaceOnUse" gradientTransform="matrix(.506 0 0 .506 50.466 19.962)" x1="889.494" y1="576.772" x2="889.494" y2="587.75"/><linearGradient xlink:href="#b" id="g" gradientUnits="userSpaceOnUse" gradientTransform="matrix(.506 0 0 .506 64.796 19.962)" x1="889.494" y1="576.772" x2="889.494" y2="587.75"/><linearGradient xlink:href="#b" id="f" gradientUnits="userSpaceOnUse" gradientTransform="matrix(.506 0 0 .506 79.126 19.962)" x1="889.494" y1="576.772" x2="889.494" y2="587.75"/></defs><path fill="#0067C6" d="M0 0h1000v600h-1000z"/><path fill="#fff" d="M0 200h1000v200h-1000z"/><path d="M500.066 232.381l57.526 101.958c-38.347.011-76.703.005-115.053.005z" fill="#6dd9f4"/><path d="M495.611 238.449l-2.465 4.377 6.921 41.46-4.456-45.837zm4.456 45.837l6.921-41.46-2.465-4.377-4.456 45.837zm0 0l13.525-29.752-1.422-2.528-12.103 32.28zm0 0l17.981-21.852-1.043-1.849-16.938 23.701zm0 0l21.599-15.437-.901-1.596-20.698 17.033zm0 0l25.012-9.385-.885-1.58-24.127 10.965zm0 0l28.741-2.797-1.043-1.817-27.698 4.614zm0 0l33.449 5.578-1.39-2.465-32.059-3.113zm0 0l40.765 18.534-2.323-4.124-38.442-14.41zm0 0l40.654 33.465 2.196-2.86-42.851-30.605zm0 0l30.621 42.851 2.828-2.196-33.449-40.654zm0 0l18.486 49.313 3.302-1.375-21.789-47.938zm0 0l4.946 50.94h3.539l-8.485-50.94zm0 0l-8.485 50.94h3.539l4.945-50.94zm0 0l-21.789 47.938 3.302 1.375 18.486-49.313zm0 0l-33.465 40.654 2.844 2.196 30.621-42.851zm0 0l-42.851 30.621 2.196 2.828 40.654-33.449zm0 0l-38.426 14.41-2.338 4.14 40.765-18.55zm0 0l-32.059 3.113-1.39 2.465 33.449-5.578zm0 0l-27.698-4.614-1.027 1.817 28.725 2.797zm0 0l-24.127-10.965-.885 1.58 25.012 9.385zm0 0l-20.698-17.033-.901 1.596 21.599 15.437zm0 0l-16.938-23.701-1.043 1.849 17.981 21.852zm0 0l-12.103-32.28-1.422 2.544 13.525 29.736z" opacity=".25" fill="#fff"/><path d="M499.276 231.971l-.932 1.659 1.722 50.656 1.722-50.656-.932-1.659h-1.58zm.79 52.315l10.634-34.871-1.801-3.207-8.832 38.079zm0 0l15.911-25.518-1.185-2.117-14.726 27.635zm0 0l19.845-18.534-.948-1.691-18.897 20.224zm0 0l23.306-12.403-.885-1.58-22.421 13.983zm0 0l26.797-6.21-.932-1.675-25.865 7.884zm0 0l30.905 1.059-1.169-2.07-29.736 1.011zm0 0l36.609 11.155-1.738-3.065-34.871-8.09zm0 0l44.415 27.698.774-1.327-1.849-3.271-43.34-23.1zm0 0l35.725 38.253 2.528-2.528-38.253-35.725zm0 0l24.601 46.2 3.097-1.785-27.698-44.415zm0 0l11.803 50.94h.19l3.271-.869-15.263-50.071zm0 0l-1.738 50.94h3.476l-1.738-50.94zm0 0l-15.263 50.071 3.271.869h.19l11.803-50.94zm0 0l-27.698 44.415 3.081 1.785 24.617-46.2zm0 0l-38.253 35.725 2.528 2.528 35.725-38.253zm0 0l-43.325 23.069-1.864 3.302.774 1.327 44.415-27.698zm0 0l-34.871 8.074-1.722 3.081 36.594-11.155zm0 0l-29.736-1.011-1.169 2.07 30.905-1.059zm0 0l-25.865-7.884-.932 1.675 26.797 6.21zm0 0l-22.421-13.983-.885 1.564 23.306 12.419zm0 0l-18.897-20.224-.948 1.691 19.845 18.534zm0 0l-14.71-27.635-1.201 2.117 15.911 25.518zm0 0l-8.832-38.079-1.801 3.207 10.634 34.871z" fill="#d5f6ff"/><path d="M491.963 278.497l8.102 5.789-7.689-6.328-.414.539zm8.102 5.789l-5.789-8.102-.537.414 6.326 7.688zm0 0l-3.496-9.324-.626.258 4.122 9.065zm0 0l-.962-9.91-.674.089 1.636 9.821zm0 0l1.637-9.821-.674-.089-.963 9.911zm0 0l4.121-9.064-.626-.261-3.495 9.324zm0 0l6.328-7.689-.539-.414-5.789 8.102zm0 0l8.102-5.789-.414-.537-7.688 6.326zm0 0l9.324-3.495-.258-.626-9.065 4.122zm0 0l9.91-.962-.089-.674-9.821 1.636zm0 0l9.821 1.637.089-.674-9.911-.963zm0 0l9.064 4.121.261-.626-9.324-3.495zm0 0l7.689 6.328.414-.539-8.102-5.789zm0 0l5.789 8.102.537-.414-6.326-7.688zm0 0l3.495 9.324.626-.258-4.122-9.065zm0 0l.962 9.91.674-.089-1.636-9.821zm0 0l-1.637 9.821.674.089.963-9.911zm0 0l-4.121 9.064.626.261 3.495-9.324zm0 0l-6.328 7.689.539.414 5.789-8.102zm0 0l-8.102 5.789.414.537 7.688-6.326zm0 0l-9.324 3.495.258.626 9.065-4.122zm0 0l-9.91.962.089.674 9.821-1.636zm0 0l-9.821-1.637-.089.674 9.911.963zm0 0l-9.064-4.121-.261.626 9.324 3.495z" fill="#fff"/><path d="M500.066 267.79c-10.845 0-20.639 4.492-27.619 11.724l-9.496 16.843c-.826 3.132-1.264 6.42-1.264 9.812 0 11.616 5.166 22.019 13.32 29.057h9.164c-10.264-5.627-17.222-16.525-17.222-29.057 0-18.151 14.594-32.904 32.691-33.133h.427c18.294 0 33.117 14.839 33.117 33.133 0 12.532-6.958 23.43-17.222 29.057h9.164c8.154-7.038 13.32-17.441 13.32-29.057 0-3.397-.435-6.691-1.264-9.828l-9.496-16.812c-6.98-7.237-16.77-11.74-27.619-11.74z" fill="#f00"/><path d="M500.066 268.533c-11.913 0-22.526 5.549-29.42 14.189l-5.909 10.476-.016.032c-1.477 4.034-2.275 8.395-2.275 12.94 0 11.71 5.343 22.156 13.731 29.057h7.995c-10.264-5.627-17.222-16.525-17.222-29.057 0-18.151 14.594-32.904 32.691-33.133h.427c18.294 0 33.117 14.839 33.117 33.133 0 12.532-6.958 23.43-17.222 29.057h7.995c8.387-6.901 13.73-17.347 13.73-29.057 0-4.546-.798-8.906-2.275-12.94l-.031-.063-5.878-10.412c-6.894-8.655-17.511-14.22-29.436-14.22z" fill="#f60"/><path d="M499.592 269.291c-20.147.255-36.404 16.67-36.404 36.878 0 11.807 5.557 22.308 14.189 29.057h6.794c-10.264-5.627-17.222-16.525-17.222-29.057 0-18.151 14.594-32.904 32.691-33.133h.427c18.294 0 33.117 14.839 33.117 33.133 0 12.532-6.958 23.43-17.222 29.057h6.794c8.631-6.749 14.189-17.25 14.189-29.057 0-20.367-16.511-36.878-36.878-36.878h-.474z" fill="#ff0"/><path d="M499.592 270.034c-19.737.25-35.646 16.339-35.646 36.135 0 11.916 5.766 22.477 14.663 29.057h5.562c-10.264-5.627-17.222-16.525-17.222-29.057 0-18.151 14.594-32.904 32.691-33.133h.427c18.294 0 33.117 14.839 33.117 33.133 0 12.532-6.958 23.43-17.222 29.057h5.562c8.897-6.58 14.663-17.141 14.663-29.057 0-19.952-16.167-36.135-36.12-36.135h-.474z" fill="#0f0"/><path d="M499.608 270.792c-19.327.245-34.919 15.992-34.919 35.377 0 12.044 6.022 22.668 15.216 29.057h4.266c-10.264-5.627-17.222-16.525-17.222-29.057 0-18.151 14.594-32.904 32.691-33.133h.427c18.294 0 33.117 14.839 33.117 33.133 0 12.532-6.958 23.43-17.222 29.057h4.266c9.194-6.388 15.216-17.012 15.216-29.057 0-19.538-15.839-35.377-35.377-35.377h-.458z" fill="#0cf"/><path d="M499.624 271.535c-18.917.24-34.176 15.66-34.176 34.634 0 12.181 6.292 22.885 15.8 29.057h2.923c-10.264-5.627-17.222-16.525-17.222-29.057 0-18.151 14.594-32.904 32.691-33.133h.427c18.294 0 33.117 14.839 33.117 33.133 0 12.532-6.958 23.43-17.222 29.057h2.923c9.509-6.172 15.8-16.876 15.8-29.057 0-19.124-15.495-34.634-34.619-34.634h-.442z" fill="#00f"/><path d="M499.624 272.293c-18.507.234-33.434 15.313-33.434 33.876 0 12.343 6.599 23.136 16.464 29.057h1.517c-10.264-5.627-17.222-16.525-17.222-29.057 0-18.151 14.594-32.904 32.691-33.133h.427c18.294 0 33.117 14.839 33.117 33.133 0 12.532-6.958 23.43-17.222 29.057h1.517c9.865-5.921 16.464-16.713 16.464-29.057 0-18.709-15.167-33.876-33.876-33.876h-.442z" fill="#800080"/><path d="M458.875 303.578l-8.311 14.726h99.005l-8.311-14.726h-82.383z" fill="#fff"/><path d="M459.21 303.796l-.174.316h82.81l-.19-.316h-82.446zm-.316.553l-.174.316h83.427l-.174-.316h-83.079zm-.285.506l-.285.522h84.233l-.3-.522h-83.648zm-.443.806l-.364.633h85.261l-.348-.633h-84.549zm-.585 1.012l-.348.633h86.399l-.348-.633h-85.704zm-.569 1.012l-.348.633h87.554l-.364-.633h-86.842zm-.569 1.012l-.348.633h88.692l-.364-.633h-87.981zm-.617 1.091l-.427.775h90.084l-.443-.775h-89.214z" fill="url(#d)"/><path d="M461.566 310.817c3.145.619 3.447 0 3.447 0h-3.447zm74.287 0s.302.619 3.447 0h-3.447zm-80.248.142l-.443.016-.3.522c.495-.043.993-.082 1.502-.095 3.002.075 5.726.791 8.918.791l.648-.016h.079l.285.016h2.103l.285-.016h.079l.648.016c3.19 0 5.916-.716 8.918-.791 3.004.075 5.745.791 8.934.791l.648-.016h.079l.285.016h2.103l.285-.016h.079l.648.016c3.19 0 5.903-.716 8.902-.791 3.001.075 5.713.791 8.902.791l.648-.016h.095l.269.016h2.118l.269-.016h.095l.648.016c3.19 0 5.914-.716 8.918-.791 3.005.074 5.726.791 8.918.791l.648-.016h.079l.285.016h2.103l.285-.016h.079l.648.016c3.189 0 5.903-.716 8.902-.791.616.015 1.219.069 1.818.127l-.316-.569h-2.26l-.459.016-.553-.016c-3.189 0-5.903.7-8.902.775-3.005-.075-5.726-.775-8.918-.775l-.553.016-.459-.016h-2.103l-.474.016-.538-.016c-3.189 0-5.916.7-8.918.775-3.002-.075-5.729-.775-8.918-.775l-.553.016-.459-.016h-2.118l-.459.016-.553-.016c-3.189 0-5.904.7-8.902.775-3.002-.075-5.713-.775-8.902-.775l-.553.016-.459-.016h-2.103l-.474.016-.538-.016c-3.193 0-5.914.7-8.918.775-3.002-.075-5.729-.775-8.918-.775l-.553.016-.459-.016h-2.119zm-1.028 1.044l-.332.585c.694-.073 1.401-.124 2.119-.142 3.002.075 5.726.791 8.918.791l.648-.016h.079l.285.016h2.103l.285-.016h.079l.648.016c3.19 0 5.916-.716 8.918-.791 3.004.075 5.745.791 8.934.791l.648-.016h.079l.285.016h2.103l.285-.016h.079l.648.016c3.19 0 5.903-.716 8.902-.791 3.001.075 5.713.791 8.902.791l.648-.016h.095l.269.016h2.118l.269-.016h.095l.648.016c3.19 0 5.914-.716 8.918-.791 3.005.074 5.726.791 8.918.791l.648-.016h.079l.285.016h2.103l.285-.016h.079l.648.016c3.189 0 5.903-.716 8.902-.791.832.021 1.645.099 2.451.19l-.364-.617h-.269l-.459-.016h-2.118l-.459.016-.553-.016c-3.189 0-5.903.7-8.902.775-3.005-.075-5.726-.775-8.918-.775l-.553.016-.459-.016h-2.103l-.474.016-.538-.016c-3.189 0-5.916.7-8.918.775-3.002-.075-5.729-.775-8.918-.775l-.553.016-.459-.016h-2.118l-.459.016-.553-.016c-3.189 0-5.904.7-8.902.775-3.002-.075-5.713-.775-8.902-.775l-.553.016-.459-.016h-2.103l-.474.016-.538-.016c-3.193 0-5.914.7-8.918.775-3.002-.075-5.729-.775-8.918-.775l-.553.016-.459-.016h-2.119l-.474.016-.538-.016h-.016zm.016 1.044l-.601.016-.38.664c.901-.105 1.815-.198 2.751-.221 3.002.075 5.726.775 8.918.775l.648-.016h.079l.285.016h2.103l.285-.016h.079l.648.016c3.19 0 5.916-.7 8.918-.775 3.004.075 5.745.775 8.934.775l.648-.016h.079l.285.016h2.103l.285-.016h.079l.648.016c3.19 0 5.903-.7 8.902-.775 3.001.075 5.713.775 8.902.775l.648-.016h.095l.269.016h2.118l.269-.016h.095l.648.016c3.189 0 5.914-.7 8.918-.775 3.005.074 5.727.775 8.918.775l.648-.016h.079l.285.016h2.103l.285-.016h.079l.648.016c3.189 0 5.903-.7 8.902-.775 1.049.026 2.07.131 3.083.253l-.395-.696-.316-.016-.553.016-.459-.016h-2.118l-.459.016-.553-.016c-3.189 0-5.903.7-8.902.775-3.005-.075-5.726-.775-8.918-.775l-.553.016-.459-.016h-2.103l-.474.016-.538-.016c-3.189 0-5.916.7-8.918.775-3.002-.075-5.729-.775-8.918-.775l-.553.016-.459-.016h-2.118l-.459.016-.553-.016c-3.189 0-5.904.7-8.902.775-3.002-.075-5.713-.775-8.902-.775l-.553.016-.459-.016h-2.103l-.474.016-.538-.016c-3.193 0-5.914.7-8.918.775-3.002-.075-5.729-.775-8.918-.775l-.553.016-.459-.016h-2.119l-.474.016-.538-.016zm0 1.044c-.41 0-.806.011-1.202.032l-.411.727c1.111-.139 2.228-.272 3.384-.3 3.002.075 5.726.775 8.918.775l.648-.016h.079l.285.016h2.103l.285-.016h.079l.648.016c3.19 0 5.916-.7 8.918-.775 3.004.075 5.745.775 8.934.775l.648-.016h.079l.285.016h2.103l.285-.016h.079l.648.016c3.19 0 5.903-.7 8.902-.775 3.001.075 5.713.775 8.902.775l.648-.016h.095l.269.016h2.118l.269-.016h.095l.648.016c3.189 0 5.914-.7 8.918-.775 3.005.074 5.727.775 8.918.775l.648-.016h.079l.285.016h2.103l.285-.016h.079l.648.016c3.189 0 5.903-.7 8.902-.775 1.267.032 2.491.177 3.716.332l-.443-.759c-.299-.012-.594-.032-.901-.032l-.553.016-.459-.016h-2.118l-.459.016-.553-.016c-3.223 0-5.96.712-8.997.775-2.967-.087-5.665-.775-8.823-.775l-.553.016-.459-.016h-2.103l-.474.016-.538-.016c-3.189 0-5.916.7-8.918.775-3.002-.075-5.729-.775-8.918-.775l-.553.016-.459-.016h-2.118l-.459.016-.553-.016c-3.189 0-5.904.7-8.902.775-3.002-.075-5.713-.775-8.902-.775l-.553.016-.459-.016h-2.103l-.474.016-.538-.016c-3.159 0-5.857.688-8.823.775-3.04-.062-5.79-.775-9.013-.775l-.553.016-.459-.016h-2.119l-.474.016-.538-.016zm0 1.044c-.626 0-1.223.035-1.818.079l-.427.743c1.323-.169 2.642-.329 4.016-.364 3.002.075 5.726.775 8.918.775l.648-.016h.079l.285.016h2.103l.285-.016h.079l.648.016c3.19 0 5.916-.7 8.918-.775 3.004.075 5.745.775 8.934.775l.648-.016h.079l.285.016h2.103l.285-.016h.079l.648.016c3.19 0 5.903-.7 8.902-.775 3.001.075 5.713.775 8.902.775l.648-.016h.095l.269.016h2.118l.269-.016h.095l.648.016c3.189 0 5.914-.7 8.918-.775 3.005.074 5.727.775 8.918.775l.648-.016h.079l.285.016h2.103l.285-.016h.079l.648.016c3.189 0 5.903-.7 8.902-.775 1.484.037 2.909.229 4.348.411l-.459-.806c-.499-.032-.997-.063-1.518-.063l-.553.016-.459-.016h-2.118l-.459.016-.553-.016c-3.189 0-5.903.7-8.902.775-3.005-.075-5.726-.775-8.918-.775l-.553.016-.459-.016h-2.103l-.474.016-.538-.016c-3.189 0-5.916.7-8.918.775-3.002-.075-5.729-.775-8.918-.775l-.553.016-.459-.016h-2.118l-.459.016-.553-.016c-3.189 0-5.904.7-8.902.775-3.002-.075-5.713-.775-8.902-.775l-.553.016-.459-.016h-2.103l-.474.016-.538-.016c-3.192 0-5.914.7-8.918.775-3.002-.075-5.729-.775-8.918-.775l-.553.016-.459-.016h-2.119l-.474.016-.538-.016zm0 1.044c-.842 0-1.645.053-2.435.127l-.443.775c1.54-.194 3.056-.403 4.649-.443 3.002.075 5.726.775 8.918.775l.648-.016h.079l.285.016h2.103l.285-.016h.079l.648.016c3.19 0 5.916-.7 8.918-.775 3.004.075 5.745.775 8.934.775l.648-.016h.079l.285.016h2.103l.285-.016h.079l.648.016c3.19 0 5.903-.7 8.902-.775 3.001.075 5.713.775 8.902.775l.648-.016h.095l.269.016h2.118l.269-.016h.095l.648.016c3.189 0 5.914-.7 8.918-.775 3.005.074 5.727.775 8.918.775l.648-.016h.079l.285.016h2.103l.285-.016h.079l.648.016c3.189 0 5.903-.7 8.902-.775 1.702.042 3.321.287 4.981.49l-.474-.854c-.695-.058-1.398-.095-2.135-.095l-.553.016-.459-.016h-2.118l-.459.016-.553-.016c-3.189 0-5.903.7-8.902.775-3.005-.075-5.726-.775-8.918-.775l-.553.016-.459-.016h-2.103l-.474.016-.538-.016c-3.189 0-5.916.7-8.918.775-3.002-.075-5.729-.775-8.918-.775l-.553.016-.459-.016h-2.118l-.459.016-.553-.016c-3.189 0-5.904.7-8.902.775-3.002-.075-5.713-.775-8.902-.775l-.553.016-.459-.016h-2.103l-.474.016-.538-.016c-3.192 0-5.914.7-8.918.775-3.002-.075-5.729-.775-8.918-.775l-.553.016-.459-.016h-2.119l-.474.016-.538-.016zm0 1.044c-1.061 0-2.068.084-3.052.19l-.459.791c1.764-.209 3.472-.477 5.281-.522 3.002.075 5.726.775 8.918.775l.648-.016h.079l.285.016h2.103l.285-.016h.079l.648.016c3.19 0 5.916-.7 8.918-.775 3.004.075 5.745.775 8.934.775l.648-.016h.079l.285.016h2.103l.285-.016h.079l.648.016c3.19 0 5.903-.7 8.902-.775 3.001.075 5.713.775 8.902.775l.648-.016h.095l.269.016h2.118l.269-.016h.095l.648.016c3.189 0 5.914-.7 8.918-.775 3.005.074 5.727.775 8.918.775l.648-.016h.079l.285.016h2.103l.285-.016h.079l.648.016c3.189 0 5.903-.7 8.902-.775 1.919.048 3.726.357 5.613.569l-.49-.87c-.89-.09-1.797-.158-2.751-.158l-.553.016-.459-.016h-2.118l-.459.016-.553-.016c-3.189 0-5.903.7-8.902.775-3.005-.075-5.726-.775-8.918-.775l-.553.016-.459-.016h-2.103l-.474.016-.538-.016c-3.189 0-5.916.7-8.918.775-3.002-.075-5.729-.775-8.918-.775l-.553.016-.459-.016h-2.118l-.459.016-.553-.016c-3.189 0-5.904.7-8.902.775-3.002-.075-5.713-.775-8.902-.775l-.553.016-.459-.016h-2.103l-.474.016-.538-.016c-3.192 0-5.914.7-8.918.775-3.002-.075-5.729-.775-8.918-.775l-.553.016-.459-.016h-2.119l-.474.016-.538-.016zm0 1.044c-1.288 0-2.501.112-3.684.253l-.459.806c1.994-.213 3.888-.55 5.914-.601 3.002.075 5.726.775 8.918.775l.648-.016h.079l.285.016h2.103l.285-.016h.079l.648.016c3.19 0 5.916-.7 8.918-.775 3.004.075 5.745.775 8.934.775l.648-.016h.079l.285.016h2.103l.285-.016h.079l.648.016c3.19 0 5.903-.7 8.902-.775 3.001.075 5.713.775 8.902.775l.648-.016h.095l.269.016h2.118l.269-.016h.095l.648.016c3.189 0 5.914-.7 8.918-.775 3.005.074 5.727.775 8.918.775l.648-.016h.079l.285.016h2.103l.285-.016h.079l.648.016c3.189 0 5.903-.7 8.902-.775 2.128.053 4.115.423 6.23.633l-.49-.87c-1.083-.124-2.194-.221-3.368-.221l-.553.016-.459-.016h-2.118l-.459.016-.553-.016c-3.189 0-5.903.7-8.902.775-3.005-.075-5.726-.775-8.918-.775l-.553.016-.459-.016h-2.103l-.474.016-.538-.016c-3.189 0-5.916.7-8.918.775-3.002-.075-5.729-.775-8.918-.775l-.553.016-.459-.016h-2.118l-.459.016-.553-.016c-3.189 0-5.904.7-8.902.775-3.002-.075-5.713-.775-8.902-.775l-.553.016-.459-.016h-2.103l-.474.016-.538-.016c-3.192 0-5.914.7-8.918.775-3.002-.075-5.729-.775-8.918-.775l-.553.016-.459-.016h-2.119l-.474.016-.538-.016zm0 1.044c-1.519 0-2.931.158-4.317.332l-.443.791c2.226-.202 4.296-.608 6.531-.664 3.002.075 5.726.775 8.918.775l.648-.016h.079l.285.016h2.103l.285-.016h.079l.648.016c3.19 0 5.916-.7 8.918-.775 3.004.075 5.745.775 8.934.775l.648-.016h.079l.285.016h2.103l.285-.016h.079l.648.016c3.19 0 5.903-.7 8.902-.775 3.001.075 5.713.775 8.902.775l.648-.016h.095l.269.016h2.118l.269-.016h.095l.648.016c3.189 0 5.914-.7 8.918-.775 3.005.074 5.727.775 8.918.775l.648-.016h.079l.285.016h2.103l.285-.016h.079l.648.016c3.189 0 5.903-.7 8.902-.775 2.333.058 4.499.489 6.847.68l-.474-.838c-1.284-.158-2.596-.3-4.001-.3l-.553.016-.459-.016h-2.118l-.459.016-.553-.016c-3.189 0-5.903.7-8.902.775-3.005-.075-5.726-.775-8.918-.775l-.553.016-.459-.016h-2.103l-.474.016-.538-.016c-3.189 0-5.916.7-8.918.775-3.002-.075-5.729-.775-8.918-.775l-.553.016-.459-.016h-2.118l-.459.016-.553-.016c-3.189 0-5.904.7-8.902.775-3.002-.075-5.713-.775-8.902-.775l-.553.016-.459-.016h-2.103l-.474.016-.538-.016c-3.192 0-5.914.7-8.918.775-3.002-.075-5.729-.775-8.918-.775l-.553.016-.459-.016h-2.119l-.474.016-.538-.016z" fill="url(#e)"/><path d="M528.696 297.874c-1.597 0-2.086.806-2.086.806-2.558 9.885-11.037 19.94-21.125 19.94h-7.553v10.065h57.498l-5.783-10.239c-9.074-1.354-16.488-10.63-18.85-19.766 0 0-.504-.806-2.101-.806z" fill="url(#f)"/><path d="M528.696 298.269c-.733 0-1.178.169-1.438.332-.246.154-.294.258-.3.269l-.016.016c-1.309 4.975-4.068 9.972-7.79 13.746-3.75 3.804-8.478 6.383-13.652 6.383h-7.173v9.275h56.881l-5.309-9.401c-4.382-.572-8.387-2.956-11.645-6.257-3.725-3.775-6.48-8.771-7.79-13.746l-.016-.016c-.007-.011-.065-.098-.316-.253-.265-.164-.705-.348-1.438-.348z" fill="#97c924"/><path d="M528.696 298.269l.379.032c.022 2.821 0 7.58 0 10.096-.027 2.187-.777 3.947-1.88 6.02-.512 1.453-.922.9-2.196 2.67-1.712.612-2.978.85-4.803 1.138-2.353.371-7.591.701-10.175.126 3.403-.998 6.506-3.056 9.133-5.72.698-.708 1.364-1.458 1.991-2.244 1.045-1.309 1.988-2.723 2.812-4.187.33-.586.641-1.168.932-1.77.436-.903.825-1.823 1.169-2.749.115-.309.228-.622.332-.932.208-.62.389-1.243.553-1.864l.016-.016c.006-.011.054-.114.3-.269.127-.08.31-.159.537-.221h.016c.235-.063.518-.111.885-.111z" fill="#dddf37"/><path d="M528.048 299.612c-.385 5.64-2.128 12.33-6.21 16.648-1.502 1.249-3.421 2.383-5.277 2.107 6.328-5.15 10.174-13.036 11.487-18.755z" fill="#c6cb24"/><path d="M522.961 309.313c-.936 2.544-4.475 6.306-8.263 9.389-1.075.033-1.645.094-2.621.035 2.306-.211 7.685-4.751 10.884-9.425z" fill="#9ecb34"/><path d="M516.469 298.686c2.556 9.885 11.02 19.94 21.108 19.94h7.56v10.065h-61.53v-10.065h7.544c10.088 0 18.566-10.055 21.124-19.94 0 0 .499-.809 2.097-.809 1.597 0 2.096.809 2.096.809z" fill="url(#g)"/><path d="M514.373 298.269c.733 0 1.173.184 1.438.348.251.155.31.242.316.253l.016.016c1.31 4.975 4.064 9.972 7.79 13.746 3.754 3.804 8.493 6.383 13.667 6.383h7.142v9.275h-60.737v-9.275h7.173c5.174 0 9.901-2.58 13.651-6.383 3.722-3.775 6.481-8.771 7.79-13.746l.016-.016c.006-.011.054-.114.3-.269.26-.163.705-.332 1.438-.332z" fill="#97c924"/><path d="M514.366 298.269l.379.032c.022 2.821 0 7.58 0 10.096-.027 2.187-.777 3.947-1.88 6.02-.512 1.453-.922.9-2.196 2.67-1.712.612-2.978.85-4.803 1.138-2.353.371-7.591.701-10.175.126 3.403-.998 6.506-3.056 9.133-5.72.698-.708 1.364-1.458 1.991-2.244 1.045-1.309 1.988-2.723 2.812-4.187.33-.586.641-1.168.932-1.77.436-.903.825-1.823 1.169-2.749.115-.309.228-.622.332-.932.208-.62.389-1.243.553-1.864l.016-.016c.006-.011.054-.114.3-.269.127-.08.31-.159.537-.221h.016c.235-.063.518-.111.885-.111z" fill="#e4e630"/><path d="M513.718 299.612c-.385 5.64-2.128 12.33-6.21 16.648-1.502 1.249-3.421 2.383-5.277 2.107 6.328-5.15 10.174-13.036 11.487-18.755z" fill="#c6cb24"/><path d="M508.63 309.313c-.936 2.544-4.475 6.306-8.263 9.389-1.075.033-1.645.094-2.621.035 2.306-.211 7.685-4.751 10.884-9.425z" fill="#9ecb34"/><rect width="1.788" height=".128" x="424.783" y="343.536" ry=".009" fill="#fff"/><path d="M502.139 298.686c2.556 9.885 11.02 19.94 21.108 19.94h7.56v10.065h-61.53v-10.065h7.544c10.088 0 18.566-10.055 21.124-19.94 0 0 .499-.809 2.097-.809 1.597 0 2.096.809 2.096.809z" fill="url(#h)"/><path d="M500.043 298.269c.733 0 1.173.184 1.438.348.251.155.31.242.316.253l.016.016c1.31 4.975 4.064 9.972 7.79 13.746 3.754 3.804 8.493 6.383 13.667 6.383h7.142v9.275h-60.737v-9.275h7.173c5.174 0 9.901-2.58 13.652-6.383 3.722-3.775 6.481-8.771 7.79-13.746l.016-.016c.006-.011.054-.114.3-.269.26-.163.705-.332 1.438-.332z" fill="#97c924"/><path d="M500.036 298.269l.379.032c.022 2.821 0 7.58 0 10.096-.027 2.187-.777 3.947-1.88 6.02-.512 1.453-.922.9-2.196 2.67-1.712.612-2.978.85-4.803 1.138-2.353.371-7.591.701-10.175.126 3.403-.998 6.506-3.056 9.133-5.72.698-.708 1.364-1.458 1.991-2.244 1.045-1.309 1.988-2.723 2.812-4.187.33-.586.641-1.168.932-1.77.436-.903.825-1.823 1.169-2.749.115-.309.228-.622.332-.932.208-.62.389-1.243.553-1.864l.016-.016c.006-.011.054-.114.3-.269.127-.08.31-.159.537-.221h.016c.235-.063.518-.111.885-.111z" fill="#eaed29"/><path d="M499.388 299.612c-.385 5.64-2.128 12.33-6.21 16.648-1.502 1.249-3.421 2.383-5.277 2.107 6.328-5.15 10.174-13.036 11.487-18.755z" fill="#c6cb24"/><path d="M494.3 309.313c-.936 2.544-4.475 6.306-8.263 9.389-1.075.033-1.645.094-2.621.035 2.306-.211 7.685-4.751 10.884-9.425z" fill="#9ecb34"/><path d="M487.904 298.686c2.556 9.885 11.02 19.94 21.108 19.94h7.56v10.065h-61.53v-10.065h7.544c10.088 0 18.566-10.055 21.124-19.94 0 0 .499-.809 2.097-.809 1.597 0 2.096.809 2.096.809z" fill="url(#i)"/><path d="M485.713 298.269c-.733 0-1.173.184-1.438.348-.251.155-.31.242-.316.253l-.016.016c-1.31 4.975-4.064 9.972-7.79 13.746-3.754 3.804-8.493 6.384-13.667 6.384h-7.142v9.275h60.737l.19-9.275h-7.173c-5.174 0-10.091-2.58-13.841-6.383-3.722-3.775-6.481-8.771-7.79-13.746l-.016-.016c-.006-.011-.054-.114-.3-.269-.26-.163-.705-.332-1.438-.332z" fill="#97c924"/><path d="M484.592 299.612c-.577 8.453-5.284 19.118-10.6 20.956-1.733.599-4.765.808-5.821.943 9.3-4.423 14.795-14.819 16.42-21.899z" fill="#93bc30"/><path d="M471.389 297.874c-1.597 0-2.101.806-2.101.806-2.358 9.11-9.747 18.355-18.787 19.75l-5.783 10.254h57.434v-10.065h-7.568c-10.088 0-18.553-10.055-21.109-19.94 0 0-.488-.806-2.086-.806z" fill="url(#j)"/><path d="M471.389 298.269c-.733 0-1.173.184-1.438.348-.251.155-.31.242-.316.253l-.016.016c-1.31 4.975-4.064 9.972-7.79 13.746-3.242 3.284-7.225 5.655-11.582 6.241l-5.309 9.417h56.818v-9.275h-7.173c-5.174 0-9.901-2.58-13.652-6.383-3.722-3.775-6.481-8.771-7.79-13.746l-.016-.016c-.006-.011-.054-.114-.3-.269-.26-.163-.705-.332-1.438-.332z" fill="#97c924"/><path d="M470.268 299.612c-.577 8.453-5.284 19.118-10.6 20.956-1.733.599-4.765.808-5.821.943 9.3-4.423 14.795-14.819 16.42-21.899z" fill="#93bc30"/><path d="M471.389 298.269l-.379.032c-.022 2.821 0 7.58 0 10.096.027 2.187.777 3.947 1.88 6.02.064.182.127.331.19.458.383 1.015.667 1.368 2.133 2.481 4.661 3.539 10.44 4.068 13.841 3.776-1.065-.839-2.204-1.603-3.207-2.307 1.599-.052 3.132-.232 4.219-.474-3.403-.998-6.506-3.056-9.133-5.72-.458-.464-.883-.955-1.311-1.454-.195-.273-.468-.652-.553-.758-1.045-1.309-2.115-2.754-2.939-4.219-.33-.586-.641-1.168-.932-1.77-.436-.903-.825-1.823-1.169-2.749-.115-.309-.228-.622-.332-.932-.208-.62-.389-1.243-.553-1.864l-.016-.016c-.006-.011-.054-.114-.3-.269-.127-.08-.31-.159-.537-.221h-.016c-.235-.063-.518-.111-.885-.111z" fill="#dddf37"/><path d="M472.043 299.612c.385 5.64 2.128 12.33 6.21 16.648 1.502 1.249 3.421 2.383 5.277 2.107-6.328-5.15-10.174-13.036-11.487-18.755z" fill="#c6cb24"/><path d="M475.938 307.412c2.214 5.456 7.823 10.552 13.594 13.977 1.075.033 1.394.003 2.37-.056-4.13-2.216-10.785-5.378-15.964-13.922z" fill="#9ecb34"/><path d="M501.163 299.612c.577 8.453 6.093 19.118 11.409 20.956 1.733.599 5.612.808 6.668.943-9.299-4.423-16.451-14.818-18.076-21.899zm14.33 0c.577 8.453 6.093 19.118 11.409 20.956 1.733.599 5.612.808 6.668.943-9.3-4.423-16.451-14.818-18.077-21.899zm14.33 0c.577 8.453 6.093 19.118 11.409 20.956 1.733.599 5.612.808 6.668.943-9.3-4.423-16.451-14.818-18.077-21.899z" fill="#93bc30"/><path d="M497.819 282.606c-.493.012-1.187.656-1.609.388-.419-.265-.282-.898-.236-1.349.104-1.023 1.065-1.712 1.934-2.171 1.478-.78 3.468-.124 4.267 1.341.528.968.881 2.015 1.403 2.982.229.424.184.933.349 1.359.148.382.438 1.618-.022 1.565-1.581-.182-3.805-1.172-5.379-.807-.529.123-1.14.504-1.64.178-.388-.253-.064-.814.226-1.057.507-.425 1.243-1.028 1.143-1.681-.056-.365-.066-.758-.435-.749z" fill="#f00"/><path d="M500.939 279.562c-.033.182-.059.42-.041.488.072.277.139.568.224.814.095.275.138.468.204.753.067.294.328.409.57.59.306.229.074.85.265.875.152.02.405-.874.407-1.018 0-.216 0-.381-.041-.59-.108-.225-.218-.436-.346-.651-.275-.535-.723-.973-1.242-1.262zm-2.223 1.815c-.418.553-.971.408-1.096.432-.897.364-.769.834-1.22 1.254.127.047.491.072 1.221-.285.319-.156.409.637.039.699-.835.14-1.896 2.753-1.5 4.202.395 1.449 3.586 1.408 4.916 1.359 1.33-.049 3.773-.794 2.407-1.579-1.135-.383-2.624.63-3.684.814-1.116-.612-1.511-2.253-1.221-3.44.446-1.056-.029-2.917.138-3.456z" fill="#a00"/><path d="M498.772 287.722c-.568-.44-1.388-.181-1.99.151-.381.21-.766-.229-.731-.665.032-.402-.031-.92.464-1.082.972-.319 1.962-.643 2.997-.578.675.043 1.348-.096 2.027-.031.606.057 1.214.12 1.781.367.365.159.84.31.884.771.038.401-.021.812-.158 1.182-.144.39-.611.139-.914.12-.553-.036-.835.575-.909 1.018-.196 1.175-.461 1.811-.673 2.76-.164.735-.44 1.464-1.097 1.288-.522-.14-.843-1.363-.864-1.827-.023-.504.31-1.666.137-2.135-.521-1.409-.681-1.127-.955-1.338z" fill="#ff2a2a"/><path style="text-indent:0;text-align:start;line-height:normal;text-transform:none;block-progression:tb;-inkscape-font-specification:Sans" d="M454.767 323.992c-2.819 0-5.268.62-7.869.822l-5.135 9.101-.743 1.311h1.517c38.35 0 76.711.011 115.058 0h1.517l-.743-1.327-5.151-9.117c-2.487-.224-4.846-.79-7.553-.79l-.727.016-.521-.016h-.648l-.49.016-.727-.016c-3.367 0-6.215.884-9.417.885-3.209 0-6.047-.885-9.417-.885l-.727.016-.49-.016h-.664l-.506.016-.727-.016c-3.367 0-6.212.885-9.417.885s-6.05-.885-9.417-.885l-.743.016-.49-.016h-.664l-.49.016-.743-.016c-3.367 0-6.199.885-9.401.885-3.205 0-6.035-.885-9.401-.885l-.727.016-.521-.016h-.648l-.49.016-.727-.016c-3.37 0-6.208.885-9.417.885-3.205 0-6.05-.885-9.417-.885l-.727.016-.49-.016h-.68l-.506.016-.727-.016z" color="#000" fill="#fff" overflow="visible" enable-background="accumulate" font-family="Sans"/><path style="text-indent:0;text-align:start;line-height:normal;text-transform:none;block-progression:tb;-inkscape-font-specification:Sans" d="M454.261 323.486c-2.517 0-4.733.479-7.031.727l-.363.664h.284c3.187 0 5.881-.8 8.88-.885 3 .085 5.721.885 8.911.885l.648-.016h.079l.284.016h2.102l.284-.016h.079l.648.016c3.187 0 5.911-.8 8.911-.885 3.002.085 5.74.885 8.927.885l.648-.016h.079l.284.016h2.102l.284-.016h.079l.648.016c3.187 0 5.899-.8 8.896-.885 2.999.085 5.709.885 8.896.885l.648-.016h.095l.269.016h2.118l.269-.016h.095l.648.016c3.187 0 5.91-.8 8.911-.885 3.003.084 5.722.885 8.911.885l.648-.016h.079l.284.016h2.102l.284-.016h.079l.648.016c3.187 0 5.899-.8 8.896-.885 2.999.085 5.724.885 8.911.885l.553-.016-.379-.679c-2.182-.256-4.319-.695-6.715-.695l-.553.016-.458-.016h-2.118l-.458.016-.553-.016c-3.187 0-5.898.784-8.896.869-3.002-.085-5.721-.869-8.911-.869l-.553.016-.458-.016h-2.102l-.474.016-.537-.016c-3.187 0-5.912.784-8.911.869-3-.085-5.724-.869-8.911-.869l-.553.016-.458-.016h-2.118l-.458.016-.553-.016c-3.187 0-5.9.784-8.896.869-3-.085-5.708-.869-8.896-.869l-.553.016-.458-.016h-2.102l-.474.016-.537-.016c-3.19 0-5.909.784-8.911.869-3-.085-5.724-.869-8.911-.869l-.553.016-.458-.016h-2.118l-.474.016-.537-.016zm0 1.185c-2.777 0-5.184.596-7.742.806l-.332.585.237-.016h.079l.648.016c3.187 0 5.881-.8 8.88-.885 3 .085 5.721.885 8.911.885l.648-.016h.079l.284.016h2.102l.284-.016h.079l.648.016c3.187 0 5.911-.8 8.911-.885 3.002.085 5.74.885 8.927.885l.648-.016h.079l.284.016h2.102l.284-.016h.079l.648.016c3.187 0 5.899-.8 8.896-.885 2.999.085 5.709.885 8.896.885l.648-.016h.095l.269.016h2.118l.269-.016h.095l.648.016c3.187 0 5.91-.8 8.911-.885 3.003.084 5.722.885 8.911.885l.648-.016h.079l.284.016h2.102l.284-.016h.079l.648.016c3.187 0 5.899-.8 8.896-.885 2.999.085 5.724.885 8.911.885l.648-.016h.095l.269.016h.221l-.348-.616c-2.437-.231-4.77-.774-7.426-.774l-.553.016-.458-.016h-2.118l-.458.016-.553-.016c-3.187 0-5.898.784-8.896.869-3.002-.085-5.721-.869-8.911-.869l-.553.016-.458-.016h-2.102l-.474.016-.537-.016c-3.187 0-5.912.784-8.911.869-3-.085-5.724-.869-8.911-.869l-.553.016-.458-.016h-2.118l-.458.016-.553-.016c-3.187 0-5.9.784-8.896.869-3-.085-5.708-.869-8.896-.869l-.553.016-.458-.016h-2.102l-.474.016-.537-.016c-3.19 0-5.909.784-8.911.869-3-.085-5.724-.869-8.911-.869l-.553.016-.458-.016h-2.118l-.474.016-.537-.016zm0 1.185c-3.019 0-5.61.691-8.422.837l-.316.553h.616l.284-.016h.079l.648.016c3.187 0 5.882-.784 8.88-.869 3 .085 5.721.869 8.911.869l.648-.016h.079l.284.016h2.102l.284-.016h.079l.648.016c3.187 0 5.912-.784 8.911-.869 3.002.085 5.74.869 8.927.869l.648-.016h.079l.284.016h2.102l.284-.016h.079l.648.016c3.187 0 5.899-.784 8.896-.869 2.999.085 5.709.869 8.896.869l.648-.016h.095l.269.016h2.118l.269-.016h.095l.648.016c3.187 0 5.91-.784 8.911-.869 3.002.084 5.722.869 8.911.869l.648-.016h.079l.284.016h2.102l.284-.016h.079l.648.016c3.187 0 5.899-.784 8.896-.869 2.999.085 5.725.869 8.911.869l.648-.016h.095l.269.016h.885l-.316-.569c-2.696-.179-5.213-.822-8.121-.822l-.553.016-.458-.016h-2.118l-.458.016-.553-.016c-3.187 0-5.898.784-8.896.869-3.002-.085-5.721-.869-8.911-.869l-.553.016-.458-.016h-2.102l-.474.016-.537-.016c-3.187 0-5.912.784-8.911.869-3-.085-5.724-.869-8.911-.869l-.553.016-.458-.016h-2.118l-.458.016-.553-.016c-3.187 0-5.9.784-8.896.869-3-.085-5.708-.869-8.896-.869l-.553.016-.458-.016h-2.102l-.474.016-.537-.016c-3.19 0-5.909.784-8.911.869-3-.085-5.724-.869-8.911-.869l-.553.016-.458-.016h-2.118l-.474.016-.537-.016zm0 1.185c-3.187 0-5.9.784-8.896.869l-.205-.016-.3.537h1.281l.284-.016h.079l.648.016c3.187 0 5.882-.784 8.88-.869 3 .085 5.721.869 8.911.869l.648-.016h.079l.284.016h2.102l.284-.016h.079l.648.016c3.187 0 5.912-.784 8.911-.869 3.002.085 5.74.869 8.927.869l.648-.016h.079l.284.016h2.102l.284-.016h.079l.648.016c3.187 0 5.899-.784 8.896-.869 2.999.085 5.709.869 8.896.869l.648-.016h.095l.269.016h2.118l.269-.016h.095l.648.016c3.187 0 5.91-.784 8.911-.869 3.002.084 5.722.869 8.911.869l.648-.016h.079l.284.016h2.102l.284-.016h.079l.648.016c3.187 0 5.899-.784 8.896-.869 2.999.085 5.725.869 8.911.869l.648-.016h.095l.269.016h1.565l-.3-.521c-2.968-.096-5.658-.869-8.817-.869l-.553.016-.458-.016h-2.118l-.458.016-.553-.016c-3.22 0-5.955.798-8.99.869-2.965-.099-5.66-.869-8.817-.869l-.553.016-.458-.016h-2.102l-.474.016-.537-.016c-3.187 0-5.912.784-8.911.869-3-.085-5.724-.869-8.911-.869l-.553.016-.458-.016h-2.118l-.458.016-.553-.016c-3.187 0-5.9.784-8.896.869-3-.085-5.708-.869-8.896-.869l-.553.016-.458-.016h-2.102l-.474.016-.537-.016c-3.156 0-5.852.77-8.817.869-3.038-.071-5.785-.869-9.006-.869l-.553.016-.458-.016h-2.118l-.474.016-.537-.016zm0 1.185c-3.187 0-5.9.784-8.896.869-.289-.008-.568-.028-.853-.047l-.332.569h1.96l.284-.016h.079l.648.016c3.187 0 5.882-.784 8.88-.869 3 .085 5.721.869 8.911.869l.648-.016h.079l.284.016h2.102l.284-.016h.079l.648.016c3.187 0 5.912-.784 8.911-.869 3.002.085 5.74.869 8.927.869l.648-.016h.079l.284.016h2.102l.284-.016h.079l.648.016c3.187 0 5.899-.784 8.896-.869 2.999.085 5.709.869 8.896.869l.648-.016h.095l.269.016h2.118l.269-.016h.095l.648.016c3.187 0 5.91-.784 8.911-.869 3.002.084 5.722.869 8.911.869l.648-.016h.079l.284.016h2.102l.284-.016h.079l.648.016c3.187 0 5.899-.784 8.896-.869 2.999.085 5.725.869 8.911.869l.648-.016h.095l.269.016h2.228l-.316-.553-.569.032c-3-.085-5.708-.869-8.896-.869l-.553.016-.458-.016h-2.118l-.458.016-.553-.016c-3.187 0-5.898.784-8.896.869-3.002-.085-5.721-.869-8.911-.869l-.553.016-.458-.016h-2.102l-.474.016-.537-.016c-3.187 0-5.912.784-8.911.869-3-.085-5.724-.869-8.911-.869l-.553.016-.458-.016h-2.118l-.458.016-.553-.016c-3.187 0-5.9.784-8.896.869-3-.085-5.709-.869-8.896-.869l-.553.016-.458-.016h-2.102l-.474.016-.537-.016c-3.19 0-5.909.784-8.911.869-3-.085-5.724-.869-8.911-.869l-.553.016-.458-.016h-2.118l-.474.016-.537-.016zm0 1.185c-3.187 0-5.9.784-8.896.869-.511-.015-1.003-.047-1.501-.095l-.332.6h.221l.284.016h2.102l.284-.016h.079l.648.016c3.187 0 5.882-.784 8.88-.869 3 .085 5.721.869 8.911.869l.648-.016h.079l.284.016h2.102l.284-.016h.079l.648.016c3.187 0 5.912-.784 8.911-.869 3.002.085 5.74.869 8.927.869l.648-.016h.079l.284.016h2.102l.284-.016h.079l.648.016c3.187 0 5.899-.784 8.896-.869 2.999.085 5.709.869 8.896.869l.648-.016h.095l.269.016h2.118l.269-.016h.095l.648.016c3.187 0 5.91-.784 8.911-.869 3.002.084 5.722.869 8.911.869l.648-.016h.079l.284.016h2.102l.284-.016h.079l.648.016c3.187 0 5.899-.784 8.896-.869 2.999.085 5.725.869 8.911.869l.648-.016h.095l.269.016h2.102l.284-.016h.079l.427.016-.332-.6c-.399.034-.809.067-1.217.079-3-.085-5.708-.869-8.896-.869l-.553.016-.458-.016h-2.118l-.458.016-.553-.016c-3.187 0-5.898.784-8.896.869-3.002-.085-5.721-.869-8.911-.869l-.553.016-.458-.016h-2.102l-.474.016-.537-.016c-3.187 0-5.912.784-8.911.869-3-.085-5.724-.869-8.911-.869l-.553.016-.458-.016h-2.118l-.458.016-.553-.016c-3.187 0-5.9.784-8.896.869-3-.085-5.709-.869-8.896-.869l-.553.016-.458-.016h-2.102l-.474.016-.537-.016c-3.19 0-5.909.784-8.911.869-3-.085-5.724-.869-8.911-.869l-.553.016-.458-.016h-2.118l-.474.016-.537-.016zm0 1.185c-3.187 0-5.9.784-8.896.869-.728-.021-1.427-.092-2.133-.174l-.379.695h.174l.648-.016h.079l.284.016h2.102l.284-.016h.079l.648.016c3.187 0 5.882-.784 8.88-.869 3 .085 5.721.869 8.911.869l.648-.016h.079l.284.016h2.102l.284-.016h.079l.648.016c3.187 0 5.912-.784 8.911-.869 3.002.085 5.74.869 8.927.869l.648-.016h.079l.284.016h2.102l.284-.016h.079l.648.016c3.187 0 5.899-.784 8.896-.869 2.999.085 5.709.869 8.896.869l.648-.016h.095l.269.016h2.118l.269-.016h.095l.648.016c3.187 0 5.91-.784 8.911-.869 3.002.084 5.722.869 8.911.869l.648-.016h.079l.284.016h2.102l.284-.016h.079l.648.016c3.187 0 5.899-.784 8.896-.869 2.999.085 5.725.869 8.911.869l.648-.016h.095l.269.016h2.102l.284-.016h.079l.648.016.442-.016-.363-.648c-.608.065-1.224.124-1.849.142-3-.085-5.708-.869-8.896-.869l-.553.016-.458-.016h-2.118l-.458.016-.553-.016c-3.187 0-5.898.784-8.896.869-3.002-.085-5.721-.869-8.911-.869l-.553.016-.458-.016h-2.102l-.474.016-.537-.016c-3.187 0-5.912.784-8.911.869-3-.085-5.724-.869-8.911-.869l-.553.016-.458-.016h-2.118l-.458.016-.553-.016c-3.187 0-5.9.784-8.896.869-3-.085-5.709-.869-8.896-.869l-.553.016-.458-.016h-2.102l-.474.016-.537-.016c-3.19 0-5.909.784-8.911.869-3-.085-5.724-.869-8.911-.869l-.553.016-.458-.016h-2.118l-.474.016-.537-.016zm0 1.185c-3.187 0-5.9.784-8.896.869-.94-.027-1.84-.134-2.749-.253l-.427.758c.277.011.551.016.837.016l.648-.016h.079l.284.016h2.102l.284-.016h.079l.648.016c3.187 0 5.882-.784 8.88-.869 3 .085 5.721.869 8.911.869l.648-.016h.079l.284.016h2.102l.284-.016h.079l.648.016c3.187 0 5.912-.784 8.911-.869 3.002.085 5.74.869 8.927.869l.648-.016h.079l.284.016h2.102l.284-.016h.079l.648.016c3.187 0 5.899-.784 8.896-.869 2.999.085 5.709.869 8.896.869l.648-.016h.095l.269.016h2.118l.269-.016h.095l.648.016c3.187 0 5.91-.784 8.911-.869 3.002.084 5.722.869 8.911.869l.648-.016h.079l.284.016h2.102l.284-.016h.079l.648.016c3.187 0 5.899-.784 8.896-.869 2.999.085 5.725.869 8.911.869l.648-.016h.095l.269.016h2.102l.284-.016h.079l.648.016c.372 0 .744-.013 1.106-.032l-.395-.695c-.815.101-1.639.182-2.481.205-3-.085-5.708-.869-8.896-.869l-.553.016-.458-.016h-2.118l-.458.016-.553-.016c-3.187 0-5.898.784-8.896.869-3.002-.085-5.721-.869-8.911-.869l-.553.016-.458-.016h-2.102l-.474.016-.537-.016c-3.187 0-5.912.784-8.911.869-3-.085-5.724-.869-8.911-.869l-.553.016-.458-.016h-2.118l-.458.016-.553-.016c-3.187 0-5.9.784-8.896.869-3-.085-5.709-.869-8.896-.869l-.553.016-.458-.016h-2.102l-.474.016-.537-.016c-3.19 0-5.909.784-8.911.869-3-.085-5.724-.869-8.911-.869l-.553.016-.458-.016h-2.118l-.474.016-.537-.016zm0 1.185c-3.187 0-5.9.784-8.896.869-1.152-.033-2.253-.177-3.365-.332l-.237.411-.221.379c.484.033.973.063 1.485.063l.648-.016h.079l.284.016h2.102l.284-.016h.079l.648.016c3.187 0 5.882-.784 8.88-.869 3 .085 5.721.869 8.911.869l.648-.016h.079l.284.016h2.102l.284-.016h.079l.648.016c3.187 0 5.912-.784 8.911-.869 3.002.085 5.74.869 8.927.869l.648-.016h.079l.284.016h2.102l.284-.016h.079l.648.016c3.187 0 5.899-.784 8.896-.869 2.999.085 5.709.869 8.896.869l.648-.016h.095l.269.016h2.118l.269-.016h.095l.648.016c3.187 0 5.91-.784 8.911-.869 3.002.084 5.722.869 8.911.869l.648-.016h.079l.284.016h2.102l.284-.016h.079l.648.016c3.187 0 5.899-.784 8.896-.869 2.999.085 5.725.869 8.911.869l.648-.016h.095l.269.016h2.102l.284-.016h.079l.648.016c.598 0 1.181-.035 1.754-.079l-.221-.379-.205-.363c-1.018.138-2.042.27-3.097.3-3-.085-5.708-.869-8.896-.869l-.553.016-.458-.016h-2.118l-.458.016-.553-.016c-3.187 0-5.898.784-8.896.869-3.002-.085-5.721-.869-8.911-.869l-.553.016-.458-.016h-2.102l-.474.016-.537-.016c-3.187 0-5.912.784-8.911.869-3-.085-5.724-.869-8.911-.869l-.553.016-.458-.016h-2.118l-.458.016-.553-.016c-3.187 0-5.9.784-8.896.869-3-.085-5.709-.869-8.896-.869l-.553.016-.458-.016h-2.102l-.474.016-.537-.016c-3.19 0-5.909.784-8.911.869-3-.085-5.724-.869-8.911-.869l-.553.016-.458-.016h-2.118l-.474.016-.537-.016z" color="#000" fill="url(#k)" overflow="visible" enable-background="accumulate" font-family="Sans"/><g fill="#e5bc1a" stroke="#c8a400" stroke-width=".3" font-size="37" font-weight="bold" word-spacing="0" font-family="Swis721 BT"><path style="-inkscape-font-specification:Swis721 BT Bold" d="M416.392 311.931l-.338-3.237c-.073-.703-.27-1.205-.588-1.505-.319-.301-.784-.419-1.395-.355-.581.061-1.004.268-1.27.62-.266.353-.366.847-.299 1.484l.352 3.364zm7.81 1.966l-13.366 1.402-.678-6.492c-.153-1.461.046-2.575.595-3.344.55-.768 1.466-1.22 2.748-1.355.817-.086 1.515.014 2.095.3.58.285 1.004.739 1.271 1.36.145-.603.416-1.05.814-1.34.398-.29 1.042-.5 1.934-.63l1.573-.22.054-.006c.797-.102 1.263-.325 1.398-.671l.408-.043.315 3.019c-.177.117-.401.215-.671.296-.27.08-.595.147-.975.199l-1.403.184c-.826.117-1.369.332-1.63.644-.261.312-.353.835-.276 1.569l.305 2.919 5.2-.545zm-1.116-13.853l-13.408-.923.669-9.75 2.33.16-.482 7.023 2.858.197.44-6.421 2.294.158-.44 6.421 3.45.238.504-7.351 2.476.171zm-5.221-17.094l.63-2.603c.171-.705.145-1.253-.076-1.646-.221-.392-.663-.669-1.325-.83-.621-.151-1.129-.108-1.524.128s-.668.665-.819 1.287l-.665 2.745zm2.363.593l4.646 1.129-.652 2.692-13.061-3.175 1.409-5.819c.333-1.374.941-2.328 1.824-2.863.884-.535 2.014-.635 3.391-.3 1.348.328 2.303.927 2.865 1.797.562.87.688 1.948.377 3.233zm-5.06-14.146l1.126-2.56 7.715 3.406c.952.42 1.73.537 2.333.351.604-.186 1.087-.692 1.45-1.518.368-.837.419-1.542.152-2.115-.266-.574-.878-1.072-1.835-1.495l-7.715-3.406 1.115-2.535 7.99 3.527c1.508.666 2.48 1.6 2.916 2.801.436 1.201.304 2.597-.395 4.186-.704 1.601-1.645 2.649-2.823 3.144-1.178.495-2.524.409-4.039-.259zm-.865-9.233l1.938 3.982-.522 1.188-2.365-3.012zm18.595-1.584l1.837-2.717c.433-.641.633-1.186.599-1.636-.034-.45-.3-.844-.799-1.182-.519-.352-.99-.462-1.413-.33-.424.132-.859.529-1.306 1.19l-1.827 2.702zm-4.812-3.266l1.77-2.619c.382-.565.565-1.045.548-1.439-.016-.394-.234-.733-.652-1.016-.408-.277-.79-.35-1.146-.22-.356.13-.734.49-1.133 1.081l-1.76 2.604zm5.338 6.824l-11.127-7.551 3.551-5.253c.771-1.14 1.599-1.846 2.484-2.118.885-.272 1.786-.096 2.703.526.564.383.96.813 1.188 1.292.228.478.295 1.01.201 1.594.621-.418 1.245-.622 1.873-.611.628.011 1.267.236 1.917.677 1.083.735 1.68 1.655 1.792 2.762.112 1.106-.271 2.308-1.147 3.605zm7.97-11.143l-9.756-9.261 1.901-2.011 7.955 7.551 4.512-4.772 1.802 1.71zm8.108-8.073l-8.634-10.32 2.119-1.78 8.634 10.32zm12.123-14.17c.726 1.35.875 2.693.447 4.029-.428 1.337-1.373 2.466-2.835 3.389-1.683 1.062-3.322 1.362-4.918.9-1.595-.462-2.99-1.642-4.183-3.54-1.219-1.939-1.677-3.724-1.373-5.357.304-1.632 1.348-3.012 3.134-4.139 1.451-.916 2.821-1.285 4.108-1.107 1.287.178 2.379.888 3.275 2.13l-2.308 1.457c-.503-.583-1.074-.908-1.714-.976-.64-.068-1.322.127-2.048.585-1.029.65-1.602 1.476-1.719 2.479-.117 1.003.227 2.144 1.031 3.423.778 1.238 1.646 2.026 2.603 2.365.957.339 1.928.199 2.911-.422.71-.448 1.177-.997 1.402-1.647.224-.649.189-1.357-.105-2.122zm5.613-9.101l.39 6.015 3.466-1.385zm-2.488-1.909l2.966-1.185 9.477 10.711-2.695 1.077-1.871-2.235-4.839 1.933.202 2.901-2.704 1.08zm22.383 4.98l2.2-.274c1.274-.159 2.154-.608 2.642-1.347.487-.739.638-1.859.452-3.359-.185-1.494-.587-2.559-1.205-3.194-.618-.635-1.492-.883-2.62-.742l-2.535.316zm-2.39 2.748l-1.658-13.363 5.224-.651c2.046-.255 3.641.109 4.783 1.09 1.142.982 1.853 2.597 2.132 4.847.152 1.222.1 2.321-.156 3.299-.256.978-.701 1.795-1.337 2.451-.479.49-1.045.869-1.698 1.137-.653.269-1.589.479-2.809.631zm14.02-1.401l.677-13.449 9.741.493-.118 2.337-7.016-.355-.144 2.867 6.415.324-.116 2.301-6.415-.324-.174 3.46 7.344.371-.125 2.483zm18.422 1.992l4.046-12.841 2.758.872 2.423 10.468 2.78-8.822 2.601.823-4.046 12.841-2.723-.861-2.458-10.479-2.78 8.822zm13.621 4.846l5.74-12.176 2.5 1.183-5.74 12.176zm17.919 5.096c-.919 1.226-2.073 1.925-3.464 2.095-1.391.17-2.81-.216-4.259-1.159-1.668-1.086-2.627-2.451-2.876-4.097-.25-1.645.235-3.408 1.455-5.289 1.246-1.922 2.672-3.086 4.279-3.494 1.606-.408 3.294-.036 5.064 1.117 1.438.936 2.347 2.027 2.725 3.273.378 1.246.192 2.536-.558 3.872l-2.288-1.489c.317-.702.373-1.358.167-1.968-.206-.61-.669-1.15-1.388-1.618-1.02-.664-2.009-.839-2.967-.525-.958.314-1.848 1.105-2.67 2.372-.795 1.227-1.146 2.346-1.052 3.36.094 1.013.628 1.837 1.602 2.471.704.458 1.397.653 2.08.585.682-.068 1.309-.396 1.879-.984zm10.59 1.267l-5.281 2.886 2.713 2.567zm.681-3.065l2.321 2.197-5.706 13.123-2.109-1.996 1.235-2.641-3.787-3.584-2.542 1.405-2.116-2.002zm5.536 14.542l1.93 2.618c.419.569.842.901 1.269.998.427.097.887-.037 1.382-.403.47-.348.73-.741.78-1.18.051-.439-.114-.916-.493-1.431l-2.006-2.721zm-7.726 2.275l10.809-8.001 3.871 5.25c.871 1.181 1.264 2.243 1.18 3.185-.085.942-.646 1.796-1.683 2.564-.66.489-1.313.758-1.957.807-.645.049-1.239-.127-1.784-.527.181.594.173 1.117-.023 1.569-.196.452-.645.961-1.348 1.526l-1.244.989-.044.033c-.635.493-.923.922-.865 1.288l-.33.244-1.8-2.441c.094-.191.237-.389.429-.596.192-.206.438-.429.739-.667l1.116-.871c.652-.521 1.012-.982 1.078-1.384.067-.402-.119-.899-.556-1.492l-1.74-2.36-4.205 3.113zm19.837 11.106l-5.955.858 1.648 3.355zm1.706-2.635l1.41 2.871-9.918 10.302-1.281-2.608 2.077-2.043-2.301-4.683-2.871.428-1.285-2.616zm-3.76 23.899c-.784-.301-1.413-.716-1.888-1.245-.475-.529-.827-1.208-1.056-2.036-.502-1.815-.281-3.459.665-4.933.946-1.474 2.442-2.495 4.487-3.064 2.063-.573 3.868-.471 5.416.307 1.547.778 2.579 2.101 3.096 3.969.45 1.627.429 3.062-.063 4.306-.492 1.244-1.391 2.151-2.697 2.723l-.753-2.722c.629-.352 1.048-.83 1.259-1.436.211-.606.204-1.317-.022-2.133-.301-1.086-.934-1.829-1.9-2.228-.966-.399-2.149-.404-3.55-.014-1.407.391-2.419 1.02-3.038 1.888-.618.868-.771 1.865-.459 2.993.234.846.679 1.484 1.335 1.915.656.431 1.436.594 2.341.488l-.814-2.942 2.216-.616 1.487 5.374-7.007 1.947-.495-1.788zm12.972 4.513l.23 2.788-8.402.695c-1.037.086-1.776.355-2.218.807-.442.452-.626 1.128-.552 2.027.075.911.366 1.555.873 1.932s1.282.522 2.325.436l8.402-.695.227 2.761-8.702.719c-1.643.136-2.942-.22-3.896-1.068-.955-.848-1.503-2.137-1.646-3.868-.144-1.743.184-3.114.984-4.113.8-.999 2.024-1.566 3.673-1.703zm-2.368 21.118l-5.518-2.402-.355 3.722zm2.832-1.345l-.304 3.185-13.839 3.551.276-2.894 2.839-.646.496-5.196-2.668-1.146.277-2.903z" letter-spacing="0"/><path style="-inkscape-font-specification:Swis721 BT Bold" d="M417.534 324.575l2.376-.783 1.605 4.876-2.376.783zm13.843 14.605l-5.895 1.214 1.847 3.247zm1.545-2.73l1.58 2.779-9.287 10.871-1.436-2.524 1.952-2.163-2.578-4.533-2.842.599-1.44-2.532zm-6.062 16.072l10.3-8.649 2.628 3.135-6.12 8.632 9.534-4.56 2.64 3.149-10.3 8.649-1.666-1.987 8.307-6.975-10.061 4.883-1.819-2.169 6.529-9.096-8.307 6.975zm11.891 13.305l8.625-10.322 7.486 6.264-1.499 1.794-5.392-4.512-1.839 2.2 4.93 4.125-1.475 1.766-4.93-4.125-2.219 2.656 5.644 4.723-1.593 1.906zm17.346-8.955l-4.358.759-.994-.832 3.546-1.439zm-.382 12.445l2.791 1.665c.606.362 1.125.505 1.556.429.431-.076.804-.378 1.119-.906.299-.502.387-.965.265-1.39-.123-.424-.459-.8-1.007-1.127l-2.901-1.731zm-6.251 5.087l6.885-11.557 5.598 3.34c1.26.752 2.032 1.578 2.318 2.478.285.901.098 1.905-.563 3.014-.421.706-.919 1.206-1.495 1.501-.576.295-1.192.363-1.849.205.396.477.59.962.584 1.454-.006.492-.225 1.135-.654 1.928l-.766 1.393-.028.047c-.396.7-.496 1.207-.301 1.522l-.21.353-2.603-1.553c.013-.212.068-.45.166-.715.097-.265.239-.565.425-.9l.693-1.235c.401-.732.554-1.296.461-1.692-.093-.396-.456-.783-1.089-1.16l-2.517-1.502-2.678 4.496zm13.104 7.227l5.42-12.313 2.531 1.116-5.42 12.313zm19.101 1.787c-.534 1.436-1.445 2.432-2.731 2.99-1.286.558-2.757.59-4.414.098-1.907-.567-3.214-1.604-3.919-3.11-.705-1.506-.739-3.333-.101-5.481.652-2.195 1.691-3.716 3.117-4.562 1.426-.846 3.151-.969 5.175-.367 1.645.489 2.825 1.277 3.54 2.363.715 1.086.902 2.376.56 3.869l-2.616-.778c.106-.763-.026-1.407-.397-1.933s-.967-.912-1.79-1.156c-1.167-.347-2.165-.234-2.995.338-.83.573-1.46 1.583-1.89 3.03-.416 1.401-.436 2.574-.059 3.518s1.122 1.582 2.236 1.913c.805.239 1.525.23 2.161-.029.636-.259 1.144-.751 1.524-1.476zm8.648-4.961l-2.548 5.457 3.705.457zm-1.265-2.871l3.171.391 3.167 13.947-2.881-.355-.568-2.859-5.173-.637-1.217 2.639-2.89-.356zm27.171 8.234c.082 1.53-.355 2.807-1.313 3.832-.957 1.025-2.294 1.642-4.009 1.851-1.975.241-3.586-.188-4.833-1.288-1.247-1.099-2.005-2.761-2.276-4.986-.277-2.273.07-4.082 1.04-5.427.97-1.345 2.503-2.146 4.599-2.402 1.703-.208 3.1.044 4.188.754 1.089.711 1.774 1.819 2.056 3.324l-2.709.331c-.207-.742-.585-1.28-1.135-1.615-.55-.335-1.25-.45-2.102-.346-1.208.147-2.079.649-2.612 1.506-.533.856-.709 2.034-.526 3.533.177 1.451.626 2.534 1.348 3.25.722.716 1.659 1.003 2.813.862.834-.102 1.49-.398 1.97-.889s.749-1.145.809-1.962zm4.202 3.718l-3.75-12.921 9.37-2.724.652 2.246-6.75 1.962.799 2.754 6.171-1.794.642 2.211-6.171 1.794.965 3.325 7.065-2.054.693 2.386zm13.1-4.093l-5.773-12.152 2.613-1.243 8.896 6.003-3.966-8.349 2.465-1.173 5.773 12.152-2.58 1.228-8.929-5.987 3.966 8.349zm15.999-8.588l-6.245-9.117-3.29 2.257-1.357-1.982 8.839-6.063 1.357 1.982-3.268 2.241 6.245 9.117zm4.804-13.181l2.366-2.229c.514-.484.794-.944.839-1.38.045-.436-.142-.878-.564-1.326-.4-.426-.821-.638-1.263-.636-.441.002-.895.222-1.36.66l-2.459 2.317zm3.173 7.411l-9.216-9.798 4.746-4.47c1.068-1.006 2.074-1.523 3.017-1.55.944-.027 1.858.429 2.742 1.369.563.599.907 1.215 1.032 1.85s.022 1.247-.311 1.836c.567-.25 1.086-.304 1.558-.163.471.141 1.029.528 1.673 1.159l1.128 1.12.037.04c.564.573 1.024.809 1.38.707l.282.299-2.207 2.079c-.2-.071-.414-.189-.641-.355-.227-.166-.477-.385-.749-.656l-.996-1.006c-.594-.587-1.093-.889-1.5-.908-.406-.019-.877.224-1.414.729l-2.134 2.01 3.585 3.811zm5.074-20.992l3.416 4.959 2.268-2.968zm-3.115-.36l1.94-2.54 13.625 4.319-1.763 2.308-2.752-.955-3.166 4.144 1.659 2.385-1.769 2.315zm17.01-.756l-11.769-6.506 1.337-2.423 9.596 5.304 3.173-5.749 2.173 1.201zm4.355-17.744l-2.376-.78 1.599-4.878 2.376.78z" letter-spacing="3"/></g><path d="M486.153 298.483l-.38.032c-.022 2.823 0 7.586 0 10.104.027 2.189.777 3.95 1.882 6.025.064.182.127.331.19.459.384 1.016.668 1.369 2.135 2.483 4.665 3.542 10.448 4.072 13.852 3.779-1.066-.84-2.206-1.604-3.21-2.309 1.601-.052 3.135-.233 4.222-.474-3.405-.998-6.511-3.058-9.14-5.724-.458-.464-.884-.956-1.312-1.455-.195-.273-.468-.653-.553-.759-1.046-1.31-2.116-2.757-2.941-4.222-.33-.586-.642-1.168-.933-1.771-.437-.904-.826-1.825-1.17-2.751-.115-.309-.228-.623-.332-.933-.208-.621-.39-1.244-.553-1.866l-.016-.016c-.006-.011-.054-.114-.3-.269-.127-.08-.31-.159-.538-.221h-.016c-.236-.063-.519-.111-.885-.111z" fill="#e4e630"/><path d="M486.462 299.612c.385 5.64 2.128 12.33 6.21 16.648 1.502 1.249 3.421 2.383 5.277 2.107-6.328-5.15-10.174-13.036-11.487-18.755z" fill="#ccd11e"/><path d="M490.357 307.412c2.214 5.456 7.823 10.552 13.594 13.977 1.075.033 1.394.003 2.37-.056-4.13-2.216-10.785-5.378-15.964-13.922z" fill="#9ecb34"/><path style="text-indent:0;text-align:start;line-height:normal;text-transform:none;block-progression:tb;-inkscape-font-specification:Sans" d="M500.066 230.58l-.774 1.359-57.529 101.975-.743 1.311h1.517c38.35 0 76.711.011 115.058 0h1.517l-.743-1.327-57.529-101.96-.774-1.359zm0 3.602l56.012 99.274c-37.336.01-74.685 0-112.025 0l56.012-99.274z" color="#000" stroke="#c8a400" stroke-width=".253" overflow="visible" enable-background="accumulate" font-family="Sans" fill="none"/><path d="M500.066 232.381l57.526 101.958c-38.347.011-76.703.005-115.053.005z" stroke="#e5bc1a" stroke-width="1.77" fill="none"/></svg>