<svg xmlns="http://www.w3.org/2000/svg" xmlns:xlink="http://www.w3.org/1999/xlink" width="600" height="300" viewBox="0 0 120 60"><title>Flag of Niue</title><path fill="#fcd116" d="M0 0h120v60h-120z"/><svg width="60" height="30" viewBox="0 0 12 6"><path fill="#002868" d="M0 0h12v6h-12z"/><clipPath id="a"><path d="M6 3h6v3zv3h-6zh-6v-3zv-3h6z"/></clipPath><g stroke="#cf142b" stroke-width="1.2"><path d="M0 0l12 6m0-6l-12 6" stroke="#fff"/><path d="M0 0l12 6m0-6l-12 6" clip-path="url(#a)"/><path d="M6 0v6m-6-3h12" stroke="#fff" stroke-width="2"/><path d="M6 0v6m-6-3h12"/></g></svg><g transform="translate(30 15)" fill="#fcd116"><g transform="scale(5.104)"><circle r="1" fill="#002868"/><path id="b" d="M0-1l.588 1.809-1.539-1.118h1.902l-1.539 1.118z"/></g><use xlink:href="#b" transform="translate(-17.5 .29) scale(3)"/><use xlink:href="#b" transform="translate(17.5 .29) scale(3)"/><use xlink:href="#b" transform="translate(0 10.29) scale(3)"/><use xlink:href="#b" transform="translate(0 -9.71) scale(3)"/></g></svg>