<svg xmlns="http://www.w3.org/2000/svg" version="1" xmlns:xlink="http://www.w3.org/1999/xlink" width="960" height="480" viewBox="0 0 240 120"><title>Flag of New Zealand</title><path fill="#00247d" d="M0 0h240v120h-240z"/><svg width="120" height="60" viewBox="0 0 12 6"><clipPath id="a"><path d="M6 3h6v3zv3h-6zh-6v-3zv-3h6z"/></clipPath><g stroke="#cf142b" stroke-width="1.2"><path d="M0 0l12 6m0-6l-12 6" stroke="#fff"/><path d="M0 0l12 6m0-6l-12 6" clip-path="url(#a)"/><path d="M6 0v6m-6-3h12" stroke="#fff" stroke-width="2"/><path d="M6 0v6m-6-3h12"/></g></svg><path id="b" d="M0-.526l.309.951-.809-.588h1l-.809.588z"/><g transform="translate(180 24)"><use xlink:href="#b" fill="#fff" transform="scale(18.472)"/><use xlink:href="#b" fill="#cc142b" transform="scale(12)"/></g><g transform="translate(180 96)"><use xlink:href="#b" fill="#fff" transform="scale(20.472)"/><use xlink:href="#b" fill="#cc142b" transform="scale(14)"/></g><g transform="translate(208.695 19.142)"><use xlink:href="#b" fill="#fff" transform="scale(16.472)"/><use xlink:href="#b" fill="#cc142b" transform="scale(10)"/></g><g transform="translate(157.201 26.379)"><use xlink:href="#b" fill="#fff" transform="scale(18.472)"/><use xlink:href="#b" fill="#cc142b" transform="scale(12)"/></g></svg>