<svg xmlns="http://www.w3.org/2000/svg" xmlns:xlink="http://www.w3.org/1999/xlink" version="1" width="1000" height="600"><defs><linearGradient id="a"><stop offset="0"/><stop offset="1" stop-color="#fff"/></linearGradient><linearGradient xlink:href="#a"/></defs><path font-size="12" fill="#fff" fill-rule="evenodd" d="M0 0h1000v600h-1000z"/><path font-size="12" fill="#0038a8" fill-rule="evenodd" d="M0 400h1000v200h-1000z"/><path font-size="12" fill="#ce1126" fill-rule="evenodd" d="M0 0h1000v200h-1000z"/><path d="M563.5 250a63.5 63.5 0 1 1-127 0 63.5 63.5 0 1 1 127 0z" fill="#fff" fill-rule="evenodd" stroke="#000" stroke-width="2.5" transform="matrix(1.2 0 0 1.2 -99.999 0)"/><path d="M510.304 264.393s29.374 12.655 24.245 38.806c-5.129 26.151-21.483 25.976-27.895 28.866-6.413 2.89-10.836 7.026-13.367 6.448-2.53-.578-5.875-2.531-5.875-2.531s-.268 4.295 4.883 5.077 11.921-6.778 15.173-7.619c3.252-.841 23.218-3.008 28.075-29.617 5.67-28.403-25.058-38.596-25.239-39.43z" font-size="12" fill="#006700" fill-rule="evenodd" stroke="#000" stroke-width=".205"/><path d="M320.26 487.198a25.903 108.323 0 1 1-51.807 0 25.903 108.323 0 1 1 51.807 0z" transform="matrix(.037 -.002 .01 .036 508.706 253.319)" font-size="12" fill="#006700" fill-rule="evenodd" stroke="#000" stroke-width="2.553"/><path d="M320.26 487.198a25.903 108.323 0 1 1-51.807 0 25.903 108.323 0 1 1 51.807 0z" transform="matrix(.034 -.012 .017 .035 505.003 257.443)" font-size="12" fill="#006700" fill-rule="evenodd" stroke="#000" stroke-width="2.553"/><path d="M320.26 487.198a25.903 108.323 0 1 1-51.807 0 25.903 108.323 0 1 1 51.807 0z" transform="matrix(.004 -.038 .035 .01 503.091 279.499)" font-size="12" fill="#006700" fill-rule="evenodd" stroke="#000" stroke-width="2.553"/><path d="M320.26 487.198a25.903 108.323 0 1 1-51.807 0 25.903 108.323 0 1 1 51.807 0z" transform="matrix(.017 -.032 .031 .022 500.947 271.103)" font-size="12" fill="#006700" fill-rule="evenodd" stroke="#000" stroke-width="2.553"/><path d="M320.26 487.198a25.903 108.323 0 1 1-51.807 0 25.903 108.323 0 1 1 51.807 0z" transform="matrix(.025 -.025 .026 .028 501.835 265.061)" font-size="12" fill="#006700" fill-rule="evenodd" stroke="#000" stroke-width="2.553"/><path d="M524.909 274.278c.017.018-1.133.639-1.394.732-.26.093-.613-.347-1.362.038-.749.384-1.263 1.085-1.426 1.497-.163.411.212.584 1.117.144.905-.44 1.143-1.137 1.58-1.41.436-.273 1.168-.675 1.585-.823.18-.394.766-1.238 1.069-1.723.303-.485 1.491-1.284 1.924-2.215.378-.77.236-1.426-.27-1.152-.505.274-1.159 1.048-1.463 1.604-.304.556-.043 1.263-.381 1.784-.266.377-.91 1.525-.979 1.526z" font-size="12" fill="#006700" fill-rule="evenodd" stroke="#000" stroke-width=".054"/><path d="M320.26 487.198a25.903 108.323 0 1 1-51.807 0 25.903 108.323 0 1 1 51.807 0z" transform="matrix(.053 .013 .001 .055 516.752 246.104)" font-size="12" fill="#006700" fill-rule="evenodd" stroke="#000" stroke-width="2.553"/><path d="M320.26 487.198a25.903 108.323 0 1 1-51.807 0 25.903 108.323 0 1 1 51.807 0z" transform="matrix(.05 -.002 .012 .056 510.257 250.355)" font-size="12" fill="#006700" fill-rule="evenodd" stroke="#000" stroke-width="2.553"/><path d="M320.26 487.198a25.903 108.323 0 1 1-51.807 0 25.903 108.323 0 1 1 51.807 0z" transform="matrix(.018 -.053 .044 .03 500.306 281.084)" font-size="12" fill="#006700" fill-rule="evenodd" stroke="#000" stroke-width="2.553"/><path d="M320.26 487.198a25.903 108.323 0 1 1-51.807 0 25.903 108.323 0 1 1 51.807 0z" transform="matrix(.034 -.04 .037 .044 500.117 268.102)" font-size="12" fill="#006700" fill-rule="evenodd" stroke="#000" stroke-width="2.553"/><path d="M320.26 487.198a25.903 108.323 0 1 1-51.807 0 25.903 108.323 0 1 1 51.807 0z" transform="matrix(.042 -.025 .028 .052 503.347 259.844)" font-size="12" fill="#006700" fill-rule="evenodd" stroke="#000" stroke-width="2.553"/><path d="M532.25 283.371c.018.033-1.781.408-2.172.424-.391.016-.735-.771-1.899-.556-1.164.215-2.108.989-2.471 1.505-.363.516.1.931 1.5.706 1.399-.225 1.96-1.117 2.655-1.313.695-.196 1.842-.444 2.468-.47.38-.483 1.471-1.43 2.051-1.989.58-.558 2.49-1.172 3.398-2.312.778-.934.799-1.937.008-1.771-.791.166-1.952.983-2.557 1.642-.605.66-.478 1.79-1.118 2.385-.494.421-1.765 1.777-1.861 1.747z" font-size="12" fill="#006700" fill-rule="evenodd" stroke="#000" stroke-width=".078"/><path d="M320.26 487.198a25.903 108.323 0 1 1-51.807 0 25.903 108.323 0 1 1 51.807 0z" transform="matrix(.049 .023 -.01 .055 527.555 255.348)" font-size="12" fill="#006700" fill-rule="evenodd" stroke="#000" stroke-width="2.553"/><path d="M320.26 487.198a25.903 108.323 0 1 1-51.807 0 25.903 108.323 0 1 1 51.807 0z" transform="matrix(.05 .007 .001 .059 520.442 258.298)" font-size="12" fill="#006700" fill-rule="evenodd" stroke="#000" stroke-width="2.553"/><path d="M320.26 487.198a25.903 108.323 0 1 1-51.807 0 25.903 108.323 0 1 1 51.807 0z" transform="matrix(.026 -.049 .038 .038 505.171 286.736)" font-size="12" fill="#006700" fill-rule="evenodd" stroke="#000" stroke-width="2.553"/><path d="M320.26 487.198a25.903 108.323 0 1 1-51.807 0 25.903 108.323 0 1 1 51.807 0z" transform="matrix(.04 -.032 .028 .052 507.328 273.877)" font-size="12" fill="#006700" fill-rule="evenodd" stroke="#000" stroke-width="2.553"/><path d="M320.26 487.198a25.903 108.323 0 1 1-51.807 0 25.903 108.323 0 1 1 51.807 0z" transform="matrix(.046 -.017 .018 .056 511.975 266.344)" font-size="12" fill="#006700" fill-rule="evenodd" stroke="#000" stroke-width="2.553"/><path d="M535.981 295.131c.011.036-1.814.061-2.2.001-.385-.059-.579-.903-1.756-.914-1.177-.011-2.239.572-2.687 1.012-.448.44-.07.939 1.338.985 1.408.047 2.117-.726 2.832-.786.714-.06 1.88-.085 2.497.01.459-.404 1.696-1.13 2.364-1.57.667-.44 2.645-.679 3.738-1.631.929-.773 1.13-1.76.327-1.747-.803.012-2.085.596-2.796 1.131-.711.535-.79 1.676-1.523 2.14-.558.321-2.046 1.416-2.134 1.368z" font-size="12" fill="#006700" fill-rule="evenodd" stroke="#000" stroke-width=".078"/><path d="M320.26 487.198a25.903 108.323 0 1 1-51.807 0 25.903 108.323 0 1 1 51.807 0z" transform="matrix(.036 .041 -.03 .047 542.221 266.776)" font-size="12" fill="#006700" fill-rule="evenodd" stroke="#000" stroke-width="2.553"/><path d="M320.26 487.198a25.903 108.323 0 1 1-51.807 0 25.903 108.323 0 1 1 51.807 0z" transform="matrix(.043 .028 -.022 .055 534.634 266.569)" font-size="12" fill="#006700" fill-rule="evenodd" stroke="#000" stroke-width="2.553"/><path d="M320.26 487.198a25.903 108.323 0 1 1-51.807 0 25.903 108.323 0 1 1 51.807 0z" transform="matrix(.043 -.035 .02 .052 509.768 286.628)" font-size="12" fill="#006700" fill-rule="evenodd" stroke="#000" stroke-width="2.553"/><path d="M320.26 487.198a25.903 108.323 0 1 1-51.807 0 25.903 108.323 0 1 1 51.807 0z" transform="matrix(.048 -.013 .006 .059 516.715 275.596)" font-size="12" fill="#006700" fill-rule="evenodd" stroke="#000" stroke-width="2.553"/><path d="M320.26 487.198a25.903 108.323 0 1 1-51.807 0 25.903 108.323 0 1 1 51.807 0z" transform="matrix(.048 .004 -.006 .06 523.846 270.53)" font-size="12" fill="#006700" fill-rule="evenodd" stroke="#000" stroke-width="2.553"/><path d="M534.401 307.151c-.004.038-1.666-.694-1.992-.908-.326-.214-.174-1.076-1.235-1.573-1.061-.497-2.249-.395-2.825-.172-.576.223-.428.842.829 1.467 1.257.625 2.199.202 2.869.441.67.24 1.735.699 2.256 1.042.572-.185 1.974-.347 2.749-.479.775-.132 2.659.464 4.017.033 1.141-.333 1.706-1.164.975-1.485-.732-.32-2.119-.31-2.97-.107s-1.366 1.228-2.21 1.355c-.63.067-2.402.467-2.463.386z" font-size="12" fill="#006700" fill-rule="evenodd" stroke="#000" stroke-width=".078"/><path d="M320.26 487.198a25.903 108.323 0 1 1-51.807 0 25.903 108.323 0 1 1 51.807 0z" transform="matrix(.026 .059 -.048 .042 550.791 277.902)" font-size="12" fill="#006700" fill-rule="evenodd" stroke="#000" stroke-width="2.553"/><path d="M320.26 487.198a25.903 108.323 0 1 1-51.807 0 25.903 108.323 0 1 1 51.807 0z" transform="matrix(.038 .046 -.041 .053 542.509 274.931)" font-size="12" fill="#006700" fill-rule="evenodd" stroke="#000" stroke-width="2.553"/><path d="M320.26 487.198a25.903 108.323 0 1 1-51.807 0 25.903 108.323 0 1 1 51.807 0z" transform="matrix(.059 -.023 .005 .064 508.545 288.076)" font-size="12" fill="#006700" fill-rule="evenodd" stroke="#000" stroke-width="2.553"/><path d="M320.26 487.198a25.903 108.323 0 1 1-51.807 0 25.903 108.323 0 1 1 51.807 0z" transform="matrix(.058 .002 -.013 .067 519.817 278.412)" font-size="12" fill="#006700" fill-rule="evenodd" stroke="#000" stroke-width="2.553"/><path d="M320.26 487.198a25.903 108.323 0 1 1-51.807 0 25.903 108.323 0 1 1 51.807 0z" transform="matrix(.052 .022 -.026 .065 529.331 275.4)" font-size="12" fill="#006700" fill-rule="evenodd" stroke="#000" stroke-width="2.553"/><path d="M528.916 319.64c-.016.04-1.606-1.369-1.894-1.723-.288-.354.163-1.251-.842-2.183-1.005-.932-2.346-1.25-3.053-1.212-.707.038-.747.774.43 1.919 1.178 1.145 2.354 1.018 3.013 1.525.659.507 1.68 1.399 2.141 1.966.691.002 2.287.331 3.184.466.897.135 2.774 1.474 4.411 1.49 1.365.045 2.261-.668 1.561-1.286-.7-.618-2.231-1.108-3.234-1.193-1.004-.084-1.907.861-2.878.696-.716-.154-2.797-.353-2.838-.465z" font-size="12" fill="#006700" fill-rule="evenodd" stroke="#000" stroke-width=".09"/><path d="M320.26 487.198a25.903 108.323 0 1 1-51.807 0 25.903 108.323 0 1 1 51.807 0z" transform="matrix(-.007 .071 -.07 .012 562.079 300.72)" font-size="12" fill="#006700" fill-rule="evenodd" stroke="#000" stroke-width="2.553"/><path d="M320.26 487.198a25.903 108.323 0 1 1-51.807 0 25.903 108.323 0 1 1 51.807 0z" transform="matrix(.012 .066 -.068 .026 555.709 293.104)" font-size="12" fill="#006700" fill-rule="evenodd" stroke="#000" stroke-width="2.553"/><path d="M320.26 487.198a25.903 108.323 0 1 1-51.807 0 25.903 108.323 0 1 1 51.807 0z" transform="matrix(.07 .013 -.03 .064 515.746 285.962)" font-size="12" fill="#006700" fill-rule="evenodd" stroke="#000" stroke-width="2.553"/><path d="M320.26 487.198a25.903 108.323 0 1 1-51.807 0 25.903 108.323 0 1 1 51.807 0z" transform="matrix(.054 .036 -.049 .056 531.905 283.29)" font-size="12" fill="#006700" fill-rule="evenodd" stroke="#000" stroke-width="2.553"/><path d="M320.26 487.198a25.903 108.323 0 1 1-51.807 0 25.903 108.323 0 1 1 51.807 0z" transform="matrix(.038 .05 -.06 .046 542.734 285.929)" font-size="12" fill="#006700" fill-rule="evenodd" stroke="#000" stroke-width="2.553"/><path d="M518.168 327.762c-.038.029-.802-2.23-.887-2.734-.085-.504.84-1.096.38-2.563-.461-1.468-1.582-2.546-2.285-2.919-.703-.373-1.144.304-.633 2.074.511 1.77 1.716 2.33 2.075 3.193.359.863.857 2.302.993 3.108.665.402 2.026 1.638 2.819 2.284.792.647 1.873 3.006 3.444 3.968 1.293.833 2.547.672 2.209-.32-.338-.993-1.548-2.344-2.47-3.005-.923-.661-2.311-.284-3.158-1.003-.607-.56-2.507-1.954-2.486-2.083z" font-size="12" fill="#006700" fill-rule="evenodd" stroke="#000" stroke-width=".101"/><path d="M314.71 506.199a22.479 81.591 0 1 1-44.959 0 22.479 81.591 0 1 1 44.959 0z" transform="matrix(0 .098 -.095 .001 561.619 303.89)" font-size="12" fill="#006700" fill-rule="evenodd" stroke="#000" stroke-width="2.553"/><path d="M314.71 506.199a22.479 81.591 0 1 1-44.959 0 22.479 81.591 0 1 1 44.959 0z" transform="matrix(.073 .061 -.06 .078 519.92 270.264)" font-size="12" fill="#006700" fill-rule="evenodd" stroke="#000" stroke-width="2.553"/><path d="M314.71 506.199a22.479 81.591 0 1 1-44.959 0 22.479 81.591 0 1 1 44.959 0z" transform="matrix(.035 .091 -.088 .038 547.256 284.384)" font-size="12" fill="#006700" fill-rule="evenodd" stroke="#000" stroke-width="2.553"/><path d="M314.71 506.199a22.479 81.591 0 1 1-44.959 0 22.479 81.591 0 1 1 44.959 0z" transform="matrix(.041 -.022 .043 .04 481.011 252.148)" font-size="12" fill="#006700" fill-rule="evenodd" stroke="#000" stroke-width="2.553"/><path d="M314.71 506.199a22.479 81.591 0 1 1-44.959 0 22.479 81.591 0 1 1 44.959 0z" transform="matrix(-.008 -.044 .059 .007 486.202 277.129)" font-size="12" fill="#006700" fill-rule="evenodd" stroke="#000" stroke-width="2.553"/><path d="M314.71 506.199a22.479 81.591 0 1 1-44.959 0 22.479 81.591 0 1 1 44.959 0z" transform="matrix(.022 -.035 .055 .029 479.558 262.534)" font-size="12" fill="#006700" fill-rule="evenodd" stroke="#000" stroke-width="2.553"/><path d="M479.588 328.132s6.47 1.388 12.095 3.432c5.625 2.044 14.171 9.061 16.468 9.459 2.577.117 6.15-.762 7.506-4.483-3.968 1.058-6.348 2.666-10.136.585-1.338-.507-5.721-4.497-10.526-6.633-4.804-2.136-14.494-4.571-14.494-4.571l-.914 2.211z" font-size="12" fill="#006700" fill-rule="evenodd" stroke="#000" stroke-width=".107"/><path d="M486.487 269.641c-.023-.055 7.448-3.93 7.448-3.93l-8.213 2.1-.954 1.445 1.719.384zm7.065 1.811c-2.883-.524-7.318-1.494-10.142-1.72 1.952-2.162 4.641-5.817 6.298-8.061-1.094 2.14-2.812 4.962-3.49 7.011 1.988 1.073 5.112 1.913 7.334 2.77zm-8.411-1.356c-.032-.051 6.618-5.124 6.618-5.124l-7.687 3.439-.684 1.589 1.752.096z" font-size="12" fill="#006700" fill-rule="evenodd" stroke="#000" stroke-width=".13"/><path d="M492.215 271.376c-2.903-.552-7.372-1.57-10.21-1.814 1.917-2.227 4.546-5.994 6.167-8.307-1.057 2.207-2.728 5.117-3.369 7.232 2.015 1.116 5.166 1.995 7.412 2.889z" font-size="12" fill="#006700" fill-rule="evenodd" stroke="#000" stroke-width=".132"/><path d="M484.044 270.508c-.018-.057 7.794-3.264 7.794-3.264l-8.393 1.381-1.084 1.354 1.682.53z" font-size="12" fill="#006700" fill-rule="evenodd" stroke="#000" stroke-width=".13"/><path d="M491.343 271.439c-2.937-.245-7.476-.793-10.312-.731 1.635-2.472 3.792-6.588 5.122-9.116-.786 2.359-2.096 5.499-2.482 7.718 2.124.915 5.344 1.465 7.671 2.129z" font-size="12" fill="#006700" fill-rule="evenodd" stroke="#000" stroke-width=".133"/><path d="M483.255 270.541c-.043-.043 5.28-6.434 5.28-6.434l-6.69 5.003-.31 1.706 1.721-.275z" font-size="12" fill="#006700" fill-rule="evenodd" stroke="#000" stroke-width=".13"/><path d="M491.292 271.864c-3.147-.06-8.028-.337-11.036-.07 1.489-2.814 3.368-7.459 4.528-10.311-.599 2.63-1.675 6.15-1.862 8.599 2.35.848 5.829 1.222 8.369 1.782zm-9.108.205c-.041-.056 6.412-6.152 6.412-6.152l-7.758 4.293-.531 1.839 1.878.021z" font-size="12" fill="#006700" fill-rule="evenodd" stroke="#000" stroke-width=".144"/><path d="M489.89 272.071c-3.382.013-8.589-.171-11.888.199 2.189-3.137 5.178-8.3 7.021-11.472-1.191 2.913-3.081 6.816-3.79 9.519 2.359.876 6.034 1.2 8.658 1.754z" font-size="12" fill="#006700" fill-rule="evenodd" stroke="#000" stroke-width=".157"/><path d="M480.024 272.525c-.032-.061 8.191-6.937 8.191-6.937l-9.258 4.923-.954 2.039 2.021-.024zm8.641-.247c-3.349.483-8.534 1.028-11.751 1.848 1.719-3.362 3.942-8.812 5.313-12.16-.762 3.005-2.076 7.073-2.392 9.807 2.463.525 6.15.33 8.829.505zm-9.731 1.616c-.047-.049 6.311-8.741 6.311-8.741l-7.876 7.121-.422 2.182 1.987-.561zm7.882-.582c-3.372.314-8.582.598-11.841 1.255 1.906-3.27 4.432-8.6 5.99-11.873-.93 2.962-2.471 6.958-2.94 9.671 2.431.648 6.125.639 8.791.947zm-9.022 1.504c-.033-.062 8.034-6.952 8.034-6.952l-9.115 4.912-.921 2.052 2.002-.012zm8.034-1.147c-3.362.709-8.577 1.607-11.788 2.639 1.571-3.434 3.545-8.96 4.764-12.354-.621 3.015-1.746 7.116-1.928 9.832 2.516.347 6.235-.102 8.952-.117zm-9.376 1.506c-.055-.039 5.132-9.529 5.132-9.529l-6.946 8.24-.115 2.177 1.929-.888z" font-size="12" fill="#006700" fill-rule="evenodd" stroke="#000" stroke-width=".156"/><path d="M485.829 274.203c-3.607.938-9.227 2.169-12.629 3.46 1.306-3.904 2.801-10.162 3.726-14.007-.314 3.394-1.049 8.025-.918 11.067 2.807.278 6.837-.385 9.821-.52z" font-size="12" fill="#006700" fill-rule="evenodd" stroke="#000" stroke-width=".173"/><path d="M475.443 277.379c-.055-.055 6.466-9.549 6.466-9.549l-8.267 7.718-.349 2.409 2.15-.578zm8.955-2.084c-3.545 1.121-9.081 2.64-12.406 4.099 1.118-3.928 2.313-10.192 3.054-14.041-.154 3.371-.67 7.986-.397 10.985 2.806.123 6.786-.749 9.749-1.042zm-10.254 3.487c-.063-.044 4.914-10.542 4.914-10.542l-6.987 9.079.032 2.424 2.041-.961zm8.904-2.054c-3.632.828-9.282 1.889-12.725 3.072 1.47-3.824 3.228-9.971 4.316-13.747-.459 3.348-1.392 7.906-1.393 10.917 2.783.352 6.825-.192 9.802-.242zm-10.065 3.069c-.044-.065 8.03-8.25 8.03-8.25l-9.466 6.108-.771 2.317 2.207-.176zm8.445-1.636c-3.598.483-9.18 1.003-12.616 1.866 1.67-3.746 3.766-9.828 5.06-13.564-.655 3.362-1.845 7.909-2.031 10.973 2.696.634 6.677.481 9.587.724zm-10.035.811c-.059-.05 5.463-10.322 5.463-10.322l-7.411 8.686-.115 2.46 2.063-.823z" font-size="12" fill="#006700" fill-rule="evenodd" stroke="#000" stroke-width=".172"/><path d="M481.879 276.935c-3.913 1.602-10.024 3.835-13.69 5.81 1.202-4.645 2.469-12.003 3.256-16.525-.141 3.918-.671 9.307-.343 12.757 3.106-.098 7.502-1.449 10.777-2.042z" font-size="12" fill="#006700" fill-rule="evenodd" stroke="#000" stroke-width=".194"/><path d="M470.641 282.09c-.063-.055 6.539-11.845 6.539-11.845l-8.633 10.023-.238 2.799 2.332-.977zm9.729-3.698c-3.834 1.802-9.834 4.351-13.406 6.506.993-4.645 1.93-11.966 2.514-16.465.034 3.868-.255 9.207.226 12.587 3.096-.274 7.423-1.856 10.666-2.627zm-11.074 5.491c-.072-.041 4.772-12.748 4.772-12.748l-7.142 11.386.181 2.76 2.189-1.397zm9.402-4.429c-3.825 1.832-9.813 4.429-13.373 6.612.964-4.649 1.855-11.973 2.41-16.474.059 3.865-.196 9.203.307 12.576 3.096-.299 7.416-1.915 10.656-2.713zm-10.47 5.947c-.058-.062 7.383-11.242 7.383-11.242l-9.308 9.201-.454 2.787 2.379-.747zm10.11-6.527c-3.41 2.722-8.805 6.724-11.88 9.715-.005-4.693-.634-11.927-1.013-16.374.856 3.683 1.705 8.855 2.899 11.956 3.005-1.071 6.95-3.712 9.994-5.297zm-9.754 7.073c-.082-.011.855-13.47.855-13.47l-3.557 13.096.992 2.467 1.709-2.093zm8.786-5.83c-3.42 2.705-8.83 6.679-11.916 9.654.015-4.695-.584-11.935-.945-16.386.84 3.689 1.667 8.868 2.848 11.976 3.008-1.055 6.962-3.676 10.012-5.244zm-9.642 8.109c-.076-.032 3.44-13.162 3.44-13.162l-5.953 12.104.47 2.702 2.043-1.644z" font-size="12" fill="#006700" fill-rule="evenodd" stroke="#000" stroke-width=".193"/><path d="M476.99 280.436c-3.232 3.184-8.378 7.908-11.235 11.33-.507-4.816-1.929-12.167-2.797-16.687 1.278 3.681 2.708 8.892 4.273 11.937 2.99-1.443 6.783-4.605 9.759-6.579zm-9.243 9.471c-.085-.012.644-13.998.644-13.998l-3.438 13.601 1.068 2.567 1.726-2.17zm8.218-7.15c-3.459 2.86-8.937 7.067-12.045 10.203-.108-4.877-.916-12.387-1.405-17.006.964 3.819 1.954 9.186 3.254 12.397 3.077-1.14 7.089-3.92 10.196-5.594z" font-size="12" fill="#006700" fill-rule="evenodd" stroke="#000" stroke-width=".2"/><path d="M521 250a20.5 20.5 0 1 1-41 0 20.5 20.5 0 1 1 41 0z" transform="matrix(1.2 0 0 1.2 -100.527 -3)" fill="#2563c1" fill-rule="evenodd"/><path d="M466.715 291.51c-.074-.045 4.873-13.167 4.873-13.167l-7.308 11.666.191 2.89 2.244-1.389z" font-size="12" fill="#006700" fill-rule="evenodd" stroke="#000" stroke-width=".2"/><path d="M475.907 282.811c-3.061 3.238-7.935 8.044-10.641 11.521-.483-4.882-1.837-12.331-2.662-16.913 1.214 3.729 2.573 9.009 4.058 12.092 2.833-1.472 6.426-4.689 9.245-6.7z" font-size="12" fill="#006700" fill-rule="evenodd" stroke="#000" stroke-width=".197"/><path d="M466.907 292.179c-.086-.001-.576-13.92-.576-13.92l-2.254 13.864 1.292 2.41 1.538-2.354z" font-size="12" fill="#006700" fill-rule="evenodd" stroke="#000" stroke-width=".2"/><path d="M474.406 283.846c-2.962 3.267-7.688 8.119-10.288 11.623-.626-4.883-2.198-12.329-3.156-16.909 1.322 3.723 2.834 8.997 4.409 12.071 2.786-1.497 6.28-4.748 9.036-6.785zm-8.284 9.715c-.078-.023 1.554-14.141 1.554-14.141l-4.146 13.375.826 2.747 1.765-1.981zm7.648-9.162c-2.708 3.538-7.056 8.824-9.385 12.562-.996-4.795-3.129-12.049-4.434-16.511 1.602 3.574 3.512 8.673 5.316 11.577 2.666-1.76 5.906-5.334 8.503-7.628zm-7.706 10.485c-.081-.004-.897-14.158-.897-14.158l-1.783 14.046 1.284 2.474 1.396-2.362z" font-size="12" fill="#006700" fill-rule="evenodd" stroke="#000" stroke-width=".197"/><path d="M473.49 285.214c-2.542 3.705-6.644 9.255-8.795 13.142-1.243-4.777-3.753-11.969-5.289-16.393 1.79 3.515 3.967 8.549 5.927 11.378 2.59-1.912 5.665-5.681 8.157-8.127zm-6.54 10.995c-.079-.026 1.441-14.222 1.441-14.222l-4.053 13.368.855 2.798 1.758-1.944zm6.024-9.679c-2.191 4.037-5.765 10.125-7.551 14.289-1.665-4.576-4.806-11.378-6.73-15.563 2.094 3.246 4.71 7.948 6.911 10.489 2.4-2.261 5.115-6.436 7.37-9.214zm-6.519 10.85c-.08.022-3.974-13.487-3.974-13.487l1.343 14.216 1.791 2.005.84-2.734z" font-size="12" fill="#006700" fill-rule="evenodd" stroke="#000" stroke-width=".198"/><path d="M472.896 288.105c-2.283 4.025-6.003 10.095-7.871 14.245-1.675-4.562-4.849-11.343-6.793-15.516 2.127 3.236 4.777 7.924 7.019 10.457 2.484-2.254 5.306-6.416 7.645-9.186zm-6.262 11.816c-.084 0-1.459-14.181-1.459-14.181l-1.313 14.182 1.419 2.43 1.353-2.432zm6.491-10.577c-2.347 3.97-6.165 9.953-8.099 14.059-1.6-4.601-4.664-11.456-6.54-15.674 2.074 3.286 4.648 8.035 6.848 10.621 2.52-2.196 5.408-6.291 7.792-9.006zm-6.629 11.713c-.084.01-2.631-13.926-2.631-13.926l-.129 14.263 1.615 2.245 1.145-2.582zm5.62-9.706c-2.532 3.802-6.627 9.512-8.754 13.479-1.378-4.706-4.109-11.764-5.781-16.106 1.913 3.425 4.256 8.346 6.329 11.081 2.62-2.018 5.698-5.908 8.206-8.454zm-6.839 11.252c-.082-.022 1.178-14.235 1.178-14.235l-3.879 13.498.937 2.751 1.764-2.014zm6.993-10.892c-2.165 4.118-5.706 10.341-7.452 14.567-1.807-4.488-5.177-11.129-7.243-15.216 2.22 3.144 5.006 7.715 7.321 10.151 2.417-2.358 5.117-6.636 7.374-9.503zm-7.477 12.08c-.081.025-4.368-13.267-4.368-13.267l1.681 14.108 1.882 1.92.805-2.761zm6.883-11.021c-1.511 4.519-4.062 11.408-5.145 15.942-2.453-4.014-6.77-9.803-9.417-13.367 2.658 2.604 6.088 6.486 8.733 8.374 2.025-2.845 4.039-7.638 5.829-10.949zm-2.99 12.106c-.081.029-4.73-13.084-4.73-13.084l2.067 14.031 1.934 1.843.729-2.791zm2.955-10.73c-1.479 4.535-3.98 11.449-5.03 15.994-2.482-3.988-6.84-9.731-9.514-13.267 2.677 2.575 6.135 6.422 8.793 8.281 2.004-2.866 3.984-7.68 5.75-11.009zm-2.917 12.961c-.077.041-6.086-12.236-6.086-12.236l3.544 13.586 2.115 1.528.427-2.879zm2.457-11.813c-.946 4.708-2.631 11.921-3.15 16.578-2.922-3.598-7.905-8.667-10.964-11.789 2.952 2.17 6.825 5.487 9.676 6.95 1.659-3.129 3.068-8.185 4.438-11.738zm-2.061 13.732c-.083.016-3.282-13.72-3.282-13.72l.541 14.245 1.718 2.131 1.022-2.655zm2.079-12.272c-.5 4.813-1.501 12.22-1.584 16.925-3.233-3.188-8.649-7.562-11.974-10.258 3.13 1.762 7.281 4.543 10.246 5.614 1.355-3.338 2.283-8.56 3.312-12.282zm-1.921 13.281c-.065.063-8.675-9.905-8.675-9.905l6.537 11.997 2.389.816-.251-2.908zm2.103-11.596c-.519 4.81-1.55 12.211-1.65 16.915-3.221-3.206-8.619-7.611-11.934-10.325 3.123 1.78 7.263 4.584 10.224 5.672 1.368-3.33 2.317-8.547 3.36-12.262zm-1.13 13.89c-.075.044-6.663-11.94-6.663-11.94l4.186 13.403 2.187 1.43.29-2.893zm1.521-11.913c-.317 4.839-1.035 12.298-.938 17.006-3.349-3.009-8.921-7.084-12.342-9.596 3.192 1.589 7.441 4.141 10.441 5.049 1.226-3.411 1.954-8.683 2.84-12.459zm-.679 14.097c-.068.059-8.232-10.438-8.232-10.438l6.003 12.388 2.351.967-.122-2.917zm.768-11.871c-.287 4.842-.961 12.308-.836 17.015-3.366-2.98-8.962-7.007-12.399-9.489 3.201 1.562 7.465 4.076 10.47 4.959 1.205-3.422 1.902-8.7 2.764-12.485zm-.022 13.646c-.078.036-5.772-12.584-5.772-12.584l3.194 13.777 2.076 1.654.501-2.847zm.24-12.205c.165 4.858.191 12.38.753 17.049-3.617-2.513-9.543-5.767-13.183-7.776 3.321 1.123 7.785 3.052 10.848 3.526.877-3.568 1.077-8.916 1.581-12.799zm.768 11.72c-.049.08-10.543-7.219-10.543-7.219l8.938 9.849 2.484.128-.879-2.759zm-.434-11.192c.419 4.836.839 12.332 1.646 16.964-3.753-2.368-9.857-5.388-13.607-7.252 3.384.994 7.955 2.748 11.047 3.104.692-3.589.612-8.927.914-12.817zm1.57 13.877c-.065.061-8.785-10.098-8.785-10.098l6.654 12.125 2.404.877-.273-2.903zm-.809-12.034c.622 4.816 1.357 12.295 2.357 16.883-3.839-2.145-10.05-4.799-13.865-6.44 3.414.791 8.042 2.272 11.139 2.442.538-3.635.233-8.973.369-12.885zm2.567 13.734c-.05.079-10.462-7.393-10.462-7.393l8.825 9.995 2.484.171-.847-2.772zm-2.238-11.689c.938 4.759 2.164 12.172 3.461 16.668-3.956-1.782-10.3-3.85-14.198-5.13 3.443.469 8.138 1.511 11.225 1.388.293-3.688-.364-9-.489-12.927zm3.394 13.158c-.065.06-8.654-10.258-8.654-10.258l6.494 12.242 2.394.922-.234-2.906zm-2.826-11.84c1.373 4.628 3.281 11.869 4.985 16.186-4.078-1.251-10.544-2.468-14.517-3.225 3.448.007 8.187.421 11.227-.115-.057-3.723-1.204-8.941-1.696-12.846zm3.287 11.864c-.018.095-12.089-2.59-12.089-2.59l11.496 5.715 2.322-.874-1.73-2.252zm-2.489-10.425c1.355 4.635 3.235 11.885 4.922 16.211-4.074-1.274-10.536-2.527-14.507-3.306 3.448.027 8.187.467 11.23-.051-.042-3.722-1.169-8.946-1.645-12.853zm4.468 11.697c-.036.086-11.567-5.586-11.567-5.586l10.374 8.41 2.486-.233-1.293-2.591zm-5.068-10.879c2.297 4.224 5.656 10.884 8.212 14.731-4.238-.323-10.798-.087-14.832.05 3.366-.754 8.076-1.395 10.932-2.59-.825-3.628-3.024-8.479-4.311-12.19zm6.885 12.147c-.022.093-12.019-3.319-12.019-3.319l11.28 6.387 2.372-.724-1.633-2.343zm-5.642-10.357c2.322 4.207 5.72 10.845 8.298 14.672-4.236-.288-10.791.004-14.82.175 3.358-.783 8.061-1.464 10.907-2.684-.847-3.624-3.075-8.46-4.384-12.163zm7.168 11.346c-.043.081-11.2-6.7-11.2-6.7l9.785 9.365 2.516.025-1.102-2.69zm-6.237-10.291c2.689 3.927 6.671 10.156 9.575 13.668-4.189.263-10.598 1.41-14.539 2.107 3.223-1.224 7.775-2.523 10.452-4.12-1.184-3.533-3.841-8.103-5.487-11.655zm7.055 11.271c-.004.098-12.089-.285-12.089-.285l11.96 3.534 2.127-1.321-1.998-1.928z" font-size="12" fill="#006700" fill-rule="evenodd" stroke="#000" stroke-width=".2"/><path d="M490.507 267.618c.001-.038 8.698-1.451 8.698-1.451l-8.654.202-1.51.775 1.465.474z" font-size="12" fill="#006700" fill-rule="evenodd" stroke="#000" stroke-width=".104"/><path d="M495.286 269.478c-2.524-.763-6.337-2.04-8.928-2.603 2.753-1.094 6.827-3.035 9.334-4.225-1.929 1.207-4.734 2.759-6.229 3.969 1.444.981 4.066 1.981 5.822 2.859z" font-size="12" fill="#006700" fill-rule="evenodd" stroke="#000" stroke-width=".107"/><path d="M490.132 267.918c-.01-.036 8.415-2.312 8.415-2.312l-8.718 1.111-1.315.902 1.618.298z" font-size="12" fill="#006700" fill-rule="evenodd" stroke="#000" stroke-width=".104"/><path d="M495.686 270.085c-2.949-.278-7.471-.843-10.381-.872 2.192-1.941 5.265-5.189 7.159-7.183-1.302 1.874-3.303 4.36-4.166 6.133 1.977.794 5.151 1.325 7.388 1.922z" font-size="12" fill="#006700" fill-rule="evenodd" stroke="#000" stroke-width=".121"/><path d="M487.005 268.51c.007-.038 8.746-.988 8.746-.988l-8.522-.273-1.594.701 1.37.56zm6.476 1.908c-2.681-.513-6.756-1.406-9.468-1.724 2.577-1.265 6.332-3.441 8.644-4.777-1.726 1.304-4.273 3.006-5.561 4.277 1.633.809 4.456 1.539 6.385 2.224zm-7.238-1.995c-.022-.033 7.698-3.313 7.698-3.313l-8.432 2.226-1.01 1.026 1.744.061z" font-size="12" fill="#006700" fill-rule="evenodd" stroke="#000" stroke-width=".104"/><path d="M493.227 271.399c-2.231-.922-5.65-2.483-7.858-3.132 1.709-1.59 4.118-4.377 5.602-6.087-1.032 1.708-2.609 3.917-3.306 5.611 1.482 1.261 3.878 2.499 5.561 3.608z" font-size="12" fill="#006700" fill-rule="evenodd" stroke="#000" stroke-width=".109"/><path d="M486.681 269.001c-.016-.052 5.99-2.595 5.99-2.595l-6.523.894-.802 1.162 1.335.539z" font-size="12" fill="#006700" fill-rule="evenodd" stroke="#000" stroke-width=".108"/><path d="M481.668 325.081c.005.096-12.413.094-12.413.094l12.569 3.073 2.062-1.351-2.218-1.815zm2.23.81c-.015.091-12.607-2.932-12.607-2.932l12.106 5.935 2.372-.763-1.872-2.239zm2.073.839c0 .095-12.516-.631-12.516-.631l12.515 3.773 2.146-1.216-2.145-1.925zm-7.943-8.849c3.256 3.589 8.134 9.307 11.551 12.471-4.204.635-10.536 2.335-14.43 3.371 3.095-1.486 7.527-3.165 10.019-4.965-1.679-3.34-4.991-7.56-7.14-10.877zm9.665 9.481c-.023.088-12.511-4.094-12.511-4.094l11.756 6.99 2.463-.519-1.708-2.377zm-8.508-8.657c3.549 3.237 8.901 8.432 12.562 11.219-4.028 1.16-10.017 3.66-13.702 5.189 2.859-1.886 6.999-4.132 9.237-6.263-1.986-3.179-5.656-7.048-8.097-10.145zm9.538 9.433c.019.096-11.872 2.334-11.872 2.334l12.509.853 1.766-1.744-2.404-1.443zm-2.484-.746c.012.095-12.382.95-12.382.95l12.776 2.195 1.957-1.489-2.35-1.656zm2.288.652c-.008.092-12.803-2.053-12.803-2.053l12.529 5.08 2.31-.925-2.036-2.103zm2.131.694c.007.095-12.54.235-12.54.235l12.775 2.897 2.05-1.361-2.286-1.771zm-8.592-8.272c3.519 3.352 8.818 8.715 12.465 11.633-4.149.923-10.34 3.054-14.15 4.356 2.978-1.695 7.275-3.674 9.627-5.64-1.927-3.213-5.549-7.191-7.943-10.348zm10.359 8.783c-.016.089-12.794-3.217-12.794-3.217l12.259 6.156 2.419-.688-1.883-2.251zm-9.142-8.041c3.785 2.981 9.517 7.79 13.38 10.315-3.934 1.434-9.723 4.339-13.286 6.118 2.712-2.077 6.675-4.601 8.75-6.879-2.221-3.031-6.174-6.634-8.844-9.553zm10.227 8.743c.027.095-11.674 3.146-11.674 3.146l12.55-.014 1.632-1.86-2.508-1.272z" font-size="12" fill="#006700" fill-rule="evenodd" stroke="#000" stroke-width=".2"/><path d="M513.371 313.931l-13.346-9.223-13.346 9.223 5.005-14.757-11.678-9.224h15.014l5.005-14.757 5.005 14.757h15.014l-11.678 9.224 5.005 14.757z" font-size="12" fill="#ffce00" fill-rule="evenodd"/><path d="M549.002 300c0 27.049-21.952 49.001-49.001 49.001-27.049 0-49.001-21.952-49.001-49.001 0-27.049 21.953-49.001 49.001-49.001 27.049 0 49.001 21.953 49.001 49.001zm16.334 0c0 36.065-29.27 65.335-65.335 65.335s-65.335-29.27-65.335-65.335 29.27-65.335 65.335-65.335 65.335 29.27 65.335 65.335z" font-size="12" fill="#ce1126" fill-rule="evenodd" stroke="#ce1126" stroke-width="NaN"/><path d="M549.807 311.717l4.303 1.592 7.139-1.305-.536 1.45-3.72.643c-.694.115-1.379.208-2.057.279.432.466.908 1.015 1.431 1.646l2.341 2.849-.513 1.388-4.526-5.758-4.303-1.592.441-1.192zm12.096-16.503l.138 1.263-6.221.681c-1.082.118-1.953.104-2.614-.043-.66-.148-1.222-.484-1.686-1.008-.458-.521-.738-1.241-.839-2.161-.098-.894-.004-1.644.281-2.25.285-.607.743-1.067 1.372-1.382.634-.316 1.522-.535 2.663-.66l6.221-.681.138 1.262-6.213.68c-.935.102-1.617.255-2.046.456-.424.204-.735.505-.934.905-.198.404-.268.877-.208 1.42.102.928.411 1.564.93 1.907.518.342 1.453.44 2.804.292l6.213-.68zm-8.688-12.619l1.245-.252.815 3.984-3.939.799c-.674-.5-1.217-1.047-1.629-1.64-.407-.595-.68-1.234-.819-1.919-.187-.925-.136-1.811.155-2.658.296-.845.828-1.544 1.594-2.101.767-.556 1.671-.94 2.714-1.151 1.033-.209 2.035-.214 3.005-.014.976.203 1.754.62 2.334 1.25.58.631.965 1.415 1.155 2.352.138.68.137 1.319-.004 1.918-.134.602-.392 1.105-.772 1.507-.381.402-.912.757-1.594 1.064l-.575-1.052c.512-.251.901-.512 1.168-.784.266-.273.452-.622.556-1.049.109-.427.116-.879.02-1.353-.115-.57-.314-1.041-.596-1.416-.277-.376-.601-.661-.972-.852-.37-.187-.76-.313-1.17-.378-.705-.107-1.441-.082-2.209.074-.946.192-1.709.496-2.288.911-.578.421-.966.938-1.163 1.553-.197.615-.233 1.232-.107 1.852.109.539.332 1.042.668 1.509.34.465.67.804.99 1.015l1.977-.401-.561-2.766zm-45.409-34.229l1.869-10.668 1.251.219-1.649 9.41 4.658.816-.221 1.259-5.908-1.035zm-10.549-.716v-10.831h6.942v1.278h-5.671v3.317h5.311v1.271h-5.311v3.687h5.893v1.278h-7.164zm-30.001 6.803l1.2-.55c.563 1.068.781 2.063.657 2.986-.124.916-.566 1.699-1.326 2.348-.787.672-1.581 1.04-2.383 1.104-.801.057-1.624-.147-2.469-.611-.841-.467-1.598-1.093-2.27-1.88-.733-.857-1.227-1.728-1.483-2.611-.255-.89-.257-1.728-.004-2.514.253-.793.702-1.465 1.345-2.015.731-.625 1.523-.939 2.38-.946.856-.006 1.707.287 2.553.879l-.735 1.065c-.681-.455-1.3-.68-1.855-.679-.556.002-1.078.212-1.565.629-.561.479-.901 1.033-1.02 1.659-.116.624-.031 1.257.255 1.901.282.64.656 1.231 1.12 1.773.599.7 1.211 1.236 1.838 1.607.628.364 1.242.512 1.845.445.602-.068 1.126-.292 1.571-.672.541-.463.849-1.03.922-1.702.075-.673-.118-1.412-.577-2.218zm-4.531 9.529l-8.057-7.239.849-.945 8.057 7.239-.849.945zm-5.21 6.149l-8.587-6.601.774-1.007 7.574 5.822 2.881-3.748 1.013.779-3.656 4.756zm-16.109 6.388l.468-1.18 5.817 2.305c1.012.401 1.776.82 2.291 1.259.515.44.855.999 1.019 1.679.162.675.072 1.443-.269 2.303-.331.836-.765 1.456-1.301 1.859-.536.402-1.156.596-1.859.58-.708-.017-1.596-.238-2.663-.661l-5.818-2.305.468-1.18 5.811 2.303c.875.347 1.548.531 2.021.555.47.017.886-.104 1.249-.365.364-.264.647-.65.848-1.157.344-.869.368-1.576.07-2.122-.298-.545-1.079-1.068-2.342-1.569l-5.811-2.303zm6.323 26.209l-10.831.09-.058-6.942 1.278-.011.047 5.672 3.317-.027-.044-5.311 1.271-.011.044 5.311 3.687-.031-.049-5.894 1.278-.011.059 7.164zm40.45-53.546l-2.143-10.617 3.242-.654c.732-.148 1.3-.209 1.706-.186.567.031 1.078.192 1.534.482.592.373 1.084.904 1.477 1.594.397.684.69 1.499.881 2.445.163.806.224 1.538.183 2.194-.042.657-.151 1.216-.329 1.679-.179.458-.401.837-.666 1.137-.262.294-.6.545-1.017.755-.412.209-.902.37-1.472.485l-3.395.685zm.992-1.504l2.009-.406c.621-.125 1.093-.288 1.417-.49.33-.202.574-.442.737-.721.228-.393.366-.886.417-1.478.052-.599-.002-1.298-.164-2.1-.224-1.11-.558-1.93-1.003-2.458-.442-.534-.914-.856-1.417-.965-.363-.077-.915-.041-1.655.108l-1.977.399 1.637 8.111zm34.013 5.826l5.009-9.603 3.212 1.675c.565.295.981.551 1.246.767.377.297.649.63.816 1 .168.366.235.792.197 1.278-.033.488-.174.971-.422 1.447-.426.817-1.017 1.389-1.774 1.716-.755.323-1.734.171-2.938-.457l-2.183-1.139-2.036 3.904-1.127-.588zm3.754-4.45l2.201 1.148c.727.379 1.324.497 1.789.35.466-.146.843-.497 1.132-1.051.21-.402.297-.792.264-1.171-.028-.381-.165-.694-.411-.939-.16-.155-.496-.367-1.007-.633l-2.177-1.136-1.79 3.432zm1.779 7.305l9.978-5.598 1.018.914-4.309 10.686-1.077-.967 1.357-3.189-2.988-2.681-2.975 1.737-1.004-.901zm5.032-1.461l2.423 2.175 1.257-2.902c.381-.882.712-1.591.993-2.126-.555.435-1.144.833-1.767 1.194l-2.907 1.66zm2.707 8.742l8.593-6.594 2.591 3.377c.521.679.839 1.255.953 1.728.119.471.064.961-.164 1.473-.229.511-.58.948-1.052 1.311-.61.468-1.258.687-1.944.658-.686-.029-1.367-.366-2.041-1.009.06.378.073.689.039.936-.079.528-.246 1.099-.501 1.713l-1.322 3.119-.973-1.268 1.015-2.379c.29-.69.498-1.236.625-1.636.128-.4.187-.719.18-.955-.005-.233-.046-.444-.122-.632-.06-.135-.19-.333-.39-.593l-.897-1.169-3.816 2.928-.774-1.008zm5.574-2.675l1.662 2.166c.353.46.683.78.988.959.309.176.632.241.97.197.342-.048.651-.179.929-.392.406-.312.64-.699.699-1.164.062-.461-.123-.974-.557-1.538l-1.849-2.41-2.843 2.181zm.218 10.073l11.254-2.062.667 1.194-7.54 8.712-.706-1.264 2.318-2.577-1.958-3.505-3.378.679-.658-1.178zm5.234.249l1.588 2.842 2.13-2.338c.647-.711 1.189-1.275 1.629-1.689-.666.231-1.352.417-2.058.557l-3.288.628zm4.294 27.788l10.389 4.794-.142 1.36-11.181 2.782.151-1.439 3.379-.773.418-3.993-3.153-1.39.14-1.342zm4.136 3.217l-.339 3.237 3.087-.684c.938-.21 1.706-.358 2.304-.443-.678-.195-1.346-.438-2.004-.73l-3.05-1.38zm-106.472 10.391l-10.577 2.331-.916-4.156c-.184-.836-.228-1.493-.131-1.969.092-.477.349-.898.773-1.264.424-.366.927-.613 1.509-.741.75-.165 1.43-.09 2.04.228.609.317 1.083.91 1.421 1.779.105-.368.226-.655.362-.865.295-.445.689-.891 1.18-1.339l2.519-2.265.344 1.561-1.927 1.725c-.555.502-.975.908-1.26 1.217-.285.308-.474.571-.567.789-.094.213-.147.421-.158.624-.002.148.031.382.102.702l.317 1.439 4.697-1.035.274 1.241zm-6.182.061l-.588-2.666c-.125-.566-.288-.996-.488-1.288-.205-.29-.47-.486-.796-.589-.33-.101-.666-.114-1.007-.039-.5.11-.876.362-1.127.758-.252.391-.301.934-.148 1.629l.654 2.967 3.499-.771zm4.863-19.614l-10.791-.929.31-3.608c.055-.636.131-1.117.228-1.447.129-.462.332-.841.61-1.138.273-.296.641-.52 1.103-.673.463-.158.963-.213 1.498-.167.918.079 1.673.405 2.267.977.588.572.825 1.535.708 2.888l-.211 2.453 4.387.378-.109 1.266zm-5.552-1.753l.213-2.473c.07-.817-.051-1.412-.365-1.786-.314-.374-.783-.587-1.406-.64-.451-.039-.845.03-1.182.207-.341.173-.577.419-.709.741-.082.208-.148.599-.197 1.173l-.211 2.446 3.857.332zm10.078-14.255l-9.012-6.008 1.998-2.997c.407-.61.824-1.037 1.254-1.281.427-.25.901-.352 1.42-.305.517.041.983.2 1.397.476.385.257.686.591.903 1.002.216.413.305.875.264 1.389.482-.377 1.001-.565 1.559-.567.559-.005 1.102.168 1.626.517.422.281.762.624 1.02 1.027.256.397.405.777.447 1.14.042.364-.004.756-.136 1.177-.134.414-.371.876-.709 1.384l-2.031 3.046zm-4.52-4.541l1.151-1.727c.312-.469.502-.829.568-1.078.089-.329.074-.63-.045-.905-.117-.277-.334-.521-.649-.731-.299-.199-.604-.311-.914-.334-.314-.027-.591.052-.831.233-.244.179-.556.555-.939 1.128l-1.065 1.597 2.723 1.816zm4.162 2.775l1.326-1.989c.227-.341.373-.591.436-.748.113-.276.166-.534.161-.774-.006-.24-.082-.486-.229-.736-.151-.253-.37-.475-.657-.666-.336-.224-.678-.342-1.026-.353-.351-.014-.668.083-.948.29-.282.2-.592.555-.931 1.064l-1.231 1.847 3.098 2.066zm18.208-18.997l-2.637-11.133 1.159-.728 9.087 7.083-1.225.769-2.693-2.182-3.4 2.135.851 3.339-1.142.717zm-.019-5.24l2.756-1.731-2.443-2.008c-.744-.609-1.334-1.122-1.772-1.539.266.653.487 1.328.662 2.027l.797 3.251z" font-size="12" fill="#ffe600" font-family="helvetica"/></svg>