<svg xmlns="http://www.w3.org/2000/svg" version="1" width="600" height="400"><path fill="#ce1126" d="M0 0h600v400h-600z"/><path fill="#fff" d="M0 100h600v200h-600z"/><path d="M279.875 275.406c-6.178.349-12.334 4.518-15.219 6.75 5.18 2.267 10.71 4.037 16.594 5.25 9.375 1.574 18.75 1.563 28.125 1.563 1.53-.193 3.045-.411 4.531-.656l19.75-6.656s-9.501-6.271-17.031-6c-7.531.271-12.615 7.638-18.688 7.094-6.073-.544-8.505-7.344-17.25-7.344-.273 0-.539-.015-.813 0z" font-size="12" fill="#083d9c" fill-rule="evenodd" stroke="#083d9c" stroke-width="1.645pt"/><path d="M244.008 270.308l112.226.481s-9.716-10.323-21.134-10.563c-11.417-.242-8.258 4.801-17.003 5.52-8.744.721-10.932-5.281-18.948-5.041-8.015.239-12.632 5.041-18.703 5.282-6.073.239-13.846-6.003-18.462-5.761-4.616.239-21.134 7.201-21.134 7.201l3.158 2.881zm-14.331-13.205l138.46.481c2.185-3.121-6.802-10.563-15.06-11.284-6.804.239-11.66 6.962-17.247 7.203-5.587.239-11.902-6.963-18.219-6.722-6.315.239-12.874 6.722-19.19 6.722-6.315 0-10.931-6.963-18.946-6.963-8.016 0-11.66 7.683-17.733 7.203-6.074-.48-11.418-7.682-17.247-7.682-5.83 0-15.546 8.642-17.489 8.162-1.943-.48 2.428 3.601 2.672 2.881z" font-size="12" fill="#083d9c" fill-rule="evenodd" stroke="#083d9c" stroke-width="1.546pt"/><path d="M282.874 181.001l31.823 8.403v-44.895c-14.576.721-26.72-27.368-.972-29.288-25.263-3.601-28.179 2.881-31.093 9.843l.242 55.937z" font-size="12" fill="#ce1126" fill-rule="evenodd" stroke="#630810" stroke-width="1.932" stroke-linejoin="round"/><path d="M262.713 213.651l71.903.239" font-size="12" fill="#630810" fill-rule="evenodd" stroke="#630810" stroke-width="2.792" stroke-linecap="round"/><path d="M266.113 196.605l8.502 11.284m-8.502 0l9.231-11.043m-4.372-.961l-.243 6.962M279.716 196.605l8.502 11.284m-8.502 0l9.231-11.043m-4.372-.961l-.243 6.962M293.562 196.605l8.502 11.284m-8.502 0l9.231-11.043m-4.372-.961l-.243 6.962M307.894 196.605l8.502 11.284m-8.502 0l9.231-11.043m-4.372-.961l-.243 6.962M321.74 196.605l8.502 11.284m-8.502 0l9.231-11.043m-4.372-.961l-.243 6.962" fill="#630810" stroke="#630810" stroke-width="1.806" stroke-linecap="round" fill-rule="evenodd"/><path d="M214.373 214.371l30.606.24v-18.966l-34.98-1.679 4.373 20.405zm-1.458-26.167l32.551 3.121-.242-13.444-31.822-12.484-.487 22.807zm6.559-26.888l25.021 12.003 3.573-3.686s-2.301-1.567-2.187-3.008c.043-1.458 2.315-1.679 2.358-3.262.042-1.458-2.573-1.633-2.601-3.092-.171-1.581 2.015-3.276 2.015-3.276l-22.591-19.446-5.588 23.768zm164.209 53.295h-32.307l-.242-18.485 35.464-2.641-2.915 21.127zm.786-26.705c-.408-3.001-.836-5.995-1.531-8.938-.931-3.94-2.121-7.817-3.563-11.594l-.375-.813-27.625 11.563.25 13.688 32.844-3.906zm-18.875-44.437l-16.531 12.5-.031.063v.187c.142.717 1.602 2.48 1.813 3.781-.111 1.976-1.805 2.85-2.094 3.719l-.031.094v.283l.031.063.063.156c.454.688 2.063 1.088 2.063 2.531 0 1.576-1.47 2.513-1.656 2.625 1.905 1.257 2.253 2.788 2.656 4.344l24.75-12.875c-2.952-6.217-6.629-12.103-11.031-17.469zm-46.038 47.975l13.845-.599.242-5.524-14.088 6.123zm-42.268-.421l-14.575-.419v-5.762l14.575 6.182zm-.06-1.679l-14.515-7.383v-9.602s-1.701.239-1.458-1.681c.08-4.001 10.667 7.303 16.093 10.984l-.121 7.683zm42.326-.901l-.059-6.241s13.115-11.703 15.909-13.864c0 2.401-1.517 4.26-1.517 4.26v9.123l-14.332 6.722zm-85.019-52.575c.242.24 14.718 16.14 14.718 16.14.406-1.507 3.744-1.736 7.144-1.495 3.402.239 6.113-.225 6.113 2.176 0 2.4-1.726 2.059-1.726 3.74s2.586 1.54 2.586 3.698c0 2.161-1.875 1.72-1.885 3.393-.006 1.383 1.956 1.457 1.956 1.457l13.785 13.205.06-14.105-28.42-44.052-14.331 15.845zm22.74-16.681c.216.641 19.25 38.906 19.25 38.906s.216-35.913 3.46-37.837l-5.407-9.834-17.303 8.765zm62.131-4.124l-7.188 24.844s3.47.432 6.281.219c.703-.054 1.115.091 1.344.313l.125.188.063.156c.028.109.038.256.031.375-.05.678-.531 1.438-.531 1.438l-.031 16 20.313-35.875c-4.146-2.117-8.558-3.935-13.25-5.406-2.441-.923-4.811-1.653-7.156-2.25zm25.282 10.375l-25.125 38.625-.031 14.875 16.531-15.688c.202-.192.352-.36.438-.5l.063-.156.031-.094v-.189l-.031-.063-.063-.094c-.399-.471-1.713-.741-1.844-2.156.027-.279.093-.512.188-.688.358-.63 1.097-.742 1.563-1.313.242-.309.406-.759.406-1.5 0-.521-.061-.874-.156-1.094l-.031-.094-.094-.125-.031-.031-.031-.031c-.216-.182-.515-.217-.781-.406l-.063-.031-.094-.094-.125-.156c-.162-.245-.312-.642-.406-1.25-.049-.242-.064-.502 0-.75l.063-.156.063-.125c.053-.099.134-.219.219-.313l.094-.094c.581-.528 1.783-.938 4.031-.938 4.077 0 8.363-.782 9.063.875.07-.071 9.042-9.043 12.844-12.969-4.844-5.046-10.425-9.524-16.688-13.281z" fill="#ff9c10" fill-rule="evenodd"/><path d="M289.935 221.582c-6.921 11.33-25.425 7.97-29.752.06-1.297-.363-.53-48.8-.53-48.8s-2.068-.931-2.163-2.42c-.095-1.504 2.811-1.641 2.811-3.566 0-1.924-2.968-1.17-3.027-3.106.013-1.851 3.168-1.596 3.027-3.307-.167-1.928-3.534-1.643-3.677-3.421-.109-1.412 2.409-2.644 3.108-3.279-.453.022-2.339-.028-2.351-.034l-5.3.107c-3.765.004.065.811.01 2.958-.035 1.403-1.91 2.336-2.077 3.555-.059 1.252 2.683 2.131 2.717 3.634.031 1.341-2.694 1.432-2.596 2.678.169 2.108 2.414 2.572 2.38 3.849-.035 1.275-3.021 1.761-3.029 2.778.104 1.968.432 49.807.432 49.807 4.758 24.37 32.228 30.569 40.015-1.495zm18.113 0c6.921 11.33 25.424 7.97 29.751.06 1.297-.363.53-48.8.53-48.8s2.068-.931 2.162-2.42c.095-1.504-2.629-1.641-2.629-3.566 0-1.924 2.786-1.17 2.845-3.106-.012-1.851-2.925-1.716-2.784-3.428.166-1.928 2.453-1.702 2.583-3.48.109-1.531-1.436-2.464-2.136-3.099.452.022 2.217-.028 2.23-.034l5.299.107c3.766.004-.065.811-.009 2.958.034 1.403 1.909 2.336 2.077 3.555.059 1.252-2.684 2.131-2.718 3.634-.03 1.341 2.695 1.432 2.596 2.678-.169 2.108-2.414 2.572-2.38 3.849.034 1.275 3.021 1.761 3.028 2.778-.103 1.968-.432 49.807-.432 49.807-4.759 24.37-32.228 30.569-40.015-1.495z" font-size="12" fill="#ce1126" fill-rule="evenodd" stroke="#630810" stroke-width="1.932" stroke-linejoin="round"/><path d="M283.215 243.862l30.908-.018c.241-.24-6.92-10.55-15.449-9.823-9.502.246-15.956 9.841-15.459 9.841zm98.552-.744h-42.294s5.474-3.197 6.966-6.148c2.736 1.476 1.99 2.95 7.464 3.196 5.473.246 10.697-6.146 15.923-5.9 5.224.246 11.941 9.097 11.941 8.851zm-166.664 0h42.294s-5.474-3.197-6.966-6.148c-2.736 1.476-1.99 2.95-7.464 3.196-5.472.246-10.697-6.146-15.923-5.9-5.224.246-11.941 9.097-11.941 8.851zm3.157-13.142l30.121.239s-1.943-4.08-2.185-9.122c-7.775-2.64-14.09 5.761-19.677 6.002-5.586.239-11.415-6.002-11.415-6.002l3.157 8.882zm160.809 0l-30.122.239s1.944-4.08 2.186-9.122c7.774-2.64 14.089 5.761 19.677 6.002 5.586.239 11.416-6.002 11.416-6.002l-3.157 8.882zm-88.178.239l15.302-.479s.244-4.562-7.773-4.562c-8.016 0-7.287 5.282-7.53 5.041z" font-size="12" fill="#083d9c" fill-rule="evenodd" stroke="#083d9c" stroke-width="1.546pt"/><path d="M281.66 223.734c2.672-1.442 5.101-2.881 6.802-6.243l-10.446.239s-4.856 2.882-7.287 6.003h10.931zm33.765 0c-2.672-1.442-5.1-2.881-6.801-6.243l10.445.239s4.857 2.882 7.287 6.003h-10.931z" font-size="12" fill="#630810" fill-rule="evenodd" stroke="#630810" stroke-width="2.792" stroke-linecap="round"/><path d="M0 100v200h600v-200h-600zm290.625 12.598c12.5 0 23.438 0 35.938 4.724 70.312 22.047 79.687 121.26 17.188 159.056-10.937 7.873-21.875 11.024-34.375 12.598-9.375 0-18.75 0-28.125-1.574-68.75-14.174-90.625-105.513-39.063-152.757 14.063-12.598 29.688-18.898 48.437-22.047z" font-size="12" fill="#fff"/></svg>