<svg xmlns="http://www.w3.org/2000/svg" xmlns:xlink="http://www.w3.org/1999/xlink" width="900" height="600" viewBox="0 0 9 6"><title>Flag of Slovakia</title><path fill="#ee1c25" d="M0 0h9v6h-9z"/><path fill="#0b4ea2" d="M0 0h9v4h-9z"/><path fill="#fff" d="M0 0h9v2h-9z"/><clipPath id="c"><path id="a" d="M0 1.5c-.493-.238-1.199-.709-1.199-1.643 0-.933.045-1.357.045-1.357h2.31s.045.424.045 1.357-.706 1.405-1.199 1.643z"/></clipPath><g transform="translate(3.163 3)"><use xlink:href="#a" transform="scale(1.09)" fill="#fff"/><use xlink:href="#a" fill="#ee1c25"/><path id="b" d="M.106.345h-.211v-.515c-.151-.002-.413 0-.626.071l.006-.18-.006-.18c.232.078.493.072.626.07v-.324c-.122-.001-.297.005-.496.071l.006-.18-.006-.18c.198.066.373.072.495.071-.006-.205-.066-.463-.066-.463l.172.01z" fill="#fff"/><use xlink:href="#b" transform="scale(-1 1)"/><path d="M-.022 1.806l-1.022-.911s.131-.423.386-.423c.203 0 .277.163.277.163s.133-.345.382-.345c.248 0 .382.345.382.345s.074-.163.277-.163c.255 0 .386.423.386.423l-1.066.911z" fill="#0b4ea2" clip-path="url(#c)"/></g></svg>