<svg xmlns="http://www.w3.org/2000/svg" width="600" height="400" viewBox="0 0 750 500.01"><title>Flag of Swaziland</title><path fill-rule="evenodd" fill="#3e5eb9" d="M0 0h750v500.01h-750z"/><path fill-rule="evenodd" fill="#ffd900" d="M0 89.287h750v321.43h-750z"/><path fill-rule="evenodd" fill="#b10c0c" d="M0 125h750v250h-750z"/><rect fill-rule="evenodd" rx="5.279" ry="5.357" height="10.714" width="607.14" stroke="#000" y="244.65" x="74.767" stroke-width="1.35" fill="#ffd900"/><g stroke="#000" transform="matrix(1.008 0 0 1.008 -614.286 -25)"><path d="M1220.669 216.142l-30.118 10.63 30.118 10.63 30.118-10.63-30.118-10.63z" fill-rule="evenodd" fill="#FFF"/><rect fill-rule="evenodd" rx="3.851" ry="3.543" height="7.087" width="442.91" y="223.23" x="761.81" fill="#ffd900"/><path d="M1194.115 230.315c1.77 0 3.545-1.772 3.545-3.544s-1.775-3.544-3.545-3.544m-3.543 7.087c1.77 0 3.545-1.772 3.545-3.544s-1.775-3.544-3.545-3.544m-3.544 7.089c1.77 0 3.545-1.772 3.545-3.544s-1.775-3.544-3.545-3.544" fill="none"/></g><g stroke="#000" transform="matrix(1.008 0 0 1.008 -642.857 -3.571)"><path d="M1220.669 216.142l-30.118 10.63 30.118 10.63 30.118-10.63-30.118-10.63z" fill-rule="evenodd" fill="#FFF"/><rect fill-rule="evenodd" rx="3.851" ry="3.543" height="7.087" width="442.91" y="223.23" x="761.81" fill="#ffd900"/><path d="M1194.115 230.315c1.77 0 3.545-1.772 3.545-3.544s-1.775-3.544-3.545-3.544m-3.543 7.087c1.77 0 3.545-1.772 3.545-3.544s-1.775-3.544-3.545-3.544m-3.544 7.089c1.77 0 3.545-1.772 3.545-3.544s-1.775-3.544-3.545-3.544" fill="none"/></g><g fill-rule="evenodd"><path d="M338.07-.416c-5.571 12.442 4.275-4.138 28.299 16.691 4.452 3.87 8.342 14.09 8.342 21.177-1.13-.975-1.969-3.144-3.214-4.552-1.743 2.253 1.664 12.577 2.162 17.457-3.756-2.711-3.394-3.994-4.642-7.324.249 4.026-.645 15.116.849 19.386-2.96-1.09-2.764-4.163-4.31-4.78 1.052 4.834-.916 10.094-.394 15.528-1.73-2.208-3.573-3.938-4.376-4.829-.135 2.588-3.327 9.388-3.4 11.835-1.468-1.144-1.866-2.926-2.111-4.127-1.824 2.955-8.308 13.872-8.724 17.202-4.996-5.689-17.793-19.545-19.459-26.899-1.473 4.175-3.604 5.583-7.817 8.632-1.665-11.656-7.891-24.756-4.561-34.747-2.359 1.804-4.302 3.608-6.66 5.828 2.234-16.88 13.628-36.674 30.016-46.477z" transform="matrix(.972 0 0 .753 310.881 246.06)" stroke="#000" fill="#3d5da7"/><path d="M618.883 292.06c2.256-4.484 4.328-5.905 5.786-8.791 2.575-5.074 2.948-9.113 5.182-8.519 2.234.594 2.228 2.672-.677 7.661-2.905 4.989-4.283 6.054-10.292 9.649zm15.244 10.772c-.283-3.418.711-4.844.533-7.046-.303-3.873-1.883-6.532.178-6.72 2.061-.188 3.022 1.133 3.022 5.036 0 3.903-.606 4.927-3.733 8.73zm11.707 6.626c-.908-4.764-.237-6.879-.817-9.948-1.012-5.401-3.003-8.954-1.092-9.451 1.911-.497 3.067 1.249 3.798 6.726.732 5.477.352 6.984-1.889 12.673zm11.861-33.397c-2.813-2.132-4.455-2.274-6.269-3.645-3.196-2.404-4.812-4.977-5.84-3.699-1.028 1.279-.298 2.676 3.05 4.893 3.348 2.217 4.482 2.392 9.059 2.45zm-1.899 15.886c-1.489-3.08-3.051-3.861-4.014-5.843-1.702-3.482-1.71-6.495-3.549-5.723-1.839.772-1.984 2.349-.01 5.72 1.973 3.37 3.004 3.981 7.573 5.846z" fill="#a70000"/></g><g fill-rule="evenodd"><path d="M329.6 20.703c-.272-2.662.253-2.981-1.258-4.989 2.2.997 2.284 3.649 4.959 1.767.983-.551 1.411-.569.217-3.526 2.79.14 11.927 3.535 13.39 3.614 3.842.191 10.855-4.373 15.723 1.239 4.672 5.117 3.112 10.429 3.112 17.516-1.877-.975-.973-1.455-2.965-3.989 1.494 6.195-.08 17.364-.08 23.934-.767-1.584-.654-.896-1.404-2.537-1.992 5.997-4.38 7.231-4.38 14.318-.719-2.779-.025-2.192-.825-3.654-1.936 4.552-14.925 8.444-9.92 13.033-4.518-2.87-6.499-2.569-8.548-5.15-.882.617-1.584 1.785-2.404 3.387-7.943-3.96-5.103-12.501-11.326-18.206-1.077 2.392-.586 2.045-1.75 5.938-1.26-5.408-1.604-8.844-3.021-12.819-1.223 2.204-1.113 1.359-3.333 4.689-.918-6.587-2.413-8.142-1.822-12.501-2.359 1.804-.815 1.073-3.173 3.293 2.234-16.88 11.884-29.352 18.808-25.358z" transform="matrix(1.11 0 0 1.025 -265.004 233.56)" stroke="#000" fill="#3d5da7"/><path d="M90.237 282.941c2.264-5.564 4.31-7.311 5.772-10.893 2.583-6.296 2.997-11.328 5.178-10.561 2.181.767 2.15 3.359-.755 9.546-2.905 6.187-4.268 7.498-10.195 11.908zm8.419 14.088c.915-5 2.356-6.821 2.95-10.04 1.054-5.662.472-9.878 2.498-9.656 2.027.222 2.484 2.359 1.131 7.992-1.353 5.632-2.284 6.966-6.579 11.705zm10.291 9.729c.263-4.849 1.399-6.743 1.573-9.865.315-5.493-.735-9.424 1.195-9.448 1.93-.024 2.615 1.95 2.016 7.45-.599 5.499-1.315 6.872-4.784 11.864zm22.166-31.807c-4.226-4.209-6.781-4.993-9.506-7.7-4.802-4.754-7.124-9.217-8.832-7.634-1.708 1.583-.68 3.954 4.376 8.478 5.056 4.523 6.814 5.182 13.962 6.856zm-2.618 16.313c-2.75-4.229-4.768-5.324-6.542-8.045-3.13-4.782-4.205-8.891-5.981-7.873-1.776 1.018-1.379 3.166 2.013 7.801 3.393 4.634 4.757 5.486 10.51 8.117z" fill="#a70000"/></g><g fill-rule="evenodd"><path d="M637.8 230.32c-53.15 59.05-124.02 177.16-265.75 177.16-124.02 0-212.6-118.11-265.75-177.16 53.15-59.06 141.73-177.17 265.75-177.17 141.73 0 212.6 118.11 265.75 177.17z" transform="matrix(.672 0 0 .605 125.008 110.722)" stroke="#000" stroke-width="1.976" fill="#FFF"/><path d="M362.552 180.157c9.502 10.691 1.568 15.001 11.626 15.703 10.607.779 4.594 11.297 13.517 11.662 6.238.272-.623 25.199 5.382 33.424 6.117 8.575 11.239 2.513 11.347 8.708.106 6.407-16.647 5.761-16.941 25.498-.491 11.374-14.138 12.102-14.789 19.421-.81 6.884 26.885 10.748 26.516 16.911-.38 6.144-29.905 5.182-31.19 12.188-.659 6.293 40.561 11.451 43.876 29.653-6.151 2.012-23.65 3.906-36.877 3.917-83.328.06-142.86-71.463-178.577-107.188 35.717-35.731 95.243-107.188 178.584-107.188 0 0-24.738 22.611-12.465 37.284z"/><path d="M263.144 211.907h8.664v28.595h-8.664zm0 47.658h8.664v28.595h-8.664zm17.325-47.658h8.664v28.595h-8.664zm0 47.658h8.664v28.595h-8.664zm17.326-47.658h8.664v28.595h-8.664zm0 47.658h8.664v28.595h-8.664zm17.33-47.658h8.664v28.595h-8.664zm0 47.658h8.664v28.595h-8.664zm17.325-47.658h8.664v28.595h-8.664zm0 47.658h8.664v28.595h-8.664zm17.325-47.658h8.664v28.595h-8.664zm0 47.658h8.664v28.595h-8.664z" font-size="12" fill="#FFF"/><path d="M394.097 211.907h8.664v28.595h-8.664zm0 47.658h8.664v28.595h-8.664zm17.325-47.658h8.664v28.595h-8.664zm0 47.658h8.664v28.595h-8.664zm17.326-47.658h8.664v28.595h-8.664zm0 47.658h8.664v28.595h-8.664zm17.33-47.658h8.664v28.595h-8.664zm0 47.658h8.664v28.595h-8.664zm17.325-47.658h8.664v28.595h-8.664zm0 47.658h8.664v28.595h-8.664zm17.325-47.658h8.664v28.595h-8.664zm0 47.658h8.664v28.595h-8.664z" font-size="12"/></g><g fill-rule="evenodd"><path d="M338.07-.416c-5.571 12.442 9.754-4.138 33.778 16.691 4.452 3.87 10.833 19.159 10.833 26.245-5.115-1.256-14.173-7.087-14.173-7.087s10.63 12.295 10.63 26.468c-3.756-2.711-5.635-2.304-6.883-5.635 0 4.589 3.34 7.513 3.34 14.599-2.711-2.498-5.006-4.163-7.3-5.625 3.543 7.087-6.457 20.834-1.452 25.423-8.752-1.462-17.707-7.919-21.25-15.006-1.878 1.462-2.082 3.756-2.155 6.203.276.264-13.322-11.656-12.073-16.235-1.824 2.955-2.081 4.579-2.497 7.909-4.996-5.689-9.574-11.378-11.24-18.733l-4.579 6.66c-1.665-11.656-1.665-11.24 1.665-21.23-2.359 1.804-4.302 3.608-6.66 5.828 2.234-16.88 13.628-36.674 30.016-46.477z" transform="matrix(.887 0 0 .769 17.095 162.2)" stroke="#000" fill="#3d5da7"/><path d="M305.062 208.607c.791-6.593 2.515-9.076 3.03-13.321.919-7.467-.169-12.926 2.475-12.786 2.644.14 3.406 2.895 2.097 10.346-1.308 7.45-2.411 9.26-7.603 15.762zm13.745 12.061c-.532-5.561.497-7.928.16-11.511-.583-6.303-2.527-10.575-.22-10.966s3.471 1.724 3.715 8.089c.244 6.364-.374 8.06-3.654 14.388zm21.521 9.785c-2.339-4.806-4.35-6.239-5.86-9.333-2.667-5.437-3.221-9.878-5.282-9.072-2.061.806-1.949 3.103 1.022 8.425 2.971 5.322 4.315 6.407 10.12 9.979zm7.524-43.057c-5.971-3.139-9.037-3.178-12.885-5.195-6.776-3.537-10.72-7.534-12.119-5.333-1.399 2.2.47 4.388 7.455 7.603s9.131 3.367 17.549 2.925zm2.255 18.182c-4.352-3.628-6.924-4.164-9.73-6.496-4.944-4.095-7.405-8.114-9.055-6.487-1.65 1.626-.547 3.778 4.642 7.636s6.963 4.339 14.143 5.347z" fill="#a70000"/></g></svg>