<svg xmlns="http://www.w3.org/2000/svg" version="1" width="675" height="450"><path d="M0 0h675v225h-375l-300-225z" fill="#dc171d" fill-rule="evenodd"/><path d="M0 450h675v-225h-375l-300 225z" fill="#012a87" fill-rule="evenodd"/><path d="M0 0l300 225-300 225v-450z" fill="#fff" fill-rule="evenodd"/><path d="M-484.662 1727.751"/><path d="M151.614 169.511l.092-3.482s-1.871-2.979.301-6.179c0 0-4.614-2.439-3.54-6.259 0 0-4.173-1.066-3.866-5.652 0 0-4.504-.312-4.97-4.143 0 0-4.504.741-6.486-2.992 0 0-4.393.858-5.633-2.219 0 0-4.271 1.478-6.805-2.139 0 0-4.51 1.821-6.4-1.594-1.865 3.403-6.375 1.594-6.375 1.594-2.504 3.604-6.805 2.109-6.805 2.109-1.197 3.09-5.578 2.213-5.578 2.213-1.976 3.734-6.474 2.991-6.474 2.991-.442 3.82-4.94 4.132-4.94 4.132.356 4.597-3.81 5.64-3.81 5.64 1.098 3.819-3.51 6.252-3.51 6.252 2.227 3.219.374 6.173.374 6.173l-.104 3.211 74.541.344" fill="#ff0"/><path d="M151.499 169.927l.092-3.486s-1.872-2.982.3-6.185c0 0-4.615-2.441-3.54-6.265 0 0-4.172-1.067-3.866-5.658 0 0-4.504-.312-4.97-4.147 0 0-4.504.742-6.485-2.995 0 0-4.394.859-5.633-2.222 0 0-4.271 1.48-6.805-2.141 0 0-4.51 1.822-6.4-1.596-1.866 3.406-6.376 1.596-6.376 1.596-2.504 3.608-6.805 2.111-6.805 2.111-1.196 3.093-5.577 2.216-5.577 2.216-1.976 3.738-6.473 2.995-6.473 2.995-.442 3.823-4.939 4.136-4.939 4.136.356 4.603-3.81 5.646-3.81 5.646 1.099 3.822-3.51 6.258-3.51 6.258 2.228 3.222.374 6.18.374 6.18l-.104 3.215 74.541.344h-.012z" fill="#f9d90f" stroke="#000" stroke-width=".273"/><path d="M149.756 165.575c-11.708-1.172-25.188-3.952-35.595 1.909-6.977-4.112-16.69-3.86-24.961-3.056-4.492.804-9.775.804-14.469 1.571l-.736.104c-8.517.565-16.242-1.951-23.642-5.259 2.35 13.34 4.958 27.011 6.24 40.977 2.792 20.684-9.787 38.05-4.627 58.483 3.08 9.805 13.861 15.505 23.728 16.635 9.554.564 19.439 2.129 28.281 4.049 1.681.35 3.675 1.13 4.835 1.632 2.436 1.019 4.222 2.516 5.786 4.118 5.338-5.56 13.162-7.106 20.881-7.922 13.91-1.626 31.061-.742 39.577-13.345v-.712c4.627-6.971 4.013-17.604 2.006-25.501-.135-2.755-.871-5.185-1.27-7.811-8.498-22.446-1.221-47.69 2.436-70.314-4.467 2.442-9.45 3.596-14.42 4.817-3.964.528-8.382.288-12.395.073l-1.663-.448" fill="#dc171d"/><path d="M167.244 229.992c-.055 1.478.742 2.639 1.031 4.006 1.626 9.812 3.197 22.808-6.903 28.895-11.174 7.105-25.827 4.062-38.755 7.823-2.583.718-6.142 3.093-7.958 4.774-1.166-.767-2.338-1.945-3.841-2.638-10.64-5.657-24.471-3.762-36.479-6.818-6.032-1.908-12.321-6.608-13.849-12.781-3.927-16.199 5.479-30.005 4.369-46.075-.718-12.272-2.78-24.053-5.614-35.558 9.388 4.374 20.255 5.105 30.809 3.007 7.817-1.093 16.917-1.117 24.244 2.191 4.038-1.737 8.762-2.516 13.113-2.995 8.271.804 17.163 2.301 25.679 2.24 5.688-.295 10.855-1.94 15.8-4.13-2.933 19.016-8.566 38.934-1.651 58.06" fill="#62afe1"/><path d="M150.358 233.784l-.092-17.88h2.203l-27.33-17.653-.049-9.173h2.639l-13.665-9.786-13.597 9.781h2.632l.049 9.167-27.183 17.629 2.172.012.092 17.869 72.123.049" fill="#fff"/><path d="M150.358 233.784l-.092-17.88h2.203l-27.33-17.653-.049-9.173h2.639l-13.665-9.786-13.597 9.781h2.632l.049 9.167-27.183 17.629 2.172.012.092 17.869 72.123.049.006-.013z" stroke="#000" stroke-width="1.173" fill="none"/><path d="M158.758 257.273l.006 5.595-88.046-.098-.037-5.572 88.083.074" fill="#fff"/><path d="M158.758 257.273l.006 5.595-88.046-.098-.037-5.572 88.083.074h-.006z" stroke="#000" stroke-width="1.173" fill="none"/><path d="M76.566 256.936l-.074-18.936 3.565-.007-.196 19.157.215-19.003-5.136-.147v-4.063l78.689.087.037 4.025h-4.854l.092 19.175-.172-19.175h3.614l.08 18.96" fill="#fff"/><path d="M76.566 256.936l-.074-18.936 3.565-.007-.196 19.157.215-19.003-5.136-.147v-4.063l78.689.087.037 4.025h-4.854l.092 19.175-.172-19.175h3.614l.08 18.96m-58.943-4.737l-.055-13.205h-10.566l.061 13.192 10.56.013m-7.744-10.45l.031 7.67h4.835l-.025-7.67h-4.841m59.397 10.486l-.061-13.192-10.529-.012.049 13.204h10.542m-7.745-10.437l.055 7.646h4.829l-.043-7.646h-4.841M145.056 230.808l-.061-13.205h-10.542l.037 13.205h10.572-.006zm-7.744-10.425l.031 7.658h4.829l-.006-7.658h-4.854M93.397 230.759l-.074-13.18-10.548-.013.049 13.186h10.572v.007zm-7.744-10.426l.025 7.646 4.841.012-.037-7.658h-4.829m26.864 10.45l-.049-13.18-10.554-.012.043 13.192h10.56m-7.738-10.437l.025 7.646 4.835.025-.031-7.67h-4.829m22.476 10.461l-.074-13.205-10.548-.012.049 13.192 10.572.025m-7.748-10.449l.037 7.67h4.835l-.025-7.67h-4.847" stroke="#000" stroke-width="1.173" fill="none"/><path d="M129.869 226.758l.117 30.441-30.576-.049-.11-30.416 30.564.024" fill="#fff"/><path d="M129.869 226.758l.117 30.441-30.576-.049-.11-30.416 30.564.024h.006zm-30.753 8.689l30.785.025m-26.944 21.715l-.104-21.513m23.415 21.525l-.104-21.5m14.867-21.906l-17.218-12.573-19.347-.025-17.083 12.549 53.647.049m-35.073-23.01l.031 7.67 16.273.012-.031-7.67-16.273-.012m4.412 1.902l.025 3.822h7.474l-.025-3.822h-7.474m3.694-10.628l9.051 6.399-18.034-.024 8.983-6.375" stroke="#000" stroke-width="1.173" fill="none"/><path d="M150.658 177.719c2.571-.061 3.234 10.591 3.24 15.868 2.209.62 7.106 3.701 9.272 6.486l-24.839-.037c2.135-2.748 6.995-5.842 9.186-6.461 0-5.284.54-15.929 3.142-15.868" fill="#fff"/><path d="M150.658 177.719c2.571-.061 3.234 10.591 3.24 15.868 2.209.62 7.106 3.701 9.272 6.486l-24.839-.037c2.135-2.748 6.995-5.842 9.186-6.461 0-5.284.54-15.929 3.142-15.868m-49.93 49.904h2.227l-.65 1.196s1.074 1.381.018 2.964l.583 1.099h-2.148l.583-1.044s-1.098-1.834.049-3.019l-.663-1.196m4.542 0h2.227l-.644 1.196s1.074 1.344.006 2.964l.577 1.099h-2.141l.577-1.044s-1.074-1.834.055-3.019l-.657-1.196M110.222 227.611h2.221l-.663 1.196s1.086 1.381.018 2.964l.583 1.123-2.129-.024.571-1.044s-1.086-1.822.043-3.019l-.65-1.196h.006zm5.59.012h2.24l-.657 1.209s1.074 1.357.006 2.945l.601 1.117h-2.16l.577-1.043s-1.074-1.847.074-3.019l-.675-1.209h-.006zm4.97 0h2.221l-.657 1.209s1.08 1.357.012 2.939l.589 1.123h-2.141l.558-1.043s-1.08-1.835.086-3.019l-.669-1.209m4.94.012l2.221-.012-.657 1.209s1.098 1.357.031 2.945l.558 1.117h-2.148l.577-1.043s-1.074-1.835.074-3.019l-.657-1.197" stroke="#000" stroke-width="1.173" fill="none"/><path d="M114.732 296.218c11.45.037 25.532-2.301 32.128-5.712l14.487-1.283.288 17.679c-12.272 6.767-40.608 8.222-46.843 8.173-6.24.049-34.926-1.429-47.254-8.222l.16-17.691 14.518 1.307c6.596 3.394 21.108 5.749 32.546 5.749h-.031" fill="#f9d90f"/><path d="M114.732 296.218c11.45.037 25.532-2.301 32.128-5.712l14.487-1.283.288 17.679c-12.272 6.767-40.608 8.222-46.843 8.173-6.24.049-34.926-1.429-47.254-8.222l.16-17.691 14.518 1.307c6.596 3.394 21.108 5.749 32.546 5.749h-.031" stroke="#000" stroke-width=".273" fill="none"/><path d="M30.245 220.812l12.763 4.062-3.86 20.667-12.082 1.877s-2.037-10.867 3.178-26.618" fill="#f9d90f"/><path d="M30.245 220.812l12.763 4.062-3.86 20.667-12.082 1.877s-2.037-10.867 3.178-26.618v.012z" stroke="#000" stroke-width=".273" fill="none"/><path d="M39.142 245.313l-12.076 2.105 7.639-10.867 4.436 8.762" fill="#7e7e7e"/><path d="M39.142 245.313l-12.076 2.105 7.639-10.867 4.436 8.762" fill="#f9b60f" stroke="#000" stroke-width=".273"/><path d="M22.611 235.699l12.303.889c.276 10.426 1.54 50.212 49.045 52.372l-1.479 14.475c-57.826.601-62.22-48.8-59.869-67.736" fill="#f9d90f"/><path d="M22.611 235.699l12.303.889c.276 10.426 1.54 50.212 49.045 52.372l-1.479 14.475c-57.826.601-62.22-48.8-59.869-67.736zm45.156 70.699l14.499-3.166" stroke="#000" stroke-width=".273" fill="none"/><path d="M198.213 220.959l-12.714 4.025 4.031 20.636 12.106 1.945s1.945-10.86-3.424-26.618" fill="#ff0"/><path d="M198.213 220.959l-12.714 4.025 4.031 20.636 12.106 1.945s1.945-10.86-3.424-26.618v.012z" fill="#f9d90f" stroke="#000" stroke-width=".273"/><path d="M189.53 245.405l12.106 2.172-7.744-10.872-4.363 8.7" fill="#7e7e7e"/><path d="M189.53 245.405l12.106 2.172-7.744-10.872-4.363 8.7" fill="#f9b60f" stroke="#000" stroke-width=".273"/><path d="M205.987 235.864l-12.321.841c-.178 10.412-1.086 50.217-48.591 52.328l1.614 14.463c57.814.668 61.79-48.709 59.299-67.638" fill="#f9d90f"/><path d="M205.987 235.864l-12.321.841c-.178 10.412-1.086 50.217-48.591 52.328l1.614 14.463c57.814.668 61.79-48.709 59.299-67.638v.006zm-44.548 70.613l-14.536-3.184" stroke="#000" stroke-width=".273" fill="none"/><path d="M107.043 304.931c-.325.209-.767.264-1.276.239l-2.295-.117.196-2.865 2.276.122c.448.031.804.117 1.025.252.46.239.663.682.62 1.295-.031.528-.215.872-.552 1.074m-3.853 4.511l.227-3.492 2.675.185c.865.067 1.509-.16 1.945-.602.454-.43.687-.993.718-1.632.055-.743-.135-1.351-.577-1.798-.423-.43-1.025-.657-1.779-.73l-3.823-.239-.528 8.222 1.135.074m8.327-6.867l2.798.031c.405.037.724.086.957.196.43.202.632.607.632 1.197 0 .553-.16.921-.472 1.142-.301.202-.736.294-1.258.294l-2.688-.031.025-2.829m-.043 7.283l.025-3.51 2.626.037c.466 0 .81.036 1.049.153.387.178.577.553.595 1.068l.067 1.381.043.669.104.277h1.411l-.025-.179c-.16-.086-.288-.251-.344-.503-.049-.16-.074-.399-.086-.7l-.025-1.098c-.018-.497-.104-.84-.295-1.031-.166-.221-.393-.411-.742-.528.393-.208.687-.447.902-.742.202-.325.307-.736.307-1.239 0-.945-.387-1.59-1.172-1.939-.423-.19-.963-.289-1.602-.301l-3.945-.037-.031 8.247h1.135m8.759-1.749c-.503-.613-.773-1.38-.834-2.288-.055-1.142.166-2.013.687-2.602.528-.638 1.209-.944 2.099-.993.896-.049 1.632.239 2.178.803.558.553.877 1.32.933 2.277.031.92-.129 1.736-.552 2.454-.417.731-1.111 1.142-2.135 1.166-1.068.056-1.865-.196-2.375-.816m-1.35-5.191c-.528.816-.742 1.761-.687 2.903.08 1.233.46 2.252 1.178 3.019.798.767 1.853 1.153 3.154 1.079 1.393-.061 2.442-.589 3.154-1.558.577-.877.853-1.897.792-3.155-.08-1.123-.405-2.037-1.012-2.718-.767-.914-1.89-1.319-3.412-1.257-1.436.091-2.491.619-3.172 1.687m38.754-11.862c.792-.135 1.479-.098 2.105.117.92.288 1.54.97 1.927 2.013l-1.135.16c-.245-.564-.595-.95-1.068-1.166-.46-.202-1.037-.252-1.7-.153-.773.117-1.393.503-1.829 1.123-.43.662-.558 1.546-.368 2.675.16.933.503 1.724 1.068 2.252.522.54 1.289.73 2.289.589.749-.123 1.35-.423 1.773-.939.442-.49.571-1.233.423-2.191l-2.645.406-.135-.908 3.682-.565.718 4.363-.73.11-.454-1.006c-.307.455-.614.804-.884 1.006-.454.356-1.068.584-1.835.694-.994.153-1.902-.025-2.724-.553-.902-.669-1.485-1.663-1.706-3.043-.239-1.356-.025-2.516.601-3.431.595-.883 1.46-1.398 2.626-1.565m8.327-.626l2.639-.957c.362-.134.675-.178.945-.147.485.036.841.325 1.043.901.19.491.19.92-.025 1.222-.227.312-.583.54-1.098.73l-2.479.89-1.025-2.639m2.639 6.818l-1.289-3.307 2.454-.884c.46-.147.779-.227 1.019-.202.436.055.767.319.988.822l.558 1.258c.123.312.221.503.301.589.037.11.117.178.178.251l1.332-.49-.074-.178c-.196 0-.387-.11-.528-.326-.104-.153-.202-.374-.344-.631l-.436-1.031c-.196-.448-.399-.723-.632-.89-.233-.129-.528-.215-.877-.239.27-.314.466-.626.54-.995.08-.374.043-.791-.135-1.257-.337-.877-.957-1.356-1.829-1.417-.46-.037-.988.061-1.595.276l-3.706 1.32 2.994 7.755 1.086-.399m9.647-4.112l-4.706-6.867 5.167-3.295.571.829-4.234 2.705 1.448 2.099 3.909-2.516.534.804-3.909 2.516 1.595 2.313 4.308-2.756.571.811-5.259 3.356m4.122-12.137l1.35-1.485c.626-.663 1.289-.963 2.013-.877.724.061 1.46.442 2.246 1.129.215.166.405.38.601.62.344.448.546.841.675 1.233.11.491.086.939-.086 1.369-.104.214-.288.466-.565.767l-1.356 1.473-4.878-4.24m7.13 3.233c.957-1.055 1.166-2.19.607-3.472-.325-.694-.822-1.369-1.509-1.958-.865-.767-1.767-1.16-2.718-1.233-1.055-.08-1.951.301-2.731 1.153l-2.301 2.467 6.345 5.535 2.301-2.479m4.921-6.413l-7.302-4.289.595-.944 7.314 4.265-.601.981m2.86-4.995l-7.885-3.155 2.326-5.547.957.368-1.896 4.571 2.375.933 1.773-4.21.908.375-1.755 4.203 2.657 1.079 1.945-4.626.957.361-2.369 5.646m3.627-9.681l-8.296-1.835.276-1.282 7.664-2.589-6.731-1.485.245-1.006 8.296 1.785-.264 1.246-7.676 2.645 6.731 1.454-.239 1.068m-.663-10.537l.104-1.043c.479.013.884-.061 1.19-.226.601-.326.951-.945 1.043-1.86.037-.429.018-.804-.08-1.16-.178-.687-.565-1.068-1.184-1.129-.46-.049-.792.061-1.031.314-.215.288-.442.705-.614 1.295l-.38 1.086c-.245.711-.472 1.202-.718 1.478-.393.516-.945.694-1.651.645-.755-.08-1.368-.38-1.804-.957-.448-.528-.632-1.282-.522-2.216.074-.852.356-1.57.859-2.147.466-.528 1.19-.78 2.117-.682l-.086 1.043c-.454 0-.816.08-1.08.264-.479.264-.742.822-.822 1.638-.067.676.025 1.129.282 1.473.258.288.583.472.963.503.405.037.724-.092.945-.404.16-.215.35-.682.607-1.436l.374-1.141c.184-.528.405-.933.663-1.221.46-.479 1.062-.681 1.816-.625.92.098 1.577.479 1.914 1.178.331.706.46 1.485.38 2.369-.104 1-.43 1.786-1.031 2.313-.601.539-1.35.723-2.258.65m-171.971-.505l.19 1.03c-.46.092-.828.277-1.098.516-.485.453-.65 1.135-.485 2.062.074.392.215.779.393 1.086.368.626.847.877 1.454.779.448-.08.742-.251.884-.57.135-.314.233-.792.264-1.405l.055-1.16c.037-.718.117-1.282.276-1.595.252-.565.724-.914 1.43-1.03.755-.136 1.417.036 1.988.466.577.399.957 1.092 1.098 2.013.178.841.098 1.596-.233 2.276-.319.663-.933 1.068-1.871 1.239l-.184-1.043c.436-.16.761-.314.976-.528.368-.412.479-1.006.337-1.822-.11-.663-.337-1.093-.681-1.307-.337-.252-.675-.35-1.043-.288-.411.061-.681.288-.81.657-.08.245-.141.754-.196 1.534l-.055 1.202c-.031.565-.117 1.031-.307 1.351-.301.588-.81.95-1.552 1.067-.939.16-1.663-.055-2.178-.657-.528-.589-.853-1.295-1.019-2.172-.184-1.043-.049-1.853.368-2.503.423-.669 1.092-1.055 2-1.184m-.522 10.866l8.112-2.442 1.89 5.712-.988.313-1.546-4.694-2.467.743 1.43 4.338-.945.301-1.417-4.35-2.749.822 1.571 4.798-.969.277-1.921-5.817m3.594 9.902l7.461-3.957.798 1.392-5.13 5.424 7.492-1.282.773 1.381-7.443 3.933-.528-.915 4.393-2.313c.16-.093.405-.228.761-.417.35-.16.742-.375 1.135-.577l-7.461 1.27-.546-.969 5.093-5.406-.245.123c-.16.091-.436.227-.81.441-.368.228-.644.368-.822.442l-4.381 2.35-.54-.932m13.905 11.001c-.374-.085-.742-.301-1.104-.675l-1.577-1.626 2.123-1.945 1.589 1.621c.307.301.503.595.607.847.147.484 0 .927-.448 1.343-.405.374-.81.528-1.19.436m-5.995.755l2.602-2.387 1.847 1.871c.595.607 1.203.884 1.841.872.65-.037 1.209-.277 1.7-.743.552-.491.816-1.068.816-1.687-.006-.602-.282-1.166-.792-1.694l-2.651-2.707-6.173 5.67.798.804m7.455 6.627l4.473-7.014 5.289 3.215-.552.835-4.344-2.602-1.344 2.123 3.995 2.423-.515.804-4.001-2.411-1.522 2.374 4.4 2.645-.528.828-5.351-3.222m13.241-1.354l2.688.854c.38.116.657.263.841.43.344.325.436.791.233 1.355-.166.491-.417.81-.81.946-.35.061-.792.061-1.307-.099l-2.534-.809.89-2.676m-2.319 6.891l1.117-3.344 2.504.816c.448.117.773.277.933.442.307.276.399.687.245 1.197l-.374 1.331-.166.638.018.288 1.319.43.08-.19c-.141-.11-.221-.312-.215-.564.031-.154.074-.399.16-.682l.319-1.068c.129-.466.178-.816.061-1.067-.098-.264-.264-.504-.54-.73.417-.074.779-.203 1.086-.43.288-.252.534-.601.681-1.092.301-.89.135-1.633-.528-2.197-.331-.294-.804-.546-1.424-.779l-3.755-1.159-2.626 7.823 1.098.337" fill="#012a87"/><path d="M68.988 154.458c.969-2.338 9.953-8.714 39.43-5.922 0 0 4.982 3.043 7.909 2.651 1.669-.215-.982.104-3.16-1.706-2.221-1.81-2.694-5.522 2.381-5.424 5.05.129 23.955 1.197 24.311 2.896.331 1.718-9.996 2.436-13.837 2.338-3.86-.104-3.412 1.848.43 1.7 12.002-.43 25.103-4.658 38.939 5.13 1.651 1.19-4.173 1.38-8.676-.534 0 0-12.205.633-17.482-.233 0 0-4.056 3.301-9.339 2.976.687 1.711-1.951 8.1-18.562 3.294-2.743.841-12.738 2.516-11.646-.453-2.632 0-7.247.847-7.934-.651-.663-1.472 8.124-3.7 9.664-5.295 0 0-18.586.178-22.108-1.105 0 0-10.965 2.461-10.321.326" fill="#bc715f"/><path d="M74.946 180.486c.399-.539.558-1.509 1.405-1.484 1.841.49 3.093 3.859 5.357 1.675.804-.178 1.111.915 1.773 1.044.423 1.871 1.927-.38 3.05-.252 2.399-1.068 5.369-1.319 8.21-.792.086 1.835-1.35 3.86-3.154 4.903.037 1.848 1.712 3.032 1.681 4.89-.288.694-.049 1.786-1.098 2.013-1.332-.239-2.645-.38-3.749-1.123-.135-.135-.245-.399-.528-.313-.135.62.835 1.234 1.215 1.865-.669 1.141-1.779.098-2.712.11-.276.657-.012 1.485-.687 1.908-1.178-.037-1.417-1.319-2.141-1.957-.742.804.522 1.282.7 1.921-.454 2.418-.393 4.78-2.81 6.363l-1.62.804c-.442-1.215-.166-3.056-.46-4.327-.957 1.559-1.706 2.921-3.111 4.24-1.644-.54-2.602-2.479-2.964-4.087-.687-1.871-.295-4.111 1.184-5.467-.503-.982-2.227-.755-2.473-2.153-2.583-1.682-4.013 2.945-5.682.539-.54-2.245.104-5.038 1.73-6.713-.362-.92-1.565-.68-2.276-1.208-1.626-1.381-3.97-2.841-3.853-5.333 4.449-1.681 9.769-.447 13.002 2.933" fill="#008830"/><path d="M77.253 180.235c-.104 2.037 1.374.552 2.473 1.785-.859-.337-1.485 1.485-2.326.442l-.528.504c.307.699.902.791.282 1.558-.92.35-1.104-.803-1.534-1.258-.074-.202.141-.583-.196-.718-.522.442-1.068.601-1.786.528-.196-.393-.577-.908-.19-1.209.706-.952 1.798.343 2.332-.325.086-.589-.43-1.307.239-1.713.46.08 1.049-.171 1.239.406m5.499 1.668c.055.393-.202.945.313 1.222.669-.363 1.381-.087 1.767.577-.006.355.104.822-.362.993l-1.043-.196c.074-.203-.258-.331-.387-.528-.46-.141-.73.233-1.074.46.258.393.853.607.712 1.111-.614.613-.914-.528-1.589-.24-.46-.177.166-1.135-.558-1.423-.859 0-.288 1.411-1.387.859-.393-.442-.779-1.037-.356-1.534.46-.307 1.239-.228 1.632.171.669-.742.736-3.607 2.338-1.473m-6.86 2.959c.448.645-.098 1.522.472 2.24.896-1.675 1.761.362 2.829.202.325.399.11.952.172 1.405-1.319.35-2.908.767-4.074-.288l-.325.374c.693.645 1.35 1.374.798 2.454-.988.215-2.516.239-3.013-.779-.258-.84.601-1.447-.307-2.123-.657.816-.626 1.909-1.994 1.166-.847-.466-1.098-1.429-.675-2.24.884-1.393 2.43.044 3.387-.638.135-1.197-.307-2.24.792-2.902.939-.166 1.374.539 1.945 1.128" fill="#f9d90f"/><path d="M79.646 185.591c-.442 2.037-1.976-.104-2.694-.19.957-1.699 1.559.553 2.694.19m4.78 2.216c-1.068.3-.902-1.031-1.43-1.553l.411-.374c.387.466.681 1.308 1.019 1.927" fill="#fff"/><path d="M82.978 187.401c.307.706-.693 1.271.16 1.786.27-.226.601-.54.742-.669.73.215 1.577.344 2.086 1.068.546 1.498-.969 1.46-1.829 1.878l-.853-.037c.202-.417-.368-.595-.509-.883-.393-.098-.718.024-.939.355.19.952 1.35 1.694.153 2.54-1.012-.067-2.583.325-2.491-1.074-.38-.792 1.031-2.013-.479-2.061-.497 1.068-1.043 2.098-2.338 1.086l.16-1.522c1.239.036 2.706.251 3.264-1.135.356-1.006-.62-1.933.252-2.731 1.264-.288 1.976.558 2.62 1.398" fill="#f9d90f"/><path d="M82.07 189.69c.319.755-.54.804-.945 1.178-.546.044-.927-.172-1.258-.54-.245-.914.436-1.006.957-1.368.607-.252.859.453 1.246.73"/><path d="M81.327 190.181c-.135.178-.325.123-.528.172l-.19-.914c.405.036.933.165.718.742" fill="#fff"/></svg>