<svg xmlns="http://www.w3.org/2000/svg" width="1200" height="600" version="1"><defs><marker viewBox="0 0 10 10" refY="5" markerWidth="4" orient="auto"><path d="M0 0l10 5-10 5v-10z"/></marker><marker viewBox="0 0 10 10" refX="10" refY="5" markerWidth="4" orient="auto"><path d="M10 0l-10 5 10 5v-10z"/></marker></defs><path d="M1200.001 600v-600h-1200v600h1200z" fill="#006"/><path d="M1008.938 170.989v85.175c0 69.928-27.467 133.94-108.953 172.848-81.486-38.908-108.953-102.92-108.953-172.848v-85.175h217.907z" fill="#fff" fill-opacity=".996"/><path d="M1001.608 179.669v79.444c0 65.223-25.619 124.928-101.623 161.219-76.004-36.291-101.623-95.996-101.623-161.219v-79.444h203.246z" fill="#fdc300" fill-opacity=".996"/><g stroke="#000" stroke-width=".063"><path d="M852.583 214.494c-1.471-1.103-3.066-1.778-5.27-1.839.487-5.395-3.433-7.724-6.253-8.705-2.816-.981-3.799-2.084-4.287-4.291-.492-2.207-1.962-3.555-4.537-4.291-2.575-.736-4.783-3.31-5.762-4.537-.979-1.226-1.35-.981-2.083 1.103-.737 2.084-3.679 6.008-.983 6.13-1.958 1.593-3.062 3.433-1.837 5.885-1.35 1.103-2.329 2.697-.492 3.31 1.841.613 2.329 1.103 2.454 1.594-1.654 0-2.083 3.31 1.837 4.046-.858.123-1.225 2.82.371 2.82-2.208 0-4.049 3.311-6.866 3.311-2.82 0-4.291.613-4.412 1.839-.125 1.226-1.596 2.697-2.329 3.31 2.083.245 3.429 0 4.533-.858 1.104-.858 2.941-1.103 4.17-.123 1.225.981 3.799 1.471 5.024 1.226-2.695 1.839-4.658 4.291-4.903 6.621-.246 2.33-1.837 5.027-3.679 5.763-1.837.735-4.287 2.697-5.145 5.027 2.329 5.762 5.632 7.186 8.944 8.704 5.887 2.698 9.561 4.659 12.015 7.356 2.45 2.697 3.433.735 7.107 5.394 3.679 4.659 7.111 13.486 10.786 14.958 3.679 1.471 8.336.49 11.032-4.169 2.7-4.659 4.416-51.738-9.436-59.585z" fill="#ff9e3d"/><path d="M858.836 194.877c-3.433 3.678-7.849 7.356-7.111 13.977.737 6.621 1.471 17.41-4.658 21.088-6.128 3.678-9.069 12.996-1.716 18.39 7.353 5.395 7.599 12.016 8.824 18.146 1.229 6.13 4.416 11.034 9.319 6.866 4.899.735 7.599-1.226 7.599-5.149s.246-6.13 3.92-7.356c3.679-1.226 4.658-2.452 6.374-5.762 1.716-3.31 2.695-4.782 1.716-6.743-.979-1.961-1.35-6.007-.612-8.95.737-2.942-.979-4.536-1.962-6.375-.979-1.839-1.346-3.433-.858-5.885.492-2.452-.733-4.046-2.45-5.272-1.716-1.226-2.454-2.452-2.083-4.414.367-1.961-1.229-3.187-3.066-4.659-1.837-1.471-3.187-3.433-3.187-6.375 0-2.943-5.637-9.809-10.048-11.525z" fill="#ff927f"/><path d="M860.182 274.937c8.211-2.084 7.478-15.57 6.253-21.21-1.229-5.64-4.378-13.718-1.962-20.107 3.433-9.072-4.17-17.655-2.208-21.088 1.962-3.433 1.716-5.272 1.471-6.376-.242-1.103-2.083-1.961-2.204.368-.125 2.329-.737 3.187-2.208 4.659-1.471 1.471-1.104 4.659 0 8.214 1.104 3.555 3.433 8.95-.246 16.061-3.674 7.111-2.162 10.28-.733 13.609 2.204 5.149 7.478 23.049 1.837 25.869z" fill="#ff9ee1"/><path d="M823.408 198.065c.921 0 2.7-.368 2.7.858m-4.537 5.027c1.104-.797 3.066.123 5.024-1.042m-3.062 5.946c1.471 0 3.433-.061 5.27-1.533m-3.432 5.579c1.35 0 3.862-.858 4.474-2.636m-4.104 5.456c2.633-.123 6.128.858 6.616-.061m-6.495 8.765c1.837-1.716 6.191-2.881 7.17-4.659m-2.512-22.681c3.062.981 1.796 2.876 3.308 4.046 2.7 2.084.246 4.414 2.454 5.027 2.204.613 2.166.985 1.591 3.433-.675 2.881 2.083 3.004 1.104 4.904m8.336-1.839c-1.225 0-4.841.123-6.374 3.372m-19.797 31.998c1.412.245 2.116-.558 2.512-1.348.429-.858.612-1.471 1.9-1.533 1.287-.062 3.249-.429 3.679-1.41.429-.98 1.962-.061 3.249-2.636 1.287-2.574 2.145-5.64 5.574-6.743" fill="none"/></g><g stroke="#000" stroke-width=".063"><path d="M918.385 301.598c1.387 2.016-.05 4.195 2.304 5.067 2.758 1.021.35 4.649 3.604 5.927 2.883 1.134.021 4.602 3.137 6.16 2.787 1.395-.467 4.649 3.254 6.509 3.716 1.859-.7 6.043 2.091 7.671 2.787 1.627-.929 5.811 2.325 7.439 3.254 1.627-1.396 4.881 1.625 7.206 3.02 2.324-.696 5.811 2.325 7.903 3.02 2.092-1.854 4.886 1.162 7.904 2.325 2.324-.837 4.601.929 8.136 1.162 2.324-1.162 11.623-7.67 10.693-2.325 3.952-11.386 7.439-14.639 6.276-3.254 2.324-13.71 5.579-19.059.465-5.341 5.114-15.802 1.859-19.055-.465-3.254 1.162-12.315-2.324-14.639-6.276-6.507.93-8.832-8.368-7.67-10.693 1.766-3.535-1.396-5.811.929-8.136 3.016-3.018-1.858-5.811 1.162-7.904 3.02-2.092-.696-5.579 2.325-7.903 3.02-2.325-1.629-5.579 1.625-7.206 3.254-1.627-.462-5.811 2.325-7.439 2.791-1.627-1.625-5.811 2.091-7.671 3.72-1.86.467-5.114 3.254-6.509 3.116-1.558.254-5.026 3.137-6.16 3.254-1.278.846-4.906 3.604-5.927 2.391-.885.867-3.121 2.375-5.163 6.92 2.723 28.341 4.677 37.152.096z" fill="#00a728"/><path d="M884.028 313.754c.004 1.044-.021 2.083-.987 3.371-2.091 2.789.929 4.185-1.396 7.206-2.32 3.022.467 4.882-2.091 7.439-2.554 2.557.467 4.882-2.091 7.671-2.554 2.789.467 4.649-2.091 7.206-2.554 2.557.467 5.347-2.091 7.903-2.554 2.557.467 5.811-2.325 8.834-2.787 3.021.467 5.346-1.858 7.671-2.325 2.324-.233 4.649-1.858 6.276 2.787-2.092 2.787-5.346 4.878-6.973 2.091-1.628-.696-3.952.467-5.114 1.162-1.162.233-6.044 2.325-8.368 2.091-2.325.233-6.973 2.091-8.601 1.858-1.627.462-6.508 2.787-8.136 2.325-1.627 0-5.579 1.858-7.671l1.862-7.903c1.858-2.557.083-4.878 1.391-6.973.583-.93.583-7.671-.871-3.836zm6.682 2.907c-1.625 3.022 1.162 3.719-.929 6.741s1.162 5.346-1.162 8.368c-2.325 3.022 1.162 4.649-.929 7.671-2.091 3.021.929 4.649-.929 6.973-1.862 2.324 1.391 4.649-.929 7.438-2.325 2.79.929 4.882-.933 7.439-1.858 2.557.7 5.346-.929 7.438-1.625 2.092 1.162 5.114-1.162 7.904-2.325 2.789.467 4.649-.929 6.509 2.791-.93 1.746-4.765 2.791-5.579 1.046-.814-.35-6.16 1.275-7.555 1.629-1.395-1.046-5.697.467-7.555 2.558-3.138.35-5.23 1.858-7.671 1.512-2.441-.575-5.574.583-7.206 1.975-2.789-.875-5.304.579-7.322 2.091-2.906-.404-5.298 1.046-7.206 2.208-2.906-.233-5.811.7-7.322.929-1.511 2.437-8.019-.467-9.065zm9.061 2.537c-1.625 4.05 1.162 5.67.233 8.91-.929 3.24 1.162 5.67-.233 9.18-1.391 3.51 1.862 6.21 0 10.8-1.858 4.59 1.2 5.733 0 10.26-1.391 5.266 2.325 8.055 0 11.775-2.32 3.719 2.662 4.95.233 8.833-1.162 1.86.117 6.625 1.975.93 1.862-5.695-1.391-6.392.233-8.717 1.629-2.325-.579-8.484.117-11.739.7-3.254-1.625-7.671-.117-11.158 1.512-3.487-2.325-7.206-.812-10.228 1.512-3.021-.696-6.741.696-9.182 1.396-2.441-1.046-5.695-.462-7.09.579-1.395-.583-6.547-1.862-2.576z" fill="#fdc300" fill-opacity=".996"/><path d="M917.202 304.34c0-26.267-3.716-35.332-17.431-35.332-13.71 0-17.426 9.065-17.426 35.332h34.857z" fill="#ef072d"/><path d="M887.456 302.249c-2.558 2.557.467 4.417-2.091 7.438-2.558 3.022-.233 4.649-2.325 7.439-2.091 2.789.929 4.185-1.396 7.206-2.32 3.022.467 4.882-2.091 7.439-2.554 2.557.467 4.882-2.091 7.671-2.554 2.789.467 4.649-2.091 7.206-2.554 2.557.467 5.347-2.091 7.903-2.554 2.557.467 5.811-2.325 8.834-2.787 3.021.467 5.346-1.858 7.671-2.325 2.324-.233 4.649-1.858 6.276-1.629 1.627-1.858 3.894-1.162 4.882m26.258-79.036c-2.32 3.022 1.162 4.417-.929 6.973-2.091 2.557.929 3.487-.696 6.509-1.625 3.022 1.162 3.719-.929 6.741s1.162 5.346-1.162 8.368c-2.325 3.022 1.162 4.649-.929 7.671-2.091 3.021.929 4.649-.929 6.973-1.862 2.324 1.391 4.649-.929 7.438-2.325 2.79.929 4.882-.933 7.439-1.858 2.557.7 5.346-.929 7.438-1.625 2.092 1.162 5.114-1.162 7.904-2.325 2.789.467 4.649-.929 6.509-1.396 1.859-2.495 4.591-1.162 5.346m19.054-82.519c-1.158 4.86 1.629 9.18 0 13.23-1.625 4.05 1.162 5.67.233 8.91-.929 3.24 1.162 5.67-.233 9.18-1.391 3.51 1.862 6.21 0 10.8-1.858 4.59 1.2 5.733 0 10.26-1.391 5.266 2.325 8.055 0 11.775-2.32 3.719 2.095 4.649.233 8.833-1.858 4.185 1.162 5.811-.233 9.996m12.319-86.703c2.558 2.557-.467 4.417 2.091 7.438 2.558 3.022.233 4.649 2.325 7.439 2.091 2.789-.929 4.185 1.396 7.206 2.32 3.022-.467 4.882 2.091 7.439 2.554 2.557-.467 4.882 2.091 7.671 2.554 2.789-.467 4.649 2.091 7.206 2.554 2.557-.467 5.347 2.091 7.903 2.554 2.557-.467 5.811 2.325 8.834 2.787 3.021-.467 5.346 1.858 7.671 2.325 2.324.233 4.649 1.858 6.276 1.629 1.627 1.862 3.894 1.162 4.882m-26.257-79.036c2.32 3.022-1.162 4.417.929 6.973 2.091 2.557-.929 3.487.696 6.509 1.629 3.022-1.162 3.719.929 6.741s-1.162 5.346 1.162 8.368c2.325 3.022-1.162 4.649.929 7.671 2.091 3.021-.929 4.649.929 6.973 1.862 2.324-1.391 4.649.933 7.438 2.32 2.79-.933 4.882.929 7.439 1.858 2.557-.7 5.346.929 7.438 1.625 2.092-1.162 5.114 1.162 7.904 2.325 2.789-.467 4.649.929 6.509 1.396 1.859 2.5 4.591 1.162 5.346" fill="none"/><path d="M882.345 304.34c0-26.267 3.716-35.332 17.426-35.332-6.274 0-10.107 4.881-11.152 8.135-1.046 3.254-.467 3.022.929 1.743 1.396-1.278.696 1.511-.462 3.022-1.162 1.511-2.325 5.811-.7 4.417 1.629-1.395 2.904.233 1.162 2.673-1.741 2.441-3.254 8.136-1.512 6.16 1.746-1.976 2.091 1.278 1.05 2.906-1.05 1.627-.933 3.021 0 2.324.929-.697.812 2.673-.117 3.952h-6.624zm32.186-1.511c0-20.572-2.554-26.732-7.665-28.824-2.895-1.186-2.979-.93-1.596.93 1.383 1.859 1.171 4.533-.108 2.673-1.275-1.859-1.7-2.208-2.233-1.394-.533.813 1.487 4.649 2.979 8.136 1.2 2.804.425 4.184-1.383 1.394-1.808-2.789-1.808-.263-.221 2.092 2.037 3.022 1.975 12.203 1.975 16.039l8.253-1.046z"/><path d="M899.771 308.176c5.462 0 11.44-.973 15.456-2.533 4.766-1.851 5.02-3.477 3.37-5.553-1.162-1.461-3.72-.584-6.157.487-2.441 1.071-9.182 1.753-12.669 1.753-3.483 0-10.223-.682-12.665-1.753-2.437-1.071-4.995-1.948-6.157-.487-1.65 2.076-1.396 3.702 3.37 5.553 4.012 1.56 9.994 2.533 15.452 2.533z" fill="#ef072d"/></g><g font-size="12" fill="#b95a1e" fill-rule="evenodd"><path d="M779.408 912.595s-.12 103.595 0 179.235c.12 75.63 19.822 104.91 54.262 103.59 34.44-1.33 41.108-58.83 34.531-92.08-6.577-33.26-53.24-198.967-53.24-198.967l-35.553 8.222z" transform="matrix(.056 -.037 .035 .06 877.527 247.522)" stroke="#000" stroke-width="4.375"/><path d="M779.408 912.595s-.12 103.595 0 179.235c.12 75.63 19.822 104.91 54.262 103.59 34.44-1.33 41.108-58.83 34.531-92.08-6.577-33.26-53.24-198.967-53.24-198.967l-35.553 8.222z" transform="matrix(.065 -.014 .013 .068 889.226 222.863)" stroke="#000" stroke-width="4.375"/><path d="M779.408 912.595s-.12 103.595 0 179.235c.12 75.63 19.822 104.91 54.262 103.59 34.44-1.33 41.108-58.83 34.531-92.08-6.577-33.26-53.24-198.967-53.24-198.967l-35.553 8.222z" transform="matrix(.066 0 0 .07 899.157 210.383)" stroke="#000" stroke-width="4.375"/><path d="M779.528 255.118c159.568-1.394 177.165-35.432 177.165-35.432s35.43-70.866 17.716-88.584c-17.717-17.716-194.881-17.716-194.881-17.716v141.732z" transform="matrix(.041 0 0 .07 918.76 256.196)" stroke="#000" stroke-width="5.554"/><path d="M779.528 255.118c106.299 0 124.016-35.432 124.016-35.432s35.43-70.866 17.716-88.584c-17.717-17.716-141.732-17.716-141.732-17.716v141.732z" transform="matrix(.066 0 0 .07 899.156 251.243)" stroke="#000" stroke-width="4.375"/><path d="M779.528 255.118c88.583 0 141.733-35.433 141.733-35.433s35.43-70.866 17.716-88.584c-17.717-17.716-159.449-17.715-159.449-17.715v141.732z" transform="matrix(.066 0 0 .07 899.156 246.291)" stroke="#000" stroke-width="4.375"/><path d="M832.677 113.386s70.866-88.583 194.883-177.166c124.01-88.582 213.73-156.721 230.31-141.732 0 17.717-106.3 106.299-194.88 177.166-88.581 70.866-194.88 177.165-194.88 177.165l-35.433-35.433z" transform="matrix(.082 0 0 .07 886.29 210.528)" stroke="#000" stroke-width="3.927"/><path d="M832.677 113.386s70.05-52.025 204.383-124.016c132.23-63.918 318.89-53.15 318.89-35.433-17.71 17.716-177.16 17.716-283.46 70.866-101.467 50.732-204.38 124.016-204.38 124.016l-35.433-35.433z" transform="matrix(.082 0 0 .07 886.966 215.482)" stroke="#000" stroke-width="3.927"/><path d="M832.677 113.386s61.675-35.068 204.383-88.583c141.72-53.15 329.87-17.717 329.87 0-17.71 17.716-170.43 6.948-276.73 35.433-109.993 27.757-222.09 88.583-222.09 88.583l-35.433-35.433z" transform="matrix(.082 0 0 .07 887.028 224.01)" stroke="#000" stroke-width="3.927"/><path d="M832.677 113.386s71.079-70.976 222.473-88.583c152.33-17.716 276.35 88.583 276.35 106.299-17.71 17.717-159.45-77.975-265.75-64.288-112.618 13.654-197.64 82.005-197.64 82.005l-35.433-35.433z" transform="matrix(.082 0 0 .07 887.582 232.67)" stroke="#000" stroke-width="3.927"/><path d="M779.528 255.118c159.568-1.394 159.449-45.508 159.449-45.508s35.43-70.866 17.716-88.584c-17.717-17.716-177.165-7.64-177.165-7.64v141.732z" transform="matrix(.066 0 0 .07 899.156 240.099)" stroke="#000" stroke-width="4.375"/><path d="M779.528 255.118c159.568-1.394 177.165-35.432 177.165-35.432s35.43-70.866 17.716-88.584c-17.717-17.716-194.881-17.716-194.881-17.716v141.732z" transform="matrix(.066 0 0 .07 899.156 235.147)" stroke="#000" stroke-width="4.375"/><path d="M779.528 255.118c159.568-1.394 194.882-35.433 194.882-35.433s35.43-70.866 17.716-88.583c-17.717-17.716-212.598-17.716-212.598-17.716v141.732z" transform="matrix(.066 0 0 .07 899.156 228.956)" stroke="#000" stroke-width="4.375"/><path d="M779.528 255.118c159.568-1.394 212.598-35.433 212.598-35.433s17.714-70.866 0-88.583c-17.717-17.716-212.598-17.716-212.598-17.716v141.732z" transform="matrix(.066 0 0 .07 899.157 222.765)" stroke="#000" stroke-width="4.375"/><path d="M832.677 113.386s114.206-88.583 114.206-159.449c0-70.866-50.349-141.732-64.625-177.165 28.552 0 93.176 106.299 93.176 177.165 0 77.444-107.324 194.882-107.324 194.882l-35.433-35.433zm0 0s-14.276-53.15-14.276-159.449c0-124.016 63.001-202.893 85.654-230.315 5.898 27.422-57.102 124.016-57.102 230.315 0 77.444 21.157 194.882 21.157 194.882l-35.433-35.433z" transform="matrix(.082 0 0 .07 884.679 205.431)" stroke="#000" stroke-width="3.927"/><path d="M779.528 255.118c159.568-1.394 212.598-35.433 212.598-35.433s0-70.866-17.716-88.583c-17.717-17.716-194.882-17.716-194.882-17.716v141.732z" transform="matrix(.066 0 0 .07 899.156 216.575)" stroke="#000" stroke-width="4.375"/><path d="M779.528 255.118c159.568-1.394 194.881-35.433 194.881-35.433s0-70.866-17.716-88.583c-17.717-17.716-177.165-17.716-177.165-17.716v141.732z" transform="matrix(.066 0 0 .07 899.157 210.383)" stroke="#000" stroke-width="4.375"/><path d="M318.898 1318.11c55.065-122.32 70.866-336.614 70.866-372.047 0-99.782-32.948-585.106-35.433-779.528-2.485-194.422 124.015-301.181 248.031-301.181 106.299 0 177.166 70.866 177.166 177.166h-53.15c0-70.866-53.15-124.016-124.016-124.016-106.299 0-187.994 83.739-194.882 248.031-7.605 189.886 21.316 682.945 17.717 814.961-3.599 132.024-51.234 249.724-106.299 336.614z" transform="matrix(-.066 0 0 .07 1002.491 210.383)" stroke="#fdc301" stroke-width="11.026"/><path d="M779.408 912.595s-.12 103.595 0 179.235c.12 75.63 19.822 104.91 54.262 103.59 34.44-1.33 41.108-58.83 34.531-92.08-6.577-33.26-53.24-198.967-53.24-198.967l-35.553 8.222z" transform="matrix(-.056 -.037 -.035 .06 1024.108 247.522)" stroke="#000" stroke-width="4.375"/><path d="M779.528 32.884c124.136.141 177.767 102.389 177.466 100.304l-35.734 33.347c-18.985 17.717-141.732 17.717-140.208 17.626l-1.524-151.277z" transform="matrix(.066 0 0 .07 899.157 210.383)" stroke="#000" stroke-width="4.375"/><path d="M779.408 912.595s-.12 103.595 0 179.235c.12 75.63 19.822 104.91 54.262 103.59 34.44-1.33 41.108-58.83 34.531-92.08-6.577-33.26-53.24-198.967-53.24-198.967l-35.553 8.222z" transform="matrix(-.065 -.014 -.013 .068 1012.409 222.863)" stroke="#000" stroke-width="4.375"/><path d="M779.408 912.595s-.12 103.595 0 179.235c.12 75.63 19.822 104.91 54.262 103.59 34.44-1.33 41.108-58.83 34.531-92.08-6.577-33.26-53.24-198.967-53.24-198.967l-35.553 8.222z" transform="matrix(-.066 0 0 .07 1002.48 210.383)" stroke="#000" stroke-width="4.375"/><path d="M779.528 255.118c159.568-1.394 177.165-35.432 177.165-35.432s35.43-70.866 17.716-88.584c-17.717-17.716-194.881-17.716-194.881-17.716v141.732z" transform="matrix(-.041 0 0 .07 982.876 256.196)" stroke="#000" stroke-width="5.554"/><path d="M779.528 255.118c106.299 0 124.016-35.432 124.016-35.432s35.43-70.866 17.716-88.584c-17.717-17.716-141.732-17.716-141.732-17.716v141.732z" transform="matrix(-.066 0 0 .07 1002.48 251.243)" stroke="#000" stroke-width="4.375"/><path d="M779.528 255.118c88.583 0 141.733-35.433 141.733-35.433s35.43-70.866 17.716-88.584c-17.717-17.716-159.449-17.715-159.449-17.715v141.732z" transform="matrix(-.066 0 0 .07 1002.48 246.291)" stroke="#000" stroke-width="4.375"/><path d="M832.677 113.386s70.866-88.583 194.883-177.166c124.01-88.582 213.73-156.721 230.31-141.732 0 17.717-106.3 106.299-194.88 177.166-88.581 70.866-194.88 177.165-194.88 177.165l-35.433-35.433z" transform="matrix(-.082 0 0 .07 1015.346 210.528)" stroke="#000" stroke-width="3.927"/><path d="M832.677 113.386s70.05-52.025 204.383-124.016c132.23-63.918 318.89-53.15 318.89-35.433-17.71 17.716-177.16 17.716-283.46 70.866-101.467 50.732-204.38 124.016-204.38 124.016l-35.433-35.433z" transform="matrix(-.082 0 0 .07 1014.67 215.482)" stroke="#000" stroke-width="3.927"/><path d="M832.677 113.386s61.675-35.068 204.383-88.583c141.72-53.15 329.87-17.717 329.87 0-17.71 17.716-170.43 6.948-276.73 35.433-109.993 27.757-222.09 88.583-222.09 88.583l-35.433-35.433z" transform="matrix(-.082 0 0 .07 1014.608 224.01)" stroke="#000" stroke-width="3.927"/><path d="M832.677 113.386s71.079-70.976 222.473-88.583c152.33-17.716 276.35 88.583 276.35 106.299-17.71 17.717-159.45-77.975-265.75-64.288-112.618 13.654-197.64 82.005-197.64 82.005l-35.433-35.433z" transform="matrix(-.082 0 0 .07 1014.054 232.67)" stroke="#000" stroke-width="3.927"/><path d="M779.528 255.118c159.568-1.394 159.449-45.508 159.449-45.508s35.43-70.866 17.716-88.584c-17.717-17.716-177.165-7.64-177.165-7.64v141.732z" transform="matrix(-.066 0 0 .07 1002.48 240.099)" stroke="#000" stroke-width="4.375"/><path d="M779.528 255.118c159.568-1.394 177.165-35.432 177.165-35.432s35.43-70.866 17.716-88.584c-17.717-17.716-194.881-17.716-194.881-17.716v141.732z" transform="matrix(-.066 0 0 .07 1002.48 235.147)" stroke="#000" stroke-width="4.375"/><path d="M779.528 255.118c159.568-1.394 194.882-35.433 194.882-35.433s35.43-70.866 17.716-88.583c-17.717-17.716-212.598-17.716-212.598-17.716v141.732z" transform="matrix(-.066 0 0 .07 1002.48 228.956)" stroke="#000" stroke-width="4.375"/><path d="M779.528 255.118c159.568-1.394 212.598-35.433 212.598-35.433s17.714-70.866 0-88.583c-17.717-17.716-212.598-17.716-212.598-17.716v141.732z" transform="matrix(-.066 0 0 .07 1002.48 222.765)" stroke="#000" stroke-width="4.375"/><path d="M832.677 113.386s114.206-88.583 114.206-159.449c0-70.866-50.349-141.732-64.625-177.165 28.552 0 93.176 106.299 93.176 177.165 0 77.444-107.324 194.882-107.324 194.882l-35.433-35.433zm0 0s-14.276-53.15-14.276-159.449c0-124.016 63.001-202.893 85.654-230.315 5.898 27.422-57.102 124.016-57.102 230.315 0 77.444 21.157 194.882 21.157 194.882l-35.433-35.433z" transform="matrix(-.082 0 0 .07 1016.956 205.431)" stroke="#000" stroke-width="3.927"/><path d="M779.528 255.118c159.568-1.394 212.598-35.433 212.598-35.433s0-70.866-17.716-88.583c-17.717-17.716-194.882-17.716-194.882-17.716v141.732z" transform="matrix(-.066 0 0 .07 1002.48 216.575)" stroke="#000" stroke-width="4.375"/><path d="M779.528 255.118c159.568-1.394 194.881-35.433 194.881-35.433s0-70.866-17.716-88.583c-17.717-17.716-177.165-17.716-177.165-17.716v141.732z" transform="matrix(-.066 0 0 .07 1002.48 210.383)" stroke="#000" stroke-width="4.375"/><path d="M318.898 1318.11c55.065-122.32 70.866-336.614 70.866-372.047 0-99.782-32.948-585.106-35.433-779.528-2.485-194.422 124.015-301.181 248.031-301.181 106.299 0 177.166 70.866 177.166 177.166h-53.15c0-70.866-53.15-124.016-124.016-124.016-106.299 0-187.994 83.739-194.882 248.031-7.605 189.886 21.316 682.945 17.717 814.961-3.599 132.024-51.234 249.724-106.299 336.614z" transform="matrix(.066 0 0 .07 899.145 210.383)" stroke="#fdc301" stroke-width="11.026"/><path d="M779.528 32.884c124.136.141 177.767 102.389 177.466 100.304l-35.734 33.347c-18.985 17.717-141.732 17.717-140.208 17.626l-1.524-151.277z" transform="matrix(-.066 0 0 .07 1002.48 210.383)" stroke="#000" stroke-width="4.375"/></g><path fill="#006" fill-rule="evenodd" d="M0 0h600v300h-600z"/><g font-size="12"><path d="M0 0v33.541l532.918 266.459h67.082v-33.541l-532.918-266.459h-67.082zm600 0v33.541l-532.918 266.459h-67.082v-33.542l532.918-266.458h67.082zm-350 0v300h100v-300h-100zm-250 100v100h600v-100h-600z" fill="#fff"/><path d="M0 120v60h600v-60h-600zm270-120v300h60v-300h-60zm-270 300l200-100h44.721l-200 100h-44.721zm0-300l200 100h-44.721l-155.279-77.639v-22.361zm355.279 100l200-100h44.721l-200 100h-44.721zm244.721 200l-200-100h44.721l155.279 77.639v22.361z" fill="#c00"/></g></svg>