<svg xmlns="http://www.w3.org/2000/svg" xmlns:xlink="http://www.w3.org/1999/xlink" width="1800" height="900"><defs><clipPath><path d="M0 0h600v300h-600z"/></clipPath><clipPath><path d="M0 0l300 150h-300zm300 0h300l-300 150zm0 150h300v150zm0 0v150h-300z"/></clipPath><g id="b"><path d="M0-.325v.5l1-.5zm.191.588l-.294-.405 1.103-.183z" id="a"/><use transform="scale(-1 1)" width="1200" height="600" xlink:href="#a"/><use transform="rotate(72)" width="1200" height="600" xlink:href="#a"/><use transform="rotate(-72)" width="1200" height="600" xlink:href="#a"/><use transform="matrix(-.309 .951 .951 .309 0 0)" width="1200" height="600" xlink:href="#a"/></g></defs><path fill="#00247d" d="M0 0h1800v900h-1800z"/><path d="M329.376 777.265c-17.934-.15 168.623-99.431 324.769-226.6 204.644-166.666 645.396-433.509 774.971-476.87 13.543-4.532-27.776 23.073-33.14 32.015-138.341 163.74-27.925 472.724 144.973 628.048 51.99 39.763 49.327 41.851 145.707 45.746v9l-1357.28-11.34zm-11.251 18.06s-13.163 9.403-13.125 16.406c.043 7.772 14.766 18.047 14.766 18.047l1338.745 14.766 24.609-16.406-34.453-21.328-1330.542-11.484z" fill="#fed100"/><use transform="matrix(45 0 0 45 342.957 112.581)" width="1200" height="600" xlink:href="#b" fill="#fff"/><use transform="matrix(37.5 0 0 37.5 521.205 267.53)" width="1200" height="600" xlink:href="#b" fill="#fff"/><use transform="matrix(45 0 0 45 135 321.808)" width="1200" height="600" xlink:href="#b" fill="#fff"/><use transform="matrix(52.5 0 0 52.5 342.957 652.581)" width="1200" height="600" xlink:href="#b" fill="#fff"/></svg>