<svg xmlns="http://www.w3.org/2000/svg" width="531" height="354" viewBox="0 0 1498.6001 999.06664" fill-rule="evenodd"><defs id="defs4"><style type="text/css" id="style6">.str0 {stroke:black;stroke-width:0.1} .fil1 {fill:#28AE66} .fil0 {fill:#A90000} .fil2 {fill:#CA3745} .fil3 {fill:white} .fil9 {fill:black;fill-rule:nonzero} .fil5 {fill:#28AE66;fill-rule:nonzero} .fil4 {fill:#383739;fill-rule:nonzero} .fil8 {fill:#CA3745;fill-rule:nonzero} .fil6 {fill:#FAAE29;fill-rule:nonzero} .fil7 {fill:white;fill-rule:nonzero}</style></defs><path id="path10" d="M517.013 916.645c8.275 0 14.986 6.711 14.986 14.986v14.984c0 8.275-6.711 14.986-14.986 14.986h-14.986v-44.956h14.986zm0 59.942c16.551 0 29.972-13.421 29.972-29.972v-14.984c0-16.551-13.421-29.972-29.972-29.972h-29.972v74.928h29.972zm-59.944-74.928h14.986v74.928h-14.986v-74.928zm-29.972 0h14.986v74.928h-14.986l-29.972-47.042v47.042h-14.986v-74.928h14.986l29.972 47.042v-47.042zm-224.79.001h44.958v14.986h-29.972v14.985h29.972v14.986h-29.972v14.985h29.972v14.986h-44.958v-74.928zm-59.944-.002h14.986v59.944h29.972v14.986h-44.958v-74.93zm157.357 59.944h14.982c12.412 0 22.479-10.067 22.479-22.479 0-12.412-10.253-22.436-22.479-22.479h-14.982v14.986h14.982c4.137 0 7.493 3.356 7.493 7.493 0 4.137-3.356 7.493-7.493 7.493h-14.982v14.986zm14.982-74.93c28.963 0 52.451 23.488 52.451 52.451s-23.488 52.451-52.451 52.451-52.451-23.488-52.451-52.451 23.488-52.451 52.451-52.451zm0 14.986c20.688 0 37.465 16.777 37.465 37.465 0 20.688-16.777 37.465-37.465 37.465-20.688 0-37.465-16.777-37.465-37.465 0-20.688 16.777-37.465 37.465-37.465z" class="fil0" fill="#a90000"/><path id="rect12" class="fil1" fill="#28ae66" d="M0 0h1498.6v999.066h-1498.6z"/><path id="rect14" class="fil2" fill="#ca3745" d="M179.828 0h269.748v999.066h-269.748z"/><g id="звезды" fill="#fff"><path d="M744.007 110.801c44.292 19.016 75.324 63.026 75.324 114.273 0 68.643-55.666 124.309-124.308 124.309-30.73 0-58.854-11.164-80.553-29.647 13.423 5.757 28.091 9.234 43.543 9.909 68.577 2.994 126.618-50.19 129.612-118.767 1.738-39.815-15.464-76.075-43.618-100.076z" class="fil3" id="_155960960"/><path class="fil3" id="_155960888" d="M648.231 121.681l-14.085-10.233 5.38-16.557-14.084 10.232-14.085-10.232 5.38 16.557-14.085 10.233h17.41l5.38 16.557 5.379-16.557z"/><path class="fil3" id="_155960816" d="M648.231 185.621l-14.085-10.232 5.38-16.558-14.084 10.232-14.085-10.232 5.38 16.558-14.085 10.232h17.41l5.38 16.558 5.379-16.558z"/><path class="fil3" id="_155960744" d="M648.231 249.561l-14.085-10.233 5.38-16.557-14.084 10.232-14.085-10.232 5.38 16.557-14.085 10.233h17.41l5.38 16.558 5.379-16.558z"/><path class="fil3" id="_155960672" d="M585.063 216.796l-14.085-10.232 5.38-16.558-14.085 10.233-14.084-10.233 5.38 16.558-14.085 10.232h17.41l5.379 16.558 5.38-16.558z"/><path class="fil3" id="_155960600" d="M665.821 154.446l14.085-10.233-5.38-16.557 14.084 10.232 14.085-10.232-5.38 16.557 14.085 10.233h-17.41l-5.38 16.558-5.379-16.558z"/></g><g id="_155914472"><path class="fil4" id="_155960456" fill="#383739" d="M281.371 163.747l-31.05-17.465h-16.319l-20.426-12.301v-16.859l-21.615-13.255v-31.862l21.615-13.255v-16.859l20.426-12.301h16.319l31.05-17.465h66.66l31.051 17.465h16.319l20.426 12.301v16.859l21.615 13.255-.001 31.862-21.614 13.255v16.859l-20.426 12.301h-16.319l-31.051 17.465z"/><path class="fil5" id="_155960384" fill="#28ae66" d="M347.843 163.035l31.051-17.465h16.308l19.91-11.991v-16.854l21.615-13.255.001-31.067-21.616-13.254v-16.855l-19.91-11.991h-16.307l-31.051-17.465h-66.285l-31.051 17.465h-16.307l-19.911 11.991v16.855l-21.615 13.254v31.067l21.615 13.255v16.854l19.91 11.991h16.308l31.051 17.465z"/><path class="fil4" id="_155960312" fill="#383739" d="M283.342 156.577l-31.051-17.465h-16.2l-15.159-9.128v-16.822l-21.615-13.254.001-23.941 21.614-13.255v-16.821l15.159-9.129h16.2l31.051-17.465h62.718l31.051 17.465h16.2l15.159 9.129v16.821l21.614 13.255v23.941l-21.615 13.254v16.822l-15.158 9.128h-16.201l-31.05 17.465z"/><path class="fil6" id="_155960240" fill="#faae29" d="M393.113 138.4l14.643-8.819v-16.817l21.615-13.255v-11.216h-114.312v67.571h30.814l31.051-17.465z"/><path class="fil6" id="_155960168" fill="#faae29" d="M221.646 46.293v16.818l-21.614 13.254v11.216h114.312v-67.571h-30.814l-31.052 17.465h-16.188z"/><path class="fil7" id="_155960096" fill="#fff" d="M221.646 129.581l14.643 8.819h16.189l31.051 17.465h30.815v-67.571h-114.312l-.001 11.216 21.615 13.255z"/><path class="fil7" id="_155960024" fill="#fff" d="M407.756 63.111v-16.818l-14.643-8.819h-16.189l-31.051-17.465h-30.814v67.571h114.312v-11.216z"/><path class="fil4" id="_155959952" fill="#383739" d="M366.519 63.401l-4.117-4.348 12.513-11.804v-8.013l7.301 4.524 5.321-4.959 5.272 3.251-5.33 4.969 6.844 4.24h-14.934z"/><path d="M387.626 39.693l-4.782 4.457 4.006 2.482 4.788-4.464-4.012-2.475zm-11.998.824v7.038l-12.218 11.525 3.137 3.313 12.557-11.846h12.714l-16.191-10.031z" class="fil8" id="_155959880" fill="#ca3745"/><path class="fil4" id="_155959808" fill="#383739" d="M341.334 61.222l-4.117-4.348 12.513-11.804v-8.013l7.301 4.524 5.321-4.959 5.271 3.251-5.329 4.969 6.844 4.24h-14.935z"/><path d="M362.44 37.514l-4.781 4.457 4.006 2.482 4.788-4.464-4.013-2.475zm-11.997.824v7.038l-12.218 11.525 3.136 3.313 12.558-11.845h12.714l-16.191-10.032z" class="fil8" id="_155959736" fill="#ca3745"/><path class="fil4" id="_155959664" fill="#383739" d="M368.366 77.647l-4.117-4.348 12.512-11.804v-8.013l7.302 4.524 5.321-4.959 5.271 3.251-5.329 4.969 6.843 4.24h-14.934z"/><path d="M389.472 53.939l-4.782 4.457 4.007 2.482 4.788-4.464-4.013-2.475zm-11.997.824v7.038l-12.218 11.525 3.136 3.313 12.557-11.845h12.715l-16.191-10.032z" class="fil8" id="_155959592" fill="#ca3745"/><path class="fil4" id="_155959520" fill="#383739" d="M366.519 112.473l-4.117 4.348 12.513 11.804v8.013l7.301-4.524 5.321 4.959 5.272-3.251-5.33-4.969 6.844-4.24h-14.934z"/><path d="M387.626 136.181l-4.782-4.457 4.006-2.482 4.788 4.464-4.012 2.475zm-11.998-.824v-7.038l-12.218-11.525 3.137-3.313 12.557 11.845h12.714l-16.191 10.032z" class="fil8" id="_155959448" fill="#ca3745"/><path class="fil4" id="_155959376" fill="#383739" d="M341.334 114.651l-4.117 4.349 12.513 11.804v8.012l7.301-4.524 5.321 4.96 5.271-3.251-5.329-4.969 6.844-4.24h-14.935z"/><path d="M362.44 138.36l-4.781-4.457 4.006-2.483 4.788 4.464-4.013 2.476zm-11.997-.824v-7.038l-12.218-11.525 3.136-3.313 12.558 11.845h12.714l-16.191 10.032z" class="fil8" id="_155959304" fill="#ca3745"/><path class="fil4" id="_155959232" fill="#383739" d="M368.366 98.227l-4.117 4.348 12.512 11.804v8.012l7.302-4.523 5.321 4.959 5.271-3.251-5.329-4.969 6.843-4.24h-14.934z"/><path d="M389.472 121.935l-4.782-4.457 4.007-2.483 4.788 4.465-4.013 2.475zm-11.997-.824v-7.038l-12.218-11.525 3.136-3.313 12.557 11.845h12.715l-16.191 10.032z" class="fil8" id="_155959160" fill="#ca3745"/><path class="fil4" id="_155959088" fill="#383739" d="M262.88 112.473l4.117 4.348-12.513 11.804v8.013l-7.301-4.524-5.321 4.959-5.271-3.251 5.329-4.969-6.843-4.24h14.934z"/><path d="M241.774 136.181l4.781-4.457-4.006-2.482-4.788 4.464 4.013 2.475zm11.997-.824v-7.038l12.218-11.525-3.136-3.313-12.557 11.845h-12.715l16.191 10.032z" class="fil8" id="_155917160" fill="#ca3745"/><path class="fil4" id="_155917088" fill="#383739" d="M288.065 114.651l4.118 4.349-12.513 11.804v8.012l-7.302-4.524-5.321 4.96-5.271-3.251 5.329-4.969-6.843-4.24h14.934z"/><path d="M266.959 138.36l4.782-4.457-4.007-2.483-4.788 4.464 4.013 2.476zm11.997-.824v-7.038l12.218-11.525-3.136-3.313-12.557 11.845h-12.715l16.191 10.032z" class="fil8" id="_155917016" fill="#ca3745"/><path class="fil4" id="_155916944" fill="#383739" d="M261.034 98.227l4.117 4.348-12.513 11.804v8.012l-7.302-4.523-5.32 4.959-5.272-3.251 5.33-4.969-6.844-4.24h14.934z"/><path d="M239.927 121.935l4.782-4.457-4.007-2.483-4.788 4.465 4.013 2.475zm11.998-.824v-7.038l12.218-11.525-3.137-3.313-12.557 11.845h-12.714l16.191 10.032z" class="fil8" id="_155916872" fill="#ca3745"/><path class="fil4" id="_155916800" fill="#383739" d="M262.88 63.401l4.117-4.348-12.513-11.804v-8.013l-7.301 4.524-5.321-4.959-5.272 3.251 5.33 4.969-6.844 4.24h14.934z"/><path d="M241.773 39.693l4.782 4.457-4.006 2.482-4.789-4.464 4.013-2.475zm11.998.824v7.038l12.218 11.525-3.137 3.313-12.557-11.846h-12.714l16.191-10.031z" class="fil8" id="_155916728" fill="#ca3745"/><path class="fil4" id="_155916656" fill="#383739" d="M288.065 61.222l4.117-4.348-12.513-11.804v-8.013l-7.301 4.524-5.321-4.959-5.272 3.251 5.33 4.969-6.844 4.24h14.934z"/><path d="M266.958 37.514l4.782 4.457-4.006 2.482-4.788-4.464 4.012-2.475zm11.998.824v7.038l12.218 11.525-3.137 3.313-12.557-11.845h-12.714l16.191-10.032z" class="fil8" id="_155916584" fill="#ca3745"/><path class="fil4" id="_155916512" fill="#383739" d="M261.033 77.647l4.117-4.348-12.513-11.804v-8.013l-7.301 4.524-5.321-4.959-5.271 3.251 5.329 4.969-6.843 4.24h14.934z"/><path d="M239.927 53.939l4.781 4.457-4.006 2.482-4.788-4.464 4.013-2.475zm11.997.824v7.038l12.218 11.525-3.136 3.313-12.557-11.845h-12.715l16.191-10.032z" class="fil8" id="_155916440" fill="#ca3745"/><path class="fil4" id="_155916368" fill="#383739" d="M356.764 37.136l2.369-5.772-10.159-5.272h-13.746l-7.051-6.796h-26.952l-7.051 6.796h-13.746l-10.158 5.272 2.369 5.772 9.059-4.758h3.967l13.889 16.063 15.148-9.224 15.147 9.224 13.89-16.063h3.966z"/><path class="fil4" id="_155916296" fill="#383739" d="M356.764 138.737l2.369 5.772-10.159 5.272h-13.746l-7.051 6.796h-26.952l-7.051-6.796h-13.746l-10.158-5.272 2.369-5.772 9.059 4.758h3.967l13.889-16.063 15.148 9.224 15.147-9.224 13.89 16.063h3.966z"/><path class="fil4" id="_155916224" fill="#383739" d="M242.8 75.525h-6.962l-1.559-1.864v-4.94l3.921-2.597-6.425-2.401-.154.107-8.296 5.757v1.548l-13.288 16.803 13.288 16.803v1.549l8.45 5.863 6.425-2.401-3.921-2.597v-4.94l1.559-1.864h6.962z"/><path class="fil8" id="_155916152" fill="#ca3745" d="M224.039 105.916l.001-1.424-13.093-16.556 13.093-16.557-.001-1.423 7.837-5.437 4.766 1.78-3.075 2.036v5.582l1.938 2.318h6.582v23.4h-6.582l-1.938 2.318v5.582l3.075 2.036-4.766 1.78z"/><path class="fil4" id="_155916080" fill="#383739" d="M386.6 75.525h6.961l1.559-1.864v-4.94l-3.921-2.597 6.426-2.401.154.107 8.296 5.757-.001 1.548 13.289 16.803-13.289 16.803.001 1.549-8.45 5.863-6.426-2.401 3.921-2.597v-4.94l-1.559-1.864h-6.961z"/><path class="fil8" id="_155916008" fill="#ca3745" d="M405.36 105.916v-1.424l13.093-16.556-13.093-16.557v-1.423l-7.837-5.437-4.766 1.78 3.076 2.036v5.582l-1.939 2.318h-6.581v23.4h6.581l1.939 2.318v5.582l-3.076 2.036 4.766 1.78z"/><path d="M314.343 20.009v18.592l-14.645 8.919-13.707-15.853h-4.471l-8.52 4.474-1.823-4.444 9.425-4.891h13.86l7.051-6.796h12.83zm.714 2.023v16.569l14.645 8.919 13.707-15.853h4.471l8.52 4.474 1.823-4.444-9.425-4.891h-13.859l-7.051-6.796h-12.83v2.023h-.001z" class="fil8" id="_155915936" fill="#ca3745"/><path d="M314.343 155.864v-18.592l-14.645-8.919-13.707 15.853h-4.471l-8.52-4.475-1.823 4.445 9.425 4.891h13.86l7.051 6.796h12.83zm.714-2.023v-16.569l14.645-8.919 13.707 15.853h4.471l8.52-4.475 1.823 4.445-9.425 4.891h-13.859l-7.051 6.796h-12.83v-2.023h-.001z" class="fil8" id="_155915864" fill="#ca3745"/><path class="fil4" id="_155915792" fill="#383739" d="M247.746 91.161h-12.662l-5.542 5.626 3.75-.029-6.499 5.284-3.618-3.13v-1.509l-7.761-9.466 7.762-9.467v-1.508l3.618-3.13 6.498 5.284-3.75-.029 5.542 5.625h12.663l9.959-7.788v-20.538h24.908l28.927-17.751v-4.656l-4.424-2.948h-1.402l-4.817 3.224-.746 2.405-3.768-5.145 7.324-6.153h1.171l8.265-6.064h3.116l8.264 6.064h1.172l7.324 6.153-3.768 5.145-.746-2.405-4.817-3.224h-1.402l-4.424 2.948v4.656l28.927 17.751h24.908v20.538l9.959 7.788h12.663l5.542-5.625-3.75.029 6.498-5.284 3.618 3.13v1.508l7.762 9.467-7.762 9.466v1.509l-3.618 3.13-6.498-5.284 3.75.029-5.542-5.626h-12.663l-9.959 7.789v20.538h-24.908l-28.927 17.751v4.656l4.424 2.948h1.402l4.817-3.224.746-2.405 3.768 5.144-7.324 6.154h-1.172l-8.264 6.064h-3.116l-8.265-6.064h-1.171l-7.325-6.154 3.769-5.144.746 2.405 4.817 3.224h1.402l4.425-2.948v-4.656l-28.927-17.751h-24.908v-20.538z"/><path d="M315.058 145.396l3.166 2.421-3.166 2.421v-4.841zm-10.064 4.403h.117l8.265 6.065h.965v-4.732l-4.336-3.316 4.337-3.316v-8.888l-30.953-18.995h-22.882v-19.086l-11.814-9.239h-17.819l-4.479 5.064-4.479-5.064-5.288.001 7.259 8.854v1.438l2.875 2.498 4.62-3.597-2.711.021v-.899l6.042-6.159h13.278l10.427 8.154v20.172h24.396l29.438 18.065v5.435l-4.921 3.28h-1.835l-5.206-3.485-.401-1.293-2.539 3.465 6.616 5.557h1.028zm-78.595-66.205l3.527 3.986h-7.054l3.528-3.986zm87.944-57.958l-3.164 2.421 3.164 2.42v-4.84zm85.132 62.657l3.527 3.986 3.527-3.986h-7.053zm-75.187-62.22l-8.265-6.064h-.965v4.73l4.338 3.318-4.339 3.318v8.886l30.953 18.995h22.882v19.086l11.814 9.239h17.816l4.48-5.063 4.48 5.062h5.289l-7.259-8.854v-1.438l-2.875-2.498-4.62 3.597 2.711-.022v.9l-6.042 6.158h-13.278l-10.426-8.154v-20.171h-24.397l-29.438-18.065v-5.436l4.921-3.279h1.835l5.206 3.485.401 1.293 2.539-3.465-6.616-5.558h-1.145z" class="fil6" id="_155915720" fill="#faae29"/><path d="M314.343 150.237l-3.164-2.42 3.164-2.42v4.839zm-84.417-61.943l-3.527 3.986-3.527-3.986h7.053zm94.48 61.506h-.117l-8.265 6.065h-.965v-4.73l4.338-3.318-4.339-3.318v-8.886l30.953-18.995h22.882v-19.086l11.814-9.239h17.817l4.479 5.064 4.479-5.064 5.29.001-7.259 8.854v1.438l-2.875 2.498-4.62-3.597 2.711.021v-.899l-6.042-6.159h-13.278l-10.426 8.154v20.172h-24.397l-29.438 18.065v5.435l4.921 3.28h1.835l5.206-3.485.401-1.293 2.539 3.465-6.616 5.557h-1.028zm78.597-66.205l-3.527 3.986h7.054l-3.528-3.986zm-97.89-57.52l8.265-6.064h.966v4.73l-4.339 3.318 4.339 3.318.001 8.886-30.954 18.995h-22.881v19.086l-11.815 9.239h-17.821l-4.479-5.063-4.48 5.062h-5.285l7.26-8.854v-1.438l2.875-2.498 4.619 3.597-2.711-.022v.9l6.043 6.158h13.277l10.427-8.154v-20.171h24.396l29.439-18.065v-5.436l-4.921-3.279h-1.836l-5.206 3.485-.401 1.293-2.538-3.465 6.616-5.558h1.144zm9.945 4.404l3.166-2.421-3.166-2.421v4.841z" class="fil7" id="_155915648" fill="#fff"/><path class="fil5" id="_155915576" fill="#28ae66" d="M314.344 41.096l-30.752 18.872h-22.37v18.721l-11.369 8.892h64.492z"/><path class="fil5" id="_155915504" fill="#28ae66" d="M315.059 134.777l30.75-18.871h22.37v-18.721l11.369-8.892h-64.49z"/><path class="fil8" id="_155915432" fill="#ca3745" d="M379.549 87.58l-11.369-8.892v-18.721h-22.37l-30.75-18.871v46.484z"/><path class="fil8" id="_155915360" fill="#ca3745" d="M249.852 88.294l11.37 8.892v18.721h22.369l30.753 18.872v-46.485z"/><path class="fil4" id="_155915288" fill="#383739" d="M297.299 84.686l4.117-4.349-12.513-11.804v-8.012l-7.302 4.524-5.32-4.959-5.272 3.25 5.33 4.969-6.844 4.24h14.934z"/><path d="M276.192 60.977l4.782 4.457-4.007 2.483-4.788-4.464 4.013-2.476zm11.998.825v7.037l12.218 11.525-3.137 3.314-12.557-11.846h-12.714l16.191-10.031z" class="fil8" id="_155915216" fill="#ca3745"/><path class="fil4" id="_155915144" fill="#383739" d="M332.1 91.188l-4.117 4.348 12.513 11.805v8.012l7.301-4.524 5.321 4.959 5.271-3.251-5.329-4.969 6.844-4.239h-14.935z"/><path d="M353.206 114.896l-4.781-4.457 4.006-2.482 4.788 4.464-4.013 2.475zm-11.997-.824v-7.037l-12.218-11.525 3.137-3.314 12.557 11.846h12.714l-16.191 10.031z" class="fil8" id="_155915072" fill="#ca3745"/><path class="fil4" id="_155915000" fill="#383739" d="M297.298 91.188l4.117 4.348-12.513 11.805v8.012l-7.301-4.524-5.321 4.959-5.271-3.251 5.329-4.969-6.843-4.239h14.934z"/><path d="M276.192 114.896l4.781-4.457-4.006-2.482-4.788 4.464 4.013 2.475zm11.997-.824v-7.037l12.218-11.525-3.136-3.314-12.557 11.846h-12.715l16.191 10.031z" class="fil5" id="_155914928" fill="#28ae66"/><path class="fil4" id="_155914856" fill="#383739" d="M332.1 84.686l-4.117-4.349 12.513-11.804v-8.012l7.301 4.524 5.321-4.959 5.271 3.25-5.329 4.969 6.844 4.24h-14.935z"/><path d="M353.206 60.977l-4.781 4.457 4.006 2.483 4.788-4.464-4.013-2.476zm-11.997.825v7.037l-12.218 11.525 3.137 3.314 12.557-11.846h12.714l-16.191-10.031z" class="fil5" id="_155914784" fill="#28ae66"/><path class="fil4" id="_155914712" fill="#383739" d="M347.768 87.938l-33.067 22.038-33.067-22.038 33.067-22.039z"/><path d="M314.344 66.993l-30.89 20.588h30.89v-20.588zm.714 20.588h30.89l-30.89-20.588v20.588zm-31.605.713l30.891 20.588v-20.588h-30.891zm31.605 20.588l30.891-20.588h-30.891v20.588z" class="fil7" id="_155914640" fill="#fff"/><path class="fil4 str0" id="_155914568" fill="#383739" stroke="#000" stroke-width=".1" d="M323.544 74.299v6.059h11.444v15.158h-11.444v6.059h-17.684v-6.059h-11.445v-15.158h11.445v-6.059z"/><path d="M306.573 75.011v6.059h-11.444v6.51h19.216v-12.569h-7.772zm8.486 12.569h19.216v-6.51h-11.444v-6.059h-7.772v12.569zm-19.93.713v6.51h11.444v6.059h7.772v-12.569h-19.216zm19.93 12.569h7.772v-6.059h11.444v-6.51h-19.216v12.569z" class="fil8" id="_155914496" fill="#ca3745"/></g><g id="_155856272"><path class="fil4" id="_155914400" fill="#383739" d="M284.912 339.033v9.708h59.581v-9.708h26.622v-9.708h26.622v-9.708h26.622v-87.72h-26.622v-9.708h-26.622v-9.708h-26.622v-9.708h-59.581v9.708h-26.622v9.708h-26.623v9.708h-26.622v87.72h26.622v9.708h26.623v9.708z"/><path class="fil8" id="_155914328" fill="#ca3745" d="M343.779 338.32v9.707h-58.154v-9.707h-26.622v-9.708h-26.622v-9.708h-26.623v-86.293h26.623v-9.708h26.622v-9.708h26.622v-9.708h58.154v9.708h26.622v9.708h26.623v9.708h26.622v86.293h-26.622v9.708h-26.623v9.708z"/><path class="fil4" id="_155914256" fill="#383739" d="M292.675 331.271v9.708h44.055v-9.708h26.623v-9.709h26.622v-9.707h26.622v-72.195h-26.622v-9.708h-26.622v-9.708h-26.623v-9.708h-44.055v9.708h-26.622v9.708h-26.622v9.708h-26.623v72.195h26.623v9.707h26.622v9.709z"/><path class="fil8" id="_155914184" fill="#ca3745" d="M336.016 330.557v9.707h-42.628v-9.707h-26.622v-9.709h-26.622v-9.707h-26.623v-70.768h26.623v-9.708h26.622v-9.708h26.622v-9.707h42.628v9.707h26.623v9.708h26.621v9.708h26.623v70.768h-26.623v9.707h-26.621v9.709z"/><path class="fil4" id="_155914112" fill="#383739" d="M286.492 228.144l-.015-6.991-6.759 6.044-6.758-6.044-.015 6.991-6.896-5.212v10.009l-6.603 4.196-.017-6.265-6.333 5.689-6.333-5.689-.017 6.265-7.317-4.65v9.279l-5.913 4.281-.016-5.69-7.025 5.088-7.025-5.088-.016 5.69-6.627-4.798v28.11h-7.763v12.795h7.763v28.11l6.627-4.799.016 5.691 7.025-5.088 7.024 5.088.017-5.691 5.913 4.281v9.28l7.317-4.65.017 6.265 6.333-5.689 6.333 5.689.017-6.265 6.603 4.195v10.01l6.896-5.212.015 6.99 6.758-6.043 6.759 6.043.015-6.99 6.182 4.673v10.675l9.243-8.425v9.901l12.784-8.219 12.785 8.219v-9.901l9.243 8.425v-10.675l6.181-4.673.015 6.99 6.759-6.043 6.759 6.043.015-6.99 6.894 5.212v-10.01l6.605-4.195.016 6.265 6.334-5.689 6.333 5.689.016-6.265 7.318 4.65v-9.28l5.913-4.281.016 5.691 7.024-5.088 7.025 5.088.016-5.691 6.627 4.798v-28.109h7.763v-12.795h-7.763v-28.11l-6.627 4.798-.016-5.69-7.025 5.088-7.025-5.088-.015 5.69-5.913-4.281v-9.279l-7.318 4.65-.016-6.265-6.333 5.689-6.334-5.689-.016 6.265-6.605-4.197v-10.008l-6.894 5.211-.015-6.99-6.759 6.044-6.759-6.044-.015 6.991-6.181-4.675v-10.673l-9.243 8.425v-9.901l-12.785 8.219-12.784-8.219v9.901l-9.243-8.425v10.674z"/><path class="fil5" id="_155914040" fill="#28ae66" d="M205.758 281.441v-11.367h7.763v-27.425l6.624 4.795.016-5.691 6.315 4.575.213-.155 6.102-4.42.016 5.691 6.624-4.795v66.218l-6.624-4.795-.016 5.691-6.315-4.575-6.315 4.575-.016-5.691-6.624 4.795v-27.425z"/><path class="fil6" id="_155913968" fill="#faae29" d="M247.458 313.081l-7.314 4.648v-83.943l7.314 4.649.016-5.966 5.624 5.052 5.624-5.052.016 5.966 7.314-4.649v83.943l-7.314-4.648-.016 5.965-5.624-5.051-5.624 5.051z"/><path class="fil5" id="_155913896" fill="#28ae66" d="M273.656 321.938l-6.892 5.21v-102.783l6.892 5.21.014-6.831 6.048 5.409 6.048-5.409.015 6.831 6.892-5.21v102.783l-6.892-5.21-.015 6.831-6.048-5.409-6.048 5.409z"/><path class="fil6" id="_155913824" fill="#faae29" d="M314.703 220.388h-.002l-12.07-7.76v10.209l-9.243-8.425v122.689l9.243-8.425v10.209l12.07-7.76h.002l12.07 7.76v-10.209l9.243 8.425v-122.689l-9.243 8.425v-10.209z"/><path class="fil5" id="_155913752" fill="#28ae66" d="M423.646 281.441v-11.367h-7.763v-27.425l-6.623 4.795-.016-5.691-6.315 4.575-.214-.155-6.102-4.42-.016 5.691-6.623-4.795v66.218l6.623-4.795.016 5.691 6.316-4.575 6.315 4.575.016-5.691 6.623 4.795v-27.425z"/><path class="fil6" id="_155913680" fill="#faae29" d="M381.947 313.081l7.314 4.648v-83.943l-7.314 4.649-.016-5.966-5.624 5.052-5.625-5.052-.015 5.966-7.315-4.649v83.943l7.315-4.648.015 5.965 5.625-5.051 5.624 5.051z"/><path class="fil5" id="_155913608" fill="#28ae66" d="M355.749 321.938l6.892 5.21v-102.783l-6.892 5.21-.015-6.831-6.048 5.409-6.048-5.409-.015 6.831-6.891-5.21v102.783l6.891-5.21.015 6.831 6.048-5.409 6.048 5.409z"/><path class="fil4" id="_155913536" fill="#383739" d="M322.8 238.949l-2.864 2.451v-7.23l6.47-4.769-11.704-8.627-11.704 8.627 6.471 4.769v7.23l-2.864-2.451v-3.986l-6.85 5.627 7.346 6.781-2.864 3.958h20.931l-2.864-3.958 7.345-6.781-6.849-5.627z"/><path class="fil8" id="_155913464" fill="#ca3745" d="M305.889 236.473v2.804l4.292 3.673v-9.141l-5.981-4.408 10.501-7.74 10.501 7.74-5.98 4.408v9.141l4.291-3.673v-2.804l5.049 4.148-7.208 6.654 2.417 3.34h-18.137l2.416-3.34-7.208-6.654z"/><path class="fil4" id="_155913392" fill="#383739" d="M314.701 233.342l5.349-3.941-5.349-3.942-.212.157-5.136 3.785z"/><path d="M314.701 226.346l4.146 3.055-4.146 3.055-4.145-3.055 4.145-3.055z" class="fil5" id="_155913320" fill="#28ae66"/><path class="fil4" id="_155913248" fill="#383739" d="M361.918 284.522h35.818v-4.671h11.718v-8.188h-11.718v-4.671h-35.818l-24.934-16.378h-44.566l-24.933 16.378h-35.819v4.671h-11.718v8.188h11.718v4.671h35.819l24.933 16.379h44.566z"/><path class="fil8" id="_155913176" fill="#ca3745" d="M232.381 283.808v-4.671h-11.719v-6.761h11.719v-4.671h35.317l24.933-16.378h44.141l24.933 16.378h35.317v4.671h11.719v6.761h-11.719v4.671h-35.317l-24.933 16.379h-44.141l-24.933-16.379z"/><path class="fil4" id="_155882848" fill="#383739" d="M384.538 280.534v-9.554h-25.529v-2.267l-22.778-14.954h-43.06l-22.778 14.954v2.267h-25.529v9.554h25.529v2.267l22.778 14.954h43.06l22.778-14.954v-2.267z"/><path class="fil8" id="_155882776" fill="#ca3745" d="M245.578 271.693h25.529v-2.596l22.277-14.625h42.634l22.277 14.625v2.596h25.529v8.126h-25.529v2.597l-22.277 14.625h-42.634l-22.277-14.625v-2.597h-25.529z"/><path d="M318.648 256.792l-3.947 2.963-3.946-2.963h-7.377l7.635 5.733-13.937 10.463-7.375-5.538 2.268-1.703 2.657 1.995 3.689-2.768-6.345-4.764-9.646 7.24 11.065 8.307-11.065 8.307 9.646 7.241 6.345-4.765-3.689-2.769-2.657 1.995-2.268-1.702 7.375-5.538 13.937 10.463-7.635 5.733h7.377l3.946-2.963 3.947 2.963h7.376l-7.634-5.733 13.936-10.463 7.377 5.538-2.268 1.702-2.658-1.995-3.689 2.769 6.346 4.765 9.645-7.241-11.065-8.307 11.065-8.307-9.645-7.24-6.346 4.764 3.689 2.768 2.658-1.995 2.268 1.703-7.377 5.538-13.936-10.463 7.635-5.733h-7.377zm-3.947 8.501l13.938 10.464-13.938 10.463-13.936-10.463 13.936-10.464z" class="fil4" id="_155882704" fill="#383739"/><path d="M323.886 257.507l-6.685 5.018 15.126 11.355 8.565-6.43-3.456-2.596-2.658 1.995-2.501-1.876 5.158-3.872 8.456 6.349-11.065 8.307 11.065 8.307-8.456 6.349-5.158-3.872 2.501-1.877 2.658 1.995 3.456-2.595-8.565-6.43-15.125 11.355 6.684 5.018h-4.999l-4.185-3.141-4.184 3.141h-5l6.685-5.018-15.126-11.355-8.564 6.43 3.457 2.595 2.657-1.995 2.5 1.877-5.156 3.872-8.457-6.349 11.065-8.307-11.065-8.307 8.457-6.349 5.156 3.872-2.5 1.876-2.657-1.995-3.457 2.596 8.564 6.43 15.126-11.355-6.685-5.018h5l4.184 3.141 4.185-3.141h4.999zm-9.398 7.055l-14.911 11.196 15.125 11.355 15.127-11.355-15.127-11.356-.214.161z" class="fil6" id="_155882632" fill="#faae29"/><path class="fil4" id="_155882560" fill="#383739" d="M275.016 275.757l6.483 4.306 6.483-4.306-6.483-4.306z"/><path class="fil5" id="_155882488" fill="#28ae66" d="M281.499 272.309l5.193 3.449-5.193 3.449-5.193-3.449z"/><path class="fil4" id="_155882416" fill="#383739" d="M308.219 275.757l6.483 4.306 6.483-4.306-6.483-4.306z"/><path class="fil5" id="_155882344" fill="#28ae66" d="M314.702 272.309l5.193 3.449-5.193 3.449-5.192-3.449z"/><path class="fil4" id="_155882272" fill="#383739" d="M354.389 275.757l-6.483 4.306-6.483-4.306 6.483-4.306z"/><path class="fil5" id="_155882200" fill="#28ae66" d="M347.906 272.309l-5.193 3.449 5.193 3.449 5.192-3.449z"/><path d="M223.604 263.697c.808.815 1.774 1.228 2.871 1.228 1.096 0 2.062-.413 2.871-1.228 2.529-2.548 2.614-7.155 2.589-10.471l-3.451 3.647-2.009-3.47-2.01 3.47-3.451-3.647c-.025 3.316.061 7.924 2.59 10.471z" class="fil4" id="_155882128" fill="#383739"/><path d="M226.475 254.827l1.87 3.23 2.845-3.006c-.099 3.745-.921 6.703-2.351 8.142-.67.675-1.466 1.018-2.365 1.018-.9 0-1.695-.343-2.365-1.017-1.43-1.441-2.252-4.399-2.351-8.143l2.844 3.006 1.871-3.23z" class="fil7" id="_155882056" fill="#fff"/><path class="fil4" id="_155881984" fill="#383739" d="M258.592 245.811l-5.495-4.719-5.495 4.719 3.772 3.238v7.512l-2.13-2.128v-4.24l-4.891 4.534 8.744 8.744 8.744-8.744-4.891-4.534v4.24l-2.129 2.128v-7.512z"/><path class="fil8" id="_155881912" fill="#ca3745" d="M252.089 248.722l-3.39-2.91 4.399-3.777 4.4 3.777-3.39 2.91v9.563l3.557-3.557v-2.9l3.149 2.918-7.716 7.716-7.715-7.716 3.149-2.918v2.9l3.557 3.557z"/><path class="fil4" id="_155881840" fill="#383739" d="M285.215 237.385l-5.495-4.718-5.495 4.718 3.771 3.238v7.513l-2.129-2.129v-4.24l-4.891 4.534 8.744 8.744 8.744-8.744-4.891-4.534v4.24l-2.13 2.129v-7.513z"/><path class="fil7" id="_155881768" fill="#fff" d="M278.71 240.296l-3.39-2.91 4.4-3.777 4.399 3.777-3.39 2.91v9.563l3.557-3.556v-2.901l3.149 2.919-7.715 7.715-7.716-7.715 3.149-2.919v2.901l3.557 3.556z"/><path class="fil4" id="_155881696" fill="#383739" d="M258.592 305.702l-5.495 4.719-5.495-4.719 3.772-3.238v-7.512l-2.13 2.129v4.24l-4.891-4.534 8.744-8.745 8.744 8.745-4.891 4.534v-4.24l-2.129-2.129v7.512z"/><path class="fil8" id="_155881624" fill="#ca3745" d="M252.089 302.792l-3.39 2.91 4.399 3.778 4.4-3.778-3.39-2.91v-9.563l3.557 3.557v2.9l3.149-2.918-7.716-7.716-7.715 7.716 3.149 2.918v-2.9l3.557-3.557z"/><path class="fil4" id="_155881552" fill="#383739" d="M370.813 245.811l5.494-4.719 5.495 4.719-3.771 3.238v7.512l2.129-2.128v-4.24l4.891 4.534-8.744 8.744-8.744-8.744 4.891-4.534v4.24l2.13 2.128v-7.512z"/><path class="fil8" id="_155881480" fill="#ca3745" d="M377.317 248.722l3.39-2.91-4.4-3.777-4.399 3.777 3.39 2.91v9.563l-3.557-3.557v-2.9l-3.149 2.918 7.715 7.716 7.716-7.716-3.149-2.918v2.9l-3.557 3.557z"/><path class="fil4" id="_155881408" fill="#383739" d="M370.813 305.702l5.494 4.719 5.495-4.719-3.771-3.238v-7.512l2.129 2.129v4.24l4.891-4.534-8.744-8.745-8.744 8.745 4.891 4.534v-4.24l2.13-2.129v7.512z"/><path class="fil8" id="_155881336" fill="#ca3745" d="M377.317 302.792l3.39 2.91-4.4 3.778-4.399-3.778 3.39-2.91v-9.563l-3.557 3.557v2.9l-3.149-2.918 7.715-7.716 7.716 7.716-3.149 2.918v-2.9l-3.557-3.557z"/><path class="fil4" id="_155881264" fill="#383739" d="M285.215 314.129l-5.495 4.718-5.495-4.718 3.771-3.238v-7.513l-2.129 2.129v4.24l-4.891-4.534 8.744-8.744 8.744 8.744-4.891 4.534v-4.24l-2.13-2.129v7.513z"/><path class="fil7" id="_155881192" fill="#fff" d="M278.71 311.218l-3.39 2.91 4.4 3.777 4.399-3.777-3.39-2.91v-9.563l3.557 3.556v2.901l3.149-2.919-7.715-7.715-7.716 7.715 3.149 2.919v-2.901l3.557-3.556z"/><path class="fil4" id="_155881120" fill="#383739" d="M344.191 237.385l5.495-4.718 5.495 4.718-3.771 3.238v7.513l2.129-2.129v-4.24l4.891 4.534-8.744 8.744-8.744-8.744 4.891-4.534v4.24l2.129 2.129v-7.513z"/><path class="fil7" id="_155881048" fill="#fff" d="M350.694 240.296l3.39-2.91-4.399-3.777-4.4 3.777 3.39 2.91v9.563l-3.557-3.556v-2.901l-3.149 2.919 7.716 7.715 7.715-7.715-3.149-2.919v2.901l-3.557 3.556z"/><path class="fil4" id="_155880976" fill="#383739" d="M344.191 314.129l5.495 4.718 5.495-4.718-3.771-3.238v-7.513l2.129 2.129v4.24l4.891-4.534-8.744-8.744-8.744 8.744 4.891 4.534v-4.24l2.129-2.129v7.513z"/><path class="fil7" id="_155880904" fill="#fff" d="M350.694 311.218l3.39 2.91-4.399 3.777-4.4-3.777 3.39-2.91v-9.563l-3.557 3.556v2.901l-3.149-2.919 7.716-7.715 7.715 7.715-3.149 2.919v-2.901l-3.557-3.556z"/><path d="M223.604 287.817c.808-.815 1.774-1.229 2.871-1.229 1.096 0 2.062.414 2.871 1.229 2.529 2.548 2.614 7.154 2.589 10.471l-3.451-3.647-2.009 3.47-2.01-3.47-3.451 3.647c-.025-3.316.061-7.925 2.59-10.471z" class="fil4" id="_155856944" fill="#383739"/><path d="M226.475 296.687l1.87-3.23 2.845 3.005c-.099-3.745-.921-6.703-2.351-8.142-.67-.675-1.466-1.017-2.365-1.017-.9 0-1.695.342-2.365 1.017-1.43 1.44-2.252 4.398-2.351 8.142l2.844-3.005 1.871 3.23z" class="fil7" id="_155856872" fill="#fff"/><path d="M405.801 263.697c-.808.815-1.775 1.228-2.871 1.228-1.097 0-2.063-.413-2.871-1.228-2.529-2.548-2.615-7.155-2.59-10.471l3.451 3.647 2.01-3.47 2.009 3.47c.529-.557 3.451-3.647 3.451-3.647.025 3.316-.06 7.924-2.589 10.471z" class="fil4" id="_155856800" fill="#383739"/><path d="M402.93 254.827l-1.871 3.23-2.844-3.006c.099 3.745.921 6.703 2.351 8.142.669.675 1.466 1.018 2.365 1.018.899 0 1.695-.343 2.365-1.017 1.429-1.441 2.252-4.399 2.351-8.143l-2.844 3.006-1.871-3.23z" class="fil7" id="_155856728" fill="#fff"/><path d="M405.801 287.817c-.808-.815-1.775-1.229-2.871-1.229-1.097 0-2.063.414-2.871 1.229-2.529 2.548-2.615 7.154-2.59 10.471l3.451-3.647 2.01 3.47 2.009-3.47c.529.557 3.451 3.647 3.451 3.647.025-3.316-.06-7.925-2.589-10.471z" class="fil4" id="_155856656" fill="#383739"/><path d="M402.93 296.687l-1.871-3.23-2.844 3.005c.099-3.745.921-6.703 2.351-8.142.669-.675 1.466-1.017 2.365-1.017.899 0 1.695.342 2.365 1.017 1.429 1.44 2.252 4.398 2.351 8.142l-2.844-3.005-1.871 3.23z" class="fil7" id="_155856584" fill="#fff"/><path class="fil4" id="_155856512" fill="#383739" d="M322.8 312.564l-2.864-2.451v7.23l6.47 4.769-11.704 8.627-11.704-8.627 6.471-4.769v-7.23l-2.864 2.451v3.986l-6.85-5.627 7.346-6.781-2.864-3.958h20.931l-2.864 3.958 7.345 6.781-6.849 5.627z"/><path class="fil8" id="_155856440" fill="#ca3745" d="M305.889 315.041v-2.804l4.292-3.674v9.141l-5.981 4.408 10.501 7.74 10.501-7.74-5.98-4.408v-9.141l4.291 3.674v2.804l5.049-4.149-7.208-6.654 2.417-3.34h-18.137l2.416 3.34-7.208 6.654z"/><path class="fil4" id="_155856368" fill="#383739" d="M314.701 318.171l5.349 3.941-5.349 3.942-.212-.156-5.136-3.786z"/><path d="M314.701 325.167l4.146-3.055-4.146-3.055-4.145 3.055 4.145 3.055z" class="fil5" id="_155856296" fill="#28ae66"/></g><g id="_155766872"><path class="fil4" id="_155856200" fill="#383739" d="M223.887 458.464v-6.748l-12.791 8.125-5.13-3.963-5.297.614-2.544 3.598 4.56 3.487-4.561 3.488 2.544 3.598 5.298.615 5.13-3.964 12.791 8.125v-6.748l-8.05-5.114z"/><path class="fil5" id="_155856128" fill="#28ae66" d="M211.055 460.713l12.119-7.698v5.056l-8.669 5.507 8.669 5.506v5.056l-12.119-7.698-5.296 4.093-4.693-.544-1.962-2.776 4.756-3.637-4.756-3.637 1.963-2.776 4.692-.544z"/><path class="fil4" id="_155856056" fill="#383739" d="M223.887 435.022v-6.748l-12.791 8.125-5.13-3.963-5.297.614-2.544 3.599 4.56 3.487-4.561 3.487 2.544 3.599 5.298.614 5.13-3.964 12.791 8.126v-6.749l-8.05-5.113z"/><path class="fil5" id="_155855984" fill="#28ae66" d="M211.055 437.271l12.119-7.697v5.056l-8.669 5.506 8.669 5.506v5.057l-12.119-7.698-5.296 4.092-4.693-.544-1.962-2.776 4.756-3.637-4.756-3.636 1.963-2.776 4.692-.545z"/><path class="fil4" id="_155855912" fill="#383739" d="M223.887 492.133v6.748l-12.791-8.125-5.13 3.964-5.297-.615-2.544-3.598 4.56-3.487-4.561-3.488 2.544-3.598 5.298-.614 5.13 3.963 12.791-8.125v6.748l-8.05 5.114z"/><path class="fil5" id="_155855840" fill="#28ae66" d="M211.055 489.884l12.119 7.698v-5.056l-8.669-5.507 8.669-5.506v-5.056l-12.119 7.698-5.296-4.093-4.693.544-1.962 2.776 4.756 3.637-4.756 3.637 1.963 2.776 4.692.544z"/><path class="fil4" id="_155855768" fill="#383739" d="M405.517 458.464v-6.748l12.792 8.125 5.13-3.963 5.297.614 2.544 3.598-4.56 3.487 4.56 3.488-2.544 3.598-5.297.615-5.13-3.964-12.792 8.125v-6.748l8.051-5.114z"/><path class="fil5" id="_155855696" fill="#28ae66" d="M418.35 460.713l-12.119-7.698v5.056l8.668 5.507-8.668 5.506v5.056l12.119-7.698 5.295 4.093 4.693-.544 1.962-2.776-4.756-3.637 4.756-3.637-1.962-2.776-4.693-.544z"/><path class="fil4" id="_155855624" fill="#383739" d="M405.517 435.022v-6.748l12.792 8.125 5.13-3.963 5.297.614 2.544 3.599-4.56 3.487 4.56 3.487-2.544 3.599-5.297.614-5.13-3.964-12.792 8.126v-6.749l8.051-5.113z"/><path class="fil5" id="_155855552" fill="#28ae66" d="M418.35 437.271l-12.119-7.697v5.056l8.668 5.506-8.668 5.506v5.057l12.119-7.698 5.295 4.092 4.693-.544 1.962-2.776-4.756-3.637 4.756-3.636-1.962-2.776-4.693-.545z"/><path class="fil4" id="_155855480" fill="#383739" d="M405.517 492.133v6.748l12.792-8.125 5.13 3.964 5.297-.615 2.544-3.598-4.56-3.487 4.56-3.488-2.544-3.598-5.297-.614-5.13 3.963-12.792-8.125v6.748l8.051 5.114z"/><path class="fil5" id="_155855408" fill="#28ae66" d="M418.35 489.884l-12.119 7.698v-5.056l8.668-5.507-8.668-5.506v-5.056l12.119 7.698 5.295-4.093 4.693.544 1.962 2.776-4.756 3.637 4.756 3.637-1.962 2.776-4.693.544z"/><path d="M377.526 392.517v9.751h7.092v4.309h6.967v-7.847h-6.214v-6.213h-7.846z" class="fil4" id="_155855336" fill="#383739"/><path d="M384.659 393.231v6.214h6.213v6.419h-5.539v-4.309h-7.093v-8.324h6.419z" class="fil5" id="_155855264" fill="#28ae66"/><path d="M398.432 407.894v9.75h7.085v4.31h6.974v-7.847h-6.213v-6.213h-7.847z" class="fil4" id="_155855192" fill="#383739"/><path d="M405.565 408.607v6.213h6.213v6.42h-5.54v-4.309h-7.092v-8.324h6.419z" class="fil5" id="_155855120" fill="#28ae66"/><path d="M251.88 392.517v9.751h-7.094v4.309h-6.965v-7.847h6.213v-6.213h7.847z" class="fil4" id="_155855048" fill="#383739"/><path d="M244.746 393.231v6.214h-6.213v6.419h5.54v-4.309h7.092v-8.324h-6.419z" class="fil5" id="_155854976" fill="#28ae66"/><path d="M377.526 534.639v-9.751h7.092v-4.309h6.967v7.846h-6.214v6.214h-7.846z" class="fil4" id="_155786952" fill="#383739"/><path d="M384.659 533.924v-6.213h6.213v-6.419h-5.539v4.309h-7.093v8.323h6.419z" class="fil5" id="_155786880" fill="#28ae66"/><path d="M251.88 534.639v-9.751h-7.094v-4.309h-6.965v7.846h6.213v6.214h7.847z" class="fil4" id="_155786808" fill="#383739"/><path d="M244.747 533.924v-6.213h-6.214v-6.419h5.54v4.309h7.093v8.323h-6.419z" class="fil5" id="_155786736" fill="#28ae66"/><path d="M398.432 519.262v-9.75h7.085v-4.31h6.974v7.846h-6.213v6.214h-7.847z" class="fil4" id="_155786664" fill="#383739"/><path d="M405.565 518.548v-6.213h6.213v-6.419h-5.54v4.309h-7.092v8.323h6.419z" class="fil5" id="_155786592" fill="#28ae66"/><path d="M230.974 407.894v9.75h-7.087v4.31h-6.972v-7.847h6.213v-6.213h7.847z" class="fil4" id="_155786520" fill="#383739"/><path d="M223.841 408.607v6.213h-6.213v6.42h5.54v-4.309h7.092v-8.324h-6.419z" class="fil5" id="_155786448" fill="#28ae66"/><path d="M230.974 519.262v-9.75h-7.087v-4.31h-6.972v7.846h6.213v6.214h7.847z" class="fil4" id="_155786376" fill="#383739"/><path d="M223.842 518.548v-6.213h-6.214v-6.419h5.54v4.309h7.093v8.323h-6.419z" class="fil5" id="_155786304" fill="#28ae66"/><path d="M340.937 392.291l-5.413-5.255-5.317 4.926 4.635 4.499-5.982 5.808h8.882l3.196-3.103 3.196 3.103h8.881l-5.982-5.808 4.634-4.499-5.316-4.926c-1.806 1.749-3.609 3.503-5.412 5.255z" class="fil4" id="_155786232" fill="#383739"/><path d="M335.513 388.02l5.424 5.265 5.423-5.265 4.269 3.954-4.623 4.487 5.247 5.094h-6.831l-3.486-3.385-3.487 3.385h-6.831l5.247-5.094-4.623-4.487c.464-.43 3.849-3.567 4.269-3.954z" class="fil5" id="_155786160" fill="#28ae66"/><path d="M314.703 392.291c-.452-.44-5.412-5.255-5.412-5.255l-5.317 4.926 4.635 4.499-5.982 5.808h8.881l3.196-3.103 3.196 3.103h8.881l-5.981-5.808 4.634-4.499-5.316-4.926c-1.806 1.749-3.609 3.503-5.413 5.255z" class="fil4" id="_155786088" fill="#383739"/><path d="M309.28 388.02l5.423 5.265s4.98-4.835 5.424-5.265l4.268 3.954-4.622 4.487 5.247 5.094h-6.832l-3.486-3.385-3.486 3.385h-6.832l5.247-5.094-4.622-4.487c.464-.43 3.849-3.567 4.269-3.954z" class="fil5" id="_155786016" fill="#28ae66"/><path d="M288.471 392.291l5.413-5.255 5.317 4.926-4.635 4.499 5.982 5.808h-8.882l-3.196-3.103-3.196 3.103h-8.881l5.982-5.808-4.635-4.499 5.317-4.926c1.806 1.749 3.609 3.503 5.412 5.255z" class="fil4" id="_155785944" fill="#383739"/><path d="M293.895 388.02c-.444.43-5.424 5.265-5.424 5.265l-5.423-5.265-4.269 3.954 4.623 4.487-5.247 5.094h6.831l3.486-3.385 3.487 3.385h6.831l-5.247-5.094 4.623-4.487c-.464-.43-3.849-3.567-4.269-3.954z" class="fil5" id="_155785872" fill="#28ae66"/><path d="M340.937 534.865l-5.413 5.254-5.317-4.926 4.635-4.498-5.982-5.808h8.882l3.196 3.103 3.196-3.103h8.881l-5.982 5.808 4.634 4.498-5.316 4.926c-1.806-1.749-3.609-3.503-5.412-5.254z" class="fil4" id="_155785800" fill="#383739"/><path d="M335.513 539.136l5.424-5.266 5.423 5.266c.42-.389 3.805-3.526 4.269-3.954l-4.623-4.487 5.247-5.094h-6.831l-3.486 3.384-3.487-3.384h-6.831l5.247 5.094-4.623 4.487 4.269 3.954z" class="fil5" id="_155785728" fill="#28ae66"/><path d="M314.703 534.865l-5.412 5.254-5.317-4.926 4.635-4.498-5.982-5.808h8.881l3.196 3.103 3.196-3.103h8.881l-5.981 5.808 4.634 4.498-5.316 4.926c-1.806-1.749-3.609-3.503-5.413-5.254z" class="fil4" id="_155785656" fill="#383739"/><path d="M309.28 539.136l5.423-5.266 5.424 5.266c.42-.389 3.804-3.526 4.268-3.954l-4.622-4.487 5.247-5.094h-6.832l-3.486 3.384-3.486-3.384h-6.832l5.247 5.094-4.622 4.487 4.269 3.954z" class="fil5" id="_155785584" fill="#28ae66"/><path d="M288.471 534.865l5.413 5.254 5.317-4.926-4.635-4.498 5.982-5.808h-8.882l-3.196 3.103-3.196-3.103h-8.881l5.982 5.808-4.635 4.498 5.317 4.926c1.806-1.749 3.609-3.503 5.412-5.254z" class="fil4" id="_155785512" fill="#383739"/><path d="M293.895 539.136l-5.424-5.266-5.423 5.266c-.42-.389-3.805-3.526-4.269-3.954l4.623-4.487-5.247-5.094h6.831l3.486 3.384 3.487-3.384h6.831l-5.247 5.094 4.623 4.487-4.269 3.954z" class="fil5" id="_155785440" fill="#28ae66"/><path class="fil4" id="_155785368" fill="#383739" d="M244.072 401.555v15.376h-20.898v93.295h20.898v15.376h141.261v-15.376h20.898v-93.295h-20.898v-15.376z"/><path class="fil8" id="_155785296" fill="#ca3745" d="M384.619 402.268v15.376h20.898v91.868h-20.898v15.376h-139.833v-15.376h-20.898v-91.868h20.898v-15.376z"/><path class="fil4" id="_155785224" fill="#383739" d="M375.577 408.17h-121.751v18.516h-24.038v73.785h24.038v18.515h121.75v-18.515h24.039v-73.785h-24.039z"/><path class="fil8" id="_155785152" fill="#ca3745" d="M374.864 408.884v18.515h24.039v72.358h-24.039v18.515h-120.324v-18.515h-24.038v-72.358h24.038v-18.515z"/><path class="fil4" id="_155785080" fill="#383739" d="M229.789 486.426l44.083 32.56h81.661l44.084-32.56v-45.695l-44.084-32.561h-81.661l-44.083 32.561z"/><path d="M355.297 408.884c.188.138 43.319 31.994 43.605 32.206v44.975c-.287.213-43.417 32.068-43.605 32.207h-81.19c-.187-.139-43.318-31.994-43.604-32.207v-44.975c.287-.212 43.417-32.068 43.604-32.206h81.19z" class="fil5" id="_155785008" fill="#28ae66"/><path d="M364.045 418.093h-99.041v7.866h-12.657v75.238h12.657v7.865h99.398v-7.865h12.657v-75.238h-12.657v-7.866h-.357z" class="fil4" id="_155819744" fill="#383739"/><path class="fil8" id="_155819672" fill="#ca3745" d="M363.688 418.807v7.866h12.657v73.811h-12.657v7.865h-97.97v-7.865h-12.657v-73.811h12.657v-7.866z"/><path class="fil4" id="_155819600" fill="#383739" d="M255.436 490.964l21.545 18.097h75.443l21.544-18.097v-54.773l-21.544-18.098h-75.443l-21.545 18.098z"/><path d="M352.163 418.807c.197.165 20.841 17.507 21.091 17.716v54.108c-.251.21-20.894 17.552-21.091 17.716h-74.922c-.196-.165-20.84-17.506-21.09-17.716v-54.108l21.09-17.716h74.922z" class="fil5" id="_155819528" fill="#28ae66"/><path class="fil4" id="_155819456" fill="#383739" d="M259.202 489.21l19.151 16.087h72.699l19.15-16.087v-51.264l-19.15-16.087h-72.699l-19.151 16.087z"/><path d="M350.792 422.572c.196.164 18.446 15.497 18.697 15.706v50.599c-.251.21-18.501 15.541-18.697 15.706h-72.18c-.196-.165-18.448-15.497-18.698-15.706v-50.599c.25-.21 18.502-15.542 18.698-15.706h72.18z" class="fil8" id="_155819384" fill="#ca3745"/><path class="fil4" id="_155819312" fill="#383739" d="M287.037 418.807h55.331v-2.887l-5.819-5.013-5.463 4.707-5.461-4.707-5.462 4.707-5.462-4.707-5.462 4.707-5.462-4.707-5.461 4.707-5.462-4.707-5.819 5.013z"/><path class="fil8" id="_155819240" fill="#ca3745" d="M341.654 418.093h-10.209v-1.846l5.105-4.399 5.104 4.399z"/><path class="fil6" id="_155819168" fill="#faae29" d="M330.73 418.093h-10.209v-1.846l5.105-4.399 5.104 4.399z"/><path class="fil8" id="_155819096" fill="#ca3745" d="M319.807 418.093h-10.21v-1.846l5.105-4.399 5.105 4.399z"/><path class="fil6" id="_155819024" fill="#faae29" d="M308.884 418.093h-10.209v-1.846l5.104-4.399 5.105 4.399z"/><path class="fil8" id="_155818952" fill="#ca3745" d="M297.961 418.093h-10.21v-1.846l5.105-4.399 5.105 4.399z"/><path class="fil4" id="_155818880" fill="#383739" d="M235.874 474.501l4.707 5.462-4.707 5.462 5.013 5.819h12.174v-55.33h-12.174l-5.013 5.818 4.706 5.462-4.706 5.462 4.707 5.462-4.707 5.462 4.707 5.462z"/><path class="fil6" id="_155818808" fill="#faae29" d="M241.214 490.53l-4.398-5.105 4.398-5.105h11.133v10.21z"/><path class="fil8" id="_155818736" fill="#ca3745" d="M241.215 479.606l-4.399-5.105 4.399-5.105h11.132v10.21z"/><path class="fil6" id="_155818664" fill="#faae29" d="M241.215 468.682l-4.399-5.104 4.399-5.105h11.132v10.209z"/><path class="fil8" id="_155818592" fill="#ca3745" d="M241.215 457.759l-4.399-5.105 4.399-5.105h11.132v10.21z"/><path class="fil6" id="_155818520" fill="#faae29" d="M241.214 446.836l-4.398-5.105 4.398-5.104h11.133v10.209z"/><path class="fil4" id="_155818448" fill="#383739" d="M287.037 508.348h55.331v2.887l-5.819 5.014-5.463-4.707-5.461 4.706-5.462-4.707-5.462 4.707-5.462-4.707-5.462 4.707-5.461-4.706-5.462 4.707-5.819-5.014z"/><path class="fil8" id="_155818376" fill="#ca3745" d="M341.654 509.061h-10.209v1.847l5.105 4.398 5.104-4.398z"/><path class="fil6" id="_155818304" fill="#faae29" d="M330.73 509.061h-10.209v1.847l5.105 4.398 5.104-4.398z"/><path class="fil8" id="_155818232" fill="#ca3745" d="M319.807 509.061h-10.21v1.847l5.105 4.398 5.105-4.398z"/><path class="fil6" id="_155818160" fill="#faae29" d="M308.884 509.061h-10.209v1.847l5.104 4.398 5.105-4.398z"/><path class="fil8" id="_155818088" fill="#ca3745" d="M297.961 509.061h-10.21v1.847l5.105 4.398 5.105-4.398z"/><path class="fil4" id="_155818016" fill="#383739" d="M393.531 474.501l-4.707 5.462 4.707 5.462-5.013 5.819h-12.174v-55.33h12.174l5.013 5.818-4.707 5.462 4.707 5.462-4.707 5.462 4.707 5.462-4.707 5.462z"/><path class="fil6" id="_155817944" fill="#faae29" d="M388.191 490.53l4.398-5.105-4.398-5.105h-11.133v10.21z"/><path class="fil8" id="_155817872" fill="#ca3745" d="M388.19 479.606l4.399-5.105-4.399-5.105h-11.132v10.21z"/><path class="fil6" id="_155817800" fill="#faae29" d="M388.19 468.682l4.399-5.104-4.399-5.105h-11.132v10.209z"/><path class="fil8" id="_155802624" fill="#ca3745" d="M388.19 457.759l4.399-5.105-4.399-5.105h-11.132v10.21z"/><path class="fil6" id="_155802552" fill="#faae29" d="M388.191 446.836l4.398-5.105-4.398-5.104h-11.133v10.209z"/><path class="fil3" id="_155802480" fill="#fff" d="M289.384 504.584l4.093-3.939 4.092 3.939z"/><path class="fil4" id="_155802408" fill="#383739" d="M293.477 492.399l-4.001-3.2-4.007 1.732-.72 4.575 3.808 3.351-6.271 6.063h7.779l3.413-3.285 3.413 3.285h7.779l-6.272-6.063 3.809-3.352-.721-4.574-4.007-1.732z"/><path class="fil5" id="_155802336" fill="#28ae66" d="M286.113 491.43l3.252-1.406 4.112 3.288.223-.178 3.888-3.11 3.253 1.406.598 3.799-4.095 3.603 5.948 5.752h-5.724l-4.092-3.939-4.093 3.939h-5.724l5.949-5.752-4.096-3.603z"/><path class="fil3" id="_155802264" fill="#fff" d="M310.611 504.584l4.092-3.939 4.093 3.939z"/><path class="fil4" id="_155802192" fill="#383739" d="M314.703 492.399l-4-3.2-4.007 1.732-.721 4.575 3.809 3.351-6.272 6.063h7.779l3.413-3.285 3.413 3.285h7.779l-6.271-6.063 3.809-3.352-.721-4.574-4.007-1.732z"/><path class="fil5" id="_155802120" fill="#28ae66" d="M307.34 491.43l3.252-1.406 4.111 3.288.223-.178 3.889-3.11 3.252 1.406.599 3.799-4.095 3.603 5.948 5.752h-5.724l-4.093-3.939-4.092 3.939h-5.725l5.949-5.752-4.095-3.603z"/><path class="fil3" id="_155802048" fill="#fff" d="M340.023 504.584l-4.092-3.939-4.093 3.939z"/><path class="fil4" id="_155801976" fill="#383739" d="M335.931 492.399l4-3.2 4.007 1.732.721 4.575-3.809 3.351 6.272 6.063h-7.779l-3.413-3.285-3.413 3.285h-7.779l6.271-6.063-3.809-3.352.721-4.574 4.007-1.732z"/><path class="fil5" id="_155801904" fill="#28ae66" d="M343.294 491.43l-3.252-1.406-4.111 3.288-.224-.178-3.888-3.11-3.252 1.406-.599 3.799 4.095 3.603-5.948 5.752h5.724l4.093-3.939 4.092 3.939h5.724l-5.948-5.752 4.095-3.603z"/><path class="fil3" id="_155801832" fill="#fff" d="M289.384 422.572l4.093 3.938 4.092-3.938z"/><path class="fil4" id="_155801760" fill="#383739" d="M293.477 434.757l-4.001 3.199-4.007-1.732-.72-4.574 3.808-3.351-6.407-6.194h7.779l3.549 3.415 3.549-3.415h7.778l-6.407 6.194 3.809 3.352-.721 4.574-4.007 1.731z"/><path class="fil5" id="_155801688" fill="#28ae66" d="M286.113 435.725l3.252 1.406 4.112-3.287.223.178 3.888 3.109 3.253-1.406.598-3.798-4.095-3.603 5.948-5.752h-5.724l-4.092 3.938-4.093-3.938h-5.724l5.949 5.752-4.096 3.602z"/><path class="fil3" id="_155801616" fill="#fff" d="M310.611 422.572l4.092 3.938 4.093-3.938z"/><path class="fil4" id="_155801544" fill="#383739" d="M314.703 434.757l-4 3.199-4.007-1.732-.721-4.574 3.809-3.351-6.407-6.194h7.778l3.549 3.415 3.549-3.415h7.778l-6.406 6.194 3.809 3.352-.721 4.574-4.007 1.731z"/><path class="fil5" id="_155801472" fill="#28ae66" d="M307.34 435.725l3.252 1.406 4.111-3.287.223.178 3.889 3.109 3.252-1.406.599-3.798-4.095-3.603 5.948-5.752h-5.724l-4.093 3.938-4.092-3.938h-5.725l5.949 5.752-4.095 3.602z"/><path class="fil3" id="_155801400" fill="#fff" d="M340.023 422.572l-4.092 3.938-4.093-3.938z"/><path class="fil4" id="_155801328" fill="#383739" d="M335.931 434.757l4 3.199 4.007-1.732.721-4.574-3.809-3.351 6.407-6.194h-7.778l-3.549 3.415-3.549-3.415h-7.779l6.407 6.194-3.809 3.352.721 4.574 4.007 1.731z"/><path class="fil5" id="_155801256" fill="#28ae66" d="M343.294 435.725l-3.252 1.406-4.111-3.287-.224.178-3.888 3.109-3.252-1.406-.599-3.798 4.095-3.603-5.948-5.752h5.724l4.093 3.938 4.092-3.938h5.724l-5.948 5.752 4.095 3.602z"/><path class="fil7" id="_155801184" fill="#fff" d="M369.489 443.198v5.371h-.007l-3.24-2.682z"/><path d="M364.519 441.912l-3.371-3.052-4.531.569-1.783 3.288 3.178 3.169-3.178 3.168 1.783 3.288 4.531.569 3.371-3.053 5.333 4.396v-6.307l-2.49-2.061 2.49-2.063v-5.64l-.402-.337c-1.643 1.356-3.287 2.71-4.931 4.065z" class="fil4" id="_155801112" fill="#383739"/><path d="M369.489 443.198l-3.247 2.688 3.247 2.687v4.457l-4.993-4.115-3.584 3.247-3.842-.483-1.354-2.498 3.307-3.296-3.307-3.297 1.354-2.498 3.842-.484 3.584 3.248 4.993-4.114v4.456z" class="fil5" id="_155801040" fill="#28ae66"/><path class="fil7" id="_155800968" fill="#fff" d="M369.489 460.89v5.371h-.007l-3.24-2.682z"/><path d="M364.519 459.605l-3.371-3.052-4.531.569-1.783 3.288 3.178 3.169-3.178 3.167 1.783 3.289 4.531.568 3.371-3.052 5.404 4.455v-6.308l-2.561-2.119 2.561-2.121v-6.309c-1.802 1.487-3.602 2.971-5.404 4.456z" class="fil4" id="_155800896" fill="#383739"/><path d="M369.489 460.89l-3.247 2.688 3.247 2.686v4.458l-4.993-4.115-3.584 3.247-3.842-.483-1.354-2.498 3.307-3.296-3.307-3.298 1.354-2.498 3.842-.483 3.584 3.247 4.993-4.113v4.456z" class="fil5" id="_155800824" fill="#28ae66"/><path class="fil7" id="_155800752" fill="#fff" d="M369.489 483.958v-5.371h-.007l-3.24 2.682z"/><path d="M364.519 485.243l-3.371 3.053-4.531-.569-1.783-3.288 3.178-3.169-3.178-3.168 1.783-3.288 4.531-.569 3.371 3.052 5.404-4.454v6.307l-2.561 2.12 2.561 2.121v5.579l-.439.368-4.965-4.094z" class="fil4" id="_155800680" fill="#383739"/><path d="M369.489 483.958l-3.247-2.688 3.247-2.687v-4.457l-4.993 4.115-3.584-3.248-3.842.483-1.354 2.498 3.307 3.297-3.307 3.297 1.354 2.498 3.842.483 3.584-3.247 4.993 4.114v-4.456z" class="fil5" id="_155768192" fill="#28ae66"/><path class="fil7" id="_155768120" fill="#fff" d="M259.919 443.198v5.371h.007l3.239-2.682z"/><path d="M264.89 441.912l3.371-3.052 4.531.569 1.783 3.288-3.179 3.169 3.179 3.168-1.783 3.288-4.531.569-3.371-3.053-5.33 4.394v-6.307l2.487-2.059-2.487-2.06v-5.718l.355-.298c1.658 1.368 3.316 2.734 4.975 4.101z" class="fil4" id="_155768048" fill="#383739"/><path d="M259.919 443.198l3.246 2.688-3.246 2.687v4.457l4.993-4.115 3.584 3.247 3.842-.483 1.354-2.498-3.307-3.296 3.307-3.297-1.354-2.498-3.842-.484-3.584 3.248-4.993-4.114v4.456z" class="fil5" id="_155767976" fill="#28ae66"/><path class="fil7" id="_155767904" fill="#fff" d="M259.919 460.89v5.371h.007l3.239-2.682z"/><path d="M264.89 459.605l3.371-3.052 4.531.569 1.783 3.288-3.179 3.169 3.179 3.167-1.783 3.289-4.531.568-3.371-3.052-5.343 4.404v-6.307l2.5-2.069-2.5-2.071v-6.308l5.343 4.405z" class="fil4" id="_155767832" fill="#383739"/><path d="M259.919 460.89l3.246 2.688-3.246 2.686v4.458l4.993-4.115 3.584 3.247 3.842-.483 1.354-2.498-3.307-3.296 3.307-3.298-1.354-2.498-3.842-.483-3.584 3.247-4.993-4.113v4.456z" class="fil5" id="_155767760" fill="#28ae66"/><path class="fil7" id="_155767688" fill="#fff" d="M259.919 483.958v-5.371h.007l3.239 2.682z"/><path d="M264.89 485.243l3.371 3.053 4.531-.569 1.783-3.288-3.179-3.169 3.179-3.168-1.783-3.288-4.531-.569-3.371 3.052-5.343-4.404v6.307l2.5 2.07-2.5 2.07v5.666l.387.325c1.651-1.364 3.303-2.725 4.956-4.087z" class="fil4" id="_155767616" fill="#383739"/><path d="M259.919 483.958l3.246-2.688-3.246-2.687v-4.457l4.993 4.115 3.584-3.248 3.842.483 1.354 2.498-3.307 3.297 3.307 3.297-1.354 2.498-3.842.483-3.584-3.247-4.993 4.114v-4.456z" class="fil5" id="_155767544" fill="#28ae66"/><path class="fil4" id="_155767472" fill="#383739" d="M332.857 475.8v-6.312h8.823v-11.819h-8.823v-6.313h-6.389v-6.921h-23.531v6.921h-6.389v6.313h-8.824v11.819h8.824v6.312h6.389v6.922h23.531v-6.922z"/><path class="fil6" id="_155767400" fill="#faae29" d="M297.261 458.382v-6.312h6.389v-6.922h10.695v7.134l-10.115 5.75v5.189h-15.792v-4.839z"/><path class="fil6" id="_155767328" fill="#faae29" d="M332.144 468.773v6.313h-6.389v6.922h-10.695v-7.134l10.114-5.751v-5.188h15.793v4.838z"/><path class="fil7" id="_155767256" fill="#fff" d="M332.144 452.07v6.312h8.823v4.839h-15.793v-5.189l-10.114-5.75v-7.134h10.695v6.922z"/><path class="fil7" id="_155767184" fill="#fff" d="M303.65 475.086h-6.389v-6.313h-8.823v-4.838h15.792v5.188l10.115 5.751v7.134h-10.695z"/><path class="fil2" id="_155767112" fill="#ca3745" d="M304.945 463.935v4.81l9.4 5.345v-10.155z"/><path class="fil1" id="_155767040" fill="#28ae66" d="M314.345 453.067l-9.4 5.344v4.81h9.4z"/><path class="fil2" id="_155766968" fill="#ca3745" d="M324.46 463.22v-4.81l-9.4-5.344v10.154z"/><path class="fil1" id="_155766896" fill="#28ae66" d="M315.06 474.089l9.4-5.345v-4.81h-9.4z"/></g><g id="_155698728"><path class="fil4" id="_155766800" fill="#383739" d="M229.198 589.001v19.51h-18.592v17.695h-18.843v50.384h18.843v17.695h18.592v19.51h67.6l11.888 7.143-5.713 3.432h-24.104l-2.079-2.345h21.845l-6.154-6.197h-31.248l14.158 14.739h29.303l10.01-6.014 10.01 6.014h29.305l14.157-14.739h-31.247l-6.155 6.197h21.846l-2.08 2.345h-24.105l-5.713-3.432 11.889-7.143h67.6v-19.51h18.592v-17.695h18.842v-50.384h-18.842v-17.695h-18.592v-19.51h-67.6l-11.889-7.142 5.713-3.433h24.105l2.08 2.345h-21.846l6.155 6.197h31.247l-14.157-14.739h-29.305l-10.01 6.014-10.01-6.014h-29.303l-14.158 14.739h31.248l6.154-6.197h-21.845l2.079-2.345h24.104l5.713 3.433-11.888 7.142z"/><path class="fil8" id="_155766728" fill="#ca3745" d="M418.085 626.919h18.843v48.957h-18.843v17.695h-18.591v19.51h-67.085l-13.075 7.857 6.9 4.145h24.624l3.345-3.771h-21.717l4.738-4.771h29.275l-12.785 13.313h-28.803l-10.207-6.133-10.207 6.133h-28.801l-12.786-13.313h29.276l4.737 4.771h-21.718l3.346 3.771h24.624l6.9-4.145-13.076-7.857h-67.084v-19.51h-18.592v-17.695h-18.842v-48.957h18.842v-17.695h18.592v-19.51h67.084l13.076-7.856-6.9-4.146h-24.624l-3.346 3.772h21.718l-4.737 4.77h-29.276l12.786-13.312h28.801l10.207 6.133 10.207-6.133h28.803l12.785 13.312h-29.275l-4.738-4.77h21.717l-3.345-3.772h-24.624l-6.9 4.146 13.075 7.856h67.085v19.51h18.591z"/><path class="fil4" id="_155766656" fill="#383739" d="M314.702 718.155l20.112-12.085h57.668v-19.509h18.593v-17.696h18.842v-34.934h-18.842v-17.696h-18.593v-19.509h-57.668l-20.112-12.085-20.111 12.085h-57.669v19.509h-18.592v17.696h-18.842v34.934h18.842v17.696h18.592v19.509h57.669z"/><path class="fil6" id="_155766584" fill="#faae29" d="M391.769 685.848v19.509h-57.153l-19.914 11.966-19.913-11.966h-57.154v-19.509h-18.592v-17.696h-18.842v-33.508h18.842v-17.696h18.592v-19.509h57.154l19.913-11.965 19.914 11.965h57.153v19.509h18.592v17.696h18.842v33.508h-18.842v17.696z"/><path class="fil4" id="_155766512" fill="#383739" d="M314.702 712.446l18.755-11.268h54.131v-19.51h18.592v-17.696h18.843v-25.148h-18.843v-17.696h-18.592v-19.509h-54.131l-18.755-11.269-18.754 11.269h-54.132v19.509h-18.592v17.696h-18.842v25.148h18.842v17.696h18.592v19.51h54.132z"/><path class="fil5" id="_155766440" fill="#28ae66" d="M386.876 680.955v19.51h-53.617l-18.557 11.15-18.557-11.15h-53.616v-19.51h-18.593v-17.696h-18.842v-23.721h18.842v-17.696h18.593v-19.509h53.616l18.557-11.15 18.557 11.15h53.617v19.509h18.592v17.696h18.842v23.721h-18.842v17.696z"/><path class="fil4" id="_155766368" fill="#383739" d="M249.549 674.119v18.882h29.472l-29.472-19.548z"/><path class="fil8" id="_155766296" fill="#ca3745" d="M250.262 674.784l26.391 17.505h-26.391z"/><path class="fil4" id="_155749368" fill="#383739" d="M333.77 672.685v-9.642h-3.289l-15.779-9.866-.189.118-15.589 9.748h-3.289v9.642h-9.355v10.356h9.355v9.642h3.289l15.778 9.867 15.779-9.867h3.289v-9.642h9.355v-10.356z"/><path d="M314.702 654.018l14.433 9.025h-28.864l14.432-9.025zm14.432 38.665l-14.432 9.025-14.431-9.025h28.862z" class="fil6" id="_155749296" fill="#faae29"/><path class="fil8" id="_155749224" fill="#ca3745" d="M333.057 683.041v8.929h-17.998v-8.929z"/><path class="fil8" id="_155749152" fill="#ca3745" d="M314.346 683.041v8.929h-17.998v-8.929z"/><path class="fil8" id="_155749080" fill="#ca3745" d="M342.412 673.398v8.93h-17.998v-8.93z"/><path class="fil8" id="_155749008" fill="#ca3745" d="M323.702 673.398v8.93h-17.998v-8.93z"/><path class="fil8" id="_155748936" fill="#ca3745" d="M304.99 673.398v8.93h-17.997v-8.93z"/><path class="fil8" id="_155748864" fill="#ca3745" d="M333.057 663.756v8.93h-17.998v-8.93z"/><path class="fil8" id="_155748792" fill="#ca3745" d="M314.346 663.756v8.93h-17.998v-8.93z"/><path class="fil4" id="_155748720" fill="#383739" d="M287.141 646.22v-9.643h-3.289l-15.779-9.866-.189.119-15.589 9.747h-3.289v9.643h-7.418v10.356h7.418v9.642h3.289l15.778 9.866 15.779-9.866h3.289v-9.642h11.292v-10.356z"/><path d="M268.073 627.554l14.434 9.024h-28.865l14.432-9.024zm14.432 38.665l-14.432 9.024-14.431-9.024h28.862z" class="fil8" id="_155748648" fill="#ca3745"/><path class="fil6" id="_155748576" fill="#faae29" d="M286.427 656.576v8.93h-17.998v-8.93z"/><path class="fil6" id="_155748504" fill="#faae29" d="M267.717 656.576v8.93h-17.998v-8.93z"/><path class="fil6" id="_155748432" fill="#faae29" d="M297.72 646.934v8.93h-17.998v-8.93z"/><path class="fil8" id="_155748360" fill="#ca3745" d="M279.009 646.934v8.93h-17.998v-8.93z"/><path class="fil6" id="_155748288" fill="#faae29" d="M260.299 646.934v8.93h-17.998v-8.93z"/><path class="fil6" id="_155748216" fill="#faae29" d="M286.427 637.292v8.929h-17.998v-8.929z"/><path class="fil6" id="_155748144" fill="#faae29" d="M267.717 637.292v8.929h-17.998v-8.929z"/><path class="fil4" id="_155748072" fill="#383739" d="M342.263 646.22v-9.643h3.289l15.78-9.866.189.119 15.589 9.747h3.289v9.643h7.418v10.356h-7.418v9.642h-3.29l-15.777 9.866-15.78-9.866h-3.289v-9.642h-11.292v-10.356z"/><path d="M361.333 627.554l-14.434 9.024h28.865l-14.432-9.024zm-14.432 38.665l14.432 9.024 14.43-9.024h-28.861z" class="fil8" id="_155748000" fill="#ca3745"/><path class="fil6" id="_155747928" fill="#faae29" d="M342.978 656.576v8.93h17.997v-8.93z"/><path class="fil6" id="_155747856" fill="#faae29" d="M361.687 656.576v8.93h17.998v-8.93z"/><path class="fil6" id="_155747784" fill="#faae29" d="M331.684 646.934v8.93h17.998v-8.93z"/><path class="fil8" id="_155747712" fill="#ca3745" d="M350.396 646.934v8.93h17.997v-8.93z"/><path class="fil6" id="_155747640" fill="#faae29" d="M369.106 646.934v8.93h17.997v-8.93z"/><path class="fil6" id="_155747568" fill="#faae29" d="M342.978 637.292v8.929h17.997v-8.929z"/><path class="fil6" id="_155747496" fill="#faae29" d="M361.687 637.292v8.929h17.998v-8.929z"/><path class="fil4" id="_155747424" fill="#383739" d="M333.77 630.111v9.642h-3.289l-15.779 9.866-.189-.118-15.589-9.748h-3.289v-9.642h-9.355v-10.356h9.355v-9.642h3.289l15.778-9.867 15.779 9.867h3.289v9.642h9.355v10.356z"/><path d="M314.702 648.778l14.433-9.025h-28.864l14.432 9.025zm14.432-38.665l-14.432-9.025-14.431 9.025h28.862z" class="fil6" id="_155734872" fill="#faae29"/><path class="fil8" id="_155734800" fill="#ca3745" d="M333.057 619.755v-8.929h-17.998v8.929z"/><path class="fil8" id="_155734728" fill="#ca3745" d="M314.346 619.755v-8.929h-17.998v8.929z"/><path class="fil8" id="_155734656" fill="#ca3745" d="M342.412 629.398v-8.93h-17.998v8.93z"/><path class="fil8" id="_155734584" fill="#ca3745" d="M323.702 629.398v-8.93h-17.998v8.93z"/><path class="fil8" id="_155734512" fill="#ca3745" d="M304.99 629.398v-8.93h-17.997v8.93z"/><path class="fil8" id="_155734440" fill="#ca3745" d="M333.057 639.04v-8.93h-17.998v8.93z"/><path class="fil8" id="_155734368" fill="#ca3745" d="M314.346 639.04v-8.93h-17.998v8.93z"/><path class="fil4" id="_155734296" fill="#383739" d="M249.549 628.677v-18.883h29.472l-29.472 19.548z"/><path d="M250.262 628.012c1.026-.681 24.593-16.313 26.391-17.505h-26.391v17.505z" class="fil8" id="_155734224" fill="#ca3745"/><path class="fil4" id="_155734152" fill="#383739" d="M379.856 674.119v18.882h-29.472l29.472-19.548z"/><path d="M379.143 674.784c-1.027.681-24.594 16.312-26.391 17.505h26.391v-17.505z" class="fil8" id="_155734080" fill="#ca3745"/><path class="fil4" id="_155734008" fill="#383739" d="M379.856 628.677v-18.883h-29.472l29.472 19.548z"/><path d="M379.143 628.011c-1.027-.68-24.594-16.312-26.391-17.505h26.391v17.505z" class="fil8" id="_155733936" fill="#ca3745"/><path class="fil4" id="_155733864" fill="#383739" d="M255.343 648.918v4.961h-8.084v-4.961z"/><path class="fil7" id="_155733792" fill="#fff" d="M254.581 649.679h-6.562v3.439h6.562z"/><path class="fil4" id="_155733720" fill="#383739" d="M262.761 639.275v4.961h-8.084v-4.961z"/><path class="fil7" id="_155733648" fill="#fff" d="M261.999 640.036h-6.562v3.439h6.562z"/><path class="fil4" id="_155733576" fill="#383739" d="M281.471 639.275v4.961h-8.084v-4.961z"/><path class="fil7" id="_155733504" fill="#fff" d="M280.71 640.036h-6.562v3.439h6.562z"/><path class="fil4" id="_155733432" fill="#383739" d="M274.053 648.918v4.961h-8.084v-4.961z"/><path class="fil7" id="_155733360" fill="#fff" d="M273.292 649.679h-6.562v3.439h6.562z"/><path class="fil4" id="_155733288" fill="#383739" d="M292.764 648.918v4.961h-8.084v-4.961z"/><path class="fil7" id="_155733216" fill="#fff" d="M292.002 649.679h-6.562v3.439h6.562z"/><path class="fil4" id="_155733144" fill="#383739" d="M281.471 658.56v4.961h-8.084v-4.961z"/><path class="fil7" id="_155733072" fill="#fff" d="M280.71 659.321h-6.562v3.439h6.562z"/><path class="fil4" id="_155733000" fill="#383739" d="M262.761 658.56v4.961h-8.084v-4.961z"/><path class="fil7" id="_155732928" fill="#fff" d="M261.999 659.321h-6.562v3.439h6.562z"/><path class="fil4" id="_155727696" fill="#383739" d="M309.39 612.81v4.961h-8.084v-4.961z"/><path class="fil7" id="_155727624" fill="#fff" d="M308.629 613.571h-6.562v3.439h6.562z"/><path class="fil4" id="_155727552" fill="#383739" d="M328.101 612.81v4.961h-8.084v-4.961z"/><path class="fil7" id="_155727480" fill="#fff" d="M327.339 613.571h-6.562v3.439h6.562z"/><path class="fil4" id="_155727408" fill="#383739" d="M300.034 622.453v4.961h-8.084v-4.961z"/><path class="fil7" id="_155727336" fill="#fff" d="M299.272 623.214h-6.562v3.439h6.562z"/><path class="fil4" id="_155727264" fill="#383739" d="M318.745 622.453v4.961h-8.084v-4.961z"/><path class="fil7" id="_155727192" fill="#fff" d="M317.984 623.214h-6.562v3.439h6.562z"/><path class="fil4" id="_155727120" fill="#383739" d="M337.456 622.453v4.961h-8.084v-4.961z"/><path class="fil7" id="_155727048" fill="#fff" d="M336.695 623.214h-6.562v3.439h6.562z"/><path class="fil4" id="_155726976" fill="#383739" d="M309.39 632.095v4.961h-8.084v-4.961z"/><path class="fil7" id="_155726904" fill="#fff" d="M308.629 632.856h-6.562v3.439h6.562z"/><path class="fil4" id="_155726832" fill="#383739" d="M328.101 632.095v4.961h-8.084v-4.961z"/><path class="fil7" id="_155726760" fill="#fff" d="M327.339 632.856h-6.562v3.439h6.562z"/><path class="fil4" id="_155714360" fill="#383739" d="M356.018 639.275v4.961h-8.084v-4.961z"/><path class="fil7" id="_155714288" fill="#fff" d="M355.257 640.036h-6.562v3.439h6.562z"/><path class="fil4" id="_155714216" fill="#383739" d="M374.729 639.275v4.961h-8.084v-4.961z"/><path class="fil7" id="_155714144" fill="#fff" d="M373.968 640.036h-6.562v3.439h6.562z"/><path class="fil4" id="_155714072" fill="#383739" d="M344.726 648.918v4.961h-8.084v-4.961z"/><path class="fil7" id="_155714000" fill="#fff" d="M343.965 649.679h-6.562v3.439h6.562z"/><path class="fil4" id="_155713928" fill="#383739" d="M363.437 648.918v4.961h-8.084v-4.961z"/><path class="fil7" id="_155713856" fill="#fff" d="M362.675 649.679h-6.562v3.439h6.562z"/><path class="fil4" id="_155713784" fill="#383739" d="M382.147 648.918v4.961h-8.084v-4.961z"/><path class="fil7" id="_155713712" fill="#fff" d="M381.386 649.679h-6.562v3.439h6.562z"/><path class="fil4" id="_155713640" fill="#383739" d="M356.018 658.56v4.961h-8.084v-4.961z"/><path class="fil7" id="_155713568" fill="#fff" d="M355.257 659.321h-6.562v3.439h6.562z"/><path class="fil4" id="_155713496" fill="#383739" d="M374.729 658.56v4.961h-8.084v-4.961z"/><path class="fil7" id="_155713424" fill="#fff" d="M373.968 659.321h-6.562v3.439h6.562z"/><path class="fil4" id="_155708192" fill="#383739" d="M309.39 665.74v4.961h-8.084v-4.961z"/><path class="fil7" id="_155708120" fill="#fff" d="M308.629 666.501h-6.562v3.439h6.562z"/><path class="fil4" id="_155708048" fill="#383739" d="M328.101 665.74v4.961h-8.084v-4.961z"/><path class="fil7" id="_155707976" fill="#fff" d="M327.339 666.501h-6.562v3.439h6.562z"/><path class="fil4" id="_155707904" fill="#383739" d="M300.034 675.382v4.961h-8.084v-4.961z"/><path class="fil7" id="_155707832" fill="#fff" d="M299.272 676.143h-6.562v3.439h6.562z"/><path class="fil4" id="_155707760" fill="#383739" d="M318.745 675.382v4.961h-8.084v-4.961z"/><path class="fil7" id="_155707688" fill="#fff" d="M317.984 676.143h-6.562v3.439h6.562z"/><path class="fil4" id="_155707616" fill="#383739" d="M337.456 675.382v4.961h-8.084v-4.961z"/><path class="fil7" id="_155707544" fill="#fff" d="M336.695 676.143h-6.562v3.439h6.562z"/><path class="fil4" id="_155707472" fill="#383739" d="M309.39 685.024v4.961h-8.084v-4.961z"/><path class="fil7" id="_155707400" fill="#fff" d="M308.629 685.785h-6.562v3.439h6.562z"/><path class="fil4" id="_155707328" fill="#383739" d="M328.101 685.024v4.961h-8.084v-4.961z"/><path class="fil7" id="_155698752" fill="#fff" d="M327.339 685.785h-6.562v3.439h6.562z"/></g><g id="_155661568"><path class="fil4" id="_155698656" fill="#383739" d="M416.809 860.27l-70.021 37.683h-64.172l-70.021-37.683v-62.092l70.021-37.684h64.172l70.021 37.684z"/><path class="fil5" id="_155698584" fill="#28ae66" d="M346.608 897.24l69.487-37.396v-61.24l-69.487-37.395h-63.812l-69.486 37.395v61.24l69.486 37.396z"/><path class="fil4" id="_155698512" fill="#383739" d="M411.147 856.856l-65.778 35.399h-61.334l-65.779-35.399v-55.264l65.779-35.4h61.334l65.778 35.4z"/><path class="fil6" id="_155698440" fill="#faae29" d="M410.434 856.43v-26.849h-95.375v61.961h30.131z"/><path class="fil6" id="_155698368" fill="#faae29" d="M218.971 828.867h95.375v-61.96h-30.13l-65.245 35.111z"/><path class="fil7" id="_155698296" fill="#fff" d="M284.216 891.542h30.13v-61.961h-95.375v26.849z"/><path class="fil7" id="_155698224" fill="#fff" d="M410.434 802.018l-65.244-35.111h-30.131v61.96h95.375z"/><path class="fil4" id="_155698152" fill="#383739" d="M345.232 854.262l-18.748 11.896v12.859l12.295 9.016h-18.22v-18.115l-5.857 3.716-5.858-3.716v18.115h-18.219l12.294-9.016v-12.859l-18.748-11.896h-13.101v-50.074h13.101l18.748-11.896v-12.859l-12.294-9.016h18.219v18.116l5.858-3.717 5.857 3.717v-18.116h18.22l-12.295 9.016v12.859l18.748 11.896h13.101v50.074z"/><path class="fil6" id="_155698080" fill="#faae29" d="M345.025 804.901l-19.255-12.217v-13.613l10.828-7.94h-15.327v18.7l-6.212-3.942v42.978h42.56v-23.966z"/><path class="fil6" id="_155698008" fill="#faae29" d="M284.377 853.549l19.254 12.217v13.613l-10.827 7.941h15.326v-18.7l6.215 3.943v-42.982h-42.563v23.968z"/><path class="fil7" id="_155697936" fill="#fff" d="M321.271 887.319h15.327l-10.828-7.941v-13.613l19.255-12.217h12.594v-23.968h-42.56v42.98l6.212-3.941z"/><path class="fil7" id="_155697864" fill="#fff" d="M303.631 792.684l-19.255 12.217h-12.594v23.966h42.563v-42.98l-6.215 3.944v-18.7h-15.326l10.827 7.94z"/><path class="fil4" id="_155697792" fill="#383739" d="M343.726 809.433h9.395v39.585h-9.395l-29.025 18.415-29.026-18.415h-9.395v-39.585h9.395l29.026-18.416.191.121z"/><path class="fil8" id="_155674840" fill="#ca3745" d="M343.519 810.146l-28.818-18.284-28.819 18.284h-8.888v38.158h8.888l28.819 18.284 28.818-18.284h8.889v-38.158h-8.785z"/><path class="fil4" id="_155674768" fill="#383739" d="M322.325 810.95v2.646h3.328v5.292h-8.592v-13.23h19.523v9.207h9.483v13.495h-9.893v-5.292h4.63v-2.91h-6.154l-14.879 9.067 14.879 9.068h6.153v-2.911h-4.629v-5.292h9.893v13.496h-9.484l.001 9.207h-19.523v-13.23h8.592v5.292h-3.328v2.646h8.995v-5.058l-16.618-10.128-16.618 10.128v5.057h8.994v-2.646h-3.328v-5.292h8.592v13.231h-19.522v-9.208h-9.484v-13.495h9.894v5.292h-4.63v2.911h6.153l14.879-9.068-14.879-9.067h-6.153v2.91h4.63v5.292h-9.894v-13.495h9.484v-9.207h19.522v13.23h-8.592v-5.292h3.328v-2.646h-8.994v5.058l16.618 10.128 16.618-10.128v-5.058z"/><path class="fil7" id="_155674696" fill="#fff" d="M287.885 834.668h4.629v-3.865h-8.465v12.069h9.483v9.207h18.095v-11.803h-7.164v3.865h3.328v4.072h-10.422v-6.172l17.333-10.562 17.332 10.563v6.172h-10.422v-4.072h3.329v-3.865h-7.165v11.802h18.095v-9.207h9.484v-12.068h-8.466v3.864h4.629v4.338h-7.066l-16.051-9.781 16.051-9.781h7.067v4.338h-4.63v3.865h8.466v-12.069h-9.483v-9.207h-18.095v11.803h7.164v-3.865h-3.328v-4.072h10.421v6.172l-17.332 10.562-17.333-10.562v-6.172h10.422v4.072h-3.328v3.865h7.164v-11.803h-18.095v9.207h-9.483v12.069h8.465v-3.865h-4.629v-4.338h7.066l16.051 9.781-16.051 9.781h-7.066z"/><path class="fil4" id="_155674624" fill="#383739" d="M379.631 832.363v6.917h8.401v-6.917h8.334v19.585h-8.334v-6.917h-8.401v6.917h-8.334v-19.585z"/><path class="fil4" id="_155674552" fill="#383739" d="M349.808 858.363v6.918h8.401v-6.918h8.334v19.585h-8.334v-6.917h-8.401v6.917h-8.334v-19.585z"/><path class="fil4" id="_155674480" fill="#383739" d="M379.631 826.084v-6.917h8.401v6.917h8.334v-19.585h-8.334v6.917h-8.401v-6.917h-8.334v19.585z"/><path class="fil4" id="_155674408" fill="#383739" d="M249.773 832.363v6.917h-8.401v-6.917h-8.334v19.585h8.334v-6.917h8.401v6.917h8.334v-19.585z"/><path class="fil4" id="_155674336" fill="#383739" d="M249.773 826.084v-6.917h-8.401v6.917h-8.334v-19.585h8.334v6.917h8.401v-6.917h8.334v19.585z"/><path class="fil4" id="_155674264" fill="#383739" d="M349.808 800.085v-6.917h8.401v6.917h8.334v-19.585h-8.334v6.917h-8.401v-6.917h-8.334v19.585z"/><path class="fil4" id="_155674192" fill="#383739" d="M279.596 858.363v6.918h-8.401v-6.918h-8.334v19.585h8.334v-6.917h8.401v6.917h8.334v-19.585z"/><path class="fil4" id="_155674120" fill="#383739" d="M279.596 800.085v-6.917h-8.401v6.917h-8.334v-19.585h8.334v6.917h8.401v-6.917h8.334v19.585z"/><path class="fil8" id="_155674048" fill="#ca3745" d="M372.011 833.078v18.157h6.907v-6.917h9.829v6.917h6.908v-18.157h-6.908v6.917h-9.829v-6.917z"/><path class="fil8" id="_155673976" fill="#ca3745" d="M342.188 859.077v18.157h6.907v-6.917h9.829v6.917h6.907v-18.157h-6.907v6.917h-9.829v-6.917z"/><path class="fil8" id="_155662528" fill="#ca3745" d="M372.011 825.371v-18.157h6.907v6.917h9.829v-6.917h6.908v18.157h-6.908v-6.918h-9.829v6.918z"/><path class="fil8" id="_155662456" fill="#ca3745" d="M257.394 833.078v18.157h-6.907v-6.917h-9.829v6.917h-6.907v-18.157h6.907v6.917h9.829v-6.917z"/><path class="fil8" id="_155662384" fill="#ca3745" d="M257.394 825.371v-18.157h-6.907v6.917h-9.829v-6.917h-6.907v18.157h6.907v-6.918h9.829v6.918z"/><path class="fil8" id="_155662312" fill="#ca3745" d="M342.188 799.371v-18.158h6.907v6.918h9.829v-6.918h6.907v18.158h-6.907v-6.918h-9.829v6.918z"/><path class="fil8" id="_155662240" fill="#ca3745" d="M287.217 859.077v18.157h-6.908v-6.917h-9.829v6.917h-6.907v-18.157h6.907v6.917h9.829v-6.917z"/><path class="fil8" id="_155662168" fill="#ca3745" d="M287.217 799.371v-18.158h-6.908v6.918h-9.829v-6.918h-6.907v18.158h6.907v-6.918h9.829v6.918z"/><path class="fil4" id="_155662096" fill="#383739" d="M399.153 801.231l-27.636-14.873v14.873z"/><path class="fil9" id="_155662024" d="M230.251 857.216l27.636 14.873v-14.873z"/><path class="fil9" id="_155661952" d="M230.251 801.231l27.636-14.873v14.873z"/><path class="fil4" id="_155661880" fill="#383739" d="M399.153 857.216l-27.636 14.873v-14.873z"/><path class="fil6" id="_155661808" fill="#faae29" d="M372.23 800.518v-12.965l24.091 12.965z"/><path class="fil6" id="_155661736" fill="#faae29" d="M257.174 857.929v12.966l-24.09-12.966z"/><path class="fil7" id="_155661664" fill="#fff" d="M257.174 800.518v-12.965l-24.09 12.965z"/><path class="fil7" id="_155661592" fill="#fff" d="M372.23 857.929v12.966l24.091-12.966z"/></g><g id="олива" fill="#faae29"><path d="M201.711 883.882c1.331 5.674 5.842 9.956 6.917 15.84 2.152-6.135 4.136-11.278 2.655-17.99-1.06-4.801-5.098-8.224-5.566-13.158-4.403 3.958-5.351 9.573-4.005 15.308zm-1.116 23.772c3.735 5.12 8.926 9.048 14.658 11.666-1.129-4.485.989-7.862 3.34-11.422 2.832-4.286 4.213-8.496 1.904-13.431-1.076 2.566-2.522 4.697-4.218 6.891-2.509 3.423-4.158 6.466-4.545 10.856-2.901-2.15-4.176-5.361-5.728-8.468-2.365-4.451-6.181-8.171-10.565-10.604 1.165 4.992 2.062 10.271 5.153 14.513zm20.944 15.262c-.798 2.843-1.487 5.663-1.333 8.635-2.468-2.659-5.745-4.66-8.668-6.802-3.981-3.22-8.622-5.491-11.877-9.591.486 6.034 3.068 10.954 7.972 14.625 5.183 3.879 11.434 5.965 16.54 10.039-.764-5.488 1.252-9.885 2.971-14.929 1.433-4.82.046-9.715-3.223-13.388.049 4.072-1.236 7.569-2.382 11.411zm11.632 18.538c1.074 4.163 4.057 7.55 6.094 11.263-5.493-1.703-10.339-4.683-15.305-7.486-5.914-3.22-12.336-5.27-17.69-9.522 2.665 9.865 9.268 15.583 18.929 18.5 6.606 1.995 12.173 1 20.188 4.239-.919-5.426-2.539-11.282-5.104-16.175-1.991-3.539-4.199-7.028-5.429-10.926-1.781 3.201-2.625 6.458-1.683 10.107zm20.212 15.095c1.891 3.24 4.388 5.966 7.484 8.117-7.798.497-14.073-4.445-21.675-4.66-4.696-.132-9.153 1.326-13.942.888 5.683 3.834 11.632 7.182 18.551 8.077 8.994 1.163 17.288-1.1 27.21-.215-4.637-3.272-6.957-7.652-9.847-12.361-3.763-5.882-7.315-10.074-14.635-11.02 2.938 3.303 4.649 7.394 6.855 11.173zm27.693 12.943c-13.737 2.335-26.901 5.357-40.931 5.496 15.704 5.475 30.502 6.465 46.077.812 8.417-3.055 14.871-4.691 21.228-4.235 9.29.667 20.581 4.333 33.076 17.512l4.911-3.93c-17.91-15.956-41.342-19.569-64.362-15.654z" class="fil6" id="_155640120"/><path d="M427.761 883.882c-1.331 5.674-5.841 9.956-6.917 15.84-2.152-6.135-4.135-11.278-2.654-17.99 1.059-4.801 5.097-8.224 5.565-13.158 4.403 3.958 5.351 9.573 4.005 15.308zm1.116 23.772c-3.735 5.12-8.926 9.048-14.657 11.666 1.128-4.485-.99-7.862-3.341-11.422-2.832-4.286-4.213-8.496-1.904-13.431 1.076 2.566 2.523 4.697 4.218 6.891 2.509 3.423 4.159 6.466 4.545 10.856 2.901-2.15 4.177-5.361 5.728-8.468 2.365-4.451 6.181-8.171 10.565-10.604-1.165 4.992-2.061 10.271-5.153 14.513zm-20.944 15.262c.798 2.843 1.488 5.663 1.333 8.635 2.469-2.659 5.745-4.66 8.668-6.802 3.982-3.22 8.622-5.491 11.877-9.591-.486 6.034-3.068 10.954-7.972 14.625-5.183 3.879-11.434 5.965-16.54 10.039.765-5.488-1.252-9.885-2.971-14.929-1.432-4.82-.046-9.715 3.223-13.388-.048 4.072 1.236 7.569 2.382 11.411zm-11.632 18.538c-1.074 4.163-4.057 7.55-6.094 11.263 5.493-1.703 10.339-4.683 15.305-7.486 5.914-3.22 12.336-5.27 17.691-9.522-2.666 9.865-9.269 15.583-18.93 18.5-6.606 1.995-12.173 1-20.188 4.239.919-5.426 2.539-11.282 5.104-16.175 1.991-3.539 4.2-7.028 5.429-10.926 1.781 3.201 2.625 6.458 1.683 10.107zm-20.212 15.095c-1.891 3.24-4.388 5.966-7.483 8.117 7.797.497 14.073-4.445 21.674-4.66 4.696-.132 9.153 1.326 13.943.888-5.684 3.834-11.633 7.182-18.552 8.077-8.994 1.163-17.288-1.1-27.21-.215 4.637-3.272 6.957-7.652 9.847-12.361 3.763-5.882 7.315-10.074 14.636-11.02-2.939 3.303-4.65 7.394-6.856 11.173zm-27.693 12.943c13.737 2.335 26.901 5.357 40.931 5.496-15.704 5.475-30.502 6.465-46.077.812-8.417-3.055-14.871-4.691-21.228-4.235-9.29.667-20.581 4.333-33.076 17.512l-4.911-3.93c17.91-15.956 41.342-19.569 64.362-15.654z" class="fil6" id="_155640048"/></g><g id="_155639520"><path class="fil4" id="_155639904" fill="#383739" d="M200.365 219.099l5.124 4.774-25.659 23.905v-9.763l15.181-14.142-5.124-4.774 10.807-10.067-4.708-4.386v6.283h-9.313v-7.516l20.955-19.522h10.532l1.207 6.904h-6.112l6.629 6.174 16.563-15.125-16.563-15.125-6.629 6.175h6.112l-1.207 6.903h-10.532l-20.955-19.521v-7.517h9.313v6.283l4.708-4.386-10.807-10.067 5.124-4.774-15.181-14.143v-9.762l25.659 23.905-5.124 4.774 10.806 10.067-9.275 8.64 6.136 5.717 11.807-11.001 25.928 23.832-25.928 23.833-11.807-11.002-6.136 5.717 9.275 8.64z"/><path class="fil6" id="_155639832" fill="#faae29" d="M211.424 173.602l8.454-7.877 17.652 16.12-17.652 16.12-8.454-7.877h7.052l-.96-5.49h-9.574l-20.511 19.107v6.518h7.796v-7.282l6.539 6.091-10.805 10.067 5.123 4.774-16.256 15.143v7.764l24.588-22.907-5.123-4.774 10.805-10.067-9.275-8.64 7.209-6.716 11.811 11.004 24.844-22.836-24.844-22.837-11.811 11.005-7.209-6.716 9.275-8.64-10.805-10.067 5.123-4.774-24.588-22.907v7.764l16.256 15.143-5.123 4.774 10.805 10.067-6.539 6.091v-7.282h-7.796v6.518l20.511 19.107h9.574l.96-5.49z"/><path class="fil4" id="_155639760" fill="#383739" d="M229.055 181.53l-5.469 5.093-.892-5.093.892-5.094z"/><path class="fil6" id="_155639688" fill="#faae29" d="M224.097 177.911l-.634 3.619.634 3.619 3.885-3.619z"/><path class="fil4" id="_155639616" fill="#383739" d="M192.172 187.003l5.138-5.15-5.138-5.164h-6.311v-7.228l-6.032-6.032v36.836l6.032-6.032v-7.228z"/><path class="fil6" id="_155639544" fill="#faae29" d="M191.875 177.403l4.428 4.45-4.428 4.437h-6.728v7.647l-5.319 5.318v-34.816l5.319 5.319v7.646z"/></g><g id="_155634008"><path class="fil4" id="_155639448" fill="#383739" d="M200.365 406.921l5.124 4.774-25.659 23.905v-9.763l15.181-14.142-5.124-4.774 10.807-10.067-4.708-4.386v6.283h-9.313v-7.516l20.955-19.522h10.532l1.207 6.904h-6.112l6.629 6.174 16.563-15.125-16.563-15.125-6.629 6.175h6.112l-1.207 6.903h-10.532l-20.955-19.521v-7.517h9.313v6.283l4.708-4.386-10.807-10.067 5.124-4.774-15.181-14.143v-9.762l25.659 23.905-5.124 4.774 10.806 10.067-9.275 8.64 6.136 5.717 11.807-11.001 25.928 23.832-25.928 23.833-11.807-11.002-6.136 5.717 9.275 8.64z"/><path class="fil6" id="_155639376" fill="#faae29" d="M211.424 361.423l8.454-7.877 17.652 16.12-17.652 16.12-8.454-7.877h7.052l-.96-5.49h-9.574l-20.511 19.107v6.518h7.796v-7.282l6.539 6.091-10.805 10.067 5.123 4.774-16.256 15.143v7.764l24.588-22.907-5.123-4.774 10.805-10.067-9.275-8.64 7.209-6.716 11.811 11.004 24.844-22.836-24.844-22.837-11.811 11.005-7.209-6.716 9.275-8.64-10.805-10.067 5.123-4.774-24.588-22.907v7.764l16.256 15.143-5.123 4.774 10.805 10.067-6.539 6.091v-7.282h-7.796v6.518l20.511 19.107h9.574l.96-5.49z"/><path class="fil4" id="_155639304" fill="#383739" d="M229.055 369.351l-5.469 5.093-.892-5.093.892-5.094z"/><path class="fil6" id="_155639232" fill="#faae29" d="M224.097 365.732l-.634 3.619.634 3.619 3.885-3.619z"/><path class="fil4" id="_155634104" fill="#383739" d="M192.172 374.825l5.138-5.15-5.138-5.164h-6.311v-7.228l-6.032-6.032v36.836l6.032-6.032v-7.228z"/><path class="fil6" id="_155634032" fill="#faae29" d="M191.875 365.225l4.428 4.45-4.428 4.437h-6.728v7.647l-5.319 5.318v-34.816l5.319 5.319v7.646z"/></g><g id="_155633552"><path class="fil4" id="_155633936" fill="#383739" d="M200.365 594.738l5.124 4.774-25.659 23.905v-9.763l15.181-14.142-5.124-4.774 10.807-10.067-4.708-4.386v6.283h-9.313v-7.516l20.955-19.522h10.532l1.207 6.904h-6.112l6.629 6.174 16.563-15.125-16.563-15.125-6.629 6.175h6.112l-1.207 6.903h-10.532l-20.955-19.521v-7.517h9.313v6.283l4.708-4.386-10.807-10.067 5.124-4.774-15.181-14.143v-9.762l25.659 23.905-5.124 4.774 10.806 10.067-9.275 8.64 6.136 5.717 11.807-11.001 25.928 23.832-25.928 23.833-11.807-11.002-6.136 5.717 9.275 8.64z"/><path class="fil6" id="_155633864" fill="#faae29" d="M211.424 549.241l8.454-7.877 17.652 16.12-17.652 16.12-8.454-7.877h7.052l-.96-5.49h-9.574l-20.511 19.107v6.518h7.796v-7.282l6.539 6.091-10.805 10.067 5.123 4.774-16.256 15.143v7.764l24.588-22.907-5.123-4.774 10.805-10.067-9.275-8.64 7.209-6.716 11.811 11.004 24.844-22.836-24.844-22.837-11.811 11.005-7.209-6.716 9.275-8.64-10.805-10.067 5.123-4.774-24.588-22.907v7.764l16.256 15.143-5.123 4.774 10.805 10.067-6.539 6.091v-7.282h-7.796v6.518l20.511 19.107h9.574l.96-5.49z"/><path class="fil4" id="_155633792" fill="#383739" d="M229.055 557.169l-5.469 5.093-.892-5.093.892-5.094z"/><path class="fil6" id="_155633720" fill="#faae29" d="M224.097 553.55l-.634 3.619.634 3.619 3.885-3.619z"/><path class="fil4" id="_155633648" fill="#383739" d="M192.172 562.642l5.138-5.15-5.138-5.164h-6.311v-7.228l-6.032-6.032v36.836l6.032-6.032v-7.228z"/><path class="fil6" id="_155633576" fill="#faae29" d="M191.875 553.042l4.428 4.45-4.428 4.437h-6.728v7.647l-5.319 5.318v-34.816l5.319 5.319v7.646z"/></g><g id="_155620248"><path class="fil4" id="_155633480" fill="#383739" d="M200.365 782.559l5.124 4.774-25.659 23.905v-9.763l15.181-14.142-5.124-4.774 10.807-10.067-4.708-4.386v6.283h-9.313v-7.516l20.955-19.522h10.532l1.207 6.904h-6.112l6.629 6.174 16.563-15.125-16.563-15.125-6.629 6.175h6.112l-1.207 6.903h-10.532l-20.955-19.521v-7.517h9.313v6.283l4.708-4.386-10.807-10.067 5.124-4.774-15.181-14.143v-9.762l25.659 23.905-5.124 4.774 10.806 10.067-9.275 8.64 6.136 5.717 11.807-11.001 25.928 23.832-25.928 23.833-11.807-11.002-6.136 5.717 9.275 8.64z"/><path class="fil6" id="_155633408" fill="#faae29" d="M211.424 737.061l8.454-7.877 17.652 16.12-17.652 16.12-8.454-7.877h7.052l-.96-5.49h-9.574l-20.511 19.107v6.518h7.796v-7.282l6.539 6.091-10.805 10.067 5.123 4.774-16.256 15.143v7.764l24.588-22.907-5.123-4.774 10.805-10.067-9.275-8.64 7.209-6.716 11.811 11.004 24.844-22.836-24.844-22.837-11.811 11.005-7.209-6.716 9.275-8.64-10.805-10.067 5.123-4.774-24.588-22.907v7.764l16.256 15.143-5.123 4.774 10.805 10.067-6.539 6.091v-7.282h-7.796v6.518l20.511 19.107h9.574l.96-5.49z"/><path class="fil4" id="_155633336" fill="#383739" d="M229.055 744.989l-5.469 5.093-.892-5.093.892-5.094z"/><path class="fil6" id="_155633264" fill="#faae29" d="M224.097 741.37l-.634 3.619.634 3.619 3.885-3.619z"/><path class="fil4" id="_155633192" fill="#383739" d="M192.172 750.463l5.138-5.15-5.138-5.164h-6.311v-7.228l-6.032-6.032v36.836l6.032-6.032v-7.228z"/><path class="fil6" id="_155620272" fill="#faae29" d="M191.875 740.863l4.428 4.45-4.428 4.437h-6.728v7.647l-5.319 5.318v-34.816l5.319 5.319v7.646z"/></g><g id="_155619792"><path class="fil4" id="_155620176" fill="#383739" d="M429.039 219.099l-5.124 4.774 25.659 23.905v-9.763l-15.181-14.142 5.124-4.774-10.807-10.067 4.708-4.386v6.283h9.313v-7.516l-20.955-19.522h-10.532l-1.207 6.904h6.112l-6.629 6.174-16.563-15.125 16.563-15.125 6.629 6.175h-6.112l1.207 6.903h10.532l20.955-19.521v-7.517h-9.313v6.283l-4.708-4.386 10.807-10.067-5.124-4.774 15.181-14.143v-9.762l-25.659 23.905 5.124 4.774-10.806 10.067 9.275 8.64-6.136 5.717-11.807-11.001-25.928 23.832 25.928 23.833 11.807-11.002 6.136 5.717-9.275 8.64z"/><path class="fil6" id="_155620104" fill="#faae29" d="M417.981 173.602l-8.454-7.877-17.652 16.12 17.652 16.12 8.454-7.877h-7.052l.96-5.49h9.574l20.511 19.107v6.518h-7.796v-7.282l-6.539 6.091 10.805 10.067-5.123 4.774 16.256 15.143v7.764l-24.588-22.907 5.123-4.774-10.805-10.067 9.275-8.64-7.209-6.716-11.811 11.004-24.844-22.836 24.844-22.837 11.811 11.005 7.209-6.716-9.275-8.64 10.805-10.067-5.123-4.774 24.588-22.907v7.764l-16.256 15.143 5.123 4.774-10.805 10.067 6.539 6.091v-7.282h7.796v6.518l-20.511 19.107h-9.574l-.96-5.49z"/><path class="fil4" id="_155620032" fill="#383739" d="M400.349 181.53l5.469 5.093.892-5.093-.892-5.094z"/><path class="fil6" id="_155619960" fill="#faae29" d="M405.307 177.911l.634 3.619-.634 3.619-3.885-3.619z"/><path class="fil4" id="_155619888" fill="#383739" d="M437.233 187.003l-5.138-5.15 5.138-5.164h6.311v-7.228l6.032-6.032v36.836l-6.032-6.032v-7.228z"/><path class="fil6" id="_155619816" fill="#faae29" d="M437.529 177.403l-4.428 4.45 4.428 4.437h6.728v7.647l5.319 5.318v-34.816l-5.319 5.319v7.646z"/></g><g id="_155619336"><path class="fil4" id="_155619720" fill="#383739" d="M429.039 406.921l-5.124 4.774 25.659 23.905v-9.763l-15.181-14.142 5.124-4.774-10.807-10.067 4.708-4.386v6.283h9.313v-7.516l-20.955-19.522h-10.532l-1.207 6.904h6.112l-6.629 6.174-16.563-15.125 16.563-15.125 6.629 6.175h-6.112l1.207 6.903h10.532l20.955-19.521v-7.517h-9.313v6.283l-4.708-4.386 10.807-10.067-5.124-4.774 15.181-14.143v-9.762l-25.659 23.905 5.124 4.774-10.806 10.067 9.275 8.64-6.136 5.717-11.807-11.001-25.928 23.832 25.928 23.833 11.807-11.002 6.136 5.717-9.275 8.64z"/><path class="fil6" id="_155619648" fill="#faae29" d="M417.981 361.423l-8.454-7.877-17.652 16.12 17.652 16.12 8.454-7.877h-7.052l.96-5.49h9.574l20.511 19.107v6.518h-7.796v-7.282l-6.539 6.091 10.805 10.067-5.123 4.774 16.256 15.143v7.764l-24.588-22.907 5.123-4.774-10.805-10.067 9.275-8.64-7.209-6.716-11.811 11.004-24.844-22.836 24.844-22.837 11.811 11.005 7.209-6.716-9.275-8.64 10.805-10.067-5.123-4.774 24.588-22.907v7.764l-16.256 15.143 5.123 4.774-10.805 10.067 6.539 6.091v-7.282h7.796v6.518l-20.511 19.107h-9.574l-.96-5.49z"/><path class="fil4" id="_155619576" fill="#383739" d="M400.349 369.351l5.469 5.093.892-5.093-.892-5.094z"/><path class="fil6" id="_155619504" fill="#faae29" d="M405.307 365.732l.634 3.619-.634 3.619-3.885-3.619z"/><path class="fil4" id="_155619432" fill="#383739" d="M437.233 374.825l-5.138-5.15 5.138-5.164h6.311v-7.228l6.032-6.032v36.836l-6.032-6.032v-7.228z"/><path class="fil6" id="_155619360" fill="#faae29" d="M437.529 365.225l-4.428 4.45 4.428 4.437h6.728v7.647l5.319 5.318v-34.816l-5.319 5.319v7.646z"/></g><g id="_155610240"><path class="fil4" id="_155610624" fill="#383739" d="M429.039 594.738l-5.124 4.774 25.659 23.905v-9.763l-15.181-14.142 5.124-4.774-10.807-10.067 4.708-4.386v6.283h9.313v-7.516l-20.955-19.522h-10.532l-1.207 6.904h6.112l-6.629 6.174-16.563-15.125 16.563-15.125 6.629 6.175h-6.112l1.207 6.903h10.532l20.955-19.521v-7.517h-9.313v6.283l-4.708-4.386 10.807-10.067-5.124-4.774 15.181-14.143v-9.762l-25.659 23.905 5.124 4.774-10.806 10.067 9.275 8.64-6.136 5.717-11.807-11.001-25.928 23.832 25.928 23.833 11.807-11.002 6.136 5.717-9.275 8.64z"/><path class="fil6" id="_155610552" fill="#faae29" d="M417.981 549.241l-8.454-7.877-17.652 16.12 17.652 16.12 8.454-7.877h-7.052l.96-5.49h9.574l20.511 19.107v6.518h-7.796v-7.282l-6.539 6.091 10.805 10.067-5.123 4.774 16.256 15.143v7.764l-24.588-22.907 5.123-4.774-10.805-10.067 9.275-8.64-7.209-6.716-11.811 11.004-24.844-22.836 24.844-22.837 11.811 11.005 7.209-6.716-9.275-8.64 10.805-10.067-5.123-4.774 24.588-22.907v7.764l-16.256 15.143 5.123 4.774-10.805 10.067 6.539 6.091v-7.282h7.796v6.518l-20.511 19.107h-9.574l-.96-5.49z"/><path class="fil4" id="_155610480" fill="#383739" d="M400.349 557.169l5.469 5.093.892-5.093-.892-5.094z"/><path class="fil6" id="_155610408" fill="#faae29" d="M405.307 553.55l.634 3.619-.634 3.619-3.885-3.619z"/><path class="fil4" id="_155610336" fill="#383739" d="M437.233 562.642l-5.138-5.15 5.138-5.164h6.311v-7.228l6.032-6.032v36.836l-6.032-6.032v-7.228z"/><path class="fil6" id="_155610264" fill="#faae29" d="M437.529 553.042l-4.428 4.45 4.428 4.437h6.728v7.647l5.319 5.318v-34.816l-5.319 5.319v7.646z"/></g><g id="_155609784"><path class="fil4" id="_155610168" fill="#383739" d="M429.039 782.559l-5.124 4.774 25.659 23.905v-9.763l-15.181-14.142 5.124-4.774-10.807-10.067 4.708-4.386v6.283h9.313v-7.516l-20.955-19.522h-10.532l-1.207 6.904h6.112l-6.629 6.174-16.563-15.125 16.563-15.125 6.629 6.175h-6.112l1.207 6.903h10.532l20.955-19.521v-7.517h-9.313v6.283l-4.708-4.386 10.807-10.067-5.124-4.774 15.181-14.143v-9.762l-25.659 23.905 5.124 4.774-10.806 10.067 9.275 8.64-6.136 5.717-11.807-11.001-25.928 23.832 25.928 23.833 11.807-11.002 6.136 5.717-9.275 8.64z"/><path class="fil6" id="_155610096" fill="#faae29" d="M417.981 737.061l-8.454-7.877-17.652 16.12 17.652 16.12 8.454-7.877h-7.052l.96-5.49h9.574l20.511 19.107v6.518h-7.796v-7.282l-6.539 6.091 10.805 10.067-5.123 4.774 16.256 15.143v7.764l-24.588-22.907 5.123-4.774-10.805-10.067 9.275-8.64-7.209-6.716-11.811 11.004-24.844-22.836 24.844-22.837 11.811 11.005 7.209-6.716-9.275-8.64 10.805-10.067-5.123-4.774 24.588-22.907v7.764l-16.256 15.143 5.123 4.774-10.805 10.067 6.539 6.091v-7.282h7.796v6.518l-20.511 19.107h-9.574l-.96-5.49z"/><path class="fil4" id="_155610024" fill="#383739" d="M400.349 744.989l5.469 5.093.892-5.093-.892-5.094z"/><path class="fil6" id="_155609952" fill="#faae29" d="M405.307 741.37l.634 3.619-.634 3.619-3.885-3.619z"/><path class="fil4" id="_155609880" fill="#383739" d="M437.233 750.463l-5.138-5.15 5.138-5.164h6.311v-7.228l6.032-6.032v36.836l-6.032-6.032v-7.228z"/><path class="fil6" id="_155609808" fill="#faae29" d="M437.529 740.863l-4.428 4.45 4.428 4.437h6.728v7.647l5.319 5.318v-34.816l-5.319 5.319v7.646z"/></g><g id="_155603432"><path class="fil4" id="_155609712" fill="#383739" d="M195.986 22.804v6.283h-9.313v-7.516l20.955-19.522h10.532l1.207 6.904h-6.112l6.629 6.174 16.561-15.123h9.32l-25.926 23.831-11.807-11.002-6.136 5.717 9.275 8.64-10.806 10.067 5.124 4.774-25.659 23.905v-9.763l15.181-14.142-5.124-4.774 10.807-10.067z"/><path class="fil6" id="_155603744" fill="#faae29" d="M196.084 42.03l-16.256 15.143v7.764l24.588-22.907-5.123-4.774 10.805-10.067-9.275-8.64 7.209-6.716 11.811 11.004 24.842-22.834h-7.157l-17.65 16.118-8.454-7.877h7.052l-.96-5.49h-9.574l-20.511 19.107v6.518h7.796v-7.282l6.539 6.091-10.805 10.067z"/><path class="fil4" id="_155603672" fill="#383739" d="M228.714.004l-5.128 4.776-.836-4.776z"/><path class="fil6" id="_155603600" fill="#faae29" d="M223.518.004l.578 3.301 3.545-3.301z"/><path class="fil4" id="_155603528" fill="#383739" d="M197.304.004h-17.476v18.417l6.032-6.032v-7.228h6.311l5.138-5.15z"/><path class="fil6" id="_155603456" fill="#faae29" d="M179.828 17.412v-17.408h16.469l.006.006-4.428 4.437h-6.728v7.647z"/></g><g id="_155602976"><path class="fil4" id="_155603360" fill="#383739" d="M433.418 22.804v6.283h9.313v-7.516l-20.955-19.522h-10.532l-1.207 6.904h6.112l-6.629 6.174-16.561-15.123h-9.32l25.926 23.831 11.807-11.002 6.136 5.717-9.275 8.64 10.806 10.067-5.124 4.774 25.659 23.905v-9.763l-15.181-14.142 5.124-4.774-10.807-10.067z"/><path class="fil6" id="_155603288" fill="#faae29" d="M433.32 42.03l16.256 15.143v7.764l-24.588-22.907 5.123-4.774-10.805-10.067 9.275-8.64-7.209-6.716-11.811 11.004-24.842-22.834h7.157l17.65 16.118 8.454-7.877h-7.052l.96-5.49h9.574l20.511 19.107v6.518h-7.796v-7.282l-6.539 6.091 10.805 10.067z"/><path class="fil4" id="_155603216" fill="#383739" d="M400.69.004l5.128 4.776.836-4.776z"/><path class="fil6" id="_155603144" fill="#faae29" d="M405.886.004l-.578 3.301-3.545-3.301z"/><path class="fil4" id="_155603072" fill="#383739" d="M432.1.004h17.476v18.417l-6.032-6.032v-7.228h-6.311l-5.138-5.15z"/><path class="fil6" id="_155603000" fill="#faae29" d="M449.576 17.412v-17.408h-16.469l-.006.006 4.428 4.437h6.728v7.647z"/></g></svg>