<svg xmlns:dc="http://purl.org/dc/elements/1.1/" xmlns:cc="http://creativecommons.org/ns#" xmlns:rdf="http://www.w3.org/1999/02/22-rdf-syntax-ns#" xmlns:svg="http://www.w3.org/2000/svg" xmlns="http://www.w3.org/2000/svg" xmlns:xlink="http://www.w3.org/1999/xlink" version="1" width="1000" height="500"><path fill="#5b97b1" d="M0 0h1000v500h-1000z"/><svg width="500" height="250" viewBox="0 0 600 300"><path fill="#00247d" d="M0 0h600v300h-600z"/><path d="M0 0l600 300m0-300l-600 300" stroke="#fff" stroke-width="60"/><clipPath id="a"><path d="M300 150h300v150zm0 0v150h-300zm0 0h-300v-150zm0 0v-150h300z"/></clipPath><path d="M0 0l600 300m0-300l-600 300" clip-path="url(#a)" stroke="#cf142b" stroke-width="40"/><path d="M300 0v300m-300-150h600" stroke="#fff" stroke-width="100"/><path d="M300 0v300m-300-150h600" stroke="#cf142b" stroke-width="60"/></svg><symbol id="b"><path fill="#ffce00" d="M250.05 157.048l9.262-28.635 9.257 28.636 30.039-.022-24.318 17.671 9.303 28.621-24.286-17.715-24.289 17.71 9.308-28.619-24.315-17.675z"/></symbol><use x="657.663" y="-98.26" width="1000" height="500" xlink:href="#b"/><use x="569.001" y="153.873" width="1000" height="500" xlink:href="#b"/><use x="657.663" y="96.797" width="1000" height="500" xlink:href="#b"/><use x="276.415" y="279.663" width="1000" height="500" xlink:href="#b"/><use transform="matrix(-1 0 0 -1 918.056 489.942)" width="1000" height="500" xlink:href="#b"/><use transform="matrix(-1 0 0 -1 1023.06 344.724)" width="1000" height="500" xlink:href="#b"/><use transform="matrix(-1 0 0 -1 1111.308 314.563)" width="1000" height="500" xlink:href="#b"/><use transform="matrix(-1 0 0 -1 1023.06 565.902)" width="1000" height="500" xlink:href="#b"/><use transform="matrix(-1 0 0 -1 918.056 591.595)" width="1000" height="500" xlink:href="#b"/></svg>