<svg xmlns="http://www.w3.org/2000/svg" height="800" width="1200"><path fill-rule="evenodd" fill="#4b92db" d="M0 0h1200v800h-1200z"/><path d="M662.772 587.031c-2.694 3.078-6.18 5.955-9.466 8.608-21.232-21.943-46.16-46.262-69.853-46.262-14.69 0-25.27 11.182-37.613 19.072-17.129 10.949-40.626 17.115-60.762 9.079-10.83-4.112-21.323-10.169-29.165-20.009 15.848 10.93 39.581 12.399 57.472 4.977 19.776-8.204 39.904-19.098 62.441-19.098 33.222 0 64.796 22.472 86.946 43.634zm-245.542-69.014c21.996 25.038 57.871 16.983 87.233 23.236 4.087.87 7.927 2.228 12.314 1.554-3.491-2.213-8.118-2.463-12.151-3.982-22.783-8.583-26.335-32.966-38.803-49.748 15.925 10.587 29.119 25.082 44.011 38.704 10.365 9.48 23.278 13.536 36.67 16.261-3.218 1.176-7.428.899-10.894 1.758-24.056 5.968-50.727 15.388-76.324 6.941-16.519-5.451-33.709-18.361-42.057-34.725zm-35.258-57.95c13.72 31.063 48.191 33.496 71.111 52.552 4.358 3.624 8.678 6.958 13.466 9.191l.247-.25c-5.289-4.786-11.013-10.489-15.109-16.441-13.1-19.034-8.741-45.051-18.841-65.231 9.177 10.988 17.784 22.303 23.068 34.883 8.503 20.245 11.392 43.342 30.463 58.726-20.641-6.81-44.452-5.454-63.039-17.629-19.538-12.797-37.645-32.995-41.366-55.802zm-14.697-62.846c1.984 27.368 31.121 41.987 45.014 64.484 2.967 4.805 6.021 9.765 10.33 13.645-.672-2.914-3.069-5.496-4.389-8.354-4.456-9.653-6.473-20.824-5.361-32.31 1.353-13.975 7.179-26.953 4.943-41.655 11.975 25.848 8.112 58.162 15.033 86.11 1.531 6.183 5.296 11.593 7.616 17.449-11.766-8.951-27.185-16.896-40.1-27.076-12.49-9.845-23.331-21.384-28.967-36.398-4.061-10.819-5.117-23.724-4.12-35.896zm.814-50.425c1.406-6.108 2.481-12.43 5.138-18.033-5.032 25.817 12.144 44.466 18.007 66.802 2.21 8.417 2.966 17.361 6.37 25.215.318.17.593-.16.789-.414-8.474-23.771 3.948-45.74 16.049-64.477 3.181-4.925 4.712-10.66 6.197-16.458 1.308 10.761-.982 23.217-2.973 34.322-2.563 14.296-7.449 27.695-11.333 41.488-2.557 8.617-1.883 18.342-.571 27.37l-1.233-.984c-9.009-16.632-26.784-29.625-32.152-47.777-4.29-14.508-7.258-31.269-4.288-47.053zm9.503-27.772c0-19.537 7.607-35.474 19.017-50.024.331-.165.567-.497.994-.419-12.562 19.108-1.128 43.228-2.743 64.901l-1.657 22.244c.246.162.246.829.829.574.742-2.48.967-5.118 1.399-7.679 3.024-17.933 18.771-30.414 32.125-43.075 3.159-2.995 5.472-6.536 6.961-10.341-1.111 8.933-3.603 18.09-7.612 26.207-10.279 20.81-30.132 37.608-33.703 61.258-1.732-22.665-15.613-39.514-15.613-63.646zm33.111-65.903c6.317-7.003 13.396-12.459 21.824-14.617-16.366 11.254-15.478 31.366-20.488 48.183-1.832 6.149-4.525 11.91-5.956 18.265l.414.331c2.723-7.185 7.395-14.091 13.481-19.833 11.511-10.861 28.818-17.434 34.514-33.321-.261 22.077-19.079 38.858-36.266 51.841-7.709 5.823-14.26 13.641-18.258 21.837.668-6.1.971-11.174.427-17.128-1.764-19.285-2.908-40.905 10.308-55.558zm66.428-37.116c-12.146 10.658-20.251 24.376-29.582 36.708-7.761 10.257-18.409 16.612-27.567 25.219 4.943-10.256 5.856-22.008 12.134-31.93 10.735-16.966 28.477-23.552 45.015-29.997zm60.097 371.026c2.694 3.078 6.18 5.955 9.466 8.608 21.232-21.943 46.16-46.262 69.853-46.262 14.69 0 25.27 11.182 37.613 19.072 17.129 10.949 40.626 17.115 60.762 9.079 10.83-4.112 21.323-10.169 29.165-20.009-15.848 10.93-39.581 12.399-57.472 4.977-19.776-8.204-39.904-19.098-62.441-19.098-33.222 0-64.796 22.472-86.946 43.634zm245.542-69.014c-21.996 25.038-57.871 16.983-87.233 23.236-4.087.87-7.927 2.228-12.314 1.554 3.491-2.213 8.118-2.463 12.151-3.982 22.783-8.583 26.335-32.966 38.803-49.748-15.925 10.587-29.119 25.082-44.011 38.704-10.365 9.48-23.278 13.536-36.67 16.261 3.218 1.176 7.428.899 10.894 1.758 24.056 5.968 50.727 15.388 76.324 6.941 16.519-5.451 33.709-18.361 42.057-34.725zm35.258-57.95c-13.72 31.063-48.191 33.496-71.111 52.552-4.358 3.624-8.678 6.958-13.466 9.191l-.247-.25c5.289-4.786 11.013-10.489 15.109-16.441 13.1-19.034 8.741-45.051 18.841-65.231-9.177 10.988-17.784 22.303-23.068 34.883-8.503 20.245-11.392 43.342-30.463 58.726 20.641-6.81 44.452-5.454 63.039-17.629 19.538-12.797 37.645-32.995 41.366-55.802zm14.697-62.846c-1.984 27.368-31.121 41.987-45.014 64.484-2.967 4.805-6.021 9.765-10.33 13.645.672-2.914 3.069-5.496 4.389-8.354 4.456-9.653 6.473-20.824 5.361-32.31-1.353-13.975-7.179-26.953-4.943-41.655-11.975 25.848-8.112 58.162-15.033 86.11-1.531 6.183-5.296 11.593-7.616 17.449 11.766-8.951 27.185-16.896 40.1-27.076 12.49-9.845 23.331-21.384 28.967-36.398 4.061-10.819 5.117-23.724 4.12-35.896zm-.814-50.425c-1.406-6.108-2.481-12.43-5.138-18.033 5.032 25.817-12.144 44.466-18.007 66.802-2.21 8.417-2.966 17.361-6.37 25.215-.318.17-.593-.16-.789-.414 8.474-23.771-3.948-45.74-16.049-64.477-3.181-4.925-4.712-10.66-6.197-16.458-1.308 10.761.982 23.217 2.973 34.322 2.563 14.296 7.449 27.695 11.333 41.488 2.557 8.617 1.883 18.342.571 27.37l1.233-.984c9.009-16.632 26.784-29.625 32.152-47.777 4.29-14.508 7.258-31.269 4.288-47.053zm-9.503-27.772c0-19.537-7.607-35.474-19.017-50.024-.331-.165-.567-.497-.994-.419 12.562 19.108 1.128 43.228 2.743 64.901l1.657 22.244c-.246.162-.246.829-.829.574-.742-2.48-.967-5.118-1.399-7.679-3.024-17.933-18.771-30.414-32.125-43.075-3.159-2.995-5.472-6.536-6.961-10.341 1.111 8.933 3.603 18.09 7.612 26.207 10.279 20.81 30.132 37.608 33.703 61.258 1.732-22.665 15.613-39.514 15.613-63.646zm-33.111-65.903c-6.317-7.003-13.396-12.459-21.824-14.617 16.366 11.254 15.478 31.366 20.488 48.183 1.832 6.149 4.525 11.91 5.956 18.265l-.414.331c-2.723-7.185-7.395-14.091-13.481-19.833-11.511-10.861-28.818-17.434-34.514-33.321.261 22.077 19.079 38.858 36.266 51.841 7.709 5.823 14.26 13.641 18.258 21.837-.668-6.1-.971-11.174-.427-17.128 1.764-19.285 2.908-40.905-10.308-55.558zm-66.428-37.116c12.146 10.658 20.251 24.376 29.582 36.708 7.761 10.257 18.409 16.612 27.567 25.219-4.943-10.256-5.856-22.008-12.134-31.93-10.735-16.966-28.477-23.552-45.015-29.997zM748.354 436.68l-3.588-1.958c-7.606 15.686-17.678 29.961-29.726 42.308l-20.959-20.959c10.268-10.581 18.547-22.591 24.646-35.571l-3.571-1.952c-6.029 12.871-14.141 24.582-23.924 34.672l-18.986-18.986c8.15-8.473 14.618-18.141 19.286-28.589l-3.543-1.933c-4.571 10.297-10.878 19.661-18.584 27.687l-20.982-20.982c5.835-6.184 10.34-13.298 13.406-20.997l-3.544-1.933c-2.93 7.507-7.26 14.323-12.685 20.104l-19.044-19.041c5.425-6.054 8.571-13.65 9.017-21.765h26.956c-.229 7.284-1.721 14.251-4.243 20.703l3.544 1.933c2.837-7.133 4.439-14.763 4.668-22.637h29.715c-.267 13.119-3.192 25.594-8.225 36.929l3.543 1.933c5.403-12.101 8.389-25.251 8.653-38.864h26.905c-.283 18.475-4.545 35.993-11.935 51.766l3.571 1.952c7.812-16.624 12.058-34.845 12.338-53.718h29.713c-.296 24.319-6.025 47.345-16.012 67.94l3.589 1.957c10.743-22.127 16.446-46.562 16.446-71.883 0-21.533-4.125-42.423-11.964-61.803l-3.682 1.583c7.383 18.288 11.384 37.955 11.63 58.234h-29.717c-.241-16.178-3.42-31.866-9.236-46.49l-3.655 1.566c5.61 14.138 8.681 29.294 8.918 44.924h-26.908c-.229-11.914-2.553-23.474-6.746-34.29l-3.655 1.57c3.988 10.322 6.2 21.353 6.432 32.72h-29.718c-.21-7.264-1.586-14.328-4.027-20.982l-3.654 1.568c2.241 6.163 3.501 12.695 3.712 19.414h-26.956c-.445-8.116-3.591-15.711-9.017-21.765l19.063-19.06c5.887 6.261 10.339 13.531 13.199 21.412l3.654-1.568c-3.061-8.336-7.797-16.027-14.048-22.652l21.013-21.011c8.967 9.333 15.811 20.169 20.347 31.924l3.655-1.57c-4.736-12.21-11.865-23.468-21.193-33.162l19.026-19.029c11.783 12.152 20.836 26.253 26.903 41.558l3.655-1.566c-6.269-15.762-15.605-30.285-27.749-42.796l21.01-21.014c14.859 15.222 26.321 32.885 34.061 52.066l3.682-1.583c-8.178-20.239-20.405-38.828-36.306-54.728-15.959-15.961-34.63-28.215-54.957-36.395l-1.464 3.727c19.223 7.743 36.925 19.218 52.175 34.105l-21.01 21.013c-12.3-11.92-26.55-21.16-42.02-27.42l-1.45 3.695c14.959 6.069 28.748 15.006 40.663 26.564l-19.025 19.026c-9.249-8.897-19.914-15.807-31.475-20.537l-1.452 3.695c11.062 4.533 21.264 11.145 30.12 19.651l-21.01 21.01c-5.91-5.571-12.668-9.943-19.97-12.992l-1.453 3.698c6.805 2.852 13.098 6.92 18.615 12.103l-19.06 19.06c-6.058-5.426-13.651-8.572-21.769-9.014v-26.955c7.747.239 15.247 1.884 22.214 4.807l1.453-3.698c-7.424-3.102-15.418-4.839-23.667-5.081v-29.716c12.032.242 23.69 2.687 34.528 7.128l1.452-3.695c-11.294-4.621-23.446-7.16-35.981-7.402v-26.92c15.956.243 31.427 3.425 45.816 9.259l1.45-3.695c-14.847-6.014-30.803-9.29-47.267-9.534v-29.719c20.24.245 39.871 4.234 58.125 11.584l1.464-3.727c-19.314-7.776-40.126-11.874-61.572-11.874-26.495 0-51.529 6.322-73.729 17.477l1.811 3.466c21.482-10.764 45.249-16.628 69.933-16.926v29.72c-20.131.299-39.153 5.184-56.117 13.608l1.805 3.457c16.713-8.274 35.162-12.806 54.312-13.098v26.909c-14.969.295-29.133 3.895-41.81 10.082l1.816 3.472c12.341-5.99 25.911-9.301 39.995-9.585v29.719c-9.339.276-18.197 2.488-26.195 6.241l1.825 3.486c7.566-3.517 15.82-5.494 24.37-5.758v26.959c-4.182.232-8.17 1.187-11.846 2.737l1.822 3.484c3.76-1.54 7.822-2.35 12.009-2.35 8.467 0 16.426 3.297 22.414 9.283 5.987 5.987 9.284 13.949 9.284 22.417 0 17.478-14.217 31.702-31.698 31.702-8.469 0-16.43-3.298-22.417-9.286-5.987-5.99-9.285-13.949-9.285-22.417 0-8.468 3.298-16.43 9.285-22.417 3.029-3.027 6.561-5.358 10.407-6.933l-1.822-3.484c-3.653 1.543-6.996 3.675-9.91 6.285l-19.071-19.071c4.927-4.63 10.475-8.373 16.456-11.153l-1.825-3.486c-6.432 3.019-12.307 7.032-17.42 11.852l-21.032-21.033c7.376-7.085 15.694-12.842 24.653-17.194l-1.816-3.472c-9.462 4.617-18.099 10.668-25.611 17.89l-19.06-19.058c9.62-9.334 20.476-16.939 32.168-22.725l-1.805-3.457c-12.239 6.079-23.417 13.991-33.13 23.417l-21.054-21.055c12.07-11.783 25.689-21.406 40.368-28.763l-1.811-3.466c-32.087 16.125-58.21 42.403-74.117 74.617l3.453 1.863c7.418-15.088 17.23-29.077 29.3-41.445l21.056 21.056c-9.795 10.091-17.978 21.749-24.141 34.556l3.439 1.857c5.87-12.263 13.741-23.621 23.464-33.648l19.061 19.059c-7.683 7.992-14.039 17.258-18.751 27.436l3.447 1.86c4.438-9.675 10.503-18.635 18.079-26.521l21.032 21.033c-5.376 5.703-9.755 12.355-12.863 19.673l3.475 1.88c2.856-6.864 6.951-13.212 12.173-18.767l19.071 19.069c-5.236 5.852-8.56 13.418-9.021 21.756h-26.962c.239-7.687 1.86-15.136 4.739-22.059l-3.475-1.88c-3.14 7.393-4.981 15.469-5.233 23.938h-29.715c.267-13.373 3.266-26.286 8.699-38.124l-3.447-1.86c-5.654 12.208-8.94 25.732-9.218 39.985h-26.913c.282-18.584 4.546-36.512 12.358-52.832l-3.439-1.857c-7.994 16.6-12.591 35.129-12.883 54.689h-29.721c.292-24.271 5.964-47.658 16.387-68.855l-3.453-1.863c-10.835 21.946-16.952 46.619-16.952 72.704 0 15.956 2.279 31.551 6.632 46.448l3.892-.979c-4.093-13.96-6.326-28.553-6.506-43.482h29.716c.183 12.448 2.101 24.611 5.622 36.223l3.853-.971c-3.446-11.297-5.32-23.136-5.506-35.252h26.908c.194 9.869 1.822 19.498 4.752 28.662l3.86-.974c-2.857-8.847-4.447-18.152-4.64-27.688h29.715c.207 7.058 1.512 13.925 3.824 20.412l3.862-.975c-2.24-6.169-3.507-12.711-3.717-19.436h26.959c.445 8.115 3.589 15.711 9.014 21.765l-19.061 19.062c-5.88-6.258-10.332-13.519-13.196-21.391l-3.862.975c3.05 8.553 7.858 16.447 14.25 23.222l-21.01 21.012c-10.22-10.64-17.7-23.25-22.13-36.95l-3.86.974c4.6 14.386 12.444 27.62 23.191 38.79l-19.029 19.03c-14.23-14.674-24.508-32.179-30.315-51.232l-3.853.971c5.984 19.737 16.617 37.877 31.36 53.067l-21.011 21.012c-18.596-19.054-31.878-41.923-39.18-66.819l-3.892.979c7.659 26.211 21.79 50.237 41.638 70.081 13.441 13.444 28.804 24.265 45.459 32.239l1.972-3.498c-15.763-7.512-30.344-17.635-43.189-30.177l21.01-21.009c10.92 10.599 23.372 19.051 36.836 25.208l1.961-3.478c-13.157-5.971-25.325-14.202-35.986-24.537l19.027-19.028c8.918 8.579 19.157 15.305 30.245 20.016l1.959-3.471c-10.77-4.52-20.73-11.02-29.39-19.34l21.013-21.012c6.752 6.37 14.612 11.167 23.133 14.219l1.986-3.517c-8.225-2.848-15.81-7.402-22.31-13.509l19.061-19.063c6.054 5.43 13.646 8.573 21.765 9.018v26.959c-6.394-.198-12.62-1.366-18.516-3.404l-1.986 3.517c6.513 2.336 13.408 3.647 20.502 3.856v29.713c-12.296-.246-24.21-2.792-35.249-7.422l-1.959 3.471c11.641 4.948 24.215 7.672 37.208 7.923v26.909c-17.706-.273-34.806-4.165-50.494-11.283l-1.961 3.478c16.285 7.441 34.056 11.501 52.455 11.776v29.712c-23.602-.284-46.38-5.634-67.111-15.51l-1.972 3.498c21.909 10.487 46.06 16.031 71.069 16.031 26.234 0 51.51-6.13 74.259-17.64l-1.879-3.644c-21.215 10.744-45.098 16.954-70.397 17.265v-29.713c20.059-.296 39.368-5.105 56.814-13.88l-1.855-3.595c-16.583 8.352-35.222 13.196-54.959 13.503v-26.909c15.05-.29 29.535-3.901 42.657-10.446l-1.844-3.578c-12.345 6.157-26.175 9.754-40.813 10.053v-29.713c9.585-.281 18.812-2.587 27.21-6.698l-1.831-3.557c-7.713 3.765-16.301 5.997-25.38 6.284v-26.955c8.118-.445 15.711-3.588 21.769-9.018l19.041 19.043c-4.559 4.279-9.756 7.876-15.43 10.647l1.831 3.557c5.949-2.913 11.488-6.719 16.426-11.377l20.978 20.979c-7.004 6.729-15.029 12.383-23.802 16.756l1.844 3.578c8.998-4.486 17.362-10.339 24.799-17.492l18.986 18.984c-9.249 8.97-19.865 16.518-31.482 22.361l1.855 3.595c11.797-5.932 22.748-13.66 32.476-23.106l20.959 20.959c-11.693 11.413-25.137 21.024-39.851 28.473l1.879 3.644c15.419-7.802 29.693-18.052 42.27-30.63 13.222-13.219 23.891-28.305 31.825-44.645zm-139.915-109.984l.047 1.193 1.003-.048-.055-1.185zm-1.459-1.626h1.328v1.012h-1.328zm-1.228-.179l.141-1.002-1.167-.167-.141.994zm-2.152-.514l-1.16-.168.141-1.004 1.16.168zm-9.58-1.337h1.328v1.013h-1.328zm-1.736 2.185l.141-1.002-1.159-.167-.141 1.002zm-1.04 1.361l-1.333-.339.242-.982 1.333.339zm-2.38 1.247l-.165-1.013.985-.166.165 1.013zm-130.994 101.83h-.83v1.686h1.332v2.195h1.003l-.172-2.528-1.332-.509zm9.315 12.316l-.666-1.519-1.167-3.037 2.491 1.177.838 2.361 1.159.851 1.167 2.528-.666 1.177-1.825-1.686zm37.401 47.238l-1.332-2.028 1.998.342 2.154 1.853.838 2.195-1.167.676-.666-1.01-1.661-.509zm90.264-151.667h-1.828l-.333-3.711.997-.677v-1.855h-5.819l-.166-1.854.834-.506-1.332-.506-.998 1.349-.33 1.519-1.663.339v.842h-1.163v2.193l-4.656 3.88-9.308-.336c-.667 1.517-2.331-.171-2.331-.171-.33-1.011-2.656 0-2.656 0 0 1.858-3.159-.842-3.159-.842l-5.819-4.219c-3.324-3.037-8.311.845-8.476 1.687.165 2.362-3.823.506-3.823.506s-3.324-1.011-3.824.339c-.497 1.349-2.662 1.013-2.662 1.013l-.333.674-1.663.337-.33 1.011-1.996.339 4.986-.169c1.331-.169-.5 2.869-1.329 2.7l-2.325.169-.834.842h-2.161l-.997 1.353-3.156-.169s-1.831 1.518-1.662 2.024c.166.506-.333 2.025-.833 2.025-.499 0-1.496 1.518-1.163 2.024.335.506-.997 2.194-.997 2.194l-.331 1.689-.997.336v4.556l-1.996 1.35v2.024l-2.994 3.206.335 2.698-2.492 2.7.33 2.699-1.496.506-.331 1.181-.664 3.541 1.662.171c.829-.339.664 2.193 0 2.528-.667.339-2.496 1.012-1.496 1.686.998.677-2.661.507-2.661-.506 0-1.01-1.995-1.855-2.492-1.516-.5.336-1.332-1.519-1.332-1.519-1.828-1.855-7.48.168-7.48.168l-.834 2.699c-1.826.339-2.99 3.375-2.99 3.375-1.496.506-2.66 2.361-2.161 2.867.497.506-.834.674-.834.674v3.713l-.83 1.181.165 4.048c.999 0 .834 1.857.834 1.857-1.663.168-1.333 2.362-1.333 2.362l-3.489 1.18-.664 1.011-4.321-.169-1.163 1.182-1.167-1.182h-8.311l-.33-.843-1.663-.34-.168-1.854-2.492.168-.498 1.012-2.661.168c.166 1.688-2.66 4.22-2.99 3.546-.337-.676-2.164-2.534-1.331-2.868.832-.34 2.994-.678 2.994-.678v-1.18l-6.153-.168-.663 1.013-2.497.167v2.7l-1.162.338c-.833.504.165 2.362.165 2.362 1.163 1.179-.165 3.034-.165 3.034-.999 1.013.829 2.871.829 2.871 1.332.335-.829 1.348-.829 1.348.33 1.686 1.329 2.193 1.329 2.193-.999 1.686.667 2.529.667 2.529l.165 2.871 1.163.676v1.852l.664 1.182h2.66l-.166-4.217c-2.328-2.7 1.993-3.375 2.162-2.365.168 1.013 1.995 1.52 1.995 1.52.333 2.532 3.16 4.048 3.989 1.52.832-2.534 1.496-1.013 1.995.166.499 1.182 3.654 4.051 3.654 4.051h2.495l.335 2.362c2.825-.169 3.654.172 4.817 4.048 1.167 3.879 4.323 4.891 4.323 4.891l2.328-.169c0-2.021 2.328.341 2.328 1.354 0 1.008 4.487 4.889 4.487 4.889l4.487 1.011 4.161 3.378 3.156-.338h1.332c.829-2.871 4.821.166 5.15 1.179.335 1.013 2.994 2.7 3.324 1.855.335-.842 2.162-.335 2.496 2.193.331 2.534 1.493 2.027 1.493 2.027l9.477-.169 3.324-2.871 8.479-.166c4.321-.169 1.662-6.075.833-6.075-1.496-1.179.497-6.072.497-6.072l-12.135-11.303c-2.825 0-.333-4.051-.333-4.051 2.161-1.351-.5-3.541-.5-3.541.335-2.027-1.163-4.389-1.163-4.389-2.99-2.024-2.161-5.906-2.161-5.906v-2.7c-2.492-2.359.998-2.7.998-2.7 1.162-2.02-.833-3.54-.833-3.54l-.165-2.194-2.661-.339-.33-7.93-5.984-8.602c-1.167-.34-.335-2.362-.335-2.362 1.496-.844-.335-2.866-.335-2.866l-.165-3.712 3.489-.34.833-1.348h1.662l-.165-4.387c.83-2.193 2.824-1.013 2.824-1.013l2.328.169 1.331-2.531.33-2.025-1.826-.167c-1.995-1.182-.998-5.567-.998-5.567 3.159-4.725 6.814-2.026 6.814-2.026l2.33-.167c3.489 2.361.33 6.747.33 6.747-.664 1.013-.33 4.218-.33 4.218l.83 5.396-2.161 1.858c-1.828 1.013-1.828 3.374.168 3.88 1.329.167.83 3.374-1.166 1.18-2.99 0 1.666 2.699.335 2.022 2.994 1.52 2.325-1.349 2.325-1.349l3.993-3.206c1.496-1.18 4.157 2.532 4.157 3.039 0 .506 6.648.167 6.648.167 1.828 1.181 2.492 4.219 2.492 4.219 1.831-2.364 5.652-.171 2.827 1.18 2.657 1.687 2.657 3.205 2.657 3.205 2.164-.674 2.164 1.012 2.164 1.519 0 .506.664-2.53.664-2.53-2.494-1.857 3.324-2.531 1.663.844l-.999 1.52 1.663 1.349.165 3.882c3.659-.339 2.661-4.895 2.661-4.895l1.662-.336c0-1.52 1.162-.676 1.162-.676-1.162-5.737 2.661-6.747 2.661-6.747 2.161-.506 2.326-5.064 2.326-5.064-1.493-.674-.665-3.035.998-1.009 1.661 2.021-.998-4.052-.998-4.052l-1.329-1.18-1.828-.169-.168-1.856h-2.99l-.5 2.363-1.163.337-.335-.676-.497 1.856h-2.991l-.165-2.024 1.828-.506.665-1.012.497-2.7h2.162l2.825-.842c.165-2.869 1.662-2.193 1.662-2.193l.997.843 1.496 1.181.167 1.011-.999.506-.165 1.352.499 1.855h1.329c.498-2.699 3.992-2.699 4.988-1.012l.998-2.361c-2.327-1.181-.043-3.038.621-2.194.664.844 2.204-2.193 2.204-2.193s1.163 1.519 0-.506l.83-3.037c-.331-2.024 2.162-1.687 2.162-1.687l.168-2.698-2.33-.171c-.495 2.362-2.491.339-1.494-.167.999-.507 1.993-1.52 1.993-1.52v-1.687l.998-.337.165-1.687h2.495l2.161-1.011.5-.844 2.325-.168 3.324-3.038-.33-1.349c-1.995 0 0-1.519 0-1.519l.328-2.525zm-66.99 33.4l-2.993-.337.168 1.18h.83c1.329 2.363.167 8.098.167 8.098s-1.993.167-2.328-.843c-.33-1.012-1.163 2.194-.499 2.7.664.503 2.994 0 3.159 1.857.165 1.854 1.496-1.182 1.496-1.182v-11.473zm-1.338 14.68l-1.661-1.01v4.047l2.664 3.538.995-2.361.337-1.519-1.167-.501.165-2.528 1.003-.175.165-1.185zm2.664 8.603l-1.159.167-.172 1.352 1.332.167zm-1.496 8.603l-1.41.167v1.185l1.41-.167zm1.96-4.006c.389 0 .703-.319.703-.713 0-.398-.313-.717-.703-.717s-.705.319-.705.717c0 .394.316.713.705.713z" fill="#fff"/><circle transform="matrix(.783 0 0 .795 198.88 154.38)" cy="311" cx="423.68" r=".9" fill="#fff"/><circle transform="matrix(.783 0 0 .795 198.88 154.38)" cy="286.76" cx="423.73" r=".9" fill="#fff"/><path fill="#fff" d="M585.374 367.239l.337-2.02.118-1.519.713-1.018 1.99-.843v-3.204h-.995l-.165-1.185-1.833-.167-.329.843h-.83l-.172 1.352h1.003l.165 1.01-.666.676-.329.843-1.332.342-2.993 2.87-.165 1.344-.83 1.185-.995 2.528-3.494.167-.666 3.037.494 2.528 2.993 1.185.337-1.686.995-.509.172-1.686.658-1.185 1.003-1.177.329-1.352 1.661-1.01 1.998-.342zm6.646 1.691v-2.362l-.335-2.194-2.491-1.18-1.828 1.687-.335 2.362v1.517l-1.662.339-.335 4.554-1.328.507.166 1.687-1.828.506-1.828.506-.333 2.193-1.328.843-.669 2.025-.83 4.892s1.498 2.868 2.328 1.518c.832-1.349 2.161-1.518 2.161-1.518l.499-1.181 4.488.169c.333-1.857 2.494-1.18 2.494-.337 0 .844 1.663.168 1.663.168l1.163-1.855h1.827l.166-2.024.833-.506v-3.038c2.661-.843 2.325-3.374 2.325-3.374l.669-.842-.334-1.18c-1.332-.508-.668-1.69.165-1.353.834.337-1.163-1.519-1.163-1.519-.997.845-1.826-1.011-1.826-1.011h-2.496zm2.66 20.41c-.165 2.024-2.66 2.699-2.66 2.699l-1.828-.506-.997-.844-.167-2.363 1.495-.167.333 1.013 3.824.167zm8.98-10.79c.36 1.471.33-2.365.995-2.194.664.168.168-2.361.168-2.361l-2.993 2.19c1.496.171 1.661 1.69 1.83 2.365zm8.81-8.78c.664 1.52.5 3.713 2.99 5.4.842.569-.498 1.687-1.331 1.18-.83-.506-3.155-4.219-3.155-4.219v-2.193c.498-1.349 1.208-.822 1.496-.169zm1.163 50.439l-1.159.851.494.501.494.843 1.167-1.853zm-5.323-1.849v2.03"/><path fill="#fff" d="M633.681 415.073l-.533-.851-1.324.835.525.859zm46.779 36.017l1.498.673.165 2.868c1.996 2.024 8.479.338 8.479-.169l-.335-6.242-.833-.844-.165-4.22c.664-2.193-3.16-5.399-3.491-4.721-.333.673-2.494.165-2.494.842 0 .673-1.328 4.048-.664 5.23.664 1.181-.5 1.181-.664 2.361-.165 1.181-1.829 3.208-1.496 4.221zm-3.66-6.75c-.315 1.278-1.493 2.024-2.158 1.517-.669-.507.827.842 1.162 1.52.331.673 1.328.673 1.662 0 .33-.679.165-2.193.5-2.868.33-.676-.999-.844-1.167-.169zm-7.73-30.95h1.162v3.207h-1.162zm17.21-32.48c-.725-.983 3.324-2.699 3.989-.674.664 2.022 0 1.687-.664 1.519-.667-.17-2.326.504-3.324-.844zm3.402-21.606l1.825.334.18-.994-1.833-.334zm-4.364 2.218l.924-.374-.337-.843-.212-.533-.494.278-1.238.7-1.081-.684-.525.851 1.332.843.251.159.251-.143 1.003-.565zm6.112-41.352h-2.495s.832.337-1.493-1.857c-2.331-2.193-3.824.506-3.824.506l-2.66.337v2.699l-1.332.506.168 1.688 1.828-.168s0 2.024.499 1.181c.5-.844 4.656.167 4.322 2.193-.136.832 4.158 3.035 3.659 5.734 2.161.339 1.662 2.532 1.662 2.532l2.824.337.833-1.687.83.169v-1.013l-1.831-.506-.33-5.4-1.163-.844.331-1.35-1.329-.506.665-2.193-1.165-2.361zm7.31 17.21l-1.329-.167-2.997.506-1.659 3.205s.83.506 1.493 1.687c.664 1.182.998 8.097-.997 9.28-1.993 1.181.168.504.168.504l-.335 3.712c.5 1.687 1.329.845 1.828 0 .503-.841 1.002-1.011 1.666-1.854.664-.845 1.661-2.362 1.828-3.545.165-1.18.997-3.035.497-3.541-.497-.506.5-2.867.5-2.867s.664-1.352 0-2.7c-.664-1.351.165-2.869.664-3.545l-1.329-.675zm2.01 6.883l.17-1.35.992.129-.17 1.35zm-.061 4.662l-.89-.452.499-1.012.89.452zm-1.449-13.395l-.667-1.52s0-1.348.333-2.025c.335-.674-.664-1.348-1.162-1.517-.499-.169-.331-1.518-.499-2.194-.165-.674-1.328-1.18-1.328-1.18s-.335-2.531-.335-3.037c0-.506-1.496-1.181-.997-1.688.5-.506.833-1.18 1.332-1.519.499-.337-.5-2.699.33-2.194.833.507.833 1.35 1.166 2.025.331.674-.168 3.037.665 3.544.829.505-.168 2.191 1.163 2.191 1.329 0 .5 3.207.5 3.207s-.335 2.361.495 2.531c.833.169.335 4.217.335 4.217l-1.329-.843zm-10.8-27.34c.497.674 1.495 1.18 1.495 1.857 0 .676-.331 1.18.667 1.349.995.168 1.662-.169 1.993.674.333.843.333 2.193.168 2.868-.168.676.165 1.687.995 1.687.833 0 .998.169.998.676 0 .505.998-1.857.998-1.857-.834-.674-1.498-2.194-1.498-2.194s-.83-2.361-.83-2.699c0-.337-1.163-.676-1.661-.844-.5-.169-1.333-1.686-1.333-1.686l-1.993.169zm1.66-1.51c-.5-.677-.999-1.182-1.663-1.518-.663-.339-1.162-.676-1.829-.676-.664 0-1.328-.676-.998-1.518.335-.844-.5-1.181-.5-1.857 0-.674.5-.674 1.332-.168.833.506.664.674 1.333 1.52.663.843.994 1.686 1.658 1.517.668-.169 1.167 1.518 1.831 1.012.664-.506.5 1.181.5 1.181l-1.662.507zm-19.45 19.06c.917.932-4.986.673-4.986 0 0-.674.5-3.035 1.993-2.532 1.496.508 1.661-3.035 1.661-3.035s-1.328.167-.165-.506c1.163-.674 0-1.687-.5-2.193-.497-.507-.997-1.35-.997-1.35h2.329c.998-.676 1.328-3.88 1.328-3.88 1.993.674 2.991-.676 2.991-.676s.338 1.012 1.001 1.857c.664.842-1.666 1.18-.834 1.687.834.506 1.163 2.024.834 2.529-.335.506-2.165.169-2.165-.505 0-.676-.664.844 0 1.687.664.844-.83 2.024-1.163 2.024-.333 0-2.49.339-.664 1.35 1.828 1.011 3.826.508 3.826.508s1.495-.171 1.993.674c.5.843-.165 1.012-.997 1.012-.83 0-4.822-.339-4.822-.339s-1.163 1.181-.664 1.688zm-10.64 1.52c.834-.169 2.824-.339 3.159.168.335.506-1.163 1.18-1.163 1.18l-1.995.339c-.664-.844-.83-1.518 0-1.686zm21.45-14.17c1.329-.674 4.154-.674 3.989-1.687-.165-1.012 1.662-1.349 1.662-1.349l.499 2.024 1.496 1.012.167 1.856s.497-.337-1.329.169c-1.831.506-.664 1.349-.664 1.349l-3.992.169-.499-1.687-1.329-1.854zm-6.49-9.11c1.011 0-.33 3.88 2.326 3.543 2.661-.339.169 1.181 2.162 1.349 1.995.171 1.496-1.518 2.161-2.698.667-1.181.335-1.857-.83-2.194-1.167-.337-1.167-.337-1.496-1.689-.331-1.349-1.662-1.687-1.662-1.687l-.5-2.023-2.161 1.349-2.161 2.868c0 2.195 1.163 1.182 2.161 1.182zm4.4 14.256l.5-1.012.894.454-.5 1.012zm-1.74-1.606h.998v1.181h-.998zm.839-22.479l.168 1.517-.992.113-.168-1.517zm-2.829 15.729h.998v.845h-.998zm-2.618-.017l-.098-1.008 1.663-.166.098 1.008zm-13.714 16.225l-.914-.399.5-1.181.914.399zm-5.217-3.071l-.098-1.005 1.665-.167.098 1.005zm-32.498-.145l.047 1.01 3.651-.167-.047-1.01zm-2.448 1.298l-.331-1.516.976-.219.331 1.516zm-.699 1.045l-.315-.961.498-.168.315.961zm8.314-2.845l-.165 1.181 1.826.169s.83.676.83 1.18c0 .506 1.167 1.012 1.831 1.012.664 0 2.492-1.35 2.492-1.35s.833-2.362.168-2.194c-.667.168-1.996 1.181-2.161.168-.168-1.012-2.161-.506-2.161-.506l-2.661.34zm8.31-1.86c0 .505-.33 1.18.664 1.35 1.002.167 2.83-.674 2.994.337.168 1.011.168 1.689 1.496 2.195 1.328.505 2.162.674 3.159.674.995 0 3.16-.34 3.16-.34s2.352.368 2.824.845c1.828 1.855 2.991 2.361 3.489 1.518.499-.844-.165-2.699-.331-3.374-.168-.677-2.495-3.882-3.326-3.207-.83.676-.996 0-2.493.505-1.496.506-4.655.171-4.82-.505-.165-.676-2.493-1.011-2.493-1.687 0-.676-1.661-1.518-1.496-.506.165 1.011-1.163 1.518-1.5 1.182-.33-.338-1.328 1.011-1.328 1.011zm38.24-21.6l1.166-3.709c-1.661-.339-1.331-2.193-1.331-2.193-.165-1.519-2.492-3.206-3.324-2.699-.83.504-.5-3.545-.5-3.545s1.498-1.011 2.162-.505c.665.505-5.651-8.435-6.982-7.592-1.329.844-4.319-.844-4.154-2.363.165-1.517-5.985-6.58-5.985-6.58s-1.995-1.348-2.327-.336c-.333 1.011-.997 1.687 0 2.191.996.507.83-.843 1.992.337 1.163 1.181 3.327 2.7 2.495 3.712-.832 1.014-1.83 1.351-1.83 1.351l1.166 1.35h1.828l.333 2.866s1.993 1.013 2.493 2.194c.499 1.18.499 1.856 0 2.532-.5.674-1.493 1.855-1.329 3.035.165 1.181 1.496 1.687 1.496 1.687l1.328.169.999.507v2.195c1.328-.339 3.489 1.516 3.324 2.698-.165 1.181.33.506 1.992 1.687 1.665 1.181 1.167 1.35 2.329 2.194 1.164.841 2.162.336 2.657-1.185zm-27.43-22.94c-.165-.676-.5-3.039.499-2.87.997.171.333 0 1.496.507l1.329-.843h1.83l2.326 1.854-.333 1.519-1.662.167c-.83-1.348-2.493-.842-2.161.34.333 1.18-.83 3.374-1.493 3.541-.665.169-2.83.169-2.661-.842.165-1.012.83-3.374.83-3.374zm-1.33-4.56v-1.349s-.169-1.349-.998-1.349-2.326-1.011-1.996-1.687c.335-.676-2.824-1.35-2.824-1.35s-2.824-2.699-1.828-2.361c.998.337.5-1.182.5-1.182s-1.996.337-2.495.169c-.5-.169-.335-1.687-.335-1.687s-1.992-.506-1.992 0 .664.506.994 1.517c.335 1.011.168 2.7 1.666 3.037 1.496.339 1.826.674 1.995 1.35.165.676 1.993.844 1.993.844l1.331.674 3.988 3.374zm-18.444-18.556l-1.332-.334v1.519l1.825.167zm-.006-5.734c-1.738-1.319 2.325 1.013 2.325 1.013 1.329 0 2.161 1.012 2.161 1.52 0 .506 1.829.337 1.829.337l.169-1.182-1.333-1.687-1.162-.841s-1.828-.169-1.828-.676c-.001-.505-1.497 2.024-2.162 1.517zm30.58 1.01c-.486 1.476-.664 3.544-1.496 3.544-.83 0-.499 2.195-.499 2.195s2.165 0 2.829.167c.663.167.663 1.854.663 1.854 2.495-.167 3.493 3.207 3.159 4.05-.333.843.998.843.998.843s0 2.7-.335 3.374c-.33.676 2.162 1.182 2.827 2.194.664 1.013-.335 4.387-.831 4.555-.498.169 1.328.674 1.163 1.518-.168.845.499 0 .664 1.351.165 1.349.5 4.216.5 4.216l2.325.17c.335-2.193 4.62-2.277 5.32-2.025 2.826 1.012 4.99 5.399 4.99 6.41l-1.831 1.182.335 4.891c2.824.844 5.152 4.895 4.821 5.569-.333.674 1.992.507 1.992.507.335-3.039 3.16-2.026 3.324-1.013.17 1.013.665 3.206.665 3.206l.832 1.516 1.163 1.181 1.828-.169.5 1.013 2.161.339s1.831 2.022 1.995 2.53c.168.505 2.661.337 3.324.505.664.169 1.663.676 1.828 1.519.168.844 1.167 2.194 1.167 2.194s1.993.507 2.161 1.181c.165.673.998 2.193.998 2.193l1.659 1.35.168 1.519 1.828.169.5 2.022 2.99-.167 1.666-1.181c2.161-1.18 3.657-2.699 3.824-3.375.165-.674.497-3.204 2.161-2.698 1.661.506.499-3.712.499-3.712s-2.327-1.687-2.162-2.532c.167-.842-2.325-2.529-2.161-3.204l-1.995-2.699c.165-.676-1.163-2.532-1.163-2.532l-2.495-2.361-.333-1.52-1.993-.167-3.989-4.893.165-1.351-1.163-.168v-1.855l-1.162-.676-1.831-.169-3.655-4.048-.333-1.857h-1.828l.331-3.544c1.165-1.519.498-4.387.498-4.387s-2.329 1.181-3.489.674c-1.166-.504.497-1.687.497-1.687v-1.349l-.996-1.012s-2.828.339-2.993-.167c-.167-.506-.664-2.7-.664-2.7l-.167-2.869-1.162-.504-.169-1.014-1.826.168v-2.024l-.999-.337-.997-.506-.166-2.025-3.657-.167-1.163-1.687-1.329-2.025-4.156-.337-.998-1.011-1.662-.339-1.163-.506-.499.845-3.16.167-.165 1.012c-1.662.844-8.311.168-8.48.673zm17.46-4.38c-.263-1.332 3.327-2.531 4.157-1.52.833 1.012 3.159 1.184 3.492 6.245.118 1.812-2.993-1.856-2.993-1.856l-2.495-.844c-1.329-.339-1.995-1.18-2.161-2.026zm-48.757 2.061l-.908-.411.667-1.519.908.411zm-8.593-16.571l-2.165-2.194v-1.856l-.664-.677-.664-2.361-2.161-.674-2.161.842-2.328 1.519-2.492.34-1.332 1.517 5.32.504.996 1.69 3.827.337 2.49 2.53c2.165.676 2.662-.337 1.333-1.517zm-.33-8.27c-.366-1.483-2.495 1.855-.33 2.528 2.161.678 4.318 0 4.318 0l.5-1.011 8.309.169c.669-.676.998-1.687.998-1.687s1.996-.676 2.825-.339c.833.339.169-2.361-.664-2.024-.83.337-2.491.169-2.491.169h-2.994c-.165-1.18-2.825-.676-2.991 0-.168.674-1.162.843-1.162.843l-3.824.339c-.334 1.013-2.326 1.687-2.494 1.013zm-16.46 28.47c2.556.811 3.489.211 3.659-.464.165-.676.33-.845 1.329-1.012.997-.169-.167-2.194-1.163-2.025-.999.169-1.996-.337-2.161-1.181-.17-.843-1.831-3.037-1.996-1.349-.166 1.687-1.163 1.687-.998 2.868.168 1.178.667 2.949 1.331 3.162zm-19.11 1.9c-.12-.597 3.324-.674 3.824-.17.5.507.165 1.35 1.662 1.35 1.494 0 .83 1.013.664 1.52-.165.506-1.826.337-1.996-.167-.165-.507-2.66-.678-2.66-.678s-1.329-1.013-1.494-1.854zm55.22-35.099l-.846-.86-.705.715 1.159 1.181.321.322.345-.283 1.669-1.351-.627-.79zm-8.916-4.81l-.525.859 1.332.841.259.171.266-.171 1.833-1.182-.533-.853-1.567 1.009zm-4.536 35.357l-1.661-.175-.102 1.01 1.426.143 1.034 1.646.838-.541-1.159-1.853-.133-.207zm-54.738 47.062l.17 1.857h2.491c.998 0-.83-1.181-.83-1.181s-1.995.169-1.831-.676zm3.17.055l.637-.78.997.84-.637.78zm-30.288-31.564l.707-.716.996 1.013-.707.716zm46.625 216.301l-.447.906 1.042.525-.345.35.713.716.83-.843.486-.493-.619-.318zm-11.846-12.086l-1.003.843-.494.421.525.382 1.167.843.58-.819-.642-.469.501-.421zm124.249-31.226c-.22-.86-1.189-1.212-1.299-1.248l-.317.962v-.006c.079.03.194.091.309.166l.204.875-.22.293.732.685c.534-.594.731-1.17.592-1.725zm-.089-3.306l.125-1.519 1.622.254-.125 1.383zm40.149-13.034c.711-.449 1.619-1.267 1.496.634-.126 1.897-.874 1.267-1.496 1.897-.623.634-.997-1.897 0-2.531zm8.46-7.16l-.03-.235c-.022-.278-.058-.658-.255-1.056l-.891.452c.11.226.132.464.151.693.025.296.058.634.341.848.179.136.404.175.673.123l-.19-.98c.077.012.178.082.201.154zm-2.22.83c.253 1.026.623 2.036.639 2.078l.935-.356c-.007-.009-.37-.999-.609-1.97l-.966.248zm-3.63 3.98l-.993-.099c-.078.796.112 1.78.898 1.939l.195-.992.019.006c-.081-.072-.154-.479-.118-.853zm-4.37-20.13c-.052-.324-.246-.576-.545-.709-.738-.324-1.982.212-2.592.626l.552.843c.631-.428 1.46-.634 1.645-.539l-.045-.056.986-.165zm-46.04-53.9c-.664.676-2.161 1.013-2.161 1.013l-.5 1.856-.829.674s.165.506 0 1.687c-.167 1.18-1.663 1.856-1.663 1.856l-.664.844s-4.007.217-4.488 0c-1.496-.674-.497-2.699.5-2.531.996.169-.168-2.869-.168-2.869l1.332-.168s.165-3.038.664-3.038-.165-1.011-.833-1.518c-.664-.504-1.495-2.191-2.162-2.024-.664.168-3.324 0-3.324 0l-.499 1.013-1.829.336s.157 1.305-.162 1.688c-1.001 1.18-4.822 3.711-3.162-.506l.497-1.011v-1.52l-2.989-.167s-1.496-.507-1.496-1.182c0-.675-.167-1.517-.167-1.517l-3.492-3.88-4.154-.506-.335-.845-2.491-.337c-2.994-1.517-5.655-.169-5.155 2.362.498 2.532 1.328 3.544-.331 3.544-1.665 0-1.996-1.349-1.996-1.349s-1.328-.507-1.328.167c0 .676-.5 2.025 0 2.699.497.674-.667 1.687-1.167 1.181-.495-.506-1.826-2.022-1.493-2.528.331-.506-2.33-3.713.331-4.219 2.661-.506-.166-2.025.833-2.361l1.328-.676h1.329l.832-.676-2.161-.336-1.328-.169-2.495-.169c-2.492 1.687-2.99 3.712-2.99 3.712-1.333 2.53-4.488-1.013-3.324-2.362 1.162-1.35-3.659-.169-4.491.506-.833.674-3.326.337-3.326.337-.497 1.52-2.824-.167-2.161-1.18.665-1.012.665-1.687.665-1.687l-.83-.169-.997 1.856c-2.328 0-2.994 1.349-2.496 2.193.498.842-.664-.169-.998 1.012-.33 1.181.168 1.181 1.167 1.687l.165 1.349c.664.845 2.66 0 1.497 1.182-1.163 1.18-3.493.676-3.493.676-.165 1.516-3.324 1.18-3.654.674-.335-.506-2.826-3.544-2.826-3.544l-3.163-.169c-.33-2.361 1.498-1.181 2.162-3.037.668-1.857 1-4.891 1-4.891s-2.663-.169-2.828.674c-.165.844-1.828 1.35-1.828 1.35s-1.331.505-.832 1.181l-.998 1.011s.259 1.09-.165 1.519c-1.328 1.352-4.655.168-5.152-.337l-1.996-.844-1.995-1.349-2.326 1.011-.664.676h-2.495l-.165 2.022 4.488.506.333 4.176-1.831-.631h-1.163l-.497-1.013-.998-.169v3.711l.998.845.833.841 1.662.169.333 2.024 4.154.171.499.842 2.495.169 4.821 4.891-.333 1.52-.833.506c.335 1.181-2.158.506-2.158.506v1.011l1.16.169 1.167.674 1.661-2.867c1.828-1.181 2.657.506 2.827 1.519.165 1.012-.834.843-.834.843v2.364l.998.336c1.665 2.025-.664 3.207-.664 3.207l-.5 1.686c-.499 1.519-2.327 1.18-2.327 1.18l-.663 1.013-1.998.506 3.947.506c.375-1.35 1.37-1.687 1.869-1.012.5.676.5 1.857.5 1.857l1.001.169-.169 1.855.998.339v5.398l1.163 1.349c1.995-.841 1.995.507.997 1.181-.997.673-.333 3.712-.333 3.712l-.831.842v1.351l-.997.674v1.855c-1.663-.843-3.659-.507-4.159 0-1.493-1.013-4.652-.674-4.652.17.996 1.349-1.162 1.687-1.162 1.687l-1.167 1.349c.833 1.688-.829 1.855-.829 1.855v3.207l-1.996 1.856.168 4.387c0 1.181 2.492 1.349 2.989.674.5-.674 2.496 1.351 2.496 1.351h1.493l.335-3.038-.999-.506v-4.893l1.663-1.857c1.995-.674 1.331 4.389 1.331 4.895.165 1.855.994 1.687 1.828 1.349 1.662-.674.33 1.858-.998 1.687-1.329-.167-.5 1.687-.5 1.687l.834.339-1.498 1.181-1.326 1.52-1.666-.507-1.992-.167-.665-1.184-1.166-.168-.165 2.361-.83 1.012-1.995 2.027c2.661 0-.335 1.852-.998 1.852 1.496.506-.165 2.027-3.989.847v1.179l-1.332.169 1.167 1.348 1.328.169-.499 2.868c0 2.193-5.485.673-5.985.169l-.165 3.037-.998.166.165 2.027-.165 2.869 1.828-.338v1.181l4.491.169 6.483-6.919 3.822-.842c.331-1.69 1.992.338 1.992.338 1.663-.173 1.996 1.011 1.996 1.011l2.162.338c1.826.507.722.685.83 1.352.165 1.011.997.673.997.673l.335-2.193.998.169-.998-1.181-1.831-.845-1.993-.842c-1.331-1.855.332-1.517 1.663-1.348h2.161s2.495 3.372 2.495 4.216c0 .845 1.163 1.014 1.163 1.014l1.493-.169.5 1.179h1.496l.5 1.011h2.993l.166-1.517-2.829-.503-.165-1.69-1.993-.506c-.667-2.866.497-3.711 1.328-2.359l.997.165-.333-2.531 1.163-.338-.331-3.544-.997-.335v-1.182l4.154.172c-.33-2.196.168-3.208.168-3.208h1.163l.165.846 5.086.479 3.596-4.125c-.181-.315.361-.507-.034-.912l-2.001-.506c-.829-.503 0-3.374-.165-4.048-.165-.674 2.829-1.69 2.33-.169-.499 1.52 0 2.194 0 2.194 2.161-2.025 3.989.167 3.824.674-.17.506 1.162 1.012 1.992.506.833-.506 1.83 1.52 1.497 2.529-.335 1.012-3.323.845-3.489-.168-.17-1.013-.669-.674-.998-.168-.335.506-1.828.842-2.661.336-.168-.103-.249-.188-.296-.269l-3.596 4.125.233.024c1.993 1.182.998 2.7.335 3.037-.667.338-1.831.338-1.831.338l-.33.676-4.323.336-.335 1.689c-2.161-.341-2.99 2.024-2.491 3.203.5 1.179 0 2.193 0 2.193l1.829.845 2.325-.673c.335-1.69 1.828-2.027 3.16-3.037 1.328-1.013 3.492 1.852 2.824 3.204-.664 1.348-.664 1.855-.664 1.855l.165 1.519-1.661.673-1.329.676-.169.844h-4.487l-.83.842-2.162.173-.667 1.011-1.493.169s-2.495 1.181-1.496 2.531c.997 1.351-4.155 1.181-5.321-.676-.333 1.686-2.161.169-2.161.169l-1.828-.507-.165-2.528c-.333-1.689-3.492-1.689-3.324-.506.165 1.181-5.987.506-5.987.506l-1.993.968-1.831 1.056-.165.842-2.994.338-1.328.676-.498-1.013h-1.329l-1.331 1.857c-3.49.169-6.814 2.194-6.483 3.037.333.842-1.328 1.69-1.328 1.69l-1.498.5-.995 1.52-1.995.676-.335 3.545-.995.673v1.52l-1.166.335v.845l-1.662.169.995 2.532 1.334.676c2.327.335 1.328 3.206 1.328 3.206l1.329.166.667 1.855 1.328 2.699c.5 2.027 1.996 1.52 2.661 1.352.664-.166 1.328 2.024 1.328 2.024l6.648.169s-.33.676.834 1.013c1.162.335 8.809.676 9.143.169-.335-1.52 4.153-1.858 5.984-.507 1.826 1.348 4.321.507 4.321.507l2.493 3.033 1.666 3.713 2.824.842 1.993.507.667 2.868 1.493.169.5 1.857c1.83 1.349-.5 4.217-.5 4.217v3.71l1.331.676-.168 1.352 2.164 2.19 2.492.172 6.318 6.747 4.985 1.517.83 2.7 1.333-.169.997-.842 3.989-.169 1.996-1.858 2.161-.335 18.452-15.691-1.665-1.013v-3.71c2.993-2.193 3.159-6.075.333-6.413-2.143-.256-1.162-2.531.834-2.868l1.162-.504v-1.52l3.823-3.541v-2.7l-8.309-6.919c-3.659-1.348 0-9.447 2.491-9.278 2.495.166-.165-12.484-.165-12.484l-1.332-.673.335-4.051h-1.828l-2.994 3.882-.83 2.697c-.333 3.547-10.64 2.868-11.14 2.361-.499-.506-3.989-2.024-3.989-2.024s-2.66-2.193-3.159-1.517c-.499.676-2.824-.845-2.824-.338 0 .506-2.161-1.179-2.161-1.179l-3.324-1.182 2.495-.507-.5-2.024 4.318 2.193c.5.673 2.661.507 2.661.507l.664.844s1.332-.172 2.165.842c.83 1.013 5.15.169 5.15.169l1.163 1.011 1.828.676 5.155.169.165-3.204.998-1.013-.167-2.027 1.163-1.011v-1.686l.998-.338.165-3.71.83-.169v-8.099l-2.493-2.363c-.165.845-2.824.845-2.824.845s-.664 1.179-1.163 1.179c-.497 0 .665 1.517.331 2.531-.331 1.011-1.662 1.011-1.662 1.011l-2.495.677-.664.844h-2.661l-.33-2.193 2.99-.845 1.662-.841.833-1.69c.165-1.685 2.161-1.518 2.161-1.518s3.823-3.206 3.989-4.721c.169-1.519 1.498-5.737 3.824-5.737h4.323c1.661-.677 1.163-2.869 1.163-2.869l2.162-.336.333 1.181s2.994.337 3.324-.169c.335-.504.998-1.687 1.831-1.181.83.506 3.49-1.181 3.49-1.181.165-1.181 4.321-.674 4.321-.674l.5-1.518s-2.825-3.88-3.324-3.88c-.5 0-3.159-2.364-3.493-1.519-2.657-.674-2.492-4.387-2.492-4.387l-.998-2.361c0-1.352-2.49-4.219-2.993-3.88-2.495-1.856-.664-4.05 0-4.218.664-.168 2.329-2.531 2.329-2.531l.83-2.362 2.826-.841.333-2.194-1.493-.169s1.659-3.037 2.492-3.037 6.318 0 6.814-.339c.499-.336 1.496-3.035 1.496-3.541 0-.506 1.333-.676 1.829-.845.499-.167 1.662-1.517 1.995-2.193.333-.679-.828-4.898-1.495-4.223zm-92.09 60.82c.249-.25.5.76.998.634.495-.126.747.887.25.887-.5 0-.5.634-.5.887 0 .254 0 .884-.375 1.264-.374.38-.749.126-1.249-.126-.497-.253-.744-.253-1.37-.253-.622 0-.126 1.013-.126 1.013s-2.618-.126-2.118-.507c.499-.377.998-.506.625-.76-.375-.253 0-.504 0-1.011 0-.507 1.247-.253.87-.634-.371-.38.008-1.848.623-1.013l.376-.887c-.376-.378-.124-.506-.872-.755-.747-.254-.127-1.773-.127-1.773l.127-1.012c.249-1.263 2.741-1.391 2.867-.254.123 1.139 0 1.899 0 1.899l.749.252s-.126.763-.749.763c-.626 0 0 .374-.375.756l.376.631zm-8.23 1.27c.375-.76 1.246-4.05 2.245-3.037.994 1.012 1.619 0 1.619 0s.499.507.249 1.52c-.249 1.011-.5 2.024-1.125 2.151-.621.126-1.121.506-1.865.633-.747.127-1.123-1.267-1.123-1.267z"/></svg>