<svg xmlns="http://www.w3.org/2000/svg" xmlns:xlink="http://www.w3.org/1999/xlink" width="500" height="500" viewBox="0 0 2500 2500"><title>Flag of Vatican City</title><defs><linearGradient id="b"><stop offset="0" stop-opacity=".784"/><stop offset="1" stop-opacity="0"/></linearGradient><linearGradient id="a"><stop offset="0" stop-color="#fff"/><stop offset="1" stop-color="#c9c9c9"/></linearGradient><radialGradient cx="483" cy="295.362" r="8.589" fx="483" fy="295.362" xlink:href="#a" gradientUnits="userSpaceOnUse"/><radialGradient cx="483" cy="295.362" r="8.451" fx="483" fy="295.362" xlink:href="#a" gradientUnits="userSpaceOnUse"/><radialGradient cx="483" cy="295.362" r="8.451" fx="483" fy="295.362" xlink:href="#a" gradientUnits="userSpaceOnUse"/><radialGradient cx="483" cy="295.362" r="8.562" fx="483" fy="295.362" xlink:href="#a" gradientUnits="userSpaceOnUse"/><radialGradient cx="483" cy="295.362" r="8.451" fx="483" fy="295.362" xlink:href="#a" gradientUnits="userSpaceOnUse"/><radialGradient cx="483" cy="295.362" r="8.451" fx="483" fy="295.362" xlink:href="#a" gradientUnits="userSpaceOnUse"/><radialGradient cx="483" cy="295.362" r="8.589" fx="483" fy="295.362" xlink:href="#a" gradientUnits="userSpaceOnUse"/><radialGradient cx="483" cy="295.362" r="8.451" fx="483" fy="295.362" xlink:href="#a" gradientUnits="userSpaceOnUse"/><radialGradient cx="483" cy="295.362" r="8.451" fx="483" fy="295.362" xlink:href="#a" gradientUnits="userSpaceOnUse"/><radialGradient cx="483" cy="295.362" r="8.562" fx="483" fy="295.362" xlink:href="#a" gradientUnits="userSpaceOnUse"/><radialGradient cx="483" cy="295.362" r="8.562" fx="483" fy="295.362" xlink:href="#a" gradientUnits="userSpaceOnUse"/><radialGradient cx="483" cy="295.362" r="8.589" fx="483" fy="295.362" xlink:href="#a" gradientUnits="userSpaceOnUse"/><linearGradient x1="332.671" y1="560.219" x2="362.887" y2="524.281" xlink:href="#b" gradientUnits="userSpaceOnUse" gradientTransform="matrix(-1 0 0 1 469.617 -517.901)"/><linearGradient x1="137.172" y1="353.924" x2="153.665" y2="337.097" xlink:href="#b" gradientUnits="userSpaceOnUse" gradientTransform="matrix(-1 0 0 1 469.617 -517.901)"/><linearGradient x1="387.779" y1="745.273" x2="341.079" y2="697.094" xlink:href="#b" gradientUnits="userSpaceOnUse" gradientTransform="matrix(-1 0 0 1 396.31 -518.901)"/><linearGradient x1="718.154" y1="353.924" x2="706.307" y2="340.639" xlink:href="#b" gradientUnits="userSpaceOnUse" gradientTransform="matrix(-1 0 0 1 396.31 -518.901)"/><linearGradient x1="332.671" y1="560.219" x2="362.887" y2="524.281" id="d" xlink:href="#b" gradientUnits="userSpaceOnUse" gradientTransform="matrix(-1 0 0 1 469.617 -517.901)"/><radialGradient cx="483" cy="295.362" r="8.589" fx="483" fy="295.362" id="e" xlink:href="#a" gradientUnits="userSpaceOnUse"/><radialGradient cx="483" cy="295.362" r="8.451" fx="483" fy="295.362" id="f" xlink:href="#a" gradientUnits="userSpaceOnUse"/><radialGradient cx="483" cy="295.362" r="8.451" fx="483" fy="295.362" id="g" xlink:href="#a" gradientUnits="userSpaceOnUse"/><radialGradient cx="483" cy="295.362" r="8.562" fx="483" fy="295.362" id="h" xlink:href="#a" gradientUnits="userSpaceOnUse"/><radialGradient cx="483" cy="295.362" r="8.451" fx="483" fy="295.362" id="i" xlink:href="#a" gradientUnits="userSpaceOnUse"/><radialGradient cx="483" cy="295.362" r="8.451" fx="483" fy="295.362" id="j" xlink:href="#a" gradientUnits="userSpaceOnUse"/><radialGradient cx="483" cy="295.362" r="8.589" fx="483" fy="295.362" id="k" xlink:href="#a" gradientUnits="userSpaceOnUse"/><radialGradient cx="483" cy="295.362" r="8.451" fx="483" fy="295.362" id="l" xlink:href="#a" gradientUnits="userSpaceOnUse"/><radialGradient cx="483" cy="295.362" r="8.451" fx="483" fy="295.362" id="m" xlink:href="#a" gradientUnits="userSpaceOnUse"/><radialGradient cx="483" cy="295.362" r="8.562" fx="483" fy="295.362" id="n" xlink:href="#a" gradientUnits="userSpaceOnUse"/><radialGradient cx="483" cy="295.362" r="8.562" fx="483" fy="295.362" id="o" xlink:href="#a" gradientUnits="userSpaceOnUse"/><radialGradient cx="483" cy="295.362" r="8.589" fx="483" fy="295.362" id="p" xlink:href="#a" gradientUnits="userSpaceOnUse"/></defs><path font-size="12" fill="#fff" fill-rule="evenodd" d="M0 0h2500v2500h-2500z"/><path font-size="12" fill="#ffe000" fill-rule="evenodd" d="M0 0h1250v2499.999h-1250z"/><g transform="matrix(26.409 0 0 27.77 -38568.779 -6880.025)" fill-rule="evenodd"><defs><path id="c" d="M529.124 342.161v98.06h-59.365v-97.293z"/></defs><clipPath><use width="602.035" height="1063.966" xlink:href="#c"/></clipPath></g><g fill-rule="evenodd" stroke="#000" stroke-width="2.262"><clipPath transform="matrix(29.189 0 0 30.695 -40603.247 -11753.422)"><path d="M529.124 342.161v98.06h-59.365v-97.293z"/></clipPath><clipPath transform="matrix(29.189 0 0 30.695 -39152.62 -11753.422)"><path d="M529.124 342.161v98.06h-59.365v-97.293z"/></clipPath></g><clipPath transform="matrix(17.351 0 0 17.351 -30142.839 -2835.358)" fill-rule="evenodd" stroke="#000" stroke-width="1.363"><path d="M529.124 342.161v98.06h-59.365v-97.293z"/></clipPath><clipPath transform="matrix(17.351 0 0 17.351 -29280.409 -2835.358)" fill-rule="evenodd" stroke="#000" stroke-width="1.363"><path d="M529.124 342.161v98.06h-59.365v-97.293z"/></clipPath><clipPath transform="matrix(24.866 0 0 24.866 -28988.599 4039.758)" fill-rule="evenodd"><use width="602.035" height="1063.966" xlink:href="#c"/></clipPath><g fill-rule="evenodd" stroke="#000" stroke-width="2.262"><clipPath transform="matrix(27.485 0 0 27.485 -30904.263 -324.078)"><path d="M529.124 342.161v98.06h-59.365v-97.293z"/></clipPath><clipPath transform="matrix(27.485 0 0 27.485 -29538.36 -324.078)"><path d="M529.124 342.161v98.06h-59.365v-97.293z"/></clipPath></g><clipPath transform="matrix(11.226 0 0 11.226 -16193.779 4331.145)" fill-rule="evenodd" stroke="#000" stroke-width="1.363"><path d="M529.124 342.161v98.06h-59.365v-97.293z"/></clipPath><clipPath transform="matrix(11.226 0 0 11.226 -15635.809 4331.145)" fill-rule="evenodd" stroke="#000" stroke-width="1.363"><path d="M529.124 342.161v98.06h-59.365v-97.293z"/></clipPath><clipPath transform="matrix(12.576 0 0 12.576 -15742.709 452.327)" fill-rule="evenodd" stroke="#000" stroke-width="1.363"><path d="M529.124 342.161v98.06h-59.365v-97.293z"/></clipPath><clipPath transform="matrix(12.576 0 0 12.576 -15117.629 452.327)" fill-rule="evenodd" stroke="#000" stroke-width="1.363"><path d="M529.124 342.161v98.06h-59.365v-97.293z"/></clipPath><clipPath transform="matrix(29.186 0 0 30.69 -40635.249 -11734.724)" fill-rule="evenodd" stroke="#000" stroke-width="1.363"><path d="M529.124 342.161v98.06h-59.365v-97.293z"/></clipPath><clipPath transform="matrix(29.186 0 0 30.69 -39184.579 -11734.724)" fill-rule="evenodd" stroke="#000" stroke-width="1.363"><path d="M529.124 342.161v98.06h-59.365v-97.293z"/></clipPath><clipPath transform="matrix(27.481 0 0 27.481 -30936.189 -305.348)" fill-rule="evenodd" stroke="#000" stroke-width="1.363"><path d="M529.124 342.161v98.06h-59.365v-97.293z"/></clipPath><clipPath transform="matrix(27.481 0 0 27.481 -29570.289 -305.348)" fill-rule="evenodd" stroke="#000" stroke-width="1.363"><path d="M529.124 342.161v98.06h-59.365v-97.293z"/></clipPath><clipPath transform="matrix(29.186 0 0 30.69 -40635.249 -11734.724)" fill-rule="evenodd" stroke="#000" stroke-width="1.363"><path d="M529.124 342.161v98.06h-59.365v-97.293z"/></clipPath><clipPath transform="matrix(29.186 0 0 30.69 -39184.579 -11734.724)" fill-rule="evenodd" stroke="#000" stroke-width="1.363"><path d="M529.124 342.161v98.06h-59.365v-97.293z"/></clipPath><clipPath transform="matrix(27.481 0 0 27.481 -30936.189 -305.348)" fill-rule="evenodd" stroke="#000" stroke-width="1.363"><path d="M529.124 342.161v98.06h-59.365v-97.293z"/></clipPath><clipPath transform="matrix(27.481 0 0 27.481 -29570.289 -305.348)" fill-rule="evenodd" stroke="#000" stroke-width="1.363"><path d="M529.124 342.161v98.06h-59.365v-97.293z"/></clipPath><clipPath transform="matrix(29.186 0 0 30.69 -40671.399 -11742.474)" fill-rule="evenodd" stroke="#000" stroke-width="1.363"><path d="M529.124 342.161v98.06h-59.365v-97.293z"/></clipPath><clipPath transform="matrix(29.186 0 0 30.69 -39220.729 -11742.474)" fill-rule="evenodd" stroke="#000" stroke-width="1.363"><path d="M529.124 342.161v98.06h-59.365v-97.293z"/></clipPath><clipPath transform="matrix(27.481 0 0 27.481 -30972.339 -313.101)" fill-rule="evenodd" stroke="#000" stroke-width="1.363"><path d="M529.124 342.161v98.06h-59.365v-97.293z"/></clipPath><clipPath transform="matrix(27.481 0 0 27.481 -29606.439 -313.101)" fill-rule="evenodd" stroke="#000" stroke-width="1.363"><path d="M529.124 342.161v98.06h-59.365v-97.293z"/></clipPath><g transform="translate(1873.949 1138.193)"><path d="M354.821 147.679a58.929 9.821 0 1 1-117.857 0 58.929 9.821 0 1 1 117.857 0z" transform="matrix(1.626 0 0 1.502 -479.303 -234.513)" fill="#c80035" fill-rule="evenodd" stroke="#000" stroke-width=".64"/><path d="M-8.08-22.58l-38.916-37.833c-21.732 81.106-80.472 141.944-108.613 118.927l38.916 37.833c28.141 23.017 86.881-37.821 108.613-118.927z" fill="#fff" stroke="#000" stroke-width=".808" stroke-linecap="round" stroke-linejoin="round"/><path d="M-12.992-27.34c-21.732 81.106-80.452 141.924-108.594 118.906 1.083 1.053 4.906 4.781 4.906 4.781 28.141 23.017 86.861-37.831 108.594-118.938 0 0-3.828-3.702-4.906-4.75zm-34-33.063c-21.732 81.106-80.484 141.924-108.625 118.906 0 0 3.921 3.796 5.063 4.906 28.304 22.067 86.564-38.551 108.188-119.25v-.094c-.964-.937-4.625-4.469-4.625-4.469z" fill="#ffbd03" stroke="#000" stroke-width=".808" stroke-linecap="round" stroke-linejoin="round"/><path d="M-40.375-17.781c-2.382 5.982-4.635 11.964-7.481 17.947l-9.485-7.858c-2.546 5.447-5.317 10.894-8.839 16.341l11.204 3.787c-5.382 8.6-10.971 17.2-18.77 25.801l12.79 9.538c5.824-10.193 10.921-20.385 14.782-30.578l9.116 7.305c3.273-5.12 5.859-10.743 8.655-16.341l-10.835-3.787 10.363-15.934-11.499-6.221z" font-size="12" fill="#ffbd03" fill-rule="evenodd" stroke="#000" stroke-width=".808"/><path d="M9.172-22.58l38.916-37.833c21.732 81.106 80.472 141.944 108.613 118.927l-38.916 37.833c-28.141 23.017-86.881-37.821-108.613-118.927z" fill="#fff" stroke="#000" stroke-width=".808" stroke-linecap="round" stroke-linejoin="round"/><path d="M48.084-60.403c21.732 81.106 80.484 141.924 108.625 118.906 0 0-3.921 3.796-5.063 4.906-28.304 22.067-86.564-38.551-108.188-119.25v-.094c.964-.937 4.625-4.469 4.625-4.469z" fill="#ffbd03" stroke="#000" stroke-width=".808" stroke-linecap="round" stroke-linejoin="round"/><path d="M10.542 585.103c-3.301 0-15.702.127-19.5 14.938-3.798 14.81 2.531 45.563 2.531 45.563s5.818 6.313 16.969 6.313c11.151 0 16.969-6.313 16.969-6.313s6.329-30.752 2.531-45.563c-3.798-14.81-16.199-14.938-19.5-14.938z" fill="#bb0d0d" fill-rule="evenodd" stroke="#000"/><path d="M10.542 651.933v-40.05m-3.766 39.543c-.214-13.84-1.955-26.577-.643-40.417m-3.123 39.784c-.206-13.866-3.112-27.403-.918-40.968m-2.848 39.323c-.116-13.84-4.393-27.68-1.194-41.52m-2.571 39.621c-.003-13.84-5.266-28.598-1.194-42.438m20.038 46.615c.214-13.84 1.955-26.577.643-40.417m3.122 39.784c.206-13.866 3.112-27.403.918-40.968m2.848 39.323c.116-13.84 4.393-27.68 1.194-41.52m2.572 39.621c.003-13.84 5.266-28.598 1.194-42.438" stroke="#000" stroke-linecap="round" stroke-linejoin="round" fill="none"/><path d="M232.661 1113.417a16.836 16.836 0 1 1-33.671 0 16.836 16.836 0 1 1 33.671 0z" transform="translate(-205.283 -528.447)" fill="#bb0d0d" stroke="#000" stroke-linecap="round" stroke-linejoin="round"/><path d="M.437 179.888v394.386c-.051 3.606 1.844 6.961 4.959 8.779 3.115 1.818 6.968 1.818 10.083 0s5.01-5.173 4.959-8.779v-409.23l-20 14.844z" fill="#bb0d0d" fill-rule="evenodd" stroke="#000" stroke-linecap="round" stroke-linejoin="round"/><path d="M-2.618 593.877c-3.301 0-15.702.127-19.5 14.938-3.798 14.81 2.531 45.563 2.531 45.563s5.818 6.313 16.969 6.313c11.151 0 16.969-6.313 16.969-6.313s6.329-30.752 2.531-45.563c-3.798-14.81-16.199-14.938-19.5-14.938z" fill="#bb0d0d" fill-rule="evenodd" stroke="#000"/><path d="M-2.618 660.706v-40.05m-3.766 39.544c-.214-13.84-1.955-26.577-.643-40.417m-3.123 39.784c-.206-13.866-3.112-27.403-.918-40.968m-2.847 39.322c-.116-13.84-4.393-27.68-1.194-41.52m-2.572 39.621c-.003-13.84-5.266-28.598-1.194-42.438m20.038 46.616c.214-13.84 1.955-26.577.643-40.417m3.123 39.784c.206-13.866 3.112-27.403.918-40.968m2.848 39.322c.116-13.84 4.393-27.68 1.194-41.52m2.571 39.621c.003-13.84 5.266-28.598 1.194-42.438" stroke="#000" stroke-linecap="round" stroke-linejoin="round" fill="none"/><path d="M232.661 1113.417a16.836 16.836 0 1 1-33.671 0 16.836 16.836 0 1 1 33.671 0z" transform="translate(-218.443 -519.674)" fill="#bb0d0d" stroke="#000" stroke-linecap="round" stroke-linejoin="round"/><path d="M-12.722 171.888v411.16c-.051 3.606 1.844 6.961 4.959 8.779 3.115 1.818 6.968 1.818 10.083 0s5.01-5.173 4.959-8.779v-426.003l-20 14.844z" fill="#bb0d0d" fill-rule="evenodd" stroke="#000" stroke-linecap="round" stroke-linejoin="round"/><path d="M10.273 165.136c0 59.11 17.644 136.507 44.906 193.438 13.631 28.465 29.745 51.764 46.094 65.188s31.258 17.394 48.156 10.281c11.957-5.032 21.465-7.335 30.281-6.063 0 0-11.227 8.872-1.75 20.375-.059-.372-.021-.592.063-.688-.044.097-.142.245-1.188.094-2.533-.366-9.495.442-19.656 4.719-23.942 10.077-48.593 3.172-68.594-13.25-20-16.422-37.023-41.931-51.438-72.031-28.828-60.2-46.875-139.058-46.875-202.063h20zm-16.247 0c0 59.11-17.644 136.507-44.906 193.438-13.631 28.465-29.745 51.764-46.094 65.188s-31.258 17.394-48.156 10.281c-11.957-5.032-21.465-7.335-30.281-6.063 0 0 11.227 8.872 1.75 20.375.059-.372.021-.592-.063-.688.044.097.142.245 1.188.094 2.533-.366 9.495.442 19.656 4.719 23.942 10.077 48.593 3.172 68.594-13.25 20-16.422 37.023-41.931 51.438-72.031 28.828-60.2 46.875-139.058 46.875-202.063h-20z" fill="#bb0d0d" fill-rule="evenodd" stroke="#000"/><path d="M83.756 781.912a18.298 18.298 0 1 1-36.596 0 18.298 18.298 0 1 1 36.596 0z" transform="matrix(-.915 0 0 .915 -265.799 -904.957)" fill="#ffbd03" stroke="#000" stroke-width="1.092" stroke-miterlimit="2"/><path d="M-312.146-186.405l17.729 17.978-11.819 11.985-17.729-17.978c-5.91-5.993 5.909-17.978 11.819-11.986z" font-size="12" fill="#c0c0c0" fill-rule="evenodd" stroke="#000" stroke-width=".895pt"/><path d="M-288.502-174.432l17.719 18 161.719 163.969-23.656 23.969-161.688-163.969-17.75-17.969c2.372-9.581 14.209-21.595 23.656-24zm189.094 191.781l106.375 107.875-23.625 23.969-106.375-107.875c2.372-9.581 14.177-21.564 23.625-23.969z" font-size="12" fill="#c0c0c0" fill-rule="evenodd" stroke="#000"/><path d="M-270.778-156.441l17.729 17.978c11.819 11.985 53.187 65.92 53.187 65.92s55.333 44.13 67.152 56.116l17.729 17.978c-11.819-11.986-84.882-62.109-84.882-62.109s43.514 68.102 61.243 86.08l-17.729-17.978c-11.819-11.985-55.335-68.099-55.333-68.102-.002.002-47.277-35.956-59.096-47.942l-23.639-23.971c11.819 11.985 82.733 59.93 82.733 59.93s-47.275-71.916-59.094-83.901z" font-size="12" fill="#ffbd03" fill-rule="evenodd" stroke="#000"/><path d="M-239.926 39.088v-19.016l-12.219 9.508 12.219 9.508z" font-size="12" fill="#bfbfbf" fill-rule="evenodd" stroke="#000" stroke-miterlimit="2"/><path d="M204.342 247.349c70.38 0 127.5 57.12 127.5 127.5s-57.12 127.5-127.5 127.5-127.5-57.12-127.5-127.5 57.12-127.5 127.5-127.5zm15.5 34.25c-3.864 0-7 3.136-7 7 0 4.681-3.788 8.469-8.469 8.469-4.681 0-8.469-3.788-8.469-8.469 0-3.864-3.136-7-7-7-.451 0-.885.043-1.313.125-39.007 7.003-69.728 37.927-76.438 77.031-.041.214-.073.438-.094.656-.021.218-.031.431-.031.656l15.469-1.79v17.259c0 4.681-3.788 8.469-8.469 8.469-3.864 0-7 3.136-7 7 0 .225.01.438.031.656.021.218.053.443.094.656 6.709 39.105 37.431 70.029 76.438 77.031.427.082.862.125 1.313.125 3.864 0 7-3.136 7-7 0-4.681 3.788-8.469 8.469-8.469 4.681 0 8.469 3.788 8.469 8.469 0 3.864 3.136 7 7 7 .451 0 .885-.043 1.313-.125 39.007-7.003 69.728-37.927 76.438-77.031.041-.214.073-.438.094-.656.021-.218.031-.431.031-.656 0-3.864-3.136-7-7-7-4.681 0-8.469-3.788-8.469-8.469v-17.612l15.469 2.143c0-.225-.01-.438-.031-.656-.021-.218-.053-.443-.094-.656-6.709-39.105-37.431-70.029-76.438-77.031-.427-.082-.862-.125-1.313-.125z" fill="#bfbfbf" stroke="#000"/><path d="M83.756 781.912a18.298 18.298 0 1 1-36.596 0 18.298 18.298 0 1 1 36.596 0z" transform="matrix(-.984 0 0 .984 378.26 -513.462)" fill="#d72b2b" stroke="#000" stroke-width="1.016" stroke-miterlimit="2"/><path d="M-34.393 71.284l-35.458 35.956c-6.509 0-11.959-5.526-11.819-11.986 0 0 0-11.985 11.819-23.971 11.819-11.985 23.638-11.986 23.638-11.986 5.49.75 10.102 5.993 11.819 11.985zm0 0l23.638 35.957-23.638 23.971-35.458-23.971c-1.335-1.168 0-11.985 11.819-23.971s23.106-11.699 23.638-11.986z" font-size="12" fill="#bfbfbf" fill-rule="evenodd" stroke="#000" stroke-width=".895pt"/><path d="M-16.664 113.233c-9.666-9.802-23.638-23.971-41.367-29.964 5.91 17.978 19.882 32.147 29.548 41.949l11.819-11.986z" font-size="12" fill="#bfbfbf" fill-rule="evenodd" stroke="#000" stroke-miterlimit="2"/><path d="M-34.393 131.211l5.909-5.993s-6.986-7.085-11.819-11.985c-11.819-11.986-29.548-5.993-29.548-5.993l35.458 23.971zm23.638-23.971l-5.909 5.993s-6.986-7.085-11.819-11.985c-11.819-11.986-5.91-29.964-5.91-29.964l23.638 35.957z" font-size="12" fill="#bfbfbf" fill-rule="evenodd" stroke="#000" stroke-width=".809pt"/><path d="M-10.755 107.24c41.367 41.949 88.644 65.92 118.193 95.884 23.638 23.971 7.271 42.318.681 48.127-6.591 5.808-24.514 24.053-47.958-.185-29.548-29.964-53.187-77.906-94.554-119.855 0-11.985 11.82-23.971 23.638-23.971z" font-size="12" fill="#bfbfbf" fill-rule="evenodd" stroke="#000" stroke-width=".895pt"/><path font-size="12" fill="#bfbfbf" fill-rule="evenodd" stroke="#000" stroke-width="1.001" d="M134.73 234.759l-13.509-15.594-46.837 46.035 13.509 15.594z"/><path font-size="12" fill="#ffbd03" fill-rule="evenodd" stroke="#000" stroke-width="1.001" d="M148.964 246.608l-14.869-17.109-51.544 50.501 14.869 17.109z"/><path d="M277.606 253.655c6.865 4.936 13.34 10.64 19.304 17.105 5.964 6.464 11.137 13.387 15.523 20.645l6.684-4.218c-4.605-7.622-10.039-14.891-16.302-21.68-6.264-6.789-13.063-12.779-20.273-17.963l-4.937 6.112z" font-size="12" fill="#ffbd03" fill-rule="evenodd" stroke="#000"/><path d="M-278.405-132.059l-19.178 19.017 19.178 19.016-9.588 9.509-19.178-19.017-38.354 38.032 19.178 19.017-9.589 9.508-19.176-19.016-19.178 19.016 57.532 57.049 38.354-38.032-19.178-19.017-9.588 9.509-9.588-9.509 38.354-38.032 9.588 9.509-9.588 9.508 19.176 19.016 19.178-19.016-9.588-9.509 9.588-9.508 38.354 38.032-9.588 9.508-9.588-9.508-19.178 19.017 19.176 19.016 9.588-9.508 9.589 9.508-38.354 38.032-9.589-9.508 9.589-9.509-19.178-19.016-38.354 38.032 57.532 57.049 19.178-19.017-19.178-19.016 9.588-9.508 19.178 19.016 38.354-38.032-19.178-19.017 9.589-9.508 19.176 19.017 19.178-19.017-134.24-133.114z" font-size="12" fill="#bfbfbf" fill-rule="evenodd" stroke="#000" stroke-miterlimit="2"/><path d="M-220.875 77.12v19.016l-47.942 47.541v-38.032l9.588-9.508h19.177l19.177-19.016z" font-size="12" fill="#bfbfbf" fill-rule="evenodd" stroke="#000"/><path d="M-172.932 29.97l-38.092 37.772-.454 18.886 38.545-38.222v-18.436zm-38.354 56.658l-19.177-19.016v-19.016l19.177 19.016v19.016zm47.943-47.541l-19.177-19.016v-19.016l19.177 19.016v19.016zm-19.177-38.032v19.016l-9.589-9.508 9.589-9.508zm-47.943 47.541v19.016l-9.589-9.508 9.589-9.508z" font-size="12" fill="#bfbfbf" fill-rule="evenodd" stroke="#000" stroke-miterlimit="2"/><path d="M-143.975 1.055l-19.368 19.016v19.016l19.368-19.596v-18.436z" font-size="12" fill="#a5a5a5" fill-rule="evenodd" stroke="#000" stroke-miterlimit="2"/><path d="M-259.228-17.961l-19.177-19.016v-19.016l19.177 19.016v19.016zm38.354 38.032l-19.177-19.016v-19.016l19.177 19.016v19.016zm9.588-47.54l-28.766-28.525v-19.016l38.354 38.032-9.588 9.508zm-28.765-47.541v19.016l-9.589-9.508 9.589-9.508zm-19.177 57.049l19.177-19.016v-19.016l-19.177 19.016v19.016zm-47.943-9.508l28.766-28.525v-19.016l-38.354 38.032 9.588 9.508zm28.765 9.508l-38.354 38.032h-19.177l-9.589 9.508v38.033l67.12-66.746v-18.827zm38.354 114.097l-57.531-57.049h-19.177l57.531 57.049h19.177zm-28.765 9.508l-57.532-57.049 9.589-9.508 57.531 57.049-9.588 9.508zm0 0v38.032l-57.532-57.049v-38.032l57.532 57.049zm-47.943-85.573l-57.531-57.049h-19.177l57.531 57.049h19.177zm-28.765 9.508l-57.532-57.049 9.589-9.508 57.531 57.049-9.588 9.508zm0 0v38.032l-57.532-57.049v-38.032l57.532 57.049zm9.589-66.556l-9.589-9.508v-19.016l19.177 19.016-9.588 9.508zm47.942-47.541l-9.589-9.508v-19.016l19.177 19.016-9.588 9.508zm67.12 104.589l19.177-19.016-9.589-9.508-9.588 9.508v19.016zm-57.531-76.065l9.588-9.508-9.588-9.508v19.016z" font-size="12" fill="#bfbfbf" fill-rule="evenodd" stroke="#000" stroke-miterlimit="2"/><path d="M308.029 431.036l7.156 3.375v17.625c-5.147 7.262-11.104 14.129-17.844 20.438-6.74 6.309-13.965 11.767-21.531 16.406l-4.781-5.219-.219-18c14.601-8.943 27.269-20.75 37.219-34.625zm-32.226 39.82c7.205-4.417 13.016-8.558 19.434-14.566 6.418-6.007 14.734-14.669 19.635-21.584" font-size="12" fill="#ffbd03" fill-rule="evenodd" stroke="#000"/><path d="M271.08 466.023l4.782 4.694v17.536" fill="#ffbd03" fill-rule="evenodd" stroke="#000"/><path d="M83.756 781.912a18.298 18.298 0 1 1-36.596 0 18.298 18.298 0 1 1 36.596 0z" transform="matrix(-.984 0 0 .984 373.389 -295.86)" fill="#d72b2b" stroke="#000" stroke-width="1.016" stroke-miterlimit="2"/><path d="M-211.283-8.464v19.063l-9.594 9.468v-19l9.594-9.531z" opacity=".8" fill="#bfbfbf" stroke="#000" stroke-miterlimit="2"/><path d="M14.084-27.34c21.732 81.106 80.452 141.924 108.594 118.906-1.083 1.053-4.906 4.781-4.906 4.781-28.141 23.017-86.861-37.831-108.594-118.938 0 0 3.828-3.702 4.906-4.75z" fill="#ffbd03" stroke="#000" stroke-width=".808" stroke-linecap="round" stroke-linejoin="round"/><path d="M41.468-17.781c2.382 5.982 4.635 11.964 7.481 17.947l9.485-7.858c2.546 5.447 5.317 10.894 8.839 16.341l-11.204 3.787c5.382 8.6 10.971 17.2 18.77 25.801l-12.79 9.538c-5.824-10.193-10.921-20.385-14.782-30.578l-9.116 7.305c-3.273-5.12-5.859-10.743-8.655-16.341l10.835-3.787-10.363-15.934 11.499-6.221z" font-size="12" fill="#ffbd03" fill-rule="evenodd" stroke="#000" stroke-width=".808"/><path d="M204.342 229.349c70.38 0 127.5 57.12 127.5 127.5s-57.12 127.5-127.5 127.5-127.5-57.12-127.5-127.5 57.12-127.5 127.5-127.5zm15.5 34.25c-3.864 0-7 3.136-7 7 0 4.681-3.788 8.469-8.469 8.469-4.681 0-8.469-3.788-8.469-8.469 0-3.864-3.136-7-7-7-.451 0-.885.043-1.313.125-39.007 7.003-69.728 37.927-76.438 77.031-.041.214-.073.438-.094.656-.021.218-.031.431-.031.656 0 3.864 3.136 7 7 7 4.681 0 8.469 3.788 8.469 8.469 0 4.681-3.788 8.469-8.469 8.469-3.864 0-7 3.136-7 7 0 .225.01.438.031.656.021.218.053.443.094.656 6.709 39.105 37.431 70.029 76.438 77.031.427.082.862.125 1.313.125 3.864 0 7-3.136 7-7 0-4.681 3.788-8.469 8.469-8.469 4.681 0 8.469 3.788 8.469 8.469 0 3.864 3.136 7 7 7 .451 0 .885-.043 1.313-.125 39.007-7.003 69.728-37.927 76.438-77.031.041-.214.073-.438.094-.656.021-.218.031-.431.031-.656 0-3.864-3.136-7-7-7-4.681 0-8.469-3.788-8.469-8.469 0-4.681 3.788-8.469 8.469-8.469 3.864 0 7-3.136 7-7 0-.225-.01-.438-.031-.656-.021-.218-.053-.443-.094-.656-6.709-39.105-37.431-70.029-76.438-77.031-.427-.082-.862-.125-1.313-.125zm-11.532-20.219c58.624.745 110.941 53.842 109.656 112.781.451 47.983-32.153 95.012-78.719 108.781-41.557 13.472-90.727 1.24-119.332-32.175-29.915-32.869-38.358-84.113-18.316-124.235 18.194-38.994 59.754-66.274 102.991-65.184 1.24-.008 2.479.003 3.719.031zm-18.844 6.125c-48.249 5.419-90.499 48.156-92.063 97.156.468 4.313 3.764 8.024 6.406 10.875-9.422 9.262-7.647 24.24-2.475 35.202 13.083 39.245 50.45 71.348 92.756 72.361 4.394-.104 7.486-5.25 10.563-6.125 9.409 9.249 24.231 7.156 35.135 1.991 39.172-13.409 71.137-51.241 71.397-93.616-.503-4.073-4.399-7.119-6.125-9.938 9.388-9.315 7.388-24.316 2.282-35.294-13.139-39.081-50.253-70.917-92.314-72.175-4.42.381-8.046 4.575-10.875 6.344-3.761-4.055-9.136-6.537-14.688-6.781z" fill="#bfbfbf" stroke="#000"/><path d="M18.793 161.175c23.638 35.956 47.277 59.927 53.187 65.92 11.216 11.395 23.638 11.986 23.638 11.986s0-11.986-11.819-23.971c-5.909-5.993-29.548-29.964-65.006-53.935z" font-size="12" stroke="#000" stroke-width=".895pt" fill="none"/><path d="M100.614 431.036l-7.156 3.375v17.625c5.147 7.262 11.104 14.129 17.844 20.438 6.74 6.309 13.965 11.767 21.531 16.406l4.781-5.219.219-18c-14.601-8.943-27.269-20.75-37.219-34.625zm32.227 39.82c-7.205-4.417-13.016-8.558-19.434-14.566-6.418-6.007-14.734-14.669-19.635-21.584" font-size="12" fill="#ffbd03" fill-rule="evenodd" stroke="#000"/><path d="M137.563 466.023l-4.782 4.694v17.536" fill="#ffbd03" fill-rule="evenodd" stroke="#000"/><path d="M83.756 781.912a18.298 18.298 0 1 1-36.596 0 18.298 18.298 0 1 1 36.596 0z" transform="matrix(-.984 0 0 .984 164.724 -295.86)" fill="#d72b2b" stroke="#000" stroke-width="1.016" stroke-miterlimit="2"/><path d="M-111.221 5.38c5.886.349 11.417 5.194 11.813 11.969-9.448 2.405-21.253 14.388-23.625 23.969-6.509 0-11.952-5.51-11.813-11.969 5.131-12.38 11.793-18.383 23.625-23.969zm-168.875-171.25c5.886.349 11.448 5.194 11.844 11.969l-.031.031-2.5-2.563c-9.448 2.405-21.253 14.388-23.625 23.969l2.5 2.531c-6.509 0-11.952-5.51-11.813-11.969 5.131-12.38 11.793-18.383 23.625-23.969z" font-size="12" fill="#ffbd03" fill-rule="evenodd" stroke="#000" stroke-width=".895pt"/><path d="M83.756 781.912a18.298 18.298 0 1 1-36.596 0 18.298 18.298 0 1 1 36.596 0z" transform="matrix(.915 0 0 .915 267.896 -903.956)" fill="#c0c0c0" stroke="#000" stroke-width="1.092" stroke-miterlimit="2"/><path d="M314.243-185.405l-17.729 17.978 11.819 11.985 17.729-17.978c5.91-5.993-5.909-17.978-11.819-11.986z" font-size="12" fill="#ffbd03" fill-rule="evenodd" stroke="#000" stroke-width=".895pt"/><path d="M290.6-173.432l-17.719 18-161.719 163.969 23.656 23.969 161.688-163.969 17.75-17.969c-2.372-9.581-14.209-21.595-23.656-24zm-189.094 191.781l-106.375 107.875 23.625 23.969 106.375-107.875c-2.372-9.581-14.177-21.564-23.625-23.969z" font-size="12" fill="#ffbd03" fill-rule="evenodd" stroke="#000"/><path d="M272.876-155.44l-17.729 17.978c-11.819 11.985-53.187 65.92-53.187 65.92s-55.333 44.13-67.152 56.116l-17.729 17.978c11.819-11.986 84.882-62.109 84.882-62.109s-43.514 68.102-61.243 86.08l17.729-17.978c11.819-11.985 55.335-68.099 55.333-68.102.002.002 47.277-35.956 59.096-47.942l23.639-23.971c-11.819 11.985-82.733 59.93-82.733 59.93s47.275-71.916 59.094-83.901z" font-size="12" fill="#c0c0c0" fill-rule="evenodd" stroke="#000"/><path d="M36.491 72.284l35.458 35.956c6.509 0 11.959-5.526 11.819-11.986 0 0 0-11.985-11.819-23.971-11.819-11.985-23.638-11.986-23.638-11.986-5.49.75-10.102 5.993-11.819 11.985zm0 0l-23.638 35.957 23.638 23.971 35.458-23.971c1.335-1.168 0-11.985-11.819-23.971s-23.106-11.699-23.638-11.986z" font-size="12" fill="#ffbd03" fill-rule="evenodd" stroke="#000" stroke-width=".895pt"/><path d="M18.762 114.233c9.666-9.802 23.638-23.971 41.367-29.964-5.91 17.978-19.882 32.147-29.548 41.949l-11.819-11.986z" font-size="12" fill="#ffbd03" fill-rule="evenodd" stroke="#000" stroke-miterlimit="2"/><path d="M36.491 132.211l-5.909-5.993s6.986-7.085 11.819-11.985c11.819-11.986 29.548-5.993 29.548-5.993l-35.458 23.971zm-23.639-23.971l5.909 5.993s6.986-7.085 11.819-11.985c11.819-11.986 5.91-29.964 5.91-29.964l-23.638 35.957z" font-size="12" fill="#ffbd03" fill-rule="evenodd" stroke="#000" stroke-width=".809pt"/><path d="M12.852 108.24c-41.367 41.949-88.644 65.92-118.193 95.884-23.638 23.971-7.271 42.318-.681 48.127 6.591 5.808 24.514 24.053 47.958-.185 29.548-29.964 53.187-77.906 94.554-119.855 0-11.985-11.82-23.971-23.638-23.971z" font-size="12" fill="#ffbd03" fill-rule="evenodd" stroke="#000" stroke-width=".895pt"/><path font-size="12" fill="#ffbd03" fill-rule="evenodd" stroke="#000" stroke-width="1.001" d="M-132.633 235.76l13.509-15.594 46.837 46.035-13.509 15.594z"/><path font-size="12" fill="#c0c0c0" fill-rule="evenodd" stroke="#000" stroke-width="1.001" d="M-146.866 247.608l14.869-17.109 51.544 50.501-14.869 17.109z"/><path d="M-16.696 162.175c-23.638 35.956-47.277 59.927-53.187 65.92-11.216 11.395-23.638 11.986-23.638 11.986s0-11.986 11.819-23.971c5.909-5.993 29.548-29.964 65.006-53.935z" font-size="12" stroke="#000" stroke-width=".895pt" fill="none"/><path d="M242.024 40.088v-19.016l12.219 9.508-12.219 9.508z" font-size="12" fill="#ffbd03" fill-rule="evenodd" stroke="#000" stroke-miterlimit="2"/><path d="M-202.244 248.349c-70.38 0-127.5 57.12-127.5 127.5s57.12 127.5 127.5 127.5 127.5-57.12 127.5-127.5-57.12-127.5-127.5-127.5zm-15.5 34.25c3.864 0 7 3.136 7 7 0 4.681 3.788 8.469 8.469 8.469 4.681 0 8.469-3.788 8.469-8.469 0-3.864 3.136-7 7-7 .451 0 .885.043 1.313.125 39.007 7.003 69.728 37.927 76.438 77.031.041.214.073.438.094.656.021.218.031.431.031.656l-15.469-1.79v17.259c0 4.681 3.788 8.469 8.469 8.469 3.864 0 7 3.136 7 7 0 .225-.01.438-.031.656-.021.218-.053.443-.094.656-6.709 39.105-37.431 70.029-76.438 77.031-.427.082-.862.125-1.313.125-3.864 0-7-3.136-7-7 0-4.681-3.788-8.469-8.469-8.469-4.681 0-8.469 3.788-8.469 8.469 0 3.864-3.136 7-7 7-.451 0-.885-.043-1.313-.125-39.007-7.003-69.728-37.927-76.438-77.031-.041-.214-.073-.438-.094-.656-.021-.218-.031-.431-.031-.656 0-3.864 3.136-7 7-7 4.681 0 8.469-3.788 8.469-8.469v-17.612l-15.469 2.143c0-.225.01-.438.031-.656.021-.218.053-.443.094-.656 6.709-39.105 37.431-70.029 76.438-77.031.427-.082.862-.125 1.313-.125z" fill="#ffbd03" stroke="#000"/><path d="M83.756 781.912a18.298 18.298 0 1 1-36.596 0 18.298 18.298 0 1 1 36.596 0z" transform="matrix(.984 0 0 .984 -376.162 -512.462)" fill="#d72b2b" stroke="#000" stroke-width="1.016" stroke-miterlimit="2"/><path d="M299.912-182.87c-5.877.348-11.402 5.21-11.813 11.969l2.5-2.531c9.448 2.405 21.285 14.419 23.656 24l-2.5 2.531c6.495-.017 11.921-5.52 11.781-11.969-5.131-12.38-11.793-18.415-23.625-24z" font-size="12" fill="#c0c0c0" fill-rule="evenodd" stroke="#000"/><path d="M282.194-164.87c-5.886.349-11.448 5.194-11.844 11.969l.031.031 2.5-2.563c9.448 2.405 21.253 14.388 23.625 23.969l-2.5 2.531c6.509 0 11.952-5.51 11.813-11.969-5.131-12.38-11.793-18.383-23.625-23.969z" font-size="12" fill="#c0c0c0" fill-rule="evenodd" stroke="#000" stroke-width=".895pt"/><path d="M-275.508 254.655c-6.865 4.936-13.34 10.64-19.304 17.105-5.964 6.464-11.137 13.387-15.523 20.645l-6.684-4.218c4.605-7.622 10.039-14.891 16.302-21.68 6.264-6.789 13.063-12.779 20.273-17.963l4.937 6.112z" font-size="12" fill="#c0c0c0" fill-rule="evenodd" stroke="#000"/><path d="M280.503-16.961l38.354 38.032h19.177l9.589 9.508v38.033l-67.12-66.746v-18.827zm-9.588 123.606l57.532-57.049-9.589-9.508-57.531 57.049 9.588 9.508zm0-.001v38.032l57.532-57.049v-38.032l-57.532 57.049zm47.942-85.573l57.531-57.049h19.177l-57.531 57.049h-19.177zm19.177-57.048l9.589-9.508v-19.016l-19.177 19.016 9.588 9.508zm-47.943-47.541l9.589-9.508v-19.016l-19.177 19.016 9.588 9.508z" font-size="12" fill="#ffbd03" fill-rule="evenodd" stroke="#000" stroke-miterlimit="2"/><path d="M-305.931 432.036l-7.156 3.375v17.625c5.147 7.262 11.104 14.129 17.844 20.438 6.74 6.309 13.965 11.768 21.531 16.406l4.781-5.219.219-18c-14.601-8.943-27.269-20.75-37.219-34.625z" font-size="12" fill="#c0c0c0" fill-rule="evenodd" stroke="#000"/><path d="M-273.705 471.857c-7.205-4.417-13.016-8.558-19.434-14.566-6.418-6.007-14.734-14.669-19.635-21.584" font-size="12" stroke="#000" fill="none"/><path d="M-268.983 467.023l-4.782 4.694v17.536" stroke="#000" fill="none"/><path d="M83.756 781.912a18.298 18.298 0 1 1-36.596 0 18.298 18.298 0 1 1 36.596 0z" transform="matrix(.984 0 0 .984 -371.291 -294.86)" fill="#d72b2b" stroke="#000" stroke-width="1.016" stroke-miterlimit="2"/><path d="M-202.244 230.349c-70.38 0-127.5 57.12-127.5 127.5s57.12 127.5 127.5 127.5 127.5-57.12 127.5-127.5-57.12-127.5-127.5-127.5zm-15.5 34.25c3.864 0 7 3.136 7 7 0 4.681 3.788 8.469 8.469 8.469 4.681 0 8.469-3.788 8.469-8.469 0-3.864 3.136-7 7-7 .451 0 .885.043 1.313.125 39.007 7.003 69.728 37.927 76.438 77.031.041.214.073.438.094.656.021.218.031.431.031.656 0 3.864-3.136 7-7 7-4.681 0-8.469 3.788-8.469 8.469 0 4.681 3.788 8.469 8.469 8.469 3.864 0 7 3.136 7 7 0 .225-.01.438-.031.656-.021.218-.053.443-.094.656-6.709 39.105-37.431 70.029-76.438 77.031-.427.082-.862.125-1.313.125-3.864 0-7-3.136-7-7 0-4.681-3.788-8.469-8.469-8.469-4.681 0-8.469 3.788-8.469 8.469 0 3.864-3.136 7-7 7-.451 0-.885-.043-1.313-.125-39.007-7.003-69.728-37.927-76.438-77.031-.041-.214-.073-.438-.094-.656-.021-.218-.031-.431-.031-.656 0-3.864 3.136-7 7-7 4.681 0 8.469-3.788 8.469-8.469 0-4.681-3.788-8.469-8.469-8.469-3.864 0-7-3.136-7-7 0-.225.01-.438.031-.656.021-.218.053-.443.094-.656 6.709-39.105 37.431-70.029 76.438-77.031.427-.082.862-.125 1.313-.125zm11.531-20.219c-58.624.745-110.941 53.842-109.656 112.781-.451 47.983 32.153 95.012 78.719 108.781 41.557 13.472 90.727 1.24 119.332-32.175 29.915-32.869 38.358-84.113 18.316-124.235-18.194-38.994-59.754-66.274-102.991-65.184-1.24-.008-2.479.003-3.719.031zm18.844 6.125c48.249 5.419 90.499 48.156 92.063 97.156-.468 4.313-3.764 8.024-6.406 10.875 9.422 9.262 7.647 24.24 2.475 35.202-13.083 39.245-50.45 71.348-92.756 72.361-4.394-.104-7.486-5.25-10.563-6.125-9.409 9.249-24.231 7.157-35.135 1.992-39.172-13.409-71.137-51.241-71.397-93.616.503-4.073 4.399-7.119 6.125-9.938-9.388-9.315-7.388-24.316-2.282-35.294 13.139-39.081 50.253-70.917 92.314-72.175 4.42.381 8.046 4.575 10.875 6.344 3.761-4.055 9.136-6.537 14.688-6.781z" fill="#ffbd03" stroke="#000"/><path d="M-98.516 432.036l7.156 3.375v17.625c-5.147 7.262-11.104 14.129-17.844 20.438-6.74 6.309-13.965 11.768-21.531 16.406l-4.781-5.219-.219-18c14.601-8.943 27.269-20.75 37.219-34.625z" font-size="12" fill="#c0c0c0" fill-rule="evenodd" stroke="#000"/><path d="M-130.743 471.857c7.205-4.417 13.016-8.558 19.434-14.566 6.418-6.007 14.734-14.669 19.635-21.584" font-size="12" stroke="#000" fill="none"/><path d="M-135.465 467.023l4.782 4.694v17.536" stroke="#000" fill="none"/><path d="M83.756 781.912a18.298 18.298 0 1 1-36.596 0 18.298 18.298 0 1 1 36.596 0z" transform="matrix(.984 0 0 .984 -162.627 -294.86)" fill="#d72b2b" stroke="#000" stroke-width="1.016" stroke-miterlimit="2"/><path d="M261.326-16.961l19.177-19.016v-19.016l-19.177 19.016v19.016zm-19.177-57.049v19.016l9.589-9.508-9.589-9.508zm19.177 57.049l-19.177-19.016v-19.016l19.177 19.016v19.016zm47.943-9.508l-28.766-28.525v-19.016l38.354 38.032-9.588 9.508zm-67.12 123.605l57.531-57.049h19.177l-57.531 57.049h-19.177zm38.354-152.13l-9.588-9.508 9.588-9.508v19.016zm0-76.065l19.178 19.017-19.178 19.016 9.588 9.509 19.178-19.017 38.354 38.032-19.178 19.017 9.589 9.508 19.176-19.016 19.178 19.016-57.532 57.049-38.354-38.032 19.178-19.017 9.588 9.509 9.588-9.509-38.354-38.032-9.588 9.509 9.588 9.508-19.176 19.016-19.178-19.016 9.588-9.509-9.588-9.508-38.354 38.032 9.588 9.508 9.588-9.508 19.178 19.017-19.176 19.016-9.588-9.508-9.589 9.508 38.354 38.032 9.589-9.508-9.589-9.509 19.178-19.016 38.354 38.032-57.532 57.049-19.178-19.017 19.178-19.016-9.588-9.508-19.178 19.016-38.354-38.032 19.178-19.017-9.589-9.508-19.176 19.017-19.178-19.017 134.24-133.114z" font-size="12" fill="#ffbd03" fill-rule="evenodd" stroke="#000" stroke-miterlimit="2"/><path d="M113.319 6.38c-5.886.349-11.417 5.194-11.813 11.969 9.448 2.405 21.253 14.388 23.625 23.969 6.509 0 11.952-5.51 11.813-11.969-5.131-12.38-11.793-18.383-23.625-23.969z" font-size="12" opacity=".8" fill="url(#d)" fill-rule="evenodd"/><path d="M347.622 30.58l57.532-57.049-9.589-9.508-57.531 57.049 9.588 9.508zm.001-.001v38.032l57.532-57.049v-38.032l-57.532 57.049z" font-size="12" fill="#ffbd03" fill-rule="evenodd" stroke="#000" stroke-miterlimit="2"/><path d="M113.319 6.38c-5.886.349-11.417 5.194-11.813 11.969 9.448 2.405 21.253 14.388 23.625 23.969 6.509 0 11.952-5.51 11.813-11.969-5.131-12.38-11.793-18.383-23.625-23.969z" font-size="12" fill="#c0c0c0" fill-rule="evenodd" stroke="#000" stroke-width=".895pt"/><path d="M222.972 78.12v19.016l47.942 47.541v-38.032l-9.588-9.508h-19.177l-19.177-19.016z" font-size="12" fill="#ffbd03" fill-rule="evenodd" stroke="#000"/><path d="M175.029 30.97l38.092 37.772.454 18.886-38.545-38.222v-18.436zm38.354 56.658l19.177-19.016v-19.016l-19.177 19.016v19.016zm-47.942-47.54l19.177-19.016v-19.016l-19.177 19.016v19.016zm19.177-38.033v19.016l9.589-9.508-9.589-9.508zm47.943 47.541v19.016l9.589-9.508-9.589-9.508z" font-size="12" fill="#ffbd03" fill-rule="evenodd" stroke="#000" stroke-miterlimit="2"/><path d="M146.073 2.055l19.368 19.016v19.016l-19.368-19.596v-18.436z" font-size="12" fill="#d8a002" fill-rule="evenodd" stroke="#000" stroke-miterlimit="2"/><path d="M222.972 21.071l19.177-19.016v-19.016l-19.177 19.016v19.016zm-9.589-47.54l28.766-28.525v-19.016l-38.354 38.032 9.588 9.508zm9.589 47.54l-19.177-19.016 9.589-9.508 9.588 9.508v19.016z" font-size="12" fill="#ffbd03" fill-rule="evenodd" stroke="#000" stroke-miterlimit="2"/><path d="M213.381-7.464v19.063l9.594 9.468v-19l-9.594-9.531z" opacity=".8" fill="#ffbd03" stroke="#000" stroke-miterlimit="2"/><path d="M-8.855 124.244c-11.865.345-23.443 1.853-33.094 5.781-5.117 2.08-7.58 7.914-5.5 13.031 2.08 5.117 7.914 7.58 13.031 5.5 7.521-3.061 22.619-4.658 36.969-4.313 14.35.345 28.688 2.468 34.344 4.219 3.458 1.221 7.307.452 10.03-2.005 2.723-2.457 3.883-6.207 3.023-9.772-.86-3.565-3.603-6.373-7.146-7.318-9.465-2.93-23.952-4.745-39.75-5.125-3.95-.095-7.951-.115-11.906 0zm10.282-30.532c-3.173.134-6.093 1.767-7.869 4.4-1.776 2.633-2.196 5.952-1.131 8.944 1.647 4.827 3.745 21.682 3.969 37.906.223 16.224-1.345 33.461-3.313 39.625-1.674 5.264 1.236 10.888 6.5 12.563 5.264 1.674 10.888-1.236 12.563-6.5 3.739-11.714 4.488-28.618 4.25-45.938-.238-17.32-1.387-33.413-5.031-44.094-1.386-4.272-5.45-7.097-9.938-6.906z" fill="#bb0d0d" fill-rule="evenodd" stroke="#000" stroke-linecap="round" stroke-linejoin="round"/><path d="M-170.355 427.65c-1.713-.007-3.409.105-5.063.344-8.817 1.272-16.687 8.947-18 17.25-1.313 8.303 1.138 16.326 5.281 24.938 4.143 8.611 10.345 17.775 18.375 27.156 32.118 37.524 94.353 78.969 171.906 78.969 77.554 0 139.788-41.445 171.906-78.969 8.03-9.381 14.232-18.545 18.375-27.156 4.143-8.611 6.594-16.635 5.281-24.938-1.313-8.303-9.183-15.978-18-17.25-1.653-.239-3.318-.351-5.031-.344-7.424.031-15.535 2.317-25.25 6.406-.348.146-.685.269-1.031.406 7.682 5.653 16.265 10.171 25.469 13.313 1.278-.112 2.293-.081 2.969 0 .522.063 1.069.252 1.125.594.242 1.485-.419 6.622-3.563 13.156-3.144 6.535-8.405 14.486-15.531 22.813-28.506 33.304-86.204 71.969-156.719 71.969-70.514 0-128.212-38.664-156.719-71.969-7.127-8.326-12.387-16.278-15.531-22.813s-3.781-11.667-3.563-13.156c.067-.454.656-.524 1.125-.594.746-.11 1.924-.092 3.406.063 8.861-3.321 17.097-7.92 24.469-13.594l-.469-.188c-9.715-4.089-17.794-6.375-25.219-6.406z" fill="#bb0d0d" fill-rule="evenodd" stroke="#000"/><path d="M1.048-373.209c-72.974 53.633-113.094 102.317-113.094 241.094 0 43.201 14.071 77.426 19.313 107.5 27.58-6.704 52.403-13.406 93.781-13.406 41.379 0 66.202 6.702 93.781 13.406 5.242-30.074 19.313-64.299 19.313-107.5 0-138.777-40.12-187.46-113.094-241.094z" font-size="12" fill="#fff" fill-rule="evenodd" stroke="#000"/><path d="M-7.478-437.208l2 18.946-15.202-2v18.578l15.202-2-2 33.516h17.052l-2-33.516 15.202 2v-18.578l-15.202 2 2-18.946h-17.052z" font-size="12" fill="#ffbd03" fill-rule="evenodd" stroke="#000" stroke-width=".808"/><path d="M-111.077-247.414c28.54-9.337 63.834-14.653 108.04-14.768 44.147.115 89.004 5.326 117.485 14.662l-4.058 21.441c-25.779-8.811-67.705-15.453-108.559-15.503-40.795.049-89.783 6.914-110.232 15.247-.228 1.827-2.675-21.08-2.675-21.08z" font-size="12" fill="#ffbd03" fill-rule="evenodd" stroke="#000" stroke-width="1.487" stroke-linejoin="round"/><path d="M110.315-227.732l-13.115-13.537 15.996-4.623" font-size="12" color="#000" stroke="#000" stroke-linejoin="round" overflow="visible" fill="none"/><path d="M100.18-259.55l-7.586-12.815s-7.163 8.114-16.183 6.744c-8.969-1.357-11.428-16.456-11.428-16.456s-11.871 14-20.123 13.367c-8.252-.737-12.297-6.972-12.297-6.972s-6.72 6.464-14.639 5.83c-7.919-.724-18.615-16.603-18.615-16.603s-7.019 16.241-14.938 16.965c-7.919.646-17.564-11.497-17.564-11.497s-3.575 10.316-13.646 11.996c-10.059 1.732-16.407-11.996-16.407-11.996s-4.866 15.232-11.696 17.65c-6.817 2.417-15.838-6.662-15.838-6.662l-9.594 11.135 5.391 6.153c24.666-7.2 58.071-11.673 95.858-11.712 37.838.039 72.153 4.512 96.87 11.764l2.524-6.89h-.09z" font-size="12" fill="#ffbd03" fill-rule="evenodd" stroke="#000" stroke-width=".983"/><path d="M-126.154-273.318c5.186 10.394 12.659 20.239 24.302 17.825 11.643-2.413 12.096-12.385 12.096-12.385s7.174 9.452 15.23 7.504c8.146-1.97 10.685-15.917 10.685-15.917s8.83 12.012 18.317 10.998c9.43-1.008 12.951-11.377 12.951-11.377s4.711 9.884 15.597 9.457c11.335-.445 17.146-14.891 17.146-14.891s7.965 14.811 18.046 14.799c10.071-.012 13.997-8.496 13.997-8.496s3.086 9.615 13.098 10.231c9.975.614 18.968-12.074 18.968-12.074s4.171 14.718 12.415 16.353c8.677 1.72 15.731-6.998 15.731-6.998s3.148 11.356 11.758 12.691c8.307 1.289 16.999-8.009 22.819-19.412-9.024 5.039-15.094 15.14-21.579 13.078-6.078-1.932-12.011-14.932-12.011-14.932s-8.873 10.158-16.008 7.724c-7.011-2.391-10.732-27.508-10.732-27.508s-10.481 26.321-20.276 23.643c-9.691-2.65-14.404-15.173-14.404-15.173s-3.809 13.741-14.141 14.236c-10.781.516-17.74-30.07-17.74-30.07s-8.87 30.413-17.29 30.222c-8.422-.19-16.39-14.084-16.39-14.084s-2.66 14.792-12.206 14.366c-9.576-.427-22.829-22.462-22.829-22.462s.843 26.116-6.694 28.417c-7.125 2.176-19.854-10.99-19.854-10.99s3.609 14.718-5.491 17.166c-8.953 2.408-14.425-7.351-25.512-11.943z" fill="#ffbd03" fill-rule="evenodd" stroke="#000"/><path d="M1.425-259.795c-43.009.045-81.679 5.391-109.389 13.981-1.882.631-4.18-.856-4.769-2.598-.589-1.847.747-4.13 2.571-4.76 27.868-8.905 67.501-14.522 111.587-14.567 44.029.045 83.82 5.661 111.688 14.567 1.824.631 3.16 2.913 2.571 4.76-.532 1.742-2.887 3.229-4.712 2.598-27.753-8.59-66.596-13.936-109.547-13.981z" font-size="12" fill="#ffbd03" fill-rule="evenodd" stroke="#000" stroke-linejoin="round"/><path d="M-109.37-233.192l-4.849-4.316 3.285-4.435 8.978 1.913-7.414 6.839z" font-size="12" fill="#ce1126" fill-rule="evenodd" stroke="#000" stroke-width=".905" stroke-linejoin="round"/><path d="M110.959-233.173l5.515-3.329-3.554-5.098-8.715 1.818 6.754 6.61z" font-size="12" fill="#ce1126" fill-rule="evenodd" stroke="#000" stroke-width=".789" stroke-linejoin="round"/><path d="M26.406-302.89s-15.794-.136-17.777-2.393c-2.318-2.639-2.007-6.386.496-8.514 1.934-1.739 6.502-3.665 9.477-3.123 2.975.542 6.758 1.302 7.027 4.515.228 2.717-9.011 4.661-9.011 4.661s11.781-2.173 13.595.113c2.017 2.542 3.295 6.307.641 9.643-1.962 2.466-14.672-.791-14.672-.791s11.003 2.046 9.463 7.141c-.854 2.826-6.592 4.015-10.709 3.338-4.117-.677-7.796-3.07-8.623-7.049-.839-4.034 1.163-7.197 4.314-7.536 4.046-.436 15.779-.005 15.779-.005zm-52.436.421s15.788.484 17.855-1.693c2.416-2.546 2.248-6.302-.172-8.527-1.866-1.813-6.358-3.917-9.351-3.492-2.993.425-6.802 1.036-7.194 4.235-.331 2.706 8.827 5.011 8.827 5.011s-11.69-2.634-13.59-.42c-2.112 2.461-3.532 6.173-1.008 9.611 1.866 2.541 14.691-.215 14.691-.215s-11.073 1.612-9.728 6.764c.746 2.857 6.434 4.27 10.573 3.756 4.14-.515 7.907-2.762 8.885-6.705.992-3.998-.889-7.237-4.024-7.7-4.026-.594-15.767-.624-15.767-.624zm26.267-31.054s-.477 16.031 1.668 18.13c2.507 2.454 6.206 2.283 8.397-.174 1.786-1.895 3.858-6.456 3.439-9.495-.418-3.039-1.02-6.907-4.171-7.305-2.665-.336-4.935 8.963-4.935 8.963s2.594-11.87.414-13.799c-2.423-2.144-6.079-3.587-9.465-1.023-2.503 1.895.212 14.918.212 14.918s-1.588-11.244-6.661-9.878c-2.814.757-4.206 6.533-3.699 10.736.507 4.203 2.72 8.029 6.603 9.022 3.938 1.007 7.127-.902 7.583-4.086.585-4.088.615-16.01.615-16.01z" fill="#ffbd03" fill-rule="evenodd" stroke="#000"/><path d="M353.653 670.56a5.947 10.705 0 1 1-11.894 0 5.947 10.705 0 1 1 11.894 0z" transform="matrix(1.134 .022 -.022 1.152 -379.338 -1083.227)" color="#000" fill="#ce1126" stroke="#000" stroke-width=".875" stroke-linecap="round" overflow="visible"/><path d="M92.797-292.641s-15.449-3.336-16.948-5.95c-1.752-3.056-.71-6.664 2.161-8.242 2.237-1.312 7.092-2.272 9.9-1.138 2.808 1.134 6.365 2.646 5.997 5.849-.311 2.709-9.747 2.739-9.747 2.739s11.971.26 13.299 2.868c1.476 2.899 1.988 6.848-1.269 9.579-2.407 2.019-14.221-3.751-14.221-3.751s10.379 4.236 7.868 8.916c-1.393 2.596-7.249 2.597-11.149 1.099-3.901-1.498-7.035-4.59-7.063-8.656-.029-4.123 2.556-6.816 5.709-6.51 4.05.394 15.462 3.195 15.462 3.195zm-51.463-10.223s15.374 3.677 17.828 1.962c2.869-2.004 3.443-5.719 1.509-8.39-1.472-2.155-5.459-5.128-8.475-5.319-3.016-.191-6.869-.365-7.882 2.691-.857 2.584 7.664 6.7 7.664 6.7s-10.936-4.952-13.233-3.168c-2.553 1.983-4.675 5.332-2.878 9.213 1.329 2.869 14.437 2.769 14.437 2.769s-11.167-.666-10.863 4.655c.169 2.951 5.464 5.489 9.622 5.825 4.157.335 8.291-1.103 10.025-4.768 1.759-3.717.553-7.272-2.428-8.361-3.828-1.399-15.326-3.809-15.326-3.809zm31.847-25.1s-3.621 15.611-1.932 18.103c1.974 2.913 5.632 3.496 8.262 1.532 2.123-1.495 5.05-5.543 5.238-8.606.188-3.063.359-6.975-2.65-8.003-2.545-.87-6.599 7.782-6.599 7.782s4.876-11.105 3.12-13.437c-1.953-2.593-5.251-4.747-9.073-2.922-2.825 1.349-2.727 14.66-2.727 14.66s.656-11.339-4.584-11.03c-2.906.171-5.406 5.549-5.736 9.77-.33 4.221 1.086 8.419 4.695 10.18 3.66 1.786 7.161.561 8.234-2.465 1.378-3.887 3.752-15.562 3.752-15.562z" fill="#ffbd03" fill-rule="evenodd" stroke="#000"/><path d="M353.653 670.56a5.947 10.705 0 1 1-11.894 0 5.947 10.705 0 1 1 11.894 0z" transform="matrix(1.107 .252 -.248 1.124 -151.278 -1139.545)" color="#000" fill="#058e6e" stroke="#000" stroke-width=".875" stroke-linecap="round" overflow="visible"/><path d="M-92.922-293.068s15.522-2.968 17.081-5.545c1.822-3.013.864-6.645-1.97-8.291-2.206-1.364-7.037-2.44-9.871-1.373-2.834 1.067-6.425 2.494-6.131 5.704.249 2.715 9.681 2.971 9.681 2.971s-11.974-.025-13.362 2.551c-1.543 2.864-2.145 6.799 1.047 9.606 2.36 2.075 14.303-3.412 14.303-3.412s-10.474 3.988-8.072 8.727c1.332 2.628 7.187 2.769 11.121 1.364s7.139-4.421 7.261-8.485c.124-4.122-2.398-6.875-5.557-6.644-4.058.297-15.531 2.826-15.531 2.826zm51.684-8.995s-15.455 3.31-17.869 1.537c-2.821-2.072-3.31-5.799-1.315-8.423 1.521-2.12 5.576-4.996 8.596-5.115 3.02-.119 6.875-.201 7.818 2.878.797 2.604-7.816 6.516-7.816 6.516s11.047-4.69 13.303-2.852c2.507 2.043 4.551 5.442 2.664 9.278-1.395 2.836-14.497 2.425-14.497 2.425s11.179-.4 10.752 4.912c-.237 2.946-5.589 5.358-9.753 5.594-4.164.236-8.263-1.3-9.912-5.005-1.672-3.758-.385-7.283 2.62-8.301 3.86-1.307 15.41-3.444 15.41-3.444zm-31.258-25.851s3.26 15.693 1.514 18.144c-2.041 2.865-5.711 3.361-8.296 1.335-2.088-1.545-4.921-5.662-5.038-8.728-.117-3.067-.198-6.981 2.834-7.938 2.565-.809 6.417 7.937 6.417 7.937s-4.619-11.218-2.809-13.508c2.012-2.546 5.359-4.621 9.138-2.705 2.793 1.416 2.388 14.721 2.388 14.721s-.394-11.352 4.837-10.918c2.901.24 5.276 5.676 5.509 9.904.233 4.228-1.28 8.391-4.929 10.065-3.7 1.698-7.172.391-8.175-2.661-1.288-3.919-3.392-15.647-3.392-15.647z" fill="#ffbd03" fill-rule="evenodd" stroke="#000"/><path d="M353.653 670.56a5.947 10.705 0 1 1-11.894 0 5.947 10.705 0 1 1 11.894 0z" transform="matrix(-1.113 .225 .222 1.13 170.628 -1133.931)" color="#000" fill="#058e6e" stroke="#000" stroke-width=".875" stroke-linecap="round" overflow="visible"/><path d="M105.768-287.259s13.264 8.708 16.142 7.931c3.365-.909 5.135-4.212 4.197-7.387-.673-2.532-3.445-6.692-6.223-7.901-2.778-1.209-6.349-2.687-8.314-.155-1.662 2.142 5.001 8.926 5.001 8.926s-8.662-8.395-11.415-7.499c-3.061.996-6.168 3.427-5.759 7.695.302 3.155 12.682 7.534 12.682 7.534s-10.297-4.437-11.771.678c-.818 2.837 3.33 7.035 7.135 8.769 3.805 1.734 8.174 1.79 11.02-1.07 2.886-2.901 2.927-6.66.48-8.703-3.143-2.624-13.174-8.817-13.174-8.817zm41.431-15.334c.336-4.861-1.25-7.726-5.034-5.202-3.217 2.146-7.101 14.169-7.101 14.169s4.37-10.456-.668-11.953c-2.794-.83-6.928 3.381-8.636 7.245-1.708 3.863-1.763 8.3 1.054 11.19 2.857 2.931 7.547 1.981 10.161.164 8.309-5.775 9.962-11.837 10.223-15.613z" fill="#ffbd03" fill-rule="evenodd" stroke="#000"/><path d="M353.653 670.56a5.947 10.705 0 1 1-11.894 0 5.947 10.705 0 1 1 11.894 0z" transform="matrix(.959 .615 -.606 .974 201.218 -1141.013)" fill="#ce1126" stroke="#000" stroke-width=".875" stroke-linecap="round"/><path d="M-106.178-287.477s-13.264 8.708-16.142 7.931c-3.365-.909-5.135-4.212-4.197-7.387.673-2.532 3.445-6.692 6.223-7.901 2.778-1.209 6.349-2.687 8.314-.155 1.662 2.142-5.001 8.926-5.001 8.926s8.662-8.395 11.415-7.499c3.061.996 6.168 3.427 5.759 7.695-.302 3.155-12.682 7.534-12.682 7.534s10.297-4.437 11.771.678c.818 2.837-3.33 7.035-7.135 8.769-3.805 1.734-8.174 1.79-11.02-1.07-2.886-2.901-2.927-6.66-.48-8.703 3.143-2.624 13.174-8.817 13.174-8.817zm-41.431-15.335c-.336-4.861 1.25-7.726 5.034-5.202 3.217 2.146 7.101 14.169 7.101 14.169s-4.37-10.456.668-11.953c2.794-.83 6.928 3.381 8.636 7.245 1.708 3.863 1.763 8.3-1.054 11.19-2.857 2.931-7.547 1.981-10.161.164-8.309-5.775-9.962-11.837-10.223-15.613z" fill="#ffbd03" fill-rule="evenodd" stroke="#000"/><path d="M353.653 670.56a5.947 10.705 0 1 1-11.894 0 5.947 10.705 0 1 1 11.894 0z" transform="matrix(-.959 .615 .606 .974 -201.628 -1141.231)" color="#000" fill="#ce1126" stroke="#000" stroke-width=".875" stroke-linecap="round" overflow="visible"/><path d="M490.5 295.362a7.5 7.5 0 1 1-15 0 7.5 7.5 0 1 1 15 0z" transform="matrix(.598 0 0 .607 -194.621 -456.531)" color="#000" fill="url(#e)" stroke="#000" stroke-width="1.912" stroke-linecap="round" overflow="visible"/><path d="M490.5 295.362a7.5 7.5 0 1 1-15 0 7.5 7.5 0 1 1 15 0z" transform="matrix(.684 0 0 .695 -297.919 -493.823)" color="#000" fill="url(#f)" stroke="#000" stroke-width="1.671" stroke-linecap="round" overflow="visible"/><path d="M490.5 295.362a7.5 7.5 0 1 1-15 0 7.5 7.5 0 1 1 15 0z" transform="matrix(.684 0 0 .695 -363.125 -493.176)" color="#000" fill="url(#g)" stroke="#000" stroke-width="1.671" stroke-linecap="round" overflow="visible"/><path d="M490.5 295.362a7.5 7.5 0 1 1-15 0 7.5 7.5 0 1 1 15 0z" transform="matrix(.613 0 0 .622 -390.827 -461.575)" color="#000" fill="url(#h)" stroke="#000" stroke-width="1.865" stroke-linecap="round" overflow="visible"/><path d="M.541-235.583c-41.46.045-78.739 5.391-105.451 13.981-1.814.631-4.03-.856-4.597-2.598-.568-1.847.72-4.13 2.479-4.76 26.865-8.905 65.071-14.522 107.57-14.567 42.444.045 80.802 5.661 107.667 14.567 1.759.631 3.047 2.913 2.479 4.76-.512 1.742-2.783 3.229-4.542 2.598-26.754-8.59-64.199-13.936-105.604-13.981z" font-size="12" fill="#ffbd03" fill-rule="evenodd" stroke="#000" stroke-linejoin="round"/><path d="M.452-247.94l7.869-3.351-7.229-4.367-8.41 3.857 7.769 3.861z" font-size="12" fill="#ce1126" fill-rule="evenodd" stroke="#000" stroke-width=".84" stroke-linejoin="round"/><rect width="20.261" height="5.915" rx="2.695" ry="2.695" x="-37.304" y="-256.044" transform="matrix(.993 -.122 .129 .992 0 0)" color="#000" fill="#058e6e" stroke="#000" stroke-width=".705" stroke-linejoin="round" overflow="visible"/><rect width="28.074" height="11.388" rx="4.744" ry="3.961" x="-42.649" y="-258.82" transform="matrix(.992 -.127 .124 .992 0 0)" color="#000" stroke="#000" stroke-width=".768" stroke-linecap="round" stroke-linejoin="round" overflow="visible" fill="none"/><rect width="20.186" height="6.146" rx="2.695" ry="2.695" x="-37.504" y="-256.328" transform="matrix(-.992 -.127 -.124 .992 0 0)" color="#000" fill="#058e6e" stroke="#000" stroke-width=".717" stroke-linejoin="round" overflow="visible"/><rect width="28.074" height="11.388" rx="4.586" ry="3.961" x="-41.666" y="-259.023" transform="matrix(-.992 -.127 -.124 .992 0 0)" color="#000" stroke="#000" stroke-width=".768" stroke-linejoin="round" overflow="visible" fill="none"/><path d="M.469-243.688l16.027-7.534-14.933-8.357-16.88 7.438 15.786 8.454zm-108.99 15.338l14.119-13.348-16.392-4.327" font-size="12" stroke="#000" stroke-linecap="round" stroke-linejoin="round" fill="none"/><path d="M293.244 407.842a1.962 1.962 0 1 1-3.925 0 1.962 1.962 0 1 1 3.925 0z" transform="matrix(0 1.152 -1.135 0 491.541 -589.576)" color="#000" stroke="#000" stroke-width=".672" stroke-linejoin="round" overflow="visible" fill="none"/><path d="M293.244 407.842a1.962 1.962 0 1 1-3.925 0 1.962 1.962 0 1 1 3.925 0z" transform="matrix(0 1.152 -1.135 0 491.541 -583.124)" color="#000" stroke="#000" stroke-width=".672" stroke-linejoin="round" overflow="visible" fill="none"/><path d="M293.244 407.842a1.962 1.962 0 1 1-3.925 0 1.962 1.962 0 1 1 3.925 0z" transform="matrix(0 1.152 -1.135 0 432.607 -589.262)" color="#000" stroke="#000" stroke-width=".672" stroke-linejoin="round" overflow="visible" fill="none"/><path d="M293.244 407.842a1.962 1.962 0 1 1-3.925 0 1.962 1.962 0 1 1 3.925 0z" transform="matrix(0 1.152 -1.135 0 432.607 -582.811)" color="#000" stroke="#000" stroke-width=".672" stroke-linejoin="round" overflow="visible" fill="none"/><path d="M293.244 407.842a1.962 1.962 0 1 1-3.925 0 1.962 1.962 0 1 1 3.925 0z" transform="matrix(-.182 1.137 -1.12 -.185 596.175 -502.255)" color="#000" stroke="#000" stroke-width=".672" stroke-linejoin="round" overflow="visible" fill="none"/><path d="M293.244 407.842a1.962 1.962 0 1 1-3.925 0 1.962 1.962 0 1 1 3.925 0z" transform="matrix(-.182 1.137 -1.12 -.185 595.156 -495.887)" color="#000" stroke="#000" stroke-width=".672" stroke-linejoin="round" overflow="visible" fill="none"/><path d="M293.244 407.842a1.962 1.962 0 1 1-3.925 0 1.962 1.962 0 1 1 3.925 0z" transform="matrix(.182 1.137 1.12 -.185 -594.065 -502.235)" color="#000" stroke="#000" stroke-width=".672" stroke-linejoin="round" overflow="visible" fill="none"/><path d="M293.244 407.842a1.962 1.962 0 1 1-3.925 0 1.962 1.962 0 1 1 3.925 0z" transform="matrix(.182 1.137 1.12 -.185 -593.046 -495.867)" color="#000" stroke="#000" stroke-width=".672" stroke-linejoin="round" overflow="visible" fill="none"/><path d="M-96.844-33.772c25.07-8.201 56.072-12.871 94.902-12.973 38.778.101 78.181 4.678 103.199 12.879l-3.565 18.834c-22.645-7.739-59.472-13.574-95.358-13.617-35.834.043-78.866 6.073-96.828 13.393-.201 1.605-2.35-18.517-2.35-18.517z" font-size="12" fill="#ffbd03" fill-rule="evenodd" stroke="#000" stroke-width="1.487" stroke-linejoin="round"/><path d="M88.725-44.433l-6.663-11.257s-6.292 7.127-14.216 5.924c-7.879-1.192-10.039-14.455-10.039-14.455s-10.427 12.298-17.676 11.741c-7.248-.647-10.802-6.124-10.802-6.124s-5.903 5.678-12.859 5.121c-6.956-.636-16.351-14.584-16.351-14.584s-6.166 14.266-13.121 14.902c-6.956.568-15.428-10.099-15.428-10.099s-3.14 9.061-11.987 10.538c-8.836 1.522-14.412-10.538-14.412-10.538s-4.275 13.38-10.274 15.504c-5.988 2.123-13.912-5.852-13.912-5.852l-8.427 9.781 4.736 5.405c21.667-6.325 51.01-10.254 84.202-10.288 33.237.034 63.379 3.963 85.091 10.333l2.217-6.052h-.079z" font-size="12" fill="#ffbd03" fill-rule="evenodd" stroke="#000" stroke-width=".983"/><path d="M-110.087-56.527c4.556 9.13 11.12 17.778 21.347 15.658 10.227-2.12 10.625-10.879 10.625-10.879s6.301 8.302 13.378 6.591c7.156-1.73 9.386-13.982 9.386-13.982s7.756 10.552 16.09 9.661c8.283-.886 11.376-9.993 11.376-9.993s4.138 8.682 13.7 8.307c9.956-.391 15.061-13.08 15.061-13.08s6.996 13.01 15.852 12.999c8.846-.01 12.295-7.463 12.295-7.463s2.711 8.446 11.505 8.987c8.762.54 16.662-10.606 16.662-10.606s3.664 12.928 10.905 14.364c7.622 1.511 13.818-6.147 13.818-6.147s2.765 9.975 10.328 11.148c7.297 1.132 14.932-7.035 20.044-17.052-7.927 4.427-13.258 13.299-18.955 11.488-5.339-1.697-10.551-13.116-10.551-13.116s-7.794 8.923-14.061 6.785c-6.158-2.101-9.427-24.163-9.427-24.163s-9.207 23.121-17.81 20.768c-8.512-2.328-12.652-13.328-12.652-13.328s-3.346 12.07-12.421 12.505c-9.47.454-15.583-26.414-15.583-26.414s-7.791 26.715-15.187 26.547c-7.398-.167-14.397-12.371-14.397-12.371s-2.336 12.993-10.722 12.619c-8.412-.375-20.053-19.731-20.053-19.731s.74 22.94-5.88 24.961c-6.259 1.911-17.44-9.654-17.44-9.654s3.17 12.928-4.824 15.078c-7.865 2.115-12.671-6.457-22.41-10.491z" fill="#ffbd03" fill-rule="evenodd" stroke="#000"/><path d="M1.978-44.649c-37.779.04-71.747 4.736-96.088 12.281-1.653.554-3.672-.752-4.189-2.282-.517-1.623.656-3.628 2.259-4.182 24.479-7.822 59.293-12.756 98.018-12.795 38.675.04 73.627 4.973 98.107 12.795 1.603.554 2.776 2.559 2.259 4.182-.467 1.53-2.536 2.836-4.139 2.282-24.378-7.545-58.498-12.241-96.227-12.281z" font-size="12" fill="#ffbd03" fill-rule="evenodd" stroke="#000" stroke-linejoin="round"/><path d="M23.922-82.503s-13.874-.119-15.615-2.102c-2.036-2.318-1.763-5.609.436-7.478 1.699-1.527 5.711-3.219 8.324-2.743 2.613.476 5.936 1.144 6.173 3.966.2 2.387-7.916 4.094-7.916 4.094s10.349-1.909 11.942.1c1.771 2.233 2.894 5.54.563 8.47-1.723 2.166-12.888-.695-12.888-.695s9.665 1.797 8.313 6.273c-.75 2.482-5.79 3.527-9.406 2.932-3.616-.594-6.848-2.697-7.575-6.192-.737-3.544 1.022-6.322 3.789-6.62 3.554-.383 13.86-.005 13.86-.005zm-46.06.37s13.868.425 15.684-1.487c2.123-2.236 1.975-5.536-.151-7.49-1.639-1.593-5.585-3.441-8.214-3.068-2.629.373-5.975.91-6.319 3.72-.291 2.377 7.754 4.402 7.754 4.402s-10.268-2.314-11.937-.369c-1.855 2.161-3.103 5.423-.885 8.442 1.64 2.232 12.905-.189 12.905-.189s-9.727 1.416-8.545 5.942c.655 2.51 5.652 3.751 9.288 3.299 3.636-.452 6.945-2.426 7.805-5.89.871-3.512-.781-6.357-3.534-6.764-3.537-.522-13.849-.549-13.849-.549zm23.074-27.278s-.419 14.082 1.465 15.926c2.202 2.155 5.452 2.005 7.376-.153 1.569-1.665 3.389-5.671 3.021-8.34-.367-2.67-.896-6.067-3.664-6.416-2.341-.295-4.335 7.873-4.335 7.873s2.279-10.427.364-12.121c-2.129-1.884-5.34-3.151-8.314-.899-2.198 1.665.186 13.104.186 13.104s-1.395-9.876-5.851-8.677c-2.472.665-3.694 5.739-3.249 9.431.445 3.692 2.39 7.053 5.8 7.925 3.459.885 6.261-.793 6.661-3.589.514-3.591.54-14.063.54-14.063z" fill="#ffbd03" fill-rule="evenodd" stroke="#000"/><path d="M353.653 670.56a5.947 10.705 0 1 1-11.894 0 5.947 10.705 0 1 1 11.894 0z" transform="matrix(.996 .02 -.019 1.012 -332.485 -767.954)" color="#000" fill="#ce1126" stroke="#000" stroke-width=".996" stroke-linecap="round" overflow="visible"/><path d="M82.24-73.5s-13.571-2.93-14.887-5.226c-1.539-2.684-.624-5.854 1.898-7.239 1.965-1.152 6.23-1.996 8.696-1 2.467.996 5.591 2.325 5.268 5.138-.273 2.379-8.561 2.406-8.561 2.406s10.516.228 11.682 2.52c1.297 2.547 1.746 6.016-1.114 8.414-2.115 1.773-12.492-3.295-12.492-3.295s9.117 3.721 6.911 7.832c-1.223 2.28-6.367 2.281-9.794.965-3.426-1.316-6.179-4.032-6.204-7.603-.025-3.622 2.245-5.987 5.015-5.718 3.558.346 13.582 2.806 13.582 2.806zm-45.205-8.98s13.505 3.23 15.66 1.723c2.52-1.761 3.024-5.024 1.325-7.37-1.293-1.893-4.795-4.504-7.445-4.672-2.65-.168-6.034-.32-6.923 2.364-.753 2.27 6.732 5.886 6.732 5.886s-9.606-4.35-11.624-2.783c-2.243 1.742-4.107 4.684-2.528 8.092 1.167 2.52 12.682 2.432 12.682 2.432s-9.809-.585-9.542 4.089c.148 2.592 4.8 4.822 8.452 5.116 3.652.295 7.283-.969 8.806-4.188 1.545-3.265.486-6.387-2.133-7.344-3.363-1.229-13.462-3.346-13.462-3.346zm27.975-22.048s-3.18 13.713-1.697 15.902c1.734 2.559 4.947 3.071 7.258 1.346 1.865-1.313 4.436-4.869 4.601-7.56.165-2.691.315-6.127-2.328-7.03-2.236-.764-5.796 6.836-5.796 6.836s4.284-9.754 2.74-11.803c-1.715-2.277-4.613-4.17-7.969-2.567-2.482 1.185-2.395 12.877-2.395 12.877s.576-9.96-4.027-9.689c-2.553.151-4.749 4.874-5.039 8.582-.29 3.708.954 7.395 4.125 8.942 3.215 1.569 6.29.493 7.233-2.166 1.21-3.415 3.295-13.67 3.295-13.67z" fill="#ffbd03" fill-rule="evenodd" stroke="#000"/><path d="M353.653 670.56a5.947 10.705 0 1 1-11.894 0 5.947 10.705 0 1 1 11.894 0z" transform="matrix(.973 .221 -.218 .987 -132.157 -817.423)" color="#000" fill="#058e6e" stroke="#000" stroke-width=".996" stroke-linecap="round" overflow="visible"/><path d="M-80.896-73.875s13.635-2.607 15.004-4.871c1.601-2.647.759-5.837-1.731-7.283-1.938-1.199-6.182-2.144-8.671-1.206-2.489.937-5.644 2.191-5.385 5.011.218 2.385 8.504 2.609 8.504 2.609s-10.518-.022-11.737 2.241c-1.355 2.515-1.884 5.972.92 8.438 2.073 1.823 12.564-2.997 12.564-2.997s-9.201 3.503-7.09 7.665c1.17 2.309 6.313 2.432 9.769 1.198 3.456-1.234 6.271-3.884 6.378-7.453.109-3.62-2.106-6.039-4.882-5.836-3.565.261-13.643 2.483-13.643 2.483zm45.399-7.901s-13.576 2.907-15.696 1.35c-2.478-1.82-2.907-5.094-1.155-7.399 1.336-1.862 4.898-4.389 7.551-4.493 2.653-.105 6.039-.177 6.867 2.528.7 2.287-6.866 5.724-6.866 5.724s9.704-4.12 11.685-2.505c2.202 1.794 3.998 4.78 2.34 8.15-1.225 2.491-12.735 2.13-12.735 2.13s9.82-.351 9.445 4.315c-.208 2.588-4.91 4.706-8.567 4.914-3.658.208-7.258-1.142-8.707-4.396-1.469-3.301-.338-6.397 2.302-7.291 3.39-1.148 13.536-3.025 13.536-3.025zm-27.458-22.708s2.863 13.785 1.33 15.938c-1.792 2.517-5.017 2.952-7.287 1.173-1.834-1.357-4.322-4.973-4.425-7.667-.103-2.694-.174-6.133 2.49-6.973 2.253-.711 5.637 6.972 5.637 6.972s-4.057-9.854-2.467-11.865c1.767-2.236 4.708-4.059 8.027-2.376 2.454 1.244 2.098 12.931 2.098 12.931s-.346-9.971 4.249-9.59c2.549.211 4.635 4.985 4.839 8.699.204 3.714-1.125 7.37-4.33 8.841-3.251 1.492-6.3.343-7.181-2.337-1.131-3.443-2.979-13.745-2.979-13.745z" fill="#ffbd03" fill-rule="evenodd" stroke="#000"/><path d="M353.653 670.56a5.947 10.705 0 1 1-11.894 0 5.947 10.705 0 1 1 11.894 0z" transform="matrix(-.977 .198 .195 .992 150.606 -812.492)" color="#000" fill="#058e6e" stroke="#000" stroke-width=".996" stroke-linecap="round" overflow="visible"/><path d="M490.5 295.362a7.5 7.5 0 1 1-15 0 7.5 7.5 0 1 1 15 0z" transform="matrix(.601 0 0 .61 -260.967 -250.219)" color="#000" fill="url(#i)" stroke="#000" stroke-width="1.902" stroke-linecap="round" overflow="visible"/><path d="M490.5 295.362a7.5 7.5 0 1 1-15 0 7.5 7.5 0 1 1 15 0z" transform="matrix(.601 0 0 .61 -318.243 -249.651)" color="#000" fill="url(#j)" stroke="#000" stroke-width="1.902" stroke-linecap="round" overflow="visible"/><path d="M1.202-23.38c-36.419.04-69.164 4.736-92.629 12.281-1.593.554-3.54-.752-4.038-2.282-.499-1.623.633-3.628 2.177-4.182 23.598-7.822 57.159-12.756 94.49-12.795 37.283.04 70.977 4.973 94.575 12.795 1.545.554 2.676 2.559 2.177 4.182-.45 1.53-2.445 2.836-3.99 2.282-23.501-7.545-56.392-12.241-92.763-12.281z" font-size="12" fill="#ffbd03" fill-rule="evenodd" stroke="#000" stroke-linejoin="round"/><path d="M1.124-34.234l6.913-2.944-6.35-3.836-7.388 3.388 6.825 3.392z" font-size="12" fill="#ce1126" fill-rule="evenodd" stroke="#000" stroke-width=".84" stroke-linejoin="round"/><rect width="17.797" height="5.195" rx="2.367" ry="2.367" x="-55.744" y="-42.634" transform="matrix(.993 -.122 .129 .992 0 0)" color="#000" fill="#058e6e" stroke="#000" stroke-width=".705" stroke-linejoin="round" overflow="visible"/><rect width="24.66" height="10.003" rx="4.167" ry="3.479" x="-59.446" y="-45.195" transform="matrix(.992 -.127 .124 .992 0 0)" color="#000" stroke="#000" stroke-width=".768" stroke-linecap="round" stroke-linejoin="round" overflow="visible" fill="none"/><rect width="17.731" height="5.399" rx="2.368" ry="2.368" x="-56.369" y="-43.191" transform="matrix(-.992 -.127 -.124 .992 0 0)" color="#000" fill="#058e6e" stroke="#000" stroke-width=".717" stroke-linejoin="round" overflow="visible"/><rect width="24.66" height="10.003" rx="4.028" ry="3.479" x="-60.025" y="-45.558" transform="matrix(-.992 -.127 -.124 .992 0 0)" color="#000" stroke="#000" stroke-width=".768" stroke-linejoin="round" overflow="visible" fill="none"/><path d="M1.139-30.5l14.078-6.618-13.117-7.341-14.827 6.533 13.866 7.426z" font-size="12" stroke="#000" stroke-linecap="round" stroke-linejoin="round" fill="none"/><path d="M293.244 407.842a1.962 1.962 0 1 1-3.925 0 1.962 1.962 0 1 1 3.925 0z" transform="matrix(0 1.012 -.997 0 432.498 -334.329)" color="#000" stroke="#000" stroke-width=".765" stroke-linejoin="round" overflow="visible" fill="none"/><path d="M293.244 407.842a1.962 1.962 0 1 1-3.925 0 1.962 1.962 0 1 1 3.925 0z" transform="matrix(0 1.012 -.997 0 432.498 -328.662)" color="#000" stroke="#000" stroke-width=".765" stroke-linejoin="round" overflow="visible" fill="none"/><path d="M293.244 407.842a1.962 1.962 0 1 1-3.925 0 1.962 1.962 0 1 1 3.925 0z" transform="matrix(0 1.012 -.997 0 380.73 -334.053)" color="#000" stroke="#000" stroke-width=".765" stroke-linejoin="round" overflow="visible" fill="none"/><path d="M293.244 407.842a1.962 1.962 0 1 1-3.925 0 1.962 1.962 0 1 1 3.925 0z" transform="matrix(0 1.012 -.997 0 380.73 -328.386)" color="#000" stroke="#000" stroke-width=".765" stroke-linejoin="round" overflow="visible" fill="none"/><path d="M293.244 407.842a1.962 1.962 0 1 1-3.925 0 1.962 1.962 0 1 1 3.925 0z" transform="matrix(.16 .999 .984 -.162 -521.102 -257.608)" color="#000" stroke="#000" stroke-width=".765" stroke-linejoin="round" overflow="visible" fill="none"/><path d="M293.244 407.842a1.962 1.962 0 1 1-3.925 0 1.962 1.962 0 1 1 3.925 0z" transform="matrix(.16 .999 .984 -.162 -520.207 -252.015)" color="#000" stroke="#000" stroke-width=".765" stroke-linejoin="round" overflow="visible" fill="none"/><path d="M-115.892-132.561c29.973-9.805 67.039-15.389 113.464-15.51 46.363.121 93.472 5.593 123.384 15.398l-4.262 22.518c-27.073-9.253-71.104-16.229-114.009-16.281-42.843.052-94.291 7.261-115.766 16.013-.24 1.919-2.809-22.139-2.809-22.139z" font-size="12" fill="#ffbd03" fill-rule="evenodd" stroke="#000" stroke-width="1.487" stroke-linejoin="round"/><path d="M105.97-145.306l-7.966-13.459s-7.522 8.521-16.996 7.082c-9.42-1.425-12.002-17.282-12.002-17.282s-12.467 14.703-21.133 14.038c-8.666-.774-12.914-7.322-12.914-7.322s-7.058 6.788-15.374 6.123c-8.316-.76-19.549-17.436-19.549-17.436s-7.372 17.056-15.688 17.816c-8.316.679-18.446-12.074-18.446-12.074s-3.754 10.834-14.332 12.599c-10.564 1.819-17.231-12.599-17.231-12.599s-5.111 15.997-12.283 18.536c-7.159 2.539-16.633-6.996-16.633-6.996l-10.076 11.694 5.662 6.462c25.904-7.562 60.986-12.259 100.671-12.3 39.738.041 75.775 4.738 101.734 12.354l2.651-7.236h-.094z" font-size="12" fill="#ffbd03" fill-rule="evenodd" stroke="#000" stroke-width=".983"/><path d="M-131.726-159.765c5.447 10.916 13.295 21.255 25.522 18.72 12.227-2.534 12.704-13.007 12.704-13.007s7.534 9.926 15.995 7.881c8.555-2.068 11.222-16.716 11.222-16.716s9.273 12.615 19.237 11.55c9.903-1.059 13.601-11.948 13.601-11.948s4.948 10.381 16.38 9.932c11.904-.467 18.007-15.638 18.007-15.638s8.365 15.554 18.952 15.542c10.576-.012 14.7-8.922 14.7-8.922s3.241 10.097 13.755 10.745c10.476.645 19.921-12.68 19.921-12.68s4.38 15.457 13.038 17.174c9.112 1.807 16.521-7.349 16.521-7.349s3.306 11.926 12.348 13.329c8.724 1.353 17.852-8.411 23.965-20.387-9.477 5.292-15.851 15.9-22.663 13.735-6.383-2.029-12.614-15.681-12.614-15.681s-9.318 10.668-16.811 8.112c-7.363-2.511-11.271-28.889-11.271-28.889s-11.007 27.643-21.294 24.83c-10.177-2.783-15.127-15.935-15.127-15.935s-4 14.431-14.851 14.95c-11.322.542-18.63-31.58-18.63-31.58s-9.315 31.939-18.158 31.74c-8.845-.2-17.213-14.791-17.213-14.791s-2.793 15.534-12.819 15.088c-10.057-.448-23.975-23.59-23.975-23.59s.885 27.427-7.03 29.843c-7.483 2.285-20.851-11.542-20.851-11.542s3.79 15.457-5.767 18.027c-9.403 2.529-15.149-7.72-26.793-12.543z" fill="#ffbd03" fill-rule="evenodd" stroke="#000"/><path d="M2.258-145.564c-45.168.047-85.78 5.662-114.881 14.683-1.976.662-4.39-.899-5.009-2.728-.619-1.94.784-4.337 2.7-4.999 29.267-9.352 70.89-15.251 117.189-15.298 46.239.047 88.028 5.946 117.295 15.298 1.916.662 3.319 3.06 2.7 4.999-.558 1.829-3.032 3.391-4.948 2.728-29.146-9.021-69.939-14.636-115.047-14.683z" font-size="12" fill="#ffbd03" fill-rule="evenodd" stroke="#000" stroke-linejoin="round"/><path d="M28.493-190.822s-16.587-.142-18.67-2.513c-2.434-2.771-2.108-6.706.521-8.941 2.031-1.826 6.828-3.849 9.953-3.28 3.124.569 7.097 1.367 7.38 4.741.239 2.854-9.464 4.895-9.464 4.895s12.373-2.282 14.278.119c2.118 2.669 3.46 6.624.673 10.127-2.06 2.59-15.409-.831-15.409-.831s11.556 2.148 9.939 7.499c-.897 2.968-6.923 4.216-11.246 3.506-4.324-.711-8.187-3.225-9.056-7.403-.881-4.237 1.222-7.558 4.53-7.915 4.249-.458 16.571-.006 16.571-.006zm-55.069.442s16.58.509 18.751-1.778c2.538-2.674 2.361-6.618-.18-8.955-1.96-1.904-6.677-4.114-9.82-3.668-3.143.446-7.144 1.088-7.555 4.448-.348 2.842 9.27 5.263 9.27 5.263s-12.277-2.766-14.272-.441c-2.218 2.584-3.71 6.483-1.058 10.093 1.96 2.669 15.429-.226 15.429-.226s-11.629 1.693-10.217 7.104c.783 3.001 6.757 4.485 11.104 3.944 4.347-.54 8.304-2.901 9.331-7.042 1.042-4.199-.933-7.601-4.226-8.086-4.229-.624-16.558-.656-16.558-.656zm27.586-32.613s-.501 16.836 1.751 19.04c2.633 2.577 6.518 2.398 8.819-.183 1.876-1.99 4.051-6.78 3.612-9.972-.439-3.192-1.071-7.254-4.381-7.671-2.799-.353-5.183 9.413-5.183 9.413s2.724-12.466.435-14.492c-2.545-2.252-6.385-3.767-9.94-1.075-2.628 1.99.222 15.667.222 15.667s-1.667-11.808-6.996-10.374c-2.955.795-4.417 6.861-3.885 11.275.532 4.414 2.857 8.432 6.935 9.475 4.135 1.058 7.485-.948 7.964-4.291.615-4.294.646-16.813.646-16.813z" fill="#ffbd03" fill-rule="evenodd" stroke="#000"/><path d="M353.653 670.56a5.947 10.705 0 1 1-11.894 0 5.947 10.705 0 1 1 11.894 0z" transform="matrix(1.191 .023 -.023 1.21 -397.621 -1010.337)" color="#000" fill="#ce1126" stroke="#000" stroke-width=".833" stroke-linecap="round" overflow="visible"/><path d="M98.217-180.059s-16.225-3.504-17.799-6.249c-1.84-3.209-.746-6.998 2.269-8.655 2.349-1.377 7.448-2.386 10.397-1.195s6.685 2.779 6.299 6.142c-.327 2.845-10.236 2.877-10.236 2.877s12.572.273 13.967 3.012c1.55 3.045 2.088 7.192-1.332 10.06-2.528 2.12-14.935-3.939-14.935-3.939s10.9 4.449 8.263 9.364c-1.463 2.726-7.612 2.727-11.709 1.154-4.097-1.573-7.388-4.82-7.418-9.09-.03-4.33 2.684-7.158 5.996-6.836 4.254.413 16.238 3.355 16.238 3.355zm-54.046-10.735s16.146 3.861 18.723 2.06c3.013-2.105 3.615-6.006 1.585-8.811-1.546-2.264-5.733-5.385-8.901-5.586-3.168-.2-7.214-.383-8.278 2.826-.9 2.714 8.048 7.037 8.048 7.037s-11.485-5.2-13.897-3.327c-2.682 2.082-4.91 5.6-3.022 9.675 1.396 3.013 15.162 2.908 15.162 2.908s-11.728-.699-11.408 4.888c.177 3.099 5.739 5.765 10.105 6.117 4.366.352 8.707-1.158 10.528-5.007 1.847-3.903.581-7.637-2.55-8.781-4.021-1.469-16.095-4.001-16.095-4.001zm33.445-26.361s-3.803 16.395-2.029 19.012c2.073 3.059 5.915 3.671 8.677 1.609 2.229-1.57 5.303-5.822 5.501-9.038.197-3.217.377-7.325-2.783-8.405-2.673-.914-6.93 8.173-6.93 8.173s5.121-11.662 3.276-14.112c-2.051-2.723-5.515-4.986-9.528-3.069-2.967 1.417-2.864 15.396-2.864 15.396s.689-11.908-4.814-11.584c-3.052.18-5.677 5.827-6.024 10.26-.347 4.433 1.141 8.841 4.931 10.691 3.844 1.875 7.521.59 8.647-2.589 1.447-4.083 3.94-16.344 3.94-16.344z" fill="#ffbd03" fill-rule="evenodd" stroke="#000"/><path d="M353.653 670.56a5.947 10.705 0 1 1-11.894 0 5.947 10.705 0 1 1 11.894 0z" transform="matrix(1.163 .265 -.261 1.181 -158.112 -1069.482)" color="#000" fill="#058e6e" stroke="#000" stroke-width=".833" stroke-linecap="round" overflow="visible"/><path d="M-96.826-180.507s16.301-3.117 17.938-5.823c1.914-3.164.907-6.979-2.069-8.707-2.317-1.433-7.391-2.563-10.367-1.442-2.976 1.121-6.747 2.619-6.439 5.991.261 2.852 10.167 3.12 10.167 3.12s-12.575-.026-14.033 2.679c-1.62 3.007-2.253 7.14 1.1 10.088 2.479 2.179 15.022-3.583 15.022-3.583s-11 4.188-8.477 9.165c1.399 2.76 7.547 2.908 11.679 1.433 4.132-1.475 7.497-4.643 7.625-8.911.13-4.328-2.518-7.22-5.836-6.977-4.262.312-16.311 2.968-16.311 2.968zm54.278-9.446s-16.231 3.476-18.766 1.614c-2.963-2.176-3.476-6.091-1.381-8.846 1.598-2.226 5.856-5.247 9.027-5.372 3.172-.125 7.221-.211 8.21 3.022.837 2.735-8.209 6.843-8.209 6.843s11.602-4.926 13.97-2.995c2.633 2.145 4.78 5.715 2.798 9.744-1.465 2.979-15.225 2.546-15.225 2.546s11.741-.42 11.292 5.159c-.249 3.094-5.87 5.627-10.243 5.875-4.373.248-8.678-1.365-10.41-5.256-1.756-3.946-.404-7.648 2.752-8.717 4.053-1.373 16.183-3.617 16.183-3.617zm-32.827-27.15s3.423 16.481 1.59 19.055c-2.143 3.009-5.998 3.529-8.712 1.402-2.192-1.622-5.168-5.946-5.291-9.167-.123-3.221-.208-7.332 2.976-8.337 2.693-.85 6.74 8.335 6.74 8.335s-4.851-11.781-2.95-14.186c2.113-2.673 5.629-4.853 9.596-2.841 2.933 1.487 2.508 15.46 2.508 15.46s-.414-11.922 5.08-11.466c3.047.253 5.541 5.961 5.786 10.401.244 4.44-1.344 8.812-5.177 10.57-3.886 1.783-7.532.41-8.585-2.794-1.352-4.116-3.562-16.433-3.562-16.433z" fill="#ffbd03" fill-rule="evenodd" stroke="#000"/><path d="M353.653 670.56a5.947 10.705 0 1 1-11.894 0 5.947 10.705 0 1 1 11.894 0z" transform="matrix(-1.168 .237 .233 1.187 179.956 -1063.586)" color="#000" fill="#058e6e" stroke="#000" stroke-width=".833" stroke-linecap="round" overflow="visible"/><path d="M111.84-174.406s13.93 9.146 16.953 8.329c3.534-.955 5.393-4.423 4.408-7.758-.707-2.659-3.618-7.028-6.535-8.298-2.917-1.27-6.668-2.822-8.732-.162-1.746 2.249 5.252 9.374 5.252 9.374s-9.097-8.817-11.989-7.875c-3.215 1.046-6.478 3.599-6.048 8.081.318 3.314 13.319 7.912 13.319 7.912s-10.814-4.66-12.362.712c-.859 2.979 3.497 7.388 7.493 9.209 3.996 1.821 8.584 1.88 11.573-1.124 3.031-3.046 3.074-6.995.504-9.14-3.301-2.756-13.836-9.26-13.836-9.26zm43.511-16.105c.353-5.105-1.313-8.114-5.286-5.463-3.378 2.254-7.458 14.881-7.458 14.881s4.589-10.981-.701-12.553c-2.934-.872-7.276 3.551-9.069 7.609-1.794 4.057-1.851 8.717 1.107 11.752 3 3.078 7.926 2.081 10.672.173 8.727-6.065 10.462-12.431 10.736-16.397z" fill="#ffbd03" fill-rule="evenodd" stroke="#000"/><path d="M353.653 670.56a5.947 10.705 0 1 1-11.894 0 5.947 10.705 0 1 1 11.894 0z" transform="matrix(1.008 .646 -.636 1.023 212.082 -1071.024)" fill="#ce1126" stroke="#000" stroke-width=".833" stroke-linecap="round"/><path d="M-110.747-174.636s-13.93 9.146-16.953 8.329c-3.534-.955-5.393-4.423-4.408-7.758.707-2.659 3.618-7.028 6.535-8.298 2.917-1.27 6.668-2.822 8.732-.162 1.746 2.249-5.252 9.374-5.252 9.374s9.097-8.817 11.989-7.875c3.215 1.046 6.478 3.599 6.048 8.081-.318 3.314-13.319 7.912-13.319 7.912s10.814-4.66 12.362.712c.859 2.979-3.497 7.388-7.493 9.209-3.996 1.821-8.584 1.88-11.573-1.124-3.031-3.046-3.074-6.995-.504-9.14 3.301-2.756 13.836-9.26 13.836-9.26zm-43.511-16.104c-.353-5.105 1.313-8.114 5.286-5.463 3.378 2.254 7.458 14.881 7.458 14.881s-4.589-10.981.701-12.553c2.934-.872 7.276 3.551 9.069 7.609 1.794 4.057 1.851 8.717-1.107 11.752-3 3.078-7.926 2.081-10.672.173-8.727-6.065-10.462-12.431-10.736-16.397z" fill="#ffbd03" fill-rule="evenodd" stroke="#000"/><path d="M353.653 670.56a5.947 10.705 0 1 1-11.894 0 5.947 10.705 0 1 1 11.894 0z" transform="matrix(-1.008 .646 .636 1.023 -210.99 -1071.253)" color="#000" fill="#ce1126" stroke="#000" stroke-width=".833" stroke-linecap="round" overflow="visible"/><path d="M490.5 295.362a7.5 7.5 0 1 1-15 0 7.5 7.5 0 1 1 15 0z" transform="matrix(.628 0 0 .637 -203.631 -352.177)" color="#000" fill="url(#k)" stroke="#000" stroke-width="1.821" stroke-linecap="round" overflow="visible"/><path d="M490.5 295.362a7.5 7.5 0 1 1-15 0 7.5 7.5 0 1 1 15 0z" transform="matrix(.718 0 0 .729 -312.115 -391.341)" color="#000" fill="url(#l)" stroke="#000" stroke-width="1.591" stroke-linecap="round" overflow="visible"/><path d="M490.5 295.362a7.5 7.5 0 1 1-15 0 7.5 7.5 0 1 1 15 0z" transform="matrix(.718 0 0 .729 -380.594 -390.661)" color="#000" fill="url(#m)" stroke="#000" stroke-width="1.591" stroke-linecap="round" overflow="visible"/><path d="M490.5 295.362a7.5 7.5 0 1 1-15 0 7.5 7.5 0 1 1 15 0z" transform="matrix(.644 0 0 .654 -409.688 -357.474)" color="#000" fill="url(#n)" stroke="#000" stroke-width="1.776" stroke-linecap="round" overflow="visible"/><path d="M1.329-120.136c-43.542.047-82.692 5.662-110.746 14.683-1.905.662-4.232-.899-4.828-2.728-.596-1.94.756-4.337 2.603-4.999 28.214-9.352 68.338-15.251 112.971-15.298 44.575.047 84.859 5.946 113.072 15.298 1.847.662 3.199 3.06 2.603 4.999-.538 1.829-2.923 3.391-4.77 2.728-28.097-9.021-67.422-14.636-110.906-14.683z" font-size="12" fill="#ffbd03" fill-rule="evenodd" stroke="#000" stroke-linejoin="round"/><path d="M1.236-133.113l8.265-3.52-7.591-4.586-8.832 4.051 8.159 4.055z" font-size="12" fill="#ce1126" fill-rule="evenodd" stroke="#000" stroke-width=".84" stroke-linejoin="round"/><rect width="21.278" height="6.211" rx="2.83" ry="2.83" x="-54.853" y="-142.481" transform="matrix(.993 -.122 .129 .992 0 0)" color="#000" fill="#058e6e" stroke="#000" stroke-width=".705" stroke-linejoin="round" overflow="visible"/><rect width="29.484" height="11.96" rx="4.982" ry="4.16" x="-59.777" y="-145.479" transform="matrix(.992 -.127 .124 .992 0 0)" color="#000" stroke="#000" stroke-width=".768" stroke-linecap="round" stroke-linejoin="round" overflow="visible" fill="none"/><rect width="21.199" height="6.455" rx="2.831" ry="2.831" x="-55.885" y="-143.056" transform="matrix(-.992 -.127 -.124 .992 0 0)" color="#000" fill="#058e6e" stroke="#000" stroke-width=".717" stroke-linejoin="round" overflow="visible"/><rect width="29.484" height="11.96" rx="4.816" ry="4.16" x="-60.256" y="-145.887" transform="matrix(-.992 -.127 -.124 .992 0 0)" color="#000" stroke="#000" stroke-width=".768" stroke-linejoin="round" overflow="visible" fill="none"/><path d="M1.254-128.648l16.832-7.912-15.683-8.777-17.727 7.811 16.578 8.878z" font-size="12" stroke="#000" stroke-linecap="round" stroke-linejoin="round" fill="none"/><path d="M293.244 407.842a1.962 1.962 0 1 1-3.925 0 1.962 1.962 0 1 1 3.925 0z" transform="matrix(0 1.21 -1.192 0 516.98 -491.901)" color="#000" stroke="#000" stroke-width=".64" stroke-linejoin="round" overflow="visible" fill="none"/><path d="M293.244 407.842a1.962 1.962 0 1 1-3.925 0 1.962 1.962 0 1 1 3.925 0z" transform="matrix(0 1.21 -1.192 0 516.98 -485.126)" color="#000" stroke="#000" stroke-width=".64" stroke-linejoin="round" overflow="visible" fill="none"/><path d="M293.244 407.842a1.962 1.962 0 1 1-3.925 0 1.962 1.962 0 1 1 3.925 0z" transform="matrix(0 1.21 -1.192 0 455.088 -491.572)" color="#000" stroke="#000" stroke-width=".64" stroke-linejoin="round" overflow="visible" fill="none"/><path d="M293.244 407.842a1.962 1.962 0 1 1-3.925 0 1.962 1.962 0 1 1 3.925 0z" transform="matrix(0 1.21 -1.192 0 455.088 -484.797)" color="#000" stroke="#000" stroke-width=".64" stroke-linejoin="round" overflow="visible" fill="none"/><path d="M293.244 407.842a1.962 1.962 0 1 1-3.925 0 1.962 1.962 0 1 1 3.925 0z" transform="matrix(-.16 .999 -.984 -.162 524.408 -257.626)" color="#000" stroke="#000" stroke-width=".765" stroke-linejoin="round" overflow="visible" fill="none"/><path d="M293.244 407.842a1.962 1.962 0 1 1-3.925 0 1.962 1.962 0 1 1 3.925 0z" transform="matrix(-.16 .999 -.984 -.162 523.513 -252.032)" color="#000" stroke="#000" stroke-width=".765" stroke-linejoin="round" overflow="visible" fill="none"/><path d="M-95.345-21.28l-4.259-3.792 2.885-3.896 7.886 1.68-6.512 6.007z" font-size="12" fill="#ce1126" fill-rule="evenodd" stroke="#000" stroke-width=".905" stroke-linejoin="round"/><path d="M-92.541-68.964s-11.651 7.649-14.18 6.966c-2.956-.799-4.511-3.7-3.687-6.489.591-2.224 3.026-5.878 5.466-6.94 2.44-1.062 5.577-2.36 7.303-.136 1.46 1.881-4.393 7.84-4.393 7.84s7.608-7.374 10.027-6.587c2.689.875 5.418 3.01 5.059 6.759-.266 2.772-11.14 6.618-11.14 6.618s9.045-3.898 10.34.596c.718 2.492-2.925 6.179-6.267 7.703-3.342 1.523-7.18 1.572-9.68-.94-2.535-2.548-2.571-5.85-.422-7.645 2.761-2.305 11.572-7.745 11.572-7.745zm-36.393-13.471c-.295-4.27 1.098-6.787 4.422-4.569 2.826 1.885 6.238 12.446 6.238 12.446s-3.839-9.185.586-10.499c2.454-.729 6.085 2.97 7.586 6.364 1.5 3.394 1.548 7.291-.926 9.829-2.509 2.574-6.629 1.74-8.926.144-7.299-5.073-8.751-10.397-8.98-13.715z" fill="#ffbd03" fill-rule="evenodd" stroke="#000"/><path d="M353.653 670.56a5.947 10.705 0 1 1-11.894 0 5.947 10.705 0 1 1 11.894 0z" transform="matrix(-.843 .54 .532 .856 -176.384 -818.905)" color="#000" fill="#ce1126" stroke="#000" stroke-width=".996" stroke-linecap="round" overflow="visible"/><path d="M490.5 295.362a7.5 7.5 0 1 1-15 0 7.5 7.5 0 1 1 15 0z" transform="matrix(.538 0 0 .547 -342.577 -221.893)" color="#000" fill="url(#o)" stroke="#000" stroke-width="2.123" stroke-linecap="round" overflow="visible"/><path d="M-94.599-17.027l12.402-11.725-14.399-3.801" font-size="12" stroke="#000" stroke-linecap="round" stroke-linejoin="round" fill="none"/><path d="M-114.1-117.625l-5.092-4.533 3.45-4.658 9.428 2.009-7.786 7.182z" font-size="12" fill="#ce1126" fill-rule="evenodd" stroke="#000" stroke-width=".905" stroke-linejoin="round"/><path d="M-113.208-112.54l14.827-14.018-17.215-4.545" font-size="12" stroke="#000" stroke-linecap="round" stroke-linejoin="round" fill="none"/><path d="M293.244 407.842a1.962 1.962 0 1 1-3.925 0 1.962 1.962 0 1 1 3.925 0z" transform="matrix(.191 1.194 1.176 -.194 -623.129 -400.175)" color="#000" stroke="#000" stroke-width=".64" stroke-linejoin="round" overflow="visible" fill="none"/><path d="M293.244 407.842a1.962 1.962 0 1 1-3.925 0 1.962 1.962 0 1 1 3.925 0z" transform="matrix(.191 1.194 1.176 -.194 -622.059 -393.488)" color="#000" stroke="#000" stroke-width=".64" stroke-linejoin="round" overflow="visible" fill="none"/><path d="M93.634-68.772s11.651 7.649 14.18 6.966c2.956-.799 4.511-3.7 3.687-6.489-.591-2.224-3.026-5.878-5.466-6.94-2.44-1.062-5.577-2.36-7.303-.136-1.46 1.881 4.393 7.84 4.393 7.84s-7.608-7.374-10.027-6.587c-2.689.875-5.418 3.01-5.059 6.759.266 2.772 11.14 6.618 11.14 6.618s-9.045-3.898-10.34.596c-.718 2.492 2.925 6.179 6.267 7.703 3.342 1.523 7.18 1.572 9.68-.94 2.535-2.548 2.571-5.85.422-7.645-2.761-2.305-11.572-7.745-11.572-7.745zm36.393-13.471c.295-4.27-1.098-6.787-4.422-4.569-2.826 1.885-6.238 12.446-6.238 12.446s3.839-9.185-.586-10.499c-2.454-.729-6.085 2.97-7.586 6.364-1.5 3.394-1.548 7.291.926 9.829 2.509 2.574 6.629 1.74 8.926.144 7.299-5.073 8.751-10.397 8.98-13.715z" fill="#ffbd03" fill-rule="evenodd" stroke="#000"/><path d="M116.615-111.891l-13.773-14.217 16.8-4.855" font-size="12" color="#000" stroke="#000" stroke-linejoin="round" overflow="visible" fill="none"/><path d="M117.291-117.605l5.792-3.496-3.733-5.354-9.152 1.909 7.093 6.941z" font-size="12" fill="#ce1126" fill-rule="evenodd" stroke="#000" stroke-width=".789" stroke-linejoin="round"/><path d="M293.244 407.842a1.962 1.962 0 1 1-3.925 0 1.962 1.962 0 1 1 3.925 0z" transform="matrix(-.191 1.194 -1.176 -.194 626.868 -400.196)" color="#000" stroke="#000" stroke-width=".64" stroke-linejoin="round" overflow="visible" fill="none"/><path d="M293.244 407.842a1.962 1.962 0 1 1-3.925 0 1.962 1.962 0 1 1 3.925 0z" transform="matrix(-.191 1.194 -1.176 -.194 625.798 -393.509)" color="#000" stroke="#000" stroke-width=".64" stroke-linejoin="round" overflow="visible" fill="none"/><path d="M97.628-16.484l-11.52-11.891 14.051-4.061" font-size="12" color="#000" stroke="#000" stroke-linejoin="round" overflow="visible" fill="none"/><path d="M98.194-21.263l4.845-2.924-3.122-4.478-7.655 1.597 5.932 5.806z" font-size="12" fill="#ce1126" fill-rule="evenodd" stroke="#000" stroke-width=".789" stroke-linejoin="round"/><path d="M353.653 670.56a5.947 10.705 0 1 1-11.894 0 5.947 10.705 0 1 1 11.894 0z" transform="matrix(.843 .54 -.532 .856 177.477 -818.713)" fill="#ce1126" stroke="#000" stroke-width=".996" stroke-linecap="round"/><path d="M490.5 295.362a7.5 7.5 0 1 1-15 0 7.5 7.5 0 1 1 15 0z" transform="matrix(.525 0 0 .533 -170.229 -217.462)" color="#000" fill="url(#p)" stroke="#000" stroke-width="2.177" stroke-linecap="round" overflow="visible"/><path d="M1.048-378.6c-5.227 0-9.807.513-14.031 2.094-1.238 3.981-.989 9.225 0 13.844 3.555-1.74 10.385-2.188 14.031-2.188 3.646 0 10.476.447 14.031 2.188.989-4.619 1.238-9.863 0-13.844-4.224-1.581-8.805-2.094-14.031-2.094z" fill="#ffbd03" stroke="#000" stroke-width=".808" stroke-linecap="round" stroke-linejoin="round"/><path d="M-297.815-183.87c5.877.348 11.402 5.21 11.813 11.969l-2.5-2.531c-9.448 2.405-21.285 14.419-23.656 24l2.5 2.531c-6.495-.017-11.921-5.52-11.781-11.969 5.131-12.38 11.793-18.415 23.625-24z" font-size="12" fill="#ffbd03" fill-rule="evenodd" stroke="#000"/><path d="M-258.094-190.74c.405.136.732.439.9.832.168.393.16.839-.021 1.226-2.688 6.129-6.234 11.906-12.972 13.69-.533.185-1.125.055-1.531-.337-.406-.391-.559-.977-.395-1.517.164-.54.617-.942 1.172-1.041 5.435-1.439 8.38-6.145 10.961-12.031.312-.729 1.138-1.09 1.885-.823zm2.058 1.642c.434.108.798.403.992.807.194.403.197.872.01 1.279-2.709 6.175-6.532 11.824-12.073 15.945-.424.367-1.018.467-1.539.259-.521-.208-.882-.69-.937-1.248-.054-.558.207-1.1.678-1.405 5.017-3.731 8.567-8.909 11.129-14.749.282-.684 1.02-1.061 1.739-.888zm1.963 2.18c.434.108.798.403.992.807.194.403.197.872.01 1.279-2.668 6.083-6.074 12.618-11.578 16.73-.424.367-1.018.467-1.539.259-.521-.208-.882-.69-.937-1.248-.054-.558.207-1.1.678-1.405 4.743-3.544 8.032-9.603 10.634-15.534.282-.684 1.02-1.061 1.739-.888zm4.27 4.587c.398.136.721.433.889.819.169.385.167.824-.003 1.209-2.682 6.115-6.358 12.639-11.305 17.08-.614.56-1.565.517-2.125-.097s-.517-1.565.097-2.125c4.401-3.951 8.004-10.157 10.592-16.056.308-.717 1.114-1.077 1.854-.829zm-2.111-2.236c.442.1.815.394 1.015.8.2.406.206.881.017 1.292-1.359 3.099-3.155 6.359-5.484 8.787-2.329 2.427-5.404 4.089-8.864 3.342-.528-.109-.958-.493-1.124-1.006-.167-.513-.045-1.076.318-1.475s.913-.571 1.439-.453c2.248.485 4.157-.498 6.078-2.5 1.921-2.002 3.621-4.986 4.897-7.894.277-.673.998-1.05 1.709-.894zm4.07 4.503c.442.1.815.394 1.015.8.2.406.206.881.017 1.292-2.697 6.15-6.311 11.613-13.054 15.466-.722.412-1.64.16-2.052-.561-.412-.722-.16-1.64.561-2.052 6.094-3.482 9.201-8.193 11.773-14.058.282-.684 1.02-1.061 1.739-.888zm1.988 2.19c.405.136.732.439.9.832.168.393.16.839-.021 1.226-2.697 6.15-6.311 11.613-13.054 15.466-.722.412-1.64.16-2.052-.561-.412-.722-.16-1.64.561-2.052 6.094-3.482 9.201-8.193 11.773-14.058.3-.745 1.134-1.121 1.892-.853zm2.215 2.104c.405.136.732.439.9.832.168.393.16.839-.021 1.226-2.741 6.249-6.916 11.128-13.573 14.932-.722.412-1.64.16-2.052-.561-.412-.722-.16-1.64.561-2.052 6.18-3.531 9.795-7.751 12.323-13.517.297-.732 1.111-1.108 1.861-.86zm2.412 2.549c.405.136.732.439.9.832.168.393.16.839-.021 1.226-2.747 6.262-6.629 10.08-13.196 13.832-.722.412-1.64.16-2.052-.561-.412-.722-.16-1.64.561-2.052 6.271-3.583 9.43-6.695 11.953-12.447.308-.717 1.114-1.077 1.854-.829zm2.106 1.551c.398.136.721.433.889.819.169.385.167.824-.003 1.209-2.676 6.1-5.917 11.755-12.646 13.668-.803.225-1.637-.244-1.862-1.047-.225-.803.244-1.637 1.047-1.862 5.501-1.564 8.126-6.043 10.72-11.958.308-.717 1.114-1.077 1.854-.829zm2.217 2.233c.398.136.721.433.889.819.169.385.167.824-.003 1.209-2.623 5.979-5.116 12.2-11.985 16.125-.722.412-1.64.16-2.052-.561-.412-.722-.16-1.64.561-2.052 5.968-3.41 8.088-8.675 10.735-14.71.308-.717 1.114-1.077 1.854-.829zm2.246 2.111c.398.136.721.433.889.819.169.385.167.824-.003 1.209-2.694 6.143-6.28 11.798-12.391 15.937-.437.369-1.046.456-1.57.226s-.871-.738-.895-1.31c-.024-.572.279-1.107.781-1.381 5.517-3.736 8.76-8.798 11.335-14.67.308-.717 1.114-1.077 1.854-.829zm2.217 2.233c.398.136.721.433.889.819.169.385.167.824-.003 1.209-2.698 6.15-6.311 11.613-13.054 15.466-.722.412-1.64.16-2.052-.561-.412-.722-.16-1.64.561-2.052 6.094-3.482 9.201-8.193 11.773-14.058.312-.729 1.138-1.09 1.885-.823zm2.19 2.355c.405.136.732.439.9.832.168.393.16.839-.021 1.226-2.688 6.129-6.234 11.906-12.972 13.69-.533.185-1.125.055-1.531-.337-.406-.391-.559-.977-.395-1.517.164-.54.617-.942 1.172-1.041 5.435-1.439 8.38-6.145 10.961-12.031.312-.729 1.138-1.09 1.885-.823zm2.058 1.642c.434.108.798.403.992.807.194.403.197.872.01 1.279-2.709 6.175-6.532 11.824-12.073 15.945-.424.367-1.018.467-1.539.259-.521-.208-.882-.69-.937-1.248-.054-.558.207-1.1.678-1.405 5.017-3.731 8.567-8.909 11.129-14.749.282-.684 1.02-1.061 1.739-.888zm1.963 2.18c.434.108.798.403.992.807.194.403.197.872.01 1.279-2.668 6.083-6.074 12.618-11.578 16.73-.424.367-1.018.467-1.539.259-.521-.208-.882-.69-.937-1.248-.054-.558.207-1.1.678-1.405 4.743-3.544 8.032-9.603 10.634-15.534.282-.684 1.02-1.061 1.739-.888zm4.27 4.586c.398.136.721.433.889.819.169.385.167.824-.003 1.209-2.682 6.115-6.358 12.639-11.305 17.08-.614.56-1.565.517-2.125-.097s-.517-1.565.097-2.125c4.401-3.951 8.004-10.157 10.592-16.056.308-.717 1.114-1.077 1.854-.829zm-1.869-2.713c.442.1.815.394 1.015.8.2.406.206.881.017 1.292-1.359 3.099-3.155 6.359-5.484 8.787-2.329 2.427-5.404 4.089-8.864 3.342-.528-.109-.958-.493-1.124-1.006-.167-.513-.045-1.076.318-1.475s.913-.571 1.439-.453c2.248.485 4.157-.498 6.078-2.5 1.921-2.002 3.621-4.986 4.897-7.894.277-.673.998-1.05 1.709-.894z" fill="#ffbd03" fill-rule="evenodd" stroke="#000" stroke-linecap="round" stroke-linejoin="round"/><path d="M-158.858-184.7l-39.095-38.003c2.645 2.49 5.036 5.695 7.088 9.669 30.763 59.598-16.569 229.159 35.256 271.548l38.916 37.833c-51.826-42.389-4.493-211.95-35.256-271.548-2.005-3.884-4.335-7.034-6.909-9.499z" fill="#fff" stroke="#000" stroke-width=".808" stroke-linecap="round" stroke-linejoin="round"/><path d="M-195.179-219.715c1.564 1.924 3.003 4.151 4.313 6.688 30.643 59.365-16.198 227.821 34.656 271.031-43.284-49.405-.378-209.02-30.031-266.469-2.005-3.884-4.333-7.035-6.906-9.5-.658-.63-1.343-1.208-2.031-1.75z" fill="#ffbd03" stroke="#000" stroke-width=".808" stroke-linecap="round" stroke-linejoin="round"/><path d="M-165.157-99.272c-.017 6.332-.034 12.652-.051 19.463l-7.76-7.266-.38 18.354 7.697 3.459c-.259 10.74-1.801 21.667-1.542 32.887l9.186 6.325c-.453-11.395-1.14-22.975-.613-34.37l8.682 7.819c.188-6.43.376-12.6.564-18.538l-8.803-3.828c.176-6.272 1.05-12.196 2.206-17.979l-9.186-6.325z" font-size="12" fill="#ffbd03" fill-rule="evenodd" stroke="#000" stroke-width=".808"/><path d="M-156.835-179.965c29.663 57.467-13.29 217.148 30.063 266.5l4.656 4.531c-42.979-49.647-.232-208.914-29.844-266.281-2.005-3.884-4.333-7.035-6.906-9.5-7.944-8.574.09 1.212 2.031 4.75zm34.719 271.031l.219.25.219.156-.438-.406z" fill="#ffbd03" stroke="#000" stroke-width=".808" stroke-linecap="round" stroke-linejoin="round"/><path d="M-158.858-184.7l-39.095-38.003c-18.196-17.133-48.361-.417-61.997 32.476l38.916 37.833c13.68-33.001 43.999-49.719 62.176-32.306z" fill="#fff" stroke="#000" stroke-width=".808" stroke-linecap="round" stroke-linejoin="round"/><path d="M-181.335-196.465c-16.337.269-34.761 15.593-44.594 39.313 1.077 1.047 4.906 4.75 4.906 4.75 13.107-31.618 41.471-48.255 59.813-34.281-.52-.638-1.049-1.272-1.594-1.844l-.531-.531-.406-.406-.125-.094c-5.088-4.821-11.123-7.011-17.469-6.906zm-34.188-33.063c-16.297.366-34.637 15.671-44.438 39.313 0 0 3.681 3.551 4.656 4.5 13.693-32.958 43.991-49.652 62.156-32.25l-4.813-4.75c-5.118-4.819-11.185-6.956-17.563-6.813z" fill="#ffbd03" stroke="#000" stroke-width=".808" stroke-linecap="round" stroke-linejoin="round"/><path d="M259.187-190.74c-.405.136-.732.439-.9.832-.168.393-.16.839.021 1.226 2.688 6.129 6.234 11.906 12.972 13.69.533.185 1.125.055 1.531-.337.406-.391.559-.977.395-1.517-.164-.54-.617-.942-1.172-1.041-5.435-1.439-8.38-6.145-10.961-12.031-.312-.729-1.138-1.09-1.885-.823zm-2.059 1.642c-.434.108-.798.403-.992.807-.194.403-.197.872-.01 1.279 2.709 6.175 6.532 11.824 12.073 15.945.424.367 1.018.467 1.539.259.521-.208.882-.69.937-1.248.054-.558-.207-1.1-.678-1.405-5.017-3.731-8.567-8.909-11.129-14.749-.282-.684-1.02-1.061-1.739-.888zm-1.963 2.18c-.434.108-.798.403-.992.807-.194.403-.197.872-.01 1.279 2.668 6.083 6.074 12.618 11.578 16.73.424.367 1.018.467 1.539.259.521-.208.882-.69.937-1.248.054-.558-.207-1.1-.678-1.405-4.743-3.544-8.032-9.603-10.634-15.534-.282-.684-1.02-1.061-1.739-.888zm-4.269 4.587c-.398.136-.721.433-.889.819-.169.385-.167.824.003 1.209 2.682 6.115 6.358 12.639 11.305 17.08.614.56 1.565.517 2.125-.097s.517-1.565-.097-2.125c-4.401-3.951-8.004-10.157-10.592-16.056-.308-.717-1.114-1.077-1.854-.829zm2.11-2.236c-.442.1-.815.394-1.015.8-.2.406-.206.881-.017 1.292 1.359 3.099 3.155 6.359 5.484 8.787 2.329 2.427 5.404 4.089 8.864 3.342.528-.109.958-.493 1.124-1.006.167-.513.045-1.076-.318-1.475s-.913-.571-1.439-.453c-2.248.485-4.157-.498-6.078-2.5-1.921-2.002-3.621-4.986-4.897-7.894-.277-.673-.998-1.05-1.709-.894zm-4.07 4.503c-.442.1-.815.394-1.015.8-.2.406-.206.881-.017 1.292 2.697 6.15 6.311 11.613 13.054 15.466.722.412 1.64.16 2.052-.561.412-.722.16-1.64-.561-2.052-6.094-3.482-9.201-8.193-11.773-14.058-.282-.684-1.02-1.061-1.739-.888zm-1.988 2.19c-.405.136-.732.439-.9.832-.168.393-.16.839.021 1.226 2.697 6.15 6.311 11.613 13.054 15.466.722.412 1.64.16 2.052-.561.412-.722.16-1.64-.561-2.052-6.094-3.482-9.201-8.193-11.773-14.058-.3-.745-1.134-1.121-1.892-.853zm-2.214 2.104c-.405.136-.732.439-.9.832-.168.393-.16.839.021 1.226 2.741 6.249 6.916 11.128 13.573 14.932.722.412 1.64.16 2.052-.561.412-.722.16-1.64-.561-2.052-6.18-3.531-9.795-7.751-12.323-13.517-.297-.732-1.111-1.108-1.861-.86zm-2.413 2.549c-.405.136-.732.439-.9.832-.168.393-.16.839.021 1.226 2.747 6.262 6.629 10.08 13.196 13.832.722.412 1.64.16 2.052-.561.412-.722.16-1.64-.561-2.052-6.271-3.583-9.43-6.695-11.953-12.447-.308-.717-1.114-1.077-1.854-.829zm-2.106 1.551c-.398.136-.721.433-.889.819-.169.385-.167.824.003 1.209 2.676 6.1 5.917 11.755 12.646 13.668.803.225 1.637-.244 1.862-1.047.225-.803-.244-1.637-1.047-1.862-5.501-1.564-8.126-6.043-10.72-11.958-.308-.717-1.114-1.077-1.854-.829zm-2.217 2.233c-.398.136-.721.433-.889.819-.169.385-.167.824.003 1.209 2.623 5.979 5.116 12.2 11.985 16.125.722.412 1.64.16 2.052-.561.412-.722.16-1.64-.561-2.052-5.968-3.41-8.088-8.675-10.735-14.71-.308-.717-1.114-1.077-1.854-.829zm-2.245 2.111c-.398.136-.721.433-.889.819-.169.385-.167.824.003 1.209 2.694 6.143 6.28 11.798 12.391 15.937.437.369 1.046.456 1.57.226s.871-.738.895-1.31c.024-.572-.279-1.107-.781-1.381-5.517-3.736-8.76-8.798-11.335-14.67-.308-.717-1.114-1.077-1.854-.829zm-2.218 2.233c-.398.136-.721.433-.889.819-.169.385-.167.824.003 1.209 2.698 6.15 6.311 11.613 13.054 15.466.722.412 1.64.16 2.052-.561.412-.722.16-1.64-.561-2.052-6.094-3.482-9.201-8.193-11.773-14.058-.312-.729-1.138-1.09-1.885-.823zm-2.19 2.355c-.405.136-.732.439-.9.832-.168.393-.16.839.021 1.226 2.688 6.129 6.234 11.906 12.972 13.69.533.185 1.125.055 1.531-.337.406-.391.559-.977.395-1.517-.164-.54-.617-.942-1.172-1.041-5.435-1.439-8.38-6.145-10.961-12.031-.312-.729-1.138-1.09-1.885-.823zm-2.058 1.642c-.434.108-.798.403-.992.807-.194.403-.197.872-.01 1.279 2.709 6.175 6.532 11.824 12.073 15.945.424.367 1.018.467 1.539.259.521-.208.882-.69.937-1.248.054-.558-.207-1.1-.678-1.405-5.017-3.731-8.567-8.909-11.129-14.749-.282-.684-1.02-1.061-1.739-.888zm-1.963 2.18c-.434.108-.798.403-.992.807-.194.403-.197.872-.01 1.279 2.668 6.083 6.074 12.618 11.578 16.73.424.367 1.018.467 1.539.259.521-.208.882-.69.937-1.248.054-.558-.207-1.1-.678-1.405-4.743-3.544-8.032-9.603-10.634-15.534-.282-.684-1.02-1.061-1.739-.888zm-4.27 4.586c-.398.136-.721.433-.889.819-.169.385-.167.824.003 1.209 2.682 6.115 6.358 12.639 11.305 17.08.614.56 1.565.517 2.125-.097s.517-1.565-.097-2.125c-4.401-3.951-8.004-10.157-10.592-16.056-.308-.717-1.114-1.077-1.854-.829zm1.87-2.713c-.442.1-.815.394-1.015.8-.2.406-.206.881-.017 1.292 1.359 3.099 3.155 6.359 5.484 8.787 2.329 2.427 5.404 4.089 8.864 3.342.528-.109.958-.493 1.124-1.006.167-.513.045-1.076-.318-1.475s-.913-.571-1.439-.453c-2.248.485-4.157-.498-6.078-2.5-1.921-2.002-3.621-4.986-4.897-7.894-.277-.673-.998-1.05-1.709-.894z" fill="#ffbd03" fill-rule="evenodd" stroke="#000" stroke-linecap="round" stroke-linejoin="round"/><path d="M159.95-184.7l39.095-38.003c-2.645 2.49-5.036 5.695-7.088 9.669-30.763 59.598 16.569 229.159-35.256 271.548l-38.916 37.833c51.826-42.389 4.493-211.95 35.256-271.548 2.005-3.884 4.335-7.034 6.909-9.499z" fill="#fff" stroke="#000" stroke-width=".808" stroke-linecap="round" stroke-linejoin="round"/><path d="M166.249-99.272c.017 6.332.034 12.652.051 19.463l7.76-7.266.38 18.354-7.697 3.459c.259 10.74 1.801 21.667 1.542 32.887l-9.186 6.325c.453-11.395 1.14-22.975.613-34.37l-8.682 7.819c-.188-6.43-.376-12.6-.564-18.538l8.803-3.828c-.176-6.272-1.05-12.196-2.206-17.979l9.186-6.325z" font-size="12" fill="#ffbd03" fill-rule="evenodd" stroke="#000" stroke-width=".808"/><path d="M196.271-219.715c-1.564 1.924-3.003 4.151-4.313 6.688-30.643 59.365 16.198 227.821-34.656 271.031 43.284-49.405.378-209.02 30.031-266.469 2.005-3.884 4.333-7.035 6.906-9.5.658-.63 1.343-1.208 2.031-1.75zm-38.343 39.75c-29.663 57.467 13.29 217.148-30.063 266.5l-4.656 4.531c42.979-49.647.232-208.914 29.844-266.281 2.005-3.884 4.333-7.035 6.906-9.5 7.944-8.574-.09 1.212-2.031 4.75zm-34.719 271.031l-.219.25-.219.156.438-.406z" fill="#ffbd03" stroke="#000" stroke-width=".808" stroke-linecap="round" stroke-linejoin="round"/><path d="M159.95-184.7l39.095-38.003c18.196-17.133 48.361-.417 61.997 32.476l-38.916 37.833c-13.68-33.001-43.999-49.719-62.176-32.306z" fill="#fff" stroke="#000" stroke-width=".808" stroke-linecap="round" stroke-linejoin="round"/><path d="M182.428-196.465c16.337.269 34.761 15.593 44.594 39.313-1.077 1.047-4.906 4.75-4.906 4.75-13.107-31.618-41.471-48.255-59.813-34.281.52-.638 1.049-1.272 1.594-1.844l.531-.531.406-.406.125-.094c5.088-4.821 11.123-7.011 17.469-6.906zm34.187-33.063c16.297.366 34.637 15.671 44.438 39.313 0 0-3.681 3.551-4.656 4.5-13.693-32.958-43.991-49.652-62.156-32.25l4.813-4.75c5.118-4.819 11.185-6.956 17.563-6.813z" fill="#ffbd03" stroke="#000" stroke-width=".808" stroke-linecap="round" stroke-linejoin="round"/><path d="M-194.531-216.972c-5.935-.731-9.122 1.016-13.842 2.716l-4.553-7.958c-5.34.444-13.719 4.717-17.097 8.404 3.932 1.77 7.889 3.333 11.407 6.065-9.681 6.829-19.935 14.804-25.426 22.24l12.552 12.253c4.715-10.524 11.13-20.855 20.068-27.817 2.99 2.585 4.639 5.841 6.74 8.87 4.571-3.904 10.644-6.671 17.292-7.256-3.605-2.853-9.313-6.113-13.425-8.124 4.33-1.433 9.481-2.422 17.376 1.039l-11.093-10.43zm390.154 0c5.935-.731 9.122 1.016 13.842 2.716l4.553-7.958c5.34.444 13.719 4.717 17.097 8.404-3.932 1.77-7.889 3.333-11.407 6.065 9.681 6.829 19.935 14.804 25.426 22.24l-12.552 12.253c-4.715-10.524-11.13-20.855-20.068-27.817-2.99 2.585-4.639 5.841-6.74 8.87-4.571-3.904-10.644-6.671-17.292-7.256 3.605-2.853 9.313-6.113 13.425-8.124-4.33-1.433-9.481-2.422-17.376 1.039l11.093-10.43z" font-size="12" fill="#ffbd03" fill-rule="evenodd" stroke="#000" stroke-width=".808"/></g></svg>