<svg xmlns="http://www.w3.org/2000/svg" xmlns:xlink="http://www.w3.org/1999/xlink" height="500" version="1" width="1000"><defs><linearGradient id="a"><stop offset="0" stop-color="#f00"/><stop offset="1" stop-color="#ff0"/></linearGradient><linearGradient x1=".969" x2=".023" xlink:href="#a" y1=".641" y2=".633"/><linearGradient x1="103.083" x2="92.551" xlink:href="#a" y1="111.276" y2="107.764" gradientTransform="scale(.665 1.504)" gradientUnits="userSpaceOnUse"/><linearGradient xlink:href="#a" id="b" gradientUnits="userSpaceOnUse" gradientTransform="matrix(.66 0 0 1.492 -3.68 -.673)" x1="103.083" y1="111.276" x2="92.551" y2="107.764"/><linearGradient xlink:href="#a" id="c" gradientUnits="userSpaceOnUse" gradientTransform="matrix(.66 0 0 1.492 -3.676 -.451)" x1="103.083" y1="111.276" x2="92.551" y2="107.764"/><linearGradient xlink:href="#a" id="d" gradientUnits="userSpaceOnUse" gradientTransform="matrix(.66 0 0 1.492 -4.457 -.249)" x1="103.083" y1="111.276" x2="92.551" y2="107.764"/><linearGradient xlink:href="#a" id="e" gradientUnits="userSpaceOnUse" gradientTransform="matrix(.66 0 0 1.492 -3.694 -.033)" x1="103.083" y1="111.276" x2="92.551" y2="107.764"/><linearGradient xlink:href="#a" id="f" gradientUnits="userSpaceOnUse" gradientTransform="matrix(.66 0 0 1.492 -3.696 .179)" x1="103.083" y1="111.276" x2="92.551" y2="107.764"/><linearGradient xlink:href="#a" id="g" gradientUnits="userSpaceOnUse" gradientTransform="matrix(.66 0 0 1.492 -3.7 .395)" x1="103.083" y1="111.276" x2="92.551" y2="107.764"/><linearGradient xlink:href="#a" id="h" gradientUnits="userSpaceOnUse" gradientTransform="matrix(.66 0 0 1.492 -4.463 .391)" x1="103.083" y1="111.276" x2="92.551" y2="107.764"/><linearGradient xlink:href="#a" id="i" gradientUnits="userSpaceOnUse" gradientTransform="matrix(.66 0 0 1.492 -4.456 .18)" x1="103.083" y1="111.276" x2="92.551" y2="107.764"/><linearGradient xlink:href="#a" id="j" gradientUnits="userSpaceOnUse" gradientTransform="matrix(.66 0 0 1.492 -4.446 -.036)" x1="103.083" y1="111.276" x2="92.551" y2="107.764"/><linearGradient xlink:href="#a" gradientUnits="userSpaceOnUse" gradientTransform="matrix(.824 0 0 1.862 700.802 106.267)" x1="103.083" y1="111.276" x2="92.551" y2="107.764"/><linearGradient xlink:href="#a" id="l" gradientUnits="userSpaceOnUse" gradientTransform="matrix(.66 0 0 1.492 -4.454 -.462)" x1="103.083" y1="111.276" x2="92.551" y2="107.764"/><linearGradient xlink:href="#a" id="m" gradientUnits="userSpaceOnUse" gradientTransform="matrix(.66 0 0 1.492 -3.833 -.263)" x1="103.083" y1="111.276" x2="92.551" y2="107.764"/><linearGradient xlink:href="#a" id="k" gradientUnits="userSpaceOnUse" gradientTransform="matrix(.83 0 0 1.877 706.364 107.11)" x1="103.083" y1="111.276" x2="92.551" y2="107.764"/></defs><path font-size="12" fill="#00247d" d="M0 0h1000v500h-1000z"/><path d="M646.883 120.056l208.668-.774-.387 185.826s7.356 28.261-87.493 71.234c34.068-3.484 71.234-39.875 71.234-39.875s15.098-19.357 22.454-8.517 14.324 16.26 19.744 20.518c5.42 4.259 9.678 15.873 1.548 24.39-8.13 8.517-20.906 9.678-24.39-.774-5.42 2.71-38.714 42.972-106.85 44.908-69.298-1.161-107.237-45.295-107.237-45.295s-9.291 14.711-22.454 3.097c-12.776-15.099-3.097-24.777-3.097-24.777s10.84-6.194 13.937-10.453c5.033-5.807 6.581-13.55 15.098-13.55 10.066.774 13.937 8.904 13.937 8.904s34.842 36.778 72.395 41.424c-84.783-40.65-87.88-65.814-87.493-72.008l.387-184.278z" fill="#fff" fill-rule="evenodd"/><path d="M651.916 125.089l198.989-1.161v178.858c.387 23.228-38.714 46.844-99.882 77.041-63.104-32.52-99.495-52.264-99.882-77.428l.774-177.309z" fill="#006129" fill-rule="evenodd" stroke="#000" stroke-width="1.258pt"/><path d="M675.843 322.169l11.746-17.251 11.803 17.287" stroke="#f7c600" stroke-width="NaN" fill="none"/><path d="M689.975 315.77c0 1.289-1.044 2.334-2.333 2.334-1.289 0-2.334-1.045-2.333-2.334 0-1.289 1.044-2.334 2.333-2.334 1.289 0 2.334 1.045 2.333 2.334z" fill="#f7c600" fill-rule="evenodd" stroke="#000" stroke-width=".787"/><path d="M678.051 334.91l18.21.052s.286-2.363-1.902-3.8c9.538-1.312 7.06-9.725 15.048-10.201 1.55.238-4.173 3.577-4.173 3.577s-4.816 3.399-2.623 5.127c1.741 1.372 2.504-.834 2.742-2.504.238-1.669 7.749-2.742 6.676-7.511-1.788-3.934-12.28 2.623-12.28 2.623l-7.485-.042c-.467-.84-2.53-4.209-4.66-4.225-2.527.092-4.308 4.266-4.308 4.266h-16.929s-.58 4.344 8.004 5.178c1.933 2.524 3.431 3.229 5.111 3.883-1.12.933-1.435 2.063-1.431 3.577z" fill="#f7c600" fill-rule="evenodd" stroke="#000" stroke-width=".786"/><path d="M679.363 331.214l15.167-.052m-22.114-8.891s1.213 7.094 6.814 8.774" stroke="#000" stroke-width=".786" fill="none"/><path d="M671.483 322.178c.56-2.707 1.587-3.174 2.707-6.627.187-3.36-2.707-2.987-1.867-5.134 1.493-2.333.747-4.574-2.053-6.347.56 3.08-3.64 5.974-3.64 8.494 0 2.52 2.147 1.96 1.867 5.787.187 2.24-.56 1.68-.747 3.827h3.734z" fill="url(#b)" fill-rule="evenodd" stroke="#000" stroke-width=".786"/><path d="M689.745 305.327c0 1.185-.96 2.146-2.146 2.146-1.185 0-2.146-.961-2.146-2.146s.96-2.146 2.146-2.146c1.185 0 2.146.961 2.146 2.146z" fill="#f7c600" fill-rule="evenodd" stroke="#000" stroke-width=".786"/><path d="M675.183 286.661l11.746-17.251 11.803 17.287" stroke="#f7c600" stroke-width="NaN" fill="none"/><path d="M689.315 280.262c0 1.289-1.044 2.334-2.333 2.334-1.289 0-2.334-1.045-2.333-2.334 0-1.289 1.044-2.334 2.333-2.334 1.289 0 2.334 1.045 2.333 2.334z" fill="#f7c600" fill-rule="evenodd" stroke="#000" stroke-width=".787"/><path d="M677.391 299.402l18.21.052s.286-2.363-1.902-3.8c9.538-1.312 7.06-9.725 15.048-10.201 1.55.238-4.173 3.577-4.173 3.577s-4.816 3.399-2.623 5.127c1.741 1.372 2.504-.834 2.742-2.504.238-1.669 7.749-2.742 6.676-7.511-1.788-3.934-12.28 2.623-12.28 2.623l-7.485-.042c-.467-.84-2.53-4.209-4.66-4.225-2.527.092-4.308 4.266-4.308 4.266h-16.929s-.58 4.344 8.004 5.178c1.933 2.524 3.431 3.229 5.111 3.883-1.12.933-1.435 2.063-1.431 3.577z" fill="#f7c600" fill-rule="evenodd" stroke="#000" stroke-width=".786"/><path d="M678.703 295.706l15.167-.052m-22.114-8.891s1.213 7.094 6.814 8.774" stroke="#000" stroke-width=".786" fill="none"/><path d="M670.823 286.67c.56-2.707 1.587-3.174 2.707-6.627.187-3.36-2.707-2.987-1.867-5.134 1.493-2.333.747-4.574-2.053-6.347.56 3.08-3.64 5.974-3.64 8.494 0 2.52 2.147 1.96 1.867 5.787.187 2.24-.56 1.68-.747 3.827h3.734z" fill="url(#c)" fill-rule="evenodd" stroke="#000" stroke-width=".786"/><path d="M689.085 269.819c0 1.185-.96 2.146-2.146 2.146-1.185 0-2.146-.961-2.146-2.146s.96-2.146 2.146-2.146c1.185 0 2.146.961 2.146 2.146z" fill="#f7c600" fill-rule="evenodd" stroke="#000" stroke-width=".786"/><path d="M799.962 254.383l11.746-17.251 11.803 17.287" stroke="#f7c600" stroke-width="NaN" fill="none"/><path d="M814.094 247.985c0 1.289-1.044 2.334-2.333 2.334-1.289 0-2.334-1.045-2.333-2.334 0-1.289 1.044-2.334 2.333-2.334 1.289 0 2.334 1.045 2.333 2.334z" fill="#f7c600" fill-rule="evenodd" stroke="#000" stroke-width=".787"/><path d="M802.17 267.125l18.21.052s.286-2.363-1.902-3.8c9.538-1.312 7.06-9.725 15.048-10.201 1.55.238-4.173 3.577-4.173 3.577s-4.816 3.399-2.623 5.127c1.741 1.372 2.504-.834 2.742-2.504.238-1.669 7.749-2.742 6.676-7.511-1.788-3.934-12.28 2.623-12.28 2.623l-7.485-.042c-.467-.84-2.53-4.209-4.66-4.225-2.527.092-4.308 4.266-4.308 4.266h-16.929s-.58 4.344 8.004 5.178c1.933 2.524 3.431 3.229 5.111 3.883-1.12.933-1.435 2.063-1.431 3.577z" fill="#f7c600" fill-rule="evenodd" stroke="#000" stroke-width=".786"/><path d="M803.481 263.429l15.167-.052m-22.113-8.891s1.213 7.094 6.814 8.774" stroke="#000" stroke-width=".786" fill="none"/><path d="M795.601 254.393c.56-2.707 1.587-3.174 2.707-6.627.187-3.36-2.707-2.987-1.867-5.134 1.493-2.333.747-4.574-2.053-6.347.56 3.08-3.64 5.974-3.64 8.494 0 2.52 2.147 1.96 1.867 5.787.187 2.24-.56 1.68-.747 3.827h3.734z" fill="url(#d)" fill-rule="evenodd" stroke="#000" stroke-width=".786"/><path d="M813.863 237.542c0 1.185-.96 2.146-2.146 2.146-1.185 0-2.146-.961-2.146-2.146s.96-2.146 2.146-2.146c1.185 0 2.146.961 2.146 2.146z" fill="#f7c600" fill-rule="evenodd" stroke="#000" stroke-width=".786"/><path d="M678.087 219.868l11.746-17.251 11.803 17.287" stroke="#f7c600" stroke-width="NaN" fill="none"/><path d="M692.219 213.47c0 1.289-1.044 2.334-2.333 2.334-1.289 0-2.334-1.045-2.333-2.334 0-1.289 1.044-2.334 2.333-2.334 1.289 0 2.334 1.045 2.333 2.334z" fill="#f7c600" fill-rule="evenodd" stroke="#000" stroke-width=".787"/><path d="M680.295 232.61l18.21.052s.286-2.363-1.902-3.8c9.538-1.312 7.06-9.725 15.048-10.201 1.55.238-4.173 3.577-4.173 3.577s-4.816 3.399-2.623 5.127c1.741 1.372 2.504-.834 2.742-2.504.238-1.669 7.749-2.742 6.676-7.511-1.788-3.934-12.28 2.623-12.28 2.623l-7.485-.042c-.467-.84-2.53-4.209-4.66-4.225-2.527.092-4.308 4.266-4.308 4.266h-16.929s-.58 4.344 8.004 5.178c1.933 2.524 3.431 3.229 5.111 3.883-1.12.933-1.435 2.063-1.431 3.577z" fill="#f7c600" fill-rule="evenodd" stroke="#000" stroke-width=".786"/><path d="M681.607 228.914l15.167-.052m-22.114-8.891s1.213 7.094 6.814 8.774" stroke="#000" stroke-width=".786" fill="none"/><path d="M673.727 219.878c.56-2.707 1.587-3.174 2.707-6.627.187-3.36-2.707-2.987-1.867-5.134 1.493-2.333.747-4.574-2.053-6.347.56 3.08-3.64 5.974-3.64 8.494 0 2.52 2.147 1.96 1.867 5.787.187 2.24-.56 1.68-.747 3.827h3.734z" fill="url(#e)" fill-rule="evenodd" stroke="#000" stroke-width=".786"/><path d="M691.989 203.027c0 1.185-.96 2.146-2.146 2.146-1.185 0-2.146-.961-2.146-2.146s.96-2.146 2.146-2.146c1.185 0 2.146.961 2.146 2.146z" fill="#f7c600" fill-rule="evenodd" stroke="#000" stroke-width=".786"/><path d="M678.351 185.944l11.746-17.251 11.803 17.287" stroke="#f7c600" stroke-width="NaN" fill="none"/><path d="M692.484 179.546c0 1.289-1.044 2.334-2.333 2.334-1.289 0-2.334-1.045-2.333-2.334 0-1.289 1.044-2.334 2.333-2.334 1.289 0 2.334 1.045 2.333 2.334z" fill="#f7c600" fill-rule="evenodd" stroke="#000" stroke-width=".787"/><path d="M680.559 198.685l18.21.052s.286-2.363-1.902-3.8c9.538-1.312 7.06-9.725 15.048-10.201 1.55.238-4.173 3.577-4.173 3.577s-4.816 3.399-2.623 5.127c1.741 1.372 2.504-.834 2.742-2.504.238-1.669 7.749-2.742 6.676-7.511-1.788-3.934-12.28 2.623-12.28 2.623l-7.485-.042c-.467-.84-2.53-4.209-4.66-4.225-2.527.092-4.308 4.266-4.308 4.266h-16.929s-.58 4.344 8.004 5.178c1.933 2.524 3.431 3.229 5.111 3.883-1.12.933-1.435 2.063-1.431 3.577z" fill="#f7c600" fill-rule="evenodd" stroke="#000" stroke-width=".786"/><path d="M681.871 194.989l15.167-.052m-22.114-8.89s1.213 7.094 6.814 8.774" stroke="#000" stroke-width=".786" fill="none"/><path d="M673.991 185.954c.56-2.707 1.587-3.174 2.707-6.627.187-3.36-2.707-2.987-1.867-5.134 1.493-2.333.747-4.574-2.053-6.347.56 3.08-3.64 5.974-3.64 8.494 0 2.52 2.147 1.96 1.867 5.787.187 2.24-.56 1.68-.747 3.827h3.734z" fill="url(#f)" fill-rule="evenodd" stroke="#000" stroke-width=".786"/><path d="M692.253 169.103c0 1.185-.96 2.146-2.146 2.146-1.185 0-2.146-.961-2.146-2.146s.96-2.146 2.146-2.146c1.185 0 2.146.961 2.146 2.146z" fill="#f7c600" fill-rule="evenodd" stroke="#000" stroke-width=".786"/><path d="M678.995 151.524l11.746-17.251 11.803 17.287" stroke="#f7c600" stroke-width="NaN" fill="none"/><path d="M693.127 145.126c0 1.289-1.044 2.334-2.333 2.334-1.289 0-2.334-1.045-2.333-2.334 0-1.289 1.044-2.334 2.333-2.334 1.289 0 2.334 1.045 2.333 2.334z" fill="#f7c600" fill-rule="evenodd" stroke="#000" stroke-width=".787"/><path d="M681.203 164.266l18.21.052s.286-2.363-1.902-3.8c9.538-1.312 7.06-9.725 15.048-10.201 1.55.238-4.173 3.577-4.173 3.577s-4.816 3.399-2.623 5.127c1.741 1.372 2.504-.834 2.742-2.504.238-1.669 7.749-2.742 6.676-7.511-1.788-3.934-12.28 2.623-12.28 2.623l-7.485-.042c-.467-.84-2.53-4.209-4.66-4.225-2.527.092-4.308 4.266-4.308 4.266h-16.929s-.58 4.344 8.004 5.178c1.933 2.524 3.431 3.229 5.111 3.883-1.12.933-1.435 2.063-1.431 3.577z" fill="#f7c600" fill-rule="evenodd" stroke="#000" stroke-width=".786"/><path d="M682.515 160.57l15.167-.052m-22.114-8.891s1.213 7.094 6.814 8.774" stroke="#000" stroke-width=".786" fill="none"/><path d="M674.635 151.534c.56-2.707 1.587-3.174 2.707-6.627.187-3.36-2.707-2.987-1.867-5.134 1.493-2.333.747-4.574-2.053-6.347.56 3.08-3.64 5.974-3.64 8.494 0 2.52 2.147 1.96 1.867 5.787.187 2.24-.56 1.68-.747 3.827h3.734z" fill="url(#g)" fill-rule="evenodd" stroke="#000" stroke-width=".786"/><path d="M692.897 134.683c0 1.185-.96 2.146-2.146 2.146-1.185 0-2.146-.961-2.146-2.146s.96-2.146 2.146-2.146c1.185 0 2.146.961 2.146 2.146z" fill="#f7c600" fill-rule="evenodd" stroke="#000" stroke-width=".786"/><path d="M800.895 152.084l11.746-17.251 11.803 17.287" stroke="#f7c600" stroke-width="NaN" fill="none"/><path d="M815.027 145.686c0 1.289-1.044 2.334-2.333 2.334-1.289 0-2.334-1.045-2.333-2.334 0-1.289 1.044-2.334 2.333-2.334 1.289 0 2.334 1.045 2.333 2.334z" fill="#f7c600" fill-rule="evenodd" stroke="#000" stroke-width=".787"/><path d="M803.103 164.826l18.21.052s.286-2.363-1.902-3.8c9.538-1.312 7.06-9.725 15.048-10.201 1.55.238-4.173 3.577-4.173 3.577s-4.816 3.399-2.623 5.127c1.741 1.372 2.504-.834 2.742-2.504.238-1.669 7.749-2.742 6.676-7.511-1.788-3.934-12.28 2.623-12.28 2.623l-7.485-.042c-.467-.84-2.53-4.209-4.66-4.225-2.527.092-4.308 4.266-4.308 4.266h-16.929s-.58 4.344 8.004 5.178c1.933 2.524 3.431 3.229 5.111 3.883-1.12.933-1.435 2.063-1.431 3.577z" fill="#f7c600" fill-rule="evenodd" stroke="#000" stroke-width=".786"/><path d="M804.415 161.13l15.167-.052m-22.114-8.891s1.213 7.094 6.814 8.774" stroke="#000" stroke-width=".786" fill="none"/><path d="M796.535 152.094c.56-2.707 1.587-3.174 2.707-6.627.187-3.36-2.707-2.987-1.867-5.134 1.493-2.333.747-4.574-2.053-6.347.56 3.08-3.64 5.974-3.64 8.494 0 2.52 2.147 1.96 1.867 5.787.187 2.24-.56 1.68-.747 3.827h3.734z" fill="url(#h)" fill-rule="evenodd" stroke="#000" stroke-width=".786"/><path d="M814.797 135.243c0 1.185-.96 2.146-2.146 2.146-1.185 0-2.146-.961-2.146-2.146s.96-2.146 2.146-2.146c1.185 0 2.146.961 2.146 2.146z" fill="#f7c600" fill-rule="evenodd" stroke="#000" stroke-width=".786"/><path d="M799.775 185.873l11.746-17.251 11.803 17.287" stroke="#f7c600" stroke-width="NaN" fill="none"/><path d="M813.907 179.474c0 1.289-1.044 2.334-2.333 2.334-1.289 0-2.334-1.045-2.333-2.334 0-1.289 1.044-2.334 2.333-2.334 1.289 0 2.334 1.045 2.333 2.334z" fill="#f7c600" fill-rule="evenodd" stroke="#000" stroke-width=".787"/><path d="M801.983 198.614l18.21.052s.286-2.363-1.902-3.8c9.538-1.312 7.06-9.725 15.048-10.201 1.55.238-4.173 3.577-4.173 3.577s-4.816 3.399-2.623 5.127c1.741 1.372 2.504-.834 2.742-2.504.238-1.669 7.749-2.742 6.676-7.511-1.788-3.934-12.28 2.623-12.28 2.623l-7.485-.042c-.467-.84-2.53-4.209-4.66-4.225-2.527.092-4.308 4.266-4.308 4.266h-16.929s-.58 4.344 8.004 5.178c1.933 2.524 3.431 3.229 5.111 3.883-1.12.933-1.435 2.063-1.431 3.577z" fill="#f7c600" fill-rule="evenodd" stroke="#000" stroke-width=".786"/><path d="M803.295 194.918l15.167-.052m-22.114-8.89s1.213 7.094 6.814 8.774" stroke="#000" stroke-width=".786" fill="none"/><path d="M795.414 185.883c.56-2.707 1.587-3.174 2.707-6.627.187-3.36-2.707-2.987-1.867-5.134 1.493-2.333.747-4.574-2.053-6.347.56 3.08-3.64 5.974-3.64 8.494 0 2.52 2.147 1.96 1.867 5.787.187 2.24-.56 1.68-.747 3.827h3.734z" fill="url(#i)" fill-rule="evenodd" stroke="#000" stroke-width=".786"/><path d="M813.677 169.031c0 1.185-.96 2.146-2.146 2.146-1.185 0-2.146-.961-2.146-2.146s.96-2.146 2.146-2.146c1.185 0 2.146.961 2.146 2.146z" fill="#f7c600" fill-rule="evenodd" stroke="#000" stroke-width=".786"/><path d="M798.282 220.408l11.746-17.251 11.803 17.287" stroke="#f7c600" stroke-width="NaN" fill="none"/><path d="M812.414 214.01c0 1.289-1.044 2.334-2.333 2.334-1.289 0-2.334-1.045-2.333-2.334 0-1.289 1.044-2.334 2.333-2.334 1.289 0 2.334 1.045 2.333 2.334z" fill="#f7c600" fill-rule="evenodd" stroke="#000" stroke-width=".787"/><path d="M800.49 233.149l18.21.052s.286-2.363-1.902-3.8c9.538-1.312 7.06-9.725 15.048-10.201 1.55.238-4.173 3.577-4.173 3.577s-4.816 3.399-2.623 5.127c1.741 1.372 2.504-.834 2.742-2.504.238-1.669 7.749-2.742 6.676-7.511-1.788-3.934-12.28 2.623-12.28 2.623l-7.485-.042c-.467-.84-2.53-4.209-4.66-4.225-2.527.092-4.308 4.266-4.308 4.266h-16.929s-.58 4.344 8.004 5.178c1.933 2.524 3.431 3.229 5.111 3.883-1.12.933-1.435 2.063-1.431 3.577z" fill="#f7c600" fill-rule="evenodd" stroke="#000" stroke-width=".786"/><path d="M801.801 229.454l15.167-.052m-22.114-8.891s1.213 7.094 6.814 8.774" stroke="#000" stroke-width=".786" fill="none"/><path d="M793.921 220.418c.56-2.707 1.587-3.174 2.707-6.627.187-3.36-2.707-2.987-1.867-5.134 1.493-2.333.747-4.574-2.053-6.347.56 3.08-3.64 5.974-3.64 8.494 0 2.52 2.147 1.96 1.867 5.787.187 2.24-.56 1.68-.747 3.827h3.734z" fill="url(#j)" fill-rule="evenodd" stroke="#000" stroke-width=".786"/><path d="M812.183 203.567c0 1.185-.96 2.146-2.146 2.146-1.185 0-2.146-.961-2.146-2.146s.96-2.146 2.146-2.146c1.185 0 2.146.961 2.146 2.146z" fill="#f7c600" fill-rule="evenodd" stroke="#000" stroke-width=".786"/><path d="M799.775 322.52l11.746-17.251 11.803 17.287" font-size="12" stroke="#f7c600" stroke-width="1.258" fill="none"/><path d="M813.88 316.07c0 1.289-1.044 2.333-2.333 2.333-1.289 0-2.333-1.045-2.333-2.333 0-1.289 1.044-2.333 2.333-2.333 1.289 0 2.333 1.045 2.333 2.333zm-11.897 19.192l18.21.052s.286-2.363-1.902-3.8c9.538-1.312 7.06-9.725 15.048-10.201 1.55.238-4.173 3.577-4.173 3.577s-4.816 3.399-2.623 5.127c1.741 1.372 2.504-.834 2.742-2.504.238-1.669 7.749-2.742 6.676-7.511-1.788-3.934-12.28 2.623-12.28 2.623l-7.485-.042c-.467-.84-2.53-4.209-4.66-4.225-2.527.092-4.308 4.266-4.308 4.266h-16.929s-.58 4.344 8.004 5.178c1.933 2.524 3.431 3.229 5.111 3.883-1.12.933-1.435 2.063-1.431 3.577z" font-size="12" fill="#f7c600" fill-rule="evenodd" stroke="#000" stroke-width=".786"/><path d="M803.295 331.566l15.167-.052m-22.114-8.891s1.213 7.094 6.814 8.774" font-size="12" stroke="#000" stroke-width=".786" fill="none"/><path d="M795.414 322.53c.56-2.707 1.587-3.174 2.707-6.627.187-3.36-2.707-2.987-1.867-5.134 1.493-2.333.747-4.574-2.053-6.347.56 3.08-3.64 5.974-3.64 8.494 0 2.52 2.147 1.96 1.867 5.787.187 2.24-.56 1.68-.747 3.827h3.734z" font-size="12" fill="url(#k)" fill-rule="evenodd" stroke="#000" stroke-width=".786"/><path d="M813.693 305.71c0 1.185-.961 2.147-2.146 2.147-1.186 0-2.146-.961-2.146-2.147 0-1.185.961-2.147 2.146-2.147s2.146.961 2.146 2.147z" font-size="12" fill="#f7c600" fill-rule="evenodd" stroke="#000" stroke-width=".786"/><path d="M799.588 288.359l11.746-17.251 11.803 17.287" stroke="#f7c600" stroke-width="NaN" fill="none"/><path d="M813.721 281.96c0 1.289-1.044 2.334-2.333 2.334-1.289 0-2.334-1.045-2.333-2.334 0-1.289 1.044-2.334 2.333-2.334 1.289 0 2.334 1.045 2.333 2.334z" fill="#f7c600" fill-rule="evenodd" stroke="#000" stroke-width=".787"/><path d="M801.796 301.1l18.21.052s.286-2.363-1.902-3.8c9.538-1.312 7.06-9.725 15.048-10.201 1.55.238-4.173 3.577-4.173 3.577s-4.816 3.399-2.623 5.127c1.741 1.372 2.504-.834 2.742-2.504.238-1.669 7.749-2.742 6.676-7.511-1.788-3.934-12.28 2.623-12.28 2.623l-7.485-.042c-.467-.84-2.53-4.209-4.66-4.225-2.527.092-4.308 4.266-4.308 4.266h-16.929s-.58 4.344 8.004 5.178c1.933 2.524 3.431 3.229 5.111 3.883-1.12.933-1.435 2.063-1.431 3.577z" fill="#f7c600" fill-rule="evenodd" stroke="#000" stroke-width=".786"/><path d="M803.108 297.404l15.167-.052m-22.114-8.891s1.213 7.094 6.814 8.774" stroke="#000" stroke-width=".786" fill="none"/><path d="M795.228 288.368c.56-2.707 1.587-3.174 2.707-6.627.187-3.36-2.707-2.987-1.867-5.134 1.493-2.333.747-4.574-2.053-6.347.56 3.08-3.64 5.974-3.64 8.494 0 2.52 2.147 1.96 1.867 5.787.187 2.24-.56 1.68-.747 3.827h3.734z" fill="url(#l)" fill-rule="evenodd" stroke="#000" stroke-width=".786"/><path d="M813.49 271.517c0 1.185-.96 2.146-2.146 2.146-1.185 0-2.146-.961-2.146-2.146s.96-2.146 2.146-2.146c1.185 0 2.146.961 2.146 2.146z" fill="#f7c600" fill-rule="evenodd" stroke="#000" stroke-width=".786"/><path d="M700.351 256.607l11.746-17.251 11.803 17.287" stroke="#f7c600" stroke-width="NaN" fill="none"/><path d="M714.483 250.208c0 1.289-1.044 2.334-2.333 2.334-1.289 0-2.334-1.045-2.333-2.334 0-1.289 1.044-2.334 2.333-2.334 1.289 0 2.334 1.045 2.333 2.334z" fill="#f7c600" fill-rule="evenodd" stroke="#000" stroke-width=".787"/><path d="M702.559 269.348l18.21.052s.286-2.363-1.902-3.8c9.538-1.312 7.06-9.725 15.048-10.201 1.55.238-4.173 3.577-4.173 3.577s-4.816 3.399-2.623 5.127c1.741 1.372 2.504-.834 2.742-2.504.238-1.669 7.749-2.742 6.676-7.511-1.788-3.934-12.28 2.623-12.28 2.623l-7.485-.042c-.467-.84-2.53-4.209-4.66-4.225-2.527.092-4.308 4.266-4.308 4.266h-16.929s-.58 4.344 8.004 5.178c1.933 2.524 3.431 3.229 5.111 3.883-1.12.933-1.435 2.063-1.431 3.577z" fill="#f7c600" fill-rule="evenodd" stroke="#000" stroke-width=".786"/><path d="M703.87 265.652l15.167-.052m-22.114-8.89s1.213 7.094 6.814 8.774" stroke="#000" stroke-width=".786" fill="none"/><path d="M695.99 256.617c.56-2.707 1.587-3.174 2.707-6.627.187-3.36-2.707-2.987-1.867-5.134 1.493-2.333.747-4.574-2.053-6.347.56 3.08-3.64 5.974-3.64 8.494 0 2.52 2.147 1.96 1.867 5.787.187 2.24-.56 1.68-.747 3.827h3.734z" fill="url(#m)" fill-rule="evenodd" stroke="#000" stroke-width=".786"/><path d="M714.252 239.765c0 1.185-.96 2.146-2.146 2.146-1.185 0-2.146-.961-2.146-2.146s.96-2.146 2.146-2.146c1.185 0 2.146.961 2.146 2.146z" fill="#f7c600" fill-rule="evenodd" stroke="#000" stroke-width=".786"/><g stroke="#000"><path d="M763.203 338.595s4.752 10.956 10.164 4.224c5.412-6.732 3.432-9.636 3.432-9.636l-12.144-6.6-3.564 7.524 2.112 4.488z" fill="#f7c600" fill-rule="evenodd"/><path d="M773.631 337.143s.792.132 1.452-1.056c.66-1.188-1.452-1.716-2.376-3.036l-1.056 2.112 1.98 1.98zm-27.456-2.904l-10.692 5.808s-5.28 1.056-5.676 0c-.396-1.056.132-1.98 2.904-2.112 2.772-.132 10.296-6.996 10.296-6.996l3.168 3.3zm.132-189.948s.264 2.508.396 3.828c.132 1.32-2.112 4.092-2.244 3.96-.132-.132-1.188.132-1.056.924.132.792 1.716 1.056 1.716 1.056s-.66 2.772 0 2.904c.66.132-1.716 3.564 0 4.488 1.716.924 4.62 2.112 5.94 1.848 1.32-.264 0 5.148 0 5.148l-3.696 7.92 20.328-2.112-4.224-6.732s-1.98-1.32-1.452-5.148c.528-3.828-.264-21.12-.264-21.12l-14.52-1.98-.924 5.016zm-3.696 30.096s-6.6 3.036-6.336 11.22c-1.716 7.92-2.64 15.84-2.64 15.84s-7.788 8.844-10.164 12.012c-2.376 3.168-5.94 9.636-7.26 11.352-1.32 1.716-6.468 7.392-6.336 9.504.132 2.112-1.188 11.484 3.96 12.54 1.32.528 5.544-10.824 5.544-10.824s.264-4.884-1.188-5.808c-1.452-.924 3.168-4.092 3.168-4.092s8.844-6.468 10.824-8.052c1.98-1.584 7.392-7.656 7.392-7.656l3.036-36.036z" fill="#ffc6b5" fill-rule="evenodd"/><path d="M750.135 168.183s1.716 4.62 5.544 3.828c3.828-.792 8.316-4.356 8.316-4.356s3.564-.132 4.092.396c.528.528 9.636 9.372 9.372 12.144-.264 2.772-4.224 1.98-5.676 3.828-1.452 1.848-3.828 6.468-3.168 9.9.66 3.432 2.64 7.92 2.376 9.636-.264 1.716-1.716 2.244-1.716 3.168 0 .924 1.188 2.508 1.188 4.224 0 1.716-1.584 4.224-1.32 5.94.264 1.716.396 6.732.396 6.732l-.396 23.232s1.32.792 1.452 2.112c.132 1.32 8.976 39.732 8.976 39.732s-.396 1.188-1.32 1.056c-.924-.132 3.564 5.94 3.696 7.656.132 1.716 4.62 15.18 4.488 17.028-.132 1.848-.792 5.94-1.188 6.072-.396.132 2.904 8.448 2.376 9.768-.528 1.32-5.94 1.188-5.94 1.188l-1.452-.264s.132 1.716-.924 1.848c-1.056.132-8.844-.396-8.844-.396s-2.244 3.432-3.564 3.3c-1.32-.132-3.036-2.508-3.432-2.112-.396.396 1.188 2.64.792 3.3-.396.66-7.128 2.112-8.448-1.056-1.32-3.168.792-2.376.396-3.036-.396-.66-3.432-2.376-4.356-1.848-.924.528 2.376 1.32 2.244 2.64-.132 1.32-2.904 3.3-3.96 3.3s-3.564-4.884-7.26-4.356c-3.696.528-6.072 1.452-6.072 1.452s-4.356 1.848-6.204 1.452c-1.848-.396-2.64-1.848-2.64-2.64s1.32-4.224 1.188-5.28c-.132-1.056-1.188-2.112-1.188-3.696l3.036-6.996-.132-24.288s-2.772 0-2.904-1.716c-.132-1.716 4.224-38.412 4.884-40.788.66-2.376 2.376-10.824 2.376-10.824s-1.98.924-2.112 0c-.132-.924 5.94-21.912 5.94-21.912s1.056-10.428 1.056-13.2c0-2.772-.528-6.6-.528-6.6s-5.419-2.294-5.544-5.808c-.496-5.591 5.148-8.712 5.808-10.56l2.64-7.392s2.904-5.016 7.656-5.808z" fill="#fff" fill-rule="evenodd"/><path d="M748.155 335.823s-12.804 6.732-14.652 7.26c-1.848.528-3.036-2.244-1.188-2.772 1.848-.528 4.752-.792 4.752-.792s-4.356-3.432-4.224-3.564c.132-.132 5.94-2.244 6.072-2.244.132 0 1.848 3.432 3.036 3.168 1.188-.264 4.62-2.904 4.62-2.904s1.848 2.112 1.584 1.848z" fill="#f7c600" fill-rule="evenodd"/><path d="M766.194 339.519c1.211 1.561 1.684 4.269 4.456 2.685 2.772-1.584-1.42-4.524-1.42-4.524l-3.036 1.839zm5.061-.264s1.32 1.056 2.508-.132c1.188-1.188-2.376-3.696-2.376-3.696l-1.716 1.98 1.584 1.848z" fill="#ffc6b5" fill-rule="evenodd"/><path d="M767.295 173.331s-11.748 7.524-11.484 10.164m14.124-8.844s-2.64 2.904-2.772 2.904m6.336.264s-5.808 4.752-4.884 7.788m-22.572-12.936s-1.716 3.564-1.32 4.752c.396 1.188 3.3 5.676 3.696 8.448.396 2.772 0 4.752 0 4.752m-5.412-11.352s.528 4.224 1.32 5.016c.792.792 2.904 4.356 3.168 5.808m-5.544 6.732s3.432 1.716 6.6-4.884m5.148-4.62c-.132 0-2.508 6.468 1.716 8.844 4.224 2.376 7.392 2.112 9.24 1.452 1.848-.66 3.828-1.848 3.828-1.848m-16.632-.528s.264 8.712 13.068 17.292m-12.54-9.108s-.132 7.656 4.884 11.088m-7.524-20.064s-3.828 11.352-6.864 12.54m5.676-4.224s-.132 8.184-1.188 11.088m-1.056 1.98s2.64 3.3 5.544 3.036c2.904-.264 4.092-3.696 6.072-3.168 1.98.528 3.828 2.112 8.448 1.716m-6.6 3.432s0 6.732 1.188 7.392c1.188.66.66 6.864.66 6.864m-17.952-17.424s-.132 6.336-.924 8.58c-.792 2.244-2.376 6.072-2.112 9.372m-5.016 3.696c.66-.264 2.904-2.244 2.904-2.244m1.188 1.452s-5.676 24.288-4.092 38.808m5.412-37.62s-2.904 18.216-1.584 21.648m.132-22.176c.132 0 11.088.792 11.088.792m1.584-1.452s3.036 1.584 7.26 1.32m-8.58 7.524s-.528 31.152-1.32 38.016m17.556-30.888s3.432 27.324 5.412 29.832m-12.012-26.4s2.112 24.156 3.3 26.268m-33.264 8.448s4.092-1.32 7.788-5.28c4.224 5.676 10.692.264 10.692.264s10.032 6.864 14.52-.792c6.864 4.488 10.296-.66 10.296-.66s2.508 3.828 4.356 3.432m-10.956 2.64s5.148 24.156 12.804 31.02m-39.336-33.528s.66 20.196 1.848 34.452m-2.772-11.616s-.66 13.2-1.452 14.124m-6.336 1.32s1.452 5.676 8.712.396 7.392 1.98 7.656 2.772c.264.792 1.452 6.468 4.224 1.716m5.808-7.788s-1.188 11.748 9.24 3.168c10.428-8.58 12.144-.132 12.408 2.508" fill="none"/><path d="M745.911 143.499s2.904.396 4.488-.528c1.584-.924 3.432-1.32 4.752.528 1.32 1.848 2.244 1.716 2.244 1.716s-1.98 4.884 0 5.412c1.98.528 2.904.528 3.036 1.188.132.66-1.716 2.112-1.188 2.772.528.66 1.452 1.452 1.584 1.98.132.528-1.188 2.772-.792 3.3.396.528 1.584 2.64 2.376 2.64.792 0 .264 3.3 2.64 2.508 2.376-.792 2.244-2.904 2.244-2.904s2.508-.396 3.168-2.64c.66-2.244 2.244-2.772 2.244-2.772s3.168-1.716-1.056-4.356c0-18.48-12.144-16.5-12.144-16.5s-1.452-3.3-3.828-2.904c-2.376.396-2.508 3.168-4.224 2.904-1.716-.264-2.112-1.452-2.244-1.32-.132.132-1.584 2.772-1.584 3.432 0 .66-4.62-.924-4.224 2.508.396 3.432 2.64 3.3 2.508 3.036z" fill="#9c5100" fill-rule="evenodd"/><path d="M758.583 139.011s-.924 5.808 5.28 5.28c-.792 3.168 1.584 4.224 1.584 4.224m4.62 3.564c.132 0 2.772 1.716-.132 3.828m-8.844.792s1.32 1.584 2.772 1.188c1.452-.396 3.828 1.452 3.828 1.452s1.98.66 2.244.264m-16.896 2.112s4.488 1.716 7.392-5.412m-15.708-2.112l2.64.132m-2.244 2.508h2.376l-2.112.924" fill="none"/><path d="M748.419 149.439c.396 0 1.848-.528 2.112-.132s-1.584.66-2.112.132z" fill="none"/><path d="M776.931 180.8c.132 0 4.356 13.068 4.884 16.368.528 3.3 2.244 16.5 1.584 18.348-.66 1.848-7.392 10.692-8.184 12.936-.792 2.244-5.544 10.824-5.544 10.824s-1.188 8.448-1.716 8.844c-.528.396 1.363 2.47 1.188 3.168-.262.786-3.828 4.488-5.412 4.092-1.584-.396-4.092-2.244-4.224-3.96-.132-1.716.132-7.392 1.32-8.844 1.188-1.452 7.392-16.104 7.788-17.028.396-.924 5.676-12.408 5.808-14.388.132-1.98-1.642-6.559-3.509-8.239-4.155-12.227-2.522-19.601 6.017-22.121z" fill="#ffc6b5" fill-rule="evenodd"/><path d="M715.437 237.437l.207 5.785m-5.633-6.214s3.709 6.203 3.399 9.508m46.311 3.452s2.773-.291 2.686 4.338c1.771-5.751 5.372-5.888 5.372-5.888" fill="none"/></g><path d="M750.249 382.149c55.748-1.549 91.752-41.811 91.365-42.198-.387-.387 7.356-11.227 13.55-9.678 6.194 1.549 15.098 19.744 25.938 23.615 5.42 8.517-1.549 16.26-3.871 17.808-2.323 1.549-12.776 5.807-14.324-.387-1.548-6.194-4.646-5.033-4.646-5.033s-49.554 48.392-106.85 46.457c-59.232.387-108.012-46.457-108.012-46.457l-4.259 4.646s-4.646 5.033-6.968 4.646c-2.323-.387-12.388-6.968-13.163-13.55-.774-6.581 6.194-10.84 6.194-10.84s17.034-13.163 18.97-20.131c3.871-3.871 11.227 2.71 11.227 2.71s44.908 51.489 94.849 48.392z" fill="#f7c600" fill-rule="evenodd" stroke="#000" stroke-width="1.258pt"/><path d="M624.046 352.205s4.607-1.229 6.296.691c1.689 1.919 13.282 13.282 13.282 13.282m-9.059-8.599l-4.607 3.455s11.593 2.303 8.983 9.904m238.006-19.117s-2.303-1.229-5.912 1.459c-3.609 2.687-12.745 12.898-12.745 12.898m8.292-8.906l4.99 3.839s-10.442.691-8.138 10.595" stroke="#000" stroke-width="1.258pt" fill="none"/><g font-size="12"><path d="M0 0v27.951l444.099 222.049h55.902v-27.951l-444.099-222.049h-55.902zm500 0v27.95l-444.099 222.05h-55.902v-27.952l444.099-222.049h55.902zm-291.667 0v250h83.333v-250h-83.333zm-208.333 83.333v83.333h500v-83.333h-500z" fill="#fff"/><path d="M0 100v50h500v-50h-500zm225-100v250h50v-250h-50zm-225 250l166.667-83.333h37.268l-166.666 83.333h-37.268zm0-250l166.667 83.333h-37.268l-129.399-64.699v-18.634zm296.066 83.333l166.667-83.333h37.268l-166.667 83.333h-37.268zm203.934 166.667l-166.667-83.333h37.268l129.399 64.699v18.634z" fill="#cf142b"/></g><path style="text-align:center;line-height:100%" d="M683.054 364.496l-.336.471c-.7-.346-1.499-.41-2.396-.193-.659.17-1.899.789-3.722 1.855l-15.34 8.943-.42-.299 3.865-17.932c.467-2.162.68-3.475.64-3.938-.032-.458-.356-.964-.971-1.518l.336-.471 8.269 5.897-.336.471-.28-.2c-.746-.532-1.322-.802-1.726-.809-.286-.012-.516.105-.692.351-.109.153-.205.359-.288.62-.077.252-.245.971-.502 2.156l-2.447 11.209 8.862-5.214c1.066-.634 1.758-1.075 2.075-1.322.317-.247.554-.481.711-.702.181-.254.274-.528.277-.819.003-.292-.09-.582-.28-.872-.262-.404-.694-.821-1.296-1.251l.336-.471 5.661 4.037m5.509 26.655l-.277.507-9.72-5.315.277-.507.617.337c.539.295 1.026.436 1.46.424.308.002.61-.117.908-.358.22-.164.586-.713 1.095-1.645l6.687-12.228c.52-.95.794-1.572.824-1.865.029-.293-.064-.611-.28-.954-.202-.348-.563-.664-1.084-.949l-.617-.337.277-.507 9.72 5.315-.277.507-.617-.337c-.539-.295-1.026-.436-1.46-.424-.308-.002-.615.115-.922.351-.221.164-.586.713-1.095 1.645l-6.687 12.228c-.52.95-.794 1.572-.824 1.865-.02.298.07.62.272.968.216.344.584.658 1.105.943l.617.337m35.508-8.328l-2.506 7.036-.545-.194c.028-2.157-.438-3.971-1.396-5.44-.958-1.469-2.218-2.482-3.778-3.037-1.492-.531-2.883-.551-4.175-.061-1.288.481-2.406 1.399-3.353 2.753-.947 1.355-1.702 2.822-2.264 4.402-.682 1.913-1.054 3.672-1.116 5.275-.062 1.603.286 2.922 1.046 3.955.77 1.037 1.846 1.802 3.23 2.295.481.171.989.297 1.524.377.549.074 1.123.107 1.723.099l1.478-4.151c.28-.785.406-1.31.378-1.574-.024-.274-.175-.565-.452-.874-.267-.305-.641-.544-1.122-.715l-.515-.184.194-.545 9.7 3.455-.194.545c-.753-.213-1.305-.294-1.656-.241-.337.046-.647.217-.93.515-.155.155-.361.596-.62 1.322l-1.478 4.151c-1.478.115-2.96.068-4.445-.14-1.479-.195-2.959-.556-4.441-1.084-1.894-.675-3.378-1.491-4.452-2.448-1.061-.964-1.924-2.034-2.588-3.211-.651-1.183-1.06-2.396-1.225-3.638-.205-1.599-.008-3.237.59-4.915 1.07-3.003 3.028-5.164 5.875-6.483s5.87-1.409 9.069-.269c.991.353 1.856.75 2.595 1.19.404.232 1.02.706 1.849 1.422.842.709 1.351 1.095 1.528 1.158.275.098.565.091.87-.022.309-.122.661-.428 1.057-.917l.545.194m14.959 24.011l-.087.572-10.953-1.659.087-.572.695.105c.608.092 1.113.058 1.517-.102.29-.104.533-.32.73-.648.151-.23.306-.87.465-1.921l2.087-13.78c.162-1.071.207-1.749.134-2.034-.073-.285-.269-.552-.59-.8-.309-.257-.757-.431-1.344-.52l-.695-.105.087-.572 10.953 1.659-.087.572-.695-.105c-.608-.092-1.113-.058-1.517.102-.29.104-.538.319-.746.646-.151.23-.306.87-.465 1.921l-2.087 13.78c-.162 1.071-.207 1.749-.134 2.034.083.287.279.558.588.816.321.249.774.418 1.361.506l.695.105m28.432-6.906l-.417 7.468-18.788.959-.029-.577.702-.036c.614-.031 1.102-.166 1.466-.403.263-.159.458-.42.586-.781.102-.256.125-.914.071-1.975l-.71-13.919c-.055-1.082-.147-1.755-.275-2.02-.128-.265-.374-.487-.738-.666-.354-.191-.827-.271-1.42-.24l-.702.036-.029-.577 11.282-.576.029.577-.921.047c-.614.031-1.102.166-1.466.403-.263.159-.464.42-.602.782-.102.256-.125.914-.071 1.975l.688 13.482c.055 1.082.153 1.771.293 2.066.14.285.395.491.767.618.265.08.897.095 1.895.044l1.763-.09c1.124-.057 2.05-.303 2.779-.736.729-.434 1.342-1.091 1.839-1.971.508-.881.964-2.166 1.368-3.856l.64-.033m20.552-3.566l-7.171 2.142-.263 2.231c-.083.742-.06 1.328.068 1.757.17.569.525.92 1.064 1.052.317.079 1.017.001 2.099-.236l.165.554-6.752 2.017-.165-.554c.696-.327 1.205-.806 1.528-1.435.32-.639.593-1.835.82-3.588l2.422-18.368.284-.085 12.294 14.461c1.17 1.368 2.04 2.19 2.612 2.465.432.208.965.245 1.598.11l.165.554-9.821 2.934-.165-.554.404-.121c.788-.236 1.31-.511 1.563-.826.172-.225.213-.488.124-.787-.054-.18-.139-.355-.255-.527-.047-.084-.308-.413-.785-.989l-1.834-2.208m-.84-.956l-5.113-6.088-1.025 7.922 6.138-1.834m27.076-27.59l2.715 5.051-.495.266c-.92-1.007-1.695-1.667-2.324-1.979-.634-.321-1.344-.466-2.131-.433-.437.022-1.092.268-1.964.736l-1.39.747 7.739 14.395c.513.954.884 1.523 1.113 1.708.238.179.558.279.96.3.406.007.875-.133 1.407-.419l.619-.333.274.509-9.771 5.253-.274-.509.619-.333c.541-.291.925-.622 1.152-.992.169-.257.239-.578.209-.964-.017-.274-.278-.88-.781-1.815l-7.739-14.395-1.349.725c-1.257.676-2.027 1.433-2.31 2.271-.399 1.172-.334 2.503.195 3.993l-.523.281-2.715-5.051 16.762-9.012m12.709-7.535l5.194 6.886.337-.254c1.073-.809 1.596-1.733 1.571-2.77-.026-1.037-.468-2.263-1.326-3.678l.474-.358 6.681 8.857-.474.358c-.827-.889-1.635-1.519-2.424-1.89-.78-.377-1.461-.51-2.042-.397-.587.104-1.284.46-2.091 1.068l3.594 4.765c.703.931 1.17 1.473 1.401 1.624.24.145.518.203.835.173.317-.03.716-.227 1.198-.591l1.01-.762c1.58-1.192 2.568-2.511 2.964-3.958.404-1.453.25-3.085-.463-4.896l.462-.348 3.295 5.95-14.62 11.028-.348-.462.561-.423c.491-.37.82-.755.987-1.156.128-.28.144-.605.047-.975-.059-.269-.409-.827-1.048-1.675l-8.393-11.127c-.577-.765-.952-1.219-1.126-1.363-.303-.228-.626-.337-.97-.325-.492.006-1.012.215-1.561.629l-.561.423-.348-.462 14.158-10.68 3.773 5.002-.474.358c-1.163-1.041-2.166-1.661-3.008-1.86-.834-.206-1.744-.133-2.731.22-.579.202-1.508.785-2.789 1.751l-1.746 1.317" font-size="32" font-weight="bold" text-anchor="middle" font-family="Times New Roman"/><path d="M648.844 366.086c69.247 56.167 137.115 57.198 203.528 0" fill="none"/></svg>