<svg xmlns="http://www.w3.org/2000/svg" width="744" height="496" viewBox="0 0 744 496"><path fill="#fff" d="M0 0h744v496h-744z"/><path d="M437.962 178.594c0-3.42-1.111-10.061-4.726-12.36-4.642-2.414-4.642-3.899-5.013-7.055l7.797-9.096s-7.426-3.342-10.21-2.971c-2.784.372-8.168.928-8.91 1.671-.743.743-4.827-13.366-2.228-15.594 2.599-2.228 7.981 5.198 7.981 5.198s3.527-8.168-8.91-23.762c4.27-30.445-24.133-37.5-30.63-37.314-5.383-.742-19.306 4.27-21.533 10.953-7.055 2.413-7.426 8.54-7.426 8.54s-14.479 2.599-16.336 15.223c8.539-7.054 14.108.743 14.108.743s7.426 5.198 11.324 5.384c3.897.186-3.713 12.995-5.94 15.223-2.228 2.228-11.51 10.768-11.139 11.324s7.24 2.599 6.869 5.755c-.372 3.156-21.163 12.81-20.049 15.223 5.384-1.671 9.581-.384 9.581-.384.75 5.271-1.35 11.34-4.932 13.305l100.322-.006z" fill="#FFD600" stroke="#000" stroke-width="1.484"/><path d="M432.459 317.705s.945 11.16-3.783 15.889c20.995 1.324 32.344 22.699 32.533 27.807.188 5.106-6.432 9.078-6.432 9.078s2.271 9.08-6.431 10.593c.189 8.701-5.863 8.701-5.863 8.701s-2.27 7.188-9.268 6.81c-2.081 10.403-12.862 10.214-12.862 10.214s-6.242 15.133-15.51 9.269c-5.863 12.862-21.373 12.295-27.237 0-3.215-.188-10.402 4.161-14.753-8.701-9.646 1.703-13.429-10.592-13.429-10.592s-6.432-.568-8.891-6.999c-7.565-1.513-6.241-9.079-6.241-9.079s-7.565-2.08-7.377-10.403c-6.053-3.595-5.485-10.025-5.485-10.025s4.729-22.319 32.155-27.049c-4.351-6.241-3.783-15.321-3.783-15.321l82.657-.192z" fill="#FFD600" stroke="#000" stroke-width="1.484" stroke-linecap="round" stroke-linejoin="round"/><g stroke="#000" stroke-linejoin="round"><path d="M301.068 189.668s-14.949 16.084-22.425 4.078 10.419-15.404 10.646-15.631c.227-.226 10.42-3.397 11.325-22.199.906-18.802-22.425-31.034-28.994-32.62-6.569-1.586-25.822-1.586-25.822-1.586s-70.445-16.989-77.693-22.199c-7.248-5.21-73.844-17.443-73.844-17.443s-10.646-1.359-9.739 8.155c.906 9.514 9.739 10.646 9.739 10.646s-7.475 5.89-6.569 11.1c.906 5.21 6.569 13.591 18.348 12.232-1.359 18.575 24.463 21.519 24.463 21.519s2.718 26.73 26.503 25.371c5.663 18.348 26.954 19.029 26.954 19.029s9.966 12.459 24.463 13.364c8.38 20.84 26.502 14.95 26.502 14.95s-1.359 13.139 7.022 13.139c-4.304 14.95 11.778 16.989 17.894 14.044 1.586 3.17 7.022 12.912 19.48 6.796 7.474 11.1 19.707 5.89 19.707 5.89s2.718 8.835 13.364 5.436c10.649-3.399-11.549-73.62-11.324-74.073zm-46.208-54.819s16.535 1.813 14.497 27.409m-77.467-53.912s-31.712 21.746 27.635 28.541m-18.575-2.944c-.225.452-14.949 17.895 12.232 23.105-12.911 12.232 11.325 16.309 11.325 16.309s-4.983 12.912 9.514 16.309c-4.756 13.366 10.873 12.686 10.873 12.686s.452 16.309 19.028 16.084c-.227 11.1 12.684 11.78 12.684 11.78s3.851 12.005 16.308 8.381c1.359 8.381 9.966 6.569 9.966 6.569" fill="#FFD600"/><path d="M299.257 258.53s.679-11.553-2.038-13.818m-18.576 7.476c.227-.227 5.437-10.646 3.624-12.459m-22.65 5.889l14.044-13.818m-31.712.227c.227-.227 21.291-13.364 21.291-13.364m-28.765-.002c.227-.227 12.005-5.21 12.459-9.514" fill="#F7F308"/><path d="M208.426 203.484s28.54 6.117 33.525-.452m-57.309-13.139c1.132 0 42.81 4.531 46.661-.679m-74.296-18.122c.679-.227 49.379 9.062 63.196 2.038m-86.526-27.182c1.133 0 64.782 15.404 74.296 10.646m-98.534-32.845c.452 0 75.882 17.67 85.394 10.419m-95.133-31.939c.225 0 72.258 23.558 78.373 17.668" fill="#FFD600"/></g><g stroke="#000" stroke-linejoin="round"><path d="M481.876 190.187s14.951 16.084 22.425 4.078c7.475-12.005-10.419-15.404-10.646-15.631-.227-.226-10.42-3.397-11.327-22.199-.905-18.802 22.425-31.034 28.994-32.62 6.569-1.586 25.822-1.586 25.822-1.586s70.445-16.989 77.693-22.199c7.248-5.21 73.842-17.443 73.842-17.443s10.647-1.359 9.741 8.155c-.906 9.514-9.741 10.646-9.741 10.646s7.475 5.89 6.569 11.1c-.906 5.21-6.569 13.591-18.348 12.232 1.359 18.575-24.463 21.519-24.463 21.519s-2.719 26.73-26.502 25.371c-5.663 18.348-26.956 19.029-26.956 19.029s-9.966 12.459-24.463 13.364c-8.38 20.84-26.502 14.95-26.502 14.95s1.359 13.139-7.022 13.139c4.304 14.95-11.778 16.989-17.894 14.044-1.584 3.17-7.023 12.912-19.48 6.796-7.474 11.1-19.706 5.89-19.706 5.89s-2.718 8.835-13.364 5.436c-10.646-3.399 11.552-73.62 11.325-74.073zm46.211-54.819s-16.535 1.813-14.497 27.409m77.466-53.911s31.71 21.746-27.635 28.541m18.575-2.945c.227.452 14.949 17.895-12.233 23.105 12.911 12.232-11.325 16.309-11.325 16.309s4.983 12.912-9.514 16.309c4.756 13.366-10.873 12.686-10.873 12.686s-.452 16.309-19.028 16.084c.227 11.1-12.684 11.78-12.684 11.78s-3.851 12.005-16.31 8.381c-1.359 8.381-9.966 6.569-9.966 6.569" fill="#FFD600"/><path d="M483.689 259.049s-.679-11.553 2.038-13.818m18.574 7.476c-.227-.227-5.436-10.646-3.624-12.459m22.652 5.89l-14.044-13.818" fill="#F7F308"/><path d="M540.998 232.547c-.227-.227-21.291-13.364-21.291-13.364" fill="#FFD600"/><path d="M548.472 219.181c-.227-.227-12.005-5.21-12.459-9.514" fill="#F7F308"/><path d="M574.521 204.004s-28.54 6.117-33.523-.452m57.306-13.139c-1.133 0-42.81 4.531-46.661-.679m74.296-18.123c-.679-.227-49.38 9.062-63.198 2.038m86.528-27.182c-1.132 0-64.782 15.403-74.296 10.646m98.534-32.845c-.452 0-75.882 17.67-85.396 10.419m95.135-31.938c-.227 0-72.258 23.558-78.374 17.668" fill="#FFD600"/></g><path d="M568.433 217.641s-4.429 63.296-4.644 63.152c-.214-.145-9.237-11.057-9.237-11.057l-27.847 87.303 6.509 19.044-16.213 53.163-13.371-16.961-21.601 8.686 17.339-55.992 16.019-11.51 28.844-86.007-16.008 2.004 40.21-51.825zm61.54 26.107s-33.681 53.773-33.802 53.545c-.122-.229-2.951-14.104-2.951-14.104l-55.345 51.34-59.098 57.025-.163-11.745-20.222-2.497 26.747-20.465 13.697-2.257 86.345-78.263-15.07-5.762 59.862-26.817z" fill="#00CEDE" stroke="#000" stroke-width="1.484"/><path d="M478.817 379.717c.366-.764 30.729-26.707 30.729-26.707" stroke="#000" stroke-width="1.515" fill="none"/><path d="M611.978 198.259s-16.462 61.278-16.645 61.095c-.183-.182-6.95-12.621-6.95-12.621l-66.764 114.691 2.743 19.938-23.961 43.901-9.878-19.207-22.863 4.391 25.607-46.462 17.926-8.231 67.494-113.229-16.096-1.097 49.387-43.169z" fill="#00CEDE" stroke="#000" stroke-width="1.484"/><path d="M490.89 405.325c0-.365 23.047-40.608 23.047-40.608" stroke="#000" stroke-width="1.484" fill="none"/><path d="M37.632 186.735l40.241.183-4.024 9.695 17.56 69.51 21.218-69.327-7.5-10.061h41.887l-8.963 9.695-34.57 99.326 8.962 12.987h-40.241l8.963-12.987-33.839-98.96-9.694-10.061zm617.331 2.378h38.229l-6.219 8.597-.184 101.155 8.598 9.512h-40.424l8.048-10.243-.183-100.241-7.865-8.78z" fill="#00CEDE" stroke="#000" stroke-width="1.484"/><path d="M353.586 97.64s4.902 6.157 6.727 6.727c1.824.57 12.085 5.587 11.516 9.007-.57 3.42-7.297 5.131-7.297 5.131m-2.851-29.986l10.261 9.805s1.824 8.437 9.121 7.753c7.297-.684 6.271-3.763 6.271-3.763s-8.778-6.157-15.733-4.675" stroke="#000" stroke-width="1.484" fill="none"/><path d="M299.116 397.538l13.705-11.383s-3.02-6.272-13.938-6.04c-10.22-7.2-27.873-24.158-27.873-24.158l-8.827-23.926s7.201-2.09 8.827-7.897c1.625-5.808-.465-13.009-1.162-13.705-.697-.697-7.897 1.161-9.988 4.181-2.091 3.021-5.343 14.635-10.221 10.686l.697-8.362s4.878-6.039 4.646-9.292c-.232-3.252-6.503-13.008-7.201-13.24-.697-.232-2.09 12.776-3.949 14.17-1.858 1.395-4.413 7.201-8.13 3.949-3.716-3.252 1.858-8.131 1.858-8.131s10.453-5.574.232-23.926c-3.02 7.898-8.826 13.008-8.826 13.008s-2.788 4.879-5.343.697c-2.555-4.181 3.02-8.13 3.02-8.13s9.059-5.343 9.292-13.241c.232-7.897-10.917-16.957-10.917-16.957s-.696 14.635-4.181 16.493-4.878 4.878-8.827 1.626l3.02-10.453s12.079-12.079 11.382-19.048l-1.394-8.13s-9.059 5.575-10.22 8.362c-1.162 2.788-4.878 12.776-9.524 9.756-3.252-3.716 2.788-10.917 2.788-10.917s4.413-4.878 4.181-6.969c-.232-2.091-3.716-8.362-10.453-14.402-.929-1.858-1.394-9.292-1.394-9.292s-5.11 6.04-4.877 9.292c.232 3.252-.465 9.756.232 16.957.697 7.201-5.575-2.323-5.575-2.323l1.162-23.229s-8.827-10.686-19.512-14.634c3.949 5.807 3.716 11.382 3.716 11.382s-4.413 9.524-4.413 12.079 5.11 13.705 14.634 21.138c-14.402-15.563-32.287-10.453-37.63-13.473 2.555 3.02 10.221 14.402 9.292 17.422l13.705 9.292 15.563.232s7.665 5.342 8.362 8.826c.697 3.485-11.149-6.504-15.795-6.271-4.646.232-16.957-1.625-16.957-1.625s7.433 6.968 7.665 9.988c.232 3.02 3.484 9.988 7.898 11.847 4.413 1.858 16.259 2.556 16.259 2.556s5.11-3.021 6.04.231c.929 3.252-6.736 5.808-6.736 5.808s-7.897 0-10.453-2.091-3.02-5.575-14.401-6.969c-1.162 9.524 6.271 19.28 6.271 19.28s31.358-2.555 31.125 4.182c-.232 6.736-26.015.696-26.944-1.395-.929-2.09 1.162 13.24 7.201 16.492s19.512 1.627 21.138.93 7.665-1.394 7.665 2.091-30.661 6.272-31.125 5.343c-.465-.93 4.646 11.847 16.957 11.15 12.311-.697 17.653-4.414 17.653-4.414s7.433-1.395 8.129 1.626c.697 3.02-7.433 4.413-7.433 4.413s-19.512.465-20.208-.465c-.697-.929 4.414 12.312 18.118 12.08 10.221-.93 10.917-5.344 13.008-6.04 3.02-.696 9.524-.696 10.453-.464.929.232 17.189 11.613 17.189 11.613l41.344 41.814z" fill="#188400" stroke="#000" stroke-width="1.484" stroke-linejoin="round"/><path d="M179.26 214.028s-.465 22.3 10.685 29.037m12.775-11.383s7.433 11.382-5.11 15.563m-33.449-7.897s-.929 12.775 21.603 11.847m34.145-.697s-3.716 9.059-12.775 8.594m21.137 11.847c0 1.161 1.626 13.473-10.22 13.24m-46.457-18.351s14.866 9.293 21.602 8.596m-18.35 13.937s6.968 7.434 19.744 5.574m41.578-.464c0 .93-2.322 8.131-7.433 9.061m-42.275 7.433s5.575 7.2 20.208 3.252m43.437-6.273s-2.323 11.382-8.362 11.614m22.531.698s-4.646 13.705-16.492 11.614m-38.094 12.776s4.646 4.182 16.027-.93m-28.802-13.007c.929 0 6.736 4.878 20.673-2.555m81.508 53.313s-8.679 3.886-.259 16.969" stroke="#000" stroke-width="1.484" stroke-linecap="round" stroke-linejoin="round" fill="none"/><path d="M469.593 266.324s9.121 8.757 9.304 10.582c.183 1.824 2.372 10.398 4.743 11.676s11.676 8.757 12.953 11.676c1.276 2.92 9.486 15.325 9.486 15.325s7.662 15.689 12.77 16.967c5.108 1.276 19.521-.912 22.439 6.021l2.189 16.967s-3.467 3.102-5.108 1.277-4.561 9.121-9.669 6.02c-6.958-14.815-25.168-12.397-25.168-12.397s4.006-6.211-12.23-11.685c-25.358 4.379-32.838-22.074-32.838-22.074l-14.434-12.52 25.563-37.835zm-14.595 37.582l11.311 5.291-.912-9.669m5.655 2.919l10.398 5.108-4.195-8.392m-6.75-10.398l10.216 5.473-4.743-10.581m10.763 55.278s-11.676-15.325-11.493-15.325l19.885 3.831-7.297-15.689 18.061 4.743m14.412 24.812s11.493 2.555 11.128 21.711m-5.109-24.63s12.406-.729 11.676 18.608" fill="#FFD600" stroke="#000" stroke-width="1.484"/><path d="M312.38 268.698s-9.122 8.757-9.304 10.581c-.183 1.824-3.885 9.264-6.256 10.541-2.372 1.277-10.541 9.514-11.818 12.434-1.277 2.919-9.108 15.703-9.108 15.703s-8.986 13.041-14.094 14.318c-6.243.521-18.196 1.736-21.115 8.668-2.919 6.934 1.594 17.535 4.999 17.535 5.107 2.27 7.438 4.614 9.08 2.79 2.776.823 1.188 3.2 6.297.099-3.883-4.976-3.468-9.784.424-11.045 3.882-1.328 10.205 4.58 10.205 4.58s2.302-10.743 18.539-16.217c25.358 4.379 32.172-16.084 33.947-20.965 3.998-5.442 10.216-6.891 15.324-10.336l-27.12-38.686z" fill="#FFD600" stroke="#000" stroke-width="1.484"/><path d="M327.418 304.062l-11.755 6.178.912-8.338m-4.767.479l-11.064 5.107 5.083-8.613m6.306-9.955l-9.55 4.142 3.412-7.032m-10.32 52.838c1.775-3.55 10.788-14.659 10.605-14.659-.182 0-18.554 3.832-18.554 3.832l5.966-15.469-16.064 3.19m-15.208 25.46s-13.952 2.554-8.48 19.818" stroke="#000" stroke-width="1.484" stroke-linecap="round" stroke-linejoin="round" fill="none"/><path d="M256.4 338.87s-15.242.405-9.973 19.365" stroke="#000" stroke-width="1.484" fill="none"/><path d="M424.325 324.893c0-.189 5.107 12.862-5.863 15.132 28.183-2.08 36.127 30.075 36.127 30.075" stroke="#000" stroke-width="1.854" stroke-linecap="round" stroke-linejoin="round" fill="none"/><path d="M417.895 329.622s2.459 9.458-5.674 14.187c29.506 6.432 36.315 37.074 36.315 37.074m-36.884-46.91c0 .379 2.838 12.295-6.431 14.187 18.348-4.919 37.451 41.613 37.451 41.613m-39.909-50.504s4.729 9.078-3.972 11.916c16.455 1.702 21.752 55.8 21.752 55.8m-23.454-64.501s2.647 10.025-5.863 13.051c17.212-9.078 13.996 60.908 13.996 60.908m-19.482-73.391s-3.594 10.593 4.351 12.673c-15.699-4.35-12.673 60.719-12.673 60.719m.945-77.553s-2.459 9.646 7.188 14.564c-16.077-10.214-22.697 54.287-22.697 54.287m41.044-59.961s29.316 28.184 29.128 48.99m-75.468-71.689c0 .189-3.594 15.133 6.81 15.511m.567-10.025c0 .378-2.838 12.672 5.484 13.24m1.136-9.646s-5.107 12.295 7.376 13.997m-.946.189c-.189 0-24.399 22.51-28.183 48.612m23.643-50.882c-.188 0-30.83 19.104-32.911 43.505m26.103-46.72s-34.046 19.86-32.533 37.83m24.399-42.181s-25.345 4.729-31.587 31.967" stroke="#000" stroke-width="1.484" stroke-linecap="round" stroke-linejoin="round" fill="none"/><path d="M305.05 164.236s24.51 13.536 42.07 12.804l43.899-12.073s23.412 13.17 42.436 11.341c19.022-1.829 45.362-12.072 45.362-12.072 15.73 78.534-20.12 149.02-87.798 180.726-71.824-32.804-106.699-111.704-85.969-180.726z" stroke="#000" stroke-width="1.484" fill="none"/><path d="M305.05 164.236s24.511 13.536 42.07 12.805c17.56-.731 43.899-12.073 43.899-12.073s23.413 13.17 42.436 11.342c19.023-1.829 45.362-12.073 45.362-12.073 15.73 78.534-20.119 149.019-87.798 180.726-71.823-32.805-106.698-111.704-85.969-180.726z" fill="#fff" stroke="#000" stroke-width="1.484"/><path d="M314.083 221.308v49.102l13.926 23.481v-72.583h-13.926zm27.851 0v88.907l13.926 12.962v-101.869h-13.926zm27.852 0v112.392l13.926 7.732v-120.125h-13.926zm97.482 0v49.116l-13.926 23.684v-72.8h13.926zm-27.851 0v89.345l-13.926 12.7v-102.046h13.926zm-27.852 0v112.179l-13.926 8.296v-120.475h13.926z" fill="#be0a2f"/><path d="M305.05 164.236s6.128 3.384 14.449 6.676c8.323 3.294 18.839 6.494 27.619 6.127 17.56-.731 43.899-12.073 43.899-12.073s23.413 13.17 42.436 11.342c19.023-1.829 45.362-12.073 45.362-12.073 3.842 22.804 5.762 34.45 2.378 57.072h-181.035c-2.302-22.574-2.179-32.804 4.893-57.071z" fill="#002768" stroke="#000" stroke-width="1.484"/><path d="M305.05 164.236s24.51 13.536 42.07 12.804l43.899-12.073s23.412 13.17 42.436 11.341c19.022-1.829 45.362-12.072 45.362-12.072 15.73 78.534-20.12 149.02-87.798 180.726-71.824-32.804-106.699-111.704-85.969-180.726z" stroke="#000" stroke-width="1.484" fill="none"/></svg>